<?xml version="1.0" encoding="utf-8"?>
<!-- Generator: Adobe Illustrator 22.0.1, SVG Export Plug-In . SVG Version: 6.00 Build 0)  -->
<svg version="1.1" id="Capa_1" xmlns="http://www.w3.org/2000/svg" xmlns:xlink="http://www.w3.org/1999/xlink" x="0px" y="0px"
	 viewBox="0 0 1140 606" style="enable-background:new 0 0 1140 606;" xml:space="preserve">
<style type="text/css">
	.st0{fill:#70AD54;}
	.st1{fill:#FFFFFF;}
</style>
<g id="Grupo_8792" transform="translate(-390 -1677)">
	<path id="Trazado_16516" class="st0" d="M390,1897h217v75H390V1897z"/>
	<path id="Trazado_16964" class="st1" d="M458.6,1922.1h1.5c0.8,0.1,1.5-0.1,2.1-0.5c0.5-0.4,0.7-1,0.7-1.6c0.1-0.6-0.2-1.2-0.7-1.6
		c-0.7-0.4-1.4-0.5-2.1-0.5h-1.4L458.6,1922.1z M458.6,1923.9v5.1h-2.1v-12.8h3.6c1.3-0.1,2.6,0.2,3.7,0.9c0.8,0.7,1.3,1.7,1.2,2.8
		c0,1.6-1,3-2.5,3.4l3.6,5.7h-2.4l-3.1-5.1H458.6z M472,1929.2c-1.3,0.1-2.6-0.4-3.5-1.3c-0.9-1-1.4-2.3-1.3-3.6
		c-0.1-1.4,0.3-2.7,1.2-3.7c0.8-0.9,2-1.4,3.3-1.4c1.1-0.1,2.2,0.4,3,1.2c0.8,0.9,1.2,2,1.1,3.2v1.1h-6.5c0,0.8,0.2,1.6,0.8,2.2
		c0.5,0.5,1.3,0.8,2,0.8c0.5,0,1.1-0.1,1.6-0.2c0.6-0.1,1.1-0.3,1.6-0.5v1.7c-0.5,0.2-1,0.4-1.5,0.5
		C473.2,1929.1,472.6,1929.2,472,1929.2z M471.6,1920.7c-0.6,0-1.2,0.2-1.6,0.6c-0.4,0.5-0.7,1.2-0.7,1.8h4.4c0-0.7-0.2-1.3-0.6-1.8
		C472.8,1920.9,472.2,1920.6,471.6,1920.7z M484.7,1926.2c0,0.9-0.3,1.7-1,2.2c-0.9,0.6-1.9,0.8-3,0.8s-2.1-0.2-3.1-0.6v-1.8
		c1,0.5,2.1,0.8,3.2,0.8c1.3,0,1.9-0.4,1.9-1.2c0-0.2-0.1-0.4-0.2-0.6c-0.2-0.2-0.4-0.4-0.7-0.5c-0.4-0.2-0.9-0.4-1.3-0.6
		c-0.8-0.3-1.6-0.7-2.3-1.3c-0.4-0.5-0.6-1.1-0.6-1.7c0-0.8,0.4-1.5,1-1.9c0.8-0.5,1.8-0.7,2.7-0.7c1.1,0,2.2,0.2,3.2,0.7l-0.7,1.6
		c-0.8-0.4-1.7-0.6-2.6-0.6c-1.1,0-1.6,0.3-1.6,0.9c0,0.3,0.2,0.6,0.4,0.8c0.6,0.4,1.2,0.6,1.9,0.9c0.6,0.2,1.2,0.5,1.7,0.9
		c0.3,0.2,0.6,0.5,0.8,0.9C484.6,1925.4,484.7,1925.8,484.7,1926.2z M490.5,1927.5c0.5,0,1-0.1,1.5-0.2v1.6
		c-0.3,0.1-0.6,0.2-0.9,0.2c-0.4,0.1-0.7,0.1-1.1,0.1c-2,0-2.9-1-2.9-3.1v-5.2h-1.3v-0.9l1.4-0.8l0.7-2.1h1.3v2.2h2.8v1.6h-2.8v5.2
		c0,0.4,0.1,0.8,0.4,1.1C489.8,1927.4,490.2,1927.5,490.5,1927.5L490.5,1927.5z M502.6,1924.1c0.1,1.3-0.4,2.7-1.2,3.7
		c-0.9,0.9-2.1,1.4-3.4,1.3c-0.8,0-1.7-0.2-2.4-0.6c-0.7-0.4-1.3-1-1.6-1.8c-0.4-0.8-0.6-1.8-0.6-2.7c-0.1-1.3,0.4-2.7,1.2-3.7
		c0.9-0.9,2.1-1.4,3.4-1.3c1.3-0.1,2.5,0.4,3.3,1.4C502.2,1921.5,502.7,1922.8,502.6,1924.1z M495.5,1924.1c0,2.2,0.8,3.4,2.5,3.4
		c1.6,0,2.5-1.1,2.5-3.4c0-2.2-0.8-3.3-2.5-3.3c-0.7-0.1-1.5,0.3-1.9,0.9C495.7,1922.4,495.5,1923.3,495.5,1924.1z M511.5,1926.2
		c0,0.9-0.3,1.7-1,2.2c-0.9,0.6-1.9,0.8-3,0.8s-2.1-0.2-3.1-0.6v-1.8c1,0.5,2.1,0.8,3.2,0.8c1.3,0,1.9-0.4,1.9-1.2
		c0-0.2-0.1-0.4-0.2-0.6c-0.2-0.2-0.4-0.4-0.7-0.5c-0.4-0.2-0.9-0.4-1.3-0.6c-0.8-0.3-1.6-0.7-2.3-1.3c-0.4-0.5-0.6-1.1-0.6-1.7
		c0-0.8,0.4-1.5,1-1.9c0.8-0.5,1.8-0.7,2.7-0.7c1.1,0,2.2,0.2,3.2,0.7l-0.7,1.6c-0.8-0.4-1.7-0.6-2.6-0.7c-1.1,0-1.6,0.3-1.6,0.9
		c0,0.3,0.2,0.6,0.4,0.8c0.6,0.4,1.2,0.6,1.9,0.9c0.6,0.2,1.2,0.5,1.7,0.9c0.3,0.2,0.6,0.5,0.8,0.9
		C511.4,1925.4,511.5,1925.8,511.5,1926.2z M521.7,1929.2c-1.1,0.1-2.2-0.4-2.8-1.3c-0.7-1.1-1.1-2.4-1-3.7c-0.1-1.3,0.3-2.6,1-3.7
		c0.7-0.9,1.7-1.4,2.9-1.3c1.2-0.1,2.3,0.5,2.9,1.4h0.1c-0.1-0.5-0.1-1.1-0.1-1.7v-3.5h2.1v13.7h-1.6l-0.4-1.3h-0.1
		C524,1928.7,522.9,1929.2,521.7,1929.2z M522.3,1927.5c0.7,0.1,1.4-0.2,1.9-0.7c0.4-0.7,0.7-1.5,0.6-2.3v-0.3
		c0.1-0.9-0.1-1.8-0.6-2.6c-0.5-0.5-1.2-0.8-1.9-0.8s-1.3,0.3-1.7,0.9c-0.4,0.8-0.6,1.6-0.6,2.5c-0.1,0.9,0.1,1.7,0.6,2.5
		C520.9,1927.2,521.6,1927.5,522.3,1927.5L522.3,1927.5z M533.9,1929.2c-1.3,0.1-2.6-0.4-3.5-1.3c-0.9-1-1.4-2.3-1.3-3.6
		c-0.1-1.4,0.3-2.7,1.2-3.7c0.8-0.9,2-1.4,3.3-1.4c1.1-0.1,2.2,0.4,3,1.2c0.8,0.9,1.2,2,1.1,3.2v1.1h-6.5c0,0.8,0.2,1.6,0.8,2.2
		c0.5,0.5,1.3,0.8,2,0.8c0.5,0,1.1-0.1,1.6-0.2c0.6-0.1,1.1-0.3,1.6-0.5v1.7c-0.5,0.2-1,0.4-1.5,0.5
		C535.1,1929.1,534.5,1929.2,533.9,1929.2z M533.5,1920.7c-0.6,0-1.2,0.2-1.6,0.6c-0.4,0.5-0.7,1.2-0.7,1.8h4.4
		c0-0.7-0.2-1.3-0.6-1.8C534.6,1920.9,534.1,1920.6,533.5,1920.7z M483.5,1949.2c-1.1,0.1-2.2-0.4-2.9-1.3h-0.1
		c0.1,0.8,0.1,1.3,0.1,1.5v4h-2.1v-14h1.7c0,0.2,0.1,0.6,0.3,1.3h0.1c0.6-1,1.7-1.5,2.9-1.5c1.1-0.1,2.2,0.4,2.8,1.3
		c0.7,1.1,1.1,2.4,1,3.7c0.1,1.3-0.3,2.6-1,3.7C485.7,1948.7,484.6,1949.2,483.5,1949.2z M483,1940.8c-0.7-0.1-1.3,0.2-1.8,0.7
		c-0.4,0.7-0.6,1.5-0.6,2.3v0.3c-0.1,0.9,0.1,1.8,0.6,2.6c0.4,0.6,1.1,0.9,1.8,0.8c0.7,0,1.3-0.3,1.7-0.9c0.4-0.8,0.6-1.6,0.6-2.5
		c0.1-0.9-0.1-1.7-0.6-2.5C484.3,1941.1,483.6,1940.8,483,1940.8L483,1940.8z M498.4,1944.1c0.1,1.3-0.4,2.7-1.2,3.7
		c-0.9,0.9-2.1,1.4-3.4,1.3c-0.8,0-1.7-0.2-2.4-0.6c-0.7-0.4-1.3-1-1.6-1.8c-0.4-0.8-0.6-1.8-0.6-2.7c-0.1-1.3,0.4-2.7,1.2-3.7
		c0.9-0.9,2.1-1.4,3.4-1.3c1.3-0.1,2.5,0.4,3.3,1.4C498,1941.5,498.5,1942.8,498.4,1944.1z M491.3,1944.1c0,2.2,0.8,3.4,2.5,3.4
		c1.6,0,2.5-1.1,2.5-3.4c0-2.2-0.8-3.3-2.5-3.3c-0.7-0.1-1.5,0.3-1.9,0.9C491.5,1942.4,491.3,1943.3,491.3,1944.1z M504,1949.2
		c-1.1,0.1-2.2-0.4-2.8-1.3c-0.7-1.1-1.1-2.4-1-3.7c-0.1-1.3,0.3-2.6,1-3.7c0.7-0.9,1.7-1.4,2.9-1.3c1.2-0.1,2.3,0.5,2.9,1.4h0.1
		c-0.1-0.5-0.1-1.1-0.1-1.7v-3.5h2.1v13.7h-1.6l-0.4-1.3H507C506.3,1948.7,505.2,1949.2,504,1949.2z M504.6,1947.5
		c0.7,0.1,1.4-0.2,1.9-0.7c0.4-0.7,0.7-1.5,0.6-2.3v-0.3c0.1-0.9-0.1-1.8-0.6-2.6c-0.5-0.5-1.2-0.8-1.9-0.8c-0.7,0-1.3,0.3-1.7,0.9
		c-0.4,0.8-0.6,1.6-0.6,2.5c-0.1,0.9,0.1,1.7,0.6,2.5C503.3,1947.2,503.9,1947.5,504.6,1947.5L504.6,1947.5z M518,1949l-0.4-1.4
		h-0.1c-0.4,0.5-0.9,0.9-1.4,1.2c-0.6,0.2-1.2,0.3-1.8,0.3c-0.8,0-1.6-0.2-2.2-0.8c-0.6-0.6-0.9-1.4-0.8-2.2
		c-0.1-0.9,0.4-1.8,1.1-2.3c1-0.6,2.2-0.9,3.4-0.8l1.7-0.1v-0.5c0-0.5-0.1-1-0.4-1.4c-0.4-0.3-0.9-0.5-1.3-0.5c-0.5,0-1,0.1-1.4,0.2
		c-0.5,0.1-0.9,0.3-1.3,0.5l-0.7-1.5c0.5-0.3,1.1-0.5,1.7-0.6c0.6-0.1,1.2-0.2,1.8-0.2c1-0.1,2,0.2,2.8,0.8c0.7,0.7,1,1.6,0.9,2.5
		v6.5H518V1949z M515,1947.6c0.7,0,1.3-0.2,1.8-0.6c0.5-0.5,0.7-1.1,0.7-1.8v-0.8l-1.2,0.1c-0.7,0-1.5,0.1-2.1,0.5
		c-0.4,0.3-0.7,0.8-0.7,1.3c0,0.4,0.1,0.7,0.4,1C514.1,1947.5,514.6,1947.6,515,1947.6z"/>
	
		<image style="overflow:visible;enable-background:new    ;" width="303" height="303" id="restos_poda" xlink:href="6629A0D7F244FC3E.jpeg"  transform="matrix(0.7161 0 0 0.7161 390 1677)">
	</image>
	<rect id="Rectángulo_1875" x="621" y="1897" class="st0" width="217" height="75"/>
	<path id="Trazado_16966" class="st1" d="M692.4,1922.1h1.5c0.8,0.1,1.5-0.1,2.1-0.5c0.5-0.4,0.7-1,0.7-1.6c0.1-0.6-0.2-1.2-0.7-1.6
		c-0.7-0.4-1.4-0.5-2.1-0.5h-1.4L692.4,1922.1z M692.4,1923.9v5.1h-2.1v-12.8h3.6c1.3-0.1,2.6,0.2,3.7,0.9c0.8,0.7,1.3,1.7,1.2,2.8
		c0,1.6-1,3-2.5,3.4l3.6,5.7h-2.4l-3.1-5.1H692.4z M705.9,1929.2c-1.3,0.1-2.6-0.4-3.5-1.3c-0.9-1-1.4-2.3-1.3-3.6
		c-0.1-1.4,0.3-2.7,1.2-3.7c0.8-0.9,2-1.4,3.3-1.4c1.1-0.1,2.2,0.4,3,1.2c0.8,0.9,1.2,2,1.1,3.2v1.1h-6.5c0,0.8,0.2,1.6,0.8,2.2
		c0.5,0.5,1.3,0.8,2,0.8c0.5,0,1.1-0.1,1.6-0.2c0.6-0.1,1.1-0.3,1.6-0.5v1.7c-0.5,0.2-1,0.4-1.5,0.5
		C707,1929.1,706.5,1929.2,705.9,1929.2z M705.5,1920.7c-0.6,0-1.2,0.2-1.6,0.6c-0.4,0.5-0.7,1.2-0.7,1.8h4.4c0-0.7-0.2-1.3-0.6-1.8
		C706.6,1920.9,706.1,1920.6,705.5,1920.7z M718.5,1926.2c0,0.9-0.3,1.7-1,2.2c-0.9,0.6-1.9,0.8-3,0.8s-2.1-0.2-3.1-0.6v-1.8
		c1,0.5,2.1,0.8,3.2,0.8c1.3,0,1.9-0.4,1.9-1.2c0-0.2-0.1-0.4-0.2-0.6c-0.2-0.2-0.4-0.4-0.7-0.5c-0.4-0.2-0.9-0.4-1.3-0.6
		c-0.8-0.3-1.6-0.7-2.3-1.3c-0.4-0.5-0.6-1.1-0.6-1.7c0-0.8,0.4-1.5,1-1.9c0.8-0.5,1.8-0.7,2.7-0.7c1.1,0,2.2,0.2,3.2,0.7l-0.7,1.6
		c-0.8-0.4-1.7-0.6-2.6-0.7c-1.1,0-1.6,0.3-1.6,0.9c0,0.3,0.2,0.6,0.4,0.8c0.6,0.4,1.2,0.6,1.9,0.9c0.6,0.2,1.2,0.5,1.7,0.9
		c0.3,0.2,0.6,0.5,0.8,0.9C718.4,1925.4,718.5,1925.8,718.5,1926.2z M722.8,1929h-2.1v-9.7h2.1V1929z M720.6,1916.7
		c0-0.3,0.1-0.6,0.3-0.9c0.2-0.2,0.5-0.3,0.9-0.3c0.3,0,0.6,0.1,0.8,0.3c0.2,0.2,0.3,0.5,0.3,0.9c0,0.3-0.1,0.6-0.3,0.8
		c-0.2,0.2-0.5,0.3-0.8,0.3s-0.6-0.1-0.9-0.3C720.7,1917.3,720.6,1917,720.6,1916.7z M729,1929.2c-1.1,0.1-2.2-0.4-2.8-1.3
		c-0.7-1.1-1.1-2.4-1-3.7c-0.1-1.3,0.3-2.6,1-3.7c0.7-0.9,1.7-1.4,2.9-1.3c1.2-0.1,2.3,0.5,2.9,1.4h0.1c-0.1-0.5-0.1-1.1-0.1-1.7
		v-3.5h2.1v13.7h-1.6l-0.4-1.3H732C731.3,1928.7,730.2,1929.2,729,1929.2z M729.6,1927.5c0.7,0.1,1.4-0.2,1.9-0.7
		c0.4-0.7,0.7-1.5,0.6-2.3v-0.3c0.1-0.9-0.1-1.8-0.6-2.6c-0.5-0.5-1.2-0.8-1.9-0.8s-1.3,0.3-1.7,0.9c-0.4,0.8-0.6,1.6-0.6,2.5
		c-0.1,0.9,0.1,1.7,0.6,2.5C728.3,1927.2,728.9,1927.5,729.6,1927.5z M743.8,1929l-0.3-1.3h-0.1c-0.3,0.5-0.7,0.8-1.2,1.1
		c-0.6,0.3-1.2,0.4-1.8,0.4c-1,0.1-1.9-0.2-2.6-0.9c-0.6-0.7-0.9-1.7-0.9-2.7v-6.4h2.1v6c0,0.6,0.1,1.2,0.5,1.7
		c0.4,0.4,0.9,0.6,1.4,0.6c0.7,0.1,1.4-0.2,1.9-0.8c0.5-0.8,0.7-1.7,0.6-2.6v-4.8h2.1v9.7L743.8,1929L743.8,1929z M757,1924.1
		c0.1,1.3-0.4,2.7-1.2,3.7c-0.9,0.9-2.1,1.4-3.4,1.3c-0.8,0-1.7-0.2-2.4-0.6s-1.3-1-1.6-1.8c-0.4-0.8-0.6-1.8-0.6-2.7
		c-0.1-1.3,0.4-2.7,1.2-3.7c0.9-0.9,2.1-1.4,3.4-1.3c1.3-0.1,2.5,0.4,3.3,1.4C756.7,1921.5,757.1,1922.8,757,1924.1z M750,1924.1
		c0,2.2,0.8,3.4,2.5,3.4c1.6,0,2.5-1.1,2.5-3.4c0-2.2-0.8-3.3-2.5-3.3c-0.7-0.1-1.5,0.3-1.9,0.9
		C750.1,1922.4,749.9,1923.3,750,1924.1z M765.9,1926.2c0,0.9-0.3,1.7-1,2.2c-0.9,0.6-1.9,0.8-3,0.8s-2.1-0.2-3.1-0.6v-1.8
		c1,0.5,2.1,0.8,3.2,0.8c1.3,0,1.9-0.4,1.9-1.2c0-0.2-0.1-0.4-0.2-0.6c-0.2-0.2-0.4-0.4-0.7-0.5c-0.4-0.2-0.9-0.4-1.3-0.6
		c-0.8-0.3-1.6-0.7-2.3-1.3c-0.4-0.5-0.6-1.1-0.6-1.7c0-0.8,0.4-1.5,1-1.9c0.8-0.5,1.8-0.7,2.7-0.7c1.1,0,2.2,0.2,3.2,0.7l-0.7,1.6
		c-0.8-0.4-1.7-0.6-2.6-0.7c-1.1,0-1.6,0.3-1.6,0.9c0,0.3,0.2,0.6,0.4,0.8c0.6,0.4,1.2,0.6,1.9,0.9c0.6,0.2,1.2,0.5,1.7,0.9
		c0.3,0.2,0.6,0.5,0.8,0.9C765.9,1925.4,765.9,1925.8,765.9,1926.2z M686.7,1949.2c-1.1,0.1-2.2-0.4-2.8-1.3c-0.7-1.1-1.1-2.4-1-3.7
		c-0.1-1.3,0.3-2.6,1-3.7c0.7-0.9,1.7-1.4,2.9-1.3c1.2-0.1,2.3,0.5,2.9,1.4h0.1c-0.1-0.5-0.1-1.1-0.1-1.7v-3.5h2.1v13.7h-1.6
		l-0.4-1.3h-0.1C689,1948.7,687.9,1949.2,686.7,1949.2L686.7,1949.2z M687.3,1947.5c0.7,0.1,1.4-0.2,1.9-0.7
		c0.4-0.7,0.7-1.5,0.6-2.3v-0.3c0.1-0.9-0.1-1.8-0.6-2.6c-0.5-0.5-1.2-0.8-1.9-0.8s-1.3,0.3-1.7,0.9c-0.4,0.8-0.6,1.6-0.6,2.5
		c-0.1,0.9,0.1,1.7,0.6,2.5C685.9,1947.2,686.6,1947.5,687.3,1947.5L687.3,1947.5z M698.9,1949.2c-1.3,0.1-2.6-0.4-3.5-1.3
		c-0.9-1-1.4-2.3-1.3-3.6c-0.1-1.4,0.3-2.7,1.2-3.7c0.8-0.9,2-1.4,3.3-1.4c1.1-0.1,2.2,0.4,3,1.2c0.8,0.9,1.2,2,1.1,3.2v1.1h-6.5
		c0,0.8,0.2,1.6,0.8,2.2c0.5,0.5,1.3,0.8,2,0.8c0.5,0,1.1-0.1,1.6-0.2c0.6-0.1,1.1-0.3,1.6-0.5v1.7c-0.5,0.2-1,0.4-1.5,0.5
		C700.1,1949.1,699.5,1949.2,698.9,1949.2L698.9,1949.2z M698.5,1940.7c-0.6,0-1.2,0.2-1.6,0.6c-0.4,0.5-0.7,1.2-0.7,1.8h4.4
		c0-0.7-0.2-1.3-0.6-1.8C699.7,1940.9,699.1,1940.6,698.5,1940.7L698.5,1940.7z M713.6,1949.2c-1.3,0.1-2.5-0.4-3.4-1.3
		c-0.8-1-1.2-2.4-1.1-3.7c-0.1-1.4,0.3-2.7,1.2-3.8c0.9-0.9,2.2-1.4,3.5-1.3c1,0,1.9,0.2,2.8,0.6l-0.6,1.7c-0.7-0.3-1.4-0.5-2.2-0.5
		c-1.7,0-2.5,1.1-2.5,3.3c-0.1,0.9,0.2,1.7,0.6,2.5c0.4,0.6,1.1,0.9,1.8,0.8c0.9,0,1.8-0.2,2.6-0.7v1.8c-0.4,0.2-0.8,0.4-1.2,0.5
		C714.6,1949.1,714.1,1949.2,713.6,1949.2L713.6,1949.2z M727.2,1944.1c0.1,1.4-0.4,2.7-1.2,3.7c-0.9,0.9-2.1,1.4-3.4,1.3
		c-0.8,0-1.7-0.2-2.4-0.6s-1.3-1-1.6-1.8c-0.4-0.8-0.6-1.8-0.6-2.7c-0.1-1.3,0.4-2.7,1.2-3.7c0.9-0.9,2.1-1.4,3.4-1.3
		c1.3-0.1,2.5,0.4,3.3,1.4C726.9,1941.5,727.3,1942.8,727.2,1944.1L727.2,1944.1z M720.2,1944.1c0,2.2,0.8,3.4,2.5,3.4
		c1.6,0,2.5-1.1,2.5-3.4c0-2.2-0.8-3.3-2.5-3.3c-0.7-0.1-1.5,0.3-1.9,0.9C720.3,1942.4,720.1,1943.3,720.2,1944.1L720.2,1944.1z
		 M736.1,1946.2c0,0.9-0.3,1.7-1,2.2c-0.9,0.6-1.9,0.8-3,0.8s-2.1-0.2-3.1-0.6v-1.8c1,0.5,2.1,0.8,3.2,0.8c1.3,0,1.9-0.4,1.9-1.2
		c0-0.2-0.1-0.4-0.2-0.6c-0.2-0.2-0.4-0.4-0.7-0.5c-0.4-0.2-0.9-0.4-1.3-0.6c-0.8-0.3-1.6-0.7-2.3-1.3c-0.4-0.5-0.6-1.1-0.6-1.7
		c0-0.8,0.4-1.5,1-1.9c0.8-0.5,1.8-0.7,2.7-0.7c1.1,0,2.2,0.2,3.2,0.7l-0.7,1.6c-0.8-0.4-1.7-0.6-2.6-0.7c-1.1,0-1.6,0.3-1.6,0.9
		c0,0.3,0.2,0.6,0.4,0.8c0.6,0.4,1.2,0.6,1.9,0.9c0.6,0.2,1.2,0.5,1.7,0.9c0.3,0.2,0.6,0.5,0.8,0.9
		C736.1,1945.4,736.1,1945.8,736.1,1946.2z M742.6,1949.2c-1.3,0.1-2.6-0.4-3.5-1.3c-0.9-1-1.4-2.3-1.3-3.6
		c-0.1-1.4,0.3-2.7,1.2-3.7c0.8-0.9,2-1.4,3.3-1.4c1.1-0.1,2.2,0.4,3,1.2c0.8,0.9,1.2,2,1.1,3.2v1.1h-6.5c0,0.8,0.2,1.6,0.8,2.2
		c0.5,0.5,1.3,0.8,2,0.8c0.5,0,1.1-0.1,1.6-0.2c0.6-0.1,1.1-0.3,1.6-0.5v1.7c-0.5,0.2-1,0.4-1.5,0.5
		C743.8,1949.1,743.2,1949.2,742.6,1949.2L742.6,1949.2z M742.2,1940.7c-0.6,0-1.2,0.2-1.6,0.6c-0.4,0.5-0.7,1.2-0.7,1.8h4.4
		c0-0.7-0.2-1.3-0.6-1.8C743.4,1940.9,742.8,1940.6,742.2,1940.7L742.2,1940.7z M752.7,1949.2c-1.3,0.1-2.5-0.4-3.4-1.3
		c-0.8-1-1.2-2.4-1.1-3.7c-0.1-1.4,0.3-2.7,1.2-3.8c0.9-0.9,2.2-1.4,3.5-1.3c1,0,1.9,0.2,2.8,0.6l-0.6,1.7c-0.7-0.3-1.4-0.5-2.2-0.5
		c-1.7,0-2.5,1.1-2.5,3.3c-0.1,0.9,0.2,1.7,0.6,2.5c0.4,0.6,1.1,0.9,1.8,0.8c0.9,0,1.8-0.2,2.6-0.7v1.8c-0.4,0.2-0.8,0.4-1.2,0.5
		C753.7,1949.1,753.2,1949.2,752.7,1949.2L752.7,1949.2z M766.2,1949h-2.1v-6c0-0.6-0.1-1.2-0.5-1.7c-0.4-0.4-0.9-0.6-1.4-0.6
		c-0.7-0.1-1.4,0.2-1.9,0.8c-0.5,0.8-0.7,1.7-0.6,2.6v4.8h-2.1v-13.7h2.1v3.5c0,0.6,0,1.2-0.1,1.8h0.1c0.3-0.5,0.7-0.8,1.2-1.1
		c0.5-0.3,1.1-0.4,1.8-0.4c2.4,0,3.5,1.2,3.5,3.6V1949z M775.2,1949l-0.4-1.4h-0.1c-0.4,0.5-0.9,0.9-1.4,1.2
		c-0.6,0.2-1.2,0.3-1.8,0.3c-0.8,0-1.6-0.2-2.2-0.8c-0.6-0.6-0.9-1.4-0.8-2.2c-0.1-0.9,0.4-1.8,1.1-2.3c1-0.6,2.2-0.9,3.4-0.8
		l1.7-0.1v-0.5c0-0.5-0.1-1-0.4-1.4c-0.4-0.3-0.9-0.5-1.3-0.5c-0.5,0-1,0.1-1.4,0.2c-0.5,0.1-0.9,0.3-1.3,0.5l-0.7-1.5
		c0.5-0.3,1.1-0.5,1.7-0.6c0.6-0.1,1.2-0.2,1.8-0.2c1-0.1,2,0.2,2.8,0.8c0.7,0.7,1,1.6,0.9,2.5v6.5h-1.6V1949z M772.1,1947.6
		c0.7,0,1.3-0.2,1.8-0.6c0.5-0.5,0.7-1.1,0.7-1.8v-0.8l-1.2,0.1c-0.7,0-1.5,0.1-2.1,0.5c-0.4,0.3-0.7,0.8-0.7,1.3
		c0,0.4,0.1,0.7,0.4,1C771.3,1947.5,771.7,1947.6,772.1,1947.6L772.1,1947.6z"/>
	
		<image style="overflow:visible;enable-background:new    ;" width="303" height="303" id="residuos_cosecha" xlink:href="6629A0D7F244FC42.jpeg"  transform="matrix(0.7161 0 0 0.7161 622 1677)">
	</image>
	<rect id="Rectángulo_1877" x="852" y="1897" class="st0" width="217" height="75"/>
	<path id="Trazado_16965" class="st1" d="M923.4,1918.1h1.5c0.8,0.1,1.5-0.1,2.1-0.5c0.5-0.4,0.7-1,0.7-1.6c0.1-0.6-0.2-1.2-0.7-1.6
		c-0.7-0.4-1.4-0.5-2.1-0.5h-1.4L923.4,1918.1z M923.4,1919.9v5.1h-2.1v-12.8h3.6c1.3-0.1,2.6,0.2,3.7,0.9c0.8,0.7,1.3,1.7,1.2,2.8
		c0,1.6-1,3-2.5,3.4l3.6,5.7h-2.4l-3.1-5.1H923.4z M936.9,1925.2c-1.3,0.1-2.6-0.4-3.5-1.3c-0.9-1-1.4-2.3-1.3-3.6
		c-0.1-1.4,0.3-2.7,1.2-3.7c0.8-0.9,2-1.4,3.3-1.4c1.1-0.1,2.2,0.4,3,1.2c0.8,0.9,1.2,2,1.1,3.2v1.1h-6.5c0,0.8,0.2,1.6,0.8,2.2
		c0.5,0.5,1.3,0.8,2,0.8c0.5,0,1.1-0.1,1.6-0.2c0.6-0.1,1.1-0.3,1.6-0.5v1.7c-0.5,0.2-1,0.4-1.5,0.5
		C938,1925.1,937.5,1925.2,936.9,1925.2z M936.5,1916.7c-0.6,0-1.2,0.2-1.6,0.6c-0.4,0.5-0.7,1.2-0.7,1.8h4.4c0-0.7-0.2-1.3-0.6-1.8
		C937.6,1916.9,937.1,1916.6,936.5,1916.7z M949.5,1922.2c0,0.9-0.3,1.7-1,2.2c-0.9,0.6-1.9,0.8-3,0.8s-2.1-0.2-3.1-0.6v-1.8
		c1,0.5,2.1,0.8,3.2,0.8c1.3,0,1.9-0.4,1.9-1.2c0-0.2-0.1-0.4-0.2-0.6c-0.2-0.2-0.4-0.4-0.7-0.5c-0.4-0.2-0.9-0.4-1.3-0.6
		c-0.8-0.3-1.6-0.7-2.3-1.3c-0.4-0.5-0.6-1.1-0.6-1.7c0-0.8,0.4-1.5,1-1.9c0.8-0.5,1.8-0.7,2.7-0.7c1.1,0,2.2,0.2,3.2,0.7l-0.7,1.6
		c-0.8-0.4-1.7-0.6-2.6-0.7c-1.1,0-1.6,0.3-1.6,0.9c0,0.3,0.2,0.6,0.4,0.8c0.6,0.4,1.2,0.6,1.9,0.9c0.6,0.2,1.2,0.5,1.7,0.9
		c0.3,0.2,0.6,0.5,0.8,0.9C949.4,1921.4,949.5,1921.8,949.5,1922.2z M953.8,1925h-2.1v-9.7h2.1V1925z M951.6,1912.7
		c0-0.3,0.1-0.6,0.3-0.9c0.2-0.2,0.5-0.3,0.9-0.3c0.3,0,0.6,0.1,0.8,0.3c0.2,0.2,0.3,0.5,0.3,0.9c0,0.3-0.1,0.6-0.3,0.8
		c-0.2,0.2-0.5,0.3-0.8,0.3s-0.6-0.1-0.9-0.3C951.7,1913.3,951.6,1913,951.6,1912.7z M960,1925.2c-1.1,0.1-2.2-0.4-2.8-1.3
		c-0.7-1.1-1.1-2.4-1-3.7c-0.1-1.3,0.3-2.6,1-3.7c0.7-0.9,1.7-1.4,2.9-1.3c1.2-0.1,2.3,0.5,2.9,1.4h0.1c-0.1-0.5-0.1-1.1-0.1-1.7
		v-3.5h2.1v13.7h-1.6l-0.4-1.3H963C962.3,1924.7,961.2,1925.2,960,1925.2z M960.6,1923.5c0.7,0.1,1.4-0.2,1.9-0.7
		c0.4-0.7,0.7-1.5,0.6-2.3v-0.3c0.1-0.9-0.1-1.8-0.6-2.6c-0.5-0.5-1.2-0.8-1.9-0.8s-1.3,0.3-1.7,0.9c-0.4,0.8-0.6,1.6-0.6,2.5
		c-0.1,0.9,0.1,1.7,0.6,2.5C959.3,1923.2,959.9,1923.5,960.6,1923.5z M974.8,1925l-0.3-1.3h-0.1c-0.3,0.5-0.7,0.8-1.2,1.1
		c-0.6,0.3-1.2,0.4-1.8,0.4c-1,0.1-1.9-0.2-2.6-0.9c-0.6-0.7-0.9-1.7-0.9-2.7v-6.4h2.1v6c0,0.6,0.1,1.2,0.5,1.7
		c0.4,0.4,0.9,0.6,1.4,0.6c0.7,0.1,1.4-0.2,1.9-0.8c0.5-0.8,0.7-1.7,0.6-2.6v-4.8h2.1v9.7L974.8,1925L974.8,1925z M988,1920.1
		c0.1,1.3-0.4,2.7-1.2,3.7c-0.9,0.9-2.1,1.4-3.4,1.3c-0.8,0-1.7-0.2-2.4-0.6s-1.3-1-1.6-1.8c-0.4-0.8-0.6-1.8-0.6-2.7
		c-0.1-1.3,0.4-2.7,1.2-3.7c0.9-0.9,2.1-1.4,3.4-1.3c1.3-0.1,2.5,0.4,3.3,1.4C987.7,1917.5,988.1,1918.8,988,1920.1z M981,1920.1
		c0,2.2,0.8,3.4,2.5,3.4c1.6,0,2.5-1.1,2.5-3.4c0-2.2-0.8-3.3-2.5-3.3c-0.7-0.1-1.5,0.3-1.9,0.9
		C981.1,1918.4,980.9,1919.3,981,1920.1z M996.9,1922.2c0,0.9-0.3,1.7-1,2.2c-0.9,0.6-1.9,0.8-3,0.8s-2.1-0.2-3.1-0.6v-1.8
		c1,0.5,2.1,0.8,3.2,0.8c1.3,0,1.9-0.4,1.9-1.2c0-0.2-0.1-0.4-0.2-0.6c-0.2-0.2-0.4-0.4-0.7-0.5c-0.4-0.2-0.9-0.4-1.3-0.6
		c-0.8-0.3-1.6-0.7-2.3-1.3c-0.4-0.5-0.6-1.1-0.6-1.7c0-0.8,0.4-1.5,1-1.9c0.8-0.5,1.8-0.7,2.7-0.7c1.1,0,2.2,0.2,3.2,0.7l-0.7,1.6
		c-0.8-0.4-1.7-0.6-2.6-0.7c-1.1,0-1.6,0.3-1.6,0.9c0,0.3,0.2,0.6,0.4,0.8c0.6,0.4,1.2,0.6,1.9,0.9c0.6,0.2,1.2,0.5,1.7,0.9
		c0.3,0.2,0.6,0.5,0.8,0.9C996.9,1921.4,996.9,1921.8,996.9,1922.2z M902.8,1949.2c-1.1,0.1-2.2-0.4-2.8-1.3c-0.7-1.1-1.1-2.4-1-3.7
		c-0.1-1.3,0.3-2.6,1-3.7c0.7-0.9,1.7-1.4,2.9-1.3c1.2-0.1,2.3,0.5,2.9,1.4h0.1c-0.1-0.5-0.1-1.1-0.1-1.7v-3.5h2.1v13.7h-1.6
		l-0.4-1.3h-0.1C905,1948.7,903.9,1949.2,902.8,1949.2z M903.3,1947.5c0.7,0.1,1.4-0.2,1.9-0.7c0.4-0.7,0.7-1.5,0.6-2.3v-0.3
		c0.1-0.9-0.1-1.8-0.6-2.6c-0.5-0.5-1.2-0.8-1.9-0.8s-1.3,0.3-1.7,0.9c-0.4,0.8-0.6,1.6-0.6,2.5c-0.1,0.9,0.1,1.7,0.6,2.5
		C902,1947.2,902.6,1947.5,903.3,1947.5z M914.9,1949.2c-1.3,0.1-2.6-0.4-3.5-1.3c-0.9-1-1.4-2.3-1.3-3.6c-0.1-1.4,0.3-2.7,1.2-3.7
		c0.8-0.9,2-1.4,3.3-1.4c1.1-0.1,2.2,0.4,3,1.2c0.8,0.9,1.2,2,1.1,3.2v1.1h-6.5c0,0.8,0.2,1.6,0.8,2.2c0.5,0.5,1.3,0.8,2,0.8
		c0.5,0,1.1-0.1,1.6-0.2c0.6-0.1,1.1-0.3,1.6-0.5v1.7c-0.5,0.2-1,0.4-1.5,0.5C916.1,1949.1,915.5,1949.2,914.9,1949.2z
		 M914.6,1940.7c-0.6,0-1.2,0.2-1.6,0.6c-0.4,0.5-0.7,1.2-0.7,1.8h4.4c0-0.7-0.2-1.3-0.6-1.8
		C915.7,1940.9,915.1,1940.6,914.6,1940.7z M945.4,1944.1c0.1,1.3-0.4,2.7-1.2,3.7c-0.9,0.9-2.1,1.4-3.4,1.3c-0.8,0-1.7-0.2-2.4-0.6
		s-1.3-1-1.6-1.8c-0.4-0.8-0.6-1.8-0.6-2.7c-0.1-1.3,0.4-2.7,1.2-3.7c0.9-0.9,2.1-1.4,3.4-1.3c1.3-0.1,2.5,0.4,3.3,1.4
		C945.1,1941.5,945.5,1942.8,945.4,1944.1L945.4,1944.1z M938.4,1944.1c0,2.2,0.8,3.4,2.5,3.4c1.6,0,2.5-1.1,2.5-3.4
		c0-2.2-0.8-3.3-2.5-3.3c-0.7-0.1-1.5,0.3-1.9,0.9C938.5,1942.4,938.3,1943.3,938.4,1944.1L938.4,1944.1z M954.3,1946.2
		c0,0.9-0.3,1.7-1,2.2c-0.9,0.6-1.9,0.8-3,0.8s-2.1-0.2-3.1-0.6v-1.8c1,0.5,2.1,0.8,3.2,0.8c1.3,0,1.9-0.4,1.9-1.2
		c0-0.2-0.1-0.4-0.2-0.6c-0.2-0.2-0.4-0.4-0.7-0.5c-0.4-0.2-0.9-0.4-1.3-0.6c-0.8-0.3-1.6-0.7-2.3-1.3c-0.4-0.5-0.6-1.1-0.6-1.7
		c0-0.8,0.4-1.5,1-1.9c0.8-0.5,1.8-0.7,2.7-0.7c1.1,0,2.2,0.2,3.2,0.7l-0.7,1.6c-0.8-0.4-1.7-0.6-2.6-0.7c-1.1,0-1.6,0.3-1.6,0.9
		c0,0.3,0.2,0.6,0.4,0.8c0.6,0.4,1.2,0.6,1.9,0.9c0.6,0.2,1.2,0.5,1.7,0.9c0.3,0.2,0.6,0.5,0.8,0.9
		C954.3,1945.4,954.4,1945.8,954.3,1946.2L954.3,1946.2z M960.6,1949.2c-1.3,0.1-2.5-0.4-3.4-1.3c-0.8-1-1.2-2.4-1.1-3.7
		c-0.1-1.4,0.3-2.7,1.2-3.8c0.9-0.9,2.2-1.4,3.5-1.3c1,0,1.9,0.2,2.8,0.6l-0.6,1.7c-0.7-0.3-1.4-0.5-2.2-0.5c-1.7,0-2.5,1.1-2.5,3.4
		c-0.1,0.9,0.2,1.7,0.6,2.5c0.4,0.6,1.1,0.9,1.8,0.8c0.9,0,1.8-0.2,2.6-0.7v1.8c-0.4,0.2-0.8,0.4-1.2,0.5
		C961.6,1949.1,961.1,1949.2,960.6,1949.2L960.6,1949.2z M974.2,1944.1c0.1,1.3-0.4,2.7-1.2,3.7c-0.9,0.9-2.1,1.4-3.4,1.3
		c-0.8,0-1.7-0.2-2.4-0.6s-1.3-1-1.6-1.8c-0.4-0.8-0.6-1.8-0.6-2.7c-0.1-1.3,0.4-2.7,1.2-3.7c0.9-0.9,2.1-1.4,3.4-1.3
		c1.3-0.1,2.5,0.4,3.3,1.4C973.8,1941.5,974.3,1942.8,974.2,1944.1L974.2,1944.1z M967.1,1944.1c0,2.2,0.8,3.4,2.5,3.4
		c1.6,0,2.5-1.1,2.5-3.4c0-2.2-0.8-3.3-2.5-3.3c-0.7-0.1-1.5,0.3-1.9,0.9C967.3,1942.4,967.1,1943.3,967.1,1944.1L967.1,1944.1z
		 M983.1,1946.2c0,0.9-0.3,1.7-1,2.2c-0.9,0.6-1.9,0.8-3,0.8s-2.1-0.2-3.1-0.6v-1.8c1,0.5,2.1,0.8,3.2,0.8c1.3,0,1.9-0.4,1.9-1.2
		c0-0.2-0.1-0.4-0.2-0.6c-0.2-0.2-0.4-0.4-0.7-0.5c-0.4-0.2-0.9-0.4-1.3-0.6c-0.8-0.3-1.6-0.7-2.3-1.3c-0.4-0.5-0.6-1.1-0.6-1.7
		c0-0.8,0.4-1.5,1-1.9c0.8-0.5,1.8-0.7,2.7-0.7c1.1,0,2.2,0.2,3.2,0.7l-0.7,1.6c-0.8-0.4-1.7-0.6-2.6-0.7c-1.1,0-1.6,0.3-1.6,0.9
		c0,0.3,0.2,0.6,0.4,0.8c0.6,0.4,1.2,0.6,1.9,0.9c0.6,0.2,1.2,0.5,1.7,0.9c0.3,0.2,0.6,0.5,0.8,0.9
		C983,1945.4,983.1,1945.8,983.1,1946.2L983.1,1946.2z M989.6,1949.2c-1.3,0.1-2.6-0.4-3.5-1.3c-0.9-1-1.4-2.3-1.3-3.6
		c-0.1-1.4,0.3-2.7,1.2-3.7c0.8-0.9,2-1.4,3.3-1.4c1.1-0.1,2.2,0.4,3,1.2c0.8,0.9,1.2,2,1.1,3.2v1.1h-6.5c0,0.8,0.2,1.6,0.8,2.2
		c0.5,0.5,1.3,0.8,2,0.8c0.5,0,1.1-0.1,1.6-0.2c0.6-0.1,1.1-0.3,1.6-0.5v1.7c-0.5,0.2-1,0.4-1.5,0.5
		C990.8,1949.1,990.2,1949.2,989.6,1949.2L989.6,1949.2z M989.2,1940.7c-0.6,0-1.2,0.2-1.6,0.6c-0.4,0.5-0.7,1.2-0.7,1.8h4.4
		c0-0.7-0.2-1.3-0.6-1.8C990.3,1940.9,989.8,1940.6,989.2,1940.7L989.2,1940.7z M999.6,1949.2c-1.3,0.1-2.5-0.4-3.4-1.3
		c-0.8-1-1.2-2.4-1.1-3.7c-0.1-1.4,0.3-2.7,1.2-3.8c0.9-0.9,2.2-1.4,3.5-1.3c1,0,1.9,0.2,2.8,0.6l-0.6,1.7c-0.7-0.3-1.4-0.5-2.2-0.5
		c-1.7,0-2.5,1.1-2.5,3.3c-0.1,0.9,0.2,1.7,0.6,2.5c0.4,0.6,1.1,0.9,1.8,0.8c0.9,0,1.8-0.2,2.6-0.7v1.8c-0.4,0.2-0.8,0.4-1.2,0.5
		C1000.6,1949.1,1000.1,1949.2,999.6,1949.2L999.6,1949.2z M1013.2,1949h-2.1v-6c0-0.6-0.1-1.2-0.5-1.7c-0.4-0.4-0.9-0.6-1.4-0.6
		c-0.7-0.1-1.4,0.2-1.9,0.8c-0.5,0.8-0.7,1.7-0.6,2.6v4.8h-2.1v-13.7h2.1v3.5c0,0.6,0,1.2-0.1,1.8h0.1c0.3-0.5,0.7-0.8,1.2-1.1
		c0.5-0.3,1.1-0.4,1.8-0.4c2.4,0,3.5,1.2,3.5,3.6V1949z M1022.1,1949l-0.4-1.4h-0.1c-0.4,0.5-0.9,0.9-1.4,1.2
		c-0.6,0.2-1.2,0.3-1.8,0.3c-0.8,0-1.6-0.2-2.2-0.8c-0.6-0.6-0.9-1.4-0.8-2.2c-0.1-0.9,0.4-1.8,1.1-2.3c1-0.6,2.2-0.9,3.4-0.8
		l1.7-0.1v-0.5c0-0.5-0.1-1-0.4-1.4c-0.4-0.3-0.9-0.5-1.3-0.5c-0.5,0-1,0.1-1.4,0.2c-0.5,0.1-0.9,0.3-1.3,0.5l-0.7-1.5
		c0.5-0.3,1.1-0.5,1.7-0.6c0.6-0.1,1.2-0.2,1.8-0.2c1-0.1,2,0.2,2.8,0.8c0.7,0.7,1,1.6,0.9,2.5v6.5h-1.6V1949z M1019,1947.6
		c0.7,0,1.3-0.2,1.8-0.6c0.5-0.5,0.7-1.1,0.7-1.8v-0.8l-1.2,0.1c-0.7,0-1.5,0.1-2.1,0.5c-0.4,0.3-0.7,0.8-0.7,1.3
		c0,0.4,0.1,0.7,0.4,1C1018.2,1947.5,1018.6,1947.6,1019,1947.6z M931.5,1949.2c-1.1,0.1-2.2-0.4-2.9-1.3h-0.1
		c0.1,0.8,0.1,1.3,0.1,1.5v4h-2.1v-14h1.7c0,0.2,0.1,0.6,0.3,1.3h0.1c0.6-1,1.7-1.5,2.9-1.5c1.1-0.1,2.2,0.4,2.8,1.3
		c0.7,1.1,1.1,2.4,1,3.7c0.1,1.3-0.3,2.6-1,3.7C933.7,1948.7,932.6,1949.2,931.5,1949.2z M931,1940.8c-0.7-0.1-1.3,0.2-1.8,0.7
		c-0.4,0.7-0.6,1.5-0.6,2.3v0.3c-0.1,0.9,0.1,1.8,0.6,2.6c0.4,0.6,1.1,0.9,1.8,0.8c0.7,0,1.3-0.3,1.7-0.9c0.4-0.8,0.6-1.6,0.6-2.5
		c0.1-0.9-0.1-1.7-0.6-2.5C932.3,1941.1,931.6,1940.8,931,1940.8L931,1940.8z"/>
	
		<image style="overflow:visible;enable-background:new    ;" width="303" height="303" id="postcosecha" xlink:href="6629A0D7F244FC42.jpeg"  transform="matrix(0.7161 0 0 0.7161 852 1677)">
	</image>
	
		<image style="overflow:visible;enable-background:new    ;" width="303" height="303" id="estiercol" xlink:href="6629A0D7F244FC46.jpeg"  transform="matrix(0.7129 0 0 0.7129 1083 1678)">
	</image>
	<rect id="Rectángulo_1887" x="1082" y="1897" class="st0" width="217" height="75"/>
	<path id="Trazado_16967" class="st1" d="M1163.2,1939h-7.3v-12.8h7.3v1.8h-5.2v3.5h4.8v1.8h-4.8v4h5.2V1939z M1172.3,1936.2
		c0,0.9-0.3,1.7-1,2.2c-0.9,0.6-1.9,0.8-3,0.8s-2.1-0.2-3.1-0.6v-1.8c1,0.5,2.1,0.8,3.2,0.8c1.3,0,1.9-0.4,1.9-1.2
		c0-0.2-0.1-0.4-0.2-0.6c-0.2-0.2-0.4-0.4-0.7-0.5c-0.4-0.2-0.9-0.4-1.3-0.6c-0.8-0.3-1.6-0.7-2.3-1.3c-0.4-0.5-0.6-1.1-0.6-1.7
		c0-0.8,0.4-1.5,1-1.9c0.8-0.5,1.8-0.7,2.7-0.7c1.1,0,2.2,0.2,3.2,0.7l-0.7,1.6c-0.8-0.4-1.7-0.6-2.6-0.7c-1.1,0-1.6,0.3-1.6,0.9
		c0,0.3,0.2,0.6,0.4,0.8c0.6,0.4,1.2,0.6,1.9,0.9c0.6,0.2,1.2,0.5,1.7,0.9c0.3,0.2,0.6,0.5,0.8,0.9
		C1172.2,1935.4,1172.3,1935.8,1172.3,1936.2z M1178.1,1937.5c0.5,0,1-0.1,1.5-0.2v1.6c-0.3,0.1-0.6,0.2-0.9,0.2
		c-0.4,0.1-0.7,0.1-1.1,0.1c-2,0-2.9-1-2.9-3.1v-5.2h-1.3v-0.9l1.4-0.8l0.7-2.1h1.3v2.2h2.8v1.6h-2.8v5.2c0,0.4,0.1,0.8,0.4,1.1
		C1177.4,1937.4,1177.7,1937.5,1178.1,1937.5L1178.1,1937.5z M1183.6,1939h-2.1v-9.7h2.1V1939z M1181.4,1926.7
		c0-0.3,0.1-0.6,0.3-0.9c0.2-0.2,0.5-0.3,0.9-0.3c0.3,0,0.6,0.1,0.8,0.3c0.2,0.2,0.3,0.5,0.3,0.9c0,0.3-0.1,0.6-0.3,0.8
		c-0.2,0.2-0.5,0.3-0.8,0.3s-0.6-0.1-0.9-0.3C1181.5,1927.3,1181.4,1927,1181.4,1926.7z M1190.8,1939.2c-1.3,0.1-2.6-0.4-3.5-1.3
		c-0.9-1-1.4-2.3-1.3-3.6c-0.1-1.4,0.3-2.7,1.2-3.7c0.8-0.9,2-1.4,3.3-1.4c1.1-0.1,2.2,0.4,3,1.2c0.8,0.9,1.2,2,1.1,3.2v1.1h-6.5
		c0,0.8,0.2,1.6,0.8,2.2c0.5,0.5,1.3,0.8,2,0.8c0.5,0,1.1-0.1,1.6-0.2c0.6-0.1,1.1-0.3,1.6-0.5v1.7c-0.5,0.2-1,0.4-1.5,0.5
		C1192,1939.1,1191.4,1939.2,1190.8,1939.2z M1190.4,1930.7c-0.6,0-1.2,0.2-1.6,0.6c-0.4,0.5-0.7,1.2-0.7,1.8h4.4
		c0-0.7-0.2-1.3-0.6-1.8C1191.6,1930.9,1191,1930.6,1190.4,1930.7z M1189.1,1928.1v-0.2c0.3-0.4,0.7-0.9,1-1.4
		c0.4-0.5,0.6-0.9,0.8-1.3h2.4v0.2c-0.4,0.5-0.9,0.9-1.4,1.4s-1,0.9-1.5,1.3H1189.1z M1201.9,1929.1c0.3,0,0.7,0,1,0.1l-0.2,1.9
		c-0.3-0.1-0.6-0.1-0.9-0.1c-0.8,0-1.5,0.3-2,0.8c-0.5,0.6-0.8,1.3-0.8,2.1v5.1h-2.1v-9.7h1.6l0.3,1.7h0.1c0.3-0.6,0.7-1,1.3-1.4
		C1200.7,1929.3,1201.3,1929.1,1201.9,1929.1z M1208.3,1939.2c-1.3,0.1-2.5-0.4-3.4-1.3c-0.8-1-1.2-2.4-1.1-3.7
		c-0.1-1.4,0.3-2.7,1.2-3.8c0.9-0.9,2.2-1.4,3.5-1.3c1,0,1.9,0.2,2.8,0.6l-0.6,1.7c-0.7-0.3-1.4-0.5-2.2-0.5c-1.7,0-2.5,1.1-2.5,3.3
		c-0.1,0.9,0.2,1.7,0.6,2.5c0.4,0.6,1.1,0.9,1.8,0.8c0.9,0,1.8-0.2,2.6-0.7v1.8c-0.4,0.2-0.8,0.4-1.2,0.5
		C1209.3,1939.1,1208.8,1939.2,1208.3,1939.2z M1221.9,1934.1c0.1,1.3-0.4,2.7-1.2,3.7c-0.9,0.9-2.1,1.4-3.4,1.3
		c-0.8,0-1.7-0.2-2.4-0.6c-0.7-0.4-1.3-1-1.6-1.8c-0.4-0.8-0.6-1.8-0.6-2.7c-0.1-1.3,0.4-2.7,1.2-3.7c0.9-0.9,2.1-1.4,3.4-1.3
		c1.3-0.1,2.5,0.4,3.3,1.4C1221.5,1931.5,1222,1932.8,1221.9,1934.1z M1214.8,1934.1c0,2.2,0.8,3.4,2.5,3.4c1.6,0,2.5-1.1,2.5-3.4
		c0-2.2-0.8-3.3-2.5-3.3c-0.7-0.1-1.5,0.3-1.9,0.9C1215,1932.4,1214.8,1933.3,1214.8,1934.1z M1226.3,1939h-2.1v-13.7h2.1V1939z"/>
	
		<image style="overflow:visible;enable-background:new    ;" width="303" height="303" id="pastos" xlink:href="6629A0D7F244FC46.jpeg"  transform="matrix(0.7161 0 0 0.7161 1313 1677)">
	</image>
	<rect id="Rectángulo_1888" x="1313" y="1897" class="st0" width="217" height="75"/>
	<path id="Trazado_16968" class="st1" d="M1403.6,1930c0.1,1.2-0.4,2.3-1.3,3.1c-1.1,0.8-2.4,1.2-3.8,1.1h-1.3v4.8h-2.1v-12.8h3.7
		c1.3-0.1,2.6,0.3,3.6,1C1403.3,1927.9,1403.7,1928.9,1403.6,1930z M1397.2,1932.4h1.1c0.8,0.1,1.7-0.1,2.4-0.6
		c0.5-0.4,0.8-1.1,0.8-1.8c0-0.6-0.2-1.2-0.7-1.7c-0.6-0.4-1.4-0.6-2.1-0.5h-1.5L1397.2,1932.4L1397.2,1932.4z M1412.1,1939
		l-0.4-1.4h-0.1c-0.4,0.5-0.9,0.9-1.4,1.2c-0.6,0.2-1.2,0.3-1.8,0.3c-0.8,0-1.6-0.2-2.2-0.8c-0.6-0.6-0.9-1.4-0.8-2.2
		c-0.1-0.9,0.4-1.8,1.1-2.3c1-0.6,2.2-0.9,3.4-0.8l1.7-0.1v-0.5c0-0.5-0.1-1-0.4-1.4c-0.4-0.3-0.9-0.5-1.3-0.5c-0.5,0-1,0.1-1.4,0.2
		c-0.5,0.1-0.9,0.3-1.3,0.5l-0.7-1.5c0.5-0.3,1.1-0.5,1.7-0.6s1.2-0.2,1.8-0.2c1-0.1,2,0.2,2.8,0.8c0.7,0.7,1,1.6,0.9,2.5v6.6h-1.6
		L1412.1,1939L1412.1,1939z M1409,1937.6c0.7,0,1.3-0.2,1.8-0.6c0.5-0.5,0.7-1.1,0.7-1.8v-0.8l-1.2,0.1c-0.7,0-1.5,0.1-2.1,0.5
		c-0.4,0.3-0.7,0.8-0.7,1.3c0,0.4,0.1,0.7,0.4,1C1408.2,1937.5,1408.6,1937.6,1409,1937.6z M1423,1936.2c0,0.9-0.3,1.7-1,2.2
		c-0.9,0.6-1.9,0.8-3,0.8s-2.1-0.2-3.1-0.6v-1.8c1,0.5,2.1,0.8,3.2,0.8c1.3,0,1.9-0.4,1.9-1.2c0-0.2-0.1-0.4-0.2-0.6
		c-0.2-0.2-0.4-0.4-0.7-0.5c-0.4-0.2-0.9-0.4-1.3-0.6c-0.8-0.3-1.6-0.7-2.3-1.3c-0.4-0.5-0.6-1.1-0.6-1.7c0-0.8,0.4-1.5,1-1.9
		c0.8-0.5,1.8-0.7,2.7-0.7c1.1,0,2.2,0.2,3.2,0.7l-0.7,1.6c-0.8-0.4-1.7-0.6-2.6-0.7c-1.1,0-1.6,0.3-1.6,0.9c0,0.3,0.2,0.6,0.4,0.8
		c0.6,0.4,1.2,0.6,1.9,0.9c0.6,0.2,1.2,0.5,1.7,0.9c0.3,0.2,0.6,0.5,0.8,0.9C1422.9,1935.4,1423,1935.8,1423,1936.2z M1428.8,1937.5
		c0.5,0,1-0.1,1.5-0.2v1.6c-0.3,0.1-0.6,0.2-0.9,0.2c-0.4,0.1-0.7,0.1-1.1,0.1c-2,0-2.9-1-2.9-3.1v-5.2h-1.3v-0.9l1.4-0.8l0.7-2.1
		h1.3v2.2h2.8v1.6h-2.8v5.2c0,0.4,0.1,0.8,0.4,1.1C1428.1,1937.4,1428.5,1937.5,1428.8,1937.5z M1440.9,1934.1
		c0.1,1.4-0.4,2.7-1.2,3.7c-0.9,0.9-2.1,1.4-3.4,1.3c-0.8,0-1.7-0.2-2.4-0.6c-0.7-0.4-1.3-1-1.6-1.8c-0.4-0.8-0.6-1.8-0.6-2.7
		c-0.1-1.3,0.4-2.7,1.2-3.7c0.9-0.9,2.1-1.4,3.4-1.3c1.3-0.1,2.5,0.4,3.3,1.4C1440.5,1931.5,1441,1932.8,1440.9,1934.1z
		 M1433.8,1934.1c0,2.2,0.8,3.4,2.5,3.4c1.6,0,2.5-1.1,2.5-3.4c0-2.2-0.8-3.3-2.5-3.3c-0.7-0.1-1.5,0.3-1.9,0.9
		C1434,1932.4,1433.8,1933.3,1433.8,1934.1L1433.8,1934.1z M1449.8,1936.2c0,0.9-0.3,1.7-1,2.2c-0.9,0.6-1.9,0.8-3,0.8
		s-2.1-0.2-3.1-0.6v-1.8c1,0.5,2.1,0.8,3.2,0.8c1.3,0,1.9-0.4,1.9-1.2c0-0.2-0.1-0.4-0.2-0.6c-0.2-0.2-0.4-0.4-0.7-0.5
		c-0.4-0.2-0.9-0.4-1.3-0.6c-0.8-0.3-1.6-0.7-2.3-1.3c-0.4-0.5-0.6-1.1-0.6-1.7c0-0.8,0.4-1.5,1-1.9c0.8-0.5,1.8-0.7,2.7-0.7
		c1.1,0,2.2,0.2,3.2,0.7l-0.7,1.6c-0.8-0.4-1.7-0.6-2.6-0.7c-1.1,0-1.6,0.3-1.6,0.9c0,0.3,0.2,0.6,0.4,0.8c0.6,0.4,1.2,0.6,1.9,0.9
		c0.6,0.2,1.2,0.5,1.7,0.9c0.3,0.2,0.6,0.5,0.8,0.9C1449.7,1935.4,1449.8,1935.8,1449.8,1936.2z"/>
	
		<image style="overflow:visible;enable-background:new    ;" width="303" height="303" id="fruta_caida" xlink:href="6629A0D7F244FC42.jpeg"  transform="matrix(0.7161 0 0 0.7161 743 1988)">
	</image>
	<rect id="Rectángulo_1889" x="743" y="2208" class="st0" width="217" height="75"/>
	<path id="Trazado_16970" class="st1" d="M806,2250h-2v-12.9h7.3v1.8H806v4h4.8v1.8H806V2250z M818.2,2240.1c0.3,0,0.7,0,1,0.1
		l-0.2,1.9c-0.3-0.1-0.6-0.1-0.9-0.1c-0.8,0-1.5,0.3-2,0.8c-0.5,0.6-0.8,1.3-0.8,2.1v5.1h-2.1v-9.7h1.6l0.3,1.7h0.1
		c0.3-0.6,0.7-1,1.3-1.4C817.1,2240.3,817.6,2240.1,818.2,2240.1z M827.9,2250l-0.3-1.3h-0.1c-0.3,0.5-0.7,0.8-1.2,1.1
		c-0.6,0.3-1.2,0.4-1.8,0.4c-1,0.1-1.9-0.2-2.6-0.9c-0.6-0.7-0.9-1.7-0.9-2.7v-6.4h2.1v6c0,0.6,0.1,1.2,0.5,1.7
		c0.4,0.4,0.9,0.6,1.4,0.6c0.7,0.1,1.4-0.2,1.9-0.8c0.5-0.8,0.7-1.7,0.6-2.6v-4.8h2.1v9.7H827.9z M836.1,2248.5c0.5,0,1-0.1,1.5-0.2
		v1.6c-0.3,0.1-0.6,0.2-0.9,0.2c-0.4,0.1-0.7,0.1-1.1,0.1c-2,0-2.9-1-2.9-3.1v-5.2h-1.3v-0.9l1.4-0.8l0.7-2.1h1.3v2.2h2.8v1.6h-2.8
		v5.2c0,0.4,0.1,0.8,0.4,1.1C835.4,2248.4,835.8,2248.5,836.1,2248.5L836.1,2248.5z M845.7,2250l-0.4-1.4h-0.1
		c-0.4,0.5-0.9,0.9-1.4,1.2c-0.6,0.2-1.2,0.3-1.8,0.3c-0.8,0-1.6-0.2-2.2-0.8c-0.6-0.6-0.9-1.4-0.8-2.2c-0.1-0.9,0.4-1.8,1.1-2.3
		c1-0.6,2.2-0.9,3.4-0.8l1.7-0.1v-0.5c0-0.5-0.1-1-0.4-1.4c-0.4-0.3-0.9-0.5-1.4-0.5s-1,0.1-1.4,0.2c-0.5,0.1-0.9,0.3-1.3,0.5
		l-0.7-1.5c0.5-0.3,1.1-0.5,1.7-0.6c0.6-0.1,1.2-0.2,1.8-0.2c1-0.1,2,0.2,2.8,0.8c0.7,0.7,1,1.6,0.9,2.5v6.6h-1.5L845.7,2250
		L845.7,2250z M842.6,2248.6c0.7,0,1.3-0.2,1.8-0.6c0.5-0.5,0.7-1.1,0.7-1.8v-0.8l-1.2,0.1c-0.7,0-1.5,0.1-2.1,0.5
		c-0.4,0.3-0.7,0.8-0.7,1.3c0,0.4,0.1,0.7,0.4,1C841.8,2248.5,842.2,2248.6,842.6,2248.6z M872.2,2250l-0.4-1.4h-0.1
		c-0.4,0.5-0.9,0.9-1.4,1.2c-0.6,0.2-1.2,0.3-1.8,0.3c-0.8,0-1.6-0.2-2.2-0.8c-0.6-0.6-0.9-1.4-0.8-2.2c-0.1-0.9,0.4-1.8,1.1-2.3
		c1-0.6,2.2-0.9,3.4-0.8l1.7-0.1v-0.5c0-0.5-0.1-1-0.4-1.4c-0.4-0.3-0.9-0.5-1.3-0.5c-0.5,0-1,0.1-1.4,0.2c-0.5,0.1-0.9,0.3-1.3,0.5
		l-0.7-1.5c0.5-0.3,1.1-0.5,1.7-0.6c0.6-0.1,1.2-0.2,1.8-0.2c1-0.1,2,0.2,2.8,0.8c0.7,0.7,1,1.6,0.9,2.5v6.6h-1.6V2250z
		 M869.1,2248.6c0.7,0,1.3-0.2,1.8-0.6c0.5-0.5,0.7-1.1,0.7-1.8v-0.8l-1.2,0.1c-0.7,0-1.5,0.1-2.1,0.5c-0.4,0.3-0.7,0.8-0.7,1.3
		c0,0.4,0.1,0.7,0.4,1C868.3,2248.5,868.7,2248.6,869.1,2248.6z M878.6,2250h-2.1v-9.7h2.1V2250z M876.4,2239.1v-0.2
		c0.3-0.4,0.7-0.9,1-1.4c0.4-0.5,0.6-0.9,0.8-1.3h2.4v0.2c-0.4,0.5-0.9,0.9-1.4,1.4s-1,0.9-1.5,1.3H876.4z M884.8,2250.2
		c-1.1,0.1-2.2-0.4-2.8-1.3c-0.7-1.1-1.1-2.4-1-3.7c-0.1-1.3,0.3-2.6,1-3.7c0.7-0.9,1.7-1.4,2.9-1.3c1.2-0.1,2.3,0.5,2.9,1.4h0.1
		c-0.1-0.5-0.1-1.1-0.1-1.7v-3.5h2.1v13.7h-1.6l-0.4-1.3h-0.1C887.1,2249.7,886,2250.2,884.8,2250.2z M885.4,2248.5
		c0.7,0.1,1.4-0.2,1.9-0.7c0.4-0.7,0.7-1.5,0.6-2.3v-0.3c0.1-0.9-0.1-1.8-0.6-2.6c-0.5-0.5-1.2-0.8-1.9-0.8s-1.3,0.3-1.7,0.9
		c-0.4,0.8-0.6,1.6-0.6,2.5c-0.1,0.9,0.1,1.7,0.6,2.5C884.1,2248.2,884.7,2248.5,885.4,2248.5z M898.9,2250l-0.4-1.4h-0.1
		c-0.4,0.5-0.9,0.9-1.4,1.2c-0.6,0.2-1.2,0.3-1.8,0.3c-0.8,0-1.6-0.2-2.2-0.8c-0.6-0.6-0.9-1.4-0.8-2.2c-0.1-0.9,0.4-1.8,1.1-2.3
		c1-0.6,2.2-0.9,3.4-0.8l1.7-0.1v-0.5c0-0.5-0.1-1-0.4-1.4c-0.4-0.3-0.9-0.5-1.4-0.5s-1,0.1-1.4,0.2c-0.5,0.1-0.9,0.3-1.3,0.5
		l-0.7-1.5c0.5-0.3,1.1-0.5,1.7-0.6c0.6-0.1,1.2-0.2,1.8-0.2c1-0.1,2,0.2,2.8,0.8c0.7,0.7,1,1.6,0.9,2.5v6.6h-1.5L898.9,2250
		L898.9,2250z M895.8,2248.6c0.7,0,1.3-0.2,1.8-0.6c0.5-0.5,0.7-1.1,0.7-1.8v-0.8l-1.2,0.1c-0.7,0-1.5,0.1-2.1,0.5
		c-0.4,0.3-0.7,0.8-0.7,1.3c0,0.4,0.1,0.7,0.4,1C895,2248.5,895.4,2248.6,895.8,2248.6z M861.1,2250c-1.3,0.1-2.5-0.4-3.4-1.3
		c-0.8-1-1.2-2.4-1.1-3.7c-0.1-1.4,0.3-2.7,1.2-3.8c0.9-0.9,2.2-1.4,3.5-1.3c1,0,1.9,0.2,2.8,0.6l-0.6,1.7c-0.7-0.3-1.4-0.5-2.2-0.5
		c-1.7,0-2.5,1.1-2.5,3.3c-0.1,0.9,0.2,1.7,0.6,2.5c0.4,0.6,1.1,0.9,1.8,0.8c0.9,0,1.8-0.2,2.6-0.7v1.8c-0.4,0.2-0.8,0.4-1.2,0.5
		C862.1,2250,861.6,2250,861.1,2250L861.1,2250z"/>
	<rect id="Rectángulo_1890" x="974" y="2208" class="st0" width="217" height="75"/>
	<path id="Trazado_16969" class="st1" d="M1045.4,2233.1h1.5c0.8,0.1,1.5-0.1,2.1-0.5c0.5-0.4,0.7-1,0.7-1.6
		c0.1-0.6-0.2-1.2-0.7-1.6c-0.7-0.4-1.4-0.5-2.1-0.5h-1.4L1045.4,2233.1z M1045.4,2234.9v5.1h-2.1v-12.9h3.6
		c1.3-0.1,2.6,0.2,3.7,0.9c0.8,0.7,1.3,1.7,1.2,2.8c0,1.6-1,3-2.5,3.4l3.6,5.7h-2.4l-3.1-5.1h-2L1045.4,2234.9L1045.4,2234.9z
		 M1058.9,2240.2c-1.3,0.1-2.6-0.4-3.5-1.3c-0.9-1-1.4-2.3-1.3-3.6c-0.1-1.4,0.3-2.7,1.2-3.7c0.8-0.9,2-1.4,3.3-1.4
		c1.1-0.1,2.2,0.4,3,1.2c0.8,0.9,1.2,2,1.1,3.2v1.1h-6.5c0,0.8,0.2,1.6,0.8,2.2c0.5,0.5,1.3,0.8,2,0.8c0.5,0,1.1-0.1,1.6-0.2
		c0.6-0.1,1.1-0.3,1.6-0.5v1.7c-0.5,0.2-1,0.4-1.5,0.5C1060,2240.1,1059.5,2240.2,1058.9,2240.2z M1058.5,2231.7
		c-0.6,0-1.2,0.2-1.6,0.6c-0.4,0.5-0.7,1.2-0.7,1.8h4.4c0-0.7-0.2-1.3-0.6-1.8C1059.6,2231.9,1059.1,2231.6,1058.5,2231.7z
		 M1071.5,2237.2c0,0.9-0.3,1.7-1,2.2c-0.9,0.6-1.9,0.8-3,0.8s-2.1-0.2-3.1-0.6v-1.8c1,0.5,2.1,0.8,3.2,0.8c1.3,0,1.9-0.4,1.9-1.2
		c0-0.2-0.1-0.4-0.2-0.6c-0.2-0.2-0.4-0.4-0.7-0.5c-0.4-0.2-0.9-0.4-1.3-0.6c-0.8-0.3-1.6-0.7-2.3-1.3c-0.4-0.5-0.6-1.1-0.6-1.7
		c0-0.8,0.4-1.5,1-1.9c0.8-0.5,1.8-0.7,2.7-0.7c1.1,0,2.2,0.2,3.2,0.7l-0.7,1.6c-0.8-0.4-1.7-0.6-2.6-0.7c-1.1,0-1.6,0.3-1.6,0.9
		c0,0.3,0.2,0.6,0.4,0.8c0.6,0.4,1.2,0.6,1.9,0.9c0.6,0.2,1.2,0.5,1.7,0.9c0.3,0.2,0.6,0.5,0.8,0.9
		C1071.4,2236.4,1071.5,2236.8,1071.5,2237.2z M1075.8,2240h-2.1v-9.7h2.1V2240z M1073.6,2227.7c0-0.3,0.1-0.6,0.3-0.9
		c0.2-0.2,0.5-0.3,0.9-0.3c0.3,0,0.6,0.1,0.8,0.3c0.2,0.2,0.3,0.5,0.3,0.9c0,0.3-0.1,0.6-0.3,0.8c-0.2,0.2-0.5,0.3-0.8,0.3
		s-0.6-0.1-0.9-0.3C1073.7,2228.3,1073.6,2228,1073.6,2227.7z M1082,2240.2c-1.1,0.1-2.2-0.4-2.8-1.3c-0.7-1.1-1.1-2.4-1-3.7
		c-0.1-1.3,0.3-2.6,1-3.7c0.7-0.9,1.7-1.4,2.9-1.3c1.2-0.1,2.3,0.5,2.9,1.4h0.1c-0.1-0.5-0.1-1.1-0.1-1.7v-3.5h2.1v13.7h-1.6
		l-0.4-1.3h-0.1C1084.3,2239.7,1083.2,2240.2,1082,2240.2z M1082.6,2238.5c0.7,0.1,1.4-0.2,1.9-0.7c0.4-0.7,0.7-1.5,0.6-2.3v-0.3
		c0.1-0.9-0.1-1.8-0.6-2.6c-0.5-0.5-1.2-0.8-1.9-0.8c-0.7,0-1.3,0.3-1.7,0.9c-0.4,0.8-0.6,1.6-0.6,2.5c-0.1,0.9,0.1,1.7,0.6,2.5
		C1081.3,2238.2,1081.9,2238.5,1082.6,2238.5z M1096.8,2240l-0.3-1.3h-0.1c-0.3,0.5-0.7,0.8-1.2,1.1c-0.6,0.3-1.2,0.4-1.8,0.4
		c-1,0.1-1.9-0.2-2.6-0.9c-0.6-0.7-0.9-1.7-0.9-2.7v-6.4h2.1v6c0,0.6,0.1,1.2,0.5,1.7c0.4,0.4,0.9,0.6,1.4,0.6
		c0.7,0.1,1.4-0.2,1.9-0.8c0.5-0.8,0.7-1.7,0.6-2.6v-4.8h2.1v9.7H1096.8z M1110,2235.1c0.1,1.3-0.4,2.7-1.2,3.7
		c-0.9,0.9-2.1,1.4-3.4,1.3c-0.8,0-1.7-0.2-2.4-0.6c-0.7-0.4-1.3-1-1.6-1.8c-0.4-0.8-0.6-1.8-0.6-2.7c-0.1-1.3,0.4-2.7,1.2-3.7
		c0.9-0.9,2.1-1.4,3.4-1.3c1.3-0.1,2.5,0.4,3.3,1.4C1109.7,2232.5,1110.1,2233.8,1110,2235.1z M1103,2235.1c0,2.2,0.8,3.4,2.5,3.4
		c1.6,0,2.5-1.1,2.5-3.4c0-2.2-0.8-3.3-2.5-3.3c-0.7-0.1-1.5,0.3-1.9,0.9C1103.1,2233.4,1102.9,2234.3,1103,2235.1z M1118.9,2237.2
		c0,0.9-0.3,1.7-1,2.2c-0.9,0.6-1.9,0.8-3,0.8s-2.1-0.2-3.1-0.6v-1.8c1,0.5,2.1,0.8,3.2,0.8c1.3,0,1.9-0.4,1.9-1.2
		c0-0.2-0.1-0.4-0.2-0.6c-0.2-0.2-0.4-0.4-0.7-0.5c-0.4-0.2-0.9-0.4-1.3-0.6c-0.8-0.3-1.6-0.7-2.3-1.3c-0.4-0.5-0.6-1.1-0.6-1.7
		c0-0.8,0.4-1.5,1-1.9c0.8-0.5,1.8-0.7,2.7-0.7c1.1,0,2.2,0.2,3.2,0.7l-0.7,1.6c-0.8-0.4-1.7-0.6-2.6-0.7c-1.1,0-1.6,0.3-1.6,0.9
		c0,0.3,0.2,0.6,0.4,0.8c0.6,0.4,1.2,0.6,1.9,0.9c0.6,0.2,1.2,0.5,1.7,0.9c0.3,0.2,0.6,0.5,0.8,0.9
		C1118.9,2236.4,1118.9,2236.8,1118.9,2237.2z M1055.7,2259.1c0.1,1.3-0.4,2.7-1.2,3.7c-0.9,0.9-2.1,1.4-3.4,1.3
		c-0.8,0-1.7-0.2-2.4-0.6c-0.7-0.4-1.3-1-1.6-1.8c-0.4-0.8-0.6-1.8-0.6-2.7c-0.1-1.3,0.4-2.7,1.2-3.7c0.9-0.9,2.1-1.4,3.4-1.3
		c1.3-0.1,2.5,0.4,3.3,1.4C1055.3,2256.5,1055.7,2257.8,1055.7,2259.1z M1048.6,2259.1c0,2.2,0.8,3.4,2.5,3.4c1.6,0,2.5-1.1,2.5-3.4
		c0-2.2-0.8-3.3-2.5-3.3c-0.7-0.1-1.5,0.3-1.9,0.9C1048.7,2257.4,1048.5,2258.3,1048.6,2259.1z M1066.2,2264h-2.1v-6
		c0-0.6-0.1-1.2-0.4-1.7c-0.3-0.4-0.8-0.6-1.3-0.5c-0.7-0.1-1.3,0.2-1.8,0.8c-0.4,0.8-0.6,1.7-0.6,2.6v4.8h-2.1v-9.7h1.6l0.3,1.3
		h0.1c0.3-0.5,0.7-0.8,1.2-1.1s1.1-0.4,1.7-0.4c1.2-0.2,2.4,0.5,3,1.5h0.1c0.3-0.5,0.7-0.9,1.2-1.1c0.6-0.3,1.2-0.4,1.8-0.4
		c0.9-0.1,1.9,0.2,2.5,0.9c0.6,0.8,0.9,1.7,0.8,2.7v6.3h-2.1v-6c0-0.6-0.1-1.2-0.4-1.7c-0.3-0.4-0.8-0.6-1.3-0.5
		c-0.7-0.1-1.3,0.2-1.8,0.8c-0.4,0.7-0.6,1.5-0.6,2.3L1066.2,2264z M1079.5,2264.2c-1.3,0.1-2.6-0.4-3.5-1.3c-0.9-1-1.4-2.3-1.3-3.6
		c-0.1-1.4,0.3-2.7,1.2-3.7c0.8-0.9,2-1.4,3.3-1.4c1.1-0.1,2.2,0.4,3,1.2c0.8,0.9,1.2,2,1.1,3.2v1.1h-6.5c0,0.8,0.2,1.6,0.8,2.2
		c0.5,0.5,1.3,0.8,2,0.8c0.5,0,1.1-0.1,1.6-0.2c0.6-0.1,1.1-0.3,1.6-0.5v1.7c-0.5,0.2-1,0.4-1.5,0.5
		C1080.7,2264.1,1080.1,2264.2,1079.5,2264.2z M1079.1,2255.7c-0.6,0-1.2,0.2-1.6,0.6c-0.4,0.5-0.7,1.2-0.7,1.8h4.4
		c0-0.7-0.2-1.3-0.6-1.8C1080.2,2255.9,1079.7,2255.6,1079.1,2255.7z M1077.8,2253.1v-0.2c0.3-0.4,0.7-0.9,1-1.4
		c0.4-0.5,0.6-0.9,0.8-1.3h2.4v0.2c-0.4,0.5-0.9,0.9-1.4,1.4s-1,0.9-1.5,1.3H1077.8z M1092.1,2261.2c0,0.9-0.3,1.7-1,2.2
		c-0.9,0.6-1.9,0.8-3,0.8s-2.1-0.2-3.1-0.6v-1.8c1,0.5,2.1,0.8,3.2,0.8c1.3,0,1.9-0.4,1.9-1.2c0-0.2-0.1-0.4-0.2-0.6
		c-0.2-0.2-0.4-0.4-0.7-0.5c-0.4-0.2-0.9-0.4-1.3-0.6c-0.8-0.3-1.6-0.7-2.3-1.3c-0.4-0.5-0.6-1.1-0.6-1.7c0-0.8,0.4-1.5,1-1.9
		c0.8-0.5,1.8-0.7,2.7-0.7c1.1,0,2.2,0.2,3.2,0.7l-0.7,1.6c-0.8-0.4-1.7-0.6-2.6-0.6c-1.1,0-1.6,0.3-1.6,0.9c0,0.3,0.2,0.6,0.4,0.8
		c0.6,0.4,1.2,0.6,1.9,0.9c0.6,0.2,1.2,0.5,1.7,0.9c0.3,0.2,0.6,0.5,0.8,0.9C1092.1,2260.4,1092.1,2260.8,1092.1,2261.2z
		 M1098,2262.5c0.5,0,1-0.1,1.5-0.2v1.6c-0.3,0.1-0.6,0.2-0.9,0.2c-0.4,0.1-0.7,0.1-1.1,0.1c-2,0-2.9-1-2.9-3.1v-5.2h-1.3v-0.9
		l1.4-0.8l0.7-2.1h1.3v2.2h2.8v1.6h-2.8v5.2c0,0.4,0.1,0.8,0.4,1.1C1097.3,2262.4,1097.6,2262.5,1098,2262.5L1098,2262.5z
		 M1103.5,2264h-2.1v-9.7h2.1V2264z M1101.3,2251.7c0-0.3,0.1-0.6,0.3-0.9c0.2-0.2,0.5-0.3,0.9-0.3c0.3,0,0.6,0.1,0.8,0.3
		c0.2,0.2,0.3,0.5,0.3,0.9c0,0.3-0.1,0.6-0.3,0.8c-0.2,0.2-0.5,0.3-0.8,0.3s-0.6-0.1-0.9-0.3
		C1101.4,2252.3,1101.3,2252,1101.3,2251.7z M1110.4,2264.2c-1.3,0.1-2.5-0.4-3.4-1.3c-0.8-1-1.2-2.4-1.1-3.7
		c-0.1-1.4,0.3-2.7,1.2-3.8c0.9-0.9,2.2-1.4,3.5-1.3c1,0,1.9,0.2,2.8,0.6l-0.6,1.7c-0.7-0.3-1.4-0.5-2.2-0.5c-1.7,0-2.5,1.1-2.5,3.3
		c-0.1,0.9,0.2,1.7,0.6,2.5c0.4,0.6,1.1,0.9,1.8,0.8c0.9,0,1.8-0.2,2.6-0.7v1.8c-0.4,0.2-0.8,0.4-1.2,0.5
		C1111.4,2264.1,1110.9,2264.2,1110.4,2264.2L1110.4,2264.2z M1124,2259.1c0.1,1.3-0.4,2.7-1.2,3.7c-0.9,0.9-2.1,1.4-3.4,1.3
		c-0.8,0-1.7-0.2-2.4-0.6c-0.7-0.4-1.3-1-1.6-1.8c-0.4-0.8-0.6-1.8-0.6-2.7c-0.1-1.3,0.4-2.7,1.2-3.7c0.9-0.9,2.1-1.4,3.4-1.3
		c1.3-0.1,2.5,0.4,3.3,1.4C1123.6,2256.5,1124.1,2257.8,1124,2259.1z M1116.9,2259.1c0,2.2,0.8,3.4,2.5,3.4c1.6,0,2.5-1.1,2.5-3.4
		c0-2.2-0.8-3.3-2.5-3.3c-0.7-0.1-1.5,0.3-1.9,0.9C1117.1,2257.4,1116.9,2258.3,1116.9,2259.1L1116.9,2259.1z M1132.9,2261.2
		c0,0.9-0.3,1.7-1,2.2c-0.9,0.6-1.9,0.8-3,0.8s-2.1-0.2-3.1-0.6v-1.8c1,0.5,2.1,0.8,3.2,0.8c1.3,0,1.9-0.4,1.9-1.2
		c0-0.2-0.1-0.4-0.2-0.6c-0.2-0.2-0.4-0.4-0.7-0.5c-0.4-0.2-0.9-0.4-1.3-0.6c-0.8-0.3-1.6-0.7-2.3-1.3c-0.4-0.5-0.6-1.1-0.6-1.7
		c0-0.8,0.4-1.5,1-1.9c0.8-0.5,1.8-0.7,2.7-0.7c1.1,0,2.2,0.2,3.2,0.7l-0.7,1.6c-0.8-0.4-1.7-0.6-2.6-0.7c-1.1,0-1.6,0.3-1.6,0.9
		c0,0.3,0.2,0.6,0.4,0.8c0.6,0.4,1.2,0.6,1.9,0.9c0.6,0.2,1.2,0.5,1.7,0.9c0.3,0.2,0.6,0.5,0.8,0.9
		C1132.8,2260.4,1132.9,2260.8,1132.9,2261.2z M1040.5,2264c-1.1,0.1-2.2-0.4-2.8-1.3c-0.7-1.1-1.1-2.4-1-3.7
		c-0.1-1.3,0.3-2.6,1-3.7c0.7-0.9,1.7-1.4,2.9-1.3c1.2-0.1,2.3,0.5,2.9,1.4h0.1c-0.1-0.5-0.1-1.1-0.1-1.7v-3.5h2.1v13.7h-1.6
		l-0.4-1.3h-0.1C1042.8,2263.5,1041.7,2264.1,1040.5,2264z M1041.1,2262.3c0.7,0.1,1.4-0.2,1.9-0.7c0.4-0.7,0.7-1.5,0.6-2.3v-0.3
		c0.1-0.9-0.1-1.8-0.6-2.6c-0.5-0.5-1.2-0.8-1.9-0.8c-0.7,0-1.3,0.3-1.7,0.9c-0.4,0.8-0.6,1.6-0.6,2.5c-0.1,0.9,0.1,1.7,0.6,2.5
		C1039.8,2262.1,1040.4,2262.4,1041.1,2262.3z"/>
	
		<image style="overflow:visible;enable-background:new    ;" width="303" height="303" id="residuos_domesticos" xlink:href="6629A0D7F244FC42.jpeg"  transform="matrix(0.7161 0 0 0.7161 974 1988)">
	</image>
</g>
</svg>
