<svg xmlns="http://www.w3.org/2000/svg" width="1139.652" height="555.099" viewBox="0 0 1139.652 555.099">
  <g id="Grupo_8798" data-name="Grupo 8798" transform="translate(-390.348 -751.122)">
    <g id="Grupo_8598" data-name="Grupo 8598" transform="translate(506.992 829.807)">
      <g id="Grupo_8596" data-name="Grupo 8596" transform="translate(0 0)">
        <path id="Trazado_16517" data-name="Trazado 16517" d="M551.208,1590.184h603.786c-97.049-48.292-165.918-154.87-207.346-275.747-10.3-30.05-19.977-50.951-28.827-74.866s-28.457-46.292-47.792-57.069c-22.963-12.8-50.57-7.046-72.41,8.489s-32.927,39.728-47.959,64.8C720.49,1306.1,705.088,1361.714,673.839,1411c-31.059,48.988-73.992,92.666-122.631,107.949Z" transform="translate(-551.208 -1175.468)" fill="#e5b000"/>
      </g>
      <g id="Grupo_8597" data-name="Grupo 8597" transform="translate(0.108 225.814)" style="mix-blend-mode: multiply;isolation: isolate">
        <path id="Trazado_16518" data-name="Trazado 16518" d="M551.576,2134.532h1022.9c-84.668-10.663-169.434-26.943-246.965-57.957-54.462-21.786-94.795-78.146-144.8-105.5-57.294-31.339-123.542-29.327-190.03-17.358-37.183,6.694-66.044,25.915-91.637,36.718-51.367,21.681-92.565,45.645-145.769,66.884-52.879,21.109-120.891,39.931-203.7,46.516Z" transform="translate(-551.576 -1945.63)" fill="#009cdc"/>
      </g>
    </g>
    <g id="Grupo_8599" data-name="Grupo 8599" transform="translate(505.233 751.122)">
      <rect id="Rect치ngulo_1994" data-name="Rect치ngulo 1994" width="3.518" height="555.099" fill="#adadad"/>
    </g>
    <g id="Grupo_8600" data-name="Grupo 8600" transform="translate(439.835 1242.764)">
      <rect id="Rect치ngulo_1995" data-name="Rect치ngulo 1995" width="1090.165" height="3.518" fill="#b9b9b9"/>
    </g>
    <path id="Trazado_16982" data-name="Trazado 16982" d="M-90.5,0h3.888V-13.632h5.376V-16.8H-95.88v3.168H-90.5Zm15.216-3.12V-7.008h7.8v-3.024h-7.8V-13.68h8.832V-16.8h-12.7V0h13.008V-3.12ZM-44.112,0l-.048-16.8h-3.192L-53.544-6.36-59.832-16.8h-3.216V0H-59.4V-9.864l4.92,8.088h1.752l4.944-8.3L-47.76,0Zm11.256-16.8h-7.272V0h3.888V-4.632h3.384c4.488,0,7.3-2.328,7.3-6.072C-25.56-14.472-28.368-16.8-32.856-16.8Zm-.216,9H-36.24v-5.832h3.168c2.376,0,3.576,1.08,3.576,2.928C-29.5-8.88-30.7-7.8-33.072-7.8Zm14.136,4.68V-7.008h7.8v-3.024h-7.8V-13.68H-10.1V-16.8H-22.8V0H-9.792V-3.12ZM8.184,0,4.416-5.4a5.462,5.462,0,0,0,3.456-5.3c0-3.768-2.808-6.1-7.3-6.1H-6.7V0h3.888V-4.68H.768L4.008,0ZM3.936-10.7c0,1.824-1.2,2.928-3.576,2.928H-2.808v-5.856H.36C2.736-13.632,3.936-12.552,3.936-10.7ZM23.5,0h4.08L20.064-16.8h-3.84L8.736,0H12.72l1.488-3.6h7.8Zm-8.04-6.552,2.664-6.432,2.664,6.432ZM31.968,0h3.888V-13.632h5.376V-16.8H26.592v3.168h5.376ZM50.5.288c4.776,0,7.608-2.736,7.608-7.68V-16.8h-3.84v9.264c0,3.192-1.368,4.512-3.744,4.512-2.352,0-3.744-1.32-3.744-4.512V-16.8H42.888v9.408C42.888-2.448,45.72.288,50.5.288ZM76.824,0,73.056-5.4a5.462,5.462,0,0,0,3.456-5.3c0-3.768-2.808-6.1-7.3-6.1H61.944V0h3.888V-4.68h3.576L72.648,0ZM72.576-10.7c0,1.824-1.2,2.928-3.576,2.928H65.832v-5.856H69C71.376-13.632,72.576-12.552,72.576-10.7ZM92.136,0h4.08L88.7-16.8h-3.84L77.376,0H81.36l1.488-3.6h7.8ZM84.1-6.552l2.664-6.432,2.664,6.432Z" transform="translate(626 834)" fill="#ffa700"/>
    <path id="Trazado_16984" data-name="Trazado 16984" d="M-26.652-16.8v3.12h3.36V0H-19.4V-16.8ZM-9.276.288c4.152,0,7.2-3.144,7.2-8.688s-3.048-8.688-7.2-8.688c-4.128,0-7.2,3.144-7.2,8.688S-13.4.288-9.276.288Zm0-3.288C-11.2-3-12.54-4.584-12.54-8.4s1.344-5.4,3.264-5.4c1.944,0,3.288,1.584,3.288,5.4S-7.332-3-9.276-3ZM4.116-10.056c2.64,0,4.536-1.656,4.536-3.984,0-2.3-1.9-3.96-4.536-3.96s-4.56,1.656-4.56,3.96C-.444-11.712,1.476-10.056,4.116-10.056Zm0-1.992A1.9,1.9,0,0,1,2.1-14.04a1.877,1.877,0,0,1,2.016-1.968A1.87,1.87,0,0,1,6.108-14.04,1.889,1.889,0,0,1,4.116-12.048ZM19.26.288a8.632,8.632,0,0,0,6.936-3l-2.5-2.3a5.354,5.354,0,0,1-4.224,1.992A5.154,5.154,0,0,1,14.1-8.4a5.154,5.154,0,0,1,5.376-5.376A5.405,5.405,0,0,1,23.7-11.808l2.5-2.3a8.673,8.673,0,0,0-6.912-2.976c-5.232,0-9.12,3.624-9.12,8.688S14.052.288,19.26.288Z" transform="translate(417 1195)" fill="#1897d7"/>
    <path id="Trazado_16519" data-name="Trazado 16519" d="M1769.992-23.841h-37.934" transform="translate(-1263 1214)" fill="none" stroke="#a3a3a3" stroke-width="3"/>
    <path id="Trazado_16520" data-name="Trazado 16520" d="M1769.992-23.841h-37.934" transform="translate(-1263 1141)" fill="none" stroke="#a3a3a3" stroke-width="3"/>
    <path id="Trazado_16521" data-name="Trazado 16521" d="M1769.992-23.841h-37.934" transform="translate(-1263 1068)" fill="none" stroke="#a3a3a3" stroke-width="3"/>
    <path id="Trazado_16522" data-name="Trazado 16522" d="M1769.992-23.841h-37.934" transform="translate(-1261 995)" fill="none" stroke="#a3a3a3" stroke-width="3"/>
    <path id="Trazado_16523" data-name="Trazado 16523" d="M1769.992-23.841h-37.934" transform="translate(-1261 922)" fill="none" stroke="#a3a3a3" stroke-width="3"/>
    <path id="Trazado_16524" data-name="Trazado 16524" d="M1769.992-23.841h-37.934" transform="translate(-1261 849)" fill="none" stroke="#a3a3a3" stroke-width="3"/>
    <path id="Trazado_16983" data-name="Trazado 16983" d="M-32.088-16.8v5.9h3.456v-2.736h5.568L-29.088,0h4.224l6.24-14.28V-16.8ZM-10.176.288c4.152,0,7.2-3.144,7.2-8.688s-3.048-8.688-7.2-8.688c-4.128,0-7.2,3.144-7.2,8.688S-14.3.288-10.176.288Zm0-3.288C-12.1-3-13.44-4.584-13.44-8.4s1.344-5.4,3.264-5.4c1.944,0,3.288,1.584,3.288,5.4S-8.232-3-10.176-3ZM3.216-10.056c2.64,0,4.536-1.656,4.536-3.984,0-2.3-1.9-3.96-4.536-3.96s-4.56,1.656-4.56,3.96C-1.344-11.712.576-10.056,3.216-10.056Zm0-1.992A1.9,1.9,0,0,1,1.2-14.04a1.877,1.877,0,0,1,2.016-1.968A1.87,1.87,0,0,1,5.208-14.04,1.889,1.889,0,0,1,3.216-12.048ZM18.36.288a8.632,8.632,0,0,0,6.936-3l-2.5-2.3a5.354,5.354,0,0,1-4.224,1.992A5.154,5.154,0,0,1,13.2-8.4a5.154,5.154,0,0,1,5.376-5.376A5.405,5.405,0,0,1,22.8-11.808l2.5-2.3a8.673,8.673,0,0,0-6.912-2.976c-5.232,0-9.12,3.624-9.12,8.688S13.152.288,18.36.288Z" transform="translate(423 834)" fill="#ffa700"/>
    <path id="Trazado_16525" data-name="Trazado 16525" d="M1931.984,28.764V-217.625" transform="translate(-1263 1214)" fill="none" stroke="#fff" stroke-width="2" stroke-dasharray="6"/>
    <path id="Trazado_16985" data-name="Trazado 16985" d="M-44.3,0h3.888V-13.632h5.376V-16.8H-49.68v3.168H-44.3Zm11.352,0h3.888V-16.8h-3.888Zm11.736-3.12V-7.008h7.8v-3.024h-7.8V-13.68h8.832V-16.8h-12.7V0h13.008V-3.12ZM9.96,0,9.912-16.8H6.72L.528-6.36-5.76-16.8H-8.976V0h3.648V-9.864l4.92,8.088H1.344l4.944-8.3L6.312,0ZM21.216-16.8H13.944V0h3.888V-4.632h3.384c4.488,0,7.3-2.328,7.3-6.072C28.512-14.472,25.7-16.8,21.216-16.8ZM21-7.8H17.832v-5.832H21c2.376,0,3.576,1.08,3.576,2.928C24.576-8.88,23.376-7.8,21-7.8ZM39.648.288c5.28,0,9.192-3.672,9.192-8.688s-3.912-8.688-9.192-8.688c-5.3,0-9.192,3.7-9.192,8.688S34.344.288,39.648.288Zm0-3.312A5.125,5.125,0,0,1,34.392-8.4a5.125,5.125,0,0,1,5.256-5.376A5.125,5.125,0,0,1,44.9-8.4,5.125,5.125,0,0,1,39.648-3.024Z" transform="translate(1021 1295)" fill="#555"/>
    <path id="Trazado_16526" data-name="Trazado 16526" d="M1931.984,185.139V-217.625" transform="translate(-1103 1057.625)" fill="none" stroke="#fff" stroke-width="2" stroke-dasharray="6"/>
    <path id="Trazado_16979" data-name="Trazado 16979" d="M-14.62-11.4V-14H-25.2V0h3.24V-5.1h6.48V-7.7h-6.48v-3.7Zm6.02.48a8.271,8.271,0,0,0-4.64,1.3l1.12,2.18a5.174,5.174,0,0,1,3.1-1c1.68,0,2.48.78,2.48,2.12H-9.02c-3.28,0-4.62,1.32-4.62,3.22,0,1.86,1.5,3.26,4.02,3.26a3.531,3.531,0,0,0,3.28-1.5V0h2.92V-6.14C-3.42-9.4-5.32-10.92-8.6-10.92Zm-.24,8.98c-1.1,0-1.76-.52-1.76-1.3,0-.72.46-1.26,1.92-1.26h2.14v1.1A2.3,2.3,0,0,1-8.84-1.94ZM3.02.16C6.24.16,8.1-1.26,8.1-3.26c0-4.24-6.5-2.46-6.5-4.3,0-.56.6-1,2-1a6.179,6.179,0,0,1,3.1.8L7.74-9.98a8.848,8.848,0,0,0-4.14-.94c-3.14,0-4.98,1.44-4.98,3.48,0,4.3,6.5,2.5,6.5,4.26,0,.6-.54.98-1.98.98A7.362,7.362,0,0,1-.6-3.24L-1.64-1A9.237,9.237,0,0,0,3.02.16Zm17.54-5.5a5.327,5.327,0,0,0-5.6-5.58A5.478,5.478,0,0,0,9.22-5.38c0,3.2,2.42,5.54,6.14,5.54A5.635,5.635,0,0,0,19.8-1.58l-1.66-1.8a3.648,3.648,0,0,1-2.7,1.04A2.869,2.869,0,0,1,12.36-4.5H20.5C20.52-4.76,20.56-5.1,20.56-5.34ZM14.98-8.56a2.557,2.557,0,0,1,2.64,2.24h-5.3A2.547,2.547,0,0,1,14.98-8.56ZM-27.14,24l-.04-14h-2.66L-35,18.7-40.24,10h-2.68V24h3.04V15.78l4.1,6.74h1.46l4.12-6.92.02,8.4Zm13.64-5.34a5.327,5.327,0,0,0-5.6-5.58,5.478,5.478,0,0,0-5.74,5.54c0,3.2,2.42,5.54,6.14,5.54a5.635,5.635,0,0,0,4.44-1.74l-1.66-1.8a3.648,3.648,0,0,1-2.7,1.04A2.869,2.869,0,0,1-21.7,19.5h8.14C-13.54,19.24-13.5,18.9-13.5,18.66Zm-5.58-3.22a2.557,2.557,0,0,1,2.64,2.24h-5.3A2.547,2.547,0,0,1-19.08,15.44ZM-7.8,24.16c3.22,0,5.08-1.42,5.08-3.42,0-4.24-6.5-2.46-6.5-4.3,0-.56.6-1,2-1a6.179,6.179,0,0,1,3.1.8l1.04-2.22a8.848,8.848,0,0,0-4.14-.94c-3.14,0-4.98,1.44-4.98,3.48,0,4.3,6.5,2.5,6.5,4.26,0,.6-.54.98-1.98.98a7.362,7.362,0,0,1-3.74-1.04L-12.46,23A9.237,9.237,0,0,0-7.8,24.16ZM2.46,11.86H4.9L8.52,8.98H5.16Zm1.86,12.3c3.42,0,5.9-2.3,5.9-5.54s-2.48-5.54-5.9-5.54-5.92,2.3-5.92,5.54S.9,24.16,4.32,24.16Zm0-2.56a2.73,2.73,0,0,1-2.76-2.98,2.73,2.73,0,0,1,2.76-2.98,2.715,2.715,0,0,1,2.74,2.98A2.715,2.715,0,0,1,4.32,21.6ZM23.2,11.74a1.794,1.794,0,0,0,1.94-1.8A1.751,1.751,0,0,0,23.2,8.26a1.75,1.75,0,1,0,0,3.48Zm-6.06-.28a2.185,2.185,0,0,1,1.26.38l.82-2.26A4.423,4.423,0,0,0,16.84,9c-2.68,0-4.16,1.58-4.16,4v.48H11.02v2.4h1.66V24H15.8V15.88h2.68v-2.4H15.72v-.46C15.72,11.96,16.22,11.46,17.14,11.46ZM21.64,24h3.12V13.24H21.64Zm6.02,0h3.12V9.16H27.66ZM38.02,13.08a8.271,8.271,0,0,0-4.64,1.3l1.12,2.18a5.174,5.174,0,0,1,3.1-1c1.68,0,2.48.78,2.48,2.12H37.6c-3.28,0-4.62,1.32-4.62,3.22,0,1.86,1.5,3.26,4.02,3.26a3.531,3.531,0,0,0,3.28-1.5V24H43.2V17.86C43.2,14.6,41.3,13.08,38.02,13.08Zm-.24,8.98c-1.1,0-1.76-.52-1.76-1.3,0-.72.46-1.26,1.92-1.26h2.14v1.1A2.3,2.3,0,0,1,37.78,22.06Z" transform="translate(597 1161)" fill="#262626"/>
    <path id="Trazado_16978" data-name="Trazado 16978" d="M-14.62-11.4V-14H-25.2V0h3.24V-5.1h6.48V-7.7h-6.48v-3.7Zm6.02.48a8.271,8.271,0,0,0-4.64,1.3l1.12,2.18a5.174,5.174,0,0,1,3.1-1c1.68,0,2.48.78,2.48,2.12H-9.02c-3.28,0-4.62,1.32-4.62,3.22,0,1.86,1.5,3.26,4.02,3.26a3.531,3.531,0,0,0,3.28-1.5V0h2.92V-6.14C-3.42-9.4-5.32-10.92-8.6-10.92Zm-.24,8.98c-1.1,0-1.76-.52-1.76-1.3,0-.72.46-1.26,1.92-1.26h2.14v1.1A2.3,2.3,0,0,1-8.84-1.94ZM3.02.16C6.24.16,8.1-1.26,8.1-3.26c0-4.24-6.5-2.46-6.5-4.3,0-.56.6-1,2-1a6.179,6.179,0,0,1,3.1.8L7.74-9.98a8.848,8.848,0,0,0-4.14-.94c-3.14,0-4.98,1.44-4.98,3.48,0,4.3,6.5,2.5,6.5,4.26,0,.6-.54.98-1.98.98A7.362,7.362,0,0,1-.6-3.24L-1.64-1A9.237,9.237,0,0,0,3.02.16Zm17.54-5.5a5.327,5.327,0,0,0-5.6-5.58A5.478,5.478,0,0,0,9.22-5.38c0,3.2,2.42,5.54,6.14,5.54A5.635,5.635,0,0,0,19.8-1.58l-1.66-1.8a3.648,3.648,0,0,1-2.7,1.04A2.869,2.869,0,0,1,12.36-4.5H20.5C20.52-4.76,20.56-5.1,20.56-5.34ZM14.98-8.56a2.557,2.557,0,0,1,2.64,2.24h-5.3A2.547,2.547,0,0,1,14.98-8.56ZM-45.61,24h3.24V12.64h4.48V10h-12.2v2.64h4.48Zm18.68-5.34a5.327,5.327,0,0,0-5.6-5.58,5.478,5.478,0,0,0-5.74,5.54c0,3.2,2.42,5.54,6.14,5.54a5.635,5.635,0,0,0,4.44-1.74l-1.66-1.8a3.648,3.648,0,0,1-2.7,1.04,2.869,2.869,0,0,1-3.08-2.16h8.14C-26.97,19.24-26.93,18.9-26.93,18.66Zm-5.58-3.22a2.557,2.557,0,0,1,2.64,2.24h-5.3A2.547,2.547,0,0,1-32.51,15.44Zm10.64-.78V13.24h-2.98V24h3.12V18.92c0-2.06,1.14-3,2.86-3,.24,0,.44.02.7.04V13.08A4.342,4.342,0,0,0-21.87,14.66Zm19.34-1.58a4.838,4.838,0,0,0-3.88,1.76,4.016,4.016,0,0,0-3.54-1.76,4.358,4.358,0,0,0-3.38,1.4V13.24h-2.98V24h3.12V18.6c0-1.92.98-2.82,2.36-2.82,1.3,0,2.04.8,2.04,2.54V24h3.12V18.6c0-1.92.98-2.82,2.38-2.82,1.26,0,2.04.8,2.04,2.54V24H1.87V17.84C1.87,14.56.03,13.08-2.53,13.08ZM8.05,11.86h2.44l3.62-2.88H10.75Zm1.86,12.3c3.42,0,5.9-2.3,5.9-5.54s-2.48-5.54-5.9-5.54-5.92,2.3-5.92,5.54S6.49,24.16,9.91,24.16Zm0-2.56a2.73,2.73,0,0,1-2.76-2.98,2.759,2.759,0,1,1,5.5,0A2.715,2.715,0,0,1,9.91,21.6Zm18.88-9.86a1.794,1.794,0,0,0,1.94-1.8,1.751,1.751,0,0,0-1.94-1.68,1.75,1.75,0,1,0,0,3.48Zm-6.06-.28a2.185,2.185,0,0,1,1.26.38l.82-2.26A4.423,4.423,0,0,0,22.43,9c-2.68,0-4.16,1.58-4.16,4v.48H16.61v2.4h1.66V24h3.12V15.88h2.68v-2.4H21.31v-.46C21.31,11.96,21.81,11.46,22.73,11.46ZM27.23,24h3.12V13.24H27.23Zm6.02,0h3.12V9.16H33.25ZM43.61,13.08a8.271,8.271,0,0,0-4.64,1.3l1.12,2.18a5.174,5.174,0,0,1,3.1-1c1.68,0,2.48.78,2.48,2.12H43.19c-3.28,0-4.62,1.32-4.62,3.22,0,1.86,1.5,3.26,4.02,3.26a3.531,3.531,0,0,0,3.28-1.5V24h2.92V17.86C48.79,14.6,46.89,13.08,43.61,13.08Zm-.24,8.98c-1.1,0-1.76-.52-1.76-1.3,0-.72.46-1.26,1.92-1.26h2.14v1.1A2.3,2.3,0,0,1,43.37,22.06Z" transform="translate(746 1091)" fill="#262626"/>
    <path id="Trazado_16527" data-name="Trazado 16527" d="M1931.984-34.2V-217.625" transform="translate(-916 1276.961)" fill="none" stroke="#fff" stroke-width="2" stroke-dasharray="6"/>
    <path id="Trazado_16980" data-name="Trazado 16980" d="M-14.62-11.4V-14H-25.2V0h3.24V-5.1h6.48V-7.7h-6.48v-3.7Zm6.02.48a8.271,8.271,0,0,0-4.64,1.3l1.12,2.18a5.174,5.174,0,0,1,3.1-1c1.68,0,2.48.78,2.48,2.12H-9.02c-3.28,0-4.62,1.32-4.62,3.22,0,1.86,1.5,3.26,4.02,3.26a3.531,3.531,0,0,0,3.28-1.5V0h2.92V-6.14C-3.42-9.4-5.32-10.92-8.6-10.92Zm-.24,8.98c-1.1,0-1.76-.52-1.76-1.3,0-.72.46-1.26,1.92-1.26h2.14v1.1A2.3,2.3,0,0,1-8.84-1.94ZM3.02.16C6.24.16,8.1-1.26,8.1-3.26c0-4.24-6.5-2.46-6.5-4.3,0-.56.6-1,2-1a6.179,6.179,0,0,1,3.1.8L7.74-9.98a8.848,8.848,0,0,0-4.14-.94c-3.14,0-4.98,1.44-4.98,3.48,0,4.3,6.5,2.5,6.5,4.26,0,.6-.54.98-1.98.98A7.362,7.362,0,0,1-.6-3.24L-1.64-1A9.237,9.237,0,0,0,3.02.16Zm17.54-5.5a5.327,5.327,0,0,0-5.6-5.58A5.478,5.478,0,0,0,9.22-5.38c0,3.2,2.42,5.54,6.14,5.54A5.635,5.635,0,0,0,19.8-1.58l-1.66-1.8a3.648,3.648,0,0,1-2.7,1.04A2.869,2.869,0,0,1,12.36-4.5H20.5C20.52-4.76,20.56-5.1,20.56-5.34ZM14.98-8.56a2.557,2.557,0,0,1,2.64,2.24h-5.3A2.547,2.547,0,0,1,14.98-8.56ZM-64.31,21.4V18.16h6.5V15.64h-6.5V12.6h7.36V10H-67.53V24h10.84V21.4Zm16.52-8.32a4.711,4.711,0,0,0-3.56,1.42V13.24h-2.98V24h3.12V18.68c0-1.98,1.08-2.9,2.58-2.9,1.38,0,2.18.8,2.18,2.54V24h3.12V17.84C-43.33,14.56-45.25,13.08-47.79,13.08Zm10.7-.06c0-1.06.5-1.56,1.42-1.56a2.185,2.185,0,0,1,1.26.38l.82-2.26A4.423,4.423,0,0,0-35.97,9c-2.68,0-4.16,1.58-4.16,4v.48h-1.66v2.4h1.66V24h3.12V15.88h2.68v-2.4h-2.76Zm8.9,1.64V13.24h-2.98V24h3.12V18.92c0-2.06,1.14-3,2.86-3,.24,0,.44.02.7.04V13.08A4.342,4.342,0,0,0-28.19,14.66Zm7.12-2.92a1.794,1.794,0,0,0,1.94-1.8,1.751,1.751,0,0,0-1.94-1.68A1.783,1.783,0,0,0-23.01,10,1.783,1.783,0,0,0-21.07,11.74ZM-22.63,24h3.12V13.24h-3.12Zm10.36-10.92a8.271,8.271,0,0,0-4.64,1.3l1.12,2.18a5.174,5.174,0,0,1,3.1-1c1.68,0,2.48.78,2.48,2.12h-2.48c-3.28,0-4.62,1.32-4.62,3.22,0,1.86,1.5,3.26,4.02,3.26a3.531,3.531,0,0,0,3.28-1.5V24h2.92V17.86C-7.09,14.6-8.99,13.08-12.27,13.08Zm-.24,8.98c-1.1,0-1.76-.52-1.76-1.3,0-.72.46-1.26,1.92-1.26h2.14v1.1A2.3,2.3,0,0,1-12.51,22.06ZM9.51,13.08a4.838,4.838,0,0,0-3.88,1.76,4.016,4.016,0,0,0-3.54-1.76,4.358,4.358,0,0,0-3.38,1.4V13.24H-4.27V24h3.12V18.6c0-1.92.98-2.82,2.36-2.82,1.3,0,2.04.8,2.04,2.54V24H6.37V18.6c0-1.92.98-2.82,2.38-2.82,1.26,0,2.04.8,2.04,2.54V24h3.12V17.84C13.91,14.56,12.07,13.08,9.51,13.08Zm8.76-1.34a1.794,1.794,0,0,0,1.94-1.8,1.751,1.751,0,0,0-1.94-1.68,1.75,1.75,0,1,0,0,3.48ZM16.71,24h3.12V13.24H16.71Zm16.56-5.34a5.327,5.327,0,0,0-5.6-5.58,5.478,5.478,0,0,0-5.74,5.54c0,3.2,2.42,5.54,6.14,5.54a5.635,5.635,0,0,0,4.44-1.74l-1.66-1.8a3.648,3.648,0,0,1-2.7,1.04,2.869,2.869,0,0,1-3.08-2.16h8.14C33.23,19.24,33.27,18.9,33.27,18.66Zm-5.58-3.22a2.557,2.557,0,0,1,2.64,2.24h-5.3A2.547,2.547,0,0,1,27.69,15.44Zm14.2-2.36a4.711,4.711,0,0,0-3.56,1.42V13.24H35.35V24h3.12V18.68c0-1.98,1.08-2.9,2.58-2.9,1.38,0,2.18.8,2.18,2.54V24h3.12V17.84C46.35,14.56,44.43,13.08,41.89,13.08Zm13.38,8.2a2.1,2.1,0,0,1-1.26.4,1.255,1.255,0,0,1-1.34-1.42V15.88h2.68v-2.4H52.67V10.86H49.55v2.62H47.89v2.4h1.66V20.3c0,2.56,1.48,3.86,4.02,3.86a4.459,4.459,0,0,0,2.54-.68Zm7.38,2.88c3.42,0,5.9-2.3,5.9-5.54s-2.48-5.54-5.9-5.54-5.92,2.3-5.92,5.54S59.23,24.16,62.65,24.16Zm0-2.56a2.73,2.73,0,0,1-2.76-2.98,2.759,2.759,0,1,1,5.5,0A2.715,2.715,0,0,1,62.65,21.6Z" transform="translate(904 1161)" fill="#fff"/>
    <path id="Trazado_16981" data-name="Trazado 16981" d="M-14.62-11.4V-14H-25.2V0h3.24V-5.1h6.48V-7.7h-6.48v-3.7Zm6.02.48a8.271,8.271,0,0,0-4.64,1.3l1.12,2.18a5.174,5.174,0,0,1,3.1-1c1.68,0,2.48.78,2.48,2.12H-9.02c-3.28,0-4.62,1.32-4.62,3.22,0,1.86,1.5,3.26,4.02,3.26a3.531,3.531,0,0,0,3.28-1.5V0h2.92V-6.14C-3.42-9.4-5.32-10.92-8.6-10.92Zm-.24,8.98c-1.1,0-1.76-.52-1.76-1.3,0-.72.46-1.26,1.92-1.26h2.14v1.1A2.3,2.3,0,0,1-8.84-1.94ZM3.02.16C6.24.16,8.1-1.26,8.1-3.26c0-4.24-6.5-2.46-6.5-4.3,0-.56.6-1,2-1a6.179,6.179,0,0,1,3.1.8L7.74-9.98a8.848,8.848,0,0,0-4.14-.94c-3.14,0-4.98,1.44-4.98,3.48,0,4.3,6.5,2.5,6.5,4.26,0,.6-.54.98-1.98.98A7.362,7.362,0,0,1-.6-3.24L-1.64-1A9.237,9.237,0,0,0,3.02.16Zm17.54-5.5a5.327,5.327,0,0,0-5.6-5.58A5.478,5.478,0,0,0,9.22-5.38c0,3.2,2.42,5.54,6.14,5.54A5.635,5.635,0,0,0,19.8-1.58l-1.66-1.8a3.648,3.648,0,0,1-2.7,1.04A2.869,2.869,0,0,1,12.36-4.5H20.5C20.52-4.76,20.56-5.1,20.56-5.34ZM14.98-8.56a2.557,2.557,0,0,1,2.64,2.24h-5.3A2.547,2.547,0,0,1,14.98-8.56ZM-78.16,24h6.36c4.58,0,7.72-2.76,7.72-7s-3.14-7-7.72-7h-6.36Zm3.24-2.66V12.66h2.96c2.78,0,4.6,1.66,4.6,4.34s-1.82,4.34-4.6,4.34Zm23.6-2.68a5.327,5.327,0,0,0-5.6-5.58,5.478,5.478,0,0,0-5.74,5.54c0,3.2,2.42,5.54,6.14,5.54a5.635,5.635,0,0,0,4.44-1.74l-1.66-1.8a3.648,3.648,0,0,1-2.7,1.04,2.869,2.869,0,0,1-3.08-2.16h8.14C-51.36,19.24-51.32,18.9-51.32,18.66Zm-5.58-3.22a2.557,2.557,0,0,1,2.64,2.24h-5.3A2.547,2.547,0,0,1-56.9,15.44ZM-27.58,24l-.04-14h-2.66l-5.16,8.7L-40.68,10h-2.68V24h3.04V15.78l4.1,6.74h1.46l4.12-6.92.02,8.4Zm7.44-10.92a8.271,8.271,0,0,0-4.64,1.3l1.12,2.18a5.174,5.174,0,0,1,3.1-1c1.68,0,2.48.78,2.48,2.12h-2.48c-3.28,0-4.62,1.32-4.62,3.22,0,1.86,1.5,3.26,4.02,3.26a3.531,3.531,0,0,0,3.28-1.5V24h2.92V17.86C-14.96,14.6-16.86,13.08-20.14,13.08Zm-.24,8.98c-1.1,0-1.76-.52-1.76-1.3,0-.72.46-1.26,1.92-1.26h2.14v1.1A2.3,2.3,0,0,1-20.38,22.06Zm16.2-12.9v5.22a4.134,4.134,0,0,0-3.22-1.3,5.231,5.231,0,0,0-5.38,5.54A5.231,5.231,0,0,0-7.4,24.16a4.139,4.139,0,0,0,3.36-1.4V24h2.98V9.16ZM-6.86,21.6a2.73,2.73,0,0,1-2.76-2.98,2.73,2.73,0,0,1,2.76-2.98,2.726,2.726,0,0,1,2.74,2.98A2.726,2.726,0,0,1-6.86,21.6Zm16.4-8.36v5.32c0,1.98-1.04,2.9-2.48,2.9-1.38,0-2.18-.8-2.18-2.6V13.24H1.76v6.08c0,3.32,1.9,4.84,4.6,4.84A4.353,4.353,0,0,0,9.7,22.72V24h2.96V13.24Zm9,1.42V13.24H15.56V24h3.12V18.92c0-2.06,1.14-3,2.86-3,.24,0,.44.02.7.04V13.08A4.342,4.342,0,0,0,18.54,14.66Zm9.84-1.58a8.271,8.271,0,0,0-4.64,1.3l1.12,2.18a5.174,5.174,0,0,1,3.1-1c1.68,0,2.48.78,2.48,2.12H27.96c-3.28,0-4.62,1.32-4.62,3.22,0,1.86,1.5,3.26,4.02,3.26a3.531,3.531,0,0,0,3.28-1.5V24h2.92V17.86C33.56,14.6,31.66,13.08,28.38,13.08Zm-.24,8.98c-1.1,0-1.76-.52-1.76-1.3,0-.72.46-1.26,1.92-1.26h2.14v1.1A2.3,2.3,0,0,1,28.14,22.06Zm13.56,2.1a4.992,4.992,0,0,0,4.82-2.72L44.1,20.12a2.647,2.647,0,0,1-2.42,1.48,2.753,2.753,0,0,1-2.82-2.98,2.753,2.753,0,0,1,2.82-2.98,2.683,2.683,0,0,1,2.42,1.48l2.42-1.3a4.943,4.943,0,0,0-4.82-2.74c-3.5,0-6,2.3-6,5.54S38.2,24.16,41.7,24.16Zm8.18-12.42a1.794,1.794,0,0,0,1.94-1.8,1.751,1.751,0,0,0-1.94-1.68,1.75,1.75,0,1,0,0,3.48ZM48.32,24h3.12V13.24H48.32ZM57.6,11.86h2.44l3.62-2.88H60.3Zm1.86,12.3c3.42,0,5.9-2.3,5.9-5.54s-2.48-5.54-5.9-5.54-5.92,2.3-5.92,5.54S56.04,24.16,59.46,24.16Zm0-2.56a2.73,2.73,0,0,1-2.76-2.98,2.759,2.759,0,1,1,5.5,0A2.715,2.715,0,0,1,59.46,21.6Zm14.52-8.52a4.711,4.711,0,0,0-3.56,1.42V13.24H67.44V24h3.12V18.68c0-1.98,1.08-2.9,2.58-2.9,1.38,0,2.18.8,2.18,2.54V24h3.12V17.84C78.44,14.56,76.52,13.08,73.98,13.08Z" transform="translate(1123 1161)" fill="#fff"/>
    <path id="Trazado_16528" data-name="Trazado 16528" d="M1931.984-94.431V-217.625" transform="translate(-686 1337.194)" fill="none" stroke="#fff" stroke-width="2" stroke-dasharray="6"/>
  </g>
</svg>
