
<!-- Generator: Adobe Illustrator 22.0.1, SVG Export Plug-In . SVG Version: 6.00 Build 0)  -->
<svg version="1.1" id="Capa_1" xmlns="http://www.w3.org/2000/svg" xmlns:xlink="http://www.w3.org/1999/xlink" x="0px" y="0px"
	 viewBox="0 0 946 541" style="enable-background:new 0 0 946 541;" xml:space="preserve">
<style type="text/css">
	.st0{fill:#FFFFFF;}
	.st1{fill:#454545;}
	.st2{fill:#E2F7D9;}
	.st3{fill:#707070;}
	.st4{fill:#BCDEAE;}
	.st5{fill:#70AD54;}
	.st6{fill:#00223D;}
	.st7{fill:none;stroke:#2E2E2E;}
	.st8{font-family:'Arial-BoldMT';}
	.st9{font-size:18px;}
</style>
<g id="Grupo_8812" transform="translate(-480 -2054)">
	<g id="Trazado_17156" transform="translate(480 2054)">
		<path class="st0" d="M945.5,540.5H0.5V0.5h945V540.5z"/>
		<path class="st1" d="M1,1v539h944V1H1 M0,0h946v541H0V0z"/>
	</g>
	<g id="Trazado_17157" transform="translate(480 2474)">
		<path class="st2" d="M945.5,60.5H0.5v-60h945V60.5z"/>
		<path class="st3" d="M1,1v59h944V1H1 M0,0h946v61H0V0z"/>
	</g>
	<g id="Trazado_17158" transform="translate(480 2354)">
		<path class="st2" d="M945.5,60.5H0.5v-60h945V60.5z"/>
		<path class="st3" d="M1,1v59h944V1H1 M0,0h946v61H0V0z"/>
	</g>
	<g id="Trazado_17159" transform="translate(480 2414)">
		<path class="st4" d="M945.5,60.5H0.5v-60h945V60.5z"/>
		<path class="st3" d="M1,1v59h944V1H1 M0,0h946v61H0V0z"/>
	</g>
	<g id="Trazado_17160" transform="translate(480 2114)">
		<path class="st2" d="M945.5,60.5H0.5v-60h945V60.5z"/>
		<path class="st3" d="M1,1v59h944V1H1 M0,0h946v61H0V0z"/>
	</g>
	<g id="Trazado_17161" transform="translate(480 2054)">
		<path class="st5" d="M945.5,60.5H0.5v-60h945V60.5z"/>
		<path class="st3" d="M1,1v59h944V1H1 M0,0h946v61H0V0z"/>
	</g>
	<path id="Trazado_17162" class="st0" d="M527.1,2092l-3.1-10.1h-0.1c0.1,2.1,0.2,3.4,0.2,4.1v6h-2.4v-12.9h3.7l3,9.8h0.1l3.2-9.8
		h3.7v12.8h-2.5v-6.1c0-0.3,0-0.6,0-1c0-0.4,0-1.4,0.1-3h-0.1l-3.3,10.1H527.1z M546.5,2092l-0.9-3.1h-4.7l-0.9,3.1H537l4.5-12.9
		h3.3l4.6,12.9H546.5z M544.9,2086.7c-0.9-2.8-1.3-4.3-1.5-4.7c-0.1-0.4-0.2-0.6-0.2-0.9c-0.2,0.8-0.7,2.6-1.7,5.6L544.9,2086.7z
		 M554.7,2092H552v-10.6h-3.5v-2.3h9.7v2.3h-3.5V2092z M567.6,2092h-7.4v-12.9h7.4v2.2h-4.7v2.8h4.3v2.2h-4.3v3.3h4.7L567.6,2092z
		 M573,2084.9h0.9c0.7,0,1.3-0.1,1.9-0.4c0.4-0.3,0.7-0.8,0.6-1.4c0-0.5-0.2-1-0.6-1.3c-0.6-0.3-1.3-0.4-1.9-0.4H573V2084.9z
		 M573,2087.1v4.9h-2.7v-12.9h3.7c1.4-0.1,2.7,0.2,3.9,1c0.9,0.7,1.3,1.8,1.3,2.9c0,0.7-0.2,1.4-0.6,2c-0.5,0.6-1.1,1.1-1.8,1.4
		c1.9,2.9,3.2,4.8,3.8,5.6h-3l-3.1-4.9H573z M582.1,2092v-12.9h2.7v12.9H582.1z M596,2092l-0.9-3.1h-4.7l-0.9,3.1h-2.9l4.5-12.9h3.3
		l4.6,12.9H596z M594.4,2086.7c-0.9-2.8-1.3-4.3-1.5-4.7s-0.2-0.6-0.2-0.9c-0.2,0.8-0.7,2.6-1.7,5.6L594.4,2086.7z M600.5,2092
		v-12.9h2.7v10.6h5.2v2.2H600.5z"/>
	<g id="Trazado_17163" transform="translate(480 2174)">
		<path class="st4" d="M945.5,60.5H0.5v-60h945V60.5z"/>
		<path class="st3" d="M1,1v59h944V1H1 M0,0h946v61H0V0z"/>
	</g>
	<g id="Trazado_17164" transform="translate(480 2234)">
		<path class="st2" d="M945.5,60.5H0.5v-60h945V60.5z"/>
		<path class="st3" d="M1,1v59h944V1H1 M0,0h946v61H0V0z"/>
	</g>
	<path id="Trazado_17165" class="st6" d="M527.2,2136.8c-1.1,0-2.2,0.4-2.8,1.3c-0.7,1-1.1,2.3-1,3.5c-0.1,1.3,0.3,2.5,1,3.6
		c0.7,0.8,1.8,1.3,2.9,1.2c0.5,0,1.1-0.1,1.6-0.2c0.5-0.1,1-0.2,1.6-0.4v1.8c-1.1,0.4-2.3,0.6-3.4,0.6c-1.6,0.1-3.2-0.5-4.3-1.7
		c-1.1-1.4-1.6-3.1-1.5-4.9c0-1.2,0.2-2.4,0.7-3.5c0.5-1,1.2-1.8,2.1-2.3c1-0.6,2.1-0.8,3.3-0.8c1.3,0,2.5,0.3,3.6,0.8l-0.8,1.7
		c-0.4-0.2-0.9-0.4-1.4-0.5C528.2,2136.8,527.7,2136.8,527.2,2136.8z M539,2148l-0.4-1.4h-0.1c-0.4,0.5-0.9,0.9-1.4,1.2
		c-0.6,0.2-1.2,0.3-1.8,0.3c-0.8,0-1.6-0.2-2.2-0.8c-0.6-0.6-0.9-1.4-0.8-2.2c-0.1-0.9,0.4-1.8,1.1-2.3c1-0.6,2.2-0.9,3.4-0.8
		l1.7-0.1v-0.5c0-0.5-0.1-1-0.4-1.4c-0.4-0.3-0.9-0.5-1.3-0.5c-0.5,0-1,0.1-1.4,0.2c-0.5,0.1-0.9,0.3-1.3,0.5l-0.7-1.5
		c0.5-0.3,1.1-0.5,1.7-0.6c0.6-0.1,1.2-0.2,1.8-0.2c1-0.1,2,0.2,2.8,0.8c0.7,0.7,1,1.6,0.9,2.5v6.6H539z M535.9,2146.6
		c0.7,0,1.3-0.2,1.8-0.6c0.5-0.5,0.7-1.1,0.7-1.8v-0.8l-1.2,0.1c-0.7,0-1.5,0.1-2.1,0.5c-0.4,0.3-0.7,0.8-0.7,1.3
		c0,0.4,0.1,0.7,0.4,1C535.1,2146.5,535.5,2146.6,535.9,2146.6z M549.9,2145.2c0,0.9-0.3,1.7-1,2.2c-0.9,0.6-1.9,0.8-3,0.8
		c-1.1,0-2.1-0.2-3.1-0.6v-1.8c1,0.5,2.1,0.8,3.2,0.8c1.3,0,1.9-0.4,1.9-1.2c0-0.2-0.1-0.4-0.2-0.6c-0.2-0.2-0.4-0.4-0.7-0.5
		c-0.4-0.2-0.9-0.4-1.3-0.6c-0.8-0.3-1.6-0.7-2.3-1.3c-0.4-0.5-0.6-1.1-0.6-1.7c0-0.8,0.4-1.5,1-1.9c0.8-0.5,1.8-0.7,2.7-0.7
		c1.1,0,2.2,0.2,3.2,0.7l-0.7,1.6c-0.8-0.4-1.7-0.6-2.6-0.6c-1.1,0-1.6,0.3-1.6,0.9c0,0.3,0.2,0.6,0.4,0.8c0.6,0.4,1.2,0.6,1.9,0.9
		c0.6,0.2,1.2,0.5,1.7,0.9c0.3,0.2,0.6,0.5,0.8,0.9C549.8,2144.4,549.9,2144.8,549.9,2145.2L549.9,2145.2z M556,2148.2
		c-1.3,0.1-2.5-0.4-3.4-1.3c-0.8-1-1.2-2.4-1.1-3.7c-0.1-1.4,0.3-2.7,1.2-3.8c0.9-0.9,2.2-1.4,3.5-1.3c1,0,1.9,0.2,2.8,0.6l-0.6,1.7
		c-0.7-0.3-1.4-0.5-2.2-0.5c-1.7,0-2.5,1.1-2.5,3.3c-0.1,0.9,0.2,1.7,0.6,2.5c0.4,0.6,1.1,0.9,1.8,0.8c0.9,0,1.8-0.2,2.6-0.7v1.8
		c-0.4,0.2-0.8,0.4-1.2,0.5C557,2148.1,556.5,2148.2,556,2148.2z M567.1,2148l-0.4-1.4h-0.1c-0.4,0.5-0.9,0.9-1.4,1.2
		c-0.6,0.2-1.2,0.3-1.8,0.3c-0.8,0-1.6-0.2-2.2-0.8c-0.6-0.6-0.9-1.4-0.8-2.2c-0.1-0.9,0.4-1.8,1.1-2.3c1-0.6,2.2-0.9,3.4-0.8
		l1.7-0.1v-0.5c0-0.5-0.1-1-0.4-1.4c-0.4-0.3-0.9-0.5-1.3-0.5c-0.5,0-1,0.1-1.4,0.2c-0.5,0.1-0.9,0.3-1.3,0.5l-0.7-1.5
		c0.5-0.3,1.1-0.5,1.7-0.6c0.6-0.1,1.2-0.2,1.8-0.2c1-0.1,2,0.2,2.8,0.8c0.7,0.7,1,1.6,0.9,2.5v6.6H567.1z M564,2146.6
		c0.7,0,1.3-0.2,1.8-0.6c0.5-0.5,0.7-1.1,0.7-1.8v-0.8l-1.2,0.1c-0.7,0-1.5,0.1-2.1,0.5c-0.4,0.3-0.7,0.8-0.7,1.3
		c0,0.4,0.1,0.7,0.4,1C563.2,2146.5,563.6,2146.6,564,2146.6z M576.4,2138.1c0.3,0,0.7,0,1,0.1l-0.2,1.9c-0.3-0.1-0.6-0.1-0.9-0.1
		c-0.8,0-1.5,0.3-2,0.8c-0.5,0.6-0.8,1.3-0.8,2.1v5.1h-2.1v-9.7h1.6l0.3,1.7h0.1c0.3-0.6,0.7-1,1.3-1.4
		C575.2,2138.3,575.8,2138.1,576.4,2138.1z M581.3,2148h-2.1v-9.7h2.1L581.3,2148z M579.1,2135.7c0-0.3,0.1-0.6,0.3-0.9
		c0.2-0.2,0.5-0.3,0.9-0.3c0.3,0,0.6,0.1,0.8,0.3c0.2,0.2,0.3,0.5,0.3,0.9c0,0.3-0.1,0.6-0.3,0.8c-0.2,0.2-0.5,0.3-0.8,0.3
		c-0.3,0-0.6-0.1-0.9-0.3C579.2,2136.3,579.1,2136,579.1,2135.7z M586.3,2148h-2.1v-13.7h2.1V2148z M591.3,2148h-2.1v-13.7h2.1
		L591.3,2148z M600.3,2148l-0.4-1.4h-0.1c-0.4,0.5-0.9,0.9-1.4,1.2c-0.6,0.2-1.2,0.3-1.8,0.3c-0.8,0-1.6-0.2-2.2-0.8
		c-0.6-0.6-0.9-1.4-0.8-2.2c-0.1-0.9,0.4-1.8,1.1-2.3c1-0.6,2.2-0.9,3.4-0.8l1.7-0.1v-0.5c0-0.5-0.1-1-0.4-1.4
		c-0.4-0.3-0.9-0.5-1.3-0.5c-0.5,0-1,0.1-1.4,0.2c-0.5,0.1-0.9,0.3-1.3,0.5l-0.7-1.5c0.5-0.3,1.1-0.5,1.7-0.6
		c0.6-0.1,1.2-0.2,1.8-0.2c1-0.1,2,0.2,2.8,0.8c0.7,0.7,1,1.6,0.9,2.5v6.6H600.3z M597.3,2146.6c0.7,0,1.3-0.2,1.8-0.6
		c0.5-0.5,0.7-1.1,0.7-1.8v-0.8l-1.2,0.1c-0.7,0-1.5,0.1-2.1,0.5c-0.4,0.3-0.7,0.8-0.7,1.3c0,0.4,0.1,0.7,0.4,1
		C596.4,2146.5,596.8,2146.6,597.3,2146.6z M612.7,2148.2c-1.1,0.1-2.2-0.4-2.8-1.3c-0.7-1.1-1.1-2.4-1-3.7c-0.1-1.3,0.3-2.6,1-3.7
		c0.7-0.9,1.7-1.4,2.9-1.3c1.2-0.1,2.3,0.5,2.9,1.4h0.1c-0.1-0.5-0.1-1.1-0.1-1.7v-3.5h2.1v13.7H616l-0.4-1.3h-0.1
		C614.9,2147.7,613.8,2148.2,612.7,2148.2L612.7,2148.2z M613.2,2146.5c0.7,0.1,1.4-0.2,1.9-0.7c0.4-0.7,0.7-1.5,0.6-2.3v-0.3
		c0.1-0.9-0.1-1.8-0.6-2.6c-0.5-0.5-1.2-0.8-1.9-0.8c-0.7,0-1.3,0.3-1.7,0.9c-0.4,0.8-0.6,1.6-0.6,2.5c-0.1,0.9,0.1,1.7,0.6,2.5
		C611.9,2146.2,612.5,2146.5,613.2,2146.5L613.2,2146.5z M624.8,2148.2c-1.3,0.1-2.6-0.4-3.5-1.3c-0.9-1-1.4-2.3-1.3-3.6
		c-0.1-1.4,0.3-2.7,1.2-3.7c0.8-0.9,2-1.4,3.3-1.4c1.1-0.1,2.2,0.4,3,1.2c0.8,0.9,1.2,2,1.1,3.2v1.1h-6.5c0,0.8,0.2,1.6,0.8,2.2
		c0.5,0.5,1.3,0.8,2,0.8c0.5,0,1.1-0.1,1.6-0.2c0.6-0.1,1.1-0.3,1.6-0.5v1.7c-0.5,0.2-1,0.4-1.5,0.5
		C626,2148.1,625.4,2148.2,624.8,2148.2L624.8,2148.2z M624.5,2139.7c-0.6,0-1.2,0.2-1.6,0.6c-0.4,0.5-0.7,1.2-0.7,1.8h4.4
		c0-0.7-0.2-1.3-0.6-1.8C625.6,2139.9,625,2139.6,624.5,2139.7L624.5,2139.7z M641.7,2148l-0.4-1.4h-0.1c-0.4,0.5-0.9,0.9-1.4,1.2
		c-0.6,0.2-1.2,0.3-1.8,0.3c-0.8,0-1.6-0.2-2.2-0.8c-0.6-0.6-0.9-1.4-0.8-2.2c-0.1-0.9,0.4-1.8,1.1-2.3c1-0.6,2.2-0.9,3.4-0.8
		l1.7-0.1v-0.5c0-0.5-0.1-1-0.4-1.4c-0.4-0.3-0.9-0.5-1.3-0.5c-0.5,0-1,0.1-1.4,0.2c-0.5,0.1-0.9,0.3-1.3,0.5l-0.7-1.5
		c0.5-0.3,1.1-0.5,1.7-0.6c0.6-0.1,1.2-0.2,1.8-0.2c1-0.1,2,0.2,2.8,0.8c0.7,0.7,1,1.6,0.9,2.5v6.5H641.7z M638.6,2146.6
		c0.7,0,1.3-0.2,1.8-0.6c0.5-0.5,0.7-1.1,0.7-1.8v-0.8l-1.2,0.1c-0.7,0-1.5,0.1-2.1,0.5c-0.4,0.3-0.7,0.8-0.7,1.3
		c0,0.4,0.1,0.7,0.4,1C637.8,2146.5,638.2,2146.6,638.6,2146.6z M651,2138.1c0.3,0,0.7,0,1,0.1l-0.2,1.9c-0.3-0.1-0.6-0.1-0.9-0.1
		c-0.8,0-1.5,0.3-2,0.8c-0.5,0.6-0.8,1.3-0.8,2.1v5.1h-2.1v-9.7h1.6l0.3,1.7h0.1c0.3-0.6,0.7-1,1.3-1.4
		C649.8,2138.3,650.4,2138.1,651,2138.1z M658.8,2138.1c0.3,0,0.7,0,1,0.1l-0.2,1.9c-0.3-0.1-0.6-0.1-0.9-0.1c-0.8,0-1.5,0.3-2,0.8
		c-0.5,0.6-0.8,1.3-0.8,2.1v5.1h-2.1v-9.7h1.6l0.3,1.7h0.1c0.3-0.6,0.7-1,1.3-1.4C657.6,2138.3,658.2,2138.1,658.8,2138.1z
		 M669.9,2143.1c0.1,1.3-0.4,2.7-1.2,3.7c-0.9,0.9-2.1,1.4-3.4,1.3c-0.8,0-1.7-0.2-2.4-0.6c-0.7-0.4-1.3-1-1.6-1.8
		c-0.4-0.8-0.6-1.8-0.6-2.7c-0.1-1.3,0.4-2.7,1.2-3.7c0.9-0.9,2.1-1.4,3.4-1.3c1.3-0.1,2.5,0.4,3.3,1.4
		C669.5,2140.5,669.9,2141.8,669.9,2143.1L669.9,2143.1z M662.8,2143.1c0,2.2,0.8,3.4,2.5,3.4c1.6,0,2.5-1.1,2.5-3.4
		c0-2.2-0.8-3.3-2.5-3.3c-0.7-0.1-1.5,0.3-1.9,0.9C662.9,2141.4,662.7,2142.3,662.8,2143.1L662.8,2143.1z M678.6,2148h-7.4v-1.3
		l4.9-6.9h-4.6v-1.6h6.9v1.4l-4.8,6.7h4.9V2148z"/>
	<path id="Trazado_17166" class="st6" d="M527.2,2200.8c-1.1,0-2.2,0.4-2.8,1.3c-0.7,1-1.1,2.3-1,3.5c-0.1,1.3,0.3,2.5,1,3.6
		c0.7,0.8,1.8,1.3,2.9,1.2c0.5,0,1.1-0.1,1.6-0.2c0.5-0.1,1-0.2,1.6-0.4v1.8c-1.1,0.4-2.3,0.6-3.4,0.6c-1.6,0.1-3.2-0.5-4.3-1.7
		c-1.1-1.4-1.6-3.1-1.5-4.9c0-1.2,0.2-2.4,0.7-3.5c0.5-1,1.2-1.8,2.1-2.3c1-0.6,2.1-0.8,3.3-0.8c1.3,0,2.5,0.3,3.6,0.8l-0.8,1.7
		c-0.4-0.2-0.9-0.4-1.4-0.5C528.2,2200.8,527.7,2200.8,527.2,2200.8z M539,2212l-0.4-1.4h-0.1c-0.4,0.5-0.9,0.9-1.4,1.2
		c-0.6,0.2-1.2,0.3-1.8,0.3c-0.8,0-1.6-0.2-2.2-0.8c-0.6-0.6-0.9-1.4-0.8-2.2c-0.1-0.9,0.4-1.8,1.1-2.3c1-0.6,2.2-0.9,3.4-0.8
		l1.7-0.1v-0.5c0-0.5-0.1-1-0.4-1.4c-0.4-0.3-0.9-0.5-1.3-0.5c-0.5,0-1,0.1-1.4,0.2c-0.5,0.1-0.9,0.3-1.3,0.5l-0.7-1.5
		c0.5-0.3,1.1-0.5,1.7-0.6c0.6-0.1,1.2-0.2,1.8-0.2c1-0.1,2,0.2,2.8,0.8c0.7,0.7,1,1.6,0.9,2.5v6.6H539z M535.9,2210.6
		c0.7,0,1.3-0.2,1.8-0.6c0.5-0.5,0.7-1.1,0.7-1.8v-0.8l-1.2,0.1c-0.7,0-1.5,0.1-2.1,0.5c-0.4,0.3-0.7,0.8-0.7,1.3
		c0,0.4,0.1,0.7,0.4,1C535.1,2210.5,535.5,2210.6,535.9,2210.6z M549.9,2209.2c0,0.9-0.3,1.7-1,2.2c-0.9,0.6-1.9,0.8-3,0.8
		c-1.1,0-2.1-0.2-3.1-0.6v-1.8c1,0.5,2.1,0.8,3.2,0.8c1.3,0,1.9-0.4,1.9-1.2c0-0.2-0.1-0.4-0.2-0.6c-0.2-0.2-0.4-0.4-0.7-0.5
		c-0.4-0.2-0.9-0.4-1.3-0.6c-0.8-0.3-1.6-0.7-2.3-1.3c-0.4-0.5-0.6-1.1-0.6-1.7c0-0.8,0.4-1.5,1-1.9c0.8-0.5,1.8-0.7,2.7-0.7
		c1.1,0,2.2,0.2,3.2,0.7l-0.7,1.6c-0.8-0.4-1.7-0.6-2.6-0.6c-1.1,0-1.6,0.3-1.6,0.9c0,0.3,0.2,0.6,0.4,0.8c0.6,0.4,1.2,0.6,1.9,0.9
		c0.6,0.2,1.2,0.5,1.7,0.9c0.3,0.2,0.6,0.5,0.8,0.9C549.8,2208.4,549.9,2208.8,549.9,2209.2L549.9,2209.2z M556,2212.2
		c-1.3,0.1-2.5-0.4-3.4-1.3c-0.8-1-1.2-2.4-1.1-3.7c-0.1-1.4,0.3-2.7,1.2-3.8c0.9-0.9,2.2-1.4,3.5-1.3c1,0,1.9,0.2,2.8,0.6l-0.6,1.7
		c-0.7-0.3-1.4-0.5-2.2-0.5c-1.7,0-2.5,1.1-2.5,3.3c-0.1,0.9,0.2,1.7,0.6,2.5c0.4,0.6,1.1,0.9,1.8,0.8c0.9,0,1.8-0.2,2.6-0.7v1.8
		c-0.4,0.2-0.8,0.4-1.2,0.5C557,2212.1,556.5,2212.2,556,2212.2z M567.1,2212l-0.4-1.4h-0.1c-0.4,0.5-0.9,0.9-1.4,1.2
		c-0.6,0.2-1.2,0.3-1.8,0.3c-0.8,0-1.6-0.2-2.2-0.8c-0.6-0.6-0.9-1.4-0.8-2.2c-0.1-0.9,0.4-1.8,1.1-2.3c1-0.6,2.2-0.9,3.4-0.8
		l1.7-0.1v-0.5c0-0.5-0.1-1-0.4-1.4c-0.4-0.3-0.9-0.5-1.3-0.5c-0.5,0-1,0.1-1.4,0.2c-0.5,0.1-0.9,0.3-1.3,0.5l-0.7-1.5
		c0.5-0.3,1.1-0.5,1.7-0.6c0.6-0.1,1.2-0.2,1.8-0.2c1-0.1,2,0.2,2.8,0.8c0.7,0.7,1,1.6,0.9,2.5v6.6H567.1z M564,2210.6
		c0.7,0,1.3-0.2,1.8-0.6c0.5-0.5,0.7-1.1,0.7-1.8v-0.8l-1.2,0.1c-0.7,0-1.5,0.1-2.1,0.5c-0.4,0.3-0.7,0.8-0.7,1.3
		c0,0.4,0.1,0.7,0.4,1C563.2,2210.5,563.6,2210.6,564,2210.6z M576.4,2202.1c0.3,0,0.7,0,1,0.1l-0.2,1.9c-0.3-0.1-0.6-0.1-0.9-0.1
		c-0.8,0-1.5,0.3-2,0.8c-0.5,0.6-0.8,1.3-0.8,2.1v5.1h-2.1v-9.7h1.6l0.3,1.7h0.1c0.3-0.6,0.7-1,1.3-1.4
		C575.2,2202.3,575.8,2202.1,576.4,2202.1z M581.3,2212h-2.1v-9.7h2.1L581.3,2212z M579.1,2199.7c0-0.3,0.1-0.6,0.3-0.9
		c0.2-0.2,0.5-0.3,0.9-0.3c0.3,0,0.6,0.1,0.8,0.3c0.2,0.2,0.3,0.5,0.3,0.9c0,0.3-0.1,0.6-0.3,0.8c-0.2,0.2-0.5,0.3-0.8,0.3
		c-0.3,0-0.6-0.1-0.9-0.3C579.2,2200.3,579.1,2200,579.1,2199.7z M586.3,2212h-2.1v-13.7h2.1V2212z M591.3,2212h-2.1v-13.7h2.1
		L591.3,2212z M600.3,2212l-0.4-1.4h-0.1c-0.4,0.5-0.9,0.9-1.4,1.2c-0.6,0.2-1.2,0.3-1.8,0.3c-0.8,0-1.6-0.2-2.2-0.8
		c-0.6-0.6-0.9-1.4-0.8-2.2c-0.1-0.9,0.4-1.8,1.1-2.3c1-0.6,2.2-0.9,3.4-0.8l1.7-0.1v-0.5c0-0.5-0.1-1-0.4-1.4
		c-0.4-0.3-0.9-0.5-1.3-0.5c-0.5,0-1,0.1-1.4,0.2c-0.5,0.1-0.9,0.3-1.3,0.5l-0.7-1.5c0.5-0.3,1.1-0.5,1.7-0.6
		c0.6-0.1,1.2-0.2,1.8-0.2c1-0.1,2,0.2,2.8,0.8c0.7,0.7,1,1.6,0.9,2.5v6.6H600.3z M597.3,2210.6c0.7,0,1.3-0.2,1.8-0.6
		c0.5-0.5,0.7-1.1,0.7-1.8v-0.8l-1.2,0.1c-0.7,0-1.5,0.1-2.1,0.5c-0.4,0.3-0.7,0.8-0.7,1.3c0,0.4,0.1,0.7,0.4,1
		C596.4,2210.5,596.8,2210.6,597.3,2210.6z M612.7,2212.2c-1.1,0.1-2.2-0.4-2.8-1.3c-0.7-1.1-1.1-2.4-1-3.7c-0.1-1.3,0.3-2.6,1-3.7
		c0.7-0.9,1.7-1.4,2.9-1.3c1.2-0.1,2.3,0.5,2.9,1.4h0.1c-0.1-0.5-0.1-1.1-0.1-1.7v-3.5h2.1v13.7H616l-0.4-1.3h-0.1
		C614.9,2211.7,613.8,2212.2,612.7,2212.2L612.7,2212.2z M613.2,2210.5c0.7,0.1,1.4-0.2,1.9-0.7c0.4-0.7,0.7-1.5,0.6-2.3v-0.3
		c0.1-0.9-0.1-1.8-0.6-2.6c-0.5-0.5-1.2-0.8-1.9-0.8c-0.7,0-1.3,0.3-1.7,0.9c-0.4,0.8-0.6,1.6-0.6,2.5c-0.1,0.9,0.1,1.7,0.6,2.5
		C611.9,2210.2,612.5,2210.5,613.2,2210.5L613.2,2210.5z M624.8,2212.2c-1.3,0.1-2.6-0.4-3.5-1.3c-0.9-1-1.4-2.3-1.3-3.6
		c-0.1-1.4,0.3-2.7,1.2-3.7c0.8-0.9,2-1.4,3.3-1.4c1.1-0.1,2.2,0.4,3,1.2c0.8,0.9,1.2,2,1.1,3.2v1.1h-6.5c0,0.8,0.2,1.6,0.8,2.2
		c0.5,0.5,1.3,0.8,2,0.8c0.5,0,1.1-0.1,1.6-0.2c0.6-0.1,1.1-0.3,1.6-0.5v1.7c-0.5,0.2-1,0.4-1.5,0.5
		C626,2212.1,625.4,2212.2,624.8,2212.2L624.8,2212.2z M624.5,2203.7c-0.6,0-1.2,0.2-1.6,0.6c-0.4,0.5-0.7,1.2-0.7,1.8h4.4
		c0-0.7-0.2-1.3-0.6-1.8C625.6,2203.9,625,2203.6,624.5,2203.7L624.5,2203.7z M641.7,2212l-0.4-1.4h-0.1c-0.4,0.5-0.9,0.9-1.4,1.2
		c-0.6,0.2-1.2,0.3-1.8,0.3c-0.8,0-1.6-0.2-2.2-0.8c-0.6-0.6-0.9-1.4-0.8-2.2c-0.1-0.9,0.4-1.8,1.1-2.3c1-0.6,2.2-0.9,3.4-0.8
		l1.7-0.1v-0.5c0-0.5-0.1-1-0.4-1.4c-0.4-0.3-0.9-0.5-1.3-0.5c-0.5,0-1,0.1-1.4,0.2c-0.5,0.1-0.9,0.3-1.3,0.5l-0.7-1.5
		c0.5-0.3,1.1-0.5,1.7-0.6c0.6-0.1,1.2-0.2,1.8-0.2c1-0.1,2,0.2,2.8,0.8c0.7,0.7,1,1.6,0.9,2.5v6.5H641.7z M638.6,2210.6
		c0.7,0,1.3-0.2,1.8-0.6c0.5-0.5,0.7-1.1,0.7-1.8v-0.8l-1.2,0.1c-0.7,0-1.5,0.1-2.1,0.5c-0.4,0.3-0.7,0.8-0.7,1.3
		c0,0.4,0.1,0.7,0.4,1C637.8,2210.5,638.2,2210.6,638.6,2210.6z M651,2202.1c0.3,0,0.7,0,1,0.1l-0.2,1.9c-0.3-0.1-0.6-0.1-0.9-0.1
		c-0.8,0-1.5,0.3-2,0.8c-0.5,0.6-0.8,1.3-0.8,2.1v5.1h-2.1v-9.7h1.6l0.3,1.7h0.1c0.3-0.6,0.7-1,1.3-1.4
		C649.8,2202.3,650.4,2202.1,651,2202.1z M658.8,2202.1c0.3,0,0.7,0,1,0.1l-0.2,1.9c-0.3-0.1-0.6-0.1-0.9-0.1c-0.8,0-1.5,0.3-2,0.8
		c-0.5,0.6-0.8,1.3-0.8,2.1v5.1h-2.1v-9.7h1.6l0.3,1.7h0.1c0.3-0.6,0.7-1,1.3-1.4C657.6,2202.3,658.2,2202.1,658.8,2202.1z
		 M669.9,2207.1c0.1,1.3-0.4,2.7-1.2,3.7c-0.9,0.9-2.1,1.4-3.4,1.3c-0.8,0-1.7-0.2-2.4-0.6c-0.7-0.4-1.3-1-1.6-1.8
		c-0.4-0.8-0.6-1.8-0.6-2.7c-0.1-1.3,0.4-2.7,1.2-3.7c0.9-0.9,2.1-1.4,3.4-1.3c1.3-0.1,2.5,0.4,3.3,1.4
		C669.5,2204.5,669.9,2205.8,669.9,2207.1L669.9,2207.1z M662.8,2207.1c0,2.2,0.8,3.4,2.5,3.4c1.6,0,2.5-1.1,2.5-3.4
		c0-2.2-0.8-3.3-2.5-3.3c-0.7-0.1-1.5,0.3-1.9,0.9C662.9,2205.4,662.7,2206.3,662.8,2207.1L662.8,2207.1z M678.6,2212h-7.4v-1.3
		l4.9-6.9h-4.6v-1.6h6.9v1.4l-4.8,6.7h4.9V2212z"/>
	<path id="Trazado_17167" class="st6" d="M527.2,2259.8c-1.1,0-2.2,0.4-2.8,1.3c-0.7,1-1.1,2.3-1,3.5c-0.1,1.3,0.3,2.5,1,3.6
		c0.7,0.8,1.8,1.3,2.9,1.2c0.5,0,1.1-0.1,1.6-0.2c0.5-0.1,1-0.2,1.6-0.4v1.8c-1.1,0.4-2.3,0.6-3.4,0.6c-1.6,0.1-3.2-0.5-4.3-1.7
		c-1.1-1.4-1.6-3.1-1.5-4.9c0-1.2,0.2-2.4,0.7-3.5c0.5-1,1.2-1.8,2.1-2.3c1-0.6,2.1-0.8,3.3-0.8c1.3,0,2.5,0.3,3.6,0.8l-0.8,1.7
		c-0.4-0.2-0.9-0.4-1.4-0.5C528.2,2259.8,527.7,2259.8,527.2,2259.8z M539,2271l-0.4-1.4h-0.1c-0.4,0.5-0.9,0.9-1.4,1.2
		c-0.6,0.2-1.2,0.3-1.8,0.3c-0.8,0-1.6-0.2-2.2-0.8c-0.6-0.6-0.9-1.4-0.8-2.2c-0.1-0.9,0.4-1.8,1.1-2.3c1-0.6,2.2-0.9,3.4-0.8
		l1.7-0.1v-0.5c0-0.5-0.1-1-0.4-1.4c-0.4-0.3-0.9-0.5-1.3-0.5c-0.5,0-1,0.1-1.4,0.2c-0.5,0.1-0.9,0.3-1.3,0.5l-0.7-1.5
		c0.5-0.3,1.1-0.5,1.7-0.6c0.6-0.1,1.2-0.2,1.8-0.2c1-0.1,2,0.2,2.8,0.8c0.7,0.7,1,1.6,0.9,2.5v6.6H539z M535.9,2269.6
		c0.7,0,1.3-0.2,1.8-0.6c0.5-0.5,0.7-1.1,0.7-1.8v-0.8l-1.2,0.1c-0.7,0-1.5,0.1-2.1,0.5c-0.4,0.3-0.7,0.8-0.7,1.3
		c0,0.4,0.1,0.7,0.4,1C535.1,2269.5,535.5,2269.6,535.9,2269.6z M549.9,2268.2c0,0.9-0.3,1.7-1,2.2c-0.9,0.6-1.9,0.8-3,0.8
		c-1.1,0-2.1-0.2-3.1-0.6v-1.8c1,0.5,2.1,0.8,3.2,0.8c1.3,0,1.9-0.4,1.9-1.2c0-0.2-0.1-0.4-0.2-0.6c-0.2-0.2-0.4-0.4-0.7-0.5
		c-0.4-0.2-0.9-0.4-1.3-0.6c-0.8-0.3-1.6-0.7-2.3-1.3c-0.4-0.5-0.6-1.1-0.6-1.7c0-0.8,0.4-1.5,1-1.9c0.8-0.5,1.8-0.7,2.7-0.7
		c1.1,0,2.2,0.2,3.2,0.7l-0.7,1.6c-0.8-0.4-1.7-0.6-2.6-0.6c-1.1,0-1.6,0.3-1.6,0.9c0,0.3,0.2,0.6,0.4,0.8c0.6,0.4,1.2,0.6,1.9,0.9
		c0.6,0.2,1.2,0.5,1.7,0.9c0.3,0.2,0.6,0.5,0.8,0.9C549.8,2267.4,549.9,2267.8,549.9,2268.2L549.9,2268.2z M556,2271.2
		c-1.3,0.1-2.5-0.4-3.4-1.3c-0.8-1-1.2-2.4-1.1-3.7c-0.1-1.4,0.3-2.7,1.2-3.8c0.9-0.9,2.2-1.4,3.5-1.3c1,0,1.9,0.2,2.8,0.6l-0.6,1.7
		c-0.7-0.3-1.4-0.5-2.2-0.5c-1.7,0-2.5,1.1-2.5,3.3c-0.1,0.9,0.2,1.7,0.6,2.5c0.4,0.6,1.1,0.9,1.8,0.8c0.9,0,1.8-0.2,2.6-0.7v1.8
		c-0.4,0.2-0.8,0.4-1.2,0.5C557,2271.1,556.5,2271.2,556,2271.2z M567.1,2271l-0.4-1.4h-0.1c-0.4,0.5-0.9,0.9-1.4,1.2
		c-0.6,0.2-1.2,0.3-1.8,0.3c-0.8,0-1.6-0.2-2.2-0.8c-0.6-0.6-0.9-1.4-0.8-2.2c-0.1-0.9,0.4-1.8,1.1-2.3c1-0.6,2.2-0.9,3.4-0.8
		l1.7-0.1v-0.5c0-0.5-0.1-1-0.4-1.4c-0.4-0.3-0.9-0.5-1.3-0.5c-0.5,0-1,0.1-1.4,0.2c-0.5,0.1-0.9,0.3-1.3,0.5l-0.7-1.5
		c0.5-0.3,1.1-0.5,1.7-0.6c0.6-0.1,1.2-0.2,1.8-0.2c1-0.1,2,0.2,2.8,0.8c0.7,0.7,1,1.6,0.9,2.5v6.6H567.1z M564,2269.6
		c0.7,0,1.3-0.2,1.8-0.6c0.5-0.5,0.7-1.1,0.7-1.8v-0.8l-1.2,0.1c-0.7,0-1.5,0.1-2.1,0.5c-0.4,0.3-0.7,0.8-0.7,1.3
		c0,0.4,0.1,0.7,0.4,1C563.2,2269.5,563.6,2269.6,564,2269.6z M576.4,2261.1c0.3,0,0.7,0,1,0.1l-0.2,1.9c-0.3-0.1-0.6-0.1-0.9-0.1
		c-0.8,0-1.5,0.3-2,0.8c-0.5,0.6-0.8,1.3-0.8,2.1v5.1h-2.1v-9.7h1.6l0.3,1.7h0.1c0.3-0.6,0.7-1,1.3-1.4
		C575.2,2261.3,575.8,2261.1,576.4,2261.1z M581.3,2271h-2.1v-9.7h2.1L581.3,2271z M579.1,2258.7c0-0.3,0.1-0.6,0.3-0.9
		c0.2-0.2,0.5-0.3,0.9-0.3c0.3,0,0.6,0.1,0.8,0.3c0.2,0.2,0.3,0.5,0.3,0.9c0,0.3-0.1,0.6-0.3,0.8c-0.2,0.2-0.5,0.3-0.8,0.3
		c-0.3,0-0.6-0.1-0.9-0.3C579.2,2259.3,579.1,2259,579.1,2258.7z M586.3,2271h-2.1v-13.7h2.1V2271z M591.3,2271h-2.1v-13.7h2.1
		L591.3,2271z M600.3,2271l-0.4-1.4h-0.1c-0.4,0.5-0.9,0.9-1.4,1.2c-0.6,0.2-1.2,0.3-1.8,0.3c-0.8,0-1.6-0.2-2.2-0.8
		c-0.6-0.6-0.9-1.4-0.8-2.2c-0.1-0.9,0.4-1.8,1.1-2.3c1-0.6,2.2-0.9,3.4-0.8l1.7-0.1v-0.5c0-0.5-0.1-1-0.4-1.4
		c-0.4-0.3-0.9-0.5-1.3-0.5c-0.5,0-1,0.1-1.4,0.2c-0.5,0.1-0.9,0.3-1.3,0.5l-0.7-1.5c0.5-0.3,1.1-0.5,1.7-0.6
		c0.6-0.1,1.2-0.2,1.8-0.2c1-0.1,2,0.2,2.8,0.8c0.7,0.7,1,1.6,0.9,2.5v6.6H600.3z M597.3,2269.6c0.7,0,1.3-0.2,1.8-0.6
		c0.5-0.5,0.7-1.1,0.7-1.8v-0.8l-1.2,0.1c-0.7,0-1.5,0.1-2.1,0.5c-0.4,0.3-0.7,0.8-0.7,1.3c0,0.4,0.1,0.7,0.4,1
		C596.4,2269.5,596.8,2269.6,597.3,2269.6z M612.7,2271.2c-1.1,0.1-2.2-0.4-2.8-1.3c-0.7-1.1-1.1-2.4-1-3.7c-0.1-1.3,0.3-2.6,1-3.7
		c0.7-0.9,1.7-1.4,2.9-1.3c1.2-0.1,2.3,0.5,2.9,1.4h0.1c-0.1-0.5-0.1-1.1-0.1-1.7v-3.5h2.1v13.7H616l-0.4-1.3h-0.1
		C614.9,2270.7,613.8,2271.2,612.7,2271.2L612.7,2271.2z M613.2,2269.5c0.7,0.1,1.4-0.2,1.9-0.7c0.4-0.7,0.7-1.5,0.6-2.3v-0.3
		c0.1-0.9-0.1-1.8-0.6-2.6c-0.5-0.5-1.2-0.8-1.9-0.8c-0.7,0-1.3,0.3-1.7,0.9c-0.4,0.8-0.6,1.6-0.6,2.5c-0.1,0.9,0.1,1.7,0.6,2.5
		C611.9,2269.2,612.5,2269.5,613.2,2269.5L613.2,2269.5z M624.8,2271.2c-1.3,0.1-2.6-0.4-3.5-1.3c-0.9-1-1.4-2.3-1.3-3.6
		c-0.1-1.4,0.3-2.7,1.2-3.7c0.8-0.9,2-1.4,3.3-1.4c1.1-0.1,2.2,0.4,3,1.2c0.8,0.9,1.2,2,1.1,3.2v1.1h-6.5c0,0.8,0.2,1.6,0.8,2.2
		c0.5,0.5,1.3,0.8,2,0.8c0.5,0,1.1-0.1,1.6-0.2c0.6-0.1,1.1-0.3,1.6-0.5v1.7c-0.5,0.2-1,0.4-1.5,0.5
		C626,2271.1,625.4,2271.2,624.8,2271.2L624.8,2271.2z M624.5,2262.7c-0.6,0-1.2,0.2-1.6,0.6c-0.4,0.5-0.7,1.2-0.7,1.8h4.4
		c0-0.7-0.2-1.3-0.6-1.8C625.6,2262.9,625,2262.6,624.5,2262.7L624.5,2262.7z M641.7,2271l-0.4-1.4h-0.1c-0.4,0.5-0.9,0.9-1.4,1.2
		c-0.6,0.2-1.2,0.3-1.8,0.3c-0.8,0-1.6-0.2-2.2-0.8c-0.6-0.6-0.9-1.4-0.8-2.2c-0.1-0.9,0.4-1.8,1.1-2.3c1-0.6,2.2-0.9,3.4-0.8
		l1.7-0.1v-0.5c0-0.5-0.1-1-0.4-1.4c-0.4-0.3-0.9-0.5-1.3-0.5c-0.5,0-1,0.1-1.4,0.2c-0.5,0.1-0.9,0.3-1.3,0.5l-0.7-1.5
		c0.5-0.3,1.1-0.5,1.7-0.6c0.6-0.1,1.2-0.2,1.8-0.2c1-0.1,2,0.2,2.8,0.8c0.7,0.7,1,1.6,0.9,2.5v6.5H641.7z M638.6,2269.6
		c0.7,0,1.3-0.2,1.8-0.6c0.5-0.5,0.7-1.1,0.7-1.8v-0.8l-1.2,0.1c-0.7,0-1.5,0.1-2.1,0.5c-0.4,0.3-0.7,0.8-0.7,1.3
		c0,0.4,0.1,0.7,0.4,1C637.8,2269.5,638.2,2269.6,638.6,2269.6z M651,2261.1c0.3,0,0.7,0,1,0.1l-0.2,1.9c-0.3-0.1-0.6-0.1-0.9-0.1
		c-0.8,0-1.5,0.3-2,0.8c-0.5,0.6-0.8,1.3-0.8,2.1v5.1h-2.1v-9.7h1.6l0.3,1.7h0.1c0.3-0.6,0.7-1,1.3-1.4
		C649.8,2261.3,650.4,2261.1,651,2261.1z M658.8,2261.1c0.3,0,0.7,0,1,0.1l-0.2,1.9c-0.3-0.1-0.6-0.1-0.9-0.1c-0.8,0-1.5,0.3-2,0.8
		c-0.5,0.6-0.8,1.3-0.8,2.1v5.1h-2.1v-9.7h1.6l0.3,1.7h0.1c0.3-0.6,0.7-1,1.3-1.4C657.6,2261.3,658.2,2261.1,658.8,2261.1z
		 M669.9,2266.1c0.1,1.3-0.4,2.7-1.2,3.7c-0.9,0.9-2.1,1.4-3.4,1.3c-0.8,0-1.7-0.2-2.4-0.6c-0.7-0.4-1.3-1-1.6-1.8
		c-0.4-0.8-0.6-1.8-0.6-2.7c-0.1-1.3,0.4-2.7,1.2-3.7c0.9-0.9,2.1-1.4,3.4-1.3c1.3-0.1,2.5,0.4,3.3,1.4
		C669.5,2263.5,669.9,2264.8,669.9,2266.1L669.9,2266.1z M662.8,2266.1c0,2.2,0.8,3.4,2.5,3.4c1.6,0,2.5-1.1,2.5-3.4
		c0-2.2-0.8-3.3-2.5-3.3c-0.7-0.1-1.5,0.3-1.9,0.9C662.9,2264.4,662.7,2265.3,662.8,2266.1L662.8,2266.1z M678.6,2271h-7.4v-1.3
		l4.9-6.9h-4.6v-1.6h6.9v1.4l-4.8,6.7h4.9V2271z"/>
	<path id="Trazado_17168" class="st6" d="M529.7,2330l-1.3-3.6h-4.9l-1.3,3.6H520l4.8-12.9h2.3l4.8,12.9H529.7z M527.8,2324.6
		l-1.2-3.5c-0.1-0.2-0.2-0.6-0.4-1.1c-0.2-0.5-0.3-0.9-0.3-1.1c-0.2,0.8-0.4,1.6-0.7,2.4l-1.2,3.3H527.8z M539.9,2327.2
		c0,0.9-0.3,1.7-1,2.2c-0.9,0.6-1.9,0.8-3,0.8c-1.1,0-2.1-0.2-3.1-0.6v-1.8c1,0.5,2.1,0.8,3.2,0.8c1.3,0,1.9-0.4,1.9-1.2
		c0-0.2-0.1-0.4-0.2-0.6c-0.2-0.2-0.4-0.4-0.7-0.5c-0.4-0.2-0.9-0.4-1.3-0.6c-0.8-0.3-1.6-0.7-2.3-1.3c-0.4-0.5-0.6-1.1-0.6-1.7
		c0-0.8,0.4-1.5,1-1.9c0.8-0.5,1.8-0.7,2.7-0.7c1.1,0,2.2,0.2,3.2,0.7l-0.7,1.6c-0.8-0.4-1.7-0.6-2.6-0.7c-1.1,0-1.6,0.3-1.6,0.9
		c0,0.3,0.2,0.6,0.4,0.8c0.6,0.4,1.2,0.6,1.9,0.9c0.6,0.2,1.2,0.5,1.7,0.9c0.3,0.2,0.6,0.5,0.8,0.9
		C539.8,2326.4,539.9,2326.8,539.9,2327.2z M546.4,2330.2c-1.3,0.1-2.6-0.4-3.5-1.3c-0.9-1-1.4-2.3-1.3-3.6
		c-0.1-1.4,0.3-2.7,1.2-3.7c0.8-0.9,2-1.4,3.3-1.4c1.1-0.1,2.2,0.4,3,1.2c0.8,0.9,1.2,2,1.1,3.2v1.1h-6.5c0,0.8,0.2,1.6,0.8,2.2
		c0.5,0.5,1.3,0.8,2,0.8c0.5,0,1.1-0.1,1.6-0.2c0.6-0.1,1.1-0.3,1.6-0.5v1.7c-0.5,0.2-1,0.4-1.5,0.5
		C547.6,2330.1,547,2330.2,546.4,2330.2L546.4,2330.2z M546,2321.7c-0.6,0-1.2,0.2-1.6,0.6c-0.4,0.5-0.7,1.2-0.7,1.8h4.4
		c0-0.7-0.2-1.3-0.6-1.8C547.2,2321.9,546.6,2321.6,546,2321.7L546,2321.7z M557.4,2320.1c0.3,0,0.7,0,1,0.1l-0.2,1.9
		c-0.3-0.1-0.6-0.1-0.9-0.1c-0.8,0-1.5,0.3-2,0.8c-0.5,0.6-0.8,1.3-0.8,2.1v5.1h-2.1v-9.7h1.6l0.3,1.7h0.1c0.3-0.6,0.7-1,1.3-1.4
		C556.3,2320.3,556.8,2320.1,557.4,2320.1z M565.2,2320.1c0.3,0,0.7,0,1,0.1l-0.2,1.9c-0.3-0.1-0.6-0.1-0.9-0.1
		c-0.8,0-1.5,0.3-2,0.8c-0.5,0.6-0.8,1.3-0.8,2.1v5.1h-2.1v-9.7h1.6l0.3,1.7h0.1c0.3-0.6,0.7-1,1.3-1.4
		C564,2320.3,564.6,2320.1,565.2,2320.1L565.2,2320.1z M570.1,2330H568v-9.7h2.1V2330z M567.9,2319.1v-0.2c0.3-0.4,0.7-0.9,1-1.4
		c0.4-0.5,0.6-0.9,0.8-1.3h2.4v0.2c-0.4,0.5-0.9,0.9-1.4,1.4c-0.5,0.5-1,0.9-1.5,1.3H567.9z M581.6,2330h-2.1v-6
		c0-0.6-0.1-1.2-0.5-1.7c-0.4-0.4-0.9-0.6-1.4-0.6c-0.7-0.1-1.4,0.2-1.9,0.8c-0.5,0.8-0.7,1.7-0.6,2.6v4.8h-2.1v-9.7h1.6l0.3,1.3
		h0.1c0.3-0.5,0.7-0.8,1.2-1.1c0.6-0.3,1.2-0.4,1.8-0.4c2.3,0,3.5,1.2,3.5,3.6V2330z"/>
	<path id="Trazado_17169" class="st0" d="M925.3,2085.2h0.9c0.7,0,1.3-0.1,1.9-0.5c0.4-0.4,0.7-0.9,0.6-1.4c0-0.5-0.2-1-0.5-1.4
		c-0.5-0.3-1.1-0.5-1.6-0.5h-1.2V2085.2z M931.5,2083.2c0.1,1.2-0.4,2.4-1.3,3.2c-1.1,0.8-2.4,1.2-3.7,1.1h-1.2v4.6h-2.7v-12.9h4.1
		c1.3-0.1,2.5,0.3,3.6,1C931.1,2080.9,931.6,2082,931.5,2083.2L931.5,2083.2z M940.9,2092l-0.9-3.1h-4.7l-0.9,3.1h-2.9l4.5-12.9h3.3
		l4.6,12.9H940.9z M939.3,2086.7c-0.9-2.8-1.3-4.3-1.5-4.7c-0.1-0.4-0.2-0.6-0.2-0.9c-0.2,0.8-0.7,2.6-1.7,5.6L939.3,2086.7z
		 M948.2,2084.9h0.9c0.7,0,1.3-0.1,1.9-0.4c0.4-0.3,0.7-0.8,0.6-1.4c0-0.5-0.2-1-0.6-1.3c-0.6-0.3-1.3-0.4-1.9-0.4h-0.8V2084.9z
		 M948.2,2087.1v4.9h-2.7v-12.9h3.7c1.4-0.1,2.7,0.2,3.9,1c0.9,0.7,1.3,1.8,1.3,2.9c0,0.7-0.2,1.4-0.6,2c-0.5,0.6-1.1,1.1-1.8,1.4
		c1.9,2.9,3.2,4.8,3.8,5.6h-3l-3.1-4.9L948.2,2087.1z M962.3,2092h-2.7v-10.6h-3.5v-2.3h9.7v2.3h-3.5V2092z M975.1,2092h-7.4v-12.9
		h7.4v2.2h-4.7v2.8h4.4v2.2h-4.4v3.3h4.7L975.1,2092z M985.4,2088.4c0,1.1-0.4,2.1-1.3,2.7c-1,0.7-2.2,1.1-3.5,1
		c-1.3,0-2.5-0.2-3.6-0.8v-2.5c0.7,0.3,1.4,0.6,2.2,0.8c0.5,0.1,1.1,0.2,1.6,0.2c0.5,0,1-0.1,1.4-0.3c0.3-0.2,0.5-0.6,0.5-1
		c0-0.2-0.1-0.5-0.2-0.7c-0.2-0.2-0.4-0.4-0.6-0.6c-0.5-0.3-1.1-0.6-1.7-0.9c-0.6-0.3-1.2-0.6-1.8-1.1c-0.4-0.3-0.7-0.7-0.9-1.2
		c-0.2-0.5-0.4-1-0.4-1.6c0-1,0.4-2,1.2-2.7c0.9-0.7,2-1,3.2-1c0.6,0,1.3,0.1,1.9,0.2c0.6,0.2,1.3,0.4,1.9,0.7l-0.9,2.1
		c-0.6-0.2-1.1-0.4-1.7-0.6c-0.4-0.1-0.9-0.2-1.3-0.2c-0.4,0-0.8,0.1-1.2,0.4c-0.3,0.2-0.4,0.6-0.4,0.9c0,0.2,0.1,0.4,0.2,0.6
		c0.1,0.2,0.3,0.4,0.5,0.5c0.6,0.3,1.1,0.6,1.7,0.9c0.9,0.4,1.8,1,2.5,1.7C985.2,2086.9,985.4,2087.7,985.4,2088.4z"/>
	<path id="Trazado_17170" class="st0" d="M1099.1,2092l-3.1-10.1h-0.1c0.1,2.1,0.2,3.4,0.2,4.1v6h-2.4v-12.9h3.7l3,9.8h0.1l3.2-9.8
		h3.7v12.8h-2.5v-6.1c0-0.3,0-0.6,0-1c0-0.4,0-1.4,0.1-3h-0.1l-3.3,10.1H1099.1z M1118.5,2092l-0.9-3.1h-4.7l-0.9,3.1h-2.9l4.5-12.9
		h3.3l4.6,12.9H1118.5z M1116.9,2086.7c-0.9-2.8-1.3-4.3-1.5-4.7s-0.2-0.6-0.2-0.9c-0.2,0.8-0.7,2.6-1.7,5.6L1116.9,2086.7z
		 M1126.7,2092h-2.7v-10.6h-3.5v-2.3h9.7v2.3h-3.5V2092z M1139.6,2092h-7.4v-12.9h7.4v2.2h-4.7v2.8h4.3v2.2h-4.3v3.3h4.7
		L1139.6,2092z M1145,2084.9h0.9c0.7,0,1.3-0.1,1.9-0.4c0.4-0.3,0.7-0.8,0.6-1.4c0-0.5-0.2-1-0.6-1.3c-0.6-0.3-1.3-0.4-1.9-0.4h-0.8
		V2084.9z M1145,2087.1v4.9h-2.7v-12.9h3.7c1.4-0.1,2.7,0.2,3.9,1c0.9,0.7,1.3,1.8,1.3,2.9c0,0.7-0.2,1.4-0.6,2
		c-0.5,0.6-1.1,1.1-1.8,1.4c1.9,2.9,3.2,4.8,3.8,5.6h-3l-3.1-4.9H1145z M1154.1,2092v-12.9h2.7v12.9H1154.1z M1168,2092l-0.9-3.1
		h-4.7l-0.9,3.1h-2.9l4.5-12.9h3.3l4.6,12.9H1168z M1166.4,2086.7c-0.9-2.8-1.3-4.3-1.5-4.7s-0.2-0.6-0.2-0.9
		c-0.2,0.8-0.7,2.6-1.7,5.6L1166.4,2086.7z M1172.5,2092v-12.9h2.7v10.6h5.2v2.2H1172.5z"/>
	<path id="Trazado_17171" class="st0" d="M1300.3,2085.2h0.9c0.7,0,1.3-0.1,1.9-0.5c0.4-0.4,0.7-0.9,0.6-1.4c0-0.5-0.2-1-0.5-1.4
		c-0.5-0.3-1.1-0.5-1.6-0.5h-1.2V2085.2z M1306.5,2083.2c0.1,1.2-0.4,2.4-1.3,3.2c-1.1,0.8-2.4,1.2-3.7,1.1h-1.2v4.6h-2.7v-12.9h4.1
		c1.3-0.1,2.5,0.3,3.6,1C1306.1,2080.9,1306.6,2082,1306.5,2083.2L1306.5,2083.2z M1315.9,2092l-0.9-3.1h-4.7l-0.9,3.1h-2.9
		l4.5-12.9h3.3l4.6,12.9H1315.9z M1314.3,2086.7c-0.9-2.8-1.3-4.3-1.5-4.7s-0.2-0.6-0.2-0.9c-0.2,0.8-0.7,2.6-1.7,5.6L1314.3,2086.7
		z M1323.2,2084.9h0.9c0.7,0,1.3-0.1,1.9-0.4c0.4-0.3,0.7-0.8,0.6-1.4c0-0.5-0.2-1-0.6-1.3c-0.6-0.3-1.3-0.4-1.9-0.4h-0.8V2084.9z
		 M1323.2,2087.1v4.9h-2.7v-12.9h3.7c1.4-0.1,2.7,0.2,3.9,1c0.9,0.7,1.3,1.8,1.3,2.9c0,0.7-0.2,1.4-0.6,2c-0.5,0.6-1.1,1.1-1.8,1.4
		c1.9,2.9,3.2,4.8,3.8,5.6h-3l-3.1-4.9L1323.2,2087.1z M1337.3,2092h-2.7v-10.6h-3.5v-2.3h9.7v2.3h-3.5V2092z M1350.1,2092h-7.4
		v-12.9h7.4v2.2h-4.7v2.8h4.4v2.2h-4.4v3.3h4.7L1350.1,2092z M1360.4,2088.4c0,1.1-0.4,2.1-1.3,2.7c-1,0.7-2.2,1.1-3.5,1
		c-1.3,0-2.5-0.2-3.6-0.8v-2.5c0.7,0.3,1.4,0.6,2.2,0.8c0.5,0.1,1.1,0.2,1.6,0.2c0.5,0,1-0.1,1.4-0.3c0.3-0.2,0.5-0.6,0.5-1
		c0-0.2-0.1-0.5-0.2-0.7c-0.2-0.2-0.4-0.4-0.6-0.6c-0.5-0.3-1.1-0.6-1.7-0.9c-0.6-0.3-1.2-0.6-1.8-1.1c-0.4-0.3-0.7-0.7-0.9-1.2
		c-0.2-0.5-0.4-1-0.4-1.6c0-1,0.4-2,1.2-2.7c0.9-0.7,2-1,3.2-1c0.6,0,1.3,0.1,1.9,0.2c0.6,0.2,1.3,0.4,1.9,0.7l-0.9,2.1
		c-0.6-0.2-1.1-0.4-1.7-0.6c-0.4-0.1-0.9-0.2-1.3-0.2c-0.4,0-0.8,0.1-1.2,0.4c-0.3,0.2-0.4,0.6-0.4,0.9c0,0.2,0.1,0.4,0.2,0.6
		c0.1,0.2,0.3,0.4,0.5,0.5c0.6,0.3,1.1,0.6,1.7,0.9c0.9,0.4,1.8,1,2.5,1.7C1360.2,2086.9,1360.4,2087.7,1360.4,2088.4z"/>
	<path id="Trazado_17172" class="st6" d="M955.7,2148h-2.1v-8.3c0-1,0-1.8,0.1-2.4c-0.1,0.1-0.3,0.3-0.5,0.5c-0.2,0.2-0.9,0.7-2,1.6
		l-1-1.3l3.8-3h1.7L955.7,2148z"/>
	<path id="Trazado_17173" class="st6" d="M1078,2148h-7.3v-12.9h7.3v1.8h-5.2v3.5h4.8v1.8h-4.8v4h5.2V2148z M1087.1,2145.2
		c0,0.9-0.3,1.7-1,2.2c-0.9,0.6-1.9,0.8-3,0.8c-1.1,0-2.1-0.2-3.1-0.6v-1.8c1,0.5,2.1,0.8,3.2,0.8c1.3,0,1.9-0.4,1.9-1.2
		c0-0.2-0.1-0.4-0.2-0.6c-0.2-0.2-0.4-0.4-0.7-0.5c-0.4-0.2-0.9-0.4-1.3-0.6c-0.8-0.3-1.6-0.7-2.3-1.3c-0.4-0.5-0.6-1.1-0.6-1.7
		c0-0.8,0.4-1.5,1-1.9c0.8-0.5,1.8-0.7,2.7-0.7c1.1,0,2.2,0.2,3.2,0.7l-0.7,1.6c-0.8-0.4-1.7-0.6-2.6-0.7c-1.1,0-1.6,0.3-1.6,0.9
		c0,0.3,0.2,0.6,0.4,0.8c0.6,0.4,1.2,0.6,1.9,0.9c0.6,0.2,1.2,0.5,1.7,0.9c0.3,0.2,0.6,0.5,0.8,0.9
		C1087,2144.4,1087.1,2144.8,1087.1,2145.2z M1093.2,2148.2c-1.3,0.1-2.5-0.4-3.4-1.3c-0.8-1-1.2-2.4-1.1-3.7
		c-0.1-1.4,0.3-2.7,1.2-3.8c0.9-0.9,2.2-1.4,3.5-1.3c1,0,1.9,0.2,2.8,0.6l-0.6,1.7c-0.7-0.3-1.4-0.5-2.2-0.5c-1.7,0-2.5,1.1-2.5,3.3
		c-0.1,0.9,0.2,1.7,0.6,2.5c0.4,0.6,1.1,0.9,1.8,0.8c0.9,0,1.8-0.2,2.6-0.7v1.8c-0.4,0.2-0.8,0.4-1.2,0.5
		C1094.2,2148.1,1093.7,2148.2,1093.2,2148.2L1093.2,2148.2z M1106.8,2143.1c0.1,1.3-0.4,2.7-1.2,3.7c-0.9,0.9-2.1,1.4-3.4,1.3
		c-0.8,0-1.7-0.2-2.4-0.6c-0.7-0.4-1.3-1-1.6-1.8c-0.4-0.8-0.6-1.8-0.6-2.7c-0.1-1.3,0.4-2.7,1.2-3.7c0.9-0.9,2.1-1.4,3.4-1.3
		c1.3-0.1,2.5,0.4,3.3,1.4C1106.5,2140.5,1106.9,2141.8,1106.8,2143.1L1106.8,2143.1z M1099.7,2143.1c0,2.2,0.8,3.4,2.5,3.4
		c1.6,0,2.5-1.1,2.5-3.4c0-2.2-0.8-3.3-2.5-3.3c-0.7-0.1-1.5,0.3-1.9,0.9C1099.9,2141.4,1099.7,2142.3,1099.7,2143.1L1099.7,2143.1z
		 M1114.1,2138.1c0.3,0,0.7,0,1,0.1l-0.2,1.9c-0.3-0.1-0.6-0.1-0.9-0.1c-0.8,0-1.5,0.3-2,0.8c-0.5,0.6-0.8,1.3-0.8,2.1v5.1h-2.1
		v-9.7h1.6l0.3,1.7h0.1c0.3-0.6,0.7-1,1.3-1.4C1112.9,2138.3,1113.5,2138.1,1114.1,2138.1z M1119,2148h-2.1v-9.7h2.1L1119,2148z
		 M1116.8,2135.7c0-0.3,0.1-0.6,0.3-0.9c0.2-0.2,0.5-0.3,0.9-0.3c0.3,0,0.6,0.1,0.8,0.3c0.2,0.2,0.3,0.5,0.3,0.9
		c0,0.3-0.1,0.6-0.3,0.8c-0.2,0.2-0.5,0.3-0.8,0.3c-0.3,0-0.6-0.1-0.9-0.3C1116.9,2136.3,1116.8,2136,1116.8,2135.7z M1128.1,2148
		l-0.4-1.4h-0.1c-0.4,0.5-0.9,0.9-1.4,1.2c-0.6,0.2-1.2,0.3-1.8,0.3c-0.8,0-1.6-0.2-2.2-0.8c-0.6-0.6-0.9-1.4-0.8-2.2
		c-0.1-0.9,0.4-1.8,1.1-2.3c1-0.6,2.2-0.9,3.4-0.8l1.7-0.1v-0.5c0-0.5-0.1-1-0.4-1.4c-0.4-0.3-0.9-0.5-1.3-0.5c-0.5,0-1,0.1-1.4,0.2
		c-0.5,0.1-0.9,0.3-1.3,0.5l-0.7-1.5c0.5-0.3,1.1-0.5,1.7-0.6c0.6-0.1,1.2-0.2,1.8-0.2c1-0.1,2,0.2,2.8,0.8c0.7,0.7,1,1.6,0.9,2.5
		v6.6H1128.1z M1125,2146.6c0.7,0,1.3-0.2,1.8-0.6c0.5-0.5,0.7-1.1,0.7-1.8v-0.8l-1.2,0.1c-0.7,0-1.5,0.1-2.1,0.5
		c-0.4,0.3-0.7,0.8-0.7,1.3c0,0.4,0.1,0.7,0.4,1C1124.1,2146.5,1124.6,2146.6,1125,2146.6z"/>
	<path id="Trazado_17174" class="st6" d="M1328.7,2148h-2.1v-8.3c0-1,0-1.8,0.1-2.4c-0.1,0.1-0.3,0.3-0.5,0.5
		c-0.2,0.2-0.9,0.7-2,1.6l-1-1.3l3.8-3h1.7L1328.7,2148z"/>
	<path id="Trazado_17175" class="st6" d="M529.7,2388l-1.3-3.6h-4.9l-1.3,3.6H520l4.8-12.9h2.3l4.8,12.9H529.7z M527.8,2382.6
		l-1.2-3.5c-0.1-0.2-0.2-0.6-0.4-1.1c-0.2-0.5-0.3-0.9-0.3-1.1c-0.2,0.8-0.4,1.6-0.7,2.4l-1.2,3.3H527.8z M539.9,2385.2
		c0,0.9-0.3,1.7-1,2.2c-0.9,0.6-1.9,0.8-3,0.8c-1.1,0-2.1-0.2-3.1-0.6v-1.8c1,0.5,2.1,0.8,3.2,0.8c1.3,0,1.9-0.4,1.9-1.2
		c0-0.2-0.1-0.4-0.2-0.6c-0.2-0.2-0.4-0.4-0.7-0.5c-0.4-0.2-0.9-0.4-1.3-0.6c-0.8-0.3-1.6-0.7-2.3-1.3c-0.4-0.5-0.6-1.1-0.6-1.7
		c0-0.8,0.4-1.5,1-1.9c0.8-0.5,1.8-0.7,2.7-0.7c1.1,0,2.2,0.2,3.2,0.7l-0.7,1.6c-0.8-0.4-1.7-0.6-2.6-0.7c-1.1,0-1.6,0.3-1.6,0.9
		c0,0.3,0.2,0.6,0.4,0.8c0.6,0.4,1.2,0.6,1.9,0.9c0.6,0.2,1.2,0.5,1.7,0.9c0.3,0.2,0.6,0.5,0.8,0.9
		C539.8,2384.4,539.9,2384.8,539.9,2385.2z M546.4,2388.2c-1.3,0.1-2.6-0.4-3.5-1.3c-0.9-1-1.4-2.3-1.3-3.6
		c-0.1-1.4,0.3-2.7,1.2-3.7c0.8-0.9,2-1.4,3.3-1.4c1.1-0.1,2.2,0.4,3,1.2c0.8,0.9,1.2,2,1.1,3.2v1.1h-6.5c0,0.8,0.2,1.6,0.8,2.2
		c0.5,0.5,1.3,0.8,2,0.8c0.5,0,1.1-0.1,1.6-0.2c0.6-0.1,1.1-0.3,1.6-0.5v1.7c-0.5,0.2-1,0.4-1.5,0.5
		C547.6,2388.1,547,2388.2,546.4,2388.2L546.4,2388.2z M546,2379.7c-0.6,0-1.2,0.2-1.6,0.6c-0.4,0.5-0.7,1.2-0.7,1.8h4.4
		c0-0.7-0.2-1.3-0.6-1.8C547.2,2379.9,546.6,2379.6,546,2379.7L546,2379.7z M557.4,2378.1c0.3,0,0.7,0,1,0.1l-0.2,1.9
		c-0.3-0.1-0.6-0.1-0.9-0.1c-0.8,0-1.5,0.3-2,0.8c-0.5,0.6-0.8,1.3-0.8,2.1v5.1h-2.1v-9.7h1.6l0.3,1.7h0.1c0.3-0.6,0.7-1,1.3-1.4
		C556.3,2378.3,556.8,2378.1,557.4,2378.1z M565.2,2378.1c0.3,0,0.7,0,1,0.1l-0.2,1.9c-0.3-0.1-0.6-0.1-0.9-0.1
		c-0.8,0-1.5,0.3-2,0.8c-0.5,0.6-0.8,1.3-0.8,2.1v5.1h-2.1v-9.7h1.6l0.3,1.7h0.1c0.3-0.6,0.7-1,1.3-1.4
		C564,2378.3,564.6,2378.1,565.2,2378.1L565.2,2378.1z M570.1,2388H568v-9.7h2.1V2388z M567.9,2377.1v-0.2c0.3-0.4,0.7-0.9,1-1.4
		c0.4-0.5,0.6-0.9,0.8-1.3h2.4v0.2c-0.4,0.5-0.9,0.9-1.4,1.4c-0.5,0.5-1,0.9-1.5,1.3H567.9z M581.6,2388h-2.1v-6
		c0-0.6-0.1-1.2-0.5-1.7c-0.4-0.4-0.9-0.6-1.4-0.6c-0.7-0.1-1.4,0.2-1.9,0.8c-0.5,0.8-0.7,1.7-0.6,2.6v4.8h-2.1v-9.7h1.6l0.3,1.3
		h0.1c0.3-0.5,0.7-0.8,1.2-1.1c0.6-0.3,1.2-0.4,1.8-0.4c2.3,0,3.5,1.2,3.5,3.6V2388z"/>
	<path id="Trazado_17176" class="st6" d="M955.7,2208h-2.1v-8.3c0-1,0-1.8,0.1-2.4c-0.1,0.1-0.3,0.3-0.5,0.5c-0.2,0.2-0.9,0.7-2,1.6
		l-1-1.3l3.8-3h1.7L955.7,2208z"/>
	<path id="Trazado_17177" class="st6" d="M958.8,2268.2h-1.7v2.8h-2v-2.8h-5.9v-1.6l5.9-8.5h2v8.4h1.7V2268.2z M955.1,2266.5v-3.2
		c0-1.1,0-2.1,0.1-2.8h-0.1c-0.2,0.5-0.5,1-0.8,1.4l-3.2,4.6L955.1,2266.5z"/>
	<path id="Trazado_17178" class="st6" d="M955.7,2330h-2.1v-8.3c0-1,0-1.8,0.1-2.4c-0.1,0.1-0.3,0.3-0.5,0.5c-0.2,0.2-0.9,0.7-2,1.6
		l-1-1.3l3.8-3h1.7L955.7,2330z"/>
	<path id="Trazado_17179" class="st6" d="M955.7,2390h-2.1v-8.3c0-1,0-1.8,0.1-2.4c-0.1,0.1-0.3,0.3-0.5,0.5c-0.2,0.2-0.9,0.7-2,1.6
		l-1-1.3l3.8-3h1.7L955.7,2390z"/>
	<path id="Trazado_17180" class="st6" d="M955.7,2451h-2.1v-8.3c0-1,0-1.8,0.1-2.4c-0.1,0.1-0.3,0.3-0.5,0.5c-0.2,0.2-0.9,0.7-2,1.6
		l-1-1.3l3.8-3h1.7L955.7,2451z"/>
	<path id="Trazado_17181" class="st6" d="M955.7,2511h-2.1v-8.3c0-1,0-1.8,0.1-2.4c-0.1,0.1-0.3,0.3-0.5,0.5c-0.2,0.2-0.9,0.7-2,1.6
		l-1-1.3l3.8-3h1.7L955.7,2511z"/>
	<path id="Trazado_17182" class="st6" d="M1078.7,2212l-1.3-3.6h-4.9l-1.3,3.6h-2.2l4.8-12.9h2.3l4.8,12.9H1078.7z M1076.8,2206.6
		l-1.2-3.5c-0.1-0.2-0.2-0.6-0.4-1.1c-0.2-0.5-0.3-0.9-0.3-1.1c-0.2,0.8-0.4,1.6-0.7,2.4l-1.2,3.3H1076.8z M1087.3,2202.1
		c0.3,0,0.7,0,1,0.1l-0.2,1.9c-0.3-0.1-0.6-0.1-0.9-0.1c-0.8,0-1.5,0.3-2,0.8c-0.5,0.6-0.8,1.3-0.8,2.1v5.1h-2.1v-9.7h1.6l0.3,1.7
		h0.1c0.3-0.6,0.7-1,1.3-1.4C1086.1,2202.3,1086.7,2202.1,1087.3,2202.1z M1094,2212.2c-1.3,0.1-2.6-0.4-3.5-1.3
		c-0.9-1-1.4-2.3-1.3-3.6c-0.1-1.4,0.3-2.7,1.2-3.7c0.8-0.9,2-1.4,3.3-1.4c1.1-0.1,2.2,0.4,3,1.2c0.8,0.9,1.2,2,1.1,3.2v1.1h-6.5
		c0,0.8,0.2,1.6,0.8,2.2c0.5,0.5,1.3,0.8,2,0.8c0.5,0,1.1-0.1,1.6-0.2c0.6-0.1,1.1-0.3,1.6-0.5v1.7c-0.5,0.2-1,0.4-1.5,0.5
		C1095.2,2212.1,1094.6,2212.2,1094,2212.2L1094,2212.2z M1093.6,2203.7c-0.6,0-1.2,0.2-1.6,0.6c-0.4,0.5-0.7,1.2-0.7,1.8h4.4
		c0-0.7-0.2-1.3-0.6-1.8C1094.8,2203.9,1094.2,2203.6,1093.6,2203.7L1093.6,2203.7z M1108.7,2212h-2.1v-6c0-0.6-0.1-1.2-0.5-1.7
		c-0.4-0.4-0.9-0.6-1.4-0.6c-0.7-0.1-1.4,0.2-1.9,0.8c-0.5,0.8-0.7,1.7-0.6,2.6v4.8h-2.1v-9.7h1.6l0.3,1.3h0.1
		c0.3-0.5,0.7-0.8,1.2-1.1c0.6-0.3,1.2-0.4,1.8-0.4c2.3,0,3.5,1.2,3.5,3.6V2212z M1117.7,2212l-0.4-1.4h-0.1
		c-0.4,0.5-0.9,0.9-1.4,1.2c-0.6,0.2-1.2,0.3-1.8,0.3c-0.8,0-1.6-0.2-2.2-0.8c-0.6-0.6-0.9-1.4-0.8-2.2c-0.1-0.9,0.4-1.8,1.1-2.3
		c1-0.6,2.2-0.9,3.4-0.8l1.7-0.1v-0.5c0-0.5-0.1-1-0.4-1.4c-0.4-0.3-0.9-0.5-1.3-0.5c-0.5,0-1,0.1-1.4,0.2c-0.5,0.1-0.9,0.3-1.3,0.5
		l-0.7-1.5c0.5-0.3,1.1-0.5,1.7-0.6c0.6-0.1,1.2-0.2,1.8-0.2c1-0.1,2,0.2,2.8,0.8c0.7,0.7,1,1.6,0.9,2.5v6.6H1117.7z M1114.6,2210.6
		c0.7,0,1.3-0.2,1.8-0.6c0.5-0.5,0.7-1.1,0.7-1.8v-0.8l-1.2,0.1c-0.7,0-1.5,0.1-2.1,0.5c-0.4,0.3-0.7,0.8-0.7,1.3
		c0,0.4,0.1,0.7,0.4,1C1113.8,2210.5,1114.2,2210.6,1114.6,2210.6z"/>
	<path id="Trazado_17183" class="st6" d="M1075.1,2268h-2.1v-11h-3.8v-1.8h9.7v1.8h-3.8V2268z M1082.7,2268h-2.1v-9.7h2.1
		L1082.7,2268z M1080.5,2255.7c0-0.3,0.1-0.6,0.3-0.9c0.2-0.2,0.5-0.3,0.9-0.3c0.3,0,0.6,0.1,0.8,0.3c0.2,0.2,0.3,0.5,0.3,0.9
		c0,0.3-0.1,0.6-0.3,0.8c-0.2,0.2-0.5,0.3-0.8,0.3c-0.3,0-0.6-0.1-0.9-0.3C1080.6,2256.3,1080.5,2256,1080.5,2255.7z M1089.9,2268.2
		c-1.3,0.1-2.6-0.4-3.5-1.3c-0.9-1-1.4-2.3-1.3-3.6c-0.1-1.4,0.3-2.7,1.2-3.7c0.8-0.9,2-1.4,3.3-1.4c1.1-0.1,2.2,0.4,3,1.2
		c0.8,0.9,1.2,2,1.1,3.2v1.1h-6.5c0,0.8,0.2,1.6,0.8,2.2c0.5,0.5,1.3,0.8,2,0.8c0.5,0,1.1-0.1,1.6-0.2c0.6-0.1,1.1-0.3,1.6-0.5v1.7
		c-0.5,0.2-1,0.4-1.5,0.5C1091.1,2268.1,1090.5,2268.2,1089.9,2268.2L1089.9,2268.2z M1089.5,2259.7c-0.6,0-1.2,0.2-1.6,0.6
		c-0.4,0.5-0.7,1.2-0.7,1.8h4.4c0-0.7-0.2-1.3-0.6-1.8C1090.7,2259.9,1090.1,2259.6,1089.5,2259.7L1089.5,2259.7z M1101,2258.1
		c0.3,0,0.7,0,1,0.1l-0.2,1.9c-0.3-0.1-0.6-0.1-0.9-0.1c-0.8,0-1.5,0.3-2,0.8c-0.5,0.6-0.8,1.3-0.8,2.1v5.1h-2.1v-9.7h1.6l0.3,1.7
		h0.1c0.3-0.6,0.7-1,1.3-1.4C1099.8,2258.3,1100.4,2258.1,1101,2258.1z M1108.7,2258.1c0.3,0,0.7,0,1,0.1l-0.2,1.9
		c-0.3-0.1-0.6-0.1-0.9-0.1c-0.8,0-1.5,0.3-2,0.8c-0.5,0.6-0.8,1.3-0.8,2.1v5.1h-2.1v-9.7h1.6l0.3,1.7h0.1c0.3-0.6,0.7-1,1.3-1.4
		C1107.6,2258.3,1108.1,2258.1,1108.7,2258.1z M1117.3,2268l-0.4-1.4h-0.1c-0.4,0.5-0.9,0.9-1.4,1.2c-0.6,0.2-1.2,0.3-1.8,0.3
		c-0.8,0-1.6-0.2-2.2-0.8c-0.6-0.6-0.9-1.4-0.8-2.2c-0.1-0.9,0.4-1.8,1.1-2.3c1-0.6,2.2-0.9,3.4-0.8l1.7-0.1v-0.5
		c0-0.5-0.1-1-0.4-1.4c-0.4-0.3-0.9-0.5-1.3-0.5c-0.5,0-1,0.1-1.4,0.2c-0.5,0.1-0.9,0.3-1.3,0.5l-0.7-1.5c0.5-0.3,1.1-0.5,1.7-0.6
		c0.6-0.1,1.2-0.2,1.8-0.2c1-0.1,2,0.2,2.8,0.8c0.7,0.7,1,1.6,0.9,2.5v6.6H1117.3z M1114.2,2266.6c0.7,0,1.3-0.2,1.8-0.6
		c0.5-0.5,0.7-1.1,0.7-1.8v-0.8l-1.2,0.1c-0.7,0-1.5,0.1-2.1,0.5c-0.4,0.3-0.7,0.8-0.7,1.3c0,0.4,0.1,0.7,0.4,1
		C1113.4,2266.5,1113.8,2266.6,1114.2,2266.6z"/>
	<path id="Trazado_17184" class="st6" d="M1078.7,2328l-1.3-3.6h-4.9l-1.3,3.6h-2.2l4.8-12.9h2.3l4.8,12.9H1078.7z M1076.8,2322.6
		l-1.2-3.5c-0.1-0.2-0.2-0.6-0.4-1.1c-0.2-0.5-0.3-0.9-0.3-1.1c-0.2,0.8-0.4,1.6-0.7,2.4l-1.2,3.3H1076.8z M1087.3,2318.1
		c0.3,0,0.7,0,1,0.1l-0.2,1.9c-0.3-0.1-0.6-0.1-0.9-0.1c-0.8,0-1.5,0.3-2,0.8c-0.5,0.6-0.8,1.3-0.8,2.1v5.1h-2.1v-9.7h1.6l0.3,1.7
		h0.1c0.3-0.6,0.7-1,1.3-1.4C1086.1,2318.3,1086.7,2318.1,1087.3,2318.1z M1094,2328.2c-1.3,0.1-2.6-0.4-3.5-1.3
		c-0.9-1-1.4-2.3-1.3-3.6c-0.1-1.4,0.3-2.7,1.2-3.7c0.8-0.9,2-1.4,3.3-1.4c1.1-0.1,2.2,0.4,3,1.2c0.8,0.9,1.2,2,1.1,3.2v1.1h-6.5
		c0,0.8,0.2,1.6,0.8,2.2c0.5,0.5,1.3,0.8,2,0.8c0.5,0,1.1-0.1,1.6-0.2c0.6-0.1,1.1-0.3,1.6-0.5v1.7c-0.5,0.2-1,0.4-1.5,0.5
		C1095.2,2328.1,1094.6,2328.2,1094,2328.2L1094,2328.2z M1093.6,2319.7c-0.6,0-1.2,0.2-1.6,0.6c-0.4,0.5-0.7,1.2-0.7,1.8h4.4
		c0-0.7-0.2-1.3-0.6-1.8C1094.8,2319.9,1094.2,2319.6,1093.6,2319.7L1093.6,2319.7z M1108.7,2328h-2.1v-6c0-0.6-0.1-1.2-0.5-1.7
		c-0.4-0.4-0.9-0.6-1.4-0.6c-0.7-0.1-1.4,0.2-1.9,0.8c-0.5,0.8-0.7,1.7-0.6,2.6v4.8h-2.1v-9.7h1.6l0.3,1.3h0.1
		c0.3-0.5,0.7-0.8,1.2-1.1c0.6-0.3,1.2-0.4,1.8-0.4c2.3,0,3.5,1.2,3.5,3.6V2328z M1117.7,2328l-0.4-1.4h-0.1
		c-0.4,0.5-0.9,0.9-1.4,1.2c-0.6,0.2-1.2,0.3-1.8,0.3c-0.8,0-1.6-0.2-2.2-0.8c-0.6-0.6-0.9-1.4-0.8-2.2c-0.1-0.9,0.4-1.8,1.1-2.3
		c1-0.6,2.2-0.9,3.4-0.8l1.7-0.1v-0.5c0-0.5-0.1-1-0.4-1.4c-0.4-0.3-0.9-0.5-1.3-0.5c-0.5,0-1,0.1-1.4,0.2c-0.5,0.1-0.9,0.3-1.3,0.5
		l-0.7-1.5c0.5-0.3,1.1-0.5,1.7-0.6c0.6-0.1,1.2-0.2,1.8-0.2c1-0.1,2,0.2,2.8,0.8c0.7,0.7,1,1.6,0.9,2.5v6.6H1117.7z M1114.6,2326.6
		c0.7,0,1.3-0.2,1.8-0.6c0.5-0.5,0.7-1.1,0.7-1.8v-0.8l-1.2,0.1c-0.7,0-1.5,0.1-2.1,0.5c-0.4,0.3-0.7,0.8-0.7,1.3
		c0,0.4,0.1,0.7,0.4,1C1113.8,2326.5,1114.2,2326.6,1114.6,2326.6z"/>
	<path id="Trazado_17185" class="st6" d="M1078,2390h-7.3v-12.9h7.3v1.8h-5.2v3.5h4.8v1.8h-4.8v4h5.2V2390z M1087.1,2387.2
		c0,0.9-0.3,1.7-1,2.2c-0.9,0.6-1.9,0.8-3,0.8c-1.1,0-2.1-0.2-3.1-0.6v-1.8c1,0.5,2.1,0.8,3.2,0.8c1.3,0,1.9-0.4,1.9-1.2
		c0-0.2-0.1-0.4-0.2-0.6c-0.2-0.2-0.4-0.4-0.7-0.5c-0.4-0.2-0.9-0.4-1.3-0.6c-0.8-0.3-1.6-0.7-2.3-1.3c-0.4-0.5-0.6-1.1-0.6-1.7
		c0-0.8,0.4-1.5,1-1.9c0.8-0.5,1.8-0.7,2.7-0.7c1.1,0,2.2,0.2,3.2,0.7l-0.7,1.6c-0.8-0.4-1.7-0.6-2.6-0.7c-1.1,0-1.6,0.3-1.6,0.9
		c0,0.3,0.2,0.6,0.4,0.8c0.6,0.4,1.2,0.6,1.9,0.9c0.6,0.2,1.2,0.5,1.7,0.9c0.3,0.2,0.6,0.5,0.8,0.9
		C1087,2386.4,1087.1,2386.8,1087.1,2387.2z M1093.2,2390.2c-1.3,0.1-2.5-0.4-3.4-1.3c-0.8-1-1.2-2.4-1.1-3.7
		c-0.1-1.4,0.3-2.7,1.2-3.8c0.9-0.9,2.2-1.4,3.5-1.3c1,0,1.9,0.2,2.8,0.6l-0.6,1.7c-0.7-0.3-1.4-0.5-2.2-0.5c-1.7,0-2.5,1.1-2.5,3.3
		c-0.1,0.9,0.2,1.7,0.6,2.5c0.4,0.6,1.1,0.9,1.8,0.8c0.9,0,1.8-0.2,2.6-0.7v1.8c-0.4,0.2-0.8,0.4-1.2,0.5
		C1094.2,2390.1,1093.7,2390.2,1093.2,2390.2L1093.2,2390.2z M1106.8,2385.1c0.1,1.3-0.4,2.7-1.2,3.7c-0.9,0.9-2.1,1.4-3.4,1.3
		c-0.8,0-1.7-0.2-2.4-0.6c-0.7-0.4-1.3-1-1.6-1.8c-0.4-0.8-0.6-1.8-0.6-2.7c-0.1-1.3,0.4-2.7,1.2-3.7c0.9-0.9,2.1-1.4,3.4-1.3
		c1.3-0.1,2.5,0.4,3.3,1.4C1106.5,2382.5,1106.9,2383.8,1106.8,2385.1L1106.8,2385.1z M1099.7,2385.1c0,2.2,0.8,3.4,2.5,3.4
		c1.6,0,2.5-1.1,2.5-3.4c0-2.2-0.8-3.3-2.5-3.3c-0.7-0.1-1.5,0.3-1.9,0.9C1099.9,2383.4,1099.7,2384.3,1099.7,2385.1L1099.7,2385.1z
		 M1114.1,2380.1c0.3,0,0.7,0,1,0.1l-0.2,1.9c-0.3-0.1-0.6-0.1-0.9-0.1c-0.8,0-1.5,0.3-2,0.8c-0.5,0.6-0.8,1.3-0.8,2.1v5.1h-2.1
		v-9.7h1.6l0.3,1.7h0.1c0.3-0.6,0.7-1,1.3-1.4C1112.9,2380.3,1113.5,2380.1,1114.1,2380.1z M1119,2390h-2.1v-9.7h2.1L1119,2390z
		 M1116.8,2377.7c0-0.3,0.1-0.6,0.3-0.9c0.2-0.2,0.5-0.3,0.9-0.3c0.3,0,0.6,0.1,0.8,0.3c0.2,0.2,0.3,0.5,0.3,0.9
		c0,0.3-0.1,0.6-0.3,0.8c-0.2,0.2-0.5,0.3-0.8,0.3c-0.3,0-0.6-0.1-0.9-0.3C1116.9,2378.3,1116.8,2378,1116.8,2377.7z M1128.1,2390
		l-0.4-1.4h-0.1c-0.4,0.5-0.9,0.9-1.4,1.2c-0.6,0.2-1.2,0.3-1.8,0.3c-0.8,0-1.6-0.2-2.2-0.8c-0.6-0.6-0.9-1.4-0.8-2.2
		c-0.1-0.9,0.4-1.8,1.1-2.3c1-0.6,2.2-0.9,3.4-0.8l1.7-0.1v-0.5c0-0.5-0.1-1-0.4-1.4c-0.4-0.3-0.9-0.5-1.3-0.5c-0.5,0-1,0.1-1.4,0.2
		c-0.5,0.1-0.9,0.3-1.3,0.5l-0.7-1.5c0.5-0.3,1.1-0.5,1.7-0.6c0.6-0.1,1.2-0.2,1.8-0.2c1-0.1,2,0.2,2.8,0.8c0.7,0.7,1,1.6,0.9,2.5
		v6.6H1128.1z M1125,2388.6c0.7,0,1.3-0.2,1.8-0.6c0.5-0.5,0.7-1.1,0.7-1.8v-0.8l-1.2,0.1c-0.7,0-1.5,0.1-2.1,0.5
		c-0.4,0.3-0.7,0.8-0.7,1.3c0,0.4,0.1,0.7,0.4,1C1124.1,2388.5,1124.6,2388.6,1125,2388.6z"/>
	<path id="Trazado_17186" class="st6" d="M1076.2,2436.8c-1.1,0-2.2,0.4-2.8,1.3c-0.7,1-1.1,2.3-1,3.5c-0.1,1.3,0.3,2.5,1,3.6
		c0.7,0.8,1.8,1.3,2.9,1.2c0.5,0,1.1-0.1,1.6-0.2c0.5-0.1,1-0.2,1.6-0.4v1.8c-1.1,0.4-2.3,0.6-3.4,0.6c-1.6,0.1-3.2-0.5-4.3-1.7
		c-1.1-1.4-1.6-3.1-1.5-4.9c0-1.2,0.2-2.4,0.7-3.5c0.5-1,1.2-1.8,2.1-2.3c1-0.6,2.1-0.8,3.3-0.8c1.3,0,2.5,0.3,3.6,0.8l-0.8,1.7
		c-0.4-0.2-0.9-0.4-1.4-0.5C1077.2,2436.8,1076.7,2436.8,1076.2,2436.8z M1088,2448l-0.4-1.4h-0.1c-0.4,0.5-0.9,0.9-1.4,1.2
		c-0.6,0.2-1.2,0.3-1.8,0.3c-0.8,0-1.6-0.2-2.2-0.8c-0.6-0.6-0.9-1.4-0.8-2.2c-0.1-0.9,0.4-1.8,1.1-2.3c1-0.6,2.2-0.9,3.4-0.8
		l1.7-0.1v-0.5c0-0.5-0.1-1-0.4-1.4c-0.4-0.3-0.9-0.5-1.3-0.5c-0.5,0-1,0.1-1.4,0.2c-0.5,0.1-0.9,0.3-1.3,0.5l-0.7-1.5
		c0.5-0.3,1.1-0.5,1.7-0.6c0.6-0.1,1.2-0.2,1.8-0.2c1-0.1,2,0.2,2.8,0.8c0.7,0.7,1,1.6,0.9,2.5v6.6H1088z M1084.9,2446.6
		c0.7,0,1.3-0.2,1.8-0.6c0.5-0.5,0.7-1.1,0.7-1.8v-0.8l-1.2,0.1c-0.7,0-1.5,0.1-2.1,0.5c-0.4,0.3-0.7,0.8-0.7,1.3
		c0,0.4,0.1,0.7,0.4,1C1084.1,2446.5,1084.5,2446.6,1084.9,2446.6z M1097.3,2438.1c0.3,0,0.7,0,1,0.1l-0.2,1.9
		c-0.3-0.1-0.6-0.1-0.9-0.1c-0.8,0-1.5,0.3-2,0.8c-0.5,0.6-0.8,1.3-0.8,2.1v5.1h-2.1v-9.7h1.6l0.3,1.7h0.1c0.3-0.6,0.7-1,1.3-1.4
		C1096.1,2438.3,1096.7,2438.1,1097.3,2438.1z M1105.1,2438.1c1.1-0.1,2.2,0.4,2.8,1.3c0.7,1.1,1.1,2.4,1,3.7c0.1,1.3-0.3,2.6-1,3.7
		c-1.3,1.6-3.7,1.8-5.3,0.4c-0.2-0.1-0.3-0.3-0.4-0.4h-0.1l-0.4,1.2h-1.5v-13.7h2.1v3.3c0,0.2,0,0.6,0,1.1c0,0.5,0,0.8-0.1,0.9h0.1
		C1102.8,2438.6,1103.9,2438,1105.1,2438.1L1105.1,2438.1z M1104.5,2439.8c-0.7-0.1-1.4,0.2-1.8,0.7c-0.4,0.7-0.6,1.6-0.6,2.5v0.1
		c-0.1,0.9,0.1,1.8,0.6,2.6c0.4,0.6,1.1,0.9,1.8,0.8c0.7,0,1.3-0.3,1.7-0.9c0.4-0.8,0.6-1.6,0.6-2.5
		C1106.8,2440.9,1106,2439.8,1104.5,2439.8L1104.5,2439.8z M1119.9,2443.1c0.1,1.4-0.4,2.7-1.2,3.7c-0.9,0.9-2.1,1.4-3.4,1.3
		c-0.8,0-1.7-0.2-2.4-0.6c-0.7-0.4-1.3-1-1.6-1.8c-0.4-0.8-0.6-1.8-0.6-2.7c-0.1-1.3,0.4-2.7,1.2-3.7c0.9-0.9,2.1-1.4,3.4-1.3
		c1.3-0.1,2.5,0.4,3.3,1.4C1119.6,2440.5,1120,2441.8,1119.9,2443.1L1119.9,2443.1z M1112.9,2443.1c0,2.2,0.8,3.4,2.5,3.4
		c1.6,0,2.5-1.1,2.5-3.4c0-2.2-0.8-3.3-2.5-3.3c-0.7-0.1-1.5,0.3-1.9,0.9C1113,2441.4,1112.8,2442.3,1112.9,2443.1L1112.9,2443.1z
		 M1114,2437.1v-0.2c0.3-0.4,0.7-0.9,1-1.4s0.6-0.9,0.8-1.3h2.4v0.2c-0.4,0.5-0.9,0.9-1.4,1.4c-0.5,0.5-1,0.9-1.5,1.3H1114z
		 M1130.8,2448h-2.1v-6c0-0.6-0.1-1.2-0.5-1.7c-0.4-0.4-0.9-0.6-1.4-0.6c-0.7-0.1-1.4,0.2-1.9,0.8c-0.5,0.8-0.7,1.7-0.6,2.6v4.8
		h-2.1v-9.7h1.6l0.3,1.3h0.1c0.3-0.5,0.7-0.8,1.2-1.1c0.6-0.3,1.2-0.4,1.8-0.4c2.3,0,3.5,1.2,3.5,3.6L1130.8,2448z"/>
	<g id="Trazado_17187" transform="translate(480 2294)">
		<path class="st4" d="M945.5,60.5H0.5v-60h945V60.5z"/>
		<path class="st3" d="M1,1v59h944V1H1 M0,0h946v61H0V0z"/>
	</g>
	<path id="Trazado_17188" class="st6" d="M527.2,2317.8c-1.1,0-2.2,0.4-2.8,1.3c-0.7,1-1.1,2.3-1,3.5c-0.1,1.3,0.3,2.5,1,3.6
		c0.7,0.8,1.8,1.3,2.9,1.2c0.5,0,1.1-0.1,1.6-0.2c0.5-0.1,1-0.2,1.6-0.4v1.8c-1.1,0.4-2.3,0.6-3.4,0.6c-1.6,0.1-3.2-0.5-4.3-1.7
		c-1.1-1.4-1.6-3.1-1.5-4.9c0-1.2,0.2-2.4,0.7-3.5c0.5-1,1.2-1.8,2.1-2.3c1-0.6,2.1-0.8,3.3-0.8c1.3,0,2.5,0.3,3.6,0.8l-0.8,1.7
		c-0.4-0.2-0.9-0.4-1.4-0.5C528.2,2317.8,527.7,2317.8,527.2,2317.8z M539,2329l-0.4-1.4h-0.1c-0.4,0.5-0.9,0.9-1.4,1.2
		c-0.6,0.2-1.2,0.3-1.8,0.3c-0.8,0-1.6-0.2-2.2-0.8c-0.6-0.6-0.9-1.4-0.8-2.2c-0.1-0.9,0.4-1.8,1.1-2.3c1-0.6,2.2-0.9,3.4-0.8
		l1.7-0.1v-0.5c0-0.5-0.1-1-0.4-1.4c-0.4-0.3-0.9-0.5-1.3-0.5c-0.5,0-1,0.1-1.4,0.2c-0.5,0.1-0.9,0.3-1.3,0.5l-0.7-1.5
		c0.5-0.3,1.1-0.5,1.7-0.6c0.6-0.1,1.2-0.2,1.8-0.2c1-0.1,2,0.2,2.8,0.8c0.7,0.7,1,1.6,0.9,2.5v6.6H539z M535.9,2327.6
		c0.7,0,1.3-0.2,1.8-0.6c0.5-0.5,0.7-1.1,0.7-1.8v-0.8l-1.2,0.1c-0.7,0-1.5,0.1-2.1,0.5c-0.4,0.3-0.7,0.8-0.7,1.3
		c0,0.4,0.1,0.7,0.4,1C535.1,2327.5,535.5,2327.6,535.9,2327.6z M549.9,2326.2c0,0.9-0.3,1.7-1,2.2c-0.9,0.6-1.9,0.8-3,0.8
		c-1.1,0-2.1-0.2-3.1-0.6v-1.8c1,0.5,2.1,0.8,3.2,0.8c1.3,0,1.9-0.4,1.9-1.2c0-0.2-0.1-0.4-0.2-0.6c-0.2-0.2-0.4-0.4-0.7-0.5
		c-0.4-0.2-0.9-0.4-1.3-0.6c-0.8-0.3-1.6-0.7-2.3-1.3c-0.4-0.5-0.6-1.1-0.6-1.7c0-0.8,0.4-1.5,1-1.9c0.8-0.5,1.8-0.7,2.7-0.7
		c1.1,0,2.2,0.2,3.2,0.7l-0.7,1.6c-0.8-0.4-1.7-0.6-2.6-0.6c-1.1,0-1.6,0.3-1.6,0.9c0,0.3,0.2,0.6,0.4,0.8c0.6,0.4,1.2,0.6,1.9,0.9
		c0.6,0.2,1.2,0.5,1.7,0.9c0.3,0.2,0.6,0.5,0.8,0.9C549.8,2325.4,549.9,2325.8,549.9,2326.2L549.9,2326.2z M556,2329.2
		c-1.3,0.1-2.5-0.4-3.4-1.3c-0.8-1-1.2-2.4-1.1-3.7c-0.1-1.4,0.3-2.7,1.2-3.8c0.9-0.9,2.2-1.4,3.5-1.3c1,0,1.9,0.2,2.8,0.6l-0.6,1.7
		c-0.7-0.3-1.4-0.5-2.2-0.5c-1.7,0-2.5,1.1-2.5,3.3c-0.1,0.9,0.2,1.7,0.6,2.5c0.4,0.6,1.1,0.9,1.8,0.8c0.9,0,1.8-0.2,2.6-0.7v1.8
		c-0.4,0.2-0.8,0.4-1.2,0.5C557,2329.1,556.5,2329.2,556,2329.2z M567.1,2329l-0.4-1.4h-0.1c-0.4,0.5-0.9,0.9-1.4,1.2
		c-0.6,0.2-1.2,0.3-1.8,0.3c-0.8,0-1.6-0.2-2.2-0.8c-0.6-0.6-0.9-1.4-0.8-2.2c-0.1-0.9,0.4-1.8,1.1-2.3c1-0.6,2.2-0.9,3.4-0.8
		l1.7-0.1v-0.5c0-0.5-0.1-1-0.4-1.4c-0.4-0.3-0.9-0.5-1.3-0.5c-0.5,0-1,0.1-1.4,0.2c-0.5,0.1-0.9,0.3-1.3,0.5l-0.7-1.5
		c0.5-0.3,1.1-0.5,1.7-0.6c0.6-0.1,1.2-0.2,1.8-0.2c1-0.1,2,0.2,2.8,0.8c0.7,0.7,1,1.6,0.9,2.5v6.6H567.1z M564,2327.6
		c0.7,0,1.3-0.2,1.8-0.6c0.5-0.5,0.7-1.1,0.7-1.8v-0.8l-1.2,0.1c-0.7,0-1.5,0.1-2.1,0.5c-0.4,0.3-0.7,0.8-0.7,1.3
		c0,0.4,0.1,0.7,0.4,1C563.2,2327.5,563.6,2327.6,564,2327.6z M576.4,2319.1c0.3,0,0.7,0,1,0.1l-0.2,1.9c-0.3-0.1-0.6-0.1-0.9-0.1
		c-0.8,0-1.5,0.3-2,0.8c-0.5,0.6-0.8,1.3-0.8,2.1v5.1h-2.1v-9.7h1.6l0.3,1.7h0.1c0.3-0.6,0.7-1,1.3-1.4
		C575.2,2319.3,575.8,2319.1,576.4,2319.1z M581.3,2329h-2.1v-9.7h2.1L581.3,2329z M579.1,2316.7c0-0.3,0.1-0.6,0.3-0.9
		c0.2-0.2,0.5-0.3,0.9-0.3c0.3,0,0.6,0.1,0.8,0.3c0.2,0.2,0.3,0.5,0.3,0.9c0,0.3-0.1,0.6-0.3,0.8c-0.2,0.2-0.5,0.3-0.8,0.3
		c-0.3,0-0.6-0.1-0.9-0.3C579.2,2317.3,579.1,2317,579.1,2316.7z M586.3,2329h-2.1v-13.7h2.1V2329z M591.3,2329h-2.1v-13.7h2.1
		L591.3,2329z M600.3,2329l-0.4-1.4h-0.1c-0.4,0.5-0.9,0.9-1.4,1.2c-0.6,0.2-1.2,0.3-1.8,0.3c-0.8,0-1.6-0.2-2.2-0.8
		c-0.6-0.6-0.9-1.4-0.8-2.2c-0.1-0.9,0.4-1.8,1.1-2.3c1-0.6,2.2-0.9,3.4-0.8l1.7-0.1v-0.5c0-0.5-0.1-1-0.4-1.4
		c-0.4-0.3-0.9-0.5-1.3-0.5c-0.5,0-1,0.1-1.4,0.2c-0.5,0.1-0.9,0.3-1.3,0.5l-0.7-1.5c0.5-0.3,1.1-0.5,1.7-0.6
		c0.6-0.1,1.2-0.2,1.8-0.2c1-0.1,2,0.2,2.8,0.8c0.7,0.7,1,1.6,0.9,2.5v6.6H600.3z M597.3,2327.6c0.7,0,1.3-0.2,1.8-0.6
		c0.5-0.5,0.7-1.1,0.7-1.8v-0.8l-1.2,0.1c-0.7,0-1.5,0.1-2.1,0.5c-0.4,0.3-0.7,0.8-0.7,1.3c0,0.4,0.1,0.7,0.4,1
		C596.4,2327.5,596.8,2327.6,597.3,2327.6z M612.7,2329.2c-1.1,0.1-2.2-0.4-2.8-1.3c-0.7-1.1-1.1-2.4-1-3.7c-0.1-1.3,0.3-2.6,1-3.7
		c0.7-0.9,1.7-1.4,2.9-1.3c1.2-0.1,2.3,0.5,2.9,1.4h0.1c-0.1-0.5-0.1-1.1-0.1-1.7v-3.5h2.1v13.7H616l-0.4-1.3h-0.1
		C614.9,2328.7,613.8,2329.2,612.7,2329.2L612.7,2329.2z M613.2,2327.5c0.7,0.1,1.4-0.2,1.9-0.7c0.4-0.7,0.7-1.5,0.6-2.3v-0.3
		c0.1-0.9-0.1-1.8-0.6-2.6c-0.5-0.5-1.2-0.8-1.9-0.8c-0.7,0-1.3,0.3-1.7,0.9c-0.4,0.8-0.6,1.6-0.6,2.5c-0.1,0.9,0.1,1.7,0.6,2.5
		C611.9,2327.2,612.5,2327.5,613.2,2327.5L613.2,2327.5z M624.8,2329.2c-1.3,0.1-2.6-0.4-3.5-1.3c-0.9-1-1.4-2.3-1.3-3.6
		c-0.1-1.4,0.3-2.7,1.2-3.7c0.8-0.9,2-1.4,3.3-1.4c1.1-0.1,2.2,0.4,3,1.2c0.8,0.9,1.2,2,1.1,3.2v1.1h-6.5c0,0.8,0.2,1.6,0.8,2.2
		c0.5,0.5,1.3,0.8,2,0.8c0.5,0,1.1-0.1,1.6-0.2c0.6-0.1,1.1-0.3,1.6-0.5v1.7c-0.5,0.2-1,0.4-1.5,0.5
		C626,2329.1,625.4,2329.2,624.8,2329.2L624.8,2329.2z M624.5,2320.7c-0.6,0-1.2,0.2-1.6,0.6c-0.4,0.5-0.7,1.2-0.7,1.8h4.4
		c0-0.7-0.2-1.3-0.6-1.8C625.6,2320.9,625,2320.6,624.5,2320.7L624.5,2320.7z M641.7,2329l-0.4-1.4h-0.1c-0.4,0.5-0.9,0.9-1.4,1.2
		c-0.6,0.2-1.2,0.3-1.8,0.3c-0.8,0-1.6-0.2-2.2-0.8c-0.6-0.6-0.9-1.4-0.8-2.2c-0.1-0.9,0.4-1.8,1.1-2.3c1-0.6,2.2-0.9,3.4-0.8
		l1.7-0.1v-0.5c0-0.5-0.1-1-0.4-1.4c-0.4-0.3-0.9-0.5-1.3-0.5c-0.5,0-1,0.1-1.4,0.2c-0.5,0.1-0.9,0.3-1.3,0.5l-0.7-1.5
		c0.5-0.3,1.1-0.5,1.7-0.6c0.6-0.1,1.2-0.2,1.8-0.2c1-0.1,2,0.2,2.8,0.8c0.7,0.7,1,1.6,0.9,2.5v6.5H641.7z M638.6,2327.6
		c0.7,0,1.3-0.2,1.8-0.6c0.5-0.5,0.7-1.1,0.7-1.8v-0.8l-1.2,0.1c-0.7,0-1.5,0.1-2.1,0.5c-0.4,0.3-0.7,0.8-0.7,1.3
		c0,0.4,0.1,0.7,0.4,1C637.8,2327.5,638.2,2327.6,638.6,2327.6z M651,2319.1c0.3,0,0.7,0,1,0.1l-0.2,1.9c-0.3-0.1-0.6-0.1-0.9-0.1
		c-0.8,0-1.5,0.3-2,0.8c-0.5,0.6-0.8,1.3-0.8,2.1v5.1h-2.1v-9.7h1.6l0.3,1.7h0.1c0.3-0.6,0.7-1,1.3-1.4
		C649.8,2319.3,650.4,2319.1,651,2319.1z M658.8,2319.1c0.3,0,0.7,0,1,0.1l-0.2,1.9c-0.3-0.1-0.6-0.1-0.9-0.1c-0.8,0-1.5,0.3-2,0.8
		c-0.5,0.6-0.8,1.3-0.8,2.1v5.1h-2.1v-9.7h1.6l0.3,1.7h0.1c0.3-0.6,0.7-1,1.3-1.4C657.6,2319.3,658.2,2319.1,658.8,2319.1z
		 M669.9,2324.1c0.1,1.3-0.4,2.7-1.2,3.7c-0.9,0.9-2.1,1.4-3.4,1.3c-0.8,0-1.7-0.2-2.4-0.6c-0.7-0.4-1.3-1-1.6-1.8
		c-0.4-0.8-0.6-1.8-0.6-2.7c-0.1-1.3,0.4-2.7,1.2-3.7c0.9-0.9,2.1-1.4,3.4-1.3c1.3-0.1,2.5,0.4,3.3,1.4
		C669.5,2321.5,669.9,2322.8,669.9,2324.1L669.9,2324.1z M662.8,2324.1c0,2.2,0.8,3.4,2.5,3.4c1.6,0,2.5-1.1,2.5-3.4
		c0-2.2-0.8-3.3-2.5-3.3c-0.7-0.1-1.5,0.3-1.9,0.9C662.9,2322.4,662.7,2323.3,662.8,2324.1L662.8,2324.1z M678.6,2329h-7.4v-1.3
		l4.9-6.9h-4.6v-1.6h6.9v1.4l-4.8,6.7h4.9V2329z"/>
	<g id="Trazado_17189" transform="translate(480 2534)">
		<path class="st4" d="M945.5,60.5H0.5v-60h945V60.5z"/>
		<path class="st3" d="M1,1v59h944V1H1 M0,0h946v61H0V0z"/>
	</g>
	<path id="Trazado_16956" class="st7" d="M877.5,2054v541"/>
	<path id="Trazado_16957" class="st7" d="M1025.5,2054v541"/>
	<path id="Trazado_16960" class="st7" d="M1252.5,2054v541"/>
	<path id="Trazado_17190" class="st6" d="M955.7,2331h-2.1v-8.3c0-1,0-1.8,0.1-2.4c-0.1,0.1-0.3,0.3-0.5,0.5c-0.2,0.2-0.9,0.7-2,1.6
		l-1-1.3l3.8-3h1.7L955.7,2331z"/>
	<path id="Trazado_17191" class="st6" d="M530.2,2502c0.1,1.2-0.4,2.3-1.3,3.1c-1.1,0.8-2.4,1.2-3.8,1.1h-1.3v4.8h-2.1v-12.9h3.7
		c1.3-0.1,2.5,0.3,3.6,1C529.8,2499.9,530.3,2500.9,530.2,2502z M523.8,2504.4h1.1c0.8,0.1,1.7-0.1,2.4-0.6c0.5-0.4,0.8-1.1,0.8-1.8
		c0-0.6-0.2-1.2-0.7-1.7c-0.6-0.4-1.4-0.6-2.1-0.5h-1.5V2504.4z M534.6,2511h-2.1v-9.7h2.1V2511z M532.4,2498.7
		c0-0.3,0.1-0.6,0.3-0.9c0.2-0.2,0.5-0.3,0.9-0.3c0.3,0,0.6,0.1,0.8,0.3c0.2,0.2,0.3,0.5,0.3,0.9c0,0.3-0.1,0.6-0.3,0.8
		c-0.2,0.2-0.5,0.3-0.8,0.3c-0.3,0-0.6-0.1-0.9-0.3C532.5,2499.3,532.4,2499,532.4,2498.7z M541.8,2511.2c-1.3,0.1-2.6-0.4-3.5-1.3
		c-0.9-1-1.4-2.3-1.3-3.6c-0.1-1.4,0.3-2.7,1.2-3.7c0.8-0.9,2-1.4,3.3-1.4c1.1-0.1,2.2,0.4,3,1.2c0.8,0.9,1.2,2,1.1,3.2v1.1h-6.5
		c0,0.8,0.2,1.6,0.8,2.2c0.5,0.5,1.3,0.8,2,0.8c0.5,0,1.1-0.1,1.6-0.2c0.6-0.1,1.1-0.3,1.6-0.5v1.7c-0.5,0.2-1,0.4-1.5,0.5
		C543,2511.1,542.4,2511.2,541.8,2511.2L541.8,2511.2z M541.4,2502.7c-0.6,0-1.2,0.2-1.6,0.6c-0.4,0.5-0.7,1.2-0.7,1.8h4.4
		c0-0.7-0.2-1.3-0.6-1.8C542.6,2502.9,542,2502.6,541.4,2502.7L541.4,2502.7z M551.2,2511.2c-1.1,0.1-2.2-0.4-2.8-1.3
		c-0.7-1.1-1.1-2.4-1-3.7c-0.1-1.3,0.3-2.6,1-3.7c0.7-0.9,1.7-1.4,2.9-1.3c1.2-0.1,2.3,0.5,2.9,1.4h0.1c-0.1-0.5-0.1-1.1-0.1-1.7
		v-3.5h2.1v13.7h-1.6l-0.4-1.3h-0.1C553.5,2510.7,552.4,2511.2,551.2,2511.2L551.2,2511.2z M551.8,2509.5c0.7,0.1,1.4-0.2,1.9-0.7
		c0.4-0.7,0.7-1.5,0.6-2.3v-0.3c0.1-0.9-0.1-1.8-0.6-2.6c-0.5-0.5-1.2-0.8-1.9-0.8c-0.7,0-1.3,0.3-1.7,0.9c-0.4,0.8-0.6,1.6-0.6,2.5
		c-0.1,0.9,0.1,1.7,0.6,2.5C550.4,2509.2,551.1,2509.5,551.8,2509.5L551.8,2509.5z M564.1,2501.1c0.3,0,0.7,0,1,0.1l-0.2,1.9
		c-0.3-0.1-0.6-0.1-0.9-0.1c-0.8,0-1.5,0.3-2,0.8c-0.5,0.6-0.8,1.3-0.8,2.1v5.1h-2.1v-9.7h1.6l0.3,1.7h0.1c0.3-0.6,0.7-1,1.3-1.4
		C562.9,2501.3,563.5,2501.1,564.1,2501.1z M572.6,2511l-0.4-1.4h-0.1c-0.4,0.5-0.9,0.9-1.4,1.2c-0.6,0.2-1.2,0.3-1.8,0.3
		c-0.8,0-1.6-0.2-2.2-0.8c-0.6-0.6-0.9-1.4-0.8-2.2c-0.1-0.9,0.4-1.8,1.1-2.3c1-0.6,2.2-0.9,3.4-0.8l1.7-0.1v-0.5
		c0-0.5-0.1-1-0.4-1.4c-0.4-0.3-0.9-0.5-1.3-0.5c-0.5,0-1,0.1-1.4,0.2c-0.5,0.1-0.9,0.3-1.3,0.5l-0.7-1.5c0.5-0.3,1.1-0.5,1.7-0.6
		c0.6-0.1,1.2-0.2,1.8-0.2c1-0.1,2,0.2,2.8,0.8c0.7,0.7,1,1.6,0.9,2.5v6.6H572.6z M569.6,2509.6c0.7,0,1.3-0.2,1.8-0.6
		c0.5-0.5,0.7-1.1,0.7-1.8v-0.8l-1.2,0.1c-0.7,0-1.5,0.1-2.1,0.5c-0.4,0.3-0.7,0.8-0.7,1.3c0,0.4,0.1,0.7,0.4,1
		C568.7,2509.5,569.1,2509.6,569.6,2509.6z M601.4,2506.1c0.1,1.3-0.4,2.7-1.2,3.7c-0.9,0.9-2.1,1.4-3.4,1.3c-0.8,0-1.7-0.2-2.4-0.6
		c-0.7-0.4-1.3-1-1.6-1.8c-0.4-0.8-0.6-1.8-0.6-2.7c-0.1-1.3,0.4-2.7,1.2-3.7c0.9-0.9,2.1-1.4,3.4-1.3c1.3-0.1,2.5,0.4,3.3,1.4
		C601,2503.5,601.4,2504.8,601.4,2506.1L601.4,2506.1z M594.3,2506.1c0,2.2,0.8,3.4,2.5,3.4c1.6,0,2.5-1.1,2.5-3.4
		c0-2.2-0.8-3.3-2.5-3.3c-0.7-0.1-1.5,0.3-1.9,0.9C594.4,2504.4,594.2,2505.3,594.3,2506.1L594.3,2506.1z M595.4,2500.1v-0.2
		c0.3-0.4,0.7-0.9,1-1.4c0.4-0.5,0.6-0.9,0.8-1.3h2.4v0.2c-0.4,0.5-0.9,0.9-1.4,1.4c-0.5,0.5-1,0.9-1.5,1.3L595.4,2500.1z
		 M611.9,2511h-2.1v-6c0-0.6-0.1-1.2-0.4-1.7c-0.3-0.4-0.8-0.6-1.3-0.5c-0.7-0.1-1.3,0.2-1.8,0.8c-0.4,0.8-0.6,1.7-0.6,2.6v4.8h-2.1
		v-9.7h1.6l0.3,1.3h0.1c0.3-0.5,0.7-0.8,1.2-1.1c0.5-0.3,1.1-0.4,1.7-0.4c1.2-0.2,2.4,0.5,3,1.5h0.1c0.3-0.5,0.7-0.9,1.2-1.1
		c0.6-0.3,1.2-0.4,1.8-0.4c0.9-0.1,1.9,0.2,2.5,0.9c0.6,0.8,0.9,1.7,0.8,2.7v6.3H616v-6c0-0.6-0.1-1.2-0.4-1.7
		c-0.3-0.4-0.8-0.6-1.3-0.5c-0.7-0.1-1.3,0.2-1.8,0.8c-0.4,0.7-0.6,1.5-0.6,2.3L611.9,2511z M625.2,2511.2c-1.3,0.1-2.6-0.4-3.5-1.3
		c-0.9-1-1.4-2.3-1.3-3.6c-0.1-1.4,0.3-2.7,1.2-3.7c0.8-0.9,2-1.4,3.3-1.4c1.1-0.1,2.2,0.4,3,1.2c0.8,0.9,1.2,2,1.1,3.2v1.1h-6.5
		c0,0.8,0.2,1.6,0.8,2.2c0.5,0.5,1.3,0.8,2,0.8c0.5,0,1.1-0.1,1.6-0.2c0.6-0.1,1.1-0.3,1.6-0.5v1.7c-0.5,0.2-1,0.4-1.5,0.5
		C626.4,2511.1,625.8,2511.2,625.2,2511.2L625.2,2511.2z M624.8,2502.7c-0.6,0-1.2,0.2-1.6,0.6c-0.4,0.5-0.7,1.2-0.7,1.8h4.4
		c0-0.7-0.2-1.3-0.6-1.8C626,2502.9,625.4,2502.6,624.8,2502.7L624.8,2502.7z M637.6,2511h-7.4v-1.3l4.9-6.9h-4.6v-1.6h6.9v1.4
		l-4.8,6.7h4.9L637.6,2511z"/>
	<path id="Trazado_17192" class="st6" d="M527.2,2559.8c-1.1,0-2.2,0.4-2.8,1.3c-0.7,1-1.1,2.3-1,3.5c-0.1,1.3,0.3,2.5,1,3.6
		c0.7,0.8,1.8,1.3,2.9,1.2c0.5,0,1.1-0.1,1.6-0.2c0.5-0.1,1-0.2,1.6-0.4v1.8c-1.1,0.4-2.3,0.6-3.4,0.6c-1.6,0.1-3.2-0.5-4.3-1.7
		c-1.1-1.4-1.6-3.1-1.5-4.9c0-1.2,0.2-2.4,0.7-3.5c0.5-1,1.2-1.8,2.1-2.3c1-0.6,2.1-0.8,3.3-0.8c1.3,0,2.5,0.3,3.6,0.8l-0.8,1.7
		c-0.4-0.2-0.9-0.4-1.4-0.5C528.2,2559.8,527.7,2559.8,527.2,2559.8z M539,2571l-0.4-1.4h-0.1c-0.4,0.5-0.9,0.9-1.4,1.2
		c-0.6,0.2-1.2,0.3-1.8,0.3c-0.8,0-1.6-0.2-2.2-0.8c-0.6-0.6-0.9-1.4-0.8-2.2c-0.1-0.9,0.4-1.8,1.1-2.3c1-0.6,2.2-0.9,3.4-0.8
		l1.7-0.1v-0.5c0-0.5-0.1-1-0.4-1.4c-0.4-0.3-0.9-0.5-1.3-0.5c-0.5,0-1,0.1-1.4,0.2c-0.5,0.1-0.9,0.3-1.3,0.5l-0.7-1.5
		c0.5-0.3,1.1-0.5,1.7-0.6c0.6-0.1,1.2-0.2,1.8-0.2c1-0.1,2,0.2,2.8,0.8c0.7,0.7,1,1.6,0.9,2.5v6.6H539z M535.9,2569.6
		c0.7,0,1.3-0.2,1.8-0.6c0.5-0.5,0.7-1.1,0.7-1.8v-0.8l-1.2,0.1c-0.7,0-1.5,0.1-2.1,0.5c-0.4,0.3-0.7,0.8-0.7,1.3
		c0,0.4,0.1,0.7,0.4,1C535.1,2569.5,535.5,2569.6,535.9,2569.6z M549.9,2568.2c0,0.9-0.3,1.7-1,2.2c-0.9,0.6-1.9,0.8-3,0.8
		c-1.1,0-2.1-0.2-3.1-0.6v-1.8c1,0.5,2.1,0.8,3.2,0.8c1.3,0,1.9-0.4,1.9-1.2c0-0.2-0.1-0.4-0.2-0.6c-0.2-0.2-0.4-0.4-0.7-0.5
		c-0.4-0.2-0.9-0.4-1.3-0.6c-0.8-0.3-1.6-0.7-2.3-1.3c-0.4-0.5-0.6-1.1-0.6-1.7c0-0.8,0.4-1.5,1-1.9c0.8-0.5,1.8-0.7,2.7-0.7
		c1.1,0,2.2,0.2,3.2,0.7l-0.7,1.6c-0.8-0.4-1.7-0.6-2.6-0.6c-1.1,0-1.6,0.3-1.6,0.9c0,0.3,0.2,0.6,0.4,0.8c0.6,0.4,1.2,0.6,1.9,0.9
		c0.6,0.2,1.2,0.5,1.7,0.9c0.3,0.2,0.6,0.5,0.8,0.9C549.8,2567.4,549.9,2567.8,549.9,2568.2L549.9,2568.2z M556,2571.2
		c-1.3,0.1-2.5-0.4-3.4-1.3c-0.8-1-1.2-2.4-1.1-3.7c-0.1-1.4,0.3-2.7,1.2-3.8c0.9-0.9,2.2-1.4,3.5-1.3c1,0,1.9,0.2,2.8,0.6l-0.6,1.7
		c-0.7-0.3-1.4-0.5-2.2-0.5c-1.7,0-2.5,1.1-2.5,3.3c-0.1,0.9,0.2,1.7,0.6,2.5c0.4,0.6,1.1,0.9,1.8,0.8c0.9,0,1.8-0.2,2.6-0.7v1.8
		c-0.4,0.2-0.8,0.4-1.2,0.5C557,2571.1,556.5,2571.2,556,2571.2z M567.1,2571l-0.4-1.4h-0.1c-0.4,0.5-0.9,0.9-1.4,1.2
		c-0.6,0.2-1.2,0.3-1.8,0.3c-0.8,0-1.6-0.2-2.2-0.8c-0.6-0.6-0.9-1.4-0.8-2.2c-0.1-0.9,0.4-1.8,1.1-2.3c1-0.6,2.2-0.9,3.4-0.8
		l1.7-0.1v-0.5c0-0.5-0.1-1-0.4-1.4c-0.4-0.3-0.9-0.5-1.3-0.5c-0.5,0-1,0.1-1.4,0.2c-0.5,0.1-0.9,0.3-1.3,0.5l-0.7-1.5
		c0.5-0.3,1.1-0.5,1.7-0.6c0.6-0.1,1.2-0.2,1.8-0.2c1-0.1,2,0.2,2.8,0.8c0.7,0.7,1,1.6,0.9,2.5v6.6H567.1z M564,2569.6
		c0.7,0,1.3-0.2,1.8-0.6c0.5-0.5,0.7-1.1,0.7-1.8v-0.8l-1.2,0.1c-0.7,0-1.5,0.1-2.1,0.5c-0.4,0.3-0.7,0.8-0.7,1.3
		c0,0.4,0.1,0.7,0.4,1C563.2,2569.5,563.6,2569.6,564,2569.6z M576.4,2561.1c0.3,0,0.7,0,1,0.1l-0.2,1.9c-0.3-0.1-0.6-0.1-0.9-0.1
		c-0.8,0-1.5,0.3-2,0.8c-0.5,0.6-0.8,1.3-0.8,2.1v5.1h-2.1v-9.7h1.6l0.3,1.7h0.1c0.3-0.6,0.7-1,1.3-1.4
		C575.2,2561.3,575.8,2561.1,576.4,2561.1z M581.3,2571h-2.1v-9.7h2.1L581.3,2571z M579.1,2558.7c0-0.3,0.1-0.6,0.3-0.9
		c0.2-0.2,0.5-0.3,0.9-0.3c0.3,0,0.6,0.1,0.8,0.3c0.2,0.2,0.3,0.5,0.3,0.9c0,0.3-0.1,0.6-0.3,0.8c-0.2,0.2-0.5,0.3-0.8,0.3
		c-0.3,0-0.6-0.1-0.9-0.3C579.2,2559.3,579.1,2559,579.1,2558.7z M586.3,2571h-2.1v-13.7h2.1V2571z M591.3,2571h-2.1v-13.7h2.1
		L591.3,2571z M600.3,2571l-0.4-1.4h-0.1c-0.4,0.5-0.9,0.9-1.4,1.2c-0.6,0.2-1.2,0.3-1.8,0.3c-0.8,0-1.6-0.2-2.2-0.8
		c-0.6-0.6-0.9-1.4-0.8-2.2c-0.1-0.9,0.4-1.8,1.1-2.3c1-0.6,2.2-0.9,3.4-0.8l1.7-0.1v-0.5c0-0.5-0.1-1-0.4-1.4
		c-0.4-0.3-0.9-0.5-1.3-0.5c-0.5,0-1,0.1-1.4,0.2c-0.5,0.1-0.9,0.3-1.3,0.5l-0.7-1.5c0.5-0.3,1.1-0.5,1.7-0.6
		c0.6-0.1,1.2-0.2,1.8-0.2c1-0.1,2,0.2,2.8,0.8c0.7,0.7,1,1.6,0.9,2.5v6.6H600.3z M597.3,2569.6c0.7,0,1.3-0.2,1.8-0.6
		c0.5-0.5,0.7-1.1,0.7-1.8v-0.8l-1.2,0.1c-0.7,0-1.5,0.1-2.1,0.5c-0.4,0.3-0.7,0.8-0.7,1.3c0,0.4,0.1,0.7,0.4,1
		C596.4,2569.5,596.8,2569.6,597.3,2569.6z M612.7,2571.2c-1.1,0.1-2.2-0.4-2.8-1.3c-0.7-1.1-1.1-2.4-1-3.7c-0.1-1.3,0.3-2.6,1-3.7
		c0.7-0.9,1.7-1.4,2.9-1.3c1.2-0.1,2.3,0.5,2.9,1.4h0.1c-0.1-0.5-0.1-1.1-0.1-1.7v-3.5h2.1v13.7H616l-0.4-1.3h-0.1
		C614.9,2570.7,613.8,2571.2,612.7,2571.2L612.7,2571.2z M613.2,2569.5c0.7,0.1,1.4-0.2,1.9-0.7c0.4-0.7,0.7-1.5,0.6-2.3v-0.3
		c0.1-0.9-0.1-1.8-0.6-2.6c-0.5-0.5-1.2-0.8-1.9-0.8c-0.7,0-1.3,0.3-1.7,0.9c-0.4,0.8-0.6,1.6-0.6,2.5c-0.1,0.9,0.1,1.7,0.6,2.5
		C611.9,2569.2,612.5,2569.5,613.2,2569.5L613.2,2569.5z M624.8,2571.2c-1.3,0.1-2.6-0.4-3.5-1.3c-0.9-1-1.4-2.3-1.3-3.6
		c-0.1-1.4,0.3-2.7,1.2-3.7c0.8-0.9,2-1.4,3.3-1.4c1.1-0.1,2.2,0.4,3,1.2c0.8,0.9,1.2,2,1.1,3.2v1.1h-6.5c0,0.8,0.2,1.6,0.8,2.2
		c0.5,0.5,1.3,0.8,2,0.8c0.5,0,1.1-0.1,1.6-0.2c0.6-0.1,1.1-0.3,1.6-0.5v1.7c-0.5,0.2-1,0.4-1.5,0.5
		C626,2571.1,625.4,2571.2,624.8,2571.2L624.8,2571.2z M624.5,2562.7c-0.6,0-1.2,0.2-1.6,0.6c-0.4,0.5-0.7,1.2-0.7,1.8h4.4
		c0-0.7-0.2-1.3-0.6-1.8C625.6,2562.9,625,2562.6,624.5,2562.7L624.5,2562.7z M641.7,2571l-0.4-1.4h-0.1c-0.4,0.5-0.9,0.9-1.4,1.2
		c-0.6,0.2-1.2,0.3-1.8,0.3c-0.8,0-1.6-0.2-2.2-0.8c-0.6-0.6-0.9-1.4-0.8-2.2c-0.1-0.9,0.4-1.8,1.1-2.3c1-0.6,2.2-0.9,3.4-0.8
		l1.7-0.1v-0.5c0-0.5-0.1-1-0.4-1.4c-0.4-0.3-0.9-0.5-1.3-0.5c-0.5,0-1,0.1-1.4,0.2c-0.5,0.1-0.9,0.3-1.3,0.5l-0.7-1.5
		c0.5-0.3,1.1-0.5,1.7-0.6c0.6-0.1,1.2-0.2,1.8-0.2c1-0.1,2,0.2,2.8,0.8c0.7,0.7,1,1.6,0.9,2.5v6.5H641.7z M638.6,2569.6
		c0.7,0,1.3-0.2,1.8-0.6c0.5-0.5,0.7-1.1,0.7-1.8v-0.8l-1.2,0.1c-0.7,0-1.5,0.1-2.1,0.5c-0.4,0.3-0.7,0.8-0.7,1.3
		c0,0.4,0.1,0.7,0.4,1C637.8,2569.5,638.2,2569.6,638.6,2569.6z M651,2561.1c0.3,0,0.7,0,1,0.1l-0.2,1.9c-0.3-0.1-0.6-0.1-0.9-0.1
		c-0.8,0-1.5,0.3-2,0.8c-0.5,0.6-0.8,1.3-0.8,2.1v5.1h-2.1v-9.7h1.6l0.3,1.7h0.1c0.3-0.6,0.7-1,1.3-1.4
		C649.8,2561.3,650.4,2561.1,651,2561.1z M658.8,2561.1c0.3,0,0.7,0,1,0.1l-0.2,1.9c-0.3-0.1-0.6-0.1-0.9-0.1c-0.8,0-1.5,0.3-2,0.8
		c-0.5,0.6-0.8,1.3-0.8,2.1v5.1h-2.1v-9.7h1.6l0.3,1.7h0.1c0.3-0.6,0.7-1,1.3-1.4C657.6,2561.3,658.2,2561.1,658.8,2561.1z
		 M669.9,2566.1c0.1,1.3-0.4,2.7-1.2,3.7c-0.9,0.9-2.1,1.4-3.4,1.3c-0.8,0-1.7-0.2-2.4-0.6c-0.7-0.4-1.3-1-1.6-1.8
		c-0.4-0.8-0.6-1.8-0.6-2.7c-0.1-1.3,0.4-2.7,1.2-3.7c0.9-0.9,2.1-1.4,3.4-1.3c1.3-0.1,2.5,0.4,3.3,1.4
		C669.5,2563.5,669.9,2564.8,669.9,2566.1L669.9,2566.1z M662.8,2566.1c0,2.2,0.8,3.4,2.5,3.4c1.6,0,2.5-1.1,2.5-3.4
		c0-2.2-0.8-3.3-2.5-3.3c-0.7-0.1-1.5,0.3-1.9,0.9C662.9,2564.4,662.7,2565.3,662.8,2566.1L662.8,2566.1z M678.6,2571h-7.4v-1.3
		l4.9-6.9h-4.6v-1.6h6.9v1.4l-4.8,6.7h4.9V2571z"/>
	<path id="Trazado_17193" class="st6" d="M529.7,2450l-1.3-3.6h-4.9l-1.3,3.6H520l4.8-12.9h2.3l4.8,12.9H529.7z M527.8,2444.6
		l-1.2-3.5c-0.1-0.2-0.2-0.6-0.4-1.1c-0.2-0.5-0.3-0.9-0.3-1.1c-0.2,0.8-0.4,1.6-0.7,2.4l-1.2,3.3H527.8z M539.9,2447.2
		c0,0.9-0.3,1.7-1,2.2c-0.9,0.6-1.9,0.8-3,0.8c-1.1,0-2.1-0.2-3.1-0.6v-1.8c1,0.5,2.1,0.8,3.2,0.8c1.3,0,1.9-0.4,1.9-1.2
		c0-0.2-0.1-0.4-0.2-0.6c-0.2-0.2-0.4-0.4-0.7-0.5c-0.4-0.2-0.9-0.4-1.3-0.6c-0.8-0.3-1.6-0.7-2.3-1.3c-0.4-0.5-0.6-1.1-0.6-1.7
		c0-0.8,0.4-1.5,1-1.9c0.8-0.5,1.8-0.7,2.7-0.7c1.1,0,2.2,0.2,3.2,0.7l-0.7,1.6c-0.8-0.4-1.7-0.6-2.6-0.7c-1.1,0-1.6,0.3-1.6,0.9
		c0,0.3,0.2,0.6,0.4,0.8c0.6,0.4,1.2,0.6,1.9,0.9c0.6,0.2,1.2,0.5,1.7,0.9c0.3,0.2,0.6,0.5,0.8,0.9
		C539.8,2446.4,539.9,2446.8,539.9,2447.2z M546.4,2450.2c-1.3,0.1-2.6-0.4-3.5-1.3c-0.9-1-1.4-2.3-1.3-3.6
		c-0.1-1.4,0.3-2.7,1.2-3.7c0.8-0.9,2-1.4,3.3-1.4c1.1-0.1,2.2,0.4,3,1.2c0.8,0.9,1.2,2,1.1,3.2v1.1h-6.5c0,0.8,0.2,1.6,0.8,2.2
		c0.5,0.5,1.3,0.8,2,0.8c0.5,0,1.1-0.1,1.6-0.2c0.6-0.1,1.1-0.3,1.6-0.5v1.7c-0.5,0.2-1,0.4-1.5,0.5
		C547.6,2450.1,547,2450.2,546.4,2450.2L546.4,2450.2z M546,2441.7c-0.6,0-1.2,0.2-1.6,0.6c-0.4,0.5-0.7,1.2-0.7,1.8h4.4
		c0-0.7-0.2-1.3-0.6-1.8C547.2,2441.9,546.6,2441.6,546,2441.7L546,2441.7z M557.4,2440.1c0.3,0,0.7,0,1,0.1l-0.2,1.9
		c-0.3-0.1-0.6-0.1-0.9-0.1c-0.8,0-1.5,0.3-2,0.8c-0.5,0.6-0.8,1.3-0.8,2.1v5.1h-2.1v-9.7h1.6l0.3,1.7h0.1c0.3-0.6,0.7-1,1.3-1.4
		C556.3,2440.3,556.8,2440.1,557.4,2440.1z M565.2,2440.1c0.3,0,0.7,0,1,0.1l-0.2,1.9c-0.3-0.1-0.6-0.1-0.9-0.1
		c-0.8,0-1.5,0.3-2,0.8c-0.5,0.6-0.8,1.3-0.8,2.1v5.1h-2.1v-9.7h1.6l0.3,1.7h0.1c0.3-0.6,0.7-1,1.3-1.4
		C564,2440.3,564.6,2440.1,565.2,2440.1L565.2,2440.1z M570.1,2450H568v-9.7h2.1V2450z M567.9,2439.1v-0.2c0.3-0.4,0.7-0.9,1-1.4
		c0.4-0.5,0.6-0.9,0.8-1.3h2.4v0.2c-0.4,0.5-0.9,0.9-1.4,1.4c-0.5,0.5-1,0.9-1.5,1.3H567.9z M581.6,2450h-2.1v-6
		c0-0.6-0.1-1.2-0.5-1.7c-0.4-0.4-0.9-0.6-1.4-0.6c-0.7-0.1-1.4,0.2-1.9,0.8c-0.5,0.8-0.7,1.7-0.6,2.6v4.8h-2.1v-9.7h1.6l0.3,1.3
		h0.1c0.3-0.5,0.7-0.8,1.2-1.1c0.6-0.3,1.2-0.4,1.8-0.4c2.3,0,3.5,1.2,3.5,3.6V2450z"/>
	<path id="Trazado_17194" class="st6" d="M955.7,2570h-2.1v-8.3c0-1,0-1.8,0.1-2.4c-0.1,0.1-0.3,0.3-0.5,0.5c-0.2,0.2-0.9,0.7-2,1.6
		l-1-1.3l3.8-3h1.7L955.7,2570z"/>
	<path id="Trazado_17195" class="st6" d="M1078.7,2330l-1.3-3.6h-4.9l-1.3,3.6h-2.2l4.8-12.9h2.3l4.8,12.9H1078.7z M1076.8,2324.6
		l-1.2-3.5c-0.1-0.2-0.2-0.6-0.4-1.1c-0.2-0.5-0.3-0.9-0.3-1.1c-0.2,0.8-0.4,1.6-0.7,2.4l-1.2,3.3H1076.8z M1087.3,2320.1
		c0.3,0,0.7,0,1,0.1l-0.2,1.9c-0.3-0.1-0.6-0.1-0.9-0.1c-0.8,0-1.5,0.3-2,0.8c-0.5,0.6-0.8,1.3-0.8,2.1v5.1h-2.1v-9.7h1.6l0.3,1.7
		h0.1c0.3-0.6,0.7-1,1.3-1.4C1086.1,2320.3,1086.7,2320.1,1087.3,2320.1z M1094,2330.2c-1.3,0.1-2.6-0.4-3.5-1.3
		c-0.9-1-1.4-2.3-1.3-3.6c-0.1-1.4,0.3-2.7,1.2-3.7c0.8-0.9,2-1.4,3.3-1.4c1.1-0.1,2.2,0.4,3,1.2c0.8,0.9,1.2,2,1.1,3.2v1.1h-6.5
		c0,0.8,0.2,1.6,0.8,2.2c0.5,0.5,1.3,0.8,2,0.8c0.5,0,1.1-0.1,1.6-0.2c0.6-0.1,1.1-0.3,1.6-0.5v1.7c-0.5,0.2-1,0.4-1.5,0.5
		C1095.2,2330.1,1094.6,2330.2,1094,2330.2L1094,2330.2z M1093.6,2321.7c-0.6,0-1.2,0.2-1.6,0.6c-0.4,0.5-0.7,1.2-0.7,1.8h4.4
		c0-0.7-0.2-1.3-0.6-1.8C1094.8,2321.9,1094.2,2321.6,1093.6,2321.7L1093.6,2321.7z M1108.7,2330h-2.1v-6c0-0.6-0.1-1.2-0.5-1.7
		c-0.4-0.4-0.9-0.6-1.4-0.6c-0.7-0.1-1.4,0.2-1.9,0.8c-0.5,0.8-0.7,1.7-0.6,2.6v4.8h-2.1v-9.7h1.6l0.3,1.3h0.1
		c0.3-0.5,0.7-0.8,1.2-1.1c0.6-0.3,1.2-0.4,1.8-0.4c2.3,0,3.5,1.2,3.5,3.6V2330z M1117.7,2330l-0.4-1.4h-0.1
		c-0.4,0.5-0.9,0.9-1.4,1.2c-0.6,0.2-1.2,0.3-1.8,0.3c-0.8,0-1.6-0.2-2.2-0.8c-0.6-0.6-0.9-1.4-0.8-2.2c-0.1-0.9,0.4-1.8,1.1-2.3
		c1-0.6,2.2-0.9,3.4-0.8l1.7-0.1v-0.5c0-0.5-0.1-1-0.4-1.4c-0.4-0.3-0.9-0.5-1.3-0.5c-0.5,0-1,0.1-1.4,0.2c-0.5,0.1-0.9,0.3-1.3,0.5
		l-0.7-1.5c0.5-0.3,1.1-0.5,1.7-0.6c0.6-0.1,1.2-0.2,1.8-0.2c1-0.1,2,0.2,2.8,0.8c0.7,0.7,1,1.6,0.9,2.5v6.6H1117.7z M1114.6,2328.6
		c0.7,0,1.3-0.2,1.8-0.6c0.5-0.5,0.7-1.1,0.7-1.8v-0.8l-1.2,0.1c-0.7,0-1.5,0.1-2.1,0.5c-0.4,0.3-0.7,0.8-0.7,1.3
		c0,0.4,0.1,0.7,0.4,1C1113.8,2328.5,1114.2,2328.6,1114.6,2328.6z"/>
	<path id="Trazado_17196" class="st6" d="M1078.7,2508l-1.3-3.6h-4.9l-1.3,3.6h-2.2l4.8-12.9h2.3l4.8,12.9H1078.7z M1076.8,2502.6
		l-1.2-3.5c-0.1-0.2-0.2-0.6-0.4-1.1c-0.2-0.5-0.3-0.9-0.3-1.1c-0.2,0.8-0.4,1.6-0.7,2.4l-1.2,3.3H1076.8z M1088.9,2505.2
		c0,0.9-0.3,1.7-1,2.2c-0.9,0.6-1.9,0.8-3,0.8c-1.1,0-2.1-0.2-3.1-0.6v-1.8c1,0.5,2.1,0.8,3.2,0.8c1.3,0,1.9-0.4,1.9-1.2
		c0-0.2-0.1-0.4-0.2-0.6c-0.2-0.2-0.4-0.4-0.7-0.5c-0.4-0.2-0.9-0.4-1.3-0.6c-0.8-0.3-1.6-0.7-2.3-1.3c-0.4-0.5-0.6-1.1-0.6-1.7
		c0-0.8,0.4-1.5,1-1.9c0.8-0.5,1.8-0.7,2.7-0.7c1.1,0,2.2,0.2,3.2,0.7l-0.7,1.6c-0.8-0.4-1.7-0.6-2.6-0.7c-1.1,0-1.6,0.3-1.6,0.9
		c0,0.3,0.2,0.6,0.4,0.8c0.6,0.4,1.2,0.6,1.9,0.9c0.6,0.2,1.2,0.5,1.7,0.9c0.3,0.2,0.6,0.5,0.8,0.9
		C1088.8,2504.4,1088.9,2504.8,1088.9,2505.2z M1095.4,2508.2c-1.3,0.1-2.6-0.4-3.5-1.3c-0.9-1-1.4-2.3-1.3-3.6
		c-0.1-1.4,0.3-2.7,1.2-3.7c0.8-0.9,2-1.4,3.3-1.4c1.1-0.1,2.2,0.4,3,1.2c0.8,0.9,1.2,2,1.1,3.2v1.1h-6.5c0,0.8,0.2,1.6,0.8,2.2
		c0.5,0.5,1.3,0.8,2,0.8c0.5,0,1.1-0.1,1.6-0.2c0.6-0.1,1.1-0.3,1.6-0.5v1.7c-0.5,0.2-1,0.4-1.5,0.5
		C1096.6,2508.1,1096,2508.2,1095.4,2508.2L1095.4,2508.2z M1095,2499.7c-0.6,0-1.2,0.2-1.6,0.6c-0.4,0.5-0.7,1.2-0.7,1.8h4.4
		c0-0.7-0.2-1.3-0.6-1.8C1096.2,2499.9,1095.6,2499.6,1095,2499.7L1095,2499.7z M1106.4,2498.1c0.3,0,0.7,0,1,0.1l-0.2,1.9
		c-0.3-0.1-0.6-0.1-0.9-0.1c-0.8,0-1.5,0.3-2,0.8c-0.5,0.6-0.8,1.3-0.8,2.1v5.1h-2.1v-9.7h1.6l0.3,1.7h0.1c0.3-0.6,0.7-1,1.3-1.4
		C1105.3,2498.3,1105.8,2498.1,1106.4,2498.1z M1114.2,2498.1c0.3,0,0.7,0,1,0.1l-0.2,1.9c-0.3-0.1-0.6-0.1-0.9-0.1
		c-0.8,0-1.5,0.3-2,0.8c-0.5,0.6-0.8,1.3-0.8,2.1v5.1h-2.1v-9.7h1.6l0.3,1.7h0.1c0.3-0.6,0.7-1,1.3-1.4
		C1113,2498.3,1113.6,2498.1,1114.2,2498.1L1114.2,2498.1z M1119.1,2508h-2.1v-9.7h2.1V2508z M1116.9,2497.1v-0.2
		c0.3-0.4,0.7-0.9,1-1.4c0.4-0.5,0.6-0.9,0.8-1.3h2.4v0.2c-0.4,0.5-0.9,0.9-1.4,1.4c-0.5,0.5-1,0.9-1.5,1.3H1116.9z M1130.6,2508
		h-2.1v-6c0-0.6-0.1-1.2-0.5-1.7c-0.4-0.4-0.9-0.6-1.4-0.6c-0.7-0.1-1.4,0.2-1.9,0.8c-0.5,0.8-0.7,1.7-0.6,2.6v4.8h-2.1v-9.7h1.6
		l0.3,1.3h0.1c0.3-0.5,0.7-0.8,1.2-1.1c0.6-0.3,1.2-0.4,1.8-0.4c2.3,0,3.5,1.2,3.5,3.6V2508z"/>
	<path id="Trazado_17197" class="st6" d="M1078.7,2568l-1.3-3.6h-4.9l-1.3,3.6h-2.2l4.8-12.9h2.3l4.8,12.9H1078.7z M1076.8,2562.6
		l-1.2-3.5c-0.1-0.2-0.2-0.6-0.4-1.1c-0.2-0.5-0.3-0.9-0.3-1.1c-0.2,0.8-0.4,1.6-0.7,2.4l-1.2,3.3H1076.8z M1088.9,2565.2
		c0,0.9-0.3,1.7-1,2.2c-0.9,0.6-1.9,0.8-3,0.8c-1.1,0-2.1-0.2-3.1-0.6v-1.8c1,0.5,2.1,0.8,3.2,0.8c1.3,0,1.9-0.4,1.9-1.2
		c0-0.2-0.1-0.4-0.2-0.6c-0.2-0.2-0.4-0.4-0.7-0.5c-0.4-0.2-0.9-0.4-1.3-0.6c-0.8-0.3-1.6-0.7-2.3-1.3c-0.4-0.5-0.6-1.1-0.6-1.7
		c0-0.8,0.4-1.5,1-1.9c0.8-0.5,1.8-0.7,2.7-0.7c1.1,0,2.2,0.2,3.2,0.7l-0.7,1.6c-0.8-0.4-1.7-0.6-2.6-0.7c-1.1,0-1.6,0.3-1.6,0.9
		c0,0.3,0.2,0.6,0.4,0.8c0.6,0.4,1.2,0.6,1.9,0.9c0.6,0.2,1.2,0.5,1.7,0.9c0.3,0.2,0.6,0.5,0.8,0.9
		C1088.8,2564.4,1088.9,2564.8,1088.9,2565.2z M1095.4,2568.2c-1.3,0.1-2.6-0.4-3.5-1.3c-0.9-1-1.4-2.3-1.3-3.6
		c-0.1-1.4,0.3-2.7,1.2-3.7c0.8-0.9,2-1.4,3.3-1.4c1.1-0.1,2.2,0.4,3,1.2c0.8,0.9,1.2,2,1.1,3.2v1.1h-6.5c0,0.8,0.2,1.6,0.8,2.2
		c0.5,0.5,1.3,0.8,2,0.8c0.5,0,1.1-0.1,1.6-0.2c0.6-0.1,1.1-0.3,1.6-0.5v1.7c-0.5,0.2-1,0.4-1.5,0.5
		C1096.6,2568.1,1096,2568.2,1095.4,2568.2L1095.4,2568.2z M1095,2559.7c-0.6,0-1.2,0.2-1.6,0.6c-0.4,0.5-0.7,1.2-0.7,1.8h4.4
		c0-0.7-0.2-1.3-0.6-1.8C1096.2,2559.9,1095.6,2559.6,1095,2559.7L1095,2559.7z M1106.4,2558.1c0.3,0,0.7,0,1,0.1l-0.2,1.9
		c-0.3-0.1-0.6-0.1-0.9-0.1c-0.8,0-1.5,0.3-2,0.8c-0.5,0.6-0.8,1.3-0.8,2.1v5.1h-2.1v-9.7h1.6l0.3,1.7h0.1c0.3-0.6,0.7-1,1.3-1.4
		C1105.3,2558.3,1105.8,2558.1,1106.4,2558.1z M1114.2,2558.1c0.3,0,0.7,0,1,0.1l-0.2,1.9c-0.3-0.1-0.6-0.1-0.9-0.1
		c-0.8,0-1.5,0.3-2,0.8c-0.5,0.6-0.8,1.3-0.8,2.1v5.1h-2.1v-9.7h1.6l0.3,1.7h0.1c0.3-0.6,0.7-1,1.3-1.4
		C1113,2558.3,1113.6,2558.1,1114.2,2558.1L1114.2,2558.1z M1119.1,2568h-2.1v-9.7h2.1V2568z M1116.9,2557.1v-0.2
		c0.3-0.4,0.7-0.9,1-1.4c0.4-0.5,0.6-0.9,0.8-1.3h2.4v0.2c-0.4,0.5-0.9,0.9-1.4,1.4c-0.5,0.5-1,0.9-1.5,1.3H1116.9z M1130.6,2568
		h-2.1v-6c0-0.6-0.1-1.2-0.5-1.7c-0.4-0.4-0.9-0.6-1.4-0.6c-0.7-0.1-1.4,0.2-1.9,0.8c-0.5,0.8-0.7,1.7-0.6,2.6v4.8h-2.1v-9.7h1.6
		l0.3,1.3h0.1c0.3-0.5,0.7-0.8,1.2-1.1c0.6-0.3,1.2-0.4,1.8-0.4c2.3,0,3.5,1.2,3.5,3.6V2568z M1143.5,2568h-2.1v-8.3
		c0-1,0-1.8,0.1-2.4c-0.1,0.1-0.3,0.3-0.5,0.5c-0.2,0.2-0.9,0.7-2,1.6l-1-1.3l3.8-3h1.7L1143.5,2568z M1156,2562.4h-3.5v-1.6h3.5
		v-3.6h1.6v3.6h3.5v1.6h-3.5v3.6h-1.6L1156,2562.4z M1175.5,2568h-7.3v-12.9h7.3v1.8h-5.2v3.5h4.8v1.8h-4.8v4h5.2V2568z
		 M1184.6,2565.2c0,0.9-0.3,1.7-1,2.2c-0.9,0.6-1.9,0.8-3,0.8c-1.1,0-2.1-0.2-3.1-0.6v-1.8c1,0.5,2.1,0.8,3.2,0.8
		c1.3,0,1.9-0.4,1.9-1.2c0-0.2-0.1-0.4-0.2-0.6c-0.2-0.2-0.4-0.4-0.7-0.5c-0.4-0.2-0.9-0.4-1.3-0.6c-0.8-0.3-1.6-0.7-2.3-1.3
		c-0.4-0.5-0.6-1.1-0.6-1.7c0-0.8,0.4-1.5,1-1.9c0.8-0.5,1.8-0.7,2.7-0.7c1.1,0,2.2,0.2,3.2,0.7l-0.7,1.6c-0.8-0.4-1.7-0.6-2.6-0.7
		c-1.1,0-1.6,0.3-1.6,0.9c0,0.3,0.2,0.6,0.4,0.8c0.6,0.4,1.2,0.6,1.9,0.9c0.6,0.2,1.2,0.5,1.7,0.9c0.3,0.2,0.6,0.5,0.8,0.9
		C1184.5,2564.4,1184.6,2564.8,1184.6,2565.2z M1190.8,2568.2c-1.3,0.1-2.5-0.4-3.4-1.3c-0.8-1-1.2-2.4-1.1-3.7
		c-0.1-1.4,0.3-2.7,1.2-3.8c0.9-0.9,2.2-1.4,3.5-1.3c1,0,1.9,0.2,2.8,0.6l-0.6,1.7c-0.7-0.3-1.4-0.5-2.2-0.5c-1.7,0-2.5,1.1-2.5,3.3
		c-0.1,0.9,0.2,1.7,0.6,2.5c0.4,0.6,1.1,0.9,1.8,0.8c0.9,0,1.8-0.2,2.6-0.7v1.8c-0.4,0.2-0.8,0.4-1.2,0.5
		C1191.8,2568.1,1191.3,2568.2,1190.8,2568.2L1190.8,2568.2z M1204.4,2563.1c0.1,1.3-0.4,2.7-1.2,3.7c-0.9,0.9-2.1,1.4-3.4,1.3
		c-0.8,0-1.7-0.2-2.4-0.6c-0.7-0.4-1.3-1-1.6-1.8c-0.4-0.8-0.6-1.8-0.6-2.7c-0.1-1.3,0.4-2.7,1.2-3.7c0.9-0.9,2.1-1.4,3.4-1.3
		c1.3-0.1,2.5,0.4,3.3,1.4C1204,2560.5,1204.5,2561.8,1204.4,2563.1z M1197.3,2563.1c0,2.2,0.8,3.4,2.5,3.4c1.6,0,2.5-1.1,2.5-3.4
		c0-2.2-0.8-3.3-2.5-3.3c-0.7-0.1-1.5,0.3-1.9,0.9C1197.5,2561.4,1197.3,2562.3,1197.3,2563.1L1197.3,2563.1z M1211.7,2558.1
		c0.3,0,0.7,0,1,0.1l-0.2,1.9c-0.3-0.1-0.6-0.1-0.9-0.1c-0.8,0-1.5,0.3-2,0.8c-0.5,0.6-0.8,1.3-0.8,2.1v5.1h-2.1v-9.7h1.6l0.3,1.7
		h0.1c0.3-0.6,0.7-1,1.3-1.4C1210.5,2558.3,1211.1,2558.1,1211.7,2558.1z M1216.6,2568h-2.1v-9.7h2.1V2568z M1214.4,2555.7
		c0-0.3,0.1-0.6,0.3-0.9c0.2-0.2,0.5-0.3,0.9-0.3c0.3,0,0.6,0.1,0.8,0.3c0.2,0.2,0.3,0.5,0.3,0.9c0,0.3-0.1,0.6-0.3,0.8
		c-0.2,0.2-0.5,0.3-0.8,0.3c-0.3,0-0.6-0.1-0.9-0.3C1214.5,2556.3,1214.4,2556,1214.4,2555.7z M1225.6,2568l-0.4-1.4h-0.1
		c-0.4,0.5-0.9,0.9-1.4,1.2c-0.6,0.2-1.2,0.3-1.8,0.3c-0.8,0-1.6-0.2-2.2-0.8c-0.6-0.6-0.9-1.4-0.8-2.2c-0.1-0.9,0.4-1.8,1.1-2.3
		c1-0.6,2.2-0.9,3.4-0.8l1.7-0.1v-0.5c0-0.5-0.1-1-0.4-1.4c-0.4-0.3-0.9-0.5-1.3-0.5c-0.5,0-1,0.1-1.4,0.2c-0.5,0.1-0.9,0.3-1.3,0.5
		l-0.7-1.5c0.5-0.3,1.1-0.5,1.7-0.6c0.6-0.1,1.2-0.2,1.8-0.2c1-0.1,2,0.2,2.8,0.8c0.7,0.7,1,1.6,0.9,2.5v6.5H1225.6z M1222.6,2566.6
		c0.7,0,1.3-0.2,1.8-0.6c0.5-0.5,0.7-1.1,0.7-1.8v-0.8l-1.2,0.1c-0.7,0-1.5,0.1-2.1,0.5c-0.4,0.3-0.7,0.8-0.7,1.3
		c0,0.4,0.1,0.7,0.4,1C1221.7,2566.5,1222.1,2566.6,1222.6,2566.6z"/>
	<path id="Trazado_17198" class="st6" d="M1328.7,2208h-2.1v-8.3c0-1,0-1.8,0.1-2.4c-0.1,0.1-0.3,0.3-0.5,0.5
		c-0.2,0.2-0.9,0.7-2,1.6l-1-1.3l3.8-3h1.7L1328.7,2208z"/>
	<path id="Trazado_17199" class="st6" d="M1328.7,2271h-2.1v-8.3c0-1,0-1.8,0.1-2.4c-0.1,0.1-0.3,0.3-0.5,0.5
		c-0.2,0.2-0.9,0.7-2,1.6l-1-1.3l3.8-3h1.7L1328.7,2271z"/>
	<path id="Trazado_17200" class="st6" d="M1331.4,2328h-8.7v-1.6l3.3-3.3c0.7-0.7,1.3-1.4,1.9-2.1c0.3-0.4,0.5-0.8,0.7-1.2
		c0.1-0.4,0.2-0.8,0.2-1.2c0-0.5-0.2-1-0.5-1.4c-0.4-0.4-0.9-0.5-1.4-0.5c-0.5,0-1,0.1-1.4,0.3c-0.6,0.3-1.1,0.6-1.6,1l-1.1-1.4
		c0.6-0.5,1.3-1,2.1-1.3c0.7-0.3,1.4-0.4,2.2-0.4c1-0.1,2.1,0.3,2.9,0.9c0.7,0.6,1.1,1.6,1.1,2.5c0,0.6-0.1,1.1-0.3,1.7
		c-0.2,0.6-0.6,1.1-1,1.6c-0.7,0.8-1.4,1.5-2.1,2.2l-2.2,2.2v0.1h6.1L1331.4,2328z"/>
	<path id="Trazado_17201" class="st6" d="M1328.7,2390h-2.1v-8.3c0-1,0-1.8,0.1-2.4c-0.1,0.1-0.3,0.3-0.5,0.5
		c-0.2,0.2-0.9,0.7-2,1.6l-1-1.3l3.8-3h1.7L1328.7,2390z"/>
	<path id="Trazado_17202" class="st6" d="M1328.7,2450h-2.1v-8.3c0-1,0-1.8,0.1-2.4c-0.1,0.1-0.3,0.3-0.5,0.5
		c-0.2,0.2-0.9,0.7-2,1.6l-1-1.3l3.8-3h1.7L1328.7,2450z"/>
	<path id="Trazado_17203" class="st6" d="M1328.7,2513h-2.1v-8.3c0-1,0-1.8,0.1-2.4c-0.1,0.1-0.3,0.3-0.5,0.5
		c-0.2,0.2-0.9,0.7-2,1.6l-1-1.3l3.8-3h1.7L1328.7,2513z"/>
	<path id="Trazado_17204" class="st6" d="M1328.7,2568h-2.1v-8.3c0-1,0-1.8,0.1-2.4c-0.1,0.1-0.3,0.3-0.5,0.5
		c-0.2,0.2-0.9,0.7-2,1.6l-1-1.3l3.8-3h1.7L1328.7,2568z"/>
	<text transform="matrix(1 0 0 1 581 2511)" class="st6 st8 st9">p</text>
</g>
</svg>
