<svg xmlns="http://www.w3.org/2000/svg" width="68" height="68" viewBox="0 0 68 68">
  <g id="Grupo_8818" data-name="Grupo 8818" transform="translate(-519 -5348)">
    <circle id="Elipse_643" data-name="Elipse 643" cx="34" cy="34" r="34" transform="translate(519 5348)" fill="#91624a"/>
    <path id="Trazado_17214" data-name="Trazado 17214" d="M12.81-14.525l5.53-6.3V-24.5H1.19v4.55H11.62l-5.04,5.7V-10.5H9.17c3.22,0,4.585,1.155,4.585,3.01,0,1.995-1.75,3.15-4.585,3.15a11.9,11.9,0,0,1-7-2.2L-.035-2.2A16.845,16.845,0,0,0,9.31.42c6.965,0,10.15-3.78,10.15-7.91C19.46-11.1,17.22-13.825,12.81-14.525Z" transform="translate(543 5393)" fill="#fff"/>
  </g>
</svg>
