<svg xmlns="http://www.w3.org/2000/svg" width="946" height="541" viewBox="0 0 946 541">
  <g id="Grupo_8812" data-name="Grupo 8812" transform="translate(-480 -2054)">
    <g id="Trazado_17156" data-name="Trazado 17156" transform="translate(480 2054)" fill="#fff">
      <path d="M 945.5 540.5 L 0.5 540.5 L 0.5 0.5 L 945.5 0.5 L 945.5 540.5 Z" stroke="none"/>
      <path d="M 1 1 L 1 540 L 945 540 L 945 1 L 1 1 M 0 0 L 946 0 L 946 541 L 0 541 L 0 0 Z" stroke="none" fill="#454545"/>
    </g>
    <g id="Trazado_17157" data-name="Trazado 17157" transform="translate(480 2474)" fill="#e2f7d9">
      <path d="M 945.5 60.5 L 0.5 60.5 L 0.5 0.5 L 945.5 0.5 L 945.5 60.5 Z" stroke="none"/>
      <path d="M 1 1 L 1 60 L 945 60 L 945 1 L 1 1 M 0 0 L 946 0 L 946 61 L 0 61 L 0 0 Z" stroke="none" fill="#707070"/>
    </g>
    <g id="Trazado_17158" data-name="Trazado 17158" transform="translate(480 2354)" fill="#e2f7d9">
      <path d="M 945.5 60.5 L 0.5 60.5 L 0.5 0.5 L 945.5 0.5 L 945.5 60.5 Z" stroke="none"/>
      <path d="M 1 1 L 1 60 L 945 60 L 945 1 L 1 1 M 0 0 L 946 0 L 946 61 L 0 61 L 0 0 Z" stroke="none" fill="#707070"/>
    </g>
    <g id="Trazado_17159" data-name="Trazado 17159" transform="translate(480 2414)" fill="#bcdeae">
      <path d="M 945.5 60.5 L 0.5 60.5 L 0.5 0.5 L 945.5 0.5 L 945.5 60.5 Z" stroke="none"/>
      <path d="M 1 1 L 1 60 L 945 60 L 945 1 L 1 1 M 0 0 L 946 0 L 946 61 L 0 61 L 0 0 Z" stroke="none" fill="#707070"/>
    </g>
    <g id="Trazado_17160" data-name="Trazado 17160" transform="translate(480 2114)" fill="#e2f7d9">
      <path d="M 945.5 60.5 L 0.5 60.5 L 0.5 0.5 L 945.5 0.5 L 945.5 60.5 Z" stroke="none"/>
      <path d="M 1 1 L 1 60 L 945 60 L 945 1 L 1 1 M 0 0 L 946 0 L 946 61 L 0 61 L 0 0 Z" stroke="none" fill="#707070"/>
    </g>
    <g id="Trazado_17161" data-name="Trazado 17161" transform="translate(480 2054)" fill="#70ad54">
      <path d="M 945.5 60.5 L 0.5 60.5 L 0.5 0.5 L 945.5 0.5 L 945.5 60.5 Z" stroke="none"/>
      <path d="M 1 1 L 1 60 L 945 60 L 945 1 L 1 1 M 0 0 L 946 0 L 946 61 L 0 61 L 0 0 Z" stroke="none" fill="#707070"/>
    </g>
    <path id="Trazado_17162" data-name="Trazado 17162" d="M7.058,0,3.964-10.081H3.885q.167,3.076.167,4.1V0H1.617V-12.85H5.326L8.367-3.023H8.42l3.226-9.826h3.709V0h-2.54V-6.082q0-.431.013-.993t.119-2.988h-.079L9.554,0Zm19.4,0-.932-3.059H20.839L19.907,0H16.972l4.535-12.9h3.331L29.391,0ZM24.873-5.344q-1.292-4.157-1.455-4.7t-.233-.861q-.29,1.125-1.661,5.563ZM34.708,0H31.983V-10.582H28.494V-12.85h9.7v2.268H34.708ZM47.575,0h-7.4V-12.85h7.4v2.232H42.9V-7.8H47.25v2.232H42.9V-2.25h4.676ZM52.98-7.146h.879a3.362,3.362,0,0,0,1.907-.431,1.537,1.537,0,0,0,.615-1.354,1.406,1.406,0,0,0-.628-1.3,3.813,3.813,0,0,0-1.947-.387H52.98Zm0,2.215V0H50.256V-12.85H54a6.408,6.408,0,0,1,3.876.954A3.4,3.4,0,0,1,59.133-9a3.409,3.409,0,0,1-.624,2.017A4.129,4.129,0,0,1,56.742-5.6q2.9,4.333,3.779,5.6H57.5L54.431-4.931ZM62.139,0V-12.85h2.725V0ZM75.964,0l-.932-3.059H70.348L69.416,0H66.48l4.535-12.9h3.331L78.9,0ZM74.382-5.344q-1.292-4.157-1.455-4.7t-.233-.861q-.29,1.125-1.661,5.563ZM80.517,0V-12.85h2.725v10.6h5.212V0Z" transform="translate(520 2092)" fill="#fff"/>
    <g id="Trazado_17163" data-name="Trazado 17163" transform="translate(480 2174)" fill="#bcdeae">
      <path d="M 945.5 60.5 L 0.5 60.5 L 0.5 0.5 L 945.5 0.5 L 945.5 60.5 Z" stroke="none"/>
      <path d="M 1 1 L 1 60 L 945 60 L 945 1 L 1 1 M 0 0 L 946 0 L 946 61 L 0 61 L 0 0 Z" stroke="none" fill="#707070"/>
    </g>
    <g id="Trazado_17164" data-name="Trazado 17164" transform="translate(480 2234)" fill="#e2f7d9">
      <path d="M 945.5 60.5 L 0.5 60.5 L 0.5 0.5 L 945.5 0.5 L 945.5 60.5 Z" stroke="none"/>
      <path d="M 1 1 L 1 60 L 945 60 L 945 1 L 1 1 M 0 0 L 946 0 L 946 61 L 0 61 L 0 0 Z" stroke="none" fill="#707070"/>
    </g>
    <path id="Trazado_17165" data-name="Trazado 17165" d="M7.163,7.768A3.462,3.462,0,0,0,4.315,9.051a5.485,5.485,0,0,0-1.037,3.542,5.522,5.522,0,0,0,1,3.577,3.523,3.523,0,0,0,2.887,1.213,7.586,7.586,0,0,0,1.582-.163q.765-.163,1.591-.417v1.8a9.645,9.645,0,0,1-3.428.571,5.479,5.479,0,0,1-4.333-1.709,7.151,7.151,0,0,1-1.512-4.891A7.9,7.9,0,0,1,1.8,9.068a5.238,5.238,0,0,1,2.123-2.3,6.42,6.42,0,0,1,3.261-.8,8.092,8.092,0,0,1,3.639.826l-.756,1.749A11.285,11.285,0,0,0,8.688,8,4.956,4.956,0,0,0,7.163,7.768ZM18.967,19l-.413-1.354h-.07a3.982,3.982,0,0,1-1.415,1.208,4.475,4.475,0,0,1-1.828.321A3.094,3.094,0,0,1,13,18.4a2.894,2.894,0,0,1-.8-2.188,2.57,2.57,0,0,1,1.116-2.268,6.436,6.436,0,0,1,3.4-.835l1.679-.053V12.54a1.965,1.965,0,0,0-.435-1.393,1.774,1.774,0,0,0-1.349-.461,4.665,4.665,0,0,0-1.433.22,10.811,10.811,0,0,0-1.318.519l-.668-1.477a7.189,7.189,0,0,1,1.731-.628A7.968,7.968,0,0,1,16.7,9.1a4.2,4.2,0,0,1,2.8.809,3.166,3.166,0,0,1,.945,2.54V19Zm-3.076-1.406a2.558,2.558,0,0,0,1.806-.628,2.278,2.278,0,0,0,.681-1.762v-.844l-1.248.053a4.27,4.27,0,0,0-2.123.488,1.482,1.482,0,0,0-.664,1.332,1.3,1.3,0,0,0,.387,1.006A1.661,1.661,0,0,0,15.891,17.594Zm13.966-1.362a2.543,2.543,0,0,1-1.037,2.184,4.966,4.966,0,0,1-2.971.76,7.017,7.017,0,0,1-3.12-.589V16.8a7.66,7.66,0,0,0,3.19.791q1.907,0,1.907-1.151a.912.912,0,0,0-.211-.615,2.5,2.5,0,0,0-.694-.51,11.949,11.949,0,0,0-1.345-.6,6.22,6.22,0,0,1-2.272-1.3,2.407,2.407,0,0,1-.593-1.687,2.216,2.216,0,0,1,1.006-1.938,4.776,4.776,0,0,1,2.738-.69A7.754,7.754,0,0,1,29.7,9.8l-.668,1.556a7.213,7.213,0,0,0-2.646-.65q-1.635,0-1.635.932a.937.937,0,0,0,.426.773,9.374,9.374,0,0,0,1.859.87,8.5,8.5,0,0,1,1.749.853,2.548,2.548,0,0,1,.809.892A2.582,2.582,0,0,1,29.856,16.231Zm6.152,2.944a4.256,4.256,0,0,1-3.353-1.288,5.38,5.38,0,0,1-1.147-3.7,5.41,5.41,0,0,1,1.2-3.771A4.45,4.45,0,0,1,36.176,9.1a6.5,6.5,0,0,1,2.769.571l-.624,1.661a6.255,6.255,0,0,0-2.162-.51q-2.522,0-2.522,3.349a4.01,4.01,0,0,0,.628,2.457,2.175,2.175,0,0,0,1.841.822,5.283,5.283,0,0,0,2.61-.686v1.8a4.079,4.079,0,0,1-1.182.466A7.093,7.093,0,0,1,36.009,19.176ZM47.083,19l-.413-1.354H46.6a3.982,3.982,0,0,1-1.415,1.208,4.475,4.475,0,0,1-1.828.321A3.094,3.094,0,0,1,41.12,18.4a2.894,2.894,0,0,1-.8-2.188,2.57,2.57,0,0,1,1.116-2.268,6.436,6.436,0,0,1,3.4-.835l1.679-.053V12.54a1.965,1.965,0,0,0-.435-1.393,1.774,1.774,0,0,0-1.349-.461,4.665,4.665,0,0,0-1.433.22,10.811,10.811,0,0,0-1.318.519l-.668-1.477a7.189,7.189,0,0,1,1.731-.628A7.968,7.968,0,0,1,44.815,9.1a4.2,4.2,0,0,1,2.8.809,3.166,3.166,0,0,1,.945,2.54V19Zm-3.076-1.406a2.558,2.558,0,0,0,1.806-.628,2.278,2.278,0,0,0,.681-1.762v-.844l-1.248.053a4.27,4.27,0,0,0-2.123.488,1.482,1.482,0,0,0-.664,1.332,1.3,1.3,0,0,0,.387,1.006A1.661,1.661,0,0,0,44.007,17.594ZM56.373,9.1a4.972,4.972,0,0,1,1.028.088l-.2,1.925a3.9,3.9,0,0,0-.914-.105,2.645,2.645,0,0,0-2.008.809,2.923,2.923,0,0,0-.769,2.1V19H51.442V9.279H53.06l.272,1.714h.105A3.851,3.851,0,0,1,54.7,9.613,3,3,0,0,1,56.373,9.1Zm4.9,9.9H59.2V9.279h2.065ZM59.08,6.7a1.144,1.144,0,0,1,.3-.853,1.182,1.182,0,0,1,.866-.3,1.156,1.156,0,0,1,.848.3,1.144,1.144,0,0,1,.3.853,1.122,1.122,0,0,1-.3.831,1.147,1.147,0,0,1-.848.3,1.171,1.171,0,0,1-.866-.3A1.122,1.122,0,0,1,59.08,6.7ZM66.287,19H64.222V5.324h2.065Zm5.019,0H69.24V5.324h2.065Zm9.035,0-.413-1.354h-.07a3.982,3.982,0,0,1-1.415,1.208,4.475,4.475,0,0,1-1.828.321,3.094,3.094,0,0,1-2.237-.773,2.894,2.894,0,0,1-.8-2.188,2.57,2.57,0,0,1,1.116-2.268,6.436,6.436,0,0,1,3.4-.835l1.679-.053V12.54a1.965,1.965,0,0,0-.435-1.393,1.774,1.774,0,0,0-1.349-.461,4.665,4.665,0,0,0-1.433.22,10.811,10.811,0,0,0-1.318.519l-.668-1.477A7.189,7.189,0,0,1,76.3,9.319,7.968,7.968,0,0,1,78.073,9.1a4.2,4.2,0,0,1,2.8.809,3.166,3.166,0,0,1,.945,2.54V19Zm-3.076-1.406a2.558,2.558,0,0,0,1.806-.628,2.278,2.278,0,0,0,.681-1.762v-.844l-1.248.053a4.27,4.27,0,0,0-2.123.488,1.482,1.482,0,0,0-.664,1.332,1.3,1.3,0,0,0,.387,1.006A1.661,1.661,0,0,0,77.265,17.594Zm15.39,1.582a3.386,3.386,0,0,1-2.839-1.318,5.926,5.926,0,0,1-1.02-3.7,5.945,5.945,0,0,1,1.033-3.722A3.418,3.418,0,0,1,92.689,9.1a3.351,3.351,0,0,1,2.918,1.415h.105a12.381,12.381,0,0,1-.149-1.652V5.324h2.074V19H96.021l-.36-1.274h-.1A3.3,3.3,0,0,1,92.654,19.176Zm.554-1.67a2.248,2.248,0,0,0,1.854-.716,3.771,3.771,0,0,0,.6-2.325v-.29a4.357,4.357,0,0,0-.6-2.61,2.217,2.217,0,0,0-1.872-.773,1.9,1.9,0,0,0-1.679.883,4.527,4.527,0,0,0-.589,2.518,4.414,4.414,0,0,0,.571,2.465A1.929,1.929,0,0,0,93.208,17.506Zm11.628,1.67a4.7,4.7,0,0,1-3.546-1.323,5.021,5.021,0,0,1-1.279-3.643,5.509,5.509,0,0,1,1.187-3.744A4.1,4.1,0,0,1,104.458,9.1a4.006,4.006,0,0,1,3.041,1.169,4.467,4.467,0,0,1,1.116,3.217v1.116h-6.478a3.193,3.193,0,0,0,.765,2.175,2.663,2.663,0,0,0,2.03.76,7.5,7.5,0,0,0,1.6-.163,8.408,8.408,0,0,0,1.6-.541v1.679a6.342,6.342,0,0,1-1.529.51A9.378,9.378,0,0,1,104.836,19.176Zm-.378-8.508a2.075,2.075,0,0,0-1.578.624,2.974,2.974,0,0,0-.708,1.819h4.412a2.691,2.691,0,0,0-.58-1.824A1.984,1.984,0,0,0,104.458,10.668ZM121.72,19l-.413-1.354h-.07a3.982,3.982,0,0,1-1.415,1.208,4.475,4.475,0,0,1-1.828.321,3.094,3.094,0,0,1-2.237-.773,2.894,2.894,0,0,1-.8-2.188,2.57,2.57,0,0,1,1.116-2.268,6.436,6.436,0,0,1,3.4-.835l1.679-.053V12.54a1.965,1.965,0,0,0-.435-1.393,1.774,1.774,0,0,0-1.349-.461,4.665,4.665,0,0,0-1.433.22,10.811,10.811,0,0,0-1.318.519l-.668-1.477a7.189,7.189,0,0,1,1.731-.628,7.968,7.968,0,0,1,1.775-.215,4.2,4.2,0,0,1,2.8.809,3.166,3.166,0,0,1,.945,2.54V19Zm-3.076-1.406a2.558,2.558,0,0,0,1.806-.628,2.278,2.278,0,0,0,.681-1.762v-.844l-1.248.053a4.27,4.27,0,0,0-2.123.488,1.482,1.482,0,0,0-.664,1.332,1.3,1.3,0,0,0,.387,1.006A1.661,1.661,0,0,0,118.644,17.594ZM131.01,9.1a4.972,4.972,0,0,1,1.028.088l-.2,1.925a3.9,3.9,0,0,0-.914-.105,2.645,2.645,0,0,0-2.008.809,2.923,2.923,0,0,0-.769,2.1V19h-2.065V9.279H127.7l.272,1.714h.105a3.851,3.851,0,0,1,1.261-1.38A3,3,0,0,1,131.01,9.1Zm7.761,0a4.972,4.972,0,0,1,1.028.088l-.2,1.925a3.9,3.9,0,0,0-.914-.105,2.645,2.645,0,0,0-2.008.809,2.923,2.923,0,0,0-.769,2.1V19H133.84V9.279h1.617l.272,1.714h.105a3.851,3.851,0,0,1,1.261-1.38A3,3,0,0,1,138.771,9.1Zm11.092,5.019a5.306,5.306,0,0,1-1.222,3.718,4.377,4.377,0,0,1-3.4,1.336,4.66,4.66,0,0,1-2.408-.615,4.062,4.062,0,0,1-1.608-1.767,6.017,6.017,0,0,1-.562-2.672,5.27,5.27,0,0,1,1.213-3.691A4.4,4.4,0,0,1,145.292,9.1a4.282,4.282,0,0,1,3.34,1.358A5.245,5.245,0,0,1,149.862,14.122Zm-7.075,0q0,3.366,2.487,3.366,2.461,0,2.461-3.366,0-3.331-2.479-3.331a2.113,2.113,0,0,0-1.885.861A4.383,4.383,0,0,0,142.787,14.122ZM158.555,19h-7.374V17.726l4.913-6.864h-4.614V9.279h6.935v1.441l-4.808,6.7h4.948Z" transform="translate(520 2129)" fill="#00223d"/>
    <path id="Trazado_17166" data-name="Trazado 17166" d="M7.163,7.768A3.462,3.462,0,0,0,4.315,9.051a5.485,5.485,0,0,0-1.037,3.542,5.522,5.522,0,0,0,1,3.577,3.523,3.523,0,0,0,2.887,1.213,7.586,7.586,0,0,0,1.582-.163q.765-.163,1.591-.417v1.8a9.645,9.645,0,0,1-3.428.571,5.479,5.479,0,0,1-4.333-1.709,7.151,7.151,0,0,1-1.512-4.891A7.9,7.9,0,0,1,1.8,9.068a5.238,5.238,0,0,1,2.123-2.3,6.42,6.42,0,0,1,3.261-.8,8.092,8.092,0,0,1,3.639.826l-.756,1.749A11.285,11.285,0,0,0,8.688,8,4.956,4.956,0,0,0,7.163,7.768ZM18.967,19l-.413-1.354h-.07a3.982,3.982,0,0,1-1.415,1.208,4.475,4.475,0,0,1-1.828.321A3.094,3.094,0,0,1,13,18.4a2.894,2.894,0,0,1-.8-2.188,2.57,2.57,0,0,1,1.116-2.268,6.436,6.436,0,0,1,3.4-.835l1.679-.053V12.54a1.965,1.965,0,0,0-.435-1.393,1.774,1.774,0,0,0-1.349-.461,4.665,4.665,0,0,0-1.433.22,10.811,10.811,0,0,0-1.318.519l-.668-1.477a7.189,7.189,0,0,1,1.731-.628A7.968,7.968,0,0,1,16.7,9.1a4.2,4.2,0,0,1,2.8.809,3.166,3.166,0,0,1,.945,2.54V19Zm-3.076-1.406a2.558,2.558,0,0,0,1.806-.628,2.278,2.278,0,0,0,.681-1.762v-.844l-1.248.053a4.27,4.27,0,0,0-2.123.488,1.482,1.482,0,0,0-.664,1.332,1.3,1.3,0,0,0,.387,1.006A1.661,1.661,0,0,0,15.891,17.594Zm13.966-1.362a2.543,2.543,0,0,1-1.037,2.184,4.966,4.966,0,0,1-2.971.76,7.017,7.017,0,0,1-3.12-.589V16.8a7.66,7.66,0,0,0,3.19.791q1.907,0,1.907-1.151a.912.912,0,0,0-.211-.615,2.5,2.5,0,0,0-.694-.51,11.949,11.949,0,0,0-1.345-.6,6.22,6.22,0,0,1-2.272-1.3,2.407,2.407,0,0,1-.593-1.687,2.216,2.216,0,0,1,1.006-1.938,4.776,4.776,0,0,1,2.738-.69A7.754,7.754,0,0,1,29.7,9.8l-.668,1.556a7.213,7.213,0,0,0-2.646-.65q-1.635,0-1.635.932a.937.937,0,0,0,.426.773,9.374,9.374,0,0,0,1.859.87,8.5,8.5,0,0,1,1.749.853,2.548,2.548,0,0,1,.809.892A2.582,2.582,0,0,1,29.856,16.231Zm6.152,2.944a4.256,4.256,0,0,1-3.353-1.288,5.38,5.38,0,0,1-1.147-3.7,5.41,5.41,0,0,1,1.2-3.771A4.45,4.45,0,0,1,36.176,9.1a6.5,6.5,0,0,1,2.769.571l-.624,1.661a6.255,6.255,0,0,0-2.162-.51q-2.522,0-2.522,3.349a4.01,4.01,0,0,0,.628,2.457,2.175,2.175,0,0,0,1.841.822,5.283,5.283,0,0,0,2.61-.686v1.8a4.079,4.079,0,0,1-1.182.466A7.093,7.093,0,0,1,36.009,19.176ZM47.083,19l-.413-1.354H46.6a3.982,3.982,0,0,1-1.415,1.208,4.475,4.475,0,0,1-1.828.321A3.094,3.094,0,0,1,41.12,18.4a2.894,2.894,0,0,1-.8-2.188,2.57,2.57,0,0,1,1.116-2.268,6.436,6.436,0,0,1,3.4-.835l1.679-.053V12.54a1.965,1.965,0,0,0-.435-1.393,1.774,1.774,0,0,0-1.349-.461,4.665,4.665,0,0,0-1.433.22,10.811,10.811,0,0,0-1.318.519l-.668-1.477a7.189,7.189,0,0,1,1.731-.628A7.968,7.968,0,0,1,44.815,9.1a4.2,4.2,0,0,1,2.8.809,3.166,3.166,0,0,1,.945,2.54V19Zm-3.076-1.406a2.558,2.558,0,0,0,1.806-.628,2.278,2.278,0,0,0,.681-1.762v-.844l-1.248.053a4.27,4.27,0,0,0-2.123.488,1.482,1.482,0,0,0-.664,1.332,1.3,1.3,0,0,0,.387,1.006A1.661,1.661,0,0,0,44.007,17.594ZM56.373,9.1a4.972,4.972,0,0,1,1.028.088l-.2,1.925a3.9,3.9,0,0,0-.914-.105,2.645,2.645,0,0,0-2.008.809,2.923,2.923,0,0,0-.769,2.1V19H51.442V9.279H53.06l.272,1.714h.105A3.851,3.851,0,0,1,54.7,9.613,3,3,0,0,1,56.373,9.1Zm4.9,9.9H59.2V9.279h2.065ZM59.08,6.7a1.144,1.144,0,0,1,.3-.853,1.182,1.182,0,0,1,.866-.3,1.156,1.156,0,0,1,.848.3,1.144,1.144,0,0,1,.3.853,1.122,1.122,0,0,1-.3.831,1.147,1.147,0,0,1-.848.3,1.171,1.171,0,0,1-.866-.3A1.122,1.122,0,0,1,59.08,6.7ZM66.287,19H64.222V5.324h2.065Zm5.019,0H69.24V5.324h2.065Zm9.035,0-.413-1.354h-.07a3.982,3.982,0,0,1-1.415,1.208,4.475,4.475,0,0,1-1.828.321,3.094,3.094,0,0,1-2.237-.773,2.894,2.894,0,0,1-.8-2.188,2.57,2.57,0,0,1,1.116-2.268,6.436,6.436,0,0,1,3.4-.835l1.679-.053V12.54a1.965,1.965,0,0,0-.435-1.393,1.774,1.774,0,0,0-1.349-.461,4.665,4.665,0,0,0-1.433.22,10.811,10.811,0,0,0-1.318.519l-.668-1.477A7.189,7.189,0,0,1,76.3,9.319,7.968,7.968,0,0,1,78.073,9.1a4.2,4.2,0,0,1,2.8.809,3.166,3.166,0,0,1,.945,2.54V19Zm-3.076-1.406a2.558,2.558,0,0,0,1.806-.628,2.278,2.278,0,0,0,.681-1.762v-.844l-1.248.053a4.27,4.27,0,0,0-2.123.488,1.482,1.482,0,0,0-.664,1.332,1.3,1.3,0,0,0,.387,1.006A1.661,1.661,0,0,0,77.265,17.594Zm15.39,1.582a3.386,3.386,0,0,1-2.839-1.318,5.926,5.926,0,0,1-1.02-3.7,5.945,5.945,0,0,1,1.033-3.722A3.418,3.418,0,0,1,92.689,9.1a3.351,3.351,0,0,1,2.918,1.415h.105a12.381,12.381,0,0,1-.149-1.652V5.324h2.074V19H96.021l-.36-1.274h-.1A3.3,3.3,0,0,1,92.654,19.176Zm.554-1.67a2.248,2.248,0,0,0,1.854-.716,3.771,3.771,0,0,0,.6-2.325v-.29a4.357,4.357,0,0,0-.6-2.61,2.217,2.217,0,0,0-1.872-.773,1.9,1.9,0,0,0-1.679.883,4.527,4.527,0,0,0-.589,2.518,4.414,4.414,0,0,0,.571,2.465A1.929,1.929,0,0,0,93.208,17.506Zm11.628,1.67a4.7,4.7,0,0,1-3.546-1.323,5.021,5.021,0,0,1-1.279-3.643,5.509,5.509,0,0,1,1.187-3.744A4.1,4.1,0,0,1,104.458,9.1a4.006,4.006,0,0,1,3.041,1.169,4.467,4.467,0,0,1,1.116,3.217v1.116h-6.478a3.193,3.193,0,0,0,.765,2.175,2.663,2.663,0,0,0,2.03.76,7.5,7.5,0,0,0,1.6-.163,8.408,8.408,0,0,0,1.6-.541v1.679a6.342,6.342,0,0,1-1.529.51A9.378,9.378,0,0,1,104.836,19.176Zm-.378-8.508a2.075,2.075,0,0,0-1.578.624,2.974,2.974,0,0,0-.708,1.819h4.412a2.691,2.691,0,0,0-.58-1.824A1.984,1.984,0,0,0,104.458,10.668ZM121.72,19l-.413-1.354h-.07a3.982,3.982,0,0,1-1.415,1.208,4.475,4.475,0,0,1-1.828.321,3.094,3.094,0,0,1-2.237-.773,2.894,2.894,0,0,1-.8-2.188,2.57,2.57,0,0,1,1.116-2.268,6.436,6.436,0,0,1,3.4-.835l1.679-.053V12.54a1.965,1.965,0,0,0-.435-1.393,1.774,1.774,0,0,0-1.349-.461,4.665,4.665,0,0,0-1.433.22,10.811,10.811,0,0,0-1.318.519l-.668-1.477a7.189,7.189,0,0,1,1.731-.628,7.968,7.968,0,0,1,1.775-.215,4.2,4.2,0,0,1,2.8.809,3.166,3.166,0,0,1,.945,2.54V19Zm-3.076-1.406a2.558,2.558,0,0,0,1.806-.628,2.278,2.278,0,0,0,.681-1.762v-.844l-1.248.053a4.27,4.27,0,0,0-2.123.488,1.482,1.482,0,0,0-.664,1.332,1.3,1.3,0,0,0,.387,1.006A1.661,1.661,0,0,0,118.644,17.594ZM131.01,9.1a4.972,4.972,0,0,1,1.028.088l-.2,1.925a3.9,3.9,0,0,0-.914-.105,2.645,2.645,0,0,0-2.008.809,2.923,2.923,0,0,0-.769,2.1V19h-2.065V9.279H127.7l.272,1.714h.105a3.851,3.851,0,0,1,1.261-1.38A3,3,0,0,1,131.01,9.1Zm7.761,0a4.972,4.972,0,0,1,1.028.088l-.2,1.925a3.9,3.9,0,0,0-.914-.105,2.645,2.645,0,0,0-2.008.809,2.923,2.923,0,0,0-.769,2.1V19H133.84V9.279h1.617l.272,1.714h.105a3.851,3.851,0,0,1,1.261-1.38A3,3,0,0,1,138.771,9.1Zm11.092,5.019a5.306,5.306,0,0,1-1.222,3.718,4.377,4.377,0,0,1-3.4,1.336,4.66,4.66,0,0,1-2.408-.615,4.062,4.062,0,0,1-1.608-1.767,6.017,6.017,0,0,1-.562-2.672,5.27,5.27,0,0,1,1.213-3.691A4.4,4.4,0,0,1,145.292,9.1a4.282,4.282,0,0,1,3.34,1.358A5.245,5.245,0,0,1,149.862,14.122Zm-7.075,0q0,3.366,2.487,3.366,2.461,0,2.461-3.366,0-3.331-2.479-3.331a2.113,2.113,0,0,0-1.885.861A4.383,4.383,0,0,0,142.787,14.122ZM158.555,19h-7.374V17.726l4.913-6.864h-4.614V9.279h6.935v1.441l-4.808,6.7h4.948Z" transform="translate(520 2193)" fill="#00223d"/>
    <path id="Trazado_17167" data-name="Trazado 17167" d="M7.163,7.768A3.462,3.462,0,0,0,4.315,9.051a5.485,5.485,0,0,0-1.037,3.542,5.522,5.522,0,0,0,1,3.577,3.523,3.523,0,0,0,2.887,1.213,7.586,7.586,0,0,0,1.582-.163q.765-.163,1.591-.417v1.8a9.645,9.645,0,0,1-3.428.571,5.479,5.479,0,0,1-4.333-1.709,7.151,7.151,0,0,1-1.512-4.891A7.9,7.9,0,0,1,1.8,9.068a5.238,5.238,0,0,1,2.123-2.3,6.42,6.42,0,0,1,3.261-.8,8.092,8.092,0,0,1,3.639.826l-.756,1.749A11.285,11.285,0,0,0,8.688,8,4.956,4.956,0,0,0,7.163,7.768ZM18.967,19l-.413-1.354h-.07a3.982,3.982,0,0,1-1.415,1.208,4.475,4.475,0,0,1-1.828.321A3.094,3.094,0,0,1,13,18.4a2.894,2.894,0,0,1-.8-2.188,2.57,2.57,0,0,1,1.116-2.268,6.436,6.436,0,0,1,3.4-.835l1.679-.053V12.54a1.965,1.965,0,0,0-.435-1.393,1.774,1.774,0,0,0-1.349-.461,4.665,4.665,0,0,0-1.433.22,10.811,10.811,0,0,0-1.318.519l-.668-1.477a7.189,7.189,0,0,1,1.731-.628A7.968,7.968,0,0,1,16.7,9.1a4.2,4.2,0,0,1,2.8.809,3.166,3.166,0,0,1,.945,2.54V19Zm-3.076-1.406a2.558,2.558,0,0,0,1.806-.628,2.278,2.278,0,0,0,.681-1.762v-.844l-1.248.053a4.27,4.27,0,0,0-2.123.488,1.482,1.482,0,0,0-.664,1.332,1.3,1.3,0,0,0,.387,1.006A1.661,1.661,0,0,0,15.891,17.594Zm13.966-1.362a2.543,2.543,0,0,1-1.037,2.184,4.966,4.966,0,0,1-2.971.76,7.017,7.017,0,0,1-3.12-.589V16.8a7.66,7.66,0,0,0,3.19.791q1.907,0,1.907-1.151a.912.912,0,0,0-.211-.615,2.5,2.5,0,0,0-.694-.51,11.949,11.949,0,0,0-1.345-.6,6.22,6.22,0,0,1-2.272-1.3,2.407,2.407,0,0,1-.593-1.687,2.216,2.216,0,0,1,1.006-1.938,4.776,4.776,0,0,1,2.738-.69A7.754,7.754,0,0,1,29.7,9.8l-.668,1.556a7.213,7.213,0,0,0-2.646-.65q-1.635,0-1.635.932a.937.937,0,0,0,.426.773,9.374,9.374,0,0,0,1.859.87,8.5,8.5,0,0,1,1.749.853,2.548,2.548,0,0,1,.809.892A2.582,2.582,0,0,1,29.856,16.231Zm6.152,2.944a4.256,4.256,0,0,1-3.353-1.288,5.38,5.38,0,0,1-1.147-3.7,5.41,5.41,0,0,1,1.2-3.771A4.45,4.45,0,0,1,36.176,9.1a6.5,6.5,0,0,1,2.769.571l-.624,1.661a6.255,6.255,0,0,0-2.162-.51q-2.522,0-2.522,3.349a4.01,4.01,0,0,0,.628,2.457,2.175,2.175,0,0,0,1.841.822,5.283,5.283,0,0,0,2.61-.686v1.8a4.079,4.079,0,0,1-1.182.466A7.093,7.093,0,0,1,36.009,19.176ZM47.083,19l-.413-1.354H46.6a3.982,3.982,0,0,1-1.415,1.208,4.475,4.475,0,0,1-1.828.321A3.094,3.094,0,0,1,41.12,18.4a2.894,2.894,0,0,1-.8-2.188,2.57,2.57,0,0,1,1.116-2.268,6.436,6.436,0,0,1,3.4-.835l1.679-.053V12.54a1.965,1.965,0,0,0-.435-1.393,1.774,1.774,0,0,0-1.349-.461,4.665,4.665,0,0,0-1.433.22,10.811,10.811,0,0,0-1.318.519l-.668-1.477a7.189,7.189,0,0,1,1.731-.628A7.968,7.968,0,0,1,44.815,9.1a4.2,4.2,0,0,1,2.8.809,3.166,3.166,0,0,1,.945,2.54V19Zm-3.076-1.406a2.558,2.558,0,0,0,1.806-.628,2.278,2.278,0,0,0,.681-1.762v-.844l-1.248.053a4.27,4.27,0,0,0-2.123.488,1.482,1.482,0,0,0-.664,1.332,1.3,1.3,0,0,0,.387,1.006A1.661,1.661,0,0,0,44.007,17.594ZM56.373,9.1a4.972,4.972,0,0,1,1.028.088l-.2,1.925a3.9,3.9,0,0,0-.914-.105,2.645,2.645,0,0,0-2.008.809,2.923,2.923,0,0,0-.769,2.1V19H51.442V9.279H53.06l.272,1.714h.105A3.851,3.851,0,0,1,54.7,9.613,3,3,0,0,1,56.373,9.1Zm4.9,9.9H59.2V9.279h2.065ZM59.08,6.7a1.144,1.144,0,0,1,.3-.853,1.182,1.182,0,0,1,.866-.3,1.156,1.156,0,0,1,.848.3,1.144,1.144,0,0,1,.3.853,1.122,1.122,0,0,1-.3.831,1.147,1.147,0,0,1-.848.3,1.171,1.171,0,0,1-.866-.3A1.122,1.122,0,0,1,59.08,6.7ZM66.287,19H64.222V5.324h2.065Zm5.019,0H69.24V5.324h2.065Zm9.035,0-.413-1.354h-.07a3.982,3.982,0,0,1-1.415,1.208,4.475,4.475,0,0,1-1.828.321,3.094,3.094,0,0,1-2.237-.773,2.894,2.894,0,0,1-.8-2.188,2.57,2.57,0,0,1,1.116-2.268,6.436,6.436,0,0,1,3.4-.835l1.679-.053V12.54a1.965,1.965,0,0,0-.435-1.393,1.774,1.774,0,0,0-1.349-.461,4.665,4.665,0,0,0-1.433.22,10.811,10.811,0,0,0-1.318.519l-.668-1.477A7.189,7.189,0,0,1,76.3,9.319,7.968,7.968,0,0,1,78.073,9.1a4.2,4.2,0,0,1,2.8.809,3.166,3.166,0,0,1,.945,2.54V19Zm-3.076-1.406a2.558,2.558,0,0,0,1.806-.628,2.278,2.278,0,0,0,.681-1.762v-.844l-1.248.053a4.27,4.27,0,0,0-2.123.488,1.482,1.482,0,0,0-.664,1.332,1.3,1.3,0,0,0,.387,1.006A1.661,1.661,0,0,0,77.265,17.594Zm15.39,1.582a3.386,3.386,0,0,1-2.839-1.318,5.926,5.926,0,0,1-1.02-3.7,5.945,5.945,0,0,1,1.033-3.722A3.418,3.418,0,0,1,92.689,9.1a3.351,3.351,0,0,1,2.918,1.415h.105a12.381,12.381,0,0,1-.149-1.652V5.324h2.074V19H96.021l-.36-1.274h-.1A3.3,3.3,0,0,1,92.654,19.176Zm.554-1.67a2.248,2.248,0,0,0,1.854-.716,3.771,3.771,0,0,0,.6-2.325v-.29a4.357,4.357,0,0,0-.6-2.61,2.217,2.217,0,0,0-1.872-.773,1.9,1.9,0,0,0-1.679.883,4.527,4.527,0,0,0-.589,2.518,4.414,4.414,0,0,0,.571,2.465A1.929,1.929,0,0,0,93.208,17.506Zm11.628,1.67a4.7,4.7,0,0,1-3.546-1.323,5.021,5.021,0,0,1-1.279-3.643,5.509,5.509,0,0,1,1.187-3.744A4.1,4.1,0,0,1,104.458,9.1a4.006,4.006,0,0,1,3.041,1.169,4.467,4.467,0,0,1,1.116,3.217v1.116h-6.478a3.193,3.193,0,0,0,.765,2.175,2.663,2.663,0,0,0,2.03.76,7.5,7.5,0,0,0,1.6-.163,8.408,8.408,0,0,0,1.6-.541v1.679a6.342,6.342,0,0,1-1.529.51A9.378,9.378,0,0,1,104.836,19.176Zm-.378-8.508a2.075,2.075,0,0,0-1.578.624,2.974,2.974,0,0,0-.708,1.819h4.412a2.691,2.691,0,0,0-.58-1.824A1.984,1.984,0,0,0,104.458,10.668ZM121.72,19l-.413-1.354h-.07a3.982,3.982,0,0,1-1.415,1.208,4.475,4.475,0,0,1-1.828.321,3.094,3.094,0,0,1-2.237-.773,2.894,2.894,0,0,1-.8-2.188,2.57,2.57,0,0,1,1.116-2.268,6.436,6.436,0,0,1,3.4-.835l1.679-.053V12.54a1.965,1.965,0,0,0-.435-1.393,1.774,1.774,0,0,0-1.349-.461,4.665,4.665,0,0,0-1.433.22,10.811,10.811,0,0,0-1.318.519l-.668-1.477a7.189,7.189,0,0,1,1.731-.628,7.968,7.968,0,0,1,1.775-.215,4.2,4.2,0,0,1,2.8.809,3.166,3.166,0,0,1,.945,2.54V19Zm-3.076-1.406a2.558,2.558,0,0,0,1.806-.628,2.278,2.278,0,0,0,.681-1.762v-.844l-1.248.053a4.27,4.27,0,0,0-2.123.488,1.482,1.482,0,0,0-.664,1.332,1.3,1.3,0,0,0,.387,1.006A1.661,1.661,0,0,0,118.644,17.594ZM131.01,9.1a4.972,4.972,0,0,1,1.028.088l-.2,1.925a3.9,3.9,0,0,0-.914-.105,2.645,2.645,0,0,0-2.008.809,2.923,2.923,0,0,0-.769,2.1V19h-2.065V9.279H127.7l.272,1.714h.105a3.851,3.851,0,0,1,1.261-1.38A3,3,0,0,1,131.01,9.1Zm7.761,0a4.972,4.972,0,0,1,1.028.088l-.2,1.925a3.9,3.9,0,0,0-.914-.105,2.645,2.645,0,0,0-2.008.809,2.923,2.923,0,0,0-.769,2.1V19H133.84V9.279h1.617l.272,1.714h.105a3.851,3.851,0,0,1,1.261-1.38A3,3,0,0,1,138.771,9.1Zm11.092,5.019a5.306,5.306,0,0,1-1.222,3.718,4.377,4.377,0,0,1-3.4,1.336,4.66,4.66,0,0,1-2.408-.615,4.062,4.062,0,0,1-1.608-1.767,6.017,6.017,0,0,1-.562-2.672,5.27,5.27,0,0,1,1.213-3.691A4.4,4.4,0,0,1,145.292,9.1a4.282,4.282,0,0,1,3.34,1.358A5.245,5.245,0,0,1,149.862,14.122Zm-7.075,0q0,3.366,2.487,3.366,2.461,0,2.461-3.366,0-3.331-2.479-3.331a2.113,2.113,0,0,0-1.885.861A4.383,4.383,0,0,0,142.787,14.122ZM158.555,19h-7.374V17.726l4.913-6.864h-4.614V9.279h6.935v1.441l-4.808,6.7h4.948Z" transform="translate(520 2252)" fill="#00223d"/>
    <path id="Trazado_17168" data-name="Trazado 17168" d="M9.668,19,8.385,15.432H3.472L2.215,19H0L4.808,6.1H7.093L11.9,19ZM7.831,13.621l-1.2-3.5Q6.5,9.771,6.262,9.016T5.941,7.908a19.7,19.7,0,0,1-.694,2.364l-1.16,3.349Zm12.076,2.61a2.543,2.543,0,0,1-1.037,2.184,4.966,4.966,0,0,1-2.971.76,7.017,7.017,0,0,1-3.12-.589V16.8a7.66,7.66,0,0,0,3.19.791q1.907,0,1.907-1.151a.912.912,0,0,0-.211-.615,2.5,2.5,0,0,0-.694-.51,11.949,11.949,0,0,0-1.345-.6,6.22,6.22,0,0,1-2.272-1.3,2.407,2.407,0,0,1-.593-1.687,2.216,2.216,0,0,1,1.006-1.938,4.776,4.776,0,0,1,2.738-.69,7.754,7.754,0,0,1,3.243.694l-.668,1.556a7.213,7.213,0,0,0-2.646-.65q-1.635,0-1.635.932a.937.937,0,0,0,.426.773,9.374,9.374,0,0,0,1.859.87,8.5,8.5,0,0,1,1.749.853,2.548,2.548,0,0,1,.809.892A2.582,2.582,0,0,1,19.907,16.231Zm6.478,2.944a4.7,4.7,0,0,1-3.546-1.323A5.021,5.021,0,0,1,21.56,14.21a5.509,5.509,0,0,1,1.187-3.744A4.1,4.1,0,0,1,26.007,9.1a4.006,4.006,0,0,1,3.041,1.169,4.467,4.467,0,0,1,1.116,3.217v1.116H23.687a3.193,3.193,0,0,0,.765,2.175,2.663,2.663,0,0,0,2.03.76,7.5,7.5,0,0,0,1.6-.163,8.408,8.408,0,0,0,1.6-.541v1.679a6.342,6.342,0,0,1-1.529.51A9.378,9.378,0,0,1,26.385,19.176Zm-.378-8.508a2.075,2.075,0,0,0-1.578.624,2.974,2.974,0,0,0-.708,1.819h4.412a2.691,2.691,0,0,0-.58-1.824A1.984,1.984,0,0,0,26.007,10.668ZM37.441,9.1a4.972,4.972,0,0,1,1.028.088l-.2,1.925a3.9,3.9,0,0,0-.914-.105,2.645,2.645,0,0,0-2.008.809,2.923,2.923,0,0,0-.769,2.1V19H32.511V9.279h1.617l.272,1.714h.105a3.851,3.851,0,0,1,1.261-1.38A3,3,0,0,1,37.441,9.1Zm7.761,0a4.972,4.972,0,0,1,1.028.088l-.2,1.925a3.9,3.9,0,0,0-.914-.105,2.645,2.645,0,0,0-2.008.809,2.923,2.923,0,0,0-.769,2.1V19H40.271V9.279h1.617l.272,1.714h.105a3.851,3.851,0,0,1,1.261-1.38A3,3,0,0,1,45.2,9.1ZM50.1,19H48.032V9.279H50.1ZM47.927,8.093v-.22q.5-.615,1.033-1.371T49.8,5.21h2.4v.185a18.048,18.048,0,0,1-1.367,1.384A19.27,19.27,0,0,1,49.3,8.093ZM61.6,19H59.528V13.023a2.616,2.616,0,0,0-.453-1.679,1.75,1.75,0,0,0-1.437-.554,2.285,2.285,0,0,0-1.916.773,4.27,4.27,0,0,0-.606,2.593V19H53.051V9.279h1.617l.29,1.274h.105a2.876,2.876,0,0,1,1.248-1.072A4.182,4.182,0,0,1,58.1,9.1q3.5,0,3.5,3.56Z" transform="translate(520 2311)" fill="#00223d"/>
    <path id="Trazado_17169" data-name="Trazado 17169" d="M4.342-6.8h.9a2.986,2.986,0,0,0,1.881-.5,1.738,1.738,0,0,0,.624-1.446A1.782,1.782,0,0,0,7.22-10.16a2.45,2.45,0,0,0-1.639-.457H4.342Zm6.152-2.039A3.927,3.927,0,0,1,9.2-5.669a5.544,5.544,0,0,1-3.687,1.1H4.342V0H1.617V-12.85h4.1a5.459,5.459,0,0,1,3.555,1.006A3.669,3.669,0,0,1,10.494-8.842ZM19.89,0l-.932-3.059H14.273L13.342,0H10.406l4.535-12.9h3.331L22.825,0ZM18.308-5.344q-1.292-4.157-1.455-4.7t-.233-.861q-.29,1.125-1.661,5.563Zm8.859-1.8h.879a3.362,3.362,0,0,0,1.907-.431,1.537,1.537,0,0,0,.615-1.354,1.406,1.406,0,0,0-.628-1.3,3.813,3.813,0,0,0-1.947-.387h-.826Zm0,2.215V0H24.442V-12.85h3.744a6.408,6.408,0,0,1,3.876.954A3.4,3.4,0,0,1,33.319-9,3.409,3.409,0,0,1,32.7-6.983,4.129,4.129,0,0,1,30.929-5.6q2.9,4.333,3.779,5.6H31.685L28.617-4.931ZM41.282,0H38.558V-10.582H35.068V-12.85h9.7v2.268H41.282ZM54.149,0h-7.4V-12.85h7.4v2.232H49.474V-7.8h4.351v2.232H49.474V-2.25h4.676ZM64.415-3.568A3.322,3.322,0,0,1,63.163-.826a5.441,5.441,0,0,1-3.485,1A8.184,8.184,0,0,1,56.039-.6V-3.129a15,15,0,0,0,2.2.817,6.515,6.515,0,0,0,1.648.237,2.343,2.343,0,0,0,1.375-.343,1.172,1.172,0,0,0,.479-1.02,1.125,1.125,0,0,0-.211-.672,2.36,2.36,0,0,0-.62-.567,15.936,15.936,0,0,0-1.666-.87A7.894,7.894,0,0,1,57.48-6.609,3.992,3.992,0,0,1,56.54-7.8a3.386,3.386,0,0,1-.352-1.582,3.321,3.321,0,0,1,1.156-2.681,4.8,4.8,0,0,1,3.195-.976,7.544,7.544,0,0,1,1.912.237,13.14,13.14,0,0,1,1.9.668l-.879,2.118a12.859,12.859,0,0,0-1.7-.589,5.474,5.474,0,0,0-1.323-.167,1.752,1.752,0,0,0-1.187.36,1.189,1.189,0,0,0-.413.94,1.164,1.164,0,0,0,.167.628,1.836,1.836,0,0,0,.532.519,16.441,16.441,0,0,0,1.727.9,6.872,6.872,0,0,1,2.47,1.727A3.371,3.371,0,0,1,64.415-3.568Z" transform="translate(921 2092)" fill="#fff"/>
    <path id="Trazado_17170" data-name="Trazado 17170" d="M7.058,0,3.964-10.081H3.885q.167,3.076.167,4.1V0H1.617V-12.85H5.326L8.367-3.023H8.42l3.226-9.826h3.709V0h-2.54V-6.082q0-.431.013-.993t.119-2.988h-.079L9.554,0Zm19.4,0-.932-3.059H20.839L19.907,0H16.972l4.535-12.9h3.331L29.391,0ZM24.873-5.344q-1.292-4.157-1.455-4.7t-.233-.861q-.29,1.125-1.661,5.563ZM34.708,0H31.983V-10.582H28.494V-12.85h9.7v2.268H34.708ZM47.575,0h-7.4V-12.85h7.4v2.232H42.9V-7.8H47.25v2.232H42.9V-2.25h4.676ZM52.98-7.146h.879a3.362,3.362,0,0,0,1.907-.431,1.537,1.537,0,0,0,.615-1.354,1.406,1.406,0,0,0-.628-1.3,3.813,3.813,0,0,0-1.947-.387H52.98Zm0,2.215V0H50.256V-12.85H54a6.408,6.408,0,0,1,3.876.954A3.4,3.4,0,0,1,59.133-9a3.409,3.409,0,0,1-.624,2.017A4.129,4.129,0,0,1,56.742-5.6q2.9,4.333,3.779,5.6H57.5L54.431-4.931ZM62.139,0V-12.85h2.725V0ZM75.964,0l-.932-3.059H70.348L69.416,0H66.48l4.535-12.9h3.331L78.9,0ZM74.382-5.344q-1.292-4.157-1.455-4.7t-.233-.861q-.29,1.125-1.661,5.563ZM80.517,0V-12.85h2.725v10.6h5.212V0Z" transform="translate(1092 2092)" fill="#fff"/>
    <path id="Trazado_17171" data-name="Trazado 17171" d="M4.342-6.8h.9a2.986,2.986,0,0,0,1.881-.5,1.738,1.738,0,0,0,.624-1.446A1.782,1.782,0,0,0,7.22-10.16a2.45,2.45,0,0,0-1.639-.457H4.342Zm6.152-2.039A3.927,3.927,0,0,1,9.2-5.669a5.544,5.544,0,0,1-3.687,1.1H4.342V0H1.617V-12.85h4.1a5.459,5.459,0,0,1,3.555,1.006A3.669,3.669,0,0,1,10.494-8.842ZM19.89,0l-.932-3.059H14.273L13.342,0H10.406l4.535-12.9h3.331L22.825,0ZM18.308-5.344q-1.292-4.157-1.455-4.7t-.233-.861q-.29,1.125-1.661,5.563Zm8.859-1.8h.879a3.362,3.362,0,0,0,1.907-.431,1.537,1.537,0,0,0,.615-1.354,1.406,1.406,0,0,0-.628-1.3,3.813,3.813,0,0,0-1.947-.387h-.826Zm0,2.215V0H24.442V-12.85h3.744a6.408,6.408,0,0,1,3.876.954A3.4,3.4,0,0,1,33.319-9,3.409,3.409,0,0,1,32.7-6.983,4.129,4.129,0,0,1,30.929-5.6q2.9,4.333,3.779,5.6H31.685L28.617-4.931ZM41.282,0H38.558V-10.582H35.068V-12.85h9.7v2.268H41.282ZM54.149,0h-7.4V-12.85h7.4v2.232H49.474V-7.8h4.351v2.232H49.474V-2.25h4.676ZM64.415-3.568A3.322,3.322,0,0,1,63.163-.826a5.441,5.441,0,0,1-3.485,1A8.184,8.184,0,0,1,56.039-.6V-3.129a15,15,0,0,0,2.2.817,6.515,6.515,0,0,0,1.648.237,2.343,2.343,0,0,0,1.375-.343,1.172,1.172,0,0,0,.479-1.02,1.125,1.125,0,0,0-.211-.672,2.36,2.36,0,0,0-.62-.567,15.936,15.936,0,0,0-1.666-.87A7.894,7.894,0,0,1,57.48-6.609,3.992,3.992,0,0,1,56.54-7.8a3.386,3.386,0,0,1-.352-1.582,3.321,3.321,0,0,1,1.156-2.681,4.8,4.8,0,0,1,3.195-.976,7.544,7.544,0,0,1,1.912.237,13.14,13.14,0,0,1,1.9.668l-.879,2.118a12.859,12.859,0,0,0-1.7-.589,5.474,5.474,0,0,0-1.323-.167,1.752,1.752,0,0,0-1.187.36,1.189,1.189,0,0,0-.413.94,1.164,1.164,0,0,0,.167.628,1.836,1.836,0,0,0,.532.519,16.441,16.441,0,0,0,1.727.9,6.872,6.872,0,0,1,2.47,1.727A3.371,3.371,0,0,1,64.415-3.568Z" transform="translate(1296 2092)" fill="#fff"/>
    <path id="Trazado_17172" data-name="Trazado 17172" d="M12.718,19H10.653V10.7q0-1.485.07-2.355-.2.211-.5.466T8.253,10.431L7.216,9.121,11,6.15h1.723Z" transform="translate(943 2129)" fill="#00223d"/>
    <path id="Trazado_17173" data-name="Trazado 17173" d="M8.965,19H1.7V6.15H8.965V7.926H3.8v3.5H8.64v1.758H3.8v4.034H8.965Zm9.088-2.769a2.543,2.543,0,0,1-1.037,2.184,4.966,4.966,0,0,1-2.971.76,7.017,7.017,0,0,1-3.12-.589V16.8a7.66,7.66,0,0,0,3.19.791q1.907,0,1.907-1.151a.912.912,0,0,0-.211-.615,2.5,2.5,0,0,0-.694-.51,11.949,11.949,0,0,0-1.345-.6,6.22,6.22,0,0,1-2.272-1.3,2.407,2.407,0,0,1-.593-1.687,2.216,2.216,0,0,1,1.006-1.938,4.776,4.776,0,0,1,2.738-.69,7.754,7.754,0,0,1,3.243.694l-.668,1.556a7.213,7.213,0,0,0-2.646-.65q-1.635,0-1.635.932a.937.937,0,0,0,.426.773,9.374,9.374,0,0,0,1.859.87,8.5,8.5,0,0,1,1.749.853,2.548,2.548,0,0,1,.809.892A2.582,2.582,0,0,1,18.053,16.231Zm6.152,2.944a4.256,4.256,0,0,1-3.353-1.288,5.38,5.38,0,0,1-1.147-3.7,5.41,5.41,0,0,1,1.2-3.771A4.45,4.45,0,0,1,24.372,9.1a6.5,6.5,0,0,1,2.769.571l-.624,1.661a6.255,6.255,0,0,0-2.162-.51q-2.522,0-2.522,3.349a4.01,4.01,0,0,0,.628,2.457,2.175,2.175,0,0,0,1.841.822,5.283,5.283,0,0,0,2.61-.686v1.8a4.079,4.079,0,0,1-1.182.466A7.093,7.093,0,0,1,24.205,19.176Zm13.614-5.054A5.306,5.306,0,0,1,36.6,17.84a4.377,4.377,0,0,1-3.4,1.336,4.66,4.66,0,0,1-2.408-.615,4.062,4.062,0,0,1-1.608-1.767,6.017,6.017,0,0,1-.562-2.672,5.27,5.27,0,0,1,1.213-3.691A4.4,4.4,0,0,1,33.249,9.1a4.282,4.282,0,0,1,3.34,1.358A5.245,5.245,0,0,1,37.819,14.122Zm-7.075,0q0,3.366,2.487,3.366,2.461,0,2.461-3.366,0-3.331-2.479-3.331a2.113,2.113,0,0,0-1.885.861A4.383,4.383,0,0,0,30.744,14.122ZM45.123,9.1a4.972,4.972,0,0,1,1.028.088l-.2,1.925a3.9,3.9,0,0,0-.914-.105,2.645,2.645,0,0,0-2.008.809,2.923,2.923,0,0,0-.769,2.1V19H40.192V9.279H41.81l.272,1.714h.105a3.851,3.851,0,0,1,1.261-1.38A3,3,0,0,1,45.123,9.1Zm4.9,9.9H47.953V9.279h2.065ZM47.83,6.7a1.144,1.144,0,0,1,.3-.853,1.182,1.182,0,0,1,.866-.3,1.156,1.156,0,0,1,.848.3,1.144,1.144,0,0,1,.3.853,1.122,1.122,0,0,1-.3.831,1.147,1.147,0,0,1-.848.3,1.171,1.171,0,0,1-.866-.3A1.122,1.122,0,0,1,47.83,6.7ZM59.054,19l-.413-1.354h-.07a3.982,3.982,0,0,1-1.415,1.208,4.475,4.475,0,0,1-1.828.321A3.094,3.094,0,0,1,53.09,18.4a2.894,2.894,0,0,1-.8-2.188A2.57,2.57,0,0,1,53.4,13.946a6.436,6.436,0,0,1,3.4-.835l1.679-.053V12.54a1.965,1.965,0,0,0-.435-1.393,1.774,1.774,0,0,0-1.349-.461,4.665,4.665,0,0,0-1.433.22,10.811,10.811,0,0,0-1.318.519l-.668-1.477a7.189,7.189,0,0,1,1.731-.628A7.968,7.968,0,0,1,56.786,9.1a4.2,4.2,0,0,1,2.8.809,3.166,3.166,0,0,1,.945,2.54V19Zm-3.076-1.406a2.558,2.558,0,0,0,1.806-.628,2.278,2.278,0,0,0,.681-1.762v-.844l-1.248.053a4.27,4.27,0,0,0-2.123.488,1.482,1.482,0,0,0-.664,1.332,1.3,1.3,0,0,0,.387,1.006A1.661,1.661,0,0,0,55.978,17.594Z" transform="translate(1069 2129)" fill="#00223d"/>
    <path id="Trazado_17174" data-name="Trazado 17174" d="M20.718,19H18.653V10.7q0-1.485.07-2.355-.2.211-.5.466t-1.973,1.617l-1.037-1.31L19,6.15h1.723Z" transform="translate(1308 2129)" fill="#00223d"/>
    <path id="Trazado_17175" data-name="Trazado 17175" d="M9.668,19,8.385,15.432H3.472L2.215,19H0L4.808,6.1H7.093L11.9,19ZM7.831,13.621l-1.2-3.5Q6.5,9.771,6.262,9.016T5.941,7.908a19.7,19.7,0,0,1-.694,2.364l-1.16,3.349Zm12.076,2.61a2.543,2.543,0,0,1-1.037,2.184,4.966,4.966,0,0,1-2.971.76,7.017,7.017,0,0,1-3.12-.589V16.8a7.66,7.66,0,0,0,3.19.791q1.907,0,1.907-1.151a.912.912,0,0,0-.211-.615,2.5,2.5,0,0,0-.694-.51,11.949,11.949,0,0,0-1.345-.6,6.22,6.22,0,0,1-2.272-1.3,2.407,2.407,0,0,1-.593-1.687,2.216,2.216,0,0,1,1.006-1.938,4.776,4.776,0,0,1,2.738-.69,7.754,7.754,0,0,1,3.243.694l-.668,1.556a7.213,7.213,0,0,0-2.646-.65q-1.635,0-1.635.932a.937.937,0,0,0,.426.773,9.374,9.374,0,0,0,1.859.87,8.5,8.5,0,0,1,1.749.853,2.548,2.548,0,0,1,.809.892A2.582,2.582,0,0,1,19.907,16.231Zm6.478,2.944a4.7,4.7,0,0,1-3.546-1.323A5.021,5.021,0,0,1,21.56,14.21a5.509,5.509,0,0,1,1.187-3.744A4.1,4.1,0,0,1,26.007,9.1a4.006,4.006,0,0,1,3.041,1.169,4.467,4.467,0,0,1,1.116,3.217v1.116H23.687a3.193,3.193,0,0,0,.765,2.175,2.663,2.663,0,0,0,2.03.76,7.5,7.5,0,0,0,1.6-.163,8.408,8.408,0,0,0,1.6-.541v1.679a6.342,6.342,0,0,1-1.529.51A9.378,9.378,0,0,1,26.385,19.176Zm-.378-8.508a2.075,2.075,0,0,0-1.578.624,2.974,2.974,0,0,0-.708,1.819h4.412a2.691,2.691,0,0,0-.58-1.824A1.984,1.984,0,0,0,26.007,10.668ZM37.441,9.1a4.972,4.972,0,0,1,1.028.088l-.2,1.925a3.9,3.9,0,0,0-.914-.105,2.645,2.645,0,0,0-2.008.809,2.923,2.923,0,0,0-.769,2.1V19H32.511V9.279h1.617l.272,1.714h.105a3.851,3.851,0,0,1,1.261-1.38A3,3,0,0,1,37.441,9.1Zm7.761,0a4.972,4.972,0,0,1,1.028.088l-.2,1.925a3.9,3.9,0,0,0-.914-.105,2.645,2.645,0,0,0-2.008.809,2.923,2.923,0,0,0-.769,2.1V19H40.271V9.279h1.617l.272,1.714h.105a3.851,3.851,0,0,1,1.261-1.38A3,3,0,0,1,45.2,9.1ZM50.1,19H48.032V9.279H50.1ZM47.927,8.093v-.22q.5-.615,1.033-1.371T49.8,5.21h2.4v.185a18.048,18.048,0,0,1-1.367,1.384A19.27,19.27,0,0,1,49.3,8.093ZM61.6,19H59.528V13.023a2.616,2.616,0,0,0-.453-1.679,1.75,1.75,0,0,0-1.437-.554,2.285,2.285,0,0,0-1.916.773,4.27,4.27,0,0,0-.606,2.593V19H53.051V9.279h1.617l.29,1.274h.105a2.876,2.876,0,0,1,1.248-1.072A4.182,4.182,0,0,1,58.1,9.1q3.5,0,3.5,3.56Z" transform="translate(520 2369)" fill="#00223d"/>
    <path id="Trazado_17176" data-name="Trazado 17176" d="M12.718,19H10.653V10.7q0-1.485.07-2.355-.2.211-.5.466T8.253,10.431L7.216,9.121,11,6.15h1.723Z" transform="translate(943 2189)" fill="#00223d"/>
    <path id="Trazado_17177" data-name="Trazado 17177" d="M15.821,16.2H14.089V19H12.077V16.2H6.206V14.605l5.871-8.49h2.013v8.367h1.731Zm-3.744-1.714V11.257q0-1.723.088-2.821h-.07a9.97,9.97,0,0,1-.773,1.406L8.13,14.482Z" transform="translate(943 2252)" fill="#00223d"/>
    <path id="Trazado_17178" data-name="Trazado 17178" d="M12.718,19H10.653V10.7q0-1.485.07-2.355-.2.211-.5.466T8.253,10.431L7.216,9.121,11,6.15h1.723Z" transform="translate(943 2311)" fill="#00223d"/>
    <path id="Trazado_17179" data-name="Trazado 17179" d="M12.718,19H10.653V10.7q0-1.485.07-2.355-.2.211-.5.466T8.253,10.431L7.216,9.121,11,6.15h1.723Z" transform="translate(943 2371)" fill="#00223d"/>
    <path id="Trazado_17180" data-name="Trazado 17180" d="M12.718,19H10.653V10.7q0-1.485.07-2.355-.2.211-.5.466T8.253,10.431L7.216,9.121,11,6.15h1.723Z" transform="translate(943 2432)" fill="#00223d"/>
    <path id="Trazado_17181" data-name="Trazado 17181" d="M12.718,19H10.653V10.7q0-1.485.07-2.355-.2.211-.5.466T8.253,10.431L7.216,9.121,11,6.15h1.723Z" transform="translate(943 2492)" fill="#00223d"/>
    <path id="Trazado_17182" data-name="Trazado 17182" d="M9.668,19,8.385,15.432H3.472L2.215,19H0L4.808,6.1H7.093L11.9,19ZM7.831,13.621l-1.2-3.5Q6.5,9.771,6.262,9.016T5.941,7.908a19.7,19.7,0,0,1-.694,2.364l-1.16,3.349ZM18.308,9.1a4.972,4.972,0,0,1,1.028.088l-.2,1.925a3.9,3.9,0,0,0-.914-.105,2.645,2.645,0,0,0-2.008.809,2.923,2.923,0,0,0-.769,2.1V19H13.377V9.279h1.617l.272,1.714h.105a3.851,3.851,0,0,1,1.261-1.38A3,3,0,0,1,18.308,9.1Zm6.715,10.072a4.7,4.7,0,0,1-3.546-1.323A5.021,5.021,0,0,1,20.2,14.21a5.509,5.509,0,0,1,1.187-3.744A4.1,4.1,0,0,1,24.645,9.1a4.006,4.006,0,0,1,3.041,1.169A4.467,4.467,0,0,1,28.8,13.489v1.116H22.324a3.193,3.193,0,0,0,.765,2.175,2.663,2.663,0,0,0,2.03.76,7.5,7.5,0,0,0,1.6-.163,8.408,8.408,0,0,0,1.6-.541v1.679a6.342,6.342,0,0,1-1.529.51A9.378,9.378,0,0,1,25.022,19.176Zm-.378-8.508a2.075,2.075,0,0,0-1.578.624,2.974,2.974,0,0,0-.708,1.819h4.412a2.691,2.691,0,0,0-.58-1.824A1.984,1.984,0,0,0,24.645,10.668ZM39.7,19H37.626V13.023a2.616,2.616,0,0,0-.453-1.679,1.75,1.75,0,0,0-1.437-.554,2.285,2.285,0,0,0-1.916.773,4.27,4.27,0,0,0-.606,2.593V19H31.148V9.279h1.617l.29,1.274h.105a2.876,2.876,0,0,1,1.248-1.072A4.182,4.182,0,0,1,36.2,9.1q3.5,0,3.5,3.56Zm8.956,0-.413-1.354h-.07a3.982,3.982,0,0,1-1.415,1.208,4.475,4.475,0,0,1-1.828.321,3.094,3.094,0,0,1-2.237-.773,2.894,2.894,0,0,1-.8-2.188A2.57,2.57,0,0,1,43,13.946a6.436,6.436,0,0,1,3.4-.835l1.679-.053V12.54a1.965,1.965,0,0,0-.435-1.393,1.774,1.774,0,0,0-1.349-.461,4.665,4.665,0,0,0-1.433.22,10.811,10.811,0,0,0-1.318.519l-.668-1.477a7.189,7.189,0,0,1,1.731-.628A7.968,7.968,0,0,1,46.389,9.1a4.2,4.2,0,0,1,2.8.809,3.166,3.166,0,0,1,.945,2.54V19ZM45.58,17.594a2.558,2.558,0,0,0,1.806-.628,2.278,2.278,0,0,0,.681-1.762v-.844l-1.248.053A4.27,4.27,0,0,0,44.7,14.9a1.482,1.482,0,0,0-.664,1.332,1.3,1.3,0,0,0,.387,1.006A1.661,1.661,0,0,0,45.58,17.594Z" transform="translate(1069 2193)" fill="#00223d"/>
    <path id="Trazado_17183" data-name="Trazado 17183" d="M6.135,19h-2.1V7.952H.255V6.15H9.914v1.8H6.135Zm7.594,0H11.663V9.279h2.065ZM11.54,6.7a1.144,1.144,0,0,1,.3-.853,1.182,1.182,0,0,1,.866-.3,1.156,1.156,0,0,1,.848.3,1.144,1.144,0,0,1,.3.853,1.122,1.122,0,0,1-.3.831,1.147,1.147,0,0,1-.848.3,1.171,1.171,0,0,1-.866-.3A1.122,1.122,0,0,1,11.54,6.7Zm9.387,12.472a4.7,4.7,0,0,1-3.546-1.323A5.021,5.021,0,0,1,16.1,14.21a5.509,5.509,0,0,1,1.187-3.744A4.1,4.1,0,0,1,20.549,9.1a4.006,4.006,0,0,1,3.041,1.169,4.467,4.467,0,0,1,1.116,3.217v1.116H18.229a3.193,3.193,0,0,0,.765,2.175,2.663,2.663,0,0,0,2.03.76,7.5,7.5,0,0,0,1.6-.163,8.408,8.408,0,0,0,1.6-.541v1.679a6.342,6.342,0,0,1-1.529.51A9.378,9.378,0,0,1,20.927,19.176Zm-.378-8.508a2.075,2.075,0,0,0-1.578.624,2.974,2.974,0,0,0-.708,1.819h4.412a2.691,2.691,0,0,0-.58-1.824A1.984,1.984,0,0,0,20.549,10.668ZM31.983,9.1a4.972,4.972,0,0,1,1.028.088l-.2,1.925a3.9,3.9,0,0,0-.914-.105,2.645,2.645,0,0,0-2.008.809,2.923,2.923,0,0,0-.769,2.1V19H27.053V9.279H28.67l.272,1.714h.105a3.851,3.851,0,0,1,1.261-1.38A3,3,0,0,1,31.983,9.1Zm7.761,0a4.972,4.972,0,0,1,1.028.088l-.2,1.925a3.9,3.9,0,0,0-.914-.105,2.645,2.645,0,0,0-2.008.809,2.923,2.923,0,0,0-.769,2.1V19H34.813V9.279h1.617l.272,1.714h.105a3.851,3.851,0,0,1,1.261-1.38A3,3,0,0,1,39.744,9.1ZM48.3,19l-.413-1.354h-.07A3.982,3.982,0,0,1,46.4,18.855a4.475,4.475,0,0,1-1.828.321,3.094,3.094,0,0,1-2.237-.773,2.894,2.894,0,0,1-.8-2.188,2.57,2.57,0,0,1,1.116-2.268,6.436,6.436,0,0,1,3.4-.835l1.679-.053V12.54a1.965,1.965,0,0,0-.435-1.393,1.774,1.774,0,0,0-1.349-.461,4.665,4.665,0,0,0-1.433.22,10.811,10.811,0,0,0-1.318.519l-.668-1.477a7.189,7.189,0,0,1,1.731-.628A7.968,7.968,0,0,1,46.028,9.1a4.2,4.2,0,0,1,2.8.809,3.166,3.166,0,0,1,.945,2.54V19ZM45.22,17.594a2.558,2.558,0,0,0,1.806-.628,2.278,2.278,0,0,0,.681-1.762v-.844l-1.248.053a4.27,4.27,0,0,0-2.123.488,1.482,1.482,0,0,0-.664,1.332,1.3,1.3,0,0,0,.387,1.006A1.661,1.661,0,0,0,45.22,17.594Z" transform="translate(1069 2249)" fill="#00223d"/>
    <path id="Trazado_17184" data-name="Trazado 17184" d="M9.668,19,8.385,15.432H3.472L2.215,19H0L4.808,6.1H7.093L11.9,19ZM7.831,13.621l-1.2-3.5Q6.5,9.771,6.262,9.016T5.941,7.908a19.7,19.7,0,0,1-.694,2.364l-1.16,3.349ZM18.308,9.1a4.972,4.972,0,0,1,1.028.088l-.2,1.925a3.9,3.9,0,0,0-.914-.105,2.645,2.645,0,0,0-2.008.809,2.923,2.923,0,0,0-.769,2.1V19H13.377V9.279h1.617l.272,1.714h.105a3.851,3.851,0,0,1,1.261-1.38A3,3,0,0,1,18.308,9.1Zm6.715,10.072a4.7,4.7,0,0,1-3.546-1.323A5.021,5.021,0,0,1,20.2,14.21a5.509,5.509,0,0,1,1.187-3.744A4.1,4.1,0,0,1,24.645,9.1a4.006,4.006,0,0,1,3.041,1.169A4.467,4.467,0,0,1,28.8,13.489v1.116H22.324a3.193,3.193,0,0,0,.765,2.175,2.663,2.663,0,0,0,2.03.76,7.5,7.5,0,0,0,1.6-.163,8.408,8.408,0,0,0,1.6-.541v1.679a6.342,6.342,0,0,1-1.529.51A9.378,9.378,0,0,1,25.022,19.176Zm-.378-8.508a2.075,2.075,0,0,0-1.578.624,2.974,2.974,0,0,0-.708,1.819h4.412a2.691,2.691,0,0,0-.58-1.824A1.984,1.984,0,0,0,24.645,10.668ZM39.7,19H37.626V13.023a2.616,2.616,0,0,0-.453-1.679,1.75,1.75,0,0,0-1.437-.554,2.285,2.285,0,0,0-1.916.773,4.27,4.27,0,0,0-.606,2.593V19H31.148V9.279h1.617l.29,1.274h.105a2.876,2.876,0,0,1,1.248-1.072A4.182,4.182,0,0,1,36.2,9.1q3.5,0,3.5,3.56Zm8.956,0-.413-1.354h-.07a3.982,3.982,0,0,1-1.415,1.208,4.475,4.475,0,0,1-1.828.321,3.094,3.094,0,0,1-2.237-.773,2.894,2.894,0,0,1-.8-2.188A2.57,2.57,0,0,1,43,13.946a6.436,6.436,0,0,1,3.4-.835l1.679-.053V12.54a1.965,1.965,0,0,0-.435-1.393,1.774,1.774,0,0,0-1.349-.461,4.665,4.665,0,0,0-1.433.22,10.811,10.811,0,0,0-1.318.519l-.668-1.477a7.189,7.189,0,0,1,1.731-.628A7.968,7.968,0,0,1,46.389,9.1a4.2,4.2,0,0,1,2.8.809,3.166,3.166,0,0,1,.945,2.54V19ZM45.58,17.594a2.558,2.558,0,0,0,1.806-.628,2.278,2.278,0,0,0,.681-1.762v-.844l-1.248.053A4.27,4.27,0,0,0,44.7,14.9a1.482,1.482,0,0,0-.664,1.332,1.3,1.3,0,0,0,.387,1.006A1.661,1.661,0,0,0,45.58,17.594Z" transform="translate(1069 2309)" fill="#00223d"/>
    <path id="Trazado_17185" data-name="Trazado 17185" d="M8.965,19H1.7V6.15H8.965V7.926H3.8v3.5H8.64v1.758H3.8v4.034H8.965Zm9.088-2.769a2.543,2.543,0,0,1-1.037,2.184,4.966,4.966,0,0,1-2.971.76,7.017,7.017,0,0,1-3.12-.589V16.8a7.66,7.66,0,0,0,3.19.791q1.907,0,1.907-1.151a.912.912,0,0,0-.211-.615,2.5,2.5,0,0,0-.694-.51,11.949,11.949,0,0,0-1.345-.6,6.22,6.22,0,0,1-2.272-1.3,2.407,2.407,0,0,1-.593-1.687,2.216,2.216,0,0,1,1.006-1.938,4.776,4.776,0,0,1,2.738-.69,7.754,7.754,0,0,1,3.243.694l-.668,1.556a7.213,7.213,0,0,0-2.646-.65q-1.635,0-1.635.932a.937.937,0,0,0,.426.773,9.374,9.374,0,0,0,1.859.87,8.5,8.5,0,0,1,1.749.853,2.548,2.548,0,0,1,.809.892A2.582,2.582,0,0,1,18.053,16.231Zm6.152,2.944a4.256,4.256,0,0,1-3.353-1.288,5.38,5.38,0,0,1-1.147-3.7,5.41,5.41,0,0,1,1.2-3.771A4.45,4.45,0,0,1,24.372,9.1a6.5,6.5,0,0,1,2.769.571l-.624,1.661a6.255,6.255,0,0,0-2.162-.51q-2.522,0-2.522,3.349a4.01,4.01,0,0,0,.628,2.457,2.175,2.175,0,0,0,1.841.822,5.283,5.283,0,0,0,2.61-.686v1.8a4.079,4.079,0,0,1-1.182.466A7.093,7.093,0,0,1,24.205,19.176Zm13.614-5.054A5.306,5.306,0,0,1,36.6,17.84a4.377,4.377,0,0,1-3.4,1.336,4.66,4.66,0,0,1-2.408-.615,4.062,4.062,0,0,1-1.608-1.767,6.017,6.017,0,0,1-.562-2.672,5.27,5.27,0,0,1,1.213-3.691A4.4,4.4,0,0,1,33.249,9.1a4.282,4.282,0,0,1,3.34,1.358A5.245,5.245,0,0,1,37.819,14.122Zm-7.075,0q0,3.366,2.487,3.366,2.461,0,2.461-3.366,0-3.331-2.479-3.331a2.113,2.113,0,0,0-1.885.861A4.383,4.383,0,0,0,30.744,14.122ZM45.123,9.1a4.972,4.972,0,0,1,1.028.088l-.2,1.925a3.9,3.9,0,0,0-.914-.105,2.645,2.645,0,0,0-2.008.809,2.923,2.923,0,0,0-.769,2.1V19H40.192V9.279H41.81l.272,1.714h.105a3.851,3.851,0,0,1,1.261-1.38A3,3,0,0,1,45.123,9.1Zm4.9,9.9H47.953V9.279h2.065ZM47.83,6.7a1.144,1.144,0,0,1,.3-.853,1.182,1.182,0,0,1,.866-.3,1.156,1.156,0,0,1,.848.3,1.144,1.144,0,0,1,.3.853,1.122,1.122,0,0,1-.3.831,1.147,1.147,0,0,1-.848.3,1.171,1.171,0,0,1-.866-.3A1.122,1.122,0,0,1,47.83,6.7ZM59.054,19l-.413-1.354h-.07a3.982,3.982,0,0,1-1.415,1.208,4.475,4.475,0,0,1-1.828.321A3.094,3.094,0,0,1,53.09,18.4a2.894,2.894,0,0,1-.8-2.188A2.57,2.57,0,0,1,53.4,13.946a6.436,6.436,0,0,1,3.4-.835l1.679-.053V12.54a1.965,1.965,0,0,0-.435-1.393,1.774,1.774,0,0,0-1.349-.461,4.665,4.665,0,0,0-1.433.22,10.811,10.811,0,0,0-1.318.519l-.668-1.477a7.189,7.189,0,0,1,1.731-.628A7.968,7.968,0,0,1,56.786,9.1a4.2,4.2,0,0,1,2.8.809,3.166,3.166,0,0,1,.945,2.54V19Zm-3.076-1.406a2.558,2.558,0,0,0,1.806-.628,2.278,2.278,0,0,0,.681-1.762v-.844l-1.248.053a4.27,4.27,0,0,0-2.123.488,1.482,1.482,0,0,0-.664,1.332,1.3,1.3,0,0,0,.387,1.006A1.661,1.661,0,0,0,55.978,17.594Z" transform="translate(1069 2371)" fill="#00223d"/>
    <path id="Trazado_17186" data-name="Trazado 17186" d="M7.163,7.768A3.462,3.462,0,0,0,4.315,9.051a5.485,5.485,0,0,0-1.037,3.542,5.522,5.522,0,0,0,1,3.577,3.523,3.523,0,0,0,2.887,1.213,7.586,7.586,0,0,0,1.582-.163q.765-.163,1.591-.417v1.8a9.645,9.645,0,0,1-3.428.571,5.479,5.479,0,0,1-4.333-1.709,7.151,7.151,0,0,1-1.512-4.891A7.9,7.9,0,0,1,1.8,9.068a5.238,5.238,0,0,1,2.123-2.3,6.42,6.42,0,0,1,3.261-.8,8.092,8.092,0,0,1,3.639.826l-.756,1.749A11.285,11.285,0,0,0,8.688,8,4.956,4.956,0,0,0,7.163,7.768ZM18.967,19l-.413-1.354h-.07a3.982,3.982,0,0,1-1.415,1.208,4.475,4.475,0,0,1-1.828.321A3.094,3.094,0,0,1,13,18.4a2.894,2.894,0,0,1-.8-2.188,2.57,2.57,0,0,1,1.116-2.268,6.436,6.436,0,0,1,3.4-.835l1.679-.053V12.54a1.965,1.965,0,0,0-.435-1.393,1.774,1.774,0,0,0-1.349-.461,4.665,4.665,0,0,0-1.433.22,10.811,10.811,0,0,0-1.318.519l-.668-1.477a7.189,7.189,0,0,1,1.731-.628A7.968,7.968,0,0,1,16.7,9.1a4.2,4.2,0,0,1,2.8.809,3.166,3.166,0,0,1,.945,2.54V19Zm-3.076-1.406a2.558,2.558,0,0,0,1.806-.628,2.278,2.278,0,0,0,.681-1.762v-.844l-1.248.053a4.27,4.27,0,0,0-2.123.488,1.482,1.482,0,0,0-.664,1.332,1.3,1.3,0,0,0,.387,1.006A1.661,1.661,0,0,0,15.891,17.594ZM28.257,9.1a4.972,4.972,0,0,1,1.028.088l-.2,1.925a3.9,3.9,0,0,0-.914-.105,2.645,2.645,0,0,0-2.008.809,2.923,2.923,0,0,0-.769,2.1V19H23.326V9.279h1.617l.272,1.714h.105a3.851,3.851,0,0,1,1.261-1.38A3,3,0,0,1,28.257,9.1Zm7.8,0a3.374,3.374,0,0,1,2.834,1.318,5.944,5.944,0,0,1,1.015,3.7,5.963,5.963,0,0,1-1.028,3.722,3.743,3.743,0,0,1-5.722,0h-.141L32.634,19H31.087V5.324h2.065V8.576q0,.36-.035,1.072t-.053.905h.088A3.28,3.28,0,0,1,36.053,9.1Zm-.536,1.688a2.1,2.1,0,0,0-1.8.734,4.269,4.269,0,0,0-.567,2.457v.141a4.547,4.547,0,0,0,.563,2.571,2.092,2.092,0,0,0,1.837.8,1.862,1.862,0,0,0,1.666-.87,4.615,4.615,0,0,0,.567-2.514Q37.784,10.791,35.517,10.791Zm15.407,3.331A5.306,5.306,0,0,1,49.7,17.84a4.377,4.377,0,0,1-3.4,1.336,4.66,4.66,0,0,1-2.408-.615,4.062,4.062,0,0,1-1.608-1.767,6.017,6.017,0,0,1-.562-2.672,5.27,5.27,0,0,1,1.213-3.691A4.4,4.4,0,0,1,46.354,9.1a4.282,4.282,0,0,1,3.34,1.358A5.245,5.245,0,0,1,50.924,14.122Zm-7.075,0q0,3.366,2.487,3.366,2.461,0,2.461-3.366,0-3.331-2.479-3.331a2.113,2.113,0,0,0-1.885.861A4.383,4.383,0,0,0,43.849,14.122Zm1.134-6.029v-.22q.5-.615,1.033-1.371t.839-1.292h2.4v.185a18.048,18.048,0,0,1-1.367,1.384,19.27,19.27,0,0,1-1.534,1.314ZM61.849,19H59.774V13.023a2.616,2.616,0,0,0-.453-1.679,1.75,1.75,0,0,0-1.437-.554,2.285,2.285,0,0,0-1.916.773,4.27,4.27,0,0,0-.606,2.593V19H53.3V9.279h1.617l.29,1.274h.105a2.876,2.876,0,0,1,1.248-1.072A4.182,4.182,0,0,1,58.351,9.1q3.5,0,3.5,3.56Z" transform="translate(1069 2429)" fill="#00223d"/>
    <g id="Trazado_17187" data-name="Trazado 17187" transform="translate(480 2294)" fill="#bcdeae">
      <path d="M 945.5 60.5 L 0.5 60.5 L 0.5 0.5 L 945.5 0.5 L 945.5 60.5 Z" stroke="none"/>
      <path d="M 1 1 L 1 60 L 945 60 L 945 1 L 1 1 M 0 0 L 946 0 L 946 61 L 0 61 L 0 0 Z" stroke="none" fill="#707070"/>
    </g>
    <path id="Trazado_17188" data-name="Trazado 17188" d="M7.163,7.768A3.462,3.462,0,0,0,4.315,9.051a5.485,5.485,0,0,0-1.037,3.542,5.522,5.522,0,0,0,1,3.577,3.523,3.523,0,0,0,2.887,1.213,7.586,7.586,0,0,0,1.582-.163q.765-.163,1.591-.417v1.8a9.645,9.645,0,0,1-3.428.571,5.479,5.479,0,0,1-4.333-1.709,7.151,7.151,0,0,1-1.512-4.891A7.9,7.9,0,0,1,1.8,9.068a5.238,5.238,0,0,1,2.123-2.3,6.42,6.42,0,0,1,3.261-.8,8.092,8.092,0,0,1,3.639.826l-.756,1.749A11.285,11.285,0,0,0,8.688,8,4.956,4.956,0,0,0,7.163,7.768ZM18.967,19l-.413-1.354h-.07a3.982,3.982,0,0,1-1.415,1.208,4.475,4.475,0,0,1-1.828.321A3.094,3.094,0,0,1,13,18.4a2.894,2.894,0,0,1-.8-2.188,2.57,2.57,0,0,1,1.116-2.268,6.436,6.436,0,0,1,3.4-.835l1.679-.053V12.54a1.965,1.965,0,0,0-.435-1.393,1.774,1.774,0,0,0-1.349-.461,4.665,4.665,0,0,0-1.433.22,10.811,10.811,0,0,0-1.318.519l-.668-1.477a7.189,7.189,0,0,1,1.731-.628A7.968,7.968,0,0,1,16.7,9.1a4.2,4.2,0,0,1,2.8.809,3.166,3.166,0,0,1,.945,2.54V19Zm-3.076-1.406a2.558,2.558,0,0,0,1.806-.628,2.278,2.278,0,0,0,.681-1.762v-.844l-1.248.053a4.27,4.27,0,0,0-2.123.488,1.482,1.482,0,0,0-.664,1.332,1.3,1.3,0,0,0,.387,1.006A1.661,1.661,0,0,0,15.891,17.594Zm13.966-1.362a2.543,2.543,0,0,1-1.037,2.184,4.966,4.966,0,0,1-2.971.76,7.017,7.017,0,0,1-3.12-.589V16.8a7.66,7.66,0,0,0,3.19.791q1.907,0,1.907-1.151a.912.912,0,0,0-.211-.615,2.5,2.5,0,0,0-.694-.51,11.949,11.949,0,0,0-1.345-.6,6.22,6.22,0,0,1-2.272-1.3,2.407,2.407,0,0,1-.593-1.687,2.216,2.216,0,0,1,1.006-1.938,4.776,4.776,0,0,1,2.738-.69A7.754,7.754,0,0,1,29.7,9.8l-.668,1.556a7.213,7.213,0,0,0-2.646-.65q-1.635,0-1.635.932a.937.937,0,0,0,.426.773,9.374,9.374,0,0,0,1.859.87,8.5,8.5,0,0,1,1.749.853,2.548,2.548,0,0,1,.809.892A2.582,2.582,0,0,1,29.856,16.231Zm6.152,2.944a4.256,4.256,0,0,1-3.353-1.288,5.38,5.38,0,0,1-1.147-3.7,5.41,5.41,0,0,1,1.2-3.771A4.45,4.45,0,0,1,36.176,9.1a6.5,6.5,0,0,1,2.769.571l-.624,1.661a6.255,6.255,0,0,0-2.162-.51q-2.522,0-2.522,3.349a4.01,4.01,0,0,0,.628,2.457,2.175,2.175,0,0,0,1.841.822,5.283,5.283,0,0,0,2.61-.686v1.8a4.079,4.079,0,0,1-1.182.466A7.093,7.093,0,0,1,36.009,19.176ZM47.083,19l-.413-1.354H46.6a3.982,3.982,0,0,1-1.415,1.208,4.475,4.475,0,0,1-1.828.321A3.094,3.094,0,0,1,41.12,18.4a2.894,2.894,0,0,1-.8-2.188,2.57,2.57,0,0,1,1.116-2.268,6.436,6.436,0,0,1,3.4-.835l1.679-.053V12.54a1.965,1.965,0,0,0-.435-1.393,1.774,1.774,0,0,0-1.349-.461,4.665,4.665,0,0,0-1.433.22,10.811,10.811,0,0,0-1.318.519l-.668-1.477a7.189,7.189,0,0,1,1.731-.628A7.968,7.968,0,0,1,44.815,9.1a4.2,4.2,0,0,1,2.8.809,3.166,3.166,0,0,1,.945,2.54V19Zm-3.076-1.406a2.558,2.558,0,0,0,1.806-.628,2.278,2.278,0,0,0,.681-1.762v-.844l-1.248.053a4.27,4.27,0,0,0-2.123.488,1.482,1.482,0,0,0-.664,1.332,1.3,1.3,0,0,0,.387,1.006A1.661,1.661,0,0,0,44.007,17.594ZM56.373,9.1a4.972,4.972,0,0,1,1.028.088l-.2,1.925a3.9,3.9,0,0,0-.914-.105,2.645,2.645,0,0,0-2.008.809,2.923,2.923,0,0,0-.769,2.1V19H51.442V9.279H53.06l.272,1.714h.105A3.851,3.851,0,0,1,54.7,9.613,3,3,0,0,1,56.373,9.1Zm4.9,9.9H59.2V9.279h2.065ZM59.08,6.7a1.144,1.144,0,0,1,.3-.853,1.182,1.182,0,0,1,.866-.3,1.156,1.156,0,0,1,.848.3,1.144,1.144,0,0,1,.3.853,1.122,1.122,0,0,1-.3.831,1.147,1.147,0,0,1-.848.3,1.171,1.171,0,0,1-.866-.3A1.122,1.122,0,0,1,59.08,6.7ZM66.287,19H64.222V5.324h2.065Zm5.019,0H69.24V5.324h2.065Zm9.035,0-.413-1.354h-.07a3.982,3.982,0,0,1-1.415,1.208,4.475,4.475,0,0,1-1.828.321,3.094,3.094,0,0,1-2.237-.773,2.894,2.894,0,0,1-.8-2.188,2.57,2.57,0,0,1,1.116-2.268,6.436,6.436,0,0,1,3.4-.835l1.679-.053V12.54a1.965,1.965,0,0,0-.435-1.393,1.774,1.774,0,0,0-1.349-.461,4.665,4.665,0,0,0-1.433.22,10.811,10.811,0,0,0-1.318.519l-.668-1.477A7.189,7.189,0,0,1,76.3,9.319,7.968,7.968,0,0,1,78.073,9.1a4.2,4.2,0,0,1,2.8.809,3.166,3.166,0,0,1,.945,2.54V19Zm-3.076-1.406a2.558,2.558,0,0,0,1.806-.628,2.278,2.278,0,0,0,.681-1.762v-.844l-1.248.053a4.27,4.27,0,0,0-2.123.488,1.482,1.482,0,0,0-.664,1.332,1.3,1.3,0,0,0,.387,1.006A1.661,1.661,0,0,0,77.265,17.594Zm15.39,1.582a3.386,3.386,0,0,1-2.839-1.318,5.926,5.926,0,0,1-1.02-3.7,5.945,5.945,0,0,1,1.033-3.722A3.418,3.418,0,0,1,92.689,9.1a3.351,3.351,0,0,1,2.918,1.415h.105a12.381,12.381,0,0,1-.149-1.652V5.324h2.074V19H96.021l-.36-1.274h-.1A3.3,3.3,0,0,1,92.654,19.176Zm.554-1.67a2.248,2.248,0,0,0,1.854-.716,3.771,3.771,0,0,0,.6-2.325v-.29a4.357,4.357,0,0,0-.6-2.61,2.217,2.217,0,0,0-1.872-.773,1.9,1.9,0,0,0-1.679.883,4.527,4.527,0,0,0-.589,2.518,4.414,4.414,0,0,0,.571,2.465A1.929,1.929,0,0,0,93.208,17.506Zm11.628,1.67a4.7,4.7,0,0,1-3.546-1.323,5.021,5.021,0,0,1-1.279-3.643,5.509,5.509,0,0,1,1.187-3.744A4.1,4.1,0,0,1,104.458,9.1a4.006,4.006,0,0,1,3.041,1.169,4.467,4.467,0,0,1,1.116,3.217v1.116h-6.478a3.193,3.193,0,0,0,.765,2.175,2.663,2.663,0,0,0,2.03.76,7.5,7.5,0,0,0,1.6-.163,8.408,8.408,0,0,0,1.6-.541v1.679a6.342,6.342,0,0,1-1.529.51A9.378,9.378,0,0,1,104.836,19.176Zm-.378-8.508a2.075,2.075,0,0,0-1.578.624,2.974,2.974,0,0,0-.708,1.819h4.412a2.691,2.691,0,0,0-.58-1.824A1.984,1.984,0,0,0,104.458,10.668ZM121.72,19l-.413-1.354h-.07a3.982,3.982,0,0,1-1.415,1.208,4.475,4.475,0,0,1-1.828.321,3.094,3.094,0,0,1-2.237-.773,2.894,2.894,0,0,1-.8-2.188,2.57,2.57,0,0,1,1.116-2.268,6.436,6.436,0,0,1,3.4-.835l1.679-.053V12.54a1.965,1.965,0,0,0-.435-1.393,1.774,1.774,0,0,0-1.349-.461,4.665,4.665,0,0,0-1.433.22,10.811,10.811,0,0,0-1.318.519l-.668-1.477a7.189,7.189,0,0,1,1.731-.628,7.968,7.968,0,0,1,1.775-.215,4.2,4.2,0,0,1,2.8.809,3.166,3.166,0,0,1,.945,2.54V19Zm-3.076-1.406a2.558,2.558,0,0,0,1.806-.628,2.278,2.278,0,0,0,.681-1.762v-.844l-1.248.053a4.27,4.27,0,0,0-2.123.488,1.482,1.482,0,0,0-.664,1.332,1.3,1.3,0,0,0,.387,1.006A1.661,1.661,0,0,0,118.644,17.594ZM131.01,9.1a4.972,4.972,0,0,1,1.028.088l-.2,1.925a3.9,3.9,0,0,0-.914-.105,2.645,2.645,0,0,0-2.008.809,2.923,2.923,0,0,0-.769,2.1V19h-2.065V9.279H127.7l.272,1.714h.105a3.851,3.851,0,0,1,1.261-1.38A3,3,0,0,1,131.01,9.1Zm7.761,0a4.972,4.972,0,0,1,1.028.088l-.2,1.925a3.9,3.9,0,0,0-.914-.105,2.645,2.645,0,0,0-2.008.809,2.923,2.923,0,0,0-.769,2.1V19H133.84V9.279h1.617l.272,1.714h.105a3.851,3.851,0,0,1,1.261-1.38A3,3,0,0,1,138.771,9.1Zm11.092,5.019a5.306,5.306,0,0,1-1.222,3.718,4.377,4.377,0,0,1-3.4,1.336,4.66,4.66,0,0,1-2.408-.615,4.062,4.062,0,0,1-1.608-1.767,6.017,6.017,0,0,1-.562-2.672,5.27,5.27,0,0,1,1.213-3.691A4.4,4.4,0,0,1,145.292,9.1a4.282,4.282,0,0,1,3.34,1.358A5.245,5.245,0,0,1,149.862,14.122Zm-7.075,0q0,3.366,2.487,3.366,2.461,0,2.461-3.366,0-3.331-2.479-3.331a2.113,2.113,0,0,0-1.885.861A4.383,4.383,0,0,0,142.787,14.122ZM158.555,19h-7.374V17.726l4.913-6.864h-4.614V9.279h6.935v1.441l-4.808,6.7h4.948Z" transform="translate(520 2310)" fill="#00223d"/>
    <g id="Trazado_17189" data-name="Trazado 17189" transform="translate(480 2534)" fill="#bcdeae">
      <path d="M 945.5 60.5 L 0.5 60.5 L 0.5 0.5 L 945.5 0.5 L 945.5 60.5 Z" stroke="none"/>
      <path d="M 1 1 L 1 60 L 945 60 L 945 1 L 1 1 M 0 0 L 946 0 L 946 61 L 0 61 L 0 0 Z" stroke="none" fill="#707070"/>
    </g>
    <path id="Trazado_16956" data-name="Trazado 16956" d="M13993.871-326V215" transform="translate(-13116.371 2380)" fill="none" stroke="#2e2e2e" stroke-width="1"/>
    <path id="Trazado_16957" data-name="Trazado 16957" d="M13993.871-326V215" transform="translate(-12968.371 2380)" fill="none" stroke="#2e2e2e" stroke-width="1"/>
    <path id="Trazado_16960" data-name="Trazado 16960" d="M13993.871-326V215" transform="translate(-12741.371 2380)" fill="none" stroke="#2e2e2e" stroke-width="1"/>
    <path id="Trazado_17190" data-name="Trazado 17190" d="M12.718,19H10.653V10.7q0-1.485.07-2.355-.2.211-.5.466T8.253,10.431L7.216,9.121,11,6.15h1.723Z" transform="translate(943 2312)" fill="#00223d"/>
    <path id="Trazado_17191" data-name="Trazado 17191" d="M10.2,10.035A3.747,3.747,0,0,1,8.886,13.12a5.808,5.808,0,0,1-3.753,1.072H3.8V19H1.7V6.15H5.4A5.6,5.6,0,0,1,9,7.135,3.534,3.534,0,0,1,10.2,10.035ZM3.8,12.426H4.913a4,4,0,0,0,2.373-.562,2.047,2.047,0,0,0,.756-1.758,2,2,0,0,0-.677-1.652,3.343,3.343,0,0,0-2.109-.545H3.8ZM14.616,19H12.551V9.279h2.065ZM12.428,6.7a1.144,1.144,0,0,1,.3-.853,1.182,1.182,0,0,1,.866-.3,1.156,1.156,0,0,1,.848.3,1.144,1.144,0,0,1,.3.853,1.122,1.122,0,0,1-.3.831,1.147,1.147,0,0,1-.848.3,1.171,1.171,0,0,1-.866-.3A1.122,1.122,0,0,1,12.428,6.7Zm9.387,12.472a4.7,4.7,0,0,1-3.546-1.323,5.021,5.021,0,0,1-1.279-3.643,5.509,5.509,0,0,1,1.187-3.744A4.1,4.1,0,0,1,21.437,9.1a4.006,4.006,0,0,1,3.041,1.169,4.467,4.467,0,0,1,1.116,3.217v1.116H19.116a3.193,3.193,0,0,0,.765,2.175,2.663,2.663,0,0,0,2.03.76,7.5,7.5,0,0,0,1.6-.163,8.408,8.408,0,0,0,1.6-.541v1.679a6.342,6.342,0,0,1-1.529.51A9.378,9.378,0,0,1,21.814,19.176Zm-.378-8.508a2.075,2.075,0,0,0-1.578.624,2.974,2.974,0,0,0-.708,1.819h4.412a2.691,2.691,0,0,0-.58-1.824A1.984,1.984,0,0,0,21.437,10.668Zm9.782,8.508a3.386,3.386,0,0,1-2.839-1.318,5.926,5.926,0,0,1-1.02-3.7,5.945,5.945,0,0,1,1.033-3.722A3.418,3.418,0,0,1,31.254,9.1a3.351,3.351,0,0,1,2.918,1.415h.105a12.381,12.381,0,0,1-.149-1.652V5.324H36.2V19H34.585l-.36-1.274h-.1A3.3,3.3,0,0,1,31.219,19.176Zm.554-1.67a2.248,2.248,0,0,0,1.854-.716,3.771,3.771,0,0,0,.6-2.325v-.29a4.357,4.357,0,0,0-.6-2.61,2.217,2.217,0,0,0-1.872-.773,1.9,1.9,0,0,0-1.679.883,4.527,4.527,0,0,0-.589,2.518,4.414,4.414,0,0,0,.571,2.465A1.929,1.929,0,0,0,31.772,17.506ZM44.086,9.1a4.972,4.972,0,0,1,1.028.088l-.2,1.925A3.9,3.9,0,0,0,44,11.011a2.645,2.645,0,0,0-2.008.809,2.923,2.923,0,0,0-.769,2.1V19H39.155V9.279h1.617l.272,1.714h.105a3.851,3.851,0,0,1,1.261-1.38A3,3,0,0,1,44.086,9.1ZM52.638,19l-.413-1.354h-.07a3.982,3.982,0,0,1-1.415,1.208,4.475,4.475,0,0,1-1.828.321,3.094,3.094,0,0,1-2.237-.773,2.894,2.894,0,0,1-.8-2.188,2.57,2.57,0,0,1,1.116-2.268,6.436,6.436,0,0,1,3.4-.835l1.679-.053V12.54a1.965,1.965,0,0,0-.435-1.393,1.774,1.774,0,0,0-1.349-.461,4.665,4.665,0,0,0-1.433.22,10.811,10.811,0,0,0-1.318.519l-.668-1.477a7.189,7.189,0,0,1,1.731-.628A7.968,7.968,0,0,1,50.37,9.1a4.2,4.2,0,0,1,2.8.809,3.166,3.166,0,0,1,.945,2.54V19Zm-3.076-1.406a2.558,2.558,0,0,0,1.806-.628,2.278,2.278,0,0,0,.681-1.762v-.844l-1.248.053a4.27,4.27,0,0,0-2.123.488,1.482,1.482,0,0,0-.664,1.332,1.3,1.3,0,0,0,.387,1.006A1.661,1.661,0,0,0,49.562,17.594ZM70.4,10.035a3.747,3.747,0,0,1-1.318,3.085,5.808,5.808,0,0,1-3.753,1.072H63.993V19h-2.1V6.15h3.7a5.6,5.6,0,0,1,3.608.984A3.534,3.534,0,0,1,70.4,10.035Zm-6.407,2.391h1.116a4,4,0,0,0,2.373-.562,2.047,2.047,0,0,0,.756-1.758,2,2,0,0,0-.677-1.652,3.343,3.343,0,0,0-2.109-.545H63.993Zm17.376,1.7a5.306,5.306,0,0,1-1.222,3.718,4.377,4.377,0,0,1-3.4,1.336,4.66,4.66,0,0,1-2.408-.615,4.062,4.062,0,0,1-1.608-1.767,6.017,6.017,0,0,1-.562-2.672,5.27,5.27,0,0,1,1.213-3.691A4.4,4.4,0,0,1,76.8,9.1a4.282,4.282,0,0,1,3.34,1.358A5.245,5.245,0,0,1,81.369,14.122Zm-7.075,0q0,3.366,2.487,3.366,2.461,0,2.461-3.366,0-3.331-2.479-3.331a2.113,2.113,0,0,0-1.885.861A4.383,4.383,0,0,0,74.294,14.122Zm1.134-6.029v-.22q.5-.615,1.033-1.371T77.3,5.21h2.4v.185a18.048,18.048,0,0,1-1.367,1.384A19.27,19.27,0,0,1,76.8,8.093ZM91.934,19H89.859V13.006a2.718,2.718,0,0,0-.422-1.666,1.557,1.557,0,0,0-1.318-.549,2.011,2.011,0,0,0-1.753.778,4.564,4.564,0,0,0-.558,2.588V19H83.742V9.279h1.617l.29,1.274h.105a2.693,2.693,0,0,1,1.173-1.072A3.783,3.783,0,0,1,88.62,9.1a2.956,2.956,0,0,1,2.971,1.529h.141a2.963,2.963,0,0,1,1.213-1.125,3.849,3.849,0,0,1,1.793-.4,3.265,3.265,0,0,1,2.536.879,3.892,3.892,0,0,1,.8,2.681V19H96V13.006a2.7,2.7,0,0,0-.426-1.666,1.569,1.569,0,0,0-1.323-.549,2.05,2.05,0,0,0-1.762.751,3.874,3.874,0,0,0-.558,2.307Zm13.263.176a4.7,4.7,0,0,1-3.546-1.323,5.021,5.021,0,0,1-1.279-3.643,5.509,5.509,0,0,1,1.187-3.744A4.1,4.1,0,0,1,104.818,9.1a4.006,4.006,0,0,1,3.041,1.169,4.467,4.467,0,0,1,1.116,3.217v1.116H102.5a3.193,3.193,0,0,0,.765,2.175,2.663,2.663,0,0,0,2.03.76,7.5,7.5,0,0,0,1.6-.163,8.408,8.408,0,0,0,1.6-.541v1.679a6.342,6.342,0,0,1-1.529.51A9.378,9.378,0,0,1,105.2,19.176Zm-.378-8.508a2.075,2.075,0,0,0-1.578.624,2.974,2.974,0,0,0-.708,1.819h4.412a2.691,2.691,0,0,0-.58-1.824A1.984,1.984,0,0,0,104.818,10.668ZM117.642,19h-7.374V17.726l4.913-6.864h-4.614V9.279H117.5v1.441l-4.808,6.7h4.948Z" transform="translate(520 2492)" fill="#00223d"/>
    <path id="Trazado_17192" data-name="Trazado 17192" d="M7.163,7.768A3.462,3.462,0,0,0,4.315,9.051a5.485,5.485,0,0,0-1.037,3.542,5.522,5.522,0,0,0,1,3.577,3.523,3.523,0,0,0,2.887,1.213,7.586,7.586,0,0,0,1.582-.163q.765-.163,1.591-.417v1.8a9.645,9.645,0,0,1-3.428.571,5.479,5.479,0,0,1-4.333-1.709,7.151,7.151,0,0,1-1.512-4.891A7.9,7.9,0,0,1,1.8,9.068a5.238,5.238,0,0,1,2.123-2.3,6.42,6.42,0,0,1,3.261-.8,8.092,8.092,0,0,1,3.639.826l-.756,1.749A11.285,11.285,0,0,0,8.688,8,4.956,4.956,0,0,0,7.163,7.768ZM18.967,19l-.413-1.354h-.07a3.982,3.982,0,0,1-1.415,1.208,4.475,4.475,0,0,1-1.828.321A3.094,3.094,0,0,1,13,18.4a2.894,2.894,0,0,1-.8-2.188,2.57,2.57,0,0,1,1.116-2.268,6.436,6.436,0,0,1,3.4-.835l1.679-.053V12.54a1.965,1.965,0,0,0-.435-1.393,1.774,1.774,0,0,0-1.349-.461,4.665,4.665,0,0,0-1.433.22,10.811,10.811,0,0,0-1.318.519l-.668-1.477a7.189,7.189,0,0,1,1.731-.628A7.968,7.968,0,0,1,16.7,9.1a4.2,4.2,0,0,1,2.8.809,3.166,3.166,0,0,1,.945,2.54V19Zm-3.076-1.406a2.558,2.558,0,0,0,1.806-.628,2.278,2.278,0,0,0,.681-1.762v-.844l-1.248.053a4.27,4.27,0,0,0-2.123.488,1.482,1.482,0,0,0-.664,1.332,1.3,1.3,0,0,0,.387,1.006A1.661,1.661,0,0,0,15.891,17.594Zm13.966-1.362a2.543,2.543,0,0,1-1.037,2.184,4.966,4.966,0,0,1-2.971.76,7.017,7.017,0,0,1-3.12-.589V16.8a7.66,7.66,0,0,0,3.19.791q1.907,0,1.907-1.151a.912.912,0,0,0-.211-.615,2.5,2.5,0,0,0-.694-.51,11.949,11.949,0,0,0-1.345-.6,6.22,6.22,0,0,1-2.272-1.3,2.407,2.407,0,0,1-.593-1.687,2.216,2.216,0,0,1,1.006-1.938,4.776,4.776,0,0,1,2.738-.69A7.754,7.754,0,0,1,29.7,9.8l-.668,1.556a7.213,7.213,0,0,0-2.646-.65q-1.635,0-1.635.932a.937.937,0,0,0,.426.773,9.374,9.374,0,0,0,1.859.87,8.5,8.5,0,0,1,1.749.853,2.548,2.548,0,0,1,.809.892A2.582,2.582,0,0,1,29.856,16.231Zm6.152,2.944a4.256,4.256,0,0,1-3.353-1.288,5.38,5.38,0,0,1-1.147-3.7,5.41,5.41,0,0,1,1.2-3.771A4.45,4.45,0,0,1,36.176,9.1a6.5,6.5,0,0,1,2.769.571l-.624,1.661a6.255,6.255,0,0,0-2.162-.51q-2.522,0-2.522,3.349a4.01,4.01,0,0,0,.628,2.457,2.175,2.175,0,0,0,1.841.822,5.283,5.283,0,0,0,2.61-.686v1.8a4.079,4.079,0,0,1-1.182.466A7.093,7.093,0,0,1,36.009,19.176ZM47.083,19l-.413-1.354H46.6a3.982,3.982,0,0,1-1.415,1.208,4.475,4.475,0,0,1-1.828.321A3.094,3.094,0,0,1,41.12,18.4a2.894,2.894,0,0,1-.8-2.188,2.57,2.57,0,0,1,1.116-2.268,6.436,6.436,0,0,1,3.4-.835l1.679-.053V12.54a1.965,1.965,0,0,0-.435-1.393,1.774,1.774,0,0,0-1.349-.461,4.665,4.665,0,0,0-1.433.22,10.811,10.811,0,0,0-1.318.519l-.668-1.477a7.189,7.189,0,0,1,1.731-.628A7.968,7.968,0,0,1,44.815,9.1a4.2,4.2,0,0,1,2.8.809,3.166,3.166,0,0,1,.945,2.54V19Zm-3.076-1.406a2.558,2.558,0,0,0,1.806-.628,2.278,2.278,0,0,0,.681-1.762v-.844l-1.248.053a4.27,4.27,0,0,0-2.123.488,1.482,1.482,0,0,0-.664,1.332,1.3,1.3,0,0,0,.387,1.006A1.661,1.661,0,0,0,44.007,17.594ZM56.373,9.1a4.972,4.972,0,0,1,1.028.088l-.2,1.925a3.9,3.9,0,0,0-.914-.105,2.645,2.645,0,0,0-2.008.809,2.923,2.923,0,0,0-.769,2.1V19H51.442V9.279H53.06l.272,1.714h.105A3.851,3.851,0,0,1,54.7,9.613,3,3,0,0,1,56.373,9.1Zm4.9,9.9H59.2V9.279h2.065ZM59.08,6.7a1.144,1.144,0,0,1,.3-.853,1.182,1.182,0,0,1,.866-.3,1.156,1.156,0,0,1,.848.3,1.144,1.144,0,0,1,.3.853,1.122,1.122,0,0,1-.3.831,1.147,1.147,0,0,1-.848.3,1.171,1.171,0,0,1-.866-.3A1.122,1.122,0,0,1,59.08,6.7ZM66.287,19H64.222V5.324h2.065Zm5.019,0H69.24V5.324h2.065Zm9.035,0-.413-1.354h-.07a3.982,3.982,0,0,1-1.415,1.208,4.475,4.475,0,0,1-1.828.321,3.094,3.094,0,0,1-2.237-.773,2.894,2.894,0,0,1-.8-2.188,2.57,2.57,0,0,1,1.116-2.268,6.436,6.436,0,0,1,3.4-.835l1.679-.053V12.54a1.965,1.965,0,0,0-.435-1.393,1.774,1.774,0,0,0-1.349-.461,4.665,4.665,0,0,0-1.433.22,10.811,10.811,0,0,0-1.318.519l-.668-1.477A7.189,7.189,0,0,1,76.3,9.319,7.968,7.968,0,0,1,78.073,9.1a4.2,4.2,0,0,1,2.8.809,3.166,3.166,0,0,1,.945,2.54V19Zm-3.076-1.406a2.558,2.558,0,0,0,1.806-.628,2.278,2.278,0,0,0,.681-1.762v-.844l-1.248.053a4.27,4.27,0,0,0-2.123.488,1.482,1.482,0,0,0-.664,1.332,1.3,1.3,0,0,0,.387,1.006A1.661,1.661,0,0,0,77.265,17.594Zm15.39,1.582a3.386,3.386,0,0,1-2.839-1.318,5.926,5.926,0,0,1-1.02-3.7,5.945,5.945,0,0,1,1.033-3.722A3.418,3.418,0,0,1,92.689,9.1a3.351,3.351,0,0,1,2.918,1.415h.105a12.381,12.381,0,0,1-.149-1.652V5.324h2.074V19H96.021l-.36-1.274h-.1A3.3,3.3,0,0,1,92.654,19.176Zm.554-1.67a2.248,2.248,0,0,0,1.854-.716,3.771,3.771,0,0,0,.6-2.325v-.29a4.357,4.357,0,0,0-.6-2.61,2.217,2.217,0,0,0-1.872-.773,1.9,1.9,0,0,0-1.679.883,4.527,4.527,0,0,0-.589,2.518,4.414,4.414,0,0,0,.571,2.465A1.929,1.929,0,0,0,93.208,17.506Zm11.628,1.67a4.7,4.7,0,0,1-3.546-1.323,5.021,5.021,0,0,1-1.279-3.643,5.509,5.509,0,0,1,1.187-3.744A4.1,4.1,0,0,1,104.458,9.1a4.006,4.006,0,0,1,3.041,1.169,4.467,4.467,0,0,1,1.116,3.217v1.116h-6.478a3.193,3.193,0,0,0,.765,2.175,2.663,2.663,0,0,0,2.03.76,7.5,7.5,0,0,0,1.6-.163,8.408,8.408,0,0,0,1.6-.541v1.679a6.342,6.342,0,0,1-1.529.51A9.378,9.378,0,0,1,104.836,19.176Zm-.378-8.508a2.075,2.075,0,0,0-1.578.624,2.974,2.974,0,0,0-.708,1.819h4.412a2.691,2.691,0,0,0-.58-1.824A1.984,1.984,0,0,0,104.458,10.668ZM121.72,19l-.413-1.354h-.07a3.982,3.982,0,0,1-1.415,1.208,4.475,4.475,0,0,1-1.828.321,3.094,3.094,0,0,1-2.237-.773,2.894,2.894,0,0,1-.8-2.188,2.57,2.57,0,0,1,1.116-2.268,6.436,6.436,0,0,1,3.4-.835l1.679-.053V12.54a1.965,1.965,0,0,0-.435-1.393,1.774,1.774,0,0,0-1.349-.461,4.665,4.665,0,0,0-1.433.22,10.811,10.811,0,0,0-1.318.519l-.668-1.477a7.189,7.189,0,0,1,1.731-.628,7.968,7.968,0,0,1,1.775-.215,4.2,4.2,0,0,1,2.8.809,3.166,3.166,0,0,1,.945,2.54V19Zm-3.076-1.406a2.558,2.558,0,0,0,1.806-.628,2.278,2.278,0,0,0,.681-1.762v-.844l-1.248.053a4.27,4.27,0,0,0-2.123.488,1.482,1.482,0,0,0-.664,1.332,1.3,1.3,0,0,0,.387,1.006A1.661,1.661,0,0,0,118.644,17.594ZM131.01,9.1a4.972,4.972,0,0,1,1.028.088l-.2,1.925a3.9,3.9,0,0,0-.914-.105,2.645,2.645,0,0,0-2.008.809,2.923,2.923,0,0,0-.769,2.1V19h-2.065V9.279H127.7l.272,1.714h.105a3.851,3.851,0,0,1,1.261-1.38A3,3,0,0,1,131.01,9.1Zm7.761,0a4.972,4.972,0,0,1,1.028.088l-.2,1.925a3.9,3.9,0,0,0-.914-.105,2.645,2.645,0,0,0-2.008.809,2.923,2.923,0,0,0-.769,2.1V19H133.84V9.279h1.617l.272,1.714h.105a3.851,3.851,0,0,1,1.261-1.38A3,3,0,0,1,138.771,9.1Zm11.092,5.019a5.306,5.306,0,0,1-1.222,3.718,4.377,4.377,0,0,1-3.4,1.336,4.66,4.66,0,0,1-2.408-.615,4.062,4.062,0,0,1-1.608-1.767,6.017,6.017,0,0,1-.562-2.672,5.27,5.27,0,0,1,1.213-3.691A4.4,4.4,0,0,1,145.292,9.1a4.282,4.282,0,0,1,3.34,1.358A5.245,5.245,0,0,1,149.862,14.122Zm-7.075,0q0,3.366,2.487,3.366,2.461,0,2.461-3.366,0-3.331-2.479-3.331a2.113,2.113,0,0,0-1.885.861A4.383,4.383,0,0,0,142.787,14.122ZM158.555,19h-7.374V17.726l4.913-6.864h-4.614V9.279h6.935v1.441l-4.808,6.7h4.948Z" transform="translate(520 2552)" fill="#00223d"/>
    <path id="Trazado_17193" data-name="Trazado 17193" d="M9.668,19,8.385,15.432H3.472L2.215,19H0L4.808,6.1H7.093L11.9,19ZM7.831,13.621l-1.2-3.5Q6.5,9.771,6.262,9.016T5.941,7.908a19.7,19.7,0,0,1-.694,2.364l-1.16,3.349Zm12.076,2.61a2.543,2.543,0,0,1-1.037,2.184,4.966,4.966,0,0,1-2.971.76,7.017,7.017,0,0,1-3.12-.589V16.8a7.66,7.66,0,0,0,3.19.791q1.907,0,1.907-1.151a.912.912,0,0,0-.211-.615,2.5,2.5,0,0,0-.694-.51,11.949,11.949,0,0,0-1.345-.6,6.22,6.22,0,0,1-2.272-1.3,2.407,2.407,0,0,1-.593-1.687,2.216,2.216,0,0,1,1.006-1.938,4.776,4.776,0,0,1,2.738-.69,7.754,7.754,0,0,1,3.243.694l-.668,1.556a7.213,7.213,0,0,0-2.646-.65q-1.635,0-1.635.932a.937.937,0,0,0,.426.773,9.374,9.374,0,0,0,1.859.87,8.5,8.5,0,0,1,1.749.853,2.548,2.548,0,0,1,.809.892A2.582,2.582,0,0,1,19.907,16.231Zm6.478,2.944a4.7,4.7,0,0,1-3.546-1.323A5.021,5.021,0,0,1,21.56,14.21a5.509,5.509,0,0,1,1.187-3.744A4.1,4.1,0,0,1,26.007,9.1a4.006,4.006,0,0,1,3.041,1.169,4.467,4.467,0,0,1,1.116,3.217v1.116H23.687a3.193,3.193,0,0,0,.765,2.175,2.663,2.663,0,0,0,2.03.76,7.5,7.5,0,0,0,1.6-.163,8.408,8.408,0,0,0,1.6-.541v1.679a6.342,6.342,0,0,1-1.529.51A9.378,9.378,0,0,1,26.385,19.176Zm-.378-8.508a2.075,2.075,0,0,0-1.578.624,2.974,2.974,0,0,0-.708,1.819h4.412a2.691,2.691,0,0,0-.58-1.824A1.984,1.984,0,0,0,26.007,10.668ZM37.441,9.1a4.972,4.972,0,0,1,1.028.088l-.2,1.925a3.9,3.9,0,0,0-.914-.105,2.645,2.645,0,0,0-2.008.809,2.923,2.923,0,0,0-.769,2.1V19H32.511V9.279h1.617l.272,1.714h.105a3.851,3.851,0,0,1,1.261-1.38A3,3,0,0,1,37.441,9.1Zm7.761,0a4.972,4.972,0,0,1,1.028.088l-.2,1.925a3.9,3.9,0,0,0-.914-.105,2.645,2.645,0,0,0-2.008.809,2.923,2.923,0,0,0-.769,2.1V19H40.271V9.279h1.617l.272,1.714h.105a3.851,3.851,0,0,1,1.261-1.38A3,3,0,0,1,45.2,9.1ZM50.1,19H48.032V9.279H50.1ZM47.927,8.093v-.22q.5-.615,1.033-1.371T49.8,5.21h2.4v.185a18.048,18.048,0,0,1-1.367,1.384A19.27,19.27,0,0,1,49.3,8.093ZM61.6,19H59.528V13.023a2.616,2.616,0,0,0-.453-1.679,1.75,1.75,0,0,0-1.437-.554,2.285,2.285,0,0,0-1.916.773,4.27,4.27,0,0,0-.606,2.593V19H53.051V9.279h1.617l.29,1.274h.105a2.876,2.876,0,0,1,1.248-1.072A4.182,4.182,0,0,1,58.1,9.1q3.5,0,3.5,3.56Z" transform="translate(520 2431)" fill="#00223d"/>
    <path id="Trazado_17194" data-name="Trazado 17194" d="M12.718,19H10.653V10.7q0-1.485.07-2.355-.2.211-.5.466T8.253,10.431L7.216,9.121,11,6.15h1.723Z" transform="translate(943 2551)" fill="#00223d"/>
    <path id="Trazado_17195" data-name="Trazado 17195" d="M9.668,19,8.385,15.432H3.472L2.215,19H0L4.808,6.1H7.093L11.9,19ZM7.831,13.621l-1.2-3.5Q6.5,9.771,6.262,9.016T5.941,7.908a19.7,19.7,0,0,1-.694,2.364l-1.16,3.349ZM18.308,9.1a4.972,4.972,0,0,1,1.028.088l-.2,1.925a3.9,3.9,0,0,0-.914-.105,2.645,2.645,0,0,0-2.008.809,2.923,2.923,0,0,0-.769,2.1V19H13.377V9.279h1.617l.272,1.714h.105a3.851,3.851,0,0,1,1.261-1.38A3,3,0,0,1,18.308,9.1Zm6.715,10.072a4.7,4.7,0,0,1-3.546-1.323A5.021,5.021,0,0,1,20.2,14.21a5.509,5.509,0,0,1,1.187-3.744A4.1,4.1,0,0,1,24.645,9.1a4.006,4.006,0,0,1,3.041,1.169A4.467,4.467,0,0,1,28.8,13.489v1.116H22.324a3.193,3.193,0,0,0,.765,2.175,2.663,2.663,0,0,0,2.03.76,7.5,7.5,0,0,0,1.6-.163,8.408,8.408,0,0,0,1.6-.541v1.679a6.342,6.342,0,0,1-1.529.51A9.378,9.378,0,0,1,25.022,19.176Zm-.378-8.508a2.075,2.075,0,0,0-1.578.624,2.974,2.974,0,0,0-.708,1.819h4.412a2.691,2.691,0,0,0-.58-1.824A1.984,1.984,0,0,0,24.645,10.668ZM39.7,19H37.626V13.023a2.616,2.616,0,0,0-.453-1.679,1.75,1.75,0,0,0-1.437-.554,2.285,2.285,0,0,0-1.916.773,4.27,4.27,0,0,0-.606,2.593V19H31.148V9.279h1.617l.29,1.274h.105a2.876,2.876,0,0,1,1.248-1.072A4.182,4.182,0,0,1,36.2,9.1q3.5,0,3.5,3.56Zm8.956,0-.413-1.354h-.07a3.982,3.982,0,0,1-1.415,1.208,4.475,4.475,0,0,1-1.828.321,3.094,3.094,0,0,1-2.237-.773,2.894,2.894,0,0,1-.8-2.188A2.57,2.57,0,0,1,43,13.946a6.436,6.436,0,0,1,3.4-.835l1.679-.053V12.54a1.965,1.965,0,0,0-.435-1.393,1.774,1.774,0,0,0-1.349-.461,4.665,4.665,0,0,0-1.433.22,10.811,10.811,0,0,0-1.318.519l-.668-1.477a7.189,7.189,0,0,1,1.731-.628A7.968,7.968,0,0,1,46.389,9.1a4.2,4.2,0,0,1,2.8.809,3.166,3.166,0,0,1,.945,2.54V19ZM45.58,17.594a2.558,2.558,0,0,0,1.806-.628,2.278,2.278,0,0,0,.681-1.762v-.844l-1.248.053A4.27,4.27,0,0,0,44.7,14.9a1.482,1.482,0,0,0-.664,1.332,1.3,1.3,0,0,0,.387,1.006A1.661,1.661,0,0,0,45.58,17.594Z" transform="translate(1069 2311)" fill="#00223d"/>
    <path id="Trazado_17196" data-name="Trazado 17196" d="M9.668,19,8.385,15.432H3.472L2.215,19H0L4.808,6.1H7.093L11.9,19ZM7.831,13.621l-1.2-3.5Q6.5,9.771,6.262,9.016T5.941,7.908a19.7,19.7,0,0,1-.694,2.364l-1.16,3.349Zm12.076,2.61a2.543,2.543,0,0,1-1.037,2.184,4.966,4.966,0,0,1-2.971.76,7.017,7.017,0,0,1-3.12-.589V16.8a7.66,7.66,0,0,0,3.19.791q1.907,0,1.907-1.151a.912.912,0,0,0-.211-.615,2.5,2.5,0,0,0-.694-.51,11.949,11.949,0,0,0-1.345-.6,6.22,6.22,0,0,1-2.272-1.3,2.407,2.407,0,0,1-.593-1.687,2.216,2.216,0,0,1,1.006-1.938,4.776,4.776,0,0,1,2.738-.69,7.754,7.754,0,0,1,3.243.694l-.668,1.556a7.213,7.213,0,0,0-2.646-.65q-1.635,0-1.635.932a.937.937,0,0,0,.426.773,9.374,9.374,0,0,0,1.859.87,8.5,8.5,0,0,1,1.749.853,2.548,2.548,0,0,1,.809.892A2.582,2.582,0,0,1,19.907,16.231Zm6.478,2.944a4.7,4.7,0,0,1-3.546-1.323A5.021,5.021,0,0,1,21.56,14.21a5.509,5.509,0,0,1,1.187-3.744A4.1,4.1,0,0,1,26.007,9.1a4.006,4.006,0,0,1,3.041,1.169,4.467,4.467,0,0,1,1.116,3.217v1.116H23.687a3.193,3.193,0,0,0,.765,2.175,2.663,2.663,0,0,0,2.03.76,7.5,7.5,0,0,0,1.6-.163,8.408,8.408,0,0,0,1.6-.541v1.679a6.342,6.342,0,0,1-1.529.51A9.378,9.378,0,0,1,26.385,19.176Zm-.378-8.508a2.075,2.075,0,0,0-1.578.624,2.974,2.974,0,0,0-.708,1.819h4.412a2.691,2.691,0,0,0-.58-1.824A1.984,1.984,0,0,0,26.007,10.668ZM37.441,9.1a4.972,4.972,0,0,1,1.028.088l-.2,1.925a3.9,3.9,0,0,0-.914-.105,2.645,2.645,0,0,0-2.008.809,2.923,2.923,0,0,0-.769,2.1V19H32.511V9.279h1.617l.272,1.714h.105a3.851,3.851,0,0,1,1.261-1.38A3,3,0,0,1,37.441,9.1Zm7.761,0a4.972,4.972,0,0,1,1.028.088l-.2,1.925a3.9,3.9,0,0,0-.914-.105,2.645,2.645,0,0,0-2.008.809,2.923,2.923,0,0,0-.769,2.1V19H40.271V9.279h1.617l.272,1.714h.105a3.851,3.851,0,0,1,1.261-1.38A3,3,0,0,1,45.2,9.1ZM50.1,19H48.032V9.279H50.1ZM47.927,8.093v-.22q.5-.615,1.033-1.371T49.8,5.21h2.4v.185a18.048,18.048,0,0,1-1.367,1.384A19.27,19.27,0,0,1,49.3,8.093ZM61.6,19H59.528V13.023a2.616,2.616,0,0,0-.453-1.679,1.75,1.75,0,0,0-1.437-.554,2.285,2.285,0,0,0-1.916.773,4.27,4.27,0,0,0-.606,2.593V19H53.051V9.279h1.617l.29,1.274h.105a2.876,2.876,0,0,1,1.248-1.072A4.182,4.182,0,0,1,58.1,9.1q3.5,0,3.5,3.56Z" transform="translate(1069 2489)" fill="#00223d"/>
    <path id="Trazado_17197" data-name="Trazado 17197" d="M9.668,19,8.385,15.432H3.472L2.215,19H0L4.808,6.1H7.093L11.9,19ZM7.831,13.621l-1.2-3.5Q6.5,9.771,6.262,9.016T5.941,7.908a19.7,19.7,0,0,1-.694,2.364l-1.16,3.349Zm12.076,2.61a2.543,2.543,0,0,1-1.037,2.184,4.966,4.966,0,0,1-2.971.76,7.017,7.017,0,0,1-3.12-.589V16.8a7.66,7.66,0,0,0,3.19.791q1.907,0,1.907-1.151a.912.912,0,0,0-.211-.615,2.5,2.5,0,0,0-.694-.51,11.949,11.949,0,0,0-1.345-.6,6.22,6.22,0,0,1-2.272-1.3,2.407,2.407,0,0,1-.593-1.687,2.216,2.216,0,0,1,1.006-1.938,4.776,4.776,0,0,1,2.738-.69,7.754,7.754,0,0,1,3.243.694l-.668,1.556a7.213,7.213,0,0,0-2.646-.65q-1.635,0-1.635.932a.937.937,0,0,0,.426.773,9.374,9.374,0,0,0,1.859.87,8.5,8.5,0,0,1,1.749.853,2.548,2.548,0,0,1,.809.892A2.582,2.582,0,0,1,19.907,16.231Zm6.478,2.944a4.7,4.7,0,0,1-3.546-1.323A5.021,5.021,0,0,1,21.56,14.21a5.509,5.509,0,0,1,1.187-3.744A4.1,4.1,0,0,1,26.007,9.1a4.006,4.006,0,0,1,3.041,1.169,4.467,4.467,0,0,1,1.116,3.217v1.116H23.687a3.193,3.193,0,0,0,.765,2.175,2.663,2.663,0,0,0,2.03.76,7.5,7.5,0,0,0,1.6-.163,8.408,8.408,0,0,0,1.6-.541v1.679a6.342,6.342,0,0,1-1.529.51A9.378,9.378,0,0,1,26.385,19.176Zm-.378-8.508a2.075,2.075,0,0,0-1.578.624,2.974,2.974,0,0,0-.708,1.819h4.412a2.691,2.691,0,0,0-.58-1.824A1.984,1.984,0,0,0,26.007,10.668ZM37.441,9.1a4.972,4.972,0,0,1,1.028.088l-.2,1.925a3.9,3.9,0,0,0-.914-.105,2.645,2.645,0,0,0-2.008.809,2.923,2.923,0,0,0-.769,2.1V19H32.511V9.279h1.617l.272,1.714h.105a3.851,3.851,0,0,1,1.261-1.38A3,3,0,0,1,37.441,9.1Zm7.761,0a4.972,4.972,0,0,1,1.028.088l-.2,1.925a3.9,3.9,0,0,0-.914-.105,2.645,2.645,0,0,0-2.008.809,2.923,2.923,0,0,0-.769,2.1V19H40.271V9.279h1.617l.272,1.714h.105a3.851,3.851,0,0,1,1.261-1.38A3,3,0,0,1,45.2,9.1ZM50.1,19H48.032V9.279H50.1ZM47.927,8.093v-.22q.5-.615,1.033-1.371T49.8,5.21h2.4v.185a18.048,18.048,0,0,1-1.367,1.384A19.27,19.27,0,0,1,49.3,8.093ZM61.6,19H59.528V13.023a2.616,2.616,0,0,0-.453-1.679,1.75,1.75,0,0,0-1.437-.554,2.285,2.285,0,0,0-1.916.773,4.27,4.27,0,0,0-.606,2.593V19H53.051V9.279h1.617l.29,1.274h.105a2.876,2.876,0,0,1,1.248-1.072A4.182,4.182,0,0,1,58.1,9.1q3.5,0,3.5,3.56Zm12.929,0H72.466V10.7q0-1.485.07-2.355-.2.211-.5.466t-1.973,1.617l-1.037-1.31L72.809,6.15h1.723Zm12.437-5.563h-3.5V11.872h3.5V8.286H88.55v3.586h3.507v1.564H88.55V17H86.968ZM106.541,19H99.272V6.15h7.269V7.926h-5.168v3.5h4.843v1.758h-4.843v4.034h5.168Zm9.088-2.769a2.543,2.543,0,0,1-1.037,2.184,4.966,4.966,0,0,1-2.971.76,7.017,7.017,0,0,1-3.12-.589V16.8a7.66,7.66,0,0,0,3.19.791q1.907,0,1.907-1.151a.912.912,0,0,0-.211-.615,2.5,2.5,0,0,0-.694-.51,11.949,11.949,0,0,0-1.345-.6,6.22,6.22,0,0,1-2.272-1.3,2.407,2.407,0,0,1-.593-1.687,2.216,2.216,0,0,1,1.006-1.938,4.776,4.776,0,0,1,2.738-.69,7.754,7.754,0,0,1,3.243.694l-.668,1.556a7.213,7.213,0,0,0-2.646-.65q-1.635,0-1.635.932a.937.937,0,0,0,.426.773,9.374,9.374,0,0,0,1.859.87,8.5,8.5,0,0,1,1.749.853,2.548,2.548,0,0,1,.809.892A2.582,2.582,0,0,1,115.629,16.231Zm6.152,2.944a4.256,4.256,0,0,1-3.353-1.288,5.38,5.38,0,0,1-1.147-3.7,5.41,5.41,0,0,1,1.2-3.771A4.45,4.45,0,0,1,121.948,9.1a6.5,6.5,0,0,1,2.769.571l-.624,1.661a6.255,6.255,0,0,0-2.162-.51q-2.522,0-2.522,3.349a4.01,4.01,0,0,0,.628,2.457,2.175,2.175,0,0,0,1.841.822,5.283,5.283,0,0,0,2.61-.686v1.8a4.079,4.079,0,0,1-1.182.466A7.093,7.093,0,0,1,121.781,19.176ZM135.4,14.122a5.306,5.306,0,0,1-1.222,3.718,4.377,4.377,0,0,1-3.4,1.336,4.66,4.66,0,0,1-2.408-.615,4.062,4.062,0,0,1-1.608-1.767,6.017,6.017,0,0,1-.562-2.672,5.27,5.27,0,0,1,1.213-3.691A4.4,4.4,0,0,1,130.825,9.1a4.282,4.282,0,0,1,3.34,1.358A5.245,5.245,0,0,1,135.4,14.122Zm-7.075,0q0,3.366,2.487,3.366,2.461,0,2.461-3.366,0-3.331-2.479-3.331a2.113,2.113,0,0,0-1.885.861A4.383,4.383,0,0,0,128.32,14.122ZM142.7,9.1a4.972,4.972,0,0,1,1.028.088l-.2,1.925a3.9,3.9,0,0,0-.914-.105,2.645,2.645,0,0,0-2.008.809,2.923,2.923,0,0,0-.769,2.1V19h-2.065V9.279h1.617l.272,1.714h.105a3.851,3.851,0,0,1,1.261-1.38A3,3,0,0,1,142.7,9.1Zm4.9,9.9h-2.065V9.279h2.065ZM145.406,6.7a1.144,1.144,0,0,1,.3-.853,1.182,1.182,0,0,1,.866-.3,1.156,1.156,0,0,1,.848.3,1.144,1.144,0,0,1,.3.853,1.122,1.122,0,0,1-.3.831,1.147,1.147,0,0,1-.848.3,1.171,1.171,0,0,1-.866-.3A1.122,1.122,0,0,1,145.406,6.7ZM156.63,19l-.413-1.354h-.07a3.982,3.982,0,0,1-1.415,1.208,4.475,4.475,0,0,1-1.828.321,3.094,3.094,0,0,1-2.237-.773,2.894,2.894,0,0,1-.8-2.188,2.57,2.57,0,0,1,1.116-2.268,6.436,6.436,0,0,1,3.4-.835l1.679-.053V12.54a1.965,1.965,0,0,0-.435-1.393,1.774,1.774,0,0,0-1.349-.461,4.665,4.665,0,0,0-1.433.22,10.811,10.811,0,0,0-1.318.519l-.668-1.477a7.189,7.189,0,0,1,1.731-.628,7.968,7.968,0,0,1,1.775-.215,4.2,4.2,0,0,1,2.8.809,3.166,3.166,0,0,1,.945,2.54V19Zm-3.076-1.406a2.558,2.558,0,0,0,1.806-.628,2.278,2.278,0,0,0,.681-1.762v-.844l-1.248.053a4.27,4.27,0,0,0-2.123.488,1.482,1.482,0,0,0-.664,1.332,1.3,1.3,0,0,0,.387,1.006A1.661,1.661,0,0,0,153.554,17.594Z" transform="translate(1069 2549)" fill="#00223d"/>
    <path id="Trazado_17198" data-name="Trazado 17198" d="M20.718,19H18.653V10.7q0-1.485.07-2.355-.2.211-.5.466t-1.973,1.617l-1.037-1.31L19,6.15h1.723Z" transform="translate(1308 2189)" fill="#00223d"/>
    <path id="Trazado_17199" data-name="Trazado 17199" d="M20.718,19H18.653V10.7q0-1.485.07-2.355-.2.211-.5.466t-1.973,1.617l-1.037-1.31L19,6.15h1.723Z" transform="translate(1308 2252)" fill="#00223d"/>
    <path id="Trazado_17200" data-name="Trazado 17200" d="M23.364,19h-8.71V17.436L17.967,14.1a28.184,28.184,0,0,0,1.947-2.131,5.089,5.089,0,0,0,.7-1.182,3.187,3.187,0,0,0,.22-1.187,1.809,1.809,0,0,0-.523-1.371,2,2,0,0,0-1.446-.5A3.855,3.855,0,0,0,17.436,8a6.685,6.685,0,0,0-1.6.984L14.724,7.627a7.2,7.2,0,0,1,2.083-1.283,6.1,6.1,0,0,1,2.153-.378,4.237,4.237,0,0,1,2.874.936A3.162,3.162,0,0,1,22.916,9.42a4.418,4.418,0,0,1-.312,1.652,6.715,6.715,0,0,1-.958,1.613A21.893,21.893,0,0,1,19.5,14.931l-2.232,2.162v.088h6.1Z" transform="translate(1308 2309)" fill="#00223d"/>
    <path id="Trazado_17201" data-name="Trazado 17201" d="M20.718,19H18.653V10.7q0-1.485.07-2.355-.2.211-.5.466t-1.973,1.617l-1.037-1.31L19,6.15h1.723Z" transform="translate(1308 2371)" fill="#00223d"/>
    <path id="Trazado_17202" data-name="Trazado 17202" d="M20.718,19H18.653V10.7q0-1.485.07-2.355-.2.211-.5.466t-1.973,1.617l-1.037-1.31L19,6.15h1.723Z" transform="translate(1308 2431)" fill="#00223d"/>
    <path id="Trazado_17203" data-name="Trazado 17203" d="M20.718,19H18.653V10.7q0-1.485.07-2.355-.2.211-.5.466t-1.973,1.617l-1.037-1.31L19,6.15h1.723Z" transform="translate(1308 2494)" fill="#00223d"/>
    <path id="Trazado_17204" data-name="Trazado 17204" d="M20.718,19H18.653V10.7q0-1.485.07-2.355-.2.211-.5.466t-1.973,1.617l-1.037-1.31L19,6.15h1.723Z" transform="translate(1308 2549)" fill="#00223d"/>
  </g>
</svg>
