<svg xmlns="http://www.w3.org/2000/svg" width="943" height="692.888" viewBox="0 0 943 692.888">
  <g id="Grupo_8805" data-name="Grupo 8805" transform="translate(-489 -1340.112)">
    <path id="Trazado_17023" data-name="Trazado 17023" d="M0,0H128V141H0Z" transform="translate(489 1464)" fill="#d6f6b3"/>
    <path id="Trazado_17024" data-name="Trazado 17024" d="M38.42-47.6v28.9L14.756-47.6H5.644V0h10.88V-28.9L40.256,0H49.3V-47.6Z" transform="translate(524 1550)" fill="#010101"/>
    <path id="Trazado_17025" data-name="Trazado 17025" d="M.572-15.4v5.412H3.74V-12.5h5.1L3.322,0H7.194l5.72-13.09V-15.4Z" transform="translate(499 1489)" fill="#010101"/>
    <path id="Trazado_17026" data-name="Trazado 17026" d="M8.475-10.5v6.375L3.255-10.5H1.245V0h2.4V-6.375L8.88,0h1.995V-10.5ZM14.37-9.195a1.346,1.346,0,0,0,1.455-1.35,1.314,1.314,0,0,0-1.455-1.26A1.338,1.338,0,0,0,12.915-10.5,1.338,1.338,0,0,0,14.37-9.195ZM13.2,0h2.34V-8.07H13.2Zm9.09-2.04a1.577,1.577,0,0,1-.945.3A.941.941,0,0,1,20.34-2.805V-6.09h2.01v-1.8H20.34V-9.855H18V-7.89H16.755v1.8H18v3.315c0,1.92,1.11,2.9,3.015,2.9A3.344,3.344,0,0,0,22.92-.39Zm4.185-4.965V-8.07H24.24V0h2.34V-3.81a1.983,1.983,0,0,1,2.145-2.25c.18,0,.33.015.525.03V-8.19A3.257,3.257,0,0,0,26.475-7.005Zm6.54-2.1h1.83l2.715-2.16H35.04ZM34.41.12a4.142,4.142,0,0,0,4.425-4.155A4.142,4.142,0,0,0,34.41-8.19a4.154,4.154,0,0,0-4.44,4.155A4.154,4.154,0,0,0,34.41.12Zm0-1.92a2.048,2.048,0,0,1-2.07-2.235A2.048,2.048,0,0,1,34.41-6.27a2.037,2.037,0,0,1,2.055,2.235A2.037,2.037,0,0,1,34.41-1.8ZM46.5-8.07v1.035A3.239,3.239,0,0,0,43.83-8.19a3.842,3.842,0,0,0-4.035,3.9A3.842,3.842,0,0,0,43.83-.39a3.322,3.322,0,0,0,2.55-1v.345c0,1.455-.72,2.2-2.37,2.2A4.823,4.823,0,0,1,41.16.24l-.93,1.68a6.648,6.648,0,0,0,3.96,1.11c2.91,0,4.53-1.38,4.53-4.38V-8.07ZM44.295-2.31a1.972,1.972,0,0,1-2.13-1.98,1.972,1.972,0,0,1,2.13-1.98A1.96,1.96,0,0,1,46.41-4.29,1.96,1.96,0,0,1,44.295-2.31ZM58.8-4A4,4,0,0,0,54.6-8.19a4.108,4.108,0,0,0-4.305,4.155c0,2.4,1.815,4.155,4.6,4.155a4.227,4.227,0,0,0,3.33-1.305l-1.245-1.35a2.736,2.736,0,0,1-2.025.78,2.152,2.152,0,0,1-2.31-1.62h6.1C58.77-3.57,58.8-3.825,58.8-4ZM54.615-6.42a1.918,1.918,0,0,1,1.98,1.68H52.62A1.91,1.91,0,0,1,54.615-6.42Zm10.65-1.77a3.533,3.533,0,0,0-2.67,1.065V-8.07H60.36V0H62.7V-3.99c0-1.485.81-2.175,1.935-2.175,1.035,0,1.635.6,1.635,1.9V0h2.34V-4.62C68.61-7.08,67.17-8.19,65.265-8.19ZM74.655.12A4.142,4.142,0,0,0,79.08-4.035,4.142,4.142,0,0,0,74.655-8.19a4.154,4.154,0,0,0-4.44,4.155A4.154,4.154,0,0,0,74.655.12Zm0-1.92a2.048,2.048,0,0,1-2.07-2.235,2.048,2.048,0,0,1,2.07-2.235A2.037,2.037,0,0,1,76.71-4.035,2.037,2.037,0,0,1,74.655-1.8Z" transform="translate(506 1587)" fill="#010101"/>
    <path id="Trazado_17027" data-name="Trazado 17027" d="M0,0H128V4H0Z" transform="translate(489 1605)" fill="#3e3e3e"/>
    <path id="Trazado_17029" data-name="Trazado 17029" d="M0,0H128V141H0Z" transform="translate(652 1464)" fill="#d6f6b3"/>
    <path id="Trazado_17030" data-name="Trazado 17030" d="M25.862-46.9H5.561V0H16.415V-12.931h9.447c12.529,0,20.368-6.5,20.368-16.951C46.23-40.4,38.391-46.9,25.862-46.9Zm-.6,25.125H16.415V-38.056h8.844c6.633,0,9.983,3.015,9.983,8.174C35.242-24.79,31.892-21.775,25.259-21.775Z" transform="translate(689 1549)" fill="#010101"/>
    <path id="Trazado_17031" data-name="Trazado 17031" d="M.154-15.4v2.86h3.08V0H6.8V-15.4ZM14.762-9.614H13.508l.242-2.926h6.424V-15.4H10.78L9.988-6.732h3.938c2.794,0,3.586.792,3.586,2,0,1.254-1.1,2-2.882,2a7.411,7.411,0,0,1-4.378-1.386L8.844-1.386A10.641,10.641,0,0,0,14.718.264c4.4,0,6.4-2.376,6.4-5.1S19.316-9.614,14.762-9.614Z" transform="translate(663 1489)" fill="#010101"/>
    <path id="Trazado_17032" data-name="Trazado 17032" d="M9.18-8.55V-10.5H1.245V0h2.43V-3.825h4.86v-1.95H3.675V-8.55ZM12.9-9.1h1.83l2.715-2.16h-2.52ZM14.3.12A4.142,4.142,0,0,0,18.72-4.035,4.142,4.142,0,0,0,14.3-8.19a4.154,4.154,0,0,0-4.44,4.155A4.154,4.154,0,0,0,14.3.12Zm0-1.92a2.048,2.048,0,0,1-2.07-2.235A2.048,2.048,0,0,1,14.3-6.27,2.037,2.037,0,0,1,16.35-4.035,2.037,2.037,0,0,1,14.3-1.8ZM23,.12c2.415,0,3.81-1.065,3.81-2.565,0-3.18-4.875-1.845-4.875-3.225,0-.42.45-.75,1.5-.75a4.634,4.634,0,0,1,2.325.6l.78-1.665a6.636,6.636,0,0,0-3.1-.705c-2.355,0-3.735,1.08-3.735,2.61,0,3.225,4.875,1.875,4.875,3.195,0,.45-.405.735-1.485.735a5.521,5.521,0,0,1-2.805-.78L19.5-.75A6.928,6.928,0,0,0,23,.12ZM30.81-8.235c0-.795.375-1.17,1.065-1.17a1.638,1.638,0,0,1,.945.285l.615-1.7a3.317,3.317,0,0,0-1.785-.435,2.817,2.817,0,0,0-3.12,3v.36H27.285v1.8H28.53V0h2.34V-6.09h2.01v-1.8H30.81ZM37.785.12A4.142,4.142,0,0,0,42.21-4.035,4.142,4.142,0,0,0,37.785-8.19a4.154,4.154,0,0,0-4.44,4.155A4.154,4.154,0,0,0,37.785.12Zm0-1.92a2.048,2.048,0,0,1-2.07-2.235,2.048,2.048,0,0,1,2.07-2.235A2.037,2.037,0,0,1,39.84-4.035,2.037,2.037,0,0,1,37.785-1.8ZM46-7.005V-8.07H43.77V0h2.34V-3.81a1.983,1.983,0,0,1,2.145-2.25c.18,0,.33.015.525.03V-8.19A3.257,3.257,0,0,0,46-7.005ZM53.94.12a4.142,4.142,0,0,0,4.425-4.155A4.142,4.142,0,0,0,53.94-8.19,4.154,4.154,0,0,0,49.5-4.035,4.154,4.154,0,0,0,53.94.12Zm0-1.92a2.048,2.048,0,0,1-2.07-2.235A2.048,2.048,0,0,1,53.94-6.27a2.037,2.037,0,0,1,2.055,2.235A2.037,2.037,0,0,1,53.94-1.8Z" transform="translate(682 1587)" fill="#010101"/>
    <path id="Trazado_17033" data-name="Trazado 17033" d="M0,0H128V4H0Z" transform="translate(652 1605)" fill="#3e3e3e"/>
    <path id="Trazado_17041" data-name="Trazado 17041" d="M0,0H127V141H0Z" transform="translate(815 1464)" fill="#e8c7ce"/>
    <path id="Trazado_17042" data-name="Trazado 17042" d="M38.216,0H51.068L30.192-26.384,49.912-47.6H37.672L16.592-25.364V-47.6H5.644V0H16.592V-12.036L22.984-18.7Z" transform="translate(851 1550)" fill="#010101"/>
    <path id="Trazado_17043" data-name="Trazado 17043" d="M.147-14.7v2.73h2.94V0h3.4V-14.7Zm14.07-.252c-3.108,0-5.565,1.89-5.565,4.893,0,2.772,2.226,4.578,5.061,4.578A5.024,5.024,0,0,0,17.367-6.8c-.1,2.835-1.7,4.284-4.137,4.284a4.754,4.754,0,0,1-2.751-.735l-1.26,2.5A7.858,7.858,0,0,0,13.293.252c4.452,0,7.5-2.835,7.5-7.917C20.79-12.411,18.291-14.952,14.217-14.952Zm.252,6.93a2.216,2.216,0,0,1-2.5-2.2,2.2,2.2,0,0,1,2.457-2.184c1.617,0,2.562.924,2.562,2.184A2.28,2.28,0,0,1,14.469-8.022Z" transform="translate(824 1488)" fill="#010101"/>
    <path id="Trazado_17044" data-name="Trazado 17044" d="M5.79-10.5H1.245V0h2.43V-2.895H5.79c2.805,0,4.56-1.455,4.56-3.8S8.6-10.5,5.79-10.5ZM5.655-4.875H3.675V-8.52h1.98c1.485,0,2.235.675,2.235,1.83C7.89-5.55,7.14-4.875,5.655-4.875Zm10.08,5A4.142,4.142,0,0,0,20.16-4.035,4.142,4.142,0,0,0,15.735-8.19,4.154,4.154,0,0,0,11.3-4.035,4.154,4.154,0,0,0,15.735.12Zm0-1.92a2.048,2.048,0,0,1-2.07-2.235,2.048,2.048,0,0,1,2.07-2.235A2.037,2.037,0,0,1,17.79-4.035,2.037,2.037,0,0,1,15.735-1.8ZM26.3-2.04a1.577,1.577,0,0,1-.945.3.941.941,0,0,1-1-1.065V-6.09h2.01v-1.8h-2.01V-9.855H22V-7.89H20.76v1.8H22v3.315c0,1.92,1.11,2.9,3.015,2.9a3.344,3.344,0,0,0,1.9-.51Zm5.2-6.15a6.2,6.2,0,0,0-3.48.975l.84,1.635a3.88,3.88,0,0,1,2.325-.75c1.26,0,1.86.585,1.86,1.59h-1.86c-2.46,0-3.465.99-3.465,2.415C27.72-.93,28.845.12,30.735.12A2.648,2.648,0,0,0,33.195-1V0h2.19V-4.605C35.385-7.05,33.96-8.19,31.5-8.19Zm-.18,6.735c-.825,0-1.32-.39-1.32-.975,0-.54.345-.945,1.44-.945h1.605v.825A1.724,1.724,0,0,1,31.32-1.455ZM40.215.12c2.415,0,3.81-1.065,3.81-2.565,0-3.18-4.875-1.845-4.875-3.225,0-.42.45-.75,1.5-.75a4.634,4.634,0,0,1,2.325.6l.78-1.665a6.636,6.636,0,0,0-3.1-.705c-2.355,0-3.735,1.08-3.735,2.61,0,3.225,4.875,1.875,4.875,3.195,0,.45-.4.735-1.485.735a5.521,5.521,0,0,1-2.8-.78L36.72-.75A6.928,6.928,0,0,0,40.215.12Zm6.42-9.315a1.346,1.346,0,0,0,1.455-1.35,1.314,1.314,0,0,0-1.455-1.26A1.338,1.338,0,0,0,45.18-10.5,1.338,1.338,0,0,0,46.635-9.195ZM45.465,0h2.34V-8.07h-2.34ZM53.82.12a4.142,4.142,0,0,0,4.425-4.155A4.142,4.142,0,0,0,53.82-8.19a4.154,4.154,0,0,0-4.44,4.155A4.154,4.154,0,0,0,53.82.12Zm0-1.92a2.048,2.048,0,0,1-2.07-2.235A2.048,2.048,0,0,1,53.82-6.27a2.037,2.037,0,0,1,2.055,2.235A2.037,2.037,0,0,1,53.82-1.8Z" transform="translate(844 1587)" fill="#010101"/>
    <path id="Trazado_17045" data-name="Trazado 17045" d="M0,0H127V4H0Z" transform="translate(815 1605)" fill="#3e3e3e"/>
    <path id="Trazado_17053" data-name="Trazado 17053" d="M0,0H128V141H0Z" transform="translate(978 1464)" fill="#d6f6b3"/>
    <path id="Trazado_17054" data-name="Trazado 17054" d="M21.284.816c13.6,0,20.2-6.8,20.2-14.756,0-17.476-27.676-11.424-27.676-20.2,0-2.992,2.516-5.44,9.044-5.44a26.884,26.884,0,0,1,13.192,3.74l3.4-8.364c-4.42-2.788-10.54-4.216-16.524-4.216-13.532,0-20.06,6.732-20.06,14.824,0,17.68,27.676,11.56,27.676,20.468,0,2.924-2.652,5.1-9.18,5.1A28,28,0,0,1,5.644-12.988L1.9-4.692C6.12-1.428,13.736.816,21.284.816Z" transform="translate(1020 1550)" fill="#010101"/>
    <path id="Trazado_17055" data-name="Trazado 17055" d="M.147-14.7v2.73h2.94V0h3.4V-14.7ZM16.128-9.219a4.961,4.961,0,0,0-3.633,1.3c.1-2.814,1.68-4.263,4.137-4.263a4.841,4.841,0,0,1,2.751.735l1.26-2.5a7.937,7.937,0,0,0-4.1-1.008c-4.431,0-7.5,2.835-7.5,7.917,0,4.746,2.52,7.287,6.573,7.287,3.108,0,5.565-1.89,5.565-4.893C21.189-7.413,18.963-9.219,16.128-9.219Zm-.693,6.93c-1.638,0-2.583-.924-2.583-2.184a2.3,2.3,0,0,1,2.541-2.2,2.216,2.216,0,0,1,2.5,2.2A2.2,2.2,0,0,1,15.435-2.289Z" transform="translate(988 1488)" fill="#010101"/>
    <path id="Trazado_17056" data-name="Trazado 17056" d="M9.09,0h2.55l-4.7-10.5h-2.4L-.135,0h2.49l.93-2.25H8.16ZM4.065-4.1,5.73-8.115,7.395-4.1Zm10.86,2.3,4.11-4.86V-8.07h-6.96v1.8H16.08L11.97-1.41V0h7.2V-1.8ZM26.46-8.07v3.99c0,1.485-.78,2.175-1.86,2.175-1.035,0-1.635-.6-1.635-1.95V-8.07h-2.34v4.56c0,2.49,1.425,3.63,3.45,3.63a3.265,3.265,0,0,0,2.5-1.08V0H28.8V-8.07Zm7.08-.165c0-.795.375-1.17,1.065-1.17a1.638,1.638,0,0,1,.945.285l.615-1.7a3.317,3.317,0,0,0-1.785-.435,2.817,2.817,0,0,0-3.12,3v.36H30.015v1.8H31.26V0H33.6V-6.09h2.01v-1.8H33.54Zm6.675,1.23V-8.07H37.98V0h2.34V-3.81a1.983,1.983,0,0,1,2.145-2.25c.18,0,.33.015.525.03V-8.19A3.257,3.257,0,0,0,40.215-7.005Zm12,3a4,4,0,0,0-4.2-4.185A4.108,4.108,0,0,0,43.71-4.035c0,2.4,1.815,4.155,4.6,4.155a4.227,4.227,0,0,0,3.33-1.305L50.4-2.535a2.736,2.736,0,0,1-2.025.78,2.152,2.152,0,0,1-2.31-1.62h6.1C52.185-3.57,52.215-3.825,52.215-4ZM48.03-6.42a1.918,1.918,0,0,1,1.98,1.68H46.035A1.91,1.91,0,0,1,48.03-6.42Z" transform="translate(1010 1587)" fill="#010101"/>
    <path id="Trazado_17057" data-name="Trazado 17057" d="M0,0H128V4H0Z" transform="translate(978 1605)" fill="#3e3e3e"/>
    <path id="Trazado_17062" data-name="Trazado 17062" d="M0,0H128V141H0Z" transform="translate(1141 1464)" fill="#e8c7cc"/>
    <path id="Trazado_17063" data-name="Trazado 17063" d="M28.006.8C36.18.8,42.947-2.144,47.369-7.571L40.4-14A14.946,14.946,0,0,1,28.609-8.442C19.832-8.442,13.6-14.606,13.6-23.45s6.231-15.008,15.008-15.008A15.089,15.089,0,0,1,40.4-32.964L47.369-39.4c-4.422-5.36-11.189-8.308-19.3-8.308-14.606,0-25.46,10.117-25.46,24.254S13.467.8,28.006.8Zm40.2-37.386c-5.762,0-11.591,1.541-15.544,4.355l3.752,7.3A17.332,17.332,0,0,1,66.8-28.274c5.628,0,8.308,2.613,8.308,7.1H66.8c-10.988,0-15.477,4.422-15.477,10.787C51.322-4.154,56.347.536,64.789.536c5.293,0,9.045-1.742,10.988-5.025V0h9.782V-20.569C85.559-31.49,79.194-36.582,68.206-36.582ZM67.4-6.5c-3.685,0-5.9-1.742-5.9-4.355,0-2.412,1.541-4.221,6.432-4.221h7.169v3.685C73.9-8.107,70.886-6.5,67.4-6.5Z" transform="translate(1164 1549)" fill="#010101"/>
    <path id="Trazado_17064" data-name="Trazado 17064" d="M5.742-2.9,9.284-6.248c2.156-2,2.574-3.366,2.574-4.862,0-2.794-2.288-4.554-5.72-4.554A7.152,7.152,0,0,0,.022-12.8l2.6,1.672a3.766,3.766,0,0,1,3.19-1.54c1.628,0,2.464.7,2.464,1.914,0,.748-.242,1.54-1.606,2.838L.726-2.31V0H12.364V-2.9ZM20.394.264c3.806,0,6.6-2.882,6.6-7.964s-2.794-7.964-6.6-7.964c-3.784,0-6.6,2.882-6.6,7.964S16.61.264,20.394.264Zm0-3.014C18.634-2.75,17.4-4.2,17.4-7.7s1.232-4.95,2.992-4.95c1.782,0,3.014,1.452,3.014,4.95S22.176-2.75,20.394-2.75Z" transform="translate(1151 1489)" fill="#010101"/>
    <path id="Trazado_17065" data-name="Trazado 17065" d="M6.27.18a5.4,5.4,0,0,0,4.335-1.875l-1.56-1.44A3.346,3.346,0,0,1,6.4-1.89a3.221,3.221,0,0,1-3.36-3.36A3.221,3.221,0,0,1,6.4-8.61a3.378,3.378,0,0,1,2.64,1.23l1.56-1.44a5.421,5.421,0,0,0-4.32-1.86,5.4,5.4,0,0,0-5.7,5.43A5.391,5.391,0,0,0,6.27.18Zm9-8.37a6.2,6.2,0,0,0-3.48.975l.84,1.635a3.88,3.88,0,0,1,2.325-.75c1.26,0,1.86.585,1.86,1.59h-1.86c-2.46,0-3.465.99-3.465,2.415C11.49-.93,12.615.12,14.505.12A2.648,2.648,0,0,0,16.965-1V0h2.19V-4.605C19.155-7.05,17.73-8.19,15.27-8.19Zm-.18,6.735c-.825,0-1.32-.39-1.32-.975,0-.54.345-.945,1.44-.945h1.6v.825A1.724,1.724,0,0,1,15.09-1.455ZM21.27,0h2.34V-11.13H21.27Zm8.415.12A3.744,3.744,0,0,0,33.3-1.92l-1.815-.99A1.985,1.985,0,0,1,29.67-1.8a2.065,2.065,0,0,1-2.115-2.235A2.065,2.065,0,0,1,29.67-6.27a2.012,2.012,0,0,1,1.815,1.11L33.3-6.135A3.707,3.707,0,0,0,29.685-8.19a4.172,4.172,0,0,0-4.5,4.155A4.172,4.172,0,0,0,29.685.12ZM35.82-9.195a1.346,1.346,0,0,0,1.455-1.35,1.314,1.314,0,0,0-1.455-1.26A1.338,1.338,0,0,0,34.365-10.5,1.338,1.338,0,0,0,35.82-9.195ZM34.65,0h2.34V-8.07H34.65ZM43,.12A4.142,4.142,0,0,0,47.43-4.035,4.142,4.142,0,0,0,43-8.19a4.154,4.154,0,0,0-4.44,4.155A4.154,4.154,0,0,0,43,.12ZM43-1.8a2.048,2.048,0,0,1-2.07-2.235A2.048,2.048,0,0,1,43-6.27,2.037,2.037,0,0,1,45.06-4.035,2.037,2.037,0,0,1,43-1.8Z" transform="translate(1182 1587)" fill="#010101"/>
    <path id="Trazado_17066" data-name="Trazado 17066" d="M0,0H128V4H0Z" transform="translate(1141 1605)" fill="#3e3e3e"/>
    <path id="Trazado_17079" data-name="Trazado 17079" d="M0,0H128V141H0Z" transform="translate(1304 1464)" fill="#e8c7cc"/>
    <path id="Trazado_17080" data-name="Trazado 17080" d="M59.3,0,59.16-47.6H50.116L32.572-18.02,14.756-47.6H5.644V0H15.98V-27.948L29.92-5.032h4.964L48.892-28.56,48.96,0ZM97.512-36.584v4.692c-2.788-3.536-7-5.236-12.1-5.236-10.132,0-18.292,7-18.292,17.68s8.16,17.68,18.292,17.68c4.76,0,8.772-1.5,11.56-4.556V-4.76c0,6.6-3.264,10-10.744,10A21.865,21.865,0,0,1,73.3,1.088L69.088,8.7c4.284,3.332,11.016,5.032,17.952,5.032,13.192,0,20.536-6.256,20.536-19.856V-36.584Zm-10,26.112c-5.576,0-9.656-3.6-9.656-8.976s4.08-8.976,9.656-8.976,9.588,3.6,9.588,8.976S93.092-10.472,87.516-10.472Z" transform="translate(1314 1550)" fill="#010101"/>
    <path id="Trazado_17081" data-name="Trazado 17081" d="M.147-14.7v2.73h2.94V0h3.4V-14.7ZM13.713-2.772l3.381-3.192c2.058-1.911,2.457-3.213,2.457-4.641,0-2.667-2.184-4.347-5.46-4.347a6.827,6.827,0,0,0-5.838,2.73l2.478,1.6a3.594,3.594,0,0,1,3.045-1.47c1.554,0,2.352.672,2.352,1.827,0,.714-.231,1.47-1.533,2.709L8.925-2.2V0H20.034V-2.772Z" transform="translate(1314 1488)" fill="#010101"/>
    <path id="Trazado_17082" data-name="Trazado 17082" d="M13.08,0l-.03-10.5H11.055L7.185-3.975,3.255-10.5H1.245V0h2.28V-6.165L6.6-1.11H7.7l3.09-5.19L10.8,0Zm5.58-8.19a6.2,6.2,0,0,0-3.48.975l.84,1.635a3.88,3.88,0,0,1,2.325-.75c1.26,0,1.86.585,1.86,1.59h-1.86c-2.46,0-3.465.99-3.465,2.415C14.88-.93,16,.12,17.9.12A2.648,2.648,0,0,0,20.355-1V0h2.19V-4.605C22.545-7.05,21.12-8.19,18.66-8.19Zm-.18,6.735c-.825,0-1.32-.39-1.32-.975,0-.54.345-.945,1.44-.945h1.6v.825A1.724,1.724,0,0,1,18.48-1.455ZM30.855-8.07v1.035a3.239,3.239,0,0,0-2.67-1.155,3.842,3.842,0,0,0-4.035,3.9,3.842,3.842,0,0,0,4.035,3.9,3.322,3.322,0,0,0,2.55-1v.345c0,1.455-.72,2.2-2.37,2.2A4.823,4.823,0,0,1,25.515.24l-.93,1.68a6.648,6.648,0,0,0,3.96,1.11c2.91,0,4.53-1.38,4.53-4.38V-8.07Zm-2.2,5.76a1.972,1.972,0,0,1-2.13-1.98,1.972,1.972,0,0,1,2.13-1.98,1.96,1.96,0,0,1,2.115,1.98A1.96,1.96,0,0,1,28.65-2.31Zm11.5-5.88a3.533,3.533,0,0,0-2.67,1.065V-8.07H35.25V0h2.34V-3.99c0-1.485.81-2.175,1.935-2.175,1.035,0,1.635.6,1.635,1.9V0H43.5V-4.62C43.5-7.08,42.06-8.19,40.155-8.19ZM53.61-4a4,4,0,0,0-4.2-4.185A4.108,4.108,0,0,0,45.1-4.035c0,2.4,1.815,4.155,4.6,4.155a4.227,4.227,0,0,0,3.33-1.305l-1.245-1.35a2.736,2.736,0,0,1-2.025.78,2.152,2.152,0,0,1-2.31-1.62h6.105C53.58-3.57,53.61-3.825,53.61-4ZM49.425-6.42A1.918,1.918,0,0,1,51.4-4.74H47.43A1.91,1.91,0,0,1,49.425-6.42ZM57.885.12c2.415,0,3.81-1.065,3.81-2.565,0-3.18-4.875-1.845-4.875-3.225,0-.42.45-.75,1.5-.75a4.634,4.634,0,0,1,2.325.6l.78-1.665a6.636,6.636,0,0,0-3.1-.705c-2.355,0-3.735,1.08-3.735,2.61,0,3.225,4.875,1.875,4.875,3.195,0,.45-.4.735-1.485.735a5.521,5.521,0,0,1-2.805-.78L54.39-.75A6.928,6.928,0,0,0,57.885.12Zm6.42-9.315a1.346,1.346,0,0,0,1.455-1.35,1.314,1.314,0,0,0-1.455-1.26A1.338,1.338,0,0,0,62.85-10.5,1.338,1.338,0,0,0,64.305-9.195ZM63.135,0h2.34V-8.07h-2.34ZM71.49.12a4.142,4.142,0,0,0,4.425-4.155A4.142,4.142,0,0,0,71.49-8.19a4.154,4.154,0,0,0-4.44,4.155A4.154,4.154,0,0,0,71.49.12Zm0-1.92a2.048,2.048,0,0,1-2.07-2.235A2.048,2.048,0,0,1,71.49-6.27a2.037,2.037,0,0,1,2.055,2.235A2.037,2.037,0,0,1,71.49-1.8Z" transform="translate(1327 1587)" fill="#010101"/>
    <path id="Trazado_17083" data-name="Trazado 17083" d="M0,0H128V4H0Z" transform="translate(1304 1605)" fill="#3e3e3e"/>
    <path id="Trazado_17088" data-name="Trazado 17088" d="M20.928,0,20.88-16.8H17.688L11.5-6.36,5.208-16.8H1.992V0H5.64V-9.864l4.92,8.088h1.752l4.944-8.3L17.28,0Zm8.928-13.1a9.926,9.926,0,0,0-5.568,1.56l1.344,2.616a6.208,6.208,0,0,1,3.72-1.2c2.016,0,2.976.936,2.976,2.544H29.352c-3.936,0-5.544,1.584-5.544,3.864,0,2.232,1.8,3.912,4.824,3.912,1.9,0,3.24-.624,3.936-1.8V0h3.5V-7.368C36.072-11.28,33.792-13.1,29.856-13.1ZM29.568-2.328c-1.32,0-2.112-.624-2.112-1.56,0-.864.552-1.512,2.3-1.512h2.568v1.32A2.759,2.759,0,0,1,29.568-2.328ZM45.84.192c2.712,0,4.848-1.2,5.784-3.264l-2.9-1.584a3.177,3.177,0,0,1-2.9,1.776,3.3,3.3,0,0,1-3.384-3.576,3.3,3.3,0,0,1,3.384-3.576,3.22,3.22,0,0,1,2.9,1.776l2.9-1.56c-.936-2.112-3.072-3.288-5.784-3.288-4.2,0-7.2,2.76-7.2,6.648S41.64.192,45.84.192Zm11.52-11.4v-1.7H53.784V0h3.744V-6.1c0-2.472,1.368-3.6,3.432-3.6.288,0,.528.024.84.048V-13.1A5.211,5.211,0,0,0,57.36-11.208Zm12.7,11.4c4.1,0,7.08-2.76,7.08-6.648S74.16-13.1,70.056-13.1s-7.1,2.76-7.1,6.648S65.952.192,70.056.192Zm0-3.072a3.276,3.276,0,0,1-3.312-3.576,3.276,3.276,0,0,1,3.312-3.576,3.259,3.259,0,0,1,3.288,3.576A3.259,3.259,0,0,1,70.056-2.88ZM87.48-13.1a5.653,5.653,0,0,0-4.272,1.7v-1.512H79.632V0h3.744V-6.384c0-2.376,1.3-3.48,3.1-3.48,1.656,0,2.616.96,2.616,3.048V0h3.744V-7.392C92.832-11.328,90.528-13.1,87.48-13.1Zm18,.192v6.384c0,2.376-1.248,3.48-2.976,3.48-1.656,0-2.616-.96-2.616-3.12v-6.744H96.144v7.3c0,3.984,2.28,5.808,5.52,5.808a5.224,5.224,0,0,0,4.008-1.728V0h3.552V-12.912Zm14.544,9.648a2.523,2.523,0,0,1-1.512.48,1.506,1.506,0,0,1-1.608-1.7V-9.744h3.216v-2.88H116.9v-3.144H113.16v3.144h-1.992v2.88h1.992v5.3c0,3.072,1.776,4.632,4.824,4.632a5.351,5.351,0,0,0,3.048-.816Zm6.7-7.944v-1.7h-3.576V0h3.744V-6.1c0-2.472,1.368-3.6,3.432-3.6.288,0,.528.024.84.048V-13.1A5.211,5.211,0,0,0,126.72-11.208Zm8.544-3.5a2.153,2.153,0,0,0,2.328-2.16,2.1,2.1,0,0,0-2.328-2.016,2.14,2.14,0,0,0-2.328,2.088A2.14,2.14,0,0,0,135.264-14.712ZM133.392,0h3.744V-12.912h-3.744Zm19.872-6.408a6.392,6.392,0,0,0-6.72-6.7,6.573,6.573,0,0,0-6.888,6.648c0,3.84,2.9,6.648,7.368,6.648A6.763,6.763,0,0,0,152.352-1.9l-1.992-2.16a4.377,4.377,0,0,1-3.24,1.248,3.443,3.443,0,0,1-3.7-2.592h9.768C153.216-5.712,153.264-6.12,153.264-6.408Zm-6.7-3.864a3.068,3.068,0,0,1,3.168,2.688h-6.36A3.057,3.057,0,0,1,146.568-10.272Zm17.04-2.832a5.653,5.653,0,0,0-4.272,1.7v-1.512H155.76V0H159.5V-6.384c0-2.376,1.3-3.48,3.1-3.48,1.656,0,2.616.96,2.616,3.048V0h3.744V-7.392C168.96-11.328,166.656-13.1,163.608-13.1Zm16.056,9.84a2.523,2.523,0,0,1-1.512.48,1.506,1.506,0,0,1-1.608-1.7V-9.744h3.216v-2.88h-3.216v-3.144H172.8v3.144h-1.992v2.88H172.8v5.3c0,3.072,1.776,4.632,4.824,4.632a5.351,5.351,0,0,0,3.048-.816Zm15.36-3.144a6.392,6.392,0,0,0-6.72-6.7,6.573,6.573,0,0,0-6.888,6.648c0,3.84,2.9,6.648,7.368,6.648A6.763,6.763,0,0,0,194.112-1.9l-1.992-2.16a4.377,4.377,0,0,1-3.24,1.248,3.443,3.443,0,0,1-3.7-2.592h9.768C194.976-5.712,195.024-6.12,195.024-6.408Zm-6.7-3.864A3.068,3.068,0,0,1,191.5-7.584h-6.36A3.057,3.057,0,0,1,188.328-10.272ZM201.864.192c3.864,0,6.1-1.7,6.1-4.1,0-5.088-7.8-2.952-7.8-5.16,0-.672.72-1.2,2.4-1.2a7.415,7.415,0,0,1,3.72.96l1.248-2.664A10.617,10.617,0,0,0,202.56-13.1c-3.768,0-5.976,1.728-5.976,4.176,0,5.16,7.8,3,7.8,5.112,0,.72-.648,1.176-2.376,1.176a8.834,8.834,0,0,1-4.488-1.248L196.272-1.2A11.085,11.085,0,0,0,201.864.192Z" transform="translate(856 1429)" fill="#376f1d"/>
    <path id="Trazado_17050" data-name="Trazado 17050" d="M20.928,0,20.88-16.8H17.688L11.5-6.36,5.208-16.8H1.992V0H5.64V-9.864l4.92,8.088h1.752l4.944-8.3L17.28,0ZM26.52-14.712a2.153,2.153,0,0,0,2.328-2.16,2.1,2.1,0,0,0-2.328-2.016A2.14,2.14,0,0,0,24.192-16.8,2.14,2.14,0,0,0,26.52-14.712ZM24.648,0h3.744V-12.912H24.648ZM38.112.192c2.712,0,4.848-1.2,5.784-3.264l-2.9-1.584a3.177,3.177,0,0,1-2.9,1.776A3.3,3.3,0,0,1,34.7-6.456a3.3,3.3,0,0,1,3.384-3.576,3.22,3.22,0,0,1,2.9,1.776l2.9-1.56c-.936-2.112-3.072-3.288-5.784-3.288-4.2,0-7.2,2.76-7.2,6.648S33.912.192,38.112.192Zm11.52-11.4v-1.7H46.056V0H49.8V-6.1c0-2.472,1.368-3.6,3.432-3.6.288,0,.528.024.84.048V-13.1A5.211,5.211,0,0,0,49.632-11.208Zm12.7,11.4c4.1,0,7.08-2.76,7.08-6.648S66.432-13.1,62.328-13.1s-7.1,2.76-7.1,6.648S58.224.192,62.328.192Zm0-3.072a3.276,3.276,0,0,1-3.312-3.576,3.276,3.276,0,0,1,3.312-3.576,3.259,3.259,0,0,1,3.288,3.576A3.259,3.259,0,0,1,62.328-2.88ZM79.752-13.1a5.653,5.653,0,0,0-4.272,1.7v-1.512H71.9V0h3.744V-6.384c0-2.376,1.3-3.48,3.1-3.48,1.656,0,2.616.96,2.616,3.048V0H85.1V-7.392C85.1-11.328,82.8-13.1,79.752-13.1Zm18,.192v6.384c0,2.376-1.248,3.48-2.976,3.48-1.656,0-2.616-.96-2.616-3.12v-6.744H88.416v7.3c0,3.984,2.28,5.808,5.52,5.808a5.224,5.224,0,0,0,4.008-1.728V0H101.5V-12.912ZM112.3-3.264a2.523,2.523,0,0,1-1.512.48,1.506,1.506,0,0,1-1.608-1.7V-9.744h3.216v-2.88h-3.216v-3.144h-3.744v3.144H103.44v2.88h1.992v5.3c0,3.072,1.776,4.632,4.824,4.632A5.351,5.351,0,0,0,113.3-.624Zm6.7-7.944v-1.7h-3.576V0h3.744V-6.1c0-2.472,1.368-3.6,3.432-3.6.288,0,.528.024.84.048V-13.1A5.211,5.211,0,0,0,118.992-11.208Zm8.544-3.5a2.153,2.153,0,0,0,2.328-2.16,2.1,2.1,0,0,0-2.328-2.016,2.14,2.14,0,0,0-2.328,2.088A2.14,2.14,0,0,0,127.536-14.712ZM125.664,0h3.744V-12.912h-3.744Zm19.872-6.408a6.392,6.392,0,0,0-6.72-6.7,6.573,6.573,0,0,0-6.888,6.648c0,3.84,2.9,6.648,7.368,6.648A6.763,6.763,0,0,0,144.624-1.9l-1.992-2.16a4.377,4.377,0,0,1-3.24,1.248A3.443,3.443,0,0,1,135.7-5.4h9.768C145.488-5.712,145.536-6.12,145.536-6.408Zm-6.7-3.864a3.068,3.068,0,0,1,3.168,2.688h-6.36A3.057,3.057,0,0,1,138.84-10.272ZM155.88-13.1a5.653,5.653,0,0,0-4.272,1.7v-1.512h-3.576V0h3.744V-6.384c0-2.376,1.3-3.48,3.1-3.48,1.656,0,2.616.96,2.616,3.048V0h3.744V-7.392C161.232-11.328,158.928-13.1,155.88-13.1Zm16.056,9.84a2.523,2.523,0,0,1-1.512.48,1.506,1.506,0,0,1-1.608-1.7V-9.744h3.216v-2.88h-3.216v-3.144h-3.744v3.144H163.08v2.88h1.992v5.3c0,3.072,1.776,4.632,4.824,4.632a5.351,5.351,0,0,0,3.048-.816ZM187.3-6.408a6.392,6.392,0,0,0-6.72-6.7,6.573,6.573,0,0,0-6.888,6.648c0,3.84,2.9,6.648,7.368,6.648A6.763,6.763,0,0,0,186.384-1.9l-1.992-2.16a4.377,4.377,0,0,1-3.24,1.248,3.443,3.443,0,0,1-3.7-2.592h9.768C187.248-5.712,187.3-6.12,187.3-6.408Zm-6.7-3.864a3.068,3.068,0,0,1,3.168,2.688h-6.36A3.057,3.057,0,0,1,180.6-10.272ZM194.136.192c3.864,0,6.1-1.7,6.1-4.1,0-5.088-7.8-2.952-7.8-5.16,0-.672.72-1.2,2.4-1.2a7.415,7.415,0,0,1,3.72.96l1.248-2.664a10.617,10.617,0,0,0-4.968-1.128c-3.768,0-5.976,1.728-5.976,4.176,0,5.16,7.8,3,7.8,5.112,0,.72-.648,1.176-2.376,1.176a8.834,8.834,0,0,1-4.488-1.248L188.544-1.2A11.085,11.085,0,0,0,194.136.192Z" transform="translate(860 1679)" fill="#376f1d"/>
    <path id="Trazado_17089" data-name="Trazado 17089" d="M1.992,0H14.3V-3.168H5.88V-16.8H1.992Zm20.28.192c4.1,0,7.08-2.76,7.08-6.648S26.376-13.1,22.272-13.1s-7.1,2.76-7.1,6.648S18.168.192,22.272.192Zm0-3.072A3.276,3.276,0,0,1,18.96-6.456a3.276,3.276,0,0,1,3.312-3.576A3.259,3.259,0,0,1,25.56-6.456,3.259,3.259,0,0,1,22.272-2.88ZM36.192.192c3.864,0,6.1-1.7,6.1-4.1,0-5.088-7.8-2.952-7.8-5.16,0-.672.72-1.2,2.4-1.2a7.415,7.415,0,0,1,3.72.96l1.248-2.664A10.617,10.617,0,0,0,36.888-13.1c-3.768,0-5.976,1.728-5.976,4.176,0,5.16,7.8,3,7.8,5.112,0,.72-.648,1.176-2.376,1.176a8.834,8.834,0,0,1-4.488-1.248L30.6-1.2A11.084,11.084,0,0,0,36.192.192Zm27.84-6.6a6.392,6.392,0,0,0-6.72-6.7,6.573,6.573,0,0,0-6.888,6.648c0,3.84,2.9,6.648,7.368,6.648A6.763,6.763,0,0,0,63.12-1.9l-1.992-2.16a4.377,4.377,0,0,1-3.24,1.248,3.443,3.443,0,0,1-3.7-2.592H63.96C63.984-5.712,64.032-6.12,64.032-6.408Zm-6.7-3.864A3.068,3.068,0,0,1,60.5-7.584h-6.36A3.057,3.057,0,0,1,57.336-10.272ZM66.528,0h3.744V-17.808H66.528ZM86.4-6.408a6.392,6.392,0,0,0-6.72-6.7,6.574,6.574,0,0,0-6.888,6.648c0,3.84,2.9,6.648,7.368,6.648A6.763,6.763,0,0,0,85.488-1.9L83.5-4.056a4.377,4.377,0,0,1-3.24,1.248A3.443,3.443,0,0,1,76.56-5.4h9.768C86.352-5.712,86.4-6.12,86.4-6.408Zm-6.7-3.864a3.068,3.068,0,0,1,3.168,2.688h-6.36A3.057,3.057,0,0,1,79.7-10.272ZM105.432-13.1a5.806,5.806,0,0,0-4.656,2.112A4.82,4.82,0,0,0,96.528-13.1a5.229,5.229,0,0,0-4.056,1.68v-1.488H88.9V0H92.64V-6.48c0-2.3,1.176-3.384,2.832-3.384,1.56,0,2.448.96,2.448,3.048V0h3.744V-6.48c0-2.3,1.176-3.384,2.856-3.384,1.512,0,2.448.96,2.448,3.048V0h3.744V-7.392C110.712-11.328,108.5-13.1,105.432-13.1Zm21.432,6.7a6.392,6.392,0,0,0-6.72-6.7,6.574,6.574,0,0,0-6.888,6.648c0,3.84,2.9,6.648,7.368,6.648A6.763,6.763,0,0,0,125.952-1.9l-1.992-2.16a4.377,4.377,0,0,1-3.24,1.248,3.443,3.443,0,0,1-3.7-2.592h9.768C126.816-5.712,126.864-6.12,126.864-6.408Zm-6.7-3.864a3.068,3.068,0,0,1,3.168,2.688h-6.36A3.057,3.057,0,0,1,120.168-10.272Zm17.04-2.832a5.653,5.653,0,0,0-4.272,1.7v-1.512H129.36V0H133.1V-6.384c0-2.376,1.3-3.48,3.1-3.48,1.656,0,2.616.96,2.616,3.048V0h3.744V-7.392C142.56-11.328,140.256-13.1,137.208-13.1Zm16.056,9.84a2.523,2.523,0,0,1-1.512.48,1.506,1.506,0,0,1-1.608-1.7V-9.744h3.216v-2.88h-3.216v-3.144H146.4v3.144h-1.992v2.88H146.4v5.3c0,3.072,1.776,4.632,4.824,4.632a5.351,5.351,0,0,0,3.048-.816ZM162.12.192c4.1,0,7.08-2.76,7.08-6.648s-2.976-6.648-7.08-6.648-7.1,2.76-7.1,6.648S158.016.192,162.12.192Zm0-3.072a3.276,3.276,0,0,1-3.312-3.576,3.276,3.276,0,0,1,3.312-3.576,3.259,3.259,0,0,1,3.288,3.576A3.259,3.259,0,0,1,162.12-2.88ZM176.04.192c3.864,0,6.1-1.7,6.1-4.1,0-5.088-7.8-2.952-7.8-5.16,0-.672.72-1.2,2.4-1.2a7.415,7.415,0,0,1,3.72.96l1.248-2.664a10.617,10.617,0,0,0-4.968-1.128c-3.768,0-5.976,1.728-5.976,4.176,0,5.16,7.8,3,7.8,5.112,0,.72-.648,1.176-2.376,1.176A8.834,8.834,0,0,1,171.7-3.888L170.448-1.2A11.085,11.085,0,0,0,176.04.192Zm31.728-13.3a5.806,5.806,0,0,0-4.656,2.112,4.82,4.82,0,0,0-4.248-2.112,5.229,5.229,0,0,0-4.056,1.68v-1.488h-3.576V0h3.744V-6.48c0-2.3,1.176-3.384,2.832-3.384,1.56,0,2.448.96,2.448,3.048V0H204V-6.48c0-2.3,1.176-3.384,2.856-3.384,1.512,0,2.448.96,2.448,3.048V0h3.744V-7.392C213.048-11.328,210.84-13.1,207.768-13.1Zm10.512-1.608a2.153,2.153,0,0,0,2.328-2.16,2.1,2.1,0,0,0-2.328-2.016,2.14,2.14,0,0,0-2.328,2.088A2.14,2.14,0,0,0,218.28-14.712ZM216.408,0h3.744V-12.912h-3.744ZM231.48-13.1a5.653,5.653,0,0,0-4.272,1.7v-1.512h-3.576V0h3.744V-6.384c0-2.376,1.3-3.48,3.1-3.48,1.656,0,2.616.96,2.616,3.048V0h3.744V-7.392C236.832-11.328,234.528-13.1,231.48-13.1Zm21.528,6.7a6.392,6.392,0,0,0-6.72-6.7A6.573,6.573,0,0,0,239.4-6.456c0,3.84,2.9,6.648,7.368,6.648A6.763,6.763,0,0,0,252.1-1.9L250.1-4.056a4.377,4.377,0,0,1-3.24,1.248,3.443,3.443,0,0,1-3.7-2.592h9.768C252.96-5.712,253.008-6.12,253.008-6.408Zm-6.7-3.864a3.068,3.068,0,0,1,3.168,2.688h-6.36A3.057,3.057,0,0,1,246.312-10.272Zm12.768-.936v-1.7H255.5V0h3.744V-6.1c0-2.472,1.368-3.6,3.432-3.6.288,0,.528.024.84.048V-13.1A5.211,5.211,0,0,0,259.08-11.208Zm11.808-1.9a9.926,9.926,0,0,0-5.568,1.56l1.344,2.616a6.208,6.208,0,0,1,3.72-1.2c2.016,0,2.976.936,2.976,2.544h-2.976c-3.936,0-5.544,1.584-5.544,3.864,0,2.232,1.8,3.912,4.824,3.912,1.9,0,3.24-.624,3.936-1.8V0h3.5V-7.368C277.1-11.28,274.824-13.1,270.888-13.1ZM270.6-2.328c-1.32,0-2.112-.624-2.112-1.56,0-.864.552-1.512,2.3-1.512h2.568v1.32A2.759,2.759,0,0,1,270.6-2.328ZM280.488,0h3.744V-17.808h-3.744ZM300.36-6.408a6.392,6.392,0,0,0-6.72-6.7,6.573,6.573,0,0,0-6.888,6.648c0,3.84,2.9,6.648,7.368,6.648A6.763,6.763,0,0,0,299.448-1.9l-1.992-2.16a4.377,4.377,0,0,1-3.24,1.248,3.443,3.443,0,0,1-3.7-2.592h9.768C300.312-5.712,300.36-6.12,300.36-6.408Zm-6.7-3.864a3.068,3.068,0,0,1,3.168,2.688h-6.36A3.057,3.057,0,0,1,293.664-10.272ZM307.2.192c3.864,0,6.1-1.7,6.1-4.1,0-5.088-7.8-2.952-7.8-5.16,0-.672.72-1.2,2.4-1.2a7.415,7.415,0,0,1,3.72.96l1.248-2.664A10.617,10.617,0,0,0,307.9-13.1c-3.768,0-5.976,1.728-5.976,4.176,0,5.16,7.8,3,7.8,5.112,0,.72-.648,1.176-2.376,1.176a8.834,8.834,0,0,1-4.488-1.248L301.608-1.2A11.084,11.084,0,0,0,307.2.192Zm17.064-14.9a2.153,2.153,0,0,0,2.328-2.16,2.1,2.1,0,0,0-2.328-2.016,2.14,2.14,0,0,0-2.328,2.088A2.14,2.14,0,0,0,324.264-14.712ZM322.392,0h3.744V-12.912h-3.744Zm15.072-13.1a5.653,5.653,0,0,0-4.272,1.7v-1.512h-3.576V0h3.744V-6.384c0-2.376,1.3-3.48,3.1-3.48,1.656,0,2.616.96,2.616,3.048V0h3.744V-7.392C342.816-11.328,340.512-13.1,337.464-13.1Zm17.712.192-3.7,8.784L347.9-12.912H344.04L349.464,0h3.864l5.448-12.912ZM366.1.192c4.1,0,7.08-2.76,7.08-6.648S370.2-13.1,366.1-13.1s-7.1,2.76-7.1,6.648S361.992.192,366.1.192Zm0-3.072a3.276,3.276,0,0,1-3.312-3.576,3.276,3.276,0,0,1,3.312-3.576,3.259,3.259,0,0,1,3.288,3.576A3.259,3.259,0,0,1,366.1-2.88ZM375.672,0h3.744V-17.808h-3.744ZM392.16-12.912v6.384c0,2.376-1.248,3.48-2.976,3.48-1.656,0-2.616-.96-2.616-3.12v-6.744h-3.744v7.3c0,3.984,2.28,5.808,5.52,5.808a5.224,5.224,0,0,0,4.008-1.728V0H395.9V-12.912ZM405.624.192c2.712,0,4.848-1.2,5.784-3.264l-2.9-1.584a3.177,3.177,0,0,1-2.9,1.776,3.3,3.3,0,0,1-3.384-3.576,3.3,3.3,0,0,1,3.384-3.576,3.22,3.22,0,0,1,2.9,1.776l2.9-1.56c-.936-2.112-3.072-3.288-5.784-3.288-4.2,0-7.2,2.76-7.2,6.648S401.424.192,405.624.192Zm11.52-11.4v-1.7h-3.576V0h3.744V-6.1c0-2.472,1.368-3.6,3.432-3.6.288,0,.528.024.84.048V-13.1A5.211,5.211,0,0,0,417.144-11.208Zm11.808-1.9a9.926,9.926,0,0,0-5.568,1.56l1.344,2.616a6.208,6.208,0,0,1,3.72-1.2c2.016,0,2.976.936,2.976,2.544h-2.976C424.512-7.584,422.9-6,422.9-3.72c0,2.232,1.8,3.912,4.824,3.912,1.9,0,3.24-.624,3.936-1.8V0h3.5V-7.368C435.168-11.28,432.888-13.1,428.952-13.1Zm-.288,10.776c-1.32,0-2.112-.624-2.112-1.56,0-.864.552-1.512,2.3-1.512h2.568v1.32A2.759,2.759,0,0,1,428.664-2.328Zm19.44-15.48v6.264a4.96,4.96,0,0,0-3.864-1.56,6.277,6.277,0,0,0-6.456,6.648A6.277,6.277,0,0,0,444.24.192a4.967,4.967,0,0,0,4.032-1.68V0h3.576V-17.808ZM444.888-2.88a3.276,3.276,0,0,1-3.312-3.576,3.276,3.276,0,0,1,3.312-3.576,3.271,3.271,0,0,1,3.288,3.576A3.271,3.271,0,0,1,444.888-2.88ZM461.448.192c4.1,0,7.08-2.76,7.08-6.648s-2.976-6.648-7.08-6.648-7.1,2.76-7.1,6.648S457.344.192,461.448.192Zm0-3.072a3.276,3.276,0,0,1-3.312-3.576,3.276,3.276,0,0,1,3.312-3.576,3.259,3.259,0,0,1,3.288,3.576A3.259,3.259,0,0,1,461.448-2.88ZM475.368.192c3.864,0,6.1-1.7,6.1-4.1,0-5.088-7.8-2.952-7.8-5.16,0-.672.72-1.2,2.4-1.2a7.415,7.415,0,0,1,3.72.96l1.248-2.664a10.617,10.617,0,0,0-4.968-1.128c-3.768,0-5.976,1.728-5.976,4.176,0,5.16,7.8,3,7.8,5.112,0,.72-.648,1.176-2.376,1.176a8.834,8.834,0,0,1-4.488-1.248L469.776-1.2A11.084,11.084,0,0,0,475.368.192Zm27.84-6.6a6.392,6.392,0,0,0-6.72-6.7A6.573,6.573,0,0,0,489.6-6.456c0,3.84,2.9,6.648,7.368,6.648A6.763,6.763,0,0,0,502.3-1.9L500.3-4.056a4.377,4.377,0,0,1-3.24,1.248,3.443,3.443,0,0,1-3.7-2.592h9.768C503.16-5.712,503.208-6.12,503.208-6.408Zm-6.7-3.864a3.068,3.068,0,0,1,3.168,2.688h-6.36A3.057,3.057,0,0,1,496.512-10.272Zm17.04-2.832a5.653,5.653,0,0,0-4.272,1.7v-1.512H505.7V0h3.744V-6.384c0-2.376,1.3-3.48,3.1-3.48,1.656,0,2.616.96,2.616,3.048V0H518.9V-7.392C518.9-11.328,516.6-13.1,513.552-13.1ZM529.08,0h3.744V-17.808H529.08Zm12.432-13.1a9.926,9.926,0,0,0-5.568,1.56l1.344,2.616a6.209,6.209,0,0,1,3.72-1.2c2.016,0,2.976.936,2.976,2.544h-2.976c-3.936,0-5.544,1.584-5.544,3.864,0,2.232,1.8,3.912,4.824,3.912,1.9,0,3.24-.624,3.936-1.8V0h3.5V-7.368C547.728-11.28,545.448-13.1,541.512-13.1Zm-.288,10.776c-1.32,0-2.112-.624-2.112-1.56,0-.864.552-1.512,2.3-1.512h2.568v1.32A2.759,2.759,0,0,1,541.224-2.328ZM565.752-13.1a5.653,5.653,0,0,0-4.272,1.7v-1.512H557.9V0h3.744V-6.384c0-2.376,1.3-3.48,3.1-3.48,1.656,0,2.616.96,2.616,3.048V0H571.1V-7.392C571.1-11.328,568.8-13.1,565.752-13.1Zm18,.192v6.384c0,2.376-1.248,3.48-2.976,3.48-1.656,0-2.616-.96-2.616-3.12v-6.744h-3.744v7.3c0,3.984,2.28,5.808,5.52,5.808a5.224,5.224,0,0,0,4.008-1.728V0H587.5V-12.912ZM598.3-3.264a2.523,2.523,0,0,1-1.512.48,1.506,1.506,0,0,1-1.608-1.7V-9.744h3.216v-2.88h-3.216v-3.144h-3.744v3.144H589.44v2.88h1.992v5.3c0,3.072,1.776,4.632,4.824,4.632A5.35,5.35,0,0,0,599.3-.624Zm6.7-7.944v-1.7h-3.576V0h3.744V-6.1c0-2.472,1.368-3.6,3.432-3.6.288,0,.528.024.84.048V-13.1A5.211,5.211,0,0,0,604.992-11.208Zm8.544-3.5a2.153,2.153,0,0,0,2.328-2.16,2.1,2.1,0,0,0-2.328-2.016,2.14,2.14,0,0,0-2.328,2.088A2.14,2.14,0,0,0,613.536-14.712ZM611.664,0h3.744V-12.912h-3.744Zm13.464.192c2.712,0,4.848-1.2,5.784-3.264l-2.9-1.584a3.177,3.177,0,0,1-2.9,1.776,3.3,3.3,0,0,1-3.384-3.576,3.3,3.3,0,0,1,3.384-3.576,3.22,3.22,0,0,1,2.9,1.776l2.9-1.56c-.936-2.112-3.072-3.288-5.784-3.288-4.2,0-7.2,2.76-7.2,6.648S620.928.192,625.128.192Zm9.816-14.9a2.153,2.153,0,0,0,2.328-2.16,2.1,2.1,0,0,0-2.328-2.016,2.14,2.14,0,0,0-2.328,2.088A2.14,2.14,0,0,0,634.944-14.712ZM633.072,0h3.744V-12.912h-3.744Zm11.136-14.568h2.928l4.344-3.456h-4.032ZM646.44.192c4.1,0,7.08-2.76,7.08-6.648s-2.976-6.648-7.08-6.648-7.1,2.76-7.1,6.648S642.336.192,646.44.192Zm0-3.072a3.276,3.276,0,0,1-3.312-3.576,3.276,3.276,0,0,1,3.312-3.576,3.259,3.259,0,0,1,3.288,3.576A3.259,3.259,0,0,1,646.44-2.88ZM663.864-13.1a5.653,5.653,0,0,0-4.272,1.7v-1.512h-3.576V0h3.744V-6.384c0-2.376,1.3-3.48,3.1-3.48,1.656,0,2.616.96,2.616,3.048V0h3.744V-7.392C669.216-11.328,666.912-13.1,663.864-13.1Zm24.744.192-3.7,8.784-3.576-8.784h-3.864L682.9,0h3.864l5.448-12.912Zm17.424,6.5a6.392,6.392,0,0,0-6.72-6.7,6.573,6.573,0,0,0-6.888,6.648c0,3.84,2.9,6.648,7.368,6.648A6.763,6.763,0,0,0,705.12-1.9l-1.992-2.16a4.377,4.377,0,0,1-3.24,1.248,3.443,3.443,0,0,1-3.7-2.592h9.768C705.984-5.712,706.032-6.12,706.032-6.408Zm-6.7-3.864A3.068,3.068,0,0,1,702.5-7.584h-6.36A3.057,3.057,0,0,1,699.336-10.272Zm18.96-2.64v1.656a5.183,5.183,0,0,0-4.272-1.848,6.147,6.147,0,0,0-6.456,6.24,6.147,6.147,0,0,0,6.456,6.24,5.316,5.316,0,0,0,4.08-1.608v.552c0,2.328-1.152,3.528-3.792,3.528a7.717,7.717,0,0,1-4.56-1.464l-1.488,2.688A10.637,10.637,0,0,0,714.6,4.848c4.656,0,7.248-2.208,7.248-7.008V-12.912ZM714.768-3.7a3.155,3.155,0,0,1-3.408-3.168,3.155,3.155,0,0,1,3.408-3.168,3.135,3.135,0,0,1,3.384,3.168A3.135,3.135,0,0,1,714.768-3.7Zm23.208-2.712a6.392,6.392,0,0,0-6.72-6.7,6.573,6.573,0,0,0-6.888,6.648c0,3.84,2.9,6.648,7.368,6.648A6.763,6.763,0,0,0,737.064-1.9l-1.992-2.16a4.377,4.377,0,0,1-3.24,1.248,3.443,3.443,0,0,1-3.7-2.592H737.9C737.928-5.712,737.976-6.12,737.976-6.408Zm-6.7-3.864a3.068,3.068,0,0,1,3.168,2.688h-6.36A3.057,3.057,0,0,1,731.28-10.272Zm16.512,7.008a2.523,2.523,0,0,1-1.512.48,1.506,1.506,0,0,1-1.608-1.7V-9.744h3.216v-2.88h-3.216v-3.144h-3.744v3.144h-1.992v2.88h1.992v5.3c0,3.072,1.776,4.632,4.824,4.632A5.351,5.351,0,0,0,748.8-.624Zm8.328-9.84a9.926,9.926,0,0,0-5.568,1.56L751.9-8.928a6.209,6.209,0,0,1,3.72-1.2c2.016,0,2.976.936,2.976,2.544h-2.976c-3.936,0-5.544,1.584-5.544,3.864,0,2.232,1.8,3.912,4.824,3.912,1.9,0,3.24-.624,3.936-1.8V0h3.5V-7.368C762.336-11.28,760.056-13.1,756.12-13.1Zm-.288,10.776c-1.32,0-2.112-.624-2.112-1.56,0-.864.552-1.512,2.3-1.512h2.568v1.32A2.759,2.759,0,0,1,755.832-2.328ZM765.72,0h3.744V-17.808H765.72Z" transform="translate(571 1359)" fill="#00223d"/>
    <path id="Trazado_17028" data-name="Trazado 17028" d="M0,0H128V141H0Z" transform="translate(489 1714)" fill="#e2f4ce"/>
    <path id="Trazado_17034" data-name="Trazado 17034" d="M40.6-24.752A11.442,11.442,0,0,0,46.92-35.224C46.92-42.636,40.8-47.6,28.9-47.6H5.644V0H30.26C42.772,0,49.3-4.76,49.3-12.988,49.3-18.972,45.9-23.052,40.6-24.752ZM27.54-39.3c5.372,0,8.3,1.836,8.3,5.576s-2.924,5.644-8.3,5.644H16.592V-39.3ZM29.444-8.3H16.592V-20.06H29.444c5.712,0,8.772,1.9,8.772,5.916C38.216-10.064,35.156-8.3,29.444-8.3Z" transform="translate(524 1800)" fill="#010101"/>
    <path id="Trazado_17035" data-name="Trazado 17035" d="M6.138-9.614H4.884l.242-2.926H11.55V-15.4H2.156L1.364-6.732H5.3c2.794,0,3.586.792,3.586,2,0,1.254-1.1,2-2.882,2A7.411,7.411,0,0,1,1.628-4.114L.22-1.386A10.641,10.641,0,0,0,6.094.264c4.4,0,6.4-2.376,6.4-5.1S10.692-9.614,6.138-9.614Z" transform="translate(499 1739)" fill="#010101"/>
    <path id="Trazado_17039" data-name="Trazado 17039" d="M8.955-5.46a2.524,2.524,0,0,0,1.4-2.31C10.35-9.4,9-10.5,6.375-10.5H1.245V0h5.43c2.76,0,4.2-1.05,4.2-2.865A2.593,2.593,0,0,0,8.955-5.46ZM6.075-8.67c1.185,0,1.83.4,1.83,1.23S7.26-6.195,6.075-6.195H3.66V-8.67Zm.42,6.84H3.66V-4.425H6.495c1.26,0,1.935.42,1.935,1.3C8.43-2.22,7.755-1.83,6.495-1.83ZM16.4.12A4.142,4.142,0,0,0,20.82-4.035,4.142,4.142,0,0,0,16.4-8.19a4.154,4.154,0,0,0-4.44,4.155A4.154,4.154,0,0,0,16.4.12Zm0-1.92a2.048,2.048,0,0,1-2.07-2.235A2.048,2.048,0,0,1,16.4-6.27,2.037,2.037,0,0,1,18.45-4.035,2.037,2.037,0,0,1,16.4-1.8Zm8.22-5.205V-8.07H22.38V0h2.34V-3.81a1.983,1.983,0,0,1,2.145-2.25c.18,0,.33.015.525.03V-8.19A3.257,3.257,0,0,0,24.615-7.005ZM32.55.12a4.142,4.142,0,0,0,4.425-4.155A4.142,4.142,0,0,0,32.55-8.19a4.154,4.154,0,0,0-4.44,4.155A4.154,4.154,0,0,0,32.55.12Zm0-1.92a2.048,2.048,0,0,1-2.07-2.235A2.048,2.048,0,0,1,32.55-6.27,2.037,2.037,0,0,1,34.6-4.035,2.037,2.037,0,0,1,32.55-1.8Z" transform="translate(535 1839)" fill="#010101"/>
    <path id="Trazado_17051" data-name="Trazado 17051" d="M0,0H128V4H0Z" transform="translate(489 1855)" fill="#3e3e3e"/>
    <path id="Trazado_17036" data-name="Trazado 17036" d="M0,0H128V141H0Z" transform="translate(652 1714)" fill="#b3e4f6"/>
    <path id="Trazado_17037" data-name="Trazado 17037" d="M28.006.8C36.18.8,42.947-2.144,47.369-7.571L40.4-14A14.946,14.946,0,0,1,28.609-8.442C19.832-8.442,13.6-14.606,13.6-23.45s6.231-15.008,15.008-15.008A15.089,15.089,0,0,1,40.4-32.964L47.369-39.4c-4.422-5.36-11.189-8.308-19.3-8.308-14.606,0-25.46,10.117-25.46,24.254S13.467.8,28.006.8ZM53.935,0H64.387V-49.714H53.935Z" transform="translate(682 1799)" fill="#010101"/>
    <path id="Trazado_17038" data-name="Trazado 17038" d="M.154-15.4v2.86h3.08V0H6.8V-15.4Zm9.042,0v5.412h3.168V-12.5h5.1L11.946,0h3.872l5.72-13.09V-15.4Z" transform="translate(663 1739)" fill="#010101"/>
    <path id="Trazado_17040" data-name="Trazado 17040" d="M6.27.18a5.4,5.4,0,0,0,4.335-1.875l-1.56-1.44A3.346,3.346,0,0,1,6.4-1.89a3.221,3.221,0,0,1-3.36-3.36A3.221,3.221,0,0,1,6.4-8.61a3.378,3.378,0,0,1,2.64,1.23l1.56-1.44a5.421,5.421,0,0,0-4.32-1.86,5.4,5.4,0,0,0-5.7,5.43A5.391,5.391,0,0,0,6.27.18Zm5.8-.18h2.34V-11.13h-2.34ZM20.43.12a4.142,4.142,0,0,0,4.425-4.155A4.142,4.142,0,0,0,20.43-8.19a4.154,4.154,0,0,0-4.44,4.155A4.154,4.154,0,0,0,20.43.12Zm0-1.92a2.048,2.048,0,0,1-2.07-2.235A2.048,2.048,0,0,1,20.43-6.27a2.037,2.037,0,0,1,2.055,2.235A2.037,2.037,0,0,1,20.43-1.8Zm8.22-5.205V-8.07H26.415V0h2.34V-3.81A1.983,1.983,0,0,1,30.9-6.06c.18,0,.33.015.525.03V-8.19A3.257,3.257,0,0,0,28.65-7.005ZM36.585.12A4.142,4.142,0,0,0,41.01-4.035,4.142,4.142,0,0,0,36.585-8.19a4.154,4.154,0,0,0-4.44,4.155A4.154,4.154,0,0,0,36.585.12Zm0-1.92a2.048,2.048,0,0,1-2.07-2.235,2.048,2.048,0,0,1,2.07-2.235A2.037,2.037,0,0,1,38.64-4.035,2.037,2.037,0,0,1,36.585-1.8Z" transform="translate(696 1837)" fill="#010101"/>
    <path id="Trazado_17052" data-name="Trazado 17052" d="M0,0H128V4H0Z" transform="translate(652 1855)" fill="#3e3e3e"/>
    <path id="Trazado_16954" data-name="Trazado 16954" d="M0,0H127V141H0Z" transform="translate(815 1714)" fill="#f2c47b"/>
    <path id="Trazado_17046" data-name="Trazado 17046" d="M28.424.816c8.3,0,15.164-2.992,19.652-8.5L41-14.212A15.169,15.169,0,0,1,29.036-8.568C20.128-8.568,13.8-14.824,13.8-23.8s6.324-15.232,15.232-15.232A15.314,15.314,0,0,1,41-33.456l7.072-6.528c-4.488-5.44-11.356-8.432-19.584-8.432-14.824,0-25.84,10.268-25.84,24.616S13.668.816,28.424.816ZM70.856.544c11.628,0,20.06-7.82,20.06-18.836s-8.432-18.836-20.06-18.836-20.128,7.82-20.128,18.836S59.228.544,70.856.544Zm0-8.7c-5.3,0-9.384-3.808-9.384-10.132s4.08-10.132,9.384-10.132,9.316,3.808,9.316,10.132S76.16-8.16,70.856-8.16Z" transform="translate(832 1800)" fill="#010101"/>
    <path id="Trazado_17047" data-name="Trazado 17047" d="M5.481-2.772,8.862-5.964c2.058-1.911,2.457-3.213,2.457-4.641,0-2.667-2.184-4.347-5.46-4.347a6.827,6.827,0,0,0-5.838,2.73l2.478,1.6A3.594,3.594,0,0,1,5.544-12.1c1.554,0,2.352.672,2.352,1.827,0,.714-.231,1.47-1.533,2.709L.693-2.2V0H11.8V-2.772ZM12.894-14.7v5.166h3.024v-2.394H20.79L15.519,0h3.7l5.46-12.5v-2.2Z" transform="translate(824 1738)" fill="#010101"/>
    <path id="Trazado_17048" data-name="Trazado 17048" d="M6.27.18a5.4,5.4,0,0,0,4.335-1.875l-1.56-1.44A3.346,3.346,0,0,1,6.4-1.89a3.221,3.221,0,0,1-3.36-3.36A3.221,3.221,0,0,1,6.4-8.61a3.378,3.378,0,0,1,2.64,1.23l1.56-1.44a5.421,5.421,0,0,0-4.32-1.86,5.4,5.4,0,0,0-5.7,5.43A5.391,5.391,0,0,0,6.27.18ZM15.63.12a4.142,4.142,0,0,0,4.425-4.155A4.142,4.142,0,0,0,15.63-8.19a4.154,4.154,0,0,0-4.44,4.155A4.154,4.154,0,0,0,15.63.12Zm0-1.92a2.048,2.048,0,0,1-2.07-2.235A2.048,2.048,0,0,1,15.63-6.27a2.037,2.037,0,0,1,2.055,2.235A2.037,2.037,0,0,1,15.63-1.8ZM26.385-8.19a3.133,3.133,0,0,0-2.43.975V-11.13h-2.34V0H23.85V-.93A3.135,3.135,0,0,0,26.385.12,3.92,3.92,0,0,0,30.4-4.035,3.92,3.92,0,0,0,26.385-8.19ZM25.98-1.8a2.037,2.037,0,0,1-2.055-2.235A2.037,2.037,0,0,1,25.98-6.27a2.037,2.037,0,0,1,2.055,2.235A2.037,2.037,0,0,1,25.98-1.8Zm9.1-6.39a6.2,6.2,0,0,0-3.48.975l.84,1.635a3.88,3.88,0,0,1,2.325-.75c1.26,0,1.86.585,1.86,1.59H34.77c-2.46,0-3.465.99-3.465,2.415C31.305-.93,32.43.12,34.32.12A2.648,2.648,0,0,0,36.78-1V0h2.19V-4.605C38.97-7.05,37.545-8.19,35.085-8.19ZM34.9-1.455c-.825,0-1.32-.39-1.32-.975,0-.54.345-.945,1.44-.945h1.6v.825A1.724,1.724,0,0,1,34.9-1.455ZM41.085,0h2.34V-11.13h-2.34ZM50.76-2.04a1.577,1.577,0,0,1-.945.3A.941.941,0,0,1,48.81-2.805V-6.09h2.01v-1.8H48.81V-9.855H46.47V-7.89H45.225v1.8H46.47v3.315c0,1.92,1.11,2.9,3.015,2.9a3.344,3.344,0,0,0,1.9-.51ZM56.295.12A4.142,4.142,0,0,0,60.72-4.035,4.142,4.142,0,0,0,56.295-8.19a4.154,4.154,0,0,0-4.44,4.155A4.154,4.154,0,0,0,56.295.12Zm0-1.92a2.048,2.048,0,0,1-2.07-2.235,2.048,2.048,0,0,1,2.07-2.235A2.037,2.037,0,0,1,58.35-4.035,2.037,2.037,0,0,1,56.295-1.8Z" transform="translate(849 1837)" fill="#010101"/>
    <path id="Trazado_17049" data-name="Trazado 17049" d="M0,0H127V4H0Z" transform="translate(815 1855)" fill="#3e3e3e"/>
    <path id="Trazado_16955" data-name="Trazado 16955" d="M0,0H128V141H0Z" transform="translate(978 1714)" fill="#f2c47b"/>
    <path id="Trazado_17058" data-name="Trazado 17058" d="M28.424.816c8.3,0,15.164-2.992,19.652-8.5L41-14.212A15.169,15.169,0,0,1,29.036-8.568C20.128-8.568,13.8-14.824,13.8-23.8s6.324-15.232,15.232-15.232A15.314,15.314,0,0,1,41-33.456l7.072-6.528c-4.488-5.44-11.356-8.432-19.584-8.432-14.824,0-25.84,10.268-25.84,24.616S13.668.816,28.424.816Zm51.612-37.4V-18.5c0,6.732-3.536,9.86-8.432,9.86-4.692,0-7.412-2.72-7.412-8.84V-36.584H53.584v20.672c0,11.288,6.46,16.456,15.64,16.456a14.8,14.8,0,0,0,11.356-4.9V0H90.644V-36.584Z" transform="translate(999 1800)" fill="#010101"/>
    <path id="Trazado_17059" data-name="Trazado 17059" d="M5.481-2.772,8.862-5.964c2.058-1.911,2.457-3.213,2.457-4.641,0-2.667-2.184-4.347-5.46-4.347a6.827,6.827,0,0,0-5.838,2.73l2.478,1.6A3.594,3.594,0,0,1,5.544-12.1c1.554,0,2.352.672,2.352,1.827,0,.714-.231,1.47-1.533,2.709L.693-2.2V0H11.8V-2.772Zm12.894-12.18c-3.108,0-5.565,1.89-5.565,4.893,0,2.772,2.226,4.578,5.061,4.578A5.024,5.024,0,0,0,21.525-6.8c-.105,2.835-1.7,4.284-4.137,4.284a4.754,4.754,0,0,1-2.751-.735l-1.26,2.5A7.858,7.858,0,0,0,17.451.252c4.452,0,7.5-2.835,7.5-7.917C24.948-12.411,22.449-14.952,18.375-14.952Zm.252,6.93a2.216,2.216,0,0,1-2.5-2.2,2.2,2.2,0,0,1,2.457-2.184c1.617,0,2.562.924,2.562,2.184A2.28,2.28,0,0,1,18.627-8.022Z" transform="translate(988 1738)" fill="#010101"/>
    <path id="Trazado_17060" data-name="Trazado 17060" d="M6.27.18a5.4,5.4,0,0,0,4.335-1.875l-1.56-1.44A3.346,3.346,0,0,1,6.4-1.89a3.221,3.221,0,0,1-3.36-3.36A3.221,3.221,0,0,1,6.4-8.61a3.378,3.378,0,0,1,2.64,1.23l1.56-1.44a5.421,5.421,0,0,0-4.32-1.86,5.4,5.4,0,0,0-5.7,5.43A5.391,5.391,0,0,0,6.27.18ZM15.63.12a4.142,4.142,0,0,0,4.425-4.155A4.142,4.142,0,0,0,15.63-8.19a4.154,4.154,0,0,0-4.44,4.155A4.154,4.154,0,0,0,15.63.12Zm0-1.92a2.048,2.048,0,0,1-2.07-2.235A2.048,2.048,0,0,1,15.63-6.27a2.037,2.037,0,0,1,2.055,2.235A2.037,2.037,0,0,1,15.63-1.8ZM26.385-8.19a3.133,3.133,0,0,0-2.43.975V-11.13h-2.34V0H23.85V-.93A3.135,3.135,0,0,0,26.385.12,3.92,3.92,0,0,0,30.4-4.035,3.92,3.92,0,0,0,26.385-8.19ZM25.98-1.8a2.037,2.037,0,0,1-2.055-2.235A2.037,2.037,0,0,1,25.98-6.27a2.037,2.037,0,0,1,2.055,2.235A2.037,2.037,0,0,1,25.98-1.8ZM34.2-7.005V-8.07H31.965V0h2.34V-3.81A1.983,1.983,0,0,1,36.45-6.06c.18,0,.33.015.525.03V-8.19A3.257,3.257,0,0,0,34.2-7.005Zm12,3A4,4,0,0,0,42-8.19a4.108,4.108,0,0,0-4.305,4.155c0,2.4,1.815,4.155,4.6,4.155a4.227,4.227,0,0,0,3.33-1.305l-1.245-1.35a2.736,2.736,0,0,1-2.025.78,2.152,2.152,0,0,1-2.31-1.62h6.1C46.17-3.57,46.2-3.825,46.2-4ZM42.015-6.42a1.918,1.918,0,0,1,1.98,1.68H40.02A1.91,1.91,0,0,1,42.015-6.42Z" transform="translate(1024 1837)" fill="#010101"/>
    <path id="Trazado_17061" data-name="Trazado 17061" d="M0,0H128V4H0Z" transform="translate(978 1855)" fill="#3e3e3e"/>
    <path id="Trazado_16955-2" data-name="Trazado 16955" d="M0,0H128V141H0Z" transform="translate(1137 1714)" fill="#f2c47b"/>
    <path id="Trazado_17067" data-name="Trazado 17067" d="M41.616-38.76V-47.6H5.644V0H16.66V-17.34H38.692v-8.84H16.66V-38.76Zm41.616,20.6c0-11.764-8.3-18.972-19.04-18.972-11.152,0-19.516,7.888-19.516,18.836C44.676-7.412,52.9.544,65.552.544c6.6,0,11.7-2.04,15.1-5.916L75-11.492a12.4,12.4,0,0,1-9.18,3.536c-5.576,0-9.452-2.788-10.472-7.344H83.028C83.1-16.184,83.232-17.34,83.232-18.156ZM64.26-29.1a8.693,8.693,0,0,1,8.976,7.616H55.216A8.661,8.661,0,0,1,64.26-29.1Z" transform="translate(1158 1800)" fill="#010101"/>
    <path id="Trazado_17068" data-name="Trazado 17068" d="M5.481-2.772,8.862-5.964c2.058-1.911,2.457-3.213,2.457-4.641,0-2.667-2.184-4.347-5.46-4.347a6.827,6.827,0,0,0-5.838,2.73l2.478,1.6A3.594,3.594,0,0,1,5.544-12.1c1.554,0,2.352.672,2.352,1.827,0,.714-.231,1.47-1.533,2.709L.693-2.2V0H11.8V-2.772ZM20.244-9.219a4.961,4.961,0,0,0-3.633,1.3c.1-2.814,1.68-4.263,4.137-4.263a4.841,4.841,0,0,1,2.751.735l1.26-2.5a7.937,7.937,0,0,0-4.095-1.008c-4.431,0-7.5,2.835-7.5,7.917,0,4.746,2.52,7.287,6.573,7.287,3.108,0,5.565-1.89,5.565-4.893C25.305-7.413,23.079-9.219,20.244-9.219Zm-.693,6.93c-1.638,0-2.583-.924-2.583-2.184a2.3,2.3,0,0,1,2.541-2.2,2.216,2.216,0,0,1,2.5,2.2A2.2,2.2,0,0,1,19.551-2.289Z" transform="translate(1147 1738)" fill="#010101"/>
    <path id="Trazado_17069" data-name="Trazado 17069" d="M8.445-10.5v4.14H3.675V-10.5H1.245V0h2.43V-4.3h4.77V0h2.43V-10.5ZM14.37-9.195a1.346,1.346,0,0,0,1.455-1.35,1.314,1.314,0,0,0-1.455-1.26A1.338,1.338,0,0,0,12.915-10.5,1.338,1.338,0,0,0,14.37-9.195ZM13.2,0h2.34V-8.07H13.2ZM25.62-4a4,4,0,0,0-4.2-4.185,4.108,4.108,0,0,0-4.305,4.155c0,2.4,1.815,4.155,4.605,4.155a4.227,4.227,0,0,0,3.33-1.305l-1.245-1.35a2.736,2.736,0,0,1-2.025.78,2.152,2.152,0,0,1-2.31-1.62h6.1C25.59-3.57,25.62-3.825,25.62-4ZM21.435-6.42a1.918,1.918,0,0,1,1.98,1.68H19.44A1.91,1.91,0,0,1,21.435-6.42Zm7.98-.585V-8.07H27.18V0h2.34V-3.81a1.983,1.983,0,0,1,2.145-2.25c.18,0,.33.015.525.03V-8.19A3.257,3.257,0,0,0,29.415-7.005Zm6.4,0V-8.07H33.585V0h2.34V-3.81A1.983,1.983,0,0,1,38.07-6.06c.18,0,.33.015.525.03V-8.19A3.257,3.257,0,0,0,35.82-7.005ZM43.755.12A4.142,4.142,0,0,0,48.18-4.035,4.142,4.142,0,0,0,43.755-8.19a4.154,4.154,0,0,0-4.44,4.155A4.154,4.154,0,0,0,43.755.12Zm0-1.92a2.048,2.048,0,0,1-2.07-2.235,2.048,2.048,0,0,1,2.07-2.235A2.037,2.037,0,0,1,45.81-4.035,2.037,2.037,0,0,1,43.755-1.8Z" transform="translate(1177 1837)" fill="#010101"/>
    <path id="Trazado_17070" data-name="Trazado 17070" d="M0,0H128V4H0Z" transform="translate(1137 1855)" fill="#3e3e3e"/>
    <path id="Trazado_16955-3" data-name="Trazado 16955" d="M0,0H128V141H0Z" transform="translate(1301 1714)" fill="#f2c47b"/>
    <path id="Trazado_17084" data-name="Trazado 17084" d="M59.3,0,59.16-47.6H50.116L32.572-18.02,14.756-47.6H5.644V0H15.98V-27.948L29.92-5.032h4.964L48.892-28.56,48.96,0ZM92.072-37.128c-4.964,0-9.248,1.7-12.1,4.828v-4.284H69.836V0H80.444V-18.088c0-6.732,3.672-9.86,8.772-9.86,4.692,0,7.412,2.72,7.412,8.636V0h10.608V-20.944C107.236-32.1,100.708-37.128,92.072-37.128Z" transform="translate(1311 1800)" fill="#010101"/>
    <path id="Trazado_17085" data-name="Trazado 17085" d="M5.481-2.772,8.862-5.964c2.058-1.911,2.457-3.213,2.457-4.641,0-2.667-2.184-4.347-5.46-4.347a6.827,6.827,0,0,0-5.838,2.73l2.478,1.6A3.594,3.594,0,0,1,5.544-12.1c1.554,0,2.352.672,2.352,1.827,0,.714-.231,1.47-1.533,2.709L.693-2.2V0H11.8V-2.772Zm12.768-6.4h-1.2l.231-2.793h6.132V-14.7H14.448l-.756,8.274h3.759c2.667,0,3.423.756,3.423,1.911,0,1.2-1.05,1.911-2.751,1.911a7.075,7.075,0,0,1-4.179-1.323L12.6-1.323A10.158,10.158,0,0,0,18.207.252c4.2,0,6.111-2.268,6.111-4.872S22.6-9.177,18.249-9.177Z" transform="translate(1311 1738)" fill="#010101"/>
    <path id="Trazado_17086" data-name="Trazado 17086" d="M13.08,0l-.03-10.5H11.055L7.185-3.975,3.255-10.5H1.245V0h2.28V-6.165L6.6-1.11H7.7l3.09-5.19L10.8,0Zm5.58-8.19a6.2,6.2,0,0,0-3.48.975l.84,1.635a3.88,3.88,0,0,1,2.325-.75c1.26,0,1.86.585,1.86,1.59h-1.86c-2.46,0-3.465.99-3.465,2.415C14.88-.93,16,.12,17.9.12A2.648,2.648,0,0,0,20.355-1V0h2.19V-4.605C22.545-7.05,21.12-8.19,18.66-8.19Zm-.18,6.735c-.825,0-1.32-.39-1.32-.975,0-.54.345-.945,1.44-.945h1.6v.825A1.724,1.724,0,0,1,18.48-1.455ZM29.565-8.19A3.533,3.533,0,0,0,26.9-7.125V-8.07H24.66V0H27V-3.99c0-1.485.81-2.175,1.935-2.175,1.035,0,1.635.6,1.635,1.9V0h2.34V-4.62C32.91-7.08,31.47-8.19,29.565-8.19Zm11.655.12v1.035A3.239,3.239,0,0,0,38.55-8.19a3.842,3.842,0,0,0-4.035,3.9A3.842,3.842,0,0,0,38.55-.39a3.322,3.322,0,0,0,2.55-1v.345c0,1.455-.72,2.2-2.37,2.2A4.823,4.823,0,0,1,35.88.24l-.93,1.68a6.648,6.648,0,0,0,3.96,1.11c2.91,0,4.53-1.38,4.53-4.38V-8.07ZM39.015-2.31a1.972,1.972,0,0,1-2.13-1.98,1.972,1.972,0,0,1,2.13-1.98A1.96,1.96,0,0,1,41.13-4.29,1.96,1.96,0,0,1,39.015-2.31ZM48.87-8.19a6.2,6.2,0,0,0-3.48.975l.84,1.635a3.88,3.88,0,0,1,2.325-.75c1.26,0,1.86.585,1.86,1.59h-1.86c-2.46,0-3.465.99-3.465,2.415C45.09-.93,46.215.12,48.1.12A2.648,2.648,0,0,0,50.565-1V0h2.19V-4.605C52.755-7.05,51.33-8.19,48.87-8.19Zm-.18,6.735c-.825,0-1.32-.39-1.32-.975,0-.54.345-.945,1.44-.945h1.6v.825A1.724,1.724,0,0,1,48.69-1.455ZM59.775-8.19A3.533,3.533,0,0,0,57.1-7.125V-8.07H54.87V0h2.34V-3.99c0-1.485.81-2.175,1.935-2.175,1.035,0,1.635.6,1.635,1.9V0h2.34V-4.62C63.12-7.08,61.68-8.19,59.775-8.19ZM73.23-4a4,4,0,0,0-4.2-4.185,4.108,4.108,0,0,0-4.3,4.155c0,2.4,1.815,4.155,4.6,4.155a4.227,4.227,0,0,0,3.33-1.305l-1.245-1.35a2.736,2.736,0,0,1-2.025.78,2.152,2.152,0,0,1-2.31-1.62h6.105C73.2-3.57,73.23-3.825,73.23-4ZM69.045-6.42a1.918,1.918,0,0,1,1.98,1.68H67.05A1.91,1.91,0,0,1,69.045-6.42ZM77.5.12c2.415,0,3.81-1.065,3.81-2.565,0-3.18-4.875-1.845-4.875-3.225,0-.42.45-.75,1.5-.75a4.634,4.634,0,0,1,2.325.6l.78-1.665a6.636,6.636,0,0,0-3.1-.705c-2.355,0-3.735,1.08-3.735,2.61,0,3.225,4.875,1.875,4.875,3.195,0,.45-.4.735-1.485.735a5.521,5.521,0,0,1-2.805-.78L74.01-.75A6.928,6.928,0,0,0,77.5.12Zm9.09,0A4.142,4.142,0,0,0,91.02-4.035,4.142,4.142,0,0,0,86.6-8.19a4.154,4.154,0,0,0-4.44,4.155A4.154,4.154,0,0,0,86.6.12Zm0-1.92a2.048,2.048,0,0,1-2.07-2.235A2.048,2.048,0,0,1,86.6-6.27,2.037,2.037,0,0,1,88.65-4.035,2.037,2.037,0,0,1,86.6-1.8Z" transform="translate(1321 1837)" fill="#010101"/>
    <path id="Trazado_17087" data-name="Trazado 17087" d="M0,0H128V4H0Z" transform="translate(1301 1855)" fill="#3e3e3e"/>
    <path id="Trazado_16954-2" data-name="Trazado 16954" d="M0,0H127V141H0Z" transform="translate(815 1888)" fill="#f2c47b"/>
    <path id="Trazado_17071" data-name="Trazado 17071" d="M59.3,0,59.16-47.6H50.116L32.572-18.02,14.756-47.6H5.644V0H15.98V-27.948L29.92-5.032h4.964L48.892-28.56,48.96,0ZM87.244.544c11.628,0,20.06-7.82,20.06-18.836s-8.432-18.836-20.06-18.836-20.128,7.82-20.128,18.836S75.616.544,87.244.544Zm0-8.7c-5.3,0-9.384-3.808-9.384-10.132s4.08-10.132,9.384-10.132,9.316,3.808,9.316,10.132S92.548-8.16,87.244-8.16Z" transform="translate(824 1974)" fill="#010101"/>
    <path id="Trazado_17072" data-name="Trazado 17072" d="M14.28-5.859H11.886V-8.61H8.673v2.751H4.725L11.151-14.7H7.581L.651-5.376v2.289H8.568V0h3.318V-3.087H14.28Zm5.628,3.087,3.381-3.192c2.058-1.911,2.457-3.213,2.457-4.641,0-2.667-2.184-4.347-5.46-4.347a6.827,6.827,0,0,0-5.838,2.73l2.478,1.6a3.594,3.594,0,0,1,3.045-1.47c1.554,0,2.352.672,2.352,1.827,0,.714-.231,1.47-1.533,2.709L15.12-2.2V0H26.229V-2.772Z" transform="translate(824 1912)" fill="#010101"/>
    <path id="Trazado_17073" data-name="Trazado 17073" d="M13.08,0l-.03-10.5H11.055L7.185-3.975,3.255-10.5H1.245V0h2.28V-6.165L6.6-1.11H7.7l3.09-5.19L10.8,0Zm6.165.12A4.142,4.142,0,0,0,23.67-4.035,4.142,4.142,0,0,0,19.245-8.19a4.154,4.154,0,0,0-4.44,4.155A4.154,4.154,0,0,0,19.245.12Zm0-1.92a2.048,2.048,0,0,1-2.07-2.235,2.048,2.048,0,0,1,2.07-2.235A2.037,2.037,0,0,1,21.3-4.035,2.037,2.037,0,0,1,19.245-1.8ZM25.23,0h2.34V-11.13H25.23Zm5.685-9.195a1.346,1.346,0,0,0,1.455-1.35,1.314,1.314,0,0,0-1.455-1.26A1.338,1.338,0,0,0,29.46-10.5,1.338,1.338,0,0,0,30.915-9.195ZM29.745,0h2.34V-8.07h-2.34ZM39.03-8.19a3.133,3.133,0,0,0-2.43.975V-11.13H34.26V0h2.235V-.93A3.135,3.135,0,0,0,39.03.12a3.92,3.92,0,0,0,4.02-4.155A3.92,3.92,0,0,0,39.03-8.19Zm-.4,6.39A2.037,2.037,0,0,1,36.57-4.035,2.037,2.037,0,0,1,38.625-6.27,2.037,2.037,0,0,1,40.68-4.035,2.037,2.037,0,0,1,38.625-1.8ZM50.49-11.13v3.915a3.1,3.1,0,0,0-2.415-.975A3.923,3.923,0,0,0,44.04-4.035,3.923,3.923,0,0,0,48.075.12a3.1,3.1,0,0,0,2.52-1.05V0H52.83V-11.13ZM48.48-1.8a2.048,2.048,0,0,1-2.07-2.235A2.048,2.048,0,0,1,48.48-6.27a2.045,2.045,0,0,1,2.055,2.235A2.045,2.045,0,0,1,48.48-1.8ZM62.9-4a4,4,0,0,0-4.2-4.185A4.108,4.108,0,0,0,54.39-4.035c0,2.4,1.815,4.155,4.6,4.155a4.227,4.227,0,0,0,3.33-1.305L61.08-2.535a2.736,2.736,0,0,1-2.025.78,2.152,2.152,0,0,1-2.31-1.62h6.1C62.865-3.57,62.9-3.825,62.9-4ZM58.71-6.42a1.918,1.918,0,0,1,1.98,1.68H56.715A1.91,1.91,0,0,1,58.71-6.42ZM69.36-8.19a3.533,3.533,0,0,0-2.67,1.065V-8.07H64.455V0h2.34V-3.99c0-1.485.81-2.175,1.935-2.175,1.035,0,1.635.6,1.635,1.9V0h2.34V-4.62C72.705-7.08,71.265-8.19,69.36-8.19ZM78.75.12a4.142,4.142,0,0,0,4.425-4.155A4.142,4.142,0,0,0,78.75-8.19a4.154,4.154,0,0,0-4.44,4.155A4.154,4.154,0,0,0,78.75.12Zm0-1.92a2.048,2.048,0,0,1-2.07-2.235A2.048,2.048,0,0,1,78.75-6.27a2.037,2.037,0,0,1,2.055,2.235A2.037,2.037,0,0,1,78.75-1.8Z" transform="translate(837 2011)" fill="#010101"/>
    <path id="Trazado_17074" data-name="Trazado 17074" d="M0,0H127V4H0Z" transform="translate(815 2029)" fill="#3e3e3e"/>
    <path id="Trazado_16954-3" data-name="Trazado 16954" d="M0,0H127V141H0Z" transform="translate(978 1888)" fill="#f2c47b"/>
    <path id="Trazado_17075" data-name="Trazado 17075" d="M17.136-8.976,43.18-40.46V-47.6H3.128v8.976H28.7L2.584-7.14V0H44.2V-8.976ZM72.76-37.128c-4.964,0-9.248,1.7-12.1,4.828v-4.284H50.524V0H61.132V-18.088c0-6.732,3.672-9.86,8.772-9.86,4.692,0,7.412,2.72,7.412,8.636V0H87.924V-20.944C87.924-32.1,81.4-37.128,72.76-37.128Z" transform="translate(996 1974)" fill="#010101"/>
    <path id="Trazado_17076" data-name="Trazado 17076" d="M7.686-8.715,11-12.5v-2.2H.714v2.73H6.972L3.948-8.547V-6.3H5.5c1.932,0,2.751.693,2.751,1.806C8.253-3.3,7.2-2.6,5.5-2.6A7.139,7.139,0,0,1,1.3-3.927l-1.323,2.6A10.107,10.107,0,0,0,5.586.252c4.179,0,6.09-2.268,6.09-4.746C11.676-6.657,10.332-8.3,7.686-8.715ZM19.551.252c3.633,0,6.3-2.751,6.3-7.6s-2.667-7.6-6.3-7.6c-3.612,0-6.3,2.751-6.3,7.6S15.939.252,19.551.252Zm0-2.877c-1.68,0-2.856-1.386-2.856-4.725s1.176-4.725,2.856-4.725c1.7,0,2.877,1.386,2.877,4.725S21.252-2.625,19.551-2.625Z" transform="translate(987 1912)" fill="#010101"/>
    <path id="Trazado_17077" data-name="Trazado 17077" d="M3.78-1.98,9.525-8.925V-10.5H.69v1.98H6.33L.57-1.575V0H9.75V-1.98Zm8.535-7.215a1.346,1.346,0,0,0,1.455-1.35,1.314,1.314,0,0,0-1.455-1.26A1.338,1.338,0,0,0,10.86-10.5,1.338,1.338,0,0,0,12.315-9.195ZM11.145,0h2.34V-8.07h-2.34Zm9.42-8.19A3.533,3.533,0,0,0,17.9-7.125V-8.07H15.66V0H18V-3.99c0-1.485.81-2.175,1.935-2.175,1.035,0,1.635.6,1.635,1.9V0h2.34V-4.62C23.91-7.08,22.47-8.19,20.565-8.19ZM30.015.12A3.744,3.744,0,0,0,33.63-1.92l-1.815-.99A1.985,1.985,0,0,1,30-1.8a2.065,2.065,0,0,1-2.115-2.235A2.065,2.065,0,0,1,30-6.27a2.012,2.012,0,0,1,1.815,1.11l1.815-.975A3.707,3.707,0,0,0,30.015-8.19a4.172,4.172,0,0,0-4.5,4.155A4.172,4.172,0,0,0,30.015.12Z" transform="translate(1026 2011)" fill="#010101"/>
    <path id="Trazado_17078" data-name="Trazado 17078" d="M0,0H127V4H0Z" transform="translate(978 2029)" fill="#3e3e3e"/>
  </g>
</svg>
