<svg xmlns="http://www.w3.org/2000/svg" width="453" height="141" viewBox="0 0 453 141">
  <g id="Grupo_8808" data-name="Grupo 8808" transform="translate(-734 -1780)">
    <rect id="Rectángulo_2032" data-name="Rectángulo 2032" width="128" height="141" transform="translate(734 1780)" fill="#d6f6b3"/>
    <path id="Trazado_17102" data-name="Trazado 17102" d="M38.42-47.6v28.9L14.756-47.6H5.644V0h10.88V-28.9L40.256,0H49.3V-47.6Z" transform="translate(769 1866)" fill="#010101"/>
    <path id="Trazado_17107" data-name="Trazado 17107" d="M.572-15.4v5.412H3.74V-12.5h5.1L3.322,0H7.194l5.72-13.09V-15.4Z" transform="translate(744 1805)" fill="#010101"/>
    <path id="Trazado_17103" data-name="Trazado 17103" d="M8.475-10.5v6.375L3.255-10.5H1.245V0h2.4V-6.375L8.88,0h1.995V-10.5ZM14.37-9.195a1.346,1.346,0,0,0,1.455-1.35,1.314,1.314,0,0,0-1.455-1.26A1.338,1.338,0,0,0,12.915-10.5,1.338,1.338,0,0,0,14.37-9.195ZM13.2,0h2.34V-8.07H13.2Zm9.09-2.04a1.577,1.577,0,0,1-.945.3A.941.941,0,0,1,20.34-2.805V-6.09h2.01v-1.8H20.34V-9.855H18V-7.89H16.755v1.8H18v3.315c0,1.92,1.11,2.9,3.015,2.9A3.344,3.344,0,0,0,22.92-.39Zm4.185-4.965V-8.07H24.24V0h2.34V-3.81a1.983,1.983,0,0,1,2.145-2.25c.18,0,.33.015.525.03V-8.19A3.257,3.257,0,0,0,26.475-7.005Zm6.54-2.1h1.83l2.715-2.16H35.04ZM34.41.12a4.142,4.142,0,0,0,4.425-4.155A4.142,4.142,0,0,0,34.41-8.19a4.154,4.154,0,0,0-4.44,4.155A4.154,4.154,0,0,0,34.41.12Zm0-1.92a2.048,2.048,0,0,1-2.07-2.235A2.048,2.048,0,0,1,34.41-6.27a2.037,2.037,0,0,1,2.055,2.235A2.037,2.037,0,0,1,34.41-1.8ZM46.5-8.07v1.035A3.239,3.239,0,0,0,43.83-8.19a3.842,3.842,0,0,0-4.035,3.9A3.842,3.842,0,0,0,43.83-.39a3.322,3.322,0,0,0,2.55-1v.345c0,1.455-.72,2.2-2.37,2.2A4.823,4.823,0,0,1,41.16.24l-.93,1.68a6.648,6.648,0,0,0,3.96,1.11c2.91,0,4.53-1.38,4.53-4.38V-8.07ZM44.295-2.31a1.972,1.972,0,0,1-2.13-1.98,1.972,1.972,0,0,1,2.13-1.98A1.96,1.96,0,0,1,46.41-4.29,1.96,1.96,0,0,1,44.295-2.31ZM58.8-4A4,4,0,0,0,54.6-8.19a4.108,4.108,0,0,0-4.305,4.155c0,2.4,1.815,4.155,4.6,4.155a4.227,4.227,0,0,0,3.33-1.305l-1.245-1.35a2.736,2.736,0,0,1-2.025.78,2.152,2.152,0,0,1-2.31-1.62h6.1C58.77-3.57,58.8-3.825,58.8-4ZM54.615-6.42a1.918,1.918,0,0,1,1.98,1.68H52.62A1.91,1.91,0,0,1,54.615-6.42Zm10.65-1.77a3.533,3.533,0,0,0-2.67,1.065V-8.07H60.36V0H62.7V-3.99c0-1.485.81-2.175,1.935-2.175,1.035,0,1.635.6,1.635,1.9V0h2.34V-4.62C68.61-7.08,67.17-8.19,65.265-8.19ZM74.655.12A4.142,4.142,0,0,0,79.08-4.035,4.142,4.142,0,0,0,74.655-8.19a4.154,4.154,0,0,0-4.44,4.155A4.154,4.154,0,0,0,74.655.12Zm0-1.92a2.048,2.048,0,0,1-2.07-2.235,2.048,2.048,0,0,1,2.07-2.235A2.037,2.037,0,0,1,76.71-4.035,2.037,2.037,0,0,1,74.655-1.8Z" transform="translate(751 1903)" fill="#010101"/>
    <rect id="Rectángulo_2034" data-name="Rectángulo 2034" width="128" height="141" transform="translate(897 1780)" fill="#d6f6b3"/>
    <path id="Trazado_17105" data-name="Trazado 17105" d="M25.862-46.9H5.561V0H16.415V-12.931h9.447c12.529,0,20.368-6.5,20.368-16.951C46.23-40.4,38.391-46.9,25.862-46.9Zm-.6,25.125H16.415V-38.056h8.844c6.633,0,9.983,3.015,9.983,8.174C35.242-24.79,31.892-21.775,25.259-21.775Z" transform="translate(934 1865)" fill="#010101"/>
    <path id="Trazado_17106" data-name="Trazado 17106" d="M.154-15.4v2.86h3.08V0H6.8V-15.4ZM14.762-9.614H13.508l.242-2.926h6.424V-15.4H10.78L9.988-6.732h3.938c2.794,0,3.586.792,3.586,2,0,1.254-1.1,2-2.882,2a7.411,7.411,0,0,1-4.378-1.386L8.844-1.386A10.641,10.641,0,0,0,14.718.264c4.4,0,6.4-2.376,6.4-5.1S19.316-9.614,14.762-9.614Z" transform="translate(908 1805)" fill="#010101"/>
    <path id="Trazado_17104" data-name="Trazado 17104" d="M9.18-8.55V-10.5H1.245V0h2.43V-3.825h4.86v-1.95H3.675V-8.55ZM12.9-9.1h1.83l2.715-2.16h-2.52ZM14.3.12A4.142,4.142,0,0,0,18.72-4.035,4.142,4.142,0,0,0,14.3-8.19a4.154,4.154,0,0,0-4.44,4.155A4.154,4.154,0,0,0,14.3.12Zm0-1.92a2.048,2.048,0,0,1-2.07-2.235A2.048,2.048,0,0,1,14.3-6.27,2.037,2.037,0,0,1,16.35-4.035,2.037,2.037,0,0,1,14.3-1.8ZM23,.12c2.415,0,3.81-1.065,3.81-2.565,0-3.18-4.875-1.845-4.875-3.225,0-.42.45-.75,1.5-.75a4.634,4.634,0,0,1,2.325.6l.78-1.665a6.636,6.636,0,0,0-3.1-.705c-2.355,0-3.735,1.08-3.735,2.61,0,3.225,4.875,1.875,4.875,3.195,0,.45-.405.735-1.485.735a5.521,5.521,0,0,1-2.805-.78L19.5-.75A6.928,6.928,0,0,0,23,.12ZM30.81-8.235c0-.795.375-1.17,1.065-1.17a1.638,1.638,0,0,1,.945.285l.615-1.7a3.317,3.317,0,0,0-1.785-.435,2.817,2.817,0,0,0-3.12,3v.36H27.285v1.8H28.53V0h2.34V-6.09h2.01v-1.8H30.81ZM37.785.12A4.142,4.142,0,0,0,42.21-4.035,4.142,4.142,0,0,0,37.785-8.19a4.154,4.154,0,0,0-4.44,4.155A4.154,4.154,0,0,0,37.785.12Zm0-1.92a2.048,2.048,0,0,1-2.07-2.235,2.048,2.048,0,0,1,2.07-2.235A2.037,2.037,0,0,1,39.84-4.035,2.037,2.037,0,0,1,37.785-1.8ZM46-7.005V-8.07H43.77V0h2.34V-3.81a1.983,1.983,0,0,1,2.145-2.25c.18,0,.33.015.525.03V-8.19A3.257,3.257,0,0,0,46-7.005ZM53.94.12a4.142,4.142,0,0,0,4.425-4.155A4.142,4.142,0,0,0,53.94-8.19,4.154,4.154,0,0,0,49.5-4.035,4.154,4.154,0,0,0,53.94.12Zm0-1.92a2.048,2.048,0,0,1-2.07-2.235A2.048,2.048,0,0,1,53.94-6.27a2.037,2.037,0,0,1,2.055,2.235A2.037,2.037,0,0,1,53.94-1.8Z" transform="translate(927 1903)" fill="#010101"/>
    <rect id="Rectángulo_2036" data-name="Rectángulo 2036" width="127" height="141" transform="translate(1060 1780)" fill="#e8c7ce"/>
    <path id="Trazado_17109" data-name="Trazado 17109" d="M38.216,0H51.068L30.192-26.384,49.912-47.6H37.672L16.592-25.364V-47.6H5.644V0H16.592V-12.036L22.984-18.7Z" transform="translate(1096 1866)" fill="#010101"/>
    <path id="Trazado_17108" data-name="Trazado 17108" d="M.147-14.7v2.73h2.94V0h3.4V-14.7Zm14.07-.252c-3.108,0-5.565,1.89-5.565,4.893,0,2.772,2.226,4.578,5.061,4.578A5.024,5.024,0,0,0,17.367-6.8c-.1,2.835-1.7,4.284-4.137,4.284a4.754,4.754,0,0,1-2.751-.735l-1.26,2.5A7.858,7.858,0,0,0,13.293.252c4.452,0,7.5-2.835,7.5-7.917C20.79-12.411,18.291-14.952,14.217-14.952Zm.252,6.93a2.216,2.216,0,0,1-2.5-2.2,2.2,2.2,0,0,1,2.457-2.184c1.617,0,2.562.924,2.562,2.184A2.28,2.28,0,0,1,14.469-8.022Z" transform="translate(1069 1804)" fill="#010101"/>
    <path id="Trazado_17110" data-name="Trazado 17110" d="M5.79-10.5H1.245V0h2.43V-2.895H5.79c2.805,0,4.56-1.455,4.56-3.8S8.6-10.5,5.79-10.5ZM5.655-4.875H3.675V-8.52h1.98c1.485,0,2.235.675,2.235,1.83C7.89-5.55,7.14-4.875,5.655-4.875Zm10.08,5A4.142,4.142,0,0,0,20.16-4.035,4.142,4.142,0,0,0,15.735-8.19,4.154,4.154,0,0,0,11.3-4.035,4.154,4.154,0,0,0,15.735.12Zm0-1.92a2.048,2.048,0,0,1-2.07-2.235,2.048,2.048,0,0,1,2.07-2.235A2.037,2.037,0,0,1,17.79-4.035,2.037,2.037,0,0,1,15.735-1.8ZM26.3-2.04a1.577,1.577,0,0,1-.945.3.941.941,0,0,1-1-1.065V-6.09h2.01v-1.8h-2.01V-9.855H22V-7.89H20.76v1.8H22v3.315c0,1.92,1.11,2.9,3.015,2.9a3.344,3.344,0,0,0,1.9-.51Zm5.2-6.15a6.2,6.2,0,0,0-3.48.975l.84,1.635a3.88,3.88,0,0,1,2.325-.75c1.26,0,1.86.585,1.86,1.59h-1.86c-2.46,0-3.465.99-3.465,2.415C27.72-.93,28.845.12,30.735.12A2.648,2.648,0,0,0,33.195-1V0h2.19V-4.605C35.385-7.05,33.96-8.19,31.5-8.19Zm-.18,6.735c-.825,0-1.32-.39-1.32-.975,0-.54.345-.945,1.44-.945h1.605v.825A1.724,1.724,0,0,1,31.32-1.455ZM40.215.12c2.415,0,3.81-1.065,3.81-2.565,0-3.18-4.875-1.845-4.875-3.225,0-.42.45-.75,1.5-.75a4.634,4.634,0,0,1,2.325.6l.78-1.665a6.636,6.636,0,0,0-3.1-.705c-2.355,0-3.735,1.08-3.735,2.61,0,3.225,4.875,1.875,4.875,3.195,0,.45-.4.735-1.485.735a5.521,5.521,0,0,1-2.8-.78L36.72-.75A6.928,6.928,0,0,0,40.215.12Zm6.42-9.315a1.346,1.346,0,0,0,1.455-1.35,1.314,1.314,0,0,0-1.455-1.26A1.338,1.338,0,0,0,45.18-10.5,1.338,1.338,0,0,0,46.635-9.195ZM45.465,0h2.34V-8.07h-2.34ZM53.82.12a4.142,4.142,0,0,0,4.425-4.155A4.142,4.142,0,0,0,53.82-8.19a4.154,4.154,0,0,0-4.44,4.155A4.154,4.154,0,0,0,53.82.12Zm0-1.92a2.048,2.048,0,0,1-2.07-2.235A2.048,2.048,0,0,1,53.82-6.27a2.037,2.037,0,0,1,2.055,2.235A2.037,2.037,0,0,1,53.82-1.8Z" transform="translate(1089 1903)" fill="#010101"/>
  </g>
</svg>
