<svg xmlns="http://www.w3.org/2000/svg" width="1140" height="301" viewBox="0 0 1140 301">
  <g id="Grupo_8810" data-name="Grupo 8810" transform="translate(-390 -970)">
    <g id="Rectángulo_2052" data-name="Rectángulo 2052" transform="translate(390 970)" fill="#fff" stroke="#454545" stroke-width="1">
      <rect width="1140" height="301" stroke="none"/>
      <rect x="0.5" y="0.5" width="1139" height="300" fill="none"/>
    </g>
    <g id="Rectángulo_2054" data-name="Rectángulo 2054" transform="translate(390 1030)" fill="#e2f7d9" stroke="#707070" stroke-width="1">
      <rect width="1140" height="61" stroke="none"/>
      <rect x="0.5" y="0.5" width="1139" height="60" fill="none"/>
    </g>
    <g id="Rectángulo_2053" data-name="Rectángulo 2053" transform="translate(390 970)" fill="#fdac29" stroke="#707070" stroke-width="1">
      <rect width="1140" height="61" stroke="none"/>
      <rect x="0.5" y="0.5" width="1139" height="60" fill="none"/>
    </g>
    <path id="Trazado_17127" data-name="Trazado 17127" d="M9.018,0h-7.4V-12.85h7.4v2.232H4.342V-7.8H8.692v2.232H4.342V-2.25H9.018Zm7.638,0H13.931V-10.582H10.441V-12.85h9.7v2.268H16.655ZM28.731,0,27.8-3.059H23.115L22.184,0H19.248l4.535-12.9h3.331L31.667,0ZM27.149-5.344q-1.292-4.157-1.455-4.7t-.233-.861q-.29,1.125-1.661,5.563ZM36.009-6.8h.9a2.986,2.986,0,0,0,1.881-.5,1.738,1.738,0,0,0,.624-1.446,1.782,1.782,0,0,0-.523-1.415,2.45,2.45,0,0,0-1.639-.457H36.009Zm6.152-2.039a3.927,3.927,0,0,1-1.3,3.173,5.544,5.544,0,0,1-3.687,1.1H36.009V0H33.284V-12.85h4.1a5.459,5.459,0,0,1,3.555,1.006A3.669,3.669,0,0,1,42.161-8.842ZM51.557,0l-.932-3.059H45.94L45.009,0H42.073l4.535-12.9h3.331L54.492,0ZM49.975-5.344q-1.292-4.157-1.455-4.7t-.233-.861Q48-9.782,46.626-5.344Z" transform="translate(549 1008)" fill="#fff"/>
    <g id="Rectángulo_2055" data-name="Rectángulo 2055" transform="translate(390 1090)" fill="#bcdeae" stroke="#707070" stroke-width="1">
      <rect width="1140" height="61" stroke="none"/>
      <rect x="0.5" y="0.5" width="1139" height="60" fill="none"/>
    </g>
    <g id="Rectángulo_2056" data-name="Rectángulo 2056" transform="translate(390 1150)" fill="#e2f7d9" stroke="#707070" stroke-width="1">
      <rect width="1140" height="61" stroke="none"/>
      <rect x="0.5" y="0.5" width="1139" height="60" fill="none"/>
    </g>
    <g id="Rectángulo_2057" data-name="Rectángulo 2057" transform="translate(390 1210)" fill="#bcdeae" stroke="#707070" stroke-width="1">
      <rect width="1140" height="61" stroke="none"/>
      <rect x="0.5" y="0.5" width="1139" height="60" fill="none"/>
    </g>
    <path id="Trazado_16956" data-name="Trazado 16956" d="M13993.871-326V-25" transform="translate(-13206.371 1296)" fill="none" stroke="#2e2e2e" stroke-width="1"/>
    <path id="Trazado_16957" data-name="Trazado 16957" d="M13993.871-326V-25" transform="translate(-13058.371 1296)" fill="none" stroke="#2e2e2e" stroke-width="1"/>
    <path id="Trazado_16958" data-name="Trazado 16958" d="M13993.871-326V-25" transform="translate(-12911.371 1296)" fill="none" stroke="#2e2e2e" stroke-width="1"/>
    <path id="Trazado_16959" data-name="Trazado 16959" d="M13993.871-326V-25" transform="translate(-12763.371 1296)" fill="none" stroke="#2e2e2e" stroke-width="1"/>
    <path id="Trazado_16960" data-name="Trazado 16960" d="M13993.871-326V-25" transform="translate(-12616.371 1296)" fill="none" stroke="#2e2e2e" stroke-width="1"/>
    <path id="Trazado_17126" data-name="Trazado 17126" d="M6.135,19h-2.1V7.952H.255V6.15H9.914v1.8H6.135ZM15.7,9.1a4.972,4.972,0,0,1,1.028.088l-.2,1.925a3.9,3.9,0,0,0-.914-.105,2.645,2.645,0,0,0-2.008.809,2.923,2.923,0,0,0-.769,2.1V19H10.767V9.279h1.617l.272,1.714h.105a3.851,3.851,0,0,1,1.261-1.38A3,3,0,0,1,15.7,9.1ZM24.249,19l-.413-1.354h-.07a3.982,3.982,0,0,1-1.415,1.208,4.475,4.475,0,0,1-1.828.321,3.094,3.094,0,0,1-2.237-.773,2.894,2.894,0,0,1-.8-2.188A2.57,2.57,0,0,1,18.6,13.946a6.436,6.436,0,0,1,3.4-.835l1.679-.053V12.54a1.965,1.965,0,0,0-.435-1.393,1.774,1.774,0,0,0-1.349-.461,4.665,4.665,0,0,0-1.433.22,10.811,10.811,0,0,0-1.318.519l-.668-1.477a7.189,7.189,0,0,1,1.731-.628A7.968,7.968,0,0,1,21.981,9.1a4.2,4.2,0,0,1,2.8.809,3.166,3.166,0,0,1,.945,2.54V19Zm-3.076-1.406a2.558,2.558,0,0,0,1.806-.628A2.278,2.278,0,0,0,23.66,15.2v-.844l-1.248.053a4.27,4.27,0,0,0-2.123.488,1.482,1.482,0,0,0-.664,1.332,1.3,1.3,0,0,0,.387,1.006A1.661,1.661,0,0,0,21.173,17.594ZM37.16,19H35.086V13.023a2.616,2.616,0,0,0-.453-1.679,1.75,1.75,0,0,0-1.437-.554,2.285,2.285,0,0,0-1.916.773,4.27,4.27,0,0,0-.606,2.593V19H28.608V9.279h1.617l.29,1.274h.105a2.876,2.876,0,0,1,1.248-1.072A4.182,4.182,0,0,1,33.662,9.1q3.5,0,3.5,3.56Zm9.4-2.769a2.543,2.543,0,0,1-1.037,2.184,4.966,4.966,0,0,1-2.971.76,7.017,7.017,0,0,1-3.12-.589V16.8a7.66,7.66,0,0,0,3.19.791q1.907,0,1.907-1.151a.912.912,0,0,0-.211-.615,2.5,2.5,0,0,0-.694-.51,11.949,11.949,0,0,0-1.345-.6,6.22,6.22,0,0,1-2.272-1.3,2.407,2.407,0,0,1-.593-1.687,2.216,2.216,0,0,1,1.006-1.938,4.776,4.776,0,0,1,2.738-.69,7.754,7.754,0,0,1,3.243.694l-.668,1.556a7.213,7.213,0,0,0-2.646-.65q-1.635,0-1.635.932a.937.937,0,0,0,.426.773,9.374,9.374,0,0,0,1.859.87,8.5,8.5,0,0,1,1.749.853,2.548,2.548,0,0,1,.809.892A2.582,2.582,0,0,1,46.564,16.231Zm7.163,2.944a3.4,3.4,0,0,1-2.865-1.327h-.123q.123,1.23.123,1.494v3.981H48.8V9.279h1.67q.07.272.29,1.3h.105a3.236,3.236,0,0,1,2.9-1.477A3.374,3.374,0,0,1,56.6,10.422a5.944,5.944,0,0,1,1.015,3.7A5.948,5.948,0,0,1,56.58,17.84,3.4,3.4,0,0,1,53.728,19.176Zm-.5-8.385a2.147,2.147,0,0,0-1.8.721,3.735,3.735,0,0,0-.567,2.3v.308a4.547,4.547,0,0,0,.563,2.571,2.092,2.092,0,0,0,1.837.8,1.865,1.865,0,0,0,1.652-.879,4.539,4.539,0,0,0,.58-2.5,4.38,4.38,0,0,0-.576-2.474A1.92,1.92,0,0,0,53.227,10.791ZM62.077,19H60.012V5.324h2.065Zm9.035,0L70.7,17.646h-.07a3.982,3.982,0,0,1-1.415,1.208,4.475,4.475,0,0,1-1.828.321,3.094,3.094,0,0,1-2.237-.773,2.894,2.894,0,0,1-.8-2.188,2.57,2.57,0,0,1,1.116-2.268,6.436,6.436,0,0,1,3.4-.835l1.679-.053V12.54a1.965,1.965,0,0,0-.435-1.393,1.774,1.774,0,0,0-1.349-.461,4.665,4.665,0,0,0-1.433.22,10.811,10.811,0,0,0-1.318.519l-.668-1.477a7.189,7.189,0,0,1,1.731-.628A7.968,7.968,0,0,1,68.845,9.1a4.2,4.2,0,0,1,2.8.809,3.166,3.166,0,0,1,.945,2.54V19Zm-3.076-1.406a2.558,2.558,0,0,0,1.806-.628,2.278,2.278,0,0,0,.681-1.762v-.844l-1.248.053a4.27,4.27,0,0,0-2.123.488,1.482,1.482,0,0,0-.664,1.332,1.3,1.3,0,0,0,.387,1.006A1.661,1.661,0,0,0,68.036,17.594ZM84.023,19H81.949V13.023a2.616,2.616,0,0,0-.453-1.679,1.75,1.75,0,0,0-1.437-.554,2.285,2.285,0,0,0-1.916.773,4.27,4.27,0,0,0-.606,2.593V19H75.472V9.279h1.617l.29,1.274h.105a2.876,2.876,0,0,1,1.248-1.072A4.182,4.182,0,0,1,80.525,9.1q3.5,0,3.5,3.56Zm6.5-1.494a5.023,5.023,0,0,0,1.512-.237v1.556a4.169,4.169,0,0,1-.883.25,6.086,6.086,0,0,1-1.121.1q-2.936,0-2.936-3.094V10.844H85.764V9.93l1.424-.756.7-2.057h1.274V9.279h2.769v1.564H89.165v5.2a1.46,1.46,0,0,0,.374,1.1A1.362,1.362,0,0,0,90.519,17.506Zm7.7,1.67a4.7,4.7,0,0,1-3.546-1.323,5.021,5.021,0,0,1-1.279-3.643,5.509,5.509,0,0,1,1.187-3.744A4.1,4.1,0,0,1,97.84,9.1a4.006,4.006,0,0,1,3.041,1.169A4.467,4.467,0,0,1,102,13.489v1.116H95.52a3.193,3.193,0,0,0,.765,2.175,2.663,2.663,0,0,0,2.03.76,7.5,7.5,0,0,0,1.6-.163,8.408,8.408,0,0,0,1.6-.541v1.679a6.342,6.342,0,0,1-1.529.51A9.378,9.378,0,0,1,98.218,19.176Zm-.378-8.508a2.075,2.075,0,0,0-1.578.624,2.974,2.974,0,0,0-.708,1.819h4.412a2.691,2.691,0,0,0-.58-1.824A1.984,1.984,0,0,0,97.84,10.668ZM117.571,19H115.5V13.023a2.616,2.616,0,0,0-.453-1.679,1.75,1.75,0,0,0-1.437-.554,2.281,2.281,0,0,0-1.912.778,4.286,4.286,0,0,0-.611,2.606V19H109.02V5.324h2.065V8.8a16.2,16.2,0,0,1-.105,1.784h.132a2.868,2.868,0,0,1,1.173-1.09,3.782,3.782,0,0,1,1.753-.387q3.533,0,3.533,3.56Zm8.956,0-.413-1.354h-.07a3.982,3.982,0,0,1-1.415,1.208,4.475,4.475,0,0,1-1.828.321,3.094,3.094,0,0,1-2.237-.773,2.894,2.894,0,0,1-.8-2.188,2.57,2.57,0,0,1,1.116-2.268,6.436,6.436,0,0,1,3.4-.835l1.679-.053V12.54a1.965,1.965,0,0,0-.435-1.393,1.774,1.774,0,0,0-1.349-.461,4.665,4.665,0,0,0-1.433.22,10.811,10.811,0,0,0-1.318.519l-.668-1.477a7.189,7.189,0,0,1,1.731-.628A7.968,7.968,0,0,1,124.26,9.1a4.2,4.2,0,0,1,2.8.809,3.166,3.166,0,0,1,.945,2.54V19Zm-3.076-1.406a2.558,2.558,0,0,0,1.806-.628,2.278,2.278,0,0,0,.681-1.762v-.844l-1.248.053a4.27,4.27,0,0,0-2.123.488,1.482,1.482,0,0,0-.664,1.332,1.3,1.3,0,0,0,.387,1.006A1.661,1.661,0,0,0,123.451,17.594Zm13.966-1.362a2.543,2.543,0,0,1-1.037,2.184,4.966,4.966,0,0,1-2.971.76,7.017,7.017,0,0,1-3.12-.589V16.8a7.66,7.66,0,0,0,3.19.791q1.907,0,1.907-1.151a.912.912,0,0,0-.211-.615,2.5,2.5,0,0,0-.694-.51,11.949,11.949,0,0,0-1.345-.6,6.22,6.22,0,0,1-2.272-1.3,2.407,2.407,0,0,1-.593-1.687,2.216,2.216,0,0,1,1.006-1.938,4.776,4.776,0,0,1,2.738-.69,7.754,7.754,0,0,1,3.243.694l-.668,1.556a7.213,7.213,0,0,0-2.646-.65q-1.635,0-1.635.932a.937.937,0,0,0,.426.773,9.374,9.374,0,0,0,1.859.87,8.5,8.5,0,0,1,1.749.853,2.548,2.548,0,0,1,.809.892A2.582,2.582,0,0,1,137.417,16.231Zm5.854,1.274a5.023,5.023,0,0,0,1.512-.237v1.556a4.169,4.169,0,0,1-.883.25,6.086,6.086,0,0,1-1.121.1q-2.936,0-2.936-3.094V10.844h-1.327V9.93l1.424-.756.7-2.057h1.274V9.279h2.769v1.564h-2.769v5.2a1.46,1.46,0,0,0,.374,1.1A1.362,1.362,0,0,0,143.271,17.506ZM152.807,19l-.413-1.354h-.07a3.982,3.982,0,0,1-1.415,1.208,4.475,4.475,0,0,1-1.828.321,3.094,3.094,0,0,1-2.237-.773,2.894,2.894,0,0,1-.8-2.188,2.57,2.57,0,0,1,1.116-2.268,6.436,6.436,0,0,1,3.4-.835l1.679-.053V12.54a1.965,1.965,0,0,0-.435-1.393,1.774,1.774,0,0,0-1.349-.461,4.665,4.665,0,0,0-1.433.22,10.811,10.811,0,0,0-1.318.519l-.668-1.477a7.189,7.189,0,0,1,1.731-.628,7.968,7.968,0,0,1,1.775-.215,4.2,4.2,0,0,1,2.8.809,3.166,3.166,0,0,1,.945,2.54V19Zm-3.076-1.406a2.558,2.558,0,0,0,1.806-.628,2.278,2.278,0,0,0,.681-1.762v-.844l-1.248.053a4.27,4.27,0,0,0-2.123.488,1.482,1.482,0,0,0-.664,1.332,1.3,1.3,0,0,0,.387,1.006A1.661,1.661,0,0,0,149.73,17.594ZM163.907,19h-2.065V9.279h2.065ZM161.719,6.7a1.144,1.144,0,0,1,.3-.853,1.182,1.182,0,0,1,.866-.3,1.156,1.156,0,0,1,.848.3,1.144,1.144,0,0,1,.3.853,1.122,1.122,0,0,1-.3.831,1.147,1.147,0,0,1-.848.3,1.171,1.171,0,0,1-.866-.3A1.122,1.122,0,0,1,161.719,6.7ZM175.412,19h-2.074V13.023a2.616,2.616,0,0,0-.453-1.679,1.75,1.75,0,0,0-1.437-.554,2.285,2.285,0,0,0-1.916.773,4.27,4.27,0,0,0-.606,2.593V19H166.86V9.279h1.617l.29,1.274h.105a2.876,2.876,0,0,1,1.248-1.072,4.182,4.182,0,0,1,1.793-.378q3.5,0,3.5,3.56Zm4.939,0h-2.065V9.279h2.065ZM178.163,6.7a1.144,1.144,0,0,1,.3-.853,1.182,1.182,0,0,1,.866-.3,1.156,1.156,0,0,1,.848.3,1.144,1.144,0,0,1,.3.853,1.122,1.122,0,0,1-.3.831,1.147,1.147,0,0,1-.848.3,1.171,1.171,0,0,1-.866-.3A1.122,1.122,0,0,1,178.163,6.7Zm9.062,12.472a4.256,4.256,0,0,1-3.353-1.288,5.38,5.38,0,0,1-1.147-3.7,5.41,5.41,0,0,1,1.2-3.771A4.45,4.45,0,0,1,187.392,9.1a6.5,6.5,0,0,1,2.769.571l-.624,1.661a6.255,6.255,0,0,0-2.162-.51q-2.522,0-2.522,3.349a4.01,4.01,0,0,0,.628,2.457,2.175,2.175,0,0,0,1.841.822,5.283,5.283,0,0,0,2.61-.686v1.8a4.079,4.079,0,0,1-1.182.466A7.093,7.093,0,0,1,187.225,19.176ZM194.282,19h-2.065V9.279h2.065ZM192.094,6.7a1.144,1.144,0,0,1,.3-.853,1.182,1.182,0,0,1,.866-.3,1.156,1.156,0,0,1,.848.3,1.144,1.144,0,0,1,.3.853,1.122,1.122,0,0,1-.3.831,1.147,1.147,0,0,1-.848.3,1.171,1.171,0,0,1-.866-.3A1.122,1.122,0,0,1,192.094,6.7Zm13.764,7.418a5.306,5.306,0,0,1-1.222,3.718,4.377,4.377,0,0,1-3.4,1.336,4.66,4.66,0,0,1-2.408-.615,4.062,4.062,0,0,1-1.608-1.767,6.017,6.017,0,0,1-.562-2.672,5.27,5.27,0,0,1,1.213-3.691A4.4,4.4,0,0,1,201.287,9.1a4.282,4.282,0,0,1,3.34,1.358A5.245,5.245,0,0,1,205.857,14.122Zm-7.075,0q0,3.366,2.487,3.366,2.461,0,2.461-3.366,0-3.331-2.479-3.331a2.113,2.113,0,0,0-1.885.861A4.383,4.383,0,0,0,198.782,14.122Zm17.4,5.054a3.386,3.386,0,0,1-2.839-1.318,5.926,5.926,0,0,1-1.02-3.7,5.945,5.945,0,0,1,1.033-3.722A3.418,3.418,0,0,1,216.22,9.1a3.351,3.351,0,0,1,2.918,1.415h.105a12.381,12.381,0,0,1-.149-1.652V5.324h2.074V19h-1.617l-.36-1.274h-.1A3.3,3.3,0,0,1,216.185,19.176Zm.554-1.67a2.248,2.248,0,0,0,1.854-.716,3.771,3.771,0,0,0,.6-2.325v-.29a4.357,4.357,0,0,0-.6-2.61,2.217,2.217,0,0,0-1.872-.773,1.9,1.9,0,0,0-1.679.883,4.527,4.527,0,0,0-.589,2.518,4.414,4.414,0,0,0,.571,2.465A1.929,1.929,0,0,0,216.738,17.506Zm11.628,1.67a4.7,4.7,0,0,1-3.546-1.323,5.021,5.021,0,0,1-1.279-3.643,5.509,5.509,0,0,1,1.187-3.744A4.1,4.1,0,0,1,227.988,9.1a4.006,4.006,0,0,1,3.041,1.169,4.467,4.467,0,0,1,1.116,3.217v1.116h-6.478a3.193,3.193,0,0,0,.765,2.175,2.663,2.663,0,0,0,2.03.76,7.5,7.5,0,0,0,1.6-.163,8.408,8.408,0,0,0,1.6-.541v1.679a6.342,6.342,0,0,1-1.529.51A9.378,9.378,0,0,1,228.366,19.176Zm-.378-8.508a2.075,2.075,0,0,0-1.578.624,2.974,2.974,0,0,0-.708,1.819h4.412a2.691,2.691,0,0,0-.58-1.824A1.984,1.984,0,0,0,227.988,10.668Zm16.058.176h-2.373V19H239.6V10.844H238V9.877l1.6-.633V8.611a3.537,3.537,0,0,1,.809-2.553,3.306,3.306,0,0,1,2.47-.831,6.591,6.591,0,0,1,2.145.36l-.545,1.564a4.761,4.761,0,0,0-1.459-.246,1.187,1.187,0,0,0-1.024.435,2.192,2.192,0,0,0-.321,1.305v.633h2.373ZM247.764,19H245.7V5.324h2.065Zm11.584-4.878a5.306,5.306,0,0,1-1.222,3.718,4.377,4.377,0,0,1-3.4,1.336,4.66,4.66,0,0,1-2.408-.615,4.062,4.062,0,0,1-1.608-1.767,6.017,6.017,0,0,1-.562-2.672,5.27,5.27,0,0,1,1.213-3.691A4.4,4.4,0,0,1,254.777,9.1a4.282,4.282,0,0,1,3.34,1.358A5.245,5.245,0,0,1,259.348,14.122Zm-7.075,0q0,3.366,2.487,3.366,2.461,0,2.461-3.366,0-3.331-2.479-3.331a2.113,2.113,0,0,0-1.885.861A4.383,4.383,0,0,0,252.272,14.122ZM266.651,9.1a4.972,4.972,0,0,1,1.028.088l-.2,1.925a3.9,3.9,0,0,0-.914-.105,2.645,2.645,0,0,0-2.008.809,2.923,2.923,0,0,0-.769,2.1V19h-2.065V9.279h1.617l.272,1.714h.105a3.851,3.851,0,0,1,1.261-1.38A3,3,0,0,1,266.651,9.1ZM275.2,19l-.413-1.354h-.07a3.982,3.982,0,0,1-1.415,1.208,4.475,4.475,0,0,1-1.828.321,3.094,3.094,0,0,1-2.237-.773,2.894,2.894,0,0,1-.8-2.188,2.57,2.57,0,0,1,1.116-2.268,6.436,6.436,0,0,1,3.4-.835l1.679-.053V12.54a1.965,1.965,0,0,0-.435-1.393,1.774,1.774,0,0,0-1.349-.461,4.665,4.665,0,0,0-1.433.22,10.811,10.811,0,0,0-1.318.519l-.668-1.477a7.189,7.189,0,0,1,1.731-.628,7.968,7.968,0,0,1,1.775-.215,4.2,4.2,0,0,1,2.8.809,3.166,3.166,0,0,1,.945,2.54V19Zm-3.076-1.406a2.558,2.558,0,0,0,1.806-.628,2.278,2.278,0,0,0,.681-1.762v-.844l-1.248.053a4.27,4.27,0,0,0-2.123.488,1.482,1.482,0,0,0-.664,1.332,1.3,1.3,0,0,0,.387,1.006A1.661,1.661,0,0,0,272.127,17.594Zm11.355,1.582a4.256,4.256,0,0,1-3.353-1.288,5.38,5.38,0,0,1-1.147-3.7,5.41,5.41,0,0,1,1.2-3.771A4.45,4.45,0,0,1,283.649,9.1a6.5,6.5,0,0,1,2.769.571l-.624,1.661a6.255,6.255,0,0,0-2.162-.51q-2.522,0-2.522,3.349a4.01,4.01,0,0,0,.628,2.457,2.175,2.175,0,0,0,1.841.822,5.283,5.283,0,0,0,2.61-.686v1.8a4.079,4.079,0,0,1-1.182.466A7.093,7.093,0,0,1,283.482,19.176ZM290.54,19h-2.065V9.279h2.065ZM288.352,6.7a1.144,1.144,0,0,1,.3-.853,1.182,1.182,0,0,1,.866-.3,1.156,1.156,0,0,1,.848.3,1.144,1.144,0,0,1,.3.853,1.122,1.122,0,0,1-.3.831,1.147,1.147,0,0,1-.848.3,1.171,1.171,0,0,1-.866-.3A1.122,1.122,0,0,1,288.352,6.7Zm13.764,7.418a5.306,5.306,0,0,1-1.222,3.718,4.377,4.377,0,0,1-3.4,1.336,4.66,4.66,0,0,1-2.408-.615,4.062,4.062,0,0,1-1.608-1.767,6.017,6.017,0,0,1-.562-2.672,5.27,5.27,0,0,1,1.213-3.691A4.4,4.4,0,0,1,297.545,9.1a4.282,4.282,0,0,1,3.34,1.358A5.245,5.245,0,0,1,302.115,14.122Zm-7.075,0q0,3.366,2.487,3.366,2.461,0,2.461-3.366,0-3.331-2.479-3.331a2.113,2.113,0,0,0-1.885.861A4.383,4.383,0,0,0,295.04,14.122Zm1.134-6.029v-.22q.5-.615,1.033-1.371t.839-1.292h2.4v.185a18.048,18.048,0,0,1-1.367,1.384,19.27,19.27,0,0,1-1.534,1.314ZM313.04,19h-2.074V13.023a2.616,2.616,0,0,0-.453-1.679,1.75,1.75,0,0,0-1.437-.554,2.285,2.285,0,0,0-1.916.773,4.27,4.27,0,0,0-.606,2.593V19h-2.065V9.279h1.617l.29,1.274h.105a2.876,2.876,0,0,1,1.248-1.072,4.182,4.182,0,0,1,1.793-.378q3.5,0,3.5,3.56Z" transform="translate(430 1045)" fill="#00223d"/>
    <path id="Trazado_17128" data-name="Trazado 17128" d="M3.779,19H1.7V6.15H8.947V7.926H3.779v4.017H8.622v1.784H3.779Zm9.343,0H11.057V5.324h2.065ZM24.7,14.122a5.306,5.306,0,0,1-1.222,3.718,4.377,4.377,0,0,1-3.4,1.336,4.66,4.66,0,0,1-2.408-.615,4.062,4.062,0,0,1-1.608-1.767,6.017,6.017,0,0,1-.562-2.672,5.27,5.27,0,0,1,1.213-3.691A4.4,4.4,0,0,1,20.127,9.1a4.282,4.282,0,0,1,3.34,1.358A5.245,5.245,0,0,1,24.7,14.122Zm-7.075,0q0,3.366,2.487,3.366,2.461,0,2.461-3.366,0-3.331-2.479-3.331a2.113,2.113,0,0,0-1.885.861A4.383,4.383,0,0,0,17.622,14.122ZM32,9.1a4.972,4.972,0,0,1,1.028.088l-.2,1.925a3.9,3.9,0,0,0-.914-.105,2.645,2.645,0,0,0-2.008.809,2.923,2.923,0,0,0-.769,2.1V19H27.07V9.279h1.617l.272,1.714h.105a3.851,3.851,0,0,1,1.261-1.38A3,3,0,0,1,32,9.1ZM40.553,19l-.413-1.354h-.07a3.982,3.982,0,0,1-1.415,1.208,4.475,4.475,0,0,1-1.828.321,3.094,3.094,0,0,1-2.237-.773,2.894,2.894,0,0,1-.8-2.188A2.57,2.57,0,0,1,34.9,13.946a6.436,6.436,0,0,1,3.4-.835l1.679-.053V12.54a1.965,1.965,0,0,0-.435-1.393,1.774,1.774,0,0,0-1.349-.461,4.665,4.665,0,0,0-1.433.22,10.811,10.811,0,0,0-1.318.519l-.668-1.477a7.189,7.189,0,0,1,1.731-.628A7.968,7.968,0,0,1,38.285,9.1a4.2,4.2,0,0,1,2.8.809,3.166,3.166,0,0,1,.945,2.54V19Zm-3.076-1.406a2.558,2.558,0,0,0,1.806-.628,2.278,2.278,0,0,0,.681-1.762v-.844l-1.248.053a4.27,4.27,0,0,0-2.123.488,1.482,1.482,0,0,0-.664,1.332,1.3,1.3,0,0,0,.387,1.006A1.661,1.661,0,0,0,37.477,17.594Zm11.355,1.582a4.256,4.256,0,0,1-3.353-1.288,5.38,5.38,0,0,1-1.147-3.7,5.41,5.41,0,0,1,1.2-3.771A4.45,4.45,0,0,1,49,9.1a6.5,6.5,0,0,1,2.769.571l-.624,1.661a6.255,6.255,0,0,0-2.162-.51q-2.522,0-2.522,3.349a4.01,4.01,0,0,0,.628,2.457,2.175,2.175,0,0,0,1.841.822,5.283,5.283,0,0,0,2.61-.686v1.8a4.079,4.079,0,0,1-1.182.466A7.093,7.093,0,0,1,48.832,19.176ZM55.89,19H53.824V9.279H55.89ZM53.7,6.7a1.144,1.144,0,0,1,.3-.853,1.182,1.182,0,0,1,.866-.3,1.156,1.156,0,0,1,.848.3,1.144,1.144,0,0,1,.3.853,1.122,1.122,0,0,1-.3.831,1.147,1.147,0,0,1-.848.3,1.171,1.171,0,0,1-.866-.3A1.122,1.122,0,0,1,53.7,6.7Zm13.764,7.418a5.306,5.306,0,0,1-1.222,3.718,4.377,4.377,0,0,1-3.4,1.336,4.66,4.66,0,0,1-2.408-.615,4.062,4.062,0,0,1-1.608-1.767,6.017,6.017,0,0,1-.562-2.672,5.27,5.27,0,0,1,1.213-3.691A4.4,4.4,0,0,1,62.895,9.1a4.282,4.282,0,0,1,3.34,1.358A5.245,5.245,0,0,1,67.465,14.122Zm-7.075,0q0,3.366,2.487,3.366,2.461,0,2.461-3.366,0-3.331-2.479-3.331a2.113,2.113,0,0,0-1.885.861A4.383,4.383,0,0,0,60.39,14.122Zm1.134-6.029v-.22q.5-.615,1.033-1.371T63.4,5.21h2.4v.185a18.048,18.048,0,0,1-1.367,1.384,19.27,19.27,0,0,1-1.534,1.314ZM78.39,19H76.315V13.023a2.616,2.616,0,0,0-.453-1.679,1.75,1.75,0,0,0-1.437-.554,2.285,2.285,0,0,0-1.916.773,4.27,4.27,0,0,0-.606,2.593V19H69.838V9.279h1.617l.29,1.274h.105A2.876,2.876,0,0,1,73.1,9.481,4.182,4.182,0,0,1,74.892,9.1q3.5,0,3.5,3.56Zm16.1,0H92.417V13.023a2.616,2.616,0,0,0-.453-1.679,1.75,1.75,0,0,0-1.437-.554,2.281,2.281,0,0,0-1.912.778A4.286,4.286,0,0,0,88,14.175V19H85.939V5.324H88V8.8A16.2,16.2,0,0,1,87.9,10.58h.132A2.868,2.868,0,0,1,89.2,9.49,3.782,3.782,0,0,1,90.958,9.1q3.533,0,3.533,3.56Zm8.956,0-.413-1.354h-.07a3.982,3.982,0,0,1-1.415,1.208,4.475,4.475,0,0,1-1.828.321,3.094,3.094,0,0,1-2.237-.773,2.894,2.894,0,0,1-.8-2.188A2.57,2.57,0,0,1,97.8,13.946a6.436,6.436,0,0,1,3.4-.835l1.679-.053V12.54a1.965,1.965,0,0,0-.435-1.393,1.774,1.774,0,0,0-1.349-.461,4.665,4.665,0,0,0-1.433.22,10.811,10.811,0,0,0-1.318.519l-.668-1.477A7.189,7.189,0,0,1,99.4,9.319,7.968,7.968,0,0,1,101.18,9.1a4.2,4.2,0,0,1,2.8.809,3.166,3.166,0,0,1,.945,2.54V19Zm-3.076-1.406a2.558,2.558,0,0,0,1.806-.628,2.278,2.278,0,0,0,.681-1.762v-.844l-1.248.053a4.27,4.27,0,0,0-2.123.488,1.482,1.482,0,0,0-.664,1.332,1.3,1.3,0,0,0,.387,1.006A1.661,1.661,0,0,0,100.371,17.594Zm13.966-1.362a2.543,2.543,0,0,1-1.037,2.184,4.966,4.966,0,0,1-2.971.76,7.017,7.017,0,0,1-3.12-.589V16.8a7.66,7.66,0,0,0,3.19.791q1.907,0,1.907-1.151a.912.912,0,0,0-.211-.615,2.5,2.5,0,0,0-.694-.51,11.949,11.949,0,0,0-1.345-.6,6.22,6.22,0,0,1-2.272-1.3,2.407,2.407,0,0,1-.593-1.687A2.216,2.216,0,0,1,108.2,9.793a4.776,4.776,0,0,1,2.738-.69,7.754,7.754,0,0,1,3.243.694l-.668,1.556a7.213,7.213,0,0,0-2.646-.65q-1.635,0-1.635.932a.937.937,0,0,0,.426.773,9.374,9.374,0,0,0,1.859.87,8.5,8.5,0,0,1,1.749.853,2.548,2.548,0,0,1,.809.892A2.582,2.582,0,0,1,114.337,16.231Zm5.854,1.274a5.023,5.023,0,0,0,1.512-.237v1.556a4.169,4.169,0,0,1-.883.25,6.086,6.086,0,0,1-1.121.1q-2.936,0-2.936-3.094V10.844h-1.327V9.93l1.424-.756.7-2.057h1.274V9.279h2.769v1.564h-2.769v5.2a1.46,1.46,0,0,0,.374,1.1A1.362,1.362,0,0,0,120.19,17.506ZM129.727,19l-.413-1.354h-.07a3.982,3.982,0,0,1-1.415,1.208,4.475,4.475,0,0,1-1.828.321,3.094,3.094,0,0,1-2.237-.773,2.894,2.894,0,0,1-.8-2.188,2.57,2.57,0,0,1,1.116-2.268,6.436,6.436,0,0,1,3.4-.835l1.679-.053V12.54a1.965,1.965,0,0,0-.435-1.393,1.774,1.774,0,0,0-1.349-.461,4.665,4.665,0,0,0-1.433.22,10.811,10.811,0,0,0-1.318.519l-.668-1.477a7.189,7.189,0,0,1,1.731-.628,7.968,7.968,0,0,1,1.775-.215,4.2,4.2,0,0,1,2.8.809,3.166,3.166,0,0,1,.945,2.54V19Zm-3.076-1.406a2.558,2.558,0,0,0,1.806-.628,2.278,2.278,0,0,0,.681-1.762v-.844l-1.248.053a4.27,4.27,0,0,0-2.123.488,1.482,1.482,0,0,0-.664,1.332,1.3,1.3,0,0,0,.387,1.006A1.661,1.661,0,0,0,126.65,17.594Zm16.031,1.582a4.256,4.256,0,0,1-3.353-1.288,5.38,5.38,0,0,1-1.147-3.7,5.41,5.41,0,0,1,1.2-3.771A4.45,4.45,0,0,1,142.849,9.1a6.5,6.5,0,0,1,2.769.571l-.624,1.661a6.255,6.255,0,0,0-2.162-.51q-2.522,0-2.522,3.349a4.01,4.01,0,0,0,.628,2.457,2.175,2.175,0,0,0,1.841.822,5.283,5.283,0,0,0,2.61-.686v1.8a4.079,4.079,0,0,1-1.182.466A7.093,7.093,0,0,1,142.682,19.176ZM154.529,19l-.29-1.274h-.105a2.931,2.931,0,0,1-1.226,1.063,4.1,4.1,0,0,1-1.815.387,3.563,3.563,0,0,1-2.637-.879,3.643,3.643,0,0,1-.87-2.663V9.279h2.083v5.994a2.6,2.6,0,0,0,.457,1.674,1.745,1.745,0,0,0,1.433.558,2.281,2.281,0,0,0,1.912-.778,4.286,4.286,0,0,0,.611-2.606V9.279h2.074V19Zm10.652,0-.413-1.354h-.07a3.982,3.982,0,0,1-1.415,1.208,4.475,4.475,0,0,1-1.828.321,3.094,3.094,0,0,1-2.237-.773,2.894,2.894,0,0,1-.8-2.188,2.57,2.57,0,0,1,1.116-2.268,6.436,6.436,0,0,1,3.4-.835l1.679-.053V12.54a1.965,1.965,0,0,0-.435-1.393,1.774,1.774,0,0,0-1.349-.461,4.665,4.665,0,0,0-1.433.22,10.811,10.811,0,0,0-1.318.519l-.668-1.477a7.189,7.189,0,0,1,1.731-.628,7.968,7.968,0,0,1,1.775-.215,4.2,4.2,0,0,1,2.8.809,3.166,3.166,0,0,1,.945,2.54V19Zm-3.076-1.406a2.558,2.558,0,0,0,1.806-.628,2.278,2.278,0,0,0,.681-1.762v-.844l-1.248.053a4.27,4.27,0,0,0-2.123.488,1.482,1.482,0,0,0-.664,1.332,1.3,1.3,0,0,0,.387,1.006A1.661,1.661,0,0,0,162.105,17.594Zm6.442,5.73A4.653,4.653,0,0,1,167,23.1V21.47a4.754,4.754,0,0,0,1.222.158q1.318,0,1.318-1.494V9.279h2.065v11a3.055,3.055,0,0,1-.787,2.276A3.108,3.108,0,0,1,168.548,23.324Zm.87-16.62a1.144,1.144,0,0,1,.3-.853,1.182,1.182,0,0,1,.866-.3,1.156,1.156,0,0,1,.848.3,1.144,1.144,0,0,1,.3.853,1.122,1.122,0,0,1-.3.831,1.147,1.147,0,0,1-.848.3,1.171,1.171,0,0,1-.866-.3A1.122,1.122,0,0,1,169.418,6.7ZM178.8,19.176a4.7,4.7,0,0,1-3.546-1.323,5.021,5.021,0,0,1-1.279-3.643,5.509,5.509,0,0,1,1.187-3.744A4.1,4.1,0,0,1,178.427,9.1a4.006,4.006,0,0,1,3.041,1.169,4.467,4.467,0,0,1,1.116,3.217v1.116h-6.478a3.193,3.193,0,0,0,.765,2.175,2.663,2.663,0,0,0,2.03.76,7.5,7.5,0,0,0,1.6-.163,8.408,8.408,0,0,0,1.6-.541v1.679a6.342,6.342,0,0,1-1.529.51A9.378,9.378,0,0,1,178.8,19.176Zm-.378-8.508a2.075,2.075,0,0,0-1.578.624,2.974,2.974,0,0,0-.708,1.819h4.412a2.691,2.691,0,0,0-.58-1.824A1.984,1.984,0,0,0,178.427,10.668Zm14.458,8.508a3.386,3.386,0,0,1-2.839-1.318,5.926,5.926,0,0,1-1.02-3.7,5.945,5.945,0,0,1,1.033-3.722A3.418,3.418,0,0,1,192.92,9.1a3.351,3.351,0,0,1,2.918,1.415h.105a12.381,12.381,0,0,1-.149-1.652V5.324h2.074V19h-1.617l-.36-1.274h-.1A3.3,3.3,0,0,1,192.885,19.176Zm.554-1.67a2.248,2.248,0,0,0,1.854-.716,3.771,3.771,0,0,0,.6-2.325v-.29a4.357,4.357,0,0,0-.6-2.61,2.217,2.217,0,0,0-1.872-.773,1.9,1.9,0,0,0-1.679.883,4.527,4.527,0,0,0-.589,2.518,4.414,4.414,0,0,0,.571,2.465A1.929,1.929,0,0,0,193.438,17.506Zm11.628,1.67a4.7,4.7,0,0,1-3.546-1.323,5.021,5.021,0,0,1-1.279-3.643,5.509,5.509,0,0,1,1.187-3.744A4.1,4.1,0,0,1,204.688,9.1a4.006,4.006,0,0,1,3.041,1.169,4.467,4.467,0,0,1,1.116,3.217v1.116h-6.478a3.193,3.193,0,0,0,.765,2.175,2.663,2.663,0,0,0,2.03.76,7.5,7.5,0,0,0,1.6-.163,8.408,8.408,0,0,0,1.6-.541v1.679a6.342,6.342,0,0,1-1.529.51A9.378,9.378,0,0,1,205.066,19.176Zm-.378-8.508a2.075,2.075,0,0,0-1.578.624,2.974,2.974,0,0,0-.708,1.819h4.412a2.691,2.691,0,0,0-.58-1.824A1.984,1.984,0,0,0,204.688,10.668Zm14.8,6.838A5.023,5.023,0,0,0,221,17.269v1.556a4.169,4.169,0,0,1-.883.25,6.086,6.086,0,0,1-1.121.1q-2.936,0-2.936-3.094V10.844h-1.327V9.93l1.424-.756.7-2.057h1.274V9.279H220.9v1.564h-2.769v5.2a1.46,1.46,0,0,0,.374,1.1A1.362,1.362,0,0,0,219.489,17.506Zm7.7,1.67a4.7,4.7,0,0,1-3.546-1.323,5.021,5.021,0,0,1-1.279-3.643,5.509,5.509,0,0,1,1.187-3.744A4.1,4.1,0,0,1,226.811,9.1a4.006,4.006,0,0,1,3.041,1.169,4.467,4.467,0,0,1,1.116,3.217v1.116H224.49a3.193,3.193,0,0,0,.765,2.175,2.663,2.663,0,0,0,2.03.76,7.5,7.5,0,0,0,1.6-.163,8.408,8.408,0,0,0,1.6-.541v1.679a6.342,6.342,0,0,1-1.529.51A9.378,9.378,0,0,1,227.188,19.176Zm-.378-8.508a2.075,2.075,0,0,0-1.578.624,2.974,2.974,0,0,0-.708,1.819h4.412a2.691,2.691,0,0,0-.58-1.824A1.984,1.984,0,0,0,226.811,10.668ZM238.245,9.1a4.972,4.972,0,0,1,1.028.088l-.2,1.925a3.9,3.9,0,0,0-.914-.105,2.645,2.645,0,0,0-2.008.809,2.923,2.923,0,0,0-.769,2.1V19h-2.065V9.279h1.617l.272,1.714h.105a3.851,3.851,0,0,1,1.261-1.38A3,3,0,0,1,238.245,9.1Zm6.39,10.072a4.256,4.256,0,0,1-3.353-1.288,5.38,5.38,0,0,1-1.147-3.7,5.41,5.41,0,0,1,1.2-3.771A4.45,4.45,0,0,1,244.8,9.1a6.5,6.5,0,0,1,2.769.571l-.624,1.661a6.255,6.255,0,0,0-2.162-.51q-2.522,0-2.522,3.349a4.01,4.01,0,0,0,.628,2.457,2.175,2.175,0,0,0,1.841.822,5.283,5.283,0,0,0,2.61-.686v1.8a4.079,4.079,0,0,1-1.182.466A7.093,7.093,0,0,1,244.635,19.176Zm9.237,0a4.7,4.7,0,0,1-3.546-1.323,5.021,5.021,0,0,1-1.279-3.643,5.509,5.509,0,0,1,1.187-3.744A4.1,4.1,0,0,1,253.494,9.1a4.006,4.006,0,0,1,3.041,1.169,4.467,4.467,0,0,1,1.116,3.217v1.116h-6.478a3.193,3.193,0,0,0,.765,2.175,2.663,2.663,0,0,0,2.03.76,7.5,7.5,0,0,0,1.6-.163,8.408,8.408,0,0,0,1.6-.541v1.679a6.342,6.342,0,0,1-1.529.51A9.378,9.378,0,0,1,253.872,19.176Zm-.378-8.508a2.075,2.075,0,0,0-1.578.624,2.974,2.974,0,0,0-.708,1.819h4.412a2.691,2.691,0,0,0-.58-1.824A1.984,1.984,0,0,0,253.494,10.668ZM264.929,9.1a4.972,4.972,0,0,1,1.028.088l-.2,1.925a3.9,3.9,0,0,0-.914-.105,2.645,2.645,0,0,0-2.008.809,2.923,2.923,0,0,0-.769,2.1V19H260V9.279h1.617l.272,1.714h.105a3.851,3.851,0,0,1,1.261-1.38A3,3,0,0,1,264.929,9.1Zm12.437,10.072a3.4,3.4,0,0,1-2.865-1.327h-.123q.123,1.23.123,1.494v3.981h-2.065V9.279h1.67q.07.272.29,1.3h.105A3.236,3.236,0,0,1,277.4,9.1a3.374,3.374,0,0,1,2.834,1.318,5.944,5.944,0,0,1,1.015,3.7,5.948,5.948,0,0,1-1.033,3.718A3.4,3.4,0,0,1,277.365,19.176Zm-.5-8.385a2.147,2.147,0,0,0-1.8.721,3.735,3.735,0,0,0-.567,2.3v.308a4.547,4.547,0,0,0,.563,2.571,2.092,2.092,0,0,0,1.837.8,1.865,1.865,0,0,0,1.652-.879,4.539,4.539,0,0,0,.58-2.5,4.38,4.38,0,0,0-.576-2.474A1.92,1.92,0,0,0,276.864,10.791ZM285.715,19h-2.065V9.279h2.065ZM283.526,6.7a1.144,1.144,0,0,1,.3-.853,1.182,1.182,0,0,1,.866-.3,1.156,1.156,0,0,1,.848.3,1.144,1.144,0,0,1,.3.853,1.122,1.122,0,0,1-.3.831,1.147,1.147,0,0,1-.848.3,1.171,1.171,0,0,1-.866-.3A1.122,1.122,0,0,1,283.526,6.7ZM295.2,16.231a2.543,2.543,0,0,1-1.037,2.184,4.966,4.966,0,0,1-2.971.76,7.017,7.017,0,0,1-3.12-.589V16.8a7.66,7.66,0,0,0,3.19.791q1.907,0,1.907-1.151a.912.912,0,0,0-.211-.615,2.5,2.5,0,0,0-.694-.51,11.949,11.949,0,0,0-1.345-.6,6.22,6.22,0,0,1-2.272-1.3,2.407,2.407,0,0,1-.593-1.687,2.216,2.216,0,0,1,1.006-1.938A4.776,4.776,0,0,1,291.8,9.1a7.754,7.754,0,0,1,3.243.694l-.668,1.556a7.213,7.213,0,0,0-2.646-.65q-1.635,0-1.635.932a.937.937,0,0,0,.426.773,9.374,9.374,0,0,0,1.859.87,8.5,8.5,0,0,1,1.749.853,2.548,2.548,0,0,1,.809.892A2.582,2.582,0,0,1,295.2,16.231Zm10.854-2.109a5.306,5.306,0,0,1-1.222,3.718,4.377,4.377,0,0,1-3.4,1.336,4.66,4.66,0,0,1-2.408-.615,4.062,4.062,0,0,1-1.608-1.767,6.017,6.017,0,0,1-.562-2.672,5.27,5.27,0,0,1,1.213-3.691A4.4,4.4,0,0,1,301.482,9.1a4.282,4.282,0,0,1,3.34,1.358A5.245,5.245,0,0,1,306.053,14.122Zm-7.075,0q0,3.366,2.487,3.366,2.461,0,2.461-3.366,0-3.331-2.479-3.331a2.113,2.113,0,0,0-1.885.861A4.383,4.383,0,0,0,298.978,14.122Z" transform="translate(430 1109)" fill="#00223d"/>
    <path id="Trazado_17129" data-name="Trazado 17129" d="M10.2,10.035A3.747,3.747,0,0,1,8.886,13.12a5.808,5.808,0,0,1-3.753,1.072H3.8V19H1.7V6.15H5.4A5.6,5.6,0,0,1,9,7.135,3.534,3.534,0,0,1,10.2,10.035ZM3.8,12.426H4.913a4,4,0,0,0,2.373-.562,2.047,2.047,0,0,0,.756-1.758,2,2,0,0,0-.677-1.652,3.343,3.343,0,0,0-2.109-.545H3.8ZM17.481,9.1a4.972,4.972,0,0,1,1.028.088l-.2,1.925a3.9,3.9,0,0,0-.914-.105,2.645,2.645,0,0,0-2.008.809,2.923,2.923,0,0,0-.769,2.1V19H12.551V9.279h1.617l.272,1.714h.105a3.851,3.851,0,0,1,1.261-1.38A3,3,0,0,1,17.481,9.1Zm4.9,9.9H20.312V9.279h2.065ZM20.188,6.7a1.144,1.144,0,0,1,.3-.853,1.182,1.182,0,0,1,.866-.3,1.156,1.156,0,0,1,.848.3,1.144,1.144,0,0,1,.3.853,1.122,1.122,0,0,1-.3.831,1.147,1.147,0,0,1-.848.3,1.171,1.171,0,0,1-.866-.3A1.122,1.122,0,0,1,20.188,6.7ZM33.882,19H31.808V13.023a2.616,2.616,0,0,0-.453-1.679,1.75,1.75,0,0,0-1.437-.554A2.285,2.285,0,0,0,28,11.564a4.27,4.27,0,0,0-.606,2.593V19H25.33V9.279h1.617l.29,1.274h.105a2.876,2.876,0,0,1,1.248-1.072A4.182,4.182,0,0,1,30.384,9.1q3.5,0,3.5,3.56Zm6.794.176a4.256,4.256,0,0,1-3.353-1.288,5.38,5.38,0,0,1-1.147-3.7,5.41,5.41,0,0,1,1.2-3.771A4.45,4.45,0,0,1,40.843,9.1a6.5,6.5,0,0,1,2.769.571l-.624,1.661a6.255,6.255,0,0,0-2.162-.51q-2.522,0-2.522,3.349a4.01,4.01,0,0,0,.628,2.457,2.175,2.175,0,0,0,1.841.822,5.283,5.283,0,0,0,2.61-.686v1.8a4.079,4.079,0,0,1-1.182.466A7.093,7.093,0,0,1,40.676,19.176ZM47.733,19H45.668V9.279h2.065ZM45.545,6.7a1.144,1.144,0,0,1,.3-.853,1.182,1.182,0,0,1,.866-.3,1.156,1.156,0,0,1,.848.3,1.144,1.144,0,0,1,.3.853,1.122,1.122,0,0,1-.3.831,1.147,1.147,0,0,1-.848.3,1.171,1.171,0,0,1-.866-.3A1.122,1.122,0,0,1,45.545,6.7ZM55.617,19.176a3.4,3.4,0,0,1-2.865-1.327h-.123q.123,1.23.123,1.494v3.981H50.687V9.279h1.67q.07.272.29,1.3h.105a3.236,3.236,0,0,1,2.9-1.477,3.374,3.374,0,0,1,2.834,1.318,5.944,5.944,0,0,1,1.015,3.7,5.948,5.948,0,0,1-1.033,3.718A3.4,3.4,0,0,1,55.617,19.176Zm-.5-8.385a2.147,2.147,0,0,0-1.8.721,3.735,3.735,0,0,0-.567,2.3v.308a4.547,4.547,0,0,0,.563,2.571,2.092,2.092,0,0,0,1.837.8,1.865,1.865,0,0,0,1.652-.879,4.539,4.539,0,0,0,.58-2.5,4.38,4.38,0,0,0-.576-2.474A1.92,1.92,0,0,0,55.116,10.791ZM67.983,19l-.413-1.354H67.5a3.982,3.982,0,0,1-1.415,1.208,4.475,4.475,0,0,1-1.828.321A3.094,3.094,0,0,1,62.02,18.4a2.894,2.894,0,0,1-.8-2.188,2.57,2.57,0,0,1,1.116-2.268,6.436,6.436,0,0,1,3.4-.835l1.679-.053V12.54a1.965,1.965,0,0,0-.435-1.393,1.774,1.774,0,0,0-1.349-.461,4.665,4.665,0,0,0-1.433.22,10.811,10.811,0,0,0-1.318.519l-.668-1.477a7.189,7.189,0,0,1,1.731-.628A7.968,7.968,0,0,1,65.716,9.1a4.2,4.2,0,0,1,2.8.809,3.166,3.166,0,0,1,.945,2.54V19Zm-3.076-1.406a2.558,2.558,0,0,0,1.806-.628,2.278,2.278,0,0,0,.681-1.762v-.844l-1.248.053a4.27,4.27,0,0,0-2.123.488,1.482,1.482,0,0,0-.664,1.332,1.3,1.3,0,0,0,.387,1.006A1.661,1.661,0,0,0,64.907,17.594ZM74.408,19H72.343V5.324h2.065Zm11.549.176A4.256,4.256,0,0,1,82.6,17.888a5.38,5.38,0,0,1-1.147-3.7,5.41,5.41,0,0,1,1.2-3.771A4.45,4.45,0,0,1,86.124,9.1a6.5,6.5,0,0,1,2.769.571l-.624,1.661a6.255,6.255,0,0,0-2.162-.51q-2.522,0-2.522,3.349a4.01,4.01,0,0,0,.628,2.457,2.175,2.175,0,0,0,1.841.822,5.283,5.283,0,0,0,2.61-.686v1.8a4.079,4.079,0,0,1-1.182.466A7.093,7.093,0,0,1,85.957,19.176ZM97.8,19l-.29-1.274h-.105a2.931,2.931,0,0,1-1.226,1.063,4.1,4.1,0,0,1-1.815.387,3.563,3.563,0,0,1-2.637-.879,3.643,3.643,0,0,1-.87-2.663V9.279h2.083v5.994a2.6,2.6,0,0,0,.457,1.674,1.745,1.745,0,0,0,1.433.558,2.281,2.281,0,0,0,1.912-.778,4.286,4.286,0,0,0,.611-2.606V9.279h2.074V19Zm10.652,0-.413-1.354h-.07a3.982,3.982,0,0,1-1.415,1.208,4.475,4.475,0,0,1-1.828.321,3.094,3.094,0,0,1-2.237-.773,2.894,2.894,0,0,1-.8-2.188,2.57,2.57,0,0,1,1.116-2.268,6.436,6.436,0,0,1,3.4-.835l1.679-.053V12.54a1.965,1.965,0,0,0-.435-1.393,1.774,1.774,0,0,0-1.349-.461,4.665,4.665,0,0,0-1.433.22,10.811,10.811,0,0,0-1.318.519l-.668-1.477a7.189,7.189,0,0,1,1.731-.628,7.968,7.968,0,0,1,1.775-.215,4.2,4.2,0,0,1,2.8.809,3.166,3.166,0,0,1,.945,2.54V19Zm-3.076-1.406a2.558,2.558,0,0,0,1.806-.628,2.278,2.278,0,0,0,.681-1.762v-.844l-1.248.053a4.27,4.27,0,0,0-2.123.488,1.482,1.482,0,0,0-.664,1.332,1.3,1.3,0,0,0,.387,1.006A1.661,1.661,0,0,0,105.381,17.594Zm6.442,5.73a4.653,4.653,0,0,1-1.547-.22V21.47a4.754,4.754,0,0,0,1.222.158q1.318,0,1.318-1.494V9.279h2.065v11a3.055,3.055,0,0,1-.787,2.276A3.108,3.108,0,0,1,111.823,23.324Zm.87-16.62a1.144,1.144,0,0,1,.3-.853,1.182,1.182,0,0,1,.866-.3,1.156,1.156,0,0,1,.848.3,1.144,1.144,0,0,1,.3.853,1.122,1.122,0,0,1-.3.831,1.147,1.147,0,0,1-.848.3,1.171,1.171,0,0,1-.866-.3A1.122,1.122,0,0,1,112.693,6.7ZM123.917,19l-.413-1.354h-.07a3.982,3.982,0,0,1-1.415,1.208,4.475,4.475,0,0,1-1.828.321,3.094,3.094,0,0,1-2.237-.773,2.894,2.894,0,0,1-.8-2.188,2.57,2.57,0,0,1,1.116-2.268,6.436,6.436,0,0,1,3.4-.835l1.679-.053V12.54a1.965,1.965,0,0,0-.435-1.393,1.774,1.774,0,0,0-1.349-.461,4.665,4.665,0,0,0-1.433.22,10.811,10.811,0,0,0-1.318.519l-.668-1.477a7.189,7.189,0,0,1,1.731-.628,7.968,7.968,0,0,1,1.775-.215,4.2,4.2,0,0,1,2.8.809,3.166,3.166,0,0,1,.945,2.54V19Zm-3.076-1.406a2.558,2.558,0,0,0,1.806-.628,2.278,2.278,0,0,0,.681-1.762v-.844l-1.248.053a4.27,4.27,0,0,0-2.123.488,1.482,1.482,0,0,0-.664,1.332,1.3,1.3,0,0,0,.387,1.006A1.661,1.661,0,0,0,120.841,17.594ZM139.034,19l-.413-1.354h-.07a3.982,3.982,0,0,1-1.415,1.208,4.475,4.475,0,0,1-1.828.321,3.094,3.094,0,0,1-2.237-.773,2.894,2.894,0,0,1-.8-2.188,2.57,2.57,0,0,1,1.116-2.268,6.436,6.436,0,0,1,3.4-.835l1.679-.053V12.54a1.965,1.965,0,0,0-.435-1.393,1.774,1.774,0,0,0-1.349-.461,4.665,4.665,0,0,0-1.433.22,10.811,10.811,0,0,0-1.318.519l-.668-1.477a7.189,7.189,0,0,1,1.731-.628,7.968,7.968,0,0,1,1.775-.215,4.2,4.2,0,0,1,2.8.809,3.166,3.166,0,0,1,.945,2.54V19Zm-3.076-1.406a2.558,2.558,0,0,0,1.806-.628,2.278,2.278,0,0,0,.681-1.762v-.844l-1.248.053a4.27,4.27,0,0,0-2.123.488,1.482,1.482,0,0,0-.664,1.332,1.3,1.3,0,0,0,.387,1.006A1.661,1.661,0,0,0,135.958,17.594Zm15.39,1.582a3.386,3.386,0,0,1-2.839-1.318,5.926,5.926,0,0,1-1.02-3.7,5.945,5.945,0,0,1,1.033-3.722A3.418,3.418,0,0,1,151.383,9.1a3.351,3.351,0,0,1,2.918,1.415h.105a12.381,12.381,0,0,1-.149-1.652V5.324h2.074V19h-1.617l-.36-1.274h-.1A3.3,3.3,0,0,1,151.348,19.176Zm.554-1.67a2.248,2.248,0,0,0,1.854-.716,3.771,3.771,0,0,0,.6-2.325v-.29a4.357,4.357,0,0,0-.6-2.61,2.217,2.217,0,0,0-1.872-.773,1.9,1.9,0,0,0-1.679.883,4.527,4.527,0,0,0-.589,2.518,4.414,4.414,0,0,0,.571,2.465A1.929,1.929,0,0,0,151.9,17.506Zm11.628,1.67a4.7,4.7,0,0,1-3.546-1.323A5.021,5.021,0,0,1,158.7,14.21a5.509,5.509,0,0,1,1.187-3.744A4.1,4.1,0,0,1,163.151,9.1a4.006,4.006,0,0,1,3.041,1.169,4.467,4.467,0,0,1,1.116,3.217v1.116h-6.478a3.193,3.193,0,0,0,.765,2.175,2.663,2.663,0,0,0,2.03.76,7.5,7.5,0,0,0,1.6-.163,8.408,8.408,0,0,0,1.6-.541v1.679a6.342,6.342,0,0,1-1.529.51A9.378,9.378,0,0,1,163.529,19.176Zm-.378-8.508a2.075,2.075,0,0,0-1.578.624,2.974,2.974,0,0,0-.708,1.819h4.412a2.691,2.691,0,0,0-.58-1.824A1.984,1.984,0,0,0,163.151,10.668Zm13.034,5.563a2.543,2.543,0,0,1-1.037,2.184,4.966,4.966,0,0,1-2.971.76,7.017,7.017,0,0,1-3.12-.589V16.8a7.66,7.66,0,0,0,3.19.791q1.907,0,1.907-1.151a.912.912,0,0,0-.211-.615,2.5,2.5,0,0,0-.694-.51,11.949,11.949,0,0,0-1.345-.6,6.22,6.22,0,0,1-2.272-1.3,2.407,2.407,0,0,1-.593-1.687,2.216,2.216,0,0,1,1.006-1.938,4.776,4.776,0,0,1,2.738-.69,7.754,7.754,0,0,1,3.243.694l-.668,1.556a7.213,7.213,0,0,0-2.646-.65q-1.635,0-1.635.932a.937.937,0,0,0,.426.773,9.374,9.374,0,0,0,1.859.87,8.5,8.5,0,0,1,1.749.853,2.548,2.548,0,0,1,.809.892A2.582,2.582,0,0,1,176.186,16.231ZM184.5,19l-.413-1.354h-.07a3.982,3.982,0,0,1-1.415,1.208,4.475,4.475,0,0,1-1.828.321,3.094,3.094,0,0,1-2.237-.773,2.894,2.894,0,0,1-.8-2.188,2.57,2.57,0,0,1,1.116-2.268,6.436,6.436,0,0,1,3.4-.835l1.679-.053V12.54a1.965,1.965,0,0,0-.435-1.393,1.774,1.774,0,0,0-1.349-.461,4.665,4.665,0,0,0-1.433.22,10.811,10.811,0,0,0-1.318.519l-.668-1.477a7.189,7.189,0,0,1,1.731-.628,7.968,7.968,0,0,1,1.775-.215,4.2,4.2,0,0,1,2.8.809,3.166,3.166,0,0,1,.945,2.54V19Zm-3.076-1.406a2.558,2.558,0,0,0,1.806-.628,2.278,2.278,0,0,0,.681-1.762v-.844l-1.248.053a4.27,4.27,0,0,0-2.123.488,1.482,1.482,0,0,0-.664,1.332,1.3,1.3,0,0,0,.387,1.006A1.661,1.661,0,0,0,181.424,17.594ZM193.79,9.1a4.972,4.972,0,0,1,1.028.088l-.2,1.925a3.9,3.9,0,0,0-.914-.105,2.645,2.645,0,0,0-2.008.809,2.923,2.923,0,0,0-.769,2.1V19h-2.065V9.279h1.617l.272,1.714h.105a3.851,3.851,0,0,1,1.261-1.38A3,3,0,0,1,193.79,9.1Zm7.761,0a4.972,4.972,0,0,1,1.028.088l-.2,1.925a3.9,3.9,0,0,0-.914-.105,2.645,2.645,0,0,0-2.008.809,2.923,2.923,0,0,0-.769,2.1V19H196.62V9.279h1.617l.272,1.714h.105a3.851,3.851,0,0,1,1.261-1.38A3,3,0,0,1,201.551,9.1Zm11.092,5.019a5.306,5.306,0,0,1-1.222,3.718,4.377,4.377,0,0,1-3.4,1.336,4.66,4.66,0,0,1-2.408-.615A4.062,4.062,0,0,1,204,16.794a6.017,6.017,0,0,1-.562-2.672,5.27,5.27,0,0,1,1.213-3.691A4.4,4.4,0,0,1,208.072,9.1a4.282,4.282,0,0,1,3.34,1.358A5.245,5.245,0,0,1,212.643,14.122Zm-7.075,0q0,3.366,2.487,3.366,2.461,0,2.461-3.366,0-3.331-2.479-3.331a2.113,2.113,0,0,0-1.885.861A4.383,4.383,0,0,0,205.567,14.122ZM217.081,19h-2.065V5.324h2.065Zm5.019,0h-2.065V5.324H222.1Zm11.575-4.878a5.306,5.306,0,0,1-1.222,3.718,4.377,4.377,0,0,1-3.4,1.336,4.66,4.66,0,0,1-2.408-.615,4.062,4.062,0,0,1-1.608-1.767,6.017,6.017,0,0,1-.562-2.672,5.27,5.27,0,0,1,1.213-3.691A4.4,4.4,0,0,1,229.1,9.1a4.282,4.282,0,0,1,3.34,1.358A5.245,5.245,0,0,1,233.675,14.122Zm-7.075,0q0,3.366,2.487,3.366,2.461,0,2.461-3.366,0-3.331-2.479-3.331a2.113,2.113,0,0,0-1.885.861A4.383,4.383,0,0,0,226.6,14.122ZM244,19.176a3.386,3.386,0,0,1-2.839-1.318,5.926,5.926,0,0,1-1.02-3.7,5.945,5.945,0,0,1,1.033-3.722A3.418,3.418,0,0,1,244.037,9.1a3.351,3.351,0,0,1,2.918,1.415h.105a12.381,12.381,0,0,1-.149-1.652V5.324h2.074V19h-1.617l-.36-1.274h-.1A3.3,3.3,0,0,1,244,19.176Zm.554-1.67a2.248,2.248,0,0,0,1.854-.716,3.771,3.771,0,0,0,.6-2.325v-.29a4.357,4.357,0,0,0-.6-2.61,2.217,2.217,0,0,0-1.872-.773,1.9,1.9,0,0,0-1.679.883,4.527,4.527,0,0,0-.589,2.518,4.414,4.414,0,0,0,.571,2.465A1.929,1.929,0,0,0,244.556,17.506Zm11.628,1.67a4.7,4.7,0,0,1-3.546-1.323,5.021,5.021,0,0,1-1.279-3.643,5.509,5.509,0,0,1,1.187-3.744A4.1,4.1,0,0,1,255.806,9.1a4.006,4.006,0,0,1,3.041,1.169,4.467,4.467,0,0,1,1.116,3.217v1.116h-6.478a3.193,3.193,0,0,0,.765,2.175,2.663,2.663,0,0,0,2.03.76,7.5,7.5,0,0,0,1.6-.163,8.408,8.408,0,0,0,1.6-.541v1.679a6.342,6.342,0,0,1-1.529.51A9.378,9.378,0,0,1,256.184,19.176Zm-.378-8.508a2.075,2.075,0,0,0-1.578.624,2.974,2.974,0,0,0-.708,1.819h4.412a2.691,2.691,0,0,0-.58-1.824A1.984,1.984,0,0,0,255.806,10.668Zm16.058.176H269.49V19h-2.074V10.844h-1.6V9.877l1.6-.633V8.611a3.537,3.537,0,0,1,.809-2.553,3.306,3.306,0,0,1,2.47-.831,6.591,6.591,0,0,1,2.145.36l-.545,1.564a4.761,4.761,0,0,0-1.459-.246,1.187,1.187,0,0,0-1.024.435,2.192,2.192,0,0,0-.321,1.305v.633h2.373Zm6.583-1.74a4.972,4.972,0,0,1,1.028.088l-.2,1.925a3.9,3.9,0,0,0-.914-.105,2.645,2.645,0,0,0-2.008.809,2.923,2.923,0,0,0-.769,2.1V19h-2.065V9.279h1.617l.272,1.714h.105a3.851,3.851,0,0,1,1.261-1.38A3,3,0,0,1,278.446,9.1Zm9.686,9.9-.29-1.274h-.105a2.931,2.931,0,0,1-1.226,1.063,4.1,4.1,0,0,1-1.815.387,3.563,3.563,0,0,1-2.637-.879,3.643,3.643,0,0,1-.87-2.663V9.279h2.083v5.994a2.6,2.6,0,0,0,.457,1.674,1.745,1.745,0,0,0,1.433.558,2.281,2.281,0,0,0,1.912-.778,4.286,4.286,0,0,0,.611-2.606V9.279h2.074V19Zm8.191-1.494a5.023,5.023,0,0,0,1.512-.237v1.556a4.169,4.169,0,0,1-.883.25,6.086,6.086,0,0,1-1.121.1q-2.936,0-2.936-3.094V10.844h-1.327V9.93l1.424-.756.7-2.057h1.274V9.279h2.769v1.564H294.97v5.2a1.46,1.46,0,0,0,.374,1.1A1.362,1.362,0,0,0,296.323,17.506ZM308.4,14.122a5.306,5.306,0,0,1-1.222,3.718,4.377,4.377,0,0,1-3.4,1.336,4.66,4.66,0,0,1-2.408-.615,4.062,4.062,0,0,1-1.608-1.767,6.017,6.017,0,0,1-.562-2.672,5.27,5.27,0,0,1,1.213-3.691A4.4,4.4,0,0,1,303.829,9.1a4.282,4.282,0,0,1,3.34,1.358A5.245,5.245,0,0,1,308.4,14.122Zm-7.075,0q0,3.366,2.487,3.366,2.461,0,2.461-3.366,0-3.331-2.479-3.331a2.113,2.113,0,0,0-1.885.861A4.383,4.383,0,0,0,301.324,14.122ZM317.3,16.231a2.543,2.543,0,0,1-1.037,2.184,4.966,4.966,0,0,1-2.971.76,7.017,7.017,0,0,1-3.12-.589V16.8a7.66,7.66,0,0,0,3.19.791q1.907,0,1.907-1.151a.912.912,0,0,0-.211-.615,2.5,2.5,0,0,0-.694-.51,11.949,11.949,0,0,0-1.345-.6,6.22,6.22,0,0,1-2.272-1.3,2.407,2.407,0,0,1-.593-1.687,2.216,2.216,0,0,1,1.006-1.938A4.776,4.776,0,0,1,313.9,9.1a7.754,7.754,0,0,1,3.243.694l-.668,1.556a7.213,7.213,0,0,0-2.646-.65q-1.635,0-1.635.932a.937.937,0,0,0,.426.773,9.374,9.374,0,0,0,1.859.87,8.5,8.5,0,0,1,1.749.853,2.548,2.548,0,0,1,.809.892A2.582,2.582,0,0,1,317.3,16.231Z" transform="translate(430 1168)" fill="#00223d"/>
    <path id="Trazado_17130" data-name="Trazado 17130" d="M8.965,19H1.7V6.15H8.965V7.926H3.8v3.5H8.64v1.758H3.8v4.034H8.965Zm11.109,0H18V13.023a2.616,2.616,0,0,0-.453-1.679,1.75,1.75,0,0,0-1.437-.554,2.285,2.285,0,0,0-1.916.773,4.27,4.27,0,0,0-.606,2.593V19H11.522V9.279H13.14l.29,1.274h.105a2.876,2.876,0,0,1,1.248-1.072A4.182,4.182,0,0,1,16.576,9.1q3.5,0,3.5,3.56Zm14.045,0H26.745V17.726l4.913-6.864H27.044V9.279h6.935v1.441l-4.808,6.7h4.948Zm10.731-4.878a5.306,5.306,0,0,1-1.222,3.718,4.377,4.377,0,0,1-3.4,1.336,4.66,4.66,0,0,1-2.408-.615,4.062,4.062,0,0,1-1.608-1.767,6.017,6.017,0,0,1-.562-2.672,5.27,5.27,0,0,1,1.213-3.691A4.4,4.4,0,0,1,40.28,9.1a4.282,4.282,0,0,1,3.34,1.358A5.245,5.245,0,0,1,44.851,14.122Zm-7.075,0q0,3.366,2.487,3.366,2.461,0,2.461-3.366,0-3.331-2.479-3.331a2.113,2.113,0,0,0-1.885.861A4.383,4.383,0,0,0,37.775,14.122Zm18,4.878H53.7V13.023a2.616,2.616,0,0,0-.453-1.679,1.75,1.75,0,0,0-1.437-.554,2.285,2.285,0,0,0-1.916.773,4.27,4.27,0,0,0-.606,2.593V19H47.224V9.279h1.617l.29,1.274h.105a2.876,2.876,0,0,1,1.248-1.072A4.182,4.182,0,0,1,52.277,9.1q3.5,0,3.5,3.56Zm8.956,0-.413-1.354h-.07a3.982,3.982,0,0,1-1.415,1.208A4.475,4.475,0,0,1,61,19.176a3.094,3.094,0,0,1-2.237-.773,2.894,2.894,0,0,1-.8-2.188,2.57,2.57,0,0,1,1.116-2.268,6.436,6.436,0,0,1,3.4-.835l1.679-.053V12.54a1.965,1.965,0,0,0-.435-1.393,1.774,1.774,0,0,0-1.349-.461,4.665,4.665,0,0,0-1.433.22,10.811,10.811,0,0,0-1.318.519l-.668-1.477a7.189,7.189,0,0,1,1.731-.628A7.968,7.968,0,0,1,62.464,9.1a4.2,4.2,0,0,1,2.8.809,3.166,3.166,0,0,1,.945,2.54V19Zm-3.076-1.406a2.558,2.558,0,0,0,1.806-.628,2.278,2.278,0,0,0,.681-1.762v-.844l-1.248.053a4.27,4.27,0,0,0-2.123.488,1.482,1.482,0,0,0-.664,1.332,1.3,1.3,0,0,0,.387,1.006A1.661,1.661,0,0,0,61.655,17.594Zm13.966-1.362a2.543,2.543,0,0,1-1.037,2.184,4.966,4.966,0,0,1-2.971.76,7.017,7.017,0,0,1-3.12-.589V16.8a7.66,7.66,0,0,0,3.19.791q1.907,0,1.907-1.151a.912.912,0,0,0-.211-.615,2.5,2.5,0,0,0-.694-.51,11.949,11.949,0,0,0-1.345-.6,6.22,6.22,0,0,1-2.272-1.3,2.407,2.407,0,0,1-.593-1.687,2.216,2.216,0,0,1,1.006-1.938A4.776,4.776,0,0,1,72.22,9.1a7.754,7.754,0,0,1,3.243.694l-.668,1.556a7.213,7.213,0,0,0-2.646-.65q-1.635,0-1.635.932a.937.937,0,0,0,.426.773,9.374,9.374,0,0,0,1.859.87,8.5,8.5,0,0,1,1.749.853,2.548,2.548,0,0,1,.809.892A2.582,2.582,0,0,1,75.621,16.231Zm15.53-2.109A5.306,5.306,0,0,1,89.93,17.84a4.377,4.377,0,0,1-3.4,1.336,4.66,4.66,0,0,1-2.408-.615,4.062,4.062,0,0,1-1.608-1.767,6.017,6.017,0,0,1-.562-2.672,5.27,5.27,0,0,1,1.213-3.691A4.4,4.4,0,0,1,86.581,9.1a4.282,4.282,0,0,1,3.34,1.358A5.245,5.245,0,0,1,91.151,14.122Zm-7.075,0q0,3.366,2.487,3.366,2.461,0,2.461-3.366,0-3.331-2.479-3.331a2.113,2.113,0,0,0-1.885.861A4.383,4.383,0,0,0,84.076,14.122Zm18.369,5.054A4.7,4.7,0,0,1,98.9,17.853,5.021,5.021,0,0,1,97.62,14.21a5.509,5.509,0,0,1,1.187-3.744A4.1,4.1,0,0,1,102.067,9.1a4.006,4.006,0,0,1,3.041,1.169,4.467,4.467,0,0,1,1.116,3.217v1.116H99.747a3.193,3.193,0,0,0,.765,2.175,2.663,2.663,0,0,0,2.03.76,7.5,7.5,0,0,0,1.6-.163,8.408,8.408,0,0,0,1.6-.541v1.679a6.342,6.342,0,0,1-1.529.51A9.378,9.378,0,0,1,102.445,19.176Zm-.378-8.508a2.075,2.075,0,0,0-1.578.624,2.974,2.974,0,0,0-.708,1.819h4.412a2.691,2.691,0,0,0-.58-1.824A1.984,1.984,0,0,0,102.067,10.668ZM117.123,19h-2.074V13.023a2.616,2.616,0,0,0-.453-1.679,1.75,1.75,0,0,0-1.437-.554,2.285,2.285,0,0,0-1.916.773,4.27,4.27,0,0,0-.606,2.593V19h-2.065V9.279h1.617l.29,1.274h.105a2.876,2.876,0,0,1,1.248-1.072,4.182,4.182,0,0,1,1.793-.378q3.5,0,3.5,3.56Zm11.795.176a4.7,4.7,0,0,1-3.546-1.323,5.021,5.021,0,0,1-1.279-3.643,5.509,5.509,0,0,1,1.187-3.744A4.1,4.1,0,0,1,128.54,9.1a4.006,4.006,0,0,1,3.041,1.169,4.467,4.467,0,0,1,1.116,3.217v1.116H126.22a3.193,3.193,0,0,0,.765,2.175,2.663,2.663,0,0,0,2.03.76,7.5,7.5,0,0,0,1.6-.163,8.408,8.408,0,0,0,1.6-.541v1.679a6.342,6.342,0,0,1-1.529.51A9.378,9.378,0,0,1,128.918,19.176Zm-.378-8.508a2.075,2.075,0,0,0-1.578.624,2.974,2.974,0,0,0-.708,1.819h4.412a2.691,2.691,0,0,0-.58-1.824A1.984,1.984,0,0,0,128.54,10.668Zm-1.318-2.575v-.22q.5-.615,1.033-1.371t.839-1.292h2.4v.185a18.048,18.048,0,0,1-1.367,1.384,19.27,19.27,0,0,1-1.534,1.314Zm12.753,11.083a3.4,3.4,0,0,1-2.865-1.327h-.123q.123,1.23.123,1.494v3.981h-2.065V9.279h1.67q.07.272.29,1.3h.105a3.236,3.236,0,0,1,2.9-1.477,3.374,3.374,0,0,1,2.834,1.318,5.944,5.944,0,0,1,1.015,3.7,5.948,5.948,0,0,1-1.033,3.718A3.4,3.4,0,0,1,139.975,19.176Zm-.5-8.385a2.147,2.147,0,0,0-1.8.721,3.735,3.735,0,0,0-.567,2.3v.308a4.547,4.547,0,0,0,.563,2.571,2.092,2.092,0,0,0,1.837.8,1.865,1.865,0,0,0,1.652-.879,4.539,4.539,0,0,0,.58-2.5,4.38,4.38,0,0,0-.576-2.474A1.92,1.92,0,0,0,139.474,10.791Zm15.407,3.331a5.306,5.306,0,0,1-1.222,3.718,4.377,4.377,0,0,1-3.4,1.336,4.66,4.66,0,0,1-2.408-.615,4.062,4.062,0,0,1-1.608-1.767,6.017,6.017,0,0,1-.562-2.672,5.27,5.27,0,0,1,1.213-3.691A4.4,4.4,0,0,1,150.311,9.1a4.282,4.282,0,0,1,3.34,1.358A5.245,5.245,0,0,1,154.881,14.122Zm-7.075,0q0,3.366,2.487,3.366,2.461,0,2.461-3.366,0-3.331-2.479-3.331a2.113,2.113,0,0,0-1.885.861A4.383,4.383,0,0,0,147.806,14.122Zm13.368,5.054a4.256,4.256,0,0,1-3.353-1.288,5.38,5.38,0,0,1-1.147-3.7,5.41,5.41,0,0,1,1.2-3.771A4.45,4.45,0,0,1,161.341,9.1a6.5,6.5,0,0,1,2.769.571l-.624,1.661a6.255,6.255,0,0,0-2.162-.51q-2.522,0-2.522,3.349a4.01,4.01,0,0,0,.628,2.457,2.175,2.175,0,0,0,1.841.822,5.283,5.283,0,0,0,2.61-.686v1.8a4.079,4.079,0,0,1-1.182.466A7.093,7.093,0,0,1,161.174,19.176ZM172.248,19l-.413-1.354h-.07a3.982,3.982,0,0,1-1.415,1.208,4.475,4.475,0,0,1-1.828.321,3.094,3.094,0,0,1-2.237-.773,2.894,2.894,0,0,1-.8-2.188,2.57,2.57,0,0,1,1.116-2.268,6.436,6.436,0,0,1,3.4-.835l1.679-.053V12.54a1.965,1.965,0,0,0-.435-1.393,1.774,1.774,0,0,0-1.349-.461,4.665,4.665,0,0,0-1.433.22,10.811,10.811,0,0,0-1.318.519l-.668-1.477a7.189,7.189,0,0,1,1.731-.628A7.968,7.968,0,0,1,169.98,9.1a4.2,4.2,0,0,1,2.8.809,3.166,3.166,0,0,1,.945,2.54V19Zm-3.076-1.406a2.558,2.558,0,0,0,1.806-.628,2.278,2.278,0,0,0,.681-1.762v-.844l-1.248.053a4.27,4.27,0,0,0-2.123.488,1.482,1.482,0,0,0-.664,1.332,1.3,1.3,0,0,0,.387,1.006A1.661,1.661,0,0,0,169.172,17.594Zm13.966-1.362a2.543,2.543,0,0,1-1.037,2.184,4.966,4.966,0,0,1-2.971.76,7.017,7.017,0,0,1-3.12-.589V16.8a7.66,7.66,0,0,0,3.19.791q1.907,0,1.907-1.151a.912.912,0,0,0-.211-.615,2.5,2.5,0,0,0-.694-.51,11.949,11.949,0,0,0-1.345-.6,6.22,6.22,0,0,1-2.272-1.3,2.407,2.407,0,0,1-.593-1.687A2.216,2.216,0,0,1,177,9.793a4.776,4.776,0,0,1,2.738-.69,7.754,7.754,0,0,1,3.243.694l-.668,1.556a7.213,7.213,0,0,0-2.646-.65q-1.635,0-1.635.932a.937.937,0,0,0,.426.773,9.374,9.374,0,0,0,1.859.87,8.5,8.5,0,0,1,1.749.853,2.548,2.548,0,0,1,.809.892A2.582,2.582,0,0,1,183.138,16.231Zm10.828,2.944a4.256,4.256,0,0,1-3.353-1.288,5.38,5.38,0,0,1-1.147-3.7,5.41,5.41,0,0,1,1.2-3.771A4.45,4.45,0,0,1,194.133,9.1a6.5,6.5,0,0,1,2.769.571l-.624,1.661a6.255,6.255,0,0,0-2.162-.51q-2.522,0-2.522,3.349a4.01,4.01,0,0,0,.628,2.457,2.175,2.175,0,0,0,1.841.822,5.283,5.283,0,0,0,2.61-.686v1.8a4.079,4.079,0,0,1-1.182.466A7.093,7.093,0,0,1,193.966,19.176ZM205.04,19l-.413-1.354h-.07a3.982,3.982,0,0,1-1.415,1.208,4.475,4.475,0,0,1-1.828.321,3.094,3.094,0,0,1-2.237-.773,2.894,2.894,0,0,1-.8-2.188,2.57,2.57,0,0,1,1.116-2.268,6.436,6.436,0,0,1,3.4-.835l1.679-.053V12.54a1.965,1.965,0,0,0-.435-1.393,1.774,1.774,0,0,0-1.349-.461,4.665,4.665,0,0,0-1.433.22,10.811,10.811,0,0,0-1.318.519l-.668-1.477A7.189,7.189,0,0,1,201,9.319a7.968,7.968,0,0,1,1.775-.215,4.2,4.2,0,0,1,2.8.809,3.166,3.166,0,0,1,.945,2.54V19Zm-3.076-1.406a2.558,2.558,0,0,0,1.806-.628,2.278,2.278,0,0,0,.681-1.762v-.844l-1.248.053a4.27,4.27,0,0,0-2.123.488,1.482,1.482,0,0,0-.664,1.332,1.3,1.3,0,0,0,.387,1.006A1.661,1.661,0,0,0,201.964,17.594Zm-.633-9.5v-.22q.5-.615,1.033-1.371T203.2,5.21h2.4v.185a18.048,18.048,0,0,1-1.367,1.384A19.27,19.27,0,0,1,202.7,8.093ZM211.465,19H209.4V5.324h2.065Zm5.019,0h-2.065V9.279h2.065ZM214.295,6.7a1.144,1.144,0,0,1,.3-.853,1.182,1.182,0,0,1,.866-.3,1.156,1.156,0,0,1,.848.3,1.144,1.144,0,0,1,.3.853,1.122,1.122,0,0,1-.3.831,1.147,1.147,0,0,1-.848.3,1.171,1.171,0,0,1-.866-.3A1.122,1.122,0,0,1,214.295,6.7Zm8.42,12.472a3.386,3.386,0,0,1-2.839-1.318,5.926,5.926,0,0,1-1.02-3.7,5.945,5.945,0,0,1,1.033-3.722A3.418,3.418,0,0,1,222.75,9.1a3.351,3.351,0,0,1,2.918,1.415h.105a12.381,12.381,0,0,1-.149-1.652V5.324H227.7V19h-1.617l-.36-1.274h-.1A3.3,3.3,0,0,1,222.715,19.176Zm.554-1.67a2.248,2.248,0,0,0,1.854-.716,3.771,3.771,0,0,0,.6-2.325v-.29a4.357,4.357,0,0,0-.6-2.61,2.217,2.217,0,0,0-1.872-.773,1.9,1.9,0,0,0-1.679.883,4.527,4.527,0,0,0-.589,2.518,4.414,4.414,0,0,0,.571,2.465A1.929,1.929,0,0,0,223.269,17.506ZM236.733,19l-.413-1.354h-.07a3.982,3.982,0,0,1-1.415,1.208,4.475,4.475,0,0,1-1.828.321,3.094,3.094,0,0,1-2.237-.773,2.894,2.894,0,0,1-.8-2.188,2.57,2.57,0,0,1,1.116-2.268,6.436,6.436,0,0,1,3.4-.835l1.679-.053V12.54a1.965,1.965,0,0,0-.435-1.393,1.774,1.774,0,0,0-1.349-.461,4.665,4.665,0,0,0-1.433.22,10.811,10.811,0,0,0-1.318.519l-.668-1.477a7.189,7.189,0,0,1,1.731-.628,7.968,7.968,0,0,1,1.775-.215,4.2,4.2,0,0,1,2.8.809,3.166,3.166,0,0,1,.945,2.54V19Zm-3.076-1.406a2.558,2.558,0,0,0,1.806-.628,2.278,2.278,0,0,0,.681-1.762v-.844l-1.248.053a4.27,4.27,0,0,0-2.123.488,1.482,1.482,0,0,0-.664,1.332,1.3,1.3,0,0,0,.387,1.006A1.661,1.661,0,0,0,233.657,17.594Zm13.966-1.362a2.543,2.543,0,0,1-1.037,2.184,4.966,4.966,0,0,1-2.971.76,7.017,7.017,0,0,1-3.12-.589V16.8a7.66,7.66,0,0,0,3.19.791q1.907,0,1.907-1.151a.912.912,0,0,0-.211-.615,2.5,2.5,0,0,0-.694-.51,11.949,11.949,0,0,0-1.345-.6,6.22,6.22,0,0,1-2.272-1.3,2.407,2.407,0,0,1-.593-1.687,2.216,2.216,0,0,1,1.006-1.938,4.776,4.776,0,0,1,2.738-.69,7.754,7.754,0,0,1,3.243.694l-.668,1.556a7.213,7.213,0,0,0-2.646-.65q-1.635,0-1.635.932a.937.937,0,0,0,.426.773,9.374,9.374,0,0,0,1.859.87,8.5,8.5,0,0,1,1.749.853,2.548,2.548,0,0,1,.809.892A2.582,2.582,0,0,1,247.623,16.231Z" transform="translate(430 1227)" fill="#00223d"/>
    <path id="Trazado_17135" data-name="Trazado 17135" d="M13.017,0H9.554L3.964-9.721H3.885q.167,2.575.167,3.674V0H1.617V-12.85H5.054l5.581,9.624H10.7q-.132-2.5-.132-3.542V-12.85h2.452Z" transform="translate(856 1008)" fill="#fff"/>
    <path id="Trazado_17136" data-name="Trazado 17136" d="M4.342-6.8h.9a2.986,2.986,0,0,0,1.881-.5,1.738,1.738,0,0,0,.624-1.446A1.782,1.782,0,0,0,7.22-10.16a2.45,2.45,0,0,0-1.639-.457H4.342Zm6.152-2.039A3.927,3.927,0,0,1,9.2-5.669a5.544,5.544,0,0,1-3.687,1.1H4.342V0H1.617V-12.85h4.1a5.459,5.459,0,0,1,3.555,1.006A3.669,3.669,0,0,1,10.494-8.842Z" transform="translate(1000 1008)" fill="#fff"/>
    <path id="Trazado_17146" data-name="Trazado 17146" d="M11.953,0H8.859L5.493-5.414l-1.151.826V0H1.617V-12.85H4.342v5.88L5.414-8.481l3.48-4.368h3.023L7.436-7.163Z" transform="translate(1154 1008)" fill="#fff"/>
    <path id="Trazado_17147" data-name="Trazado 17147" d="M7.075-10.767A2.776,2.776,0,0,0,4.693-9.611,5.377,5.377,0,0,0,3.85-6.39q0,4.3,3.226,4.3a10.2,10.2,0,0,0,3.278-.677V-.483A9.1,9.1,0,0,1,6.82.176a5.389,5.389,0,0,1-4.289-1.7A7.2,7.2,0,0,1,1.046-6.407a7.973,7.973,0,0,1,.729-3.511,5.272,5.272,0,0,1,2.1-2.312,6.2,6.2,0,0,1,3.2-.8,8.646,8.646,0,0,1,3.762.905L9.958-9.914a14.549,14.549,0,0,0-1.45-.6A4.326,4.326,0,0,0,7.075-10.767ZM19.116,0,18.6-1.336h-.07A3.959,3.959,0,0,1,17.134-.154a4.5,4.5,0,0,1-1.868.33,3.02,3.02,0,0,1-2.228-.809,3.105,3.105,0,0,1-.813-2.3A2.593,2.593,0,0,1,13.32-5.243a6.341,6.341,0,0,1,3.3-.822l1.705-.053v-.431A1.336,1.336,0,0,0,16.8-8.042a6.969,6.969,0,0,0-2.769.712L13.14-9.141a7.988,7.988,0,0,1,3.762-.888,4.686,4.686,0,0,1,3.032.861,3.183,3.183,0,0,1,1.055,2.619V0Zm-.791-4.553-1.037.035a3.321,3.321,0,0,0-1.74.422,1.325,1.325,0,0,0-.571,1.178q0,1.134,1.3,1.134a2.06,2.06,0,0,0,1.49-.536,1.883,1.883,0,0,0,.558-1.424Z" transform="translate(1295 1008)" fill="#fff"/>
    <path id="Trazado_17155" data-name="Trazado 17155" d="M7.058,0,3.964-10.081H3.885q.167,3.076.167,4.1V0H1.617V-12.85H5.326L8.367-3.023H8.42l3.226-9.826h3.709V0h-2.54V-6.082q0-.431.013-.993t.119-2.988h-.079L9.554,0ZM26.93-9.826v1.362l-1.538.4a2.681,2.681,0,0,1,.422,1.477,2.981,2.981,0,0,1-1.1,2.465,4.777,4.777,0,0,1-3.063.883l-.483-.026-.4-.044a.891.891,0,0,0-.413.7q0,.58,1.477.58H23.5a3.809,3.809,0,0,1,2.465.694A2.482,2.482,0,0,1,26.815.7a3.024,3.024,0,0,1-1.437,2.672,7.484,7.484,0,0,1-4.126.949,5.713,5.713,0,0,1-3.142-.716A2.274,2.274,0,0,1,17.024,1.6,2.1,2.1,0,0,1,17.578.114,3.144,3.144,0,0,1,19.2-.738a1.794,1.794,0,0,1-.721-.576,1.368,1.368,0,0,1-.308-.848A1.374,1.374,0,0,1,18.5-3.1a3.76,3.76,0,0,1,.94-.734A2.637,2.637,0,0,1,18.215-4.9a3.263,3.263,0,0,1-.453-1.74,3.069,3.069,0,0,1,1.046-2.487,4.523,4.523,0,0,1,2.988-.879,7.648,7.648,0,0,1,.98.075q.567.075.725.11ZM19.345,1.389a.972.972,0,0,0,.532.87,2.926,2.926,0,0,0,1.49.316,5.277,5.277,0,0,0,2.259-.4A1.205,1.205,0,0,0,24.442,1.1a.765.765,0,0,0-.483-.765A3.959,3.959,0,0,0,22.465.123H21.076A2.1,2.1,0,0,0,19.841.47,1.071,1.071,0,0,0,19.345,1.389Zm.976-8a2,2,0,0,0,.365,1.266,1.325,1.325,0,0,0,1.112.466A1.3,1.3,0,0,0,22.9-5.344a2.054,2.054,0,0,0,.352-1.266q0-1.775-1.459-1.775Q20.32-8.385,20.32-6.609Z" transform="translate(1442 1008)" fill="#fff"/>
    <path id="Trazado_17134" data-name="Trazado 17134" d="M6.855,19H4.79V10.7q0-1.485.07-2.355-.2.211-.5.466T2.391,10.431L1.354,9.121,5.133,6.15H6.855Zm12.92-6.425A9.14,9.14,0,0,1,18.7,17.55a3.675,3.675,0,0,1-3.292,1.626A3.648,3.648,0,0,1,12.155,17.5a8.977,8.977,0,0,1-1.107-4.922,9.191,9.191,0,0,1,1.077-5.014,3.676,3.676,0,0,1,3.283-1.613,3.651,3.651,0,0,1,3.261,1.688A9.043,9.043,0,0,1,19.775,12.575Zm-6.636,0a9.362,9.362,0,0,0,.541,3.753,1.889,1.889,0,0,0,3.463-.018,9.243,9.243,0,0,0,.549-3.735,9.316,9.316,0,0,0-.549-3.74,1.882,1.882,0,0,0-3.463-.022A9.431,9.431,0,0,0,13.14,12.575Zm16.91,0a9.14,9.14,0,0,1-1.077,4.975,3.675,3.675,0,0,1-3.292,1.626A3.648,3.648,0,0,1,22.43,17.5a8.977,8.977,0,0,1-1.107-4.922A9.191,9.191,0,0,1,22.4,7.561a3.676,3.676,0,0,1,3.283-1.613,3.651,3.651,0,0,1,3.261,1.688A9.043,9.043,0,0,1,30.05,12.575Zm-6.636,0a9.362,9.362,0,0,0,.541,3.753,1.889,1.889,0,0,0,3.463-.018,9.243,9.243,0,0,0,.549-3.735,9.316,9.316,0,0,0-.549-3.74,1.882,1.882,0,0,0-3.463-.022A9.431,9.431,0,0,0,23.414,12.575Zm8.042,2.479V13.3h4.518v1.758ZM46.116,19h-8.71V17.436L40.72,14.1a28.184,28.184,0,0,0,1.947-2.131,5.089,5.089,0,0,0,.7-1.182,3.187,3.187,0,0,0,.22-1.187,1.809,1.809,0,0,0-.523-1.371,2,2,0,0,0-1.446-.5A3.855,3.855,0,0,0,40.188,8a6.685,6.685,0,0,0-1.6.984L37.477,7.627A7.2,7.2,0,0,1,39.56,6.344a6.1,6.1,0,0,1,2.153-.378,4.237,4.237,0,0,1,2.874.936A3.162,3.162,0,0,1,45.668,9.42a4.418,4.418,0,0,1-.312,1.652,6.715,6.715,0,0,1-.958,1.613,21.893,21.893,0,0,1-2.149,2.246l-2.232,2.162v.088h6.1Zm10.274-6.425a9.14,9.14,0,0,1-1.077,4.975,4.065,4.065,0,0,1-6.543-.053,8.977,8.977,0,0,1-1.107-4.922A9.191,9.191,0,0,1,48.74,7.561a4.069,4.069,0,0,1,6.543.075A9.043,9.043,0,0,1,56.391,12.575Zm-6.636,0a9.362,9.362,0,0,0,.541,3.753,1.889,1.889,0,0,0,3.463-.018,9.243,9.243,0,0,0,.549-3.735,9.316,9.316,0,0,0-.549-3.74A1.882,1.882,0,0,0,50.3,8.813,9.431,9.431,0,0,0,49.755,12.575Zm16.91,0a9.14,9.14,0,0,1-1.077,4.975,4.065,4.065,0,0,1-6.543-.053,8.977,8.977,0,0,1-1.107-4.922,9.191,9.191,0,0,1,1.077-5.014,4.069,4.069,0,0,1,6.543.075A9.043,9.043,0,0,1,66.665,12.575Zm-6.636,0a9.362,9.362,0,0,0,.541,3.753,1.889,1.889,0,0,0,3.463-.018,9.243,9.243,0,0,0,.549-3.735,9.316,9.316,0,0,0-.549-3.74,1.882,1.882,0,0,0-3.463-.022A9.431,9.431,0,0,0,60.029,12.575Z" transform="translate(826 1045)" fill="#00223d"/>
    <path id="Trazado_17133" data-name="Trazado 17133" d="M6.855,19H4.79V10.7q0-1.485.07-2.355-.2.211-.5.466T2.391,10.431L1.354,9.121,5.133,6.15H6.855Zm8.569-8.024A4.406,4.406,0,0,1,18.5,12a3.6,3.6,0,0,1,1.134,2.8,4.1,4.1,0,0,1-1.288,3.212,5.3,5.3,0,0,1-3.661,1.156,6.918,6.918,0,0,1-3.384-.694V16.609a6.2,6.2,0,0,0,1.635.624,7.43,7.43,0,0,0,1.714.22,3.188,3.188,0,0,0,2.127-.624A2.273,2.273,0,0,0,17.508,15q0-2.3-2.936-2.3a7.694,7.694,0,0,0-1.02.083q-.606.083-1.063.189l-.923-.545.492-6.275h6.68V7.987h-4.86l-.29,3.182q.308-.053.751-.123A7.086,7.086,0,0,1,15.425,10.976Zm14.625,1.6a9.14,9.14,0,0,1-1.077,4.975,3.675,3.675,0,0,1-3.292,1.626A3.648,3.648,0,0,1,22.43,17.5a8.977,8.977,0,0,1-1.107-4.922A9.191,9.191,0,0,1,22.4,7.561a3.676,3.676,0,0,1,3.283-1.613,3.651,3.651,0,0,1,3.261,1.688A9.043,9.043,0,0,1,30.05,12.575Zm-6.636,0a9.362,9.362,0,0,0,.541,3.753,1.889,1.889,0,0,0,3.463-.018,9.243,9.243,0,0,0,.549-3.735,9.316,9.316,0,0,0-.549-3.74,1.882,1.882,0,0,0-3.463-.022A9.431,9.431,0,0,0,23.414,12.575Zm8.042,2.479V13.3h4.518v1.758ZM43.471,19H41.405V10.7q0-1.485.07-2.355-.2.211-.5.466t-1.973,1.617l-1.037-1.31L41.748,6.15h1.723ZM52.022,5.983a4.546,4.546,0,0,1,2.892.839,2.714,2.714,0,0,1,1.063,2.246q0,1.978-2.373,3.146a6.1,6.1,0,0,1,2.149,1.591,3,3,0,0,1,.637,1.863,3.129,3.129,0,0,1-1.169,2.549,4.844,4.844,0,0,1-3.164.958,5.171,5.171,0,0,1-3.243-.9,3.032,3.032,0,0,1-1.151-2.54,3.276,3.276,0,0,1,.6-1.929,5.047,5.047,0,0,1,1.973-1.525A4.962,4.962,0,0,1,48.56,10.8a3.19,3.19,0,0,1-.5-1.758,2.651,2.651,0,0,1,1.1-2.228A4.626,4.626,0,0,1,52.022,5.983Zm-2.382,9.686a1.7,1.7,0,0,0,.642,1.419,2.739,2.739,0,0,0,1.74.505,2.679,2.679,0,0,0,1.762-.523,1.75,1.75,0,0,0,.628-1.419,1.818,1.818,0,0,0-.58-1.3,5.471,5.471,0,0,0-1.758-1.09l-.255-.114a4.523,4.523,0,0,0-1.67,1.121A2.125,2.125,0,0,0,49.641,15.669ZM52,7.574a2.177,2.177,0,0,0-1.415.435,1.441,1.441,0,0,0-.536,1.182,1.7,1.7,0,0,0,.193.817,2.133,2.133,0,0,0,.563.655,6.752,6.752,0,0,0,1.248.708,4.144,4.144,0,0,0,1.49-.98,1.8,1.8,0,0,0,.435-1.2,1.437,1.437,0,0,0-.541-1.182A2.224,2.224,0,0,0,52,7.574Zm14.66,5a9.14,9.14,0,0,1-1.077,4.975,4.065,4.065,0,0,1-6.543-.053,8.977,8.977,0,0,1-1.107-4.922,9.191,9.191,0,0,1,1.077-5.014,4.069,4.069,0,0,1,6.543.075A9.043,9.043,0,0,1,66.665,12.575Zm-6.636,0a9.362,9.362,0,0,0,.541,3.753,1.889,1.889,0,0,0,3.463-.018,9.243,9.243,0,0,0,.549-3.735,9.316,9.316,0,0,0-.549-3.74,1.882,1.882,0,0,0-3.463-.022A9.431,9.431,0,0,0,60.029,12.575Z" transform="translate(826 1109)" fill="#00223d"/>
    <path id="Trazado_17132" data-name="Trazado 17132" d="M9.5,19H.791V17.436L4.1,14.1a28.184,28.184,0,0,0,1.947-2.131,5.089,5.089,0,0,0,.7-1.182A3.187,3.187,0,0,0,6.97,9.6a1.809,1.809,0,0,0-.523-1.371A2,2,0,0,0,5,7.732,3.855,3.855,0,0,0,3.573,8a6.685,6.685,0,0,0-1.6.984L.861,7.627A7.2,7.2,0,0,1,2.944,6.344,6.1,6.1,0,0,1,5.1,5.966,4.237,4.237,0,0,1,7.972,6.9,3.162,3.162,0,0,1,9.053,9.42a4.418,4.418,0,0,1-.312,1.652,6.715,6.715,0,0,1-.958,1.613,21.893,21.893,0,0,1-2.149,2.246L3.4,17.093v.088H9.5Zm10.274-6.425A9.14,9.14,0,0,1,18.7,17.55a3.675,3.675,0,0,1-3.292,1.626A3.648,3.648,0,0,1,12.155,17.5a8.977,8.977,0,0,1-1.107-4.922,9.191,9.191,0,0,1,1.077-5.014,3.676,3.676,0,0,1,3.283-1.613,3.651,3.651,0,0,1,3.261,1.688A9.043,9.043,0,0,1,19.775,12.575Zm-6.636,0a9.362,9.362,0,0,0,.541,3.753,1.889,1.889,0,0,0,3.463-.018,9.243,9.243,0,0,0,.549-3.735,9.316,9.316,0,0,0-.549-3.74,1.882,1.882,0,0,0-3.463-.022A9.431,9.431,0,0,0,13.14,12.575Zm16.91,0a9.14,9.14,0,0,1-1.077,4.975,3.675,3.675,0,0,1-3.292,1.626A3.648,3.648,0,0,1,22.43,17.5a8.977,8.977,0,0,1-1.107-4.922A9.191,9.191,0,0,1,22.4,7.561a3.676,3.676,0,0,1,3.283-1.613,3.651,3.651,0,0,1,3.261,1.688A9.043,9.043,0,0,1,30.05,12.575Zm-6.636,0a9.362,9.362,0,0,0,.541,3.753,1.889,1.889,0,0,0,3.463-.018,9.243,9.243,0,0,0,.549-3.735,9.316,9.316,0,0,0-.549-3.74,1.882,1.882,0,0,0-3.463-.022A9.431,9.431,0,0,0,23.414,12.575Zm8.042,2.479V13.3h4.518v1.758ZM46.116,19h-8.71V17.436L40.72,14.1a28.184,28.184,0,0,0,1.947-2.131,5.089,5.089,0,0,0,.7-1.182,3.187,3.187,0,0,0,.22-1.187,1.809,1.809,0,0,0-.523-1.371,2,2,0,0,0-1.446-.5A3.855,3.855,0,0,0,40.188,8a6.685,6.685,0,0,0-1.6.984L37.477,7.627A7.2,7.2,0,0,1,39.56,6.344a6.1,6.1,0,0,1,2.153-.378,4.237,4.237,0,0,1,2.874.936A3.162,3.162,0,0,1,45.668,9.42a4.418,4.418,0,0,1-.312,1.652,6.715,6.715,0,0,1-.958,1.613,21.893,21.893,0,0,1-2.149,2.246l-2.232,2.162v.088h6.1Zm10.274,0h-8.71V17.436L50.994,14.1a28.184,28.184,0,0,0,1.947-2.131,5.089,5.089,0,0,0,.7-1.182,3.187,3.187,0,0,0,.22-1.187,1.809,1.809,0,0,0-.523-1.371,2,2,0,0,0-1.446-.5A3.855,3.855,0,0,0,50.462,8a6.685,6.685,0,0,0-1.6.984L47.751,7.627a7.2,7.2,0,0,1,2.083-1.283,6.1,6.1,0,0,1,2.153-.378,4.237,4.237,0,0,1,2.874.936A3.162,3.162,0,0,1,55.942,9.42a4.418,4.418,0,0,1-.312,1.652,6.715,6.715,0,0,1-.958,1.613,21.893,21.893,0,0,1-2.149,2.246l-2.232,2.162v.088h6.1Zm10.274-6.425a9.14,9.14,0,0,1-1.077,4.975,4.065,4.065,0,0,1-6.543-.053,8.977,8.977,0,0,1-1.107-4.922,9.191,9.191,0,0,1,1.077-5.014,4.069,4.069,0,0,1,6.543.075A9.043,9.043,0,0,1,66.665,12.575Zm-6.636,0a9.362,9.362,0,0,0,.541,3.753,1.889,1.889,0,0,0,3.463-.018,9.243,9.243,0,0,0,.549-3.735,9.316,9.316,0,0,0-.549-3.74,1.882,1.882,0,0,0-3.463-.022A9.431,9.431,0,0,0,60.029,12.575Z" transform="translate(826 1165)" fill="#00223d"/>
    <path id="Trazado_17131" data-name="Trazado 17131" d="M6.855,19H4.79V10.7q0-1.485.07-2.355-.2.211-.5.466T2.391,10.431L1.354,9.121,5.133,6.15H6.855Zm8.569-8.024A4.406,4.406,0,0,1,18.5,12a3.6,3.6,0,0,1,1.134,2.8,4.1,4.1,0,0,1-1.288,3.212,5.3,5.3,0,0,1-3.661,1.156,6.918,6.918,0,0,1-3.384-.694V16.609a6.2,6.2,0,0,0,1.635.624,7.43,7.43,0,0,0,1.714.22,3.188,3.188,0,0,0,2.127-.624A2.273,2.273,0,0,0,17.508,15q0-2.3-2.936-2.3a7.694,7.694,0,0,0-1.02.083q-.606.083-1.063.189l-.923-.545.492-6.275h6.68V7.987h-4.86l-.29,3.182q.308-.053.751-.123A7.086,7.086,0,0,1,15.425,10.976Zm14.625,1.6a9.14,9.14,0,0,1-1.077,4.975,3.675,3.675,0,0,1-3.292,1.626A3.648,3.648,0,0,1,22.43,17.5a8.977,8.977,0,0,1-1.107-4.922A9.191,9.191,0,0,1,22.4,7.561a3.676,3.676,0,0,1,3.283-1.613,3.651,3.651,0,0,1,3.261,1.688A9.043,9.043,0,0,1,30.05,12.575Zm-6.636,0a9.362,9.362,0,0,0,.541,3.753,1.889,1.889,0,0,0,3.463-.018,9.243,9.243,0,0,0,.549-3.735,9.316,9.316,0,0,0-.549-3.74,1.882,1.882,0,0,0-3.463-.022A9.431,9.431,0,0,0,23.414,12.575Zm8.042,2.479V13.3h4.518v1.758ZM43.471,19H41.405V10.7q0-1.485.07-2.355-.2.211-.5.466t-1.973,1.617l-1.037-1.31L41.748,6.15h1.723ZM52.022,5.983a4.546,4.546,0,0,1,2.892.839,2.714,2.714,0,0,1,1.063,2.246q0,1.978-2.373,3.146a6.1,6.1,0,0,1,2.149,1.591,3,3,0,0,1,.637,1.863,3.129,3.129,0,0,1-1.169,2.549,4.844,4.844,0,0,1-3.164.958,5.171,5.171,0,0,1-3.243-.9,3.032,3.032,0,0,1-1.151-2.54,3.276,3.276,0,0,1,.6-1.929,5.047,5.047,0,0,1,1.973-1.525A4.962,4.962,0,0,1,48.56,10.8a3.19,3.19,0,0,1-.5-1.758,2.651,2.651,0,0,1,1.1-2.228A4.626,4.626,0,0,1,52.022,5.983Zm-2.382,9.686a1.7,1.7,0,0,0,.642,1.419,2.739,2.739,0,0,0,1.74.505,2.679,2.679,0,0,0,1.762-.523,1.75,1.75,0,0,0,.628-1.419,1.818,1.818,0,0,0-.58-1.3,5.471,5.471,0,0,0-1.758-1.09l-.255-.114a4.523,4.523,0,0,0-1.67,1.121A2.125,2.125,0,0,0,49.641,15.669ZM52,7.574a2.177,2.177,0,0,0-1.415.435,1.441,1.441,0,0,0-.536,1.182,1.7,1.7,0,0,0,.193.817,2.133,2.133,0,0,0,.563.655,6.752,6.752,0,0,0,1.248.708,4.144,4.144,0,0,0,1.49-.98,1.8,1.8,0,0,0,.435-1.2,1.437,1.437,0,0,0-.541-1.182A2.224,2.224,0,0,0,52,7.574Zm14.66,5a9.14,9.14,0,0,1-1.077,4.975,4.065,4.065,0,0,1-6.543-.053,8.977,8.977,0,0,1-1.107-4.922,9.191,9.191,0,0,1,1.077-5.014,4.069,4.069,0,0,1,6.543.075A9.043,9.043,0,0,1,66.665,12.575Zm-6.636,0a9.362,9.362,0,0,0,.541,3.753,1.889,1.889,0,0,0,3.463-.018,9.243,9.243,0,0,0,.549-3.735,9.316,9.316,0,0,0-.549-3.74,1.882,1.882,0,0,0-3.463-.022A9.431,9.431,0,0,0,60.029,12.575Z" transform="translate(826 1227)" fill="#00223d"/>
    <path id="Trazado_17137" data-name="Trazado 17137" d="M9.958,16.2H8.227V19H6.214V16.2H.343V14.605l5.871-8.49H8.227v8.367H9.958ZM6.214,14.482V11.257q0-1.723.088-2.821h-.07a9.97,9.97,0,0,1-.773,1.406l-3.19,4.641Zm13.562-1.907A9.14,9.14,0,0,1,18.7,17.55a3.675,3.675,0,0,1-3.292,1.626A3.648,3.648,0,0,1,12.155,17.5a8.977,8.977,0,0,1-1.107-4.922,9.191,9.191,0,0,1,1.077-5.014,3.676,3.676,0,0,1,3.283-1.613,3.651,3.651,0,0,1,3.261,1.688A9.043,9.043,0,0,1,19.775,12.575Zm-6.636,0a9.362,9.362,0,0,0,.541,3.753,1.889,1.889,0,0,0,3.463-.018,9.243,9.243,0,0,0,.549-3.735,9.316,9.316,0,0,0-.549-3.74,1.882,1.882,0,0,0-3.463-.022A9.431,9.431,0,0,0,13.14,12.575Zm8.042,2.479V13.3H25.7v1.758Zm10.31-4.078A4.406,4.406,0,0,1,34.567,12a3.6,3.6,0,0,1,1.134,2.8,4.1,4.1,0,0,1-1.288,3.212,5.3,5.3,0,0,1-3.661,1.156,6.918,6.918,0,0,1-3.384-.694V16.609A6.2,6.2,0,0,0,29,17.233a7.43,7.43,0,0,0,1.714.22,3.188,3.188,0,0,0,2.127-.624A2.273,2.273,0,0,0,33.574,15q0-2.3-2.936-2.3a7.694,7.694,0,0,0-1.02.083q-.606.083-1.063.189l-.923-.545.492-6.275H34.8V7.987h-4.86l-.29,3.182q.308-.053.751-.123A7.086,7.086,0,0,1,31.491,10.976Zm14.625,1.6A9.14,9.14,0,0,1,45.04,17.55,4.065,4.065,0,0,1,38.5,17.5a8.977,8.977,0,0,1-1.107-4.922,9.191,9.191,0,0,1,1.077-5.014,4.069,4.069,0,0,1,6.543.075A9.043,9.043,0,0,1,46.116,12.575Zm-6.636,0a9.362,9.362,0,0,0,.541,3.753,1.889,1.889,0,0,0,3.463-.018,9.243,9.243,0,0,0,.549-3.735,9.316,9.316,0,0,0-.549-3.74,1.882,1.882,0,0,0-3.463-.022A9.431,9.431,0,0,0,39.48,12.575Z" transform="translate(979 1045)" fill="#00223d"/>
    <path id="Trazado_17138" data-name="Trazado 17138" d="M9.958,16.2H8.227V19H6.214V16.2H.343V14.605l5.871-8.49H8.227v8.367H9.958ZM6.214,14.482V11.257q0-1.723.088-2.821h-.07a9.97,9.97,0,0,1-.773,1.406l-3.19,4.641Zm13.562-1.907A9.14,9.14,0,0,1,18.7,17.55a3.675,3.675,0,0,1-3.292,1.626A3.648,3.648,0,0,1,12.155,17.5a8.977,8.977,0,0,1-1.107-4.922,9.191,9.191,0,0,1,1.077-5.014,3.676,3.676,0,0,1,3.283-1.613,3.651,3.651,0,0,1,3.261,1.688A9.043,9.043,0,0,1,19.775,12.575Zm-6.636,0a9.362,9.362,0,0,0,.541,3.753,1.889,1.889,0,0,0,3.463-.018,9.243,9.243,0,0,0,.549-3.735,9.316,9.316,0,0,0-.549-3.74,1.882,1.882,0,0,0-3.463-.022A9.431,9.431,0,0,0,13.14,12.575Zm8.042,2.479V13.3H25.7v1.758Zm10.31-4.078A4.406,4.406,0,0,1,34.567,12a3.6,3.6,0,0,1,1.134,2.8,4.1,4.1,0,0,1-1.288,3.212,5.3,5.3,0,0,1-3.661,1.156,6.918,6.918,0,0,1-3.384-.694V16.609A6.2,6.2,0,0,0,29,17.233a7.43,7.43,0,0,0,1.714.22,3.188,3.188,0,0,0,2.127-.624A2.273,2.273,0,0,0,33.574,15q0-2.3-2.936-2.3a7.694,7.694,0,0,0-1.02.083q-.606.083-1.063.189l-.923-.545.492-6.275H34.8V7.987h-4.86l-.29,3.182q.308-.053.751-.123A7.086,7.086,0,0,1,31.491,10.976Zm14.625,1.6A9.14,9.14,0,0,1,45.04,17.55,4.065,4.065,0,0,1,38.5,17.5a8.977,8.977,0,0,1-1.107-4.922,9.191,9.191,0,0,1,1.077-5.014,4.069,4.069,0,0,1,6.543.075A9.043,9.043,0,0,1,46.116,12.575Zm-6.636,0a9.362,9.362,0,0,0,.541,3.753,1.889,1.889,0,0,0,3.463-.018,9.243,9.243,0,0,0,.549-3.735,9.316,9.316,0,0,0-.549-3.74,1.882,1.882,0,0,0-3.463-.022A9.431,9.431,0,0,0,39.48,12.575Z" transform="translate(979 1109)" fill="#00223d"/>
    <path id="Trazado_17139" data-name="Trazado 17139" d="M9.958,16.2H8.227V19H6.214V16.2H.343V14.605l5.871-8.49H8.227v8.367H9.958ZM6.214,14.482V11.257q0-1.723.088-2.821h-.07a9.97,9.97,0,0,1-.773,1.406l-3.19,4.641Zm13.562-1.907A9.14,9.14,0,0,1,18.7,17.55a3.675,3.675,0,0,1-3.292,1.626A3.648,3.648,0,0,1,12.155,17.5a8.977,8.977,0,0,1-1.107-4.922,9.191,9.191,0,0,1,1.077-5.014,3.676,3.676,0,0,1,3.283-1.613,3.651,3.651,0,0,1,3.261,1.688A9.043,9.043,0,0,1,19.775,12.575Zm-6.636,0a9.362,9.362,0,0,0,.541,3.753,1.889,1.889,0,0,0,3.463-.018,9.243,9.243,0,0,0,.549-3.735,9.316,9.316,0,0,0-.549-3.74,1.882,1.882,0,0,0-3.463-.022A9.431,9.431,0,0,0,13.14,12.575Zm8.042,2.479V13.3H25.7v1.758Zm10.31-4.078A4.406,4.406,0,0,1,34.567,12a3.6,3.6,0,0,1,1.134,2.8,4.1,4.1,0,0,1-1.288,3.212,5.3,5.3,0,0,1-3.661,1.156,6.918,6.918,0,0,1-3.384-.694V16.609A6.2,6.2,0,0,0,29,17.233a7.43,7.43,0,0,0,1.714.22,3.188,3.188,0,0,0,2.127-.624A2.273,2.273,0,0,0,33.574,15q0-2.3-2.936-2.3a7.694,7.694,0,0,0-1.02.083q-.606.083-1.063.189l-.923-.545.492-6.275H34.8V7.987h-4.86l-.29,3.182q.308-.053.751-.123A7.086,7.086,0,0,1,31.491,10.976Zm14.625,1.6A9.14,9.14,0,0,1,45.04,17.55,4.065,4.065,0,0,1,38.5,17.5a8.977,8.977,0,0,1-1.107-4.922,9.191,9.191,0,0,1,1.077-5.014,4.069,4.069,0,0,1,6.543.075A9.043,9.043,0,0,1,46.116,12.575Zm-6.636,0a9.362,9.362,0,0,0,.541,3.753,1.889,1.889,0,0,0,3.463-.018,9.243,9.243,0,0,0,.549-3.735,9.316,9.316,0,0,0-.549-3.74,1.882,1.882,0,0,0-3.463-.022A9.431,9.431,0,0,0,39.48,12.575Z" transform="translate(979 1165)" fill="#00223d"/>
    <path id="Trazado_17140" data-name="Trazado 17140" d="M9.018,9.1a2.977,2.977,0,0,1-.712,2.035,3.583,3.583,0,0,1-2,1.094v.07a3.879,3.879,0,0,1,2.32.962A2.753,2.753,0,0,1,9.4,15.309a3.4,3.4,0,0,1-1.31,2.861,6.008,6.008,0,0,1-3.727,1.006,8.391,8.391,0,0,1-3.6-.694V16.645a8.23,8.23,0,0,0,1.731.624,7.517,7.517,0,0,0,1.758.22,3.707,3.707,0,0,0,2.232-.554,2,2,0,0,0,.738-1.714A1.631,1.631,0,0,0,6.4,13.709a5.22,5.22,0,0,0-2.566-.483H2.716V11.547H3.85q3.076,0,3.076-2.127A1.568,1.568,0,0,0,6.39,8.146,2.414,2.414,0,0,0,4.808,7.7,4.791,4.791,0,0,0,3.4,7.9a6.658,6.658,0,0,0-1.6.8L.791,7.267a6.737,6.737,0,0,1,4.1-1.3A4.883,4.883,0,0,1,7.928,6.8,2.74,2.74,0,0,1,9.018,9.1Zm6.407,1.872A4.406,4.406,0,0,1,18.5,12a3.6,3.6,0,0,1,1.134,2.8,4.1,4.1,0,0,1-1.288,3.212,5.3,5.3,0,0,1-3.661,1.156,6.918,6.918,0,0,1-3.384-.694V16.609a6.2,6.2,0,0,0,1.635.624,7.43,7.43,0,0,0,1.714.22,3.188,3.188,0,0,0,2.127-.624A2.273,2.273,0,0,0,17.508,15q0-2.3-2.936-2.3a7.694,7.694,0,0,0-1.02.083q-.606.083-1.063.189l-.923-.545.492-6.275h6.68V7.987h-4.86l-.29,3.182q.308-.053.751-.123A7.086,7.086,0,0,1,15.425,10.976Zm5.757,4.078V13.3H25.7v1.758ZM36.3,16.2H34.567V19H32.555V16.2H26.684V14.605l5.871-8.49h2.013v8.367H36.3Zm-3.744-1.714V11.257q0-1.723.088-2.821h-.07A9.97,9.97,0,0,1,31.8,9.842l-3.19,4.641Zm13.562-1.907A9.14,9.14,0,0,1,45.04,17.55,4.065,4.065,0,0,1,38.5,17.5a8.977,8.977,0,0,1-1.107-4.922,9.191,9.191,0,0,1,1.077-5.014,4.069,4.069,0,0,1,6.543.075A9.043,9.043,0,0,1,46.116,12.575Zm-6.636,0a9.362,9.362,0,0,0,.541,3.753,1.889,1.889,0,0,0,3.463-.018,9.243,9.243,0,0,0,.549-3.735,9.316,9.316,0,0,0-.549-3.74,1.882,1.882,0,0,0-3.463-.022A9.431,9.431,0,0,0,39.48,12.575Z" transform="translate(979 1227)" fill="#00223d"/>
    <path id="Trazado_17144" data-name="Trazado 17144" d="M6.855,19H4.79V10.7q0-1.485.07-2.355-.2.211-.5.466T2.391,10.431L1.354,9.121,5.133,6.15H6.855Zm8.569-8.024A4.406,4.406,0,0,1,18.5,12a3.6,3.6,0,0,1,1.134,2.8,4.1,4.1,0,0,1-1.288,3.212,5.3,5.3,0,0,1-3.661,1.156,6.918,6.918,0,0,1-3.384-.694V16.609a6.2,6.2,0,0,0,1.635.624,7.43,7.43,0,0,0,1.714.22,3.188,3.188,0,0,0,2.127-.624A2.273,2.273,0,0,0,17.508,15q0-2.3-2.936-2.3a7.694,7.694,0,0,0-1.02.083q-.606.083-1.063.189l-.923-.545.492-6.275h6.68V7.987h-4.86l-.29,3.182q.308-.053.751-.123A7.086,7.086,0,0,1,15.425,10.976Zm14.625,1.6a9.14,9.14,0,0,1-1.077,4.975,3.675,3.675,0,0,1-3.292,1.626A3.648,3.648,0,0,1,22.43,17.5a8.977,8.977,0,0,1-1.107-4.922A9.191,9.191,0,0,1,22.4,7.561a3.676,3.676,0,0,1,3.283-1.613,3.651,3.651,0,0,1,3.261,1.688A9.043,9.043,0,0,1,30.05,12.575Zm-6.636,0a9.362,9.362,0,0,0,.541,3.753,1.889,1.889,0,0,0,3.463-.018,9.243,9.243,0,0,0,.549-3.735,9.316,9.316,0,0,0-.549-3.74,1.882,1.882,0,0,0-3.463-.022A9.431,9.431,0,0,0,23.414,12.575Zm8.042,2.479V13.3h4.518v1.758ZM43.471,19H41.405V10.7q0-1.485.07-2.355-.2.211-.5.466t-1.973,1.617l-1.037-1.31L41.748,6.15h1.723ZM52.022,5.983a4.546,4.546,0,0,1,2.892.839,2.714,2.714,0,0,1,1.063,2.246q0,1.978-2.373,3.146a6.1,6.1,0,0,1,2.149,1.591,3,3,0,0,1,.637,1.863,3.129,3.129,0,0,1-1.169,2.549,4.844,4.844,0,0,1-3.164.958,5.171,5.171,0,0,1-3.243-.9,3.032,3.032,0,0,1-1.151-2.54,3.276,3.276,0,0,1,.6-1.929,5.047,5.047,0,0,1,1.973-1.525A4.962,4.962,0,0,1,48.56,10.8a3.19,3.19,0,0,1-.5-1.758,2.651,2.651,0,0,1,1.1-2.228A4.626,4.626,0,0,1,52.022,5.983Zm-2.382,9.686a1.7,1.7,0,0,0,.642,1.419,2.739,2.739,0,0,0,1.74.505,2.679,2.679,0,0,0,1.762-.523,1.75,1.75,0,0,0,.628-1.419,1.818,1.818,0,0,0-.58-1.3,5.471,5.471,0,0,0-1.758-1.09l-.255-.114a4.523,4.523,0,0,0-1.67,1.121A2.125,2.125,0,0,0,49.641,15.669ZM52,7.574a2.177,2.177,0,0,0-1.415.435,1.441,1.441,0,0,0-.536,1.182,1.7,1.7,0,0,0,.193.817,2.133,2.133,0,0,0,.563.655,6.752,6.752,0,0,0,1.248.708,4.144,4.144,0,0,0,1.49-.98,1.8,1.8,0,0,0,.435-1.2,1.437,1.437,0,0,0-.541-1.182A2.224,2.224,0,0,0,52,7.574Zm14.66,5a9.14,9.14,0,0,1-1.077,4.975,4.065,4.065,0,0,1-6.543-.053,8.977,8.977,0,0,1-1.107-4.922,9.191,9.191,0,0,1,1.077-5.014,4.069,4.069,0,0,1,6.543.075A9.043,9.043,0,0,1,66.665,12.575Zm-6.636,0a9.362,9.362,0,0,0,.541,3.753,1.889,1.889,0,0,0,3.463-.018,9.243,9.243,0,0,0,.549-3.735,9.316,9.316,0,0,0-.549-3.74,1.882,1.882,0,0,0-3.463-.022A9.431,9.431,0,0,0,60.029,12.575Z" transform="translate(1123 1045)" fill="#00223d"/>
    <path id="Trazado_17143" data-name="Trazado 17143" d="M9.5,19H.791V17.436L4.1,14.1a28.184,28.184,0,0,0,1.947-2.131,5.089,5.089,0,0,0,.7-1.182A3.187,3.187,0,0,0,6.97,9.6a1.809,1.809,0,0,0-.523-1.371A2,2,0,0,0,5,7.732,3.855,3.855,0,0,0,3.573,8a6.685,6.685,0,0,0-1.6.984L.861,7.627A7.2,7.2,0,0,1,2.944,6.344,6.1,6.1,0,0,1,5.1,5.966,4.237,4.237,0,0,1,7.972,6.9,3.162,3.162,0,0,1,9.053,9.42a4.418,4.418,0,0,1-.312,1.652,6.715,6.715,0,0,1-.958,1.613,21.893,21.893,0,0,1-2.149,2.246L3.4,17.093v.088H9.5Zm5.924-8.024A4.406,4.406,0,0,1,18.5,12a3.6,3.6,0,0,1,1.134,2.8,4.1,4.1,0,0,1-1.288,3.212,5.3,5.3,0,0,1-3.661,1.156,6.918,6.918,0,0,1-3.384-.694V16.609a6.2,6.2,0,0,0,1.635.624,7.43,7.43,0,0,0,1.714.22,3.188,3.188,0,0,0,2.127-.624A2.273,2.273,0,0,0,17.508,15q0-2.3-2.936-2.3a7.694,7.694,0,0,0-1.02.083q-.606.083-1.063.189l-.923-.545.492-6.275h6.68V7.987h-4.86l-.29,3.182q.308-.053.751-.123A7.086,7.086,0,0,1,15.425,10.976Zm14.625,1.6a9.14,9.14,0,0,1-1.077,4.975,3.675,3.675,0,0,1-3.292,1.626A3.648,3.648,0,0,1,22.43,17.5a8.977,8.977,0,0,1-1.107-4.922A9.191,9.191,0,0,1,22.4,7.561a3.676,3.676,0,0,1,3.283-1.613,3.651,3.651,0,0,1,3.261,1.688A9.043,9.043,0,0,1,30.05,12.575Zm-6.636,0a9.362,9.362,0,0,0,.541,3.753,1.889,1.889,0,0,0,3.463-.018,9.243,9.243,0,0,0,.549-3.735,9.316,9.316,0,0,0-.549-3.74,1.882,1.882,0,0,0-3.463-.022A9.431,9.431,0,0,0,23.414,12.575Zm8.042,2.479V13.3h4.518v1.758ZM45.633,9.1a2.977,2.977,0,0,1-.712,2.035,3.583,3.583,0,0,1-2,1.094v.07a3.879,3.879,0,0,1,2.32.962,2.753,2.753,0,0,1,.773,2.043,3.4,3.4,0,0,1-1.31,2.861,6.008,6.008,0,0,1-3.727,1.006,8.391,8.391,0,0,1-3.6-.694V16.645a8.23,8.23,0,0,0,1.731.624,7.517,7.517,0,0,0,1.758.22,3.707,3.707,0,0,0,2.232-.554,2,2,0,0,0,.738-1.714,1.631,1.631,0,0,0-.817-1.512,5.22,5.22,0,0,0-2.566-.483H39.331V11.547h1.134q3.076,0,3.076-2.127A1.568,1.568,0,0,0,43,8.146,2.414,2.414,0,0,0,41.423,7.7a4.791,4.791,0,0,0-1.406.207,6.658,6.658,0,0,0-1.6.8L37.406,7.267a6.737,6.737,0,0,1,4.1-1.3,4.883,4.883,0,0,1,3.032.835A2.74,2.74,0,0,1,45.633,9.1Zm6.407,1.872A4.406,4.406,0,0,1,55.116,12a3.6,3.6,0,0,1,1.134,2.8,4.1,4.1,0,0,1-1.288,3.212A5.3,5.3,0,0,1,51.3,19.176a6.918,6.918,0,0,1-3.384-.694V16.609a6.2,6.2,0,0,0,1.635.624,7.43,7.43,0,0,0,1.714.22,3.188,3.188,0,0,0,2.127-.624A2.273,2.273,0,0,0,54.123,15q0-2.3-2.936-2.3a7.694,7.694,0,0,0-1.02.083q-.606.083-1.063.189l-.923-.545.492-6.275h6.68V7.987h-4.86l-.29,3.182q.308-.053.751-.123A7.086,7.086,0,0,1,52.04,10.976Zm14.625,1.6a9.14,9.14,0,0,1-1.077,4.975,4.065,4.065,0,0,1-6.543-.053,8.977,8.977,0,0,1-1.107-4.922,9.191,9.191,0,0,1,1.077-5.014,4.069,4.069,0,0,1,6.543.075A9.043,9.043,0,0,1,66.665,12.575Zm-6.636,0a9.362,9.362,0,0,0,.541,3.753,1.889,1.889,0,0,0,3.463-.018,9.243,9.243,0,0,0,.549-3.735,9.316,9.316,0,0,0-.549-3.74,1.882,1.882,0,0,0-3.463-.022A9.431,9.431,0,0,0,60.029,12.575Z" transform="translate(1123 1109)" fill="#00223d"/>
    <path id="Trazado_17142" data-name="Trazado 17142" d="M9.018,9.1a2.977,2.977,0,0,1-.712,2.035,3.583,3.583,0,0,1-2,1.094v.07a3.879,3.879,0,0,1,2.32.962A2.753,2.753,0,0,1,9.4,15.309a3.4,3.4,0,0,1-1.31,2.861,6.008,6.008,0,0,1-3.727,1.006,8.391,8.391,0,0,1-3.6-.694V16.645a8.23,8.23,0,0,0,1.731.624,7.517,7.517,0,0,0,1.758.22,3.707,3.707,0,0,0,2.232-.554,2,2,0,0,0,.738-1.714A1.631,1.631,0,0,0,6.4,13.709a5.22,5.22,0,0,0-2.566-.483H2.716V11.547H3.85q3.076,0,3.076-2.127A1.568,1.568,0,0,0,6.39,8.146,2.414,2.414,0,0,0,4.808,7.7,4.791,4.791,0,0,0,3.4,7.9a6.658,6.658,0,0,0-1.6.8L.791,7.267a6.737,6.737,0,0,1,4.1-1.3A4.883,4.883,0,0,1,7.928,6.8,2.74,2.74,0,0,1,9.018,9.1Zm10.758,3.472A9.14,9.14,0,0,1,18.7,17.55a3.675,3.675,0,0,1-3.292,1.626A3.648,3.648,0,0,1,12.155,17.5a8.977,8.977,0,0,1-1.107-4.922,9.191,9.191,0,0,1,1.077-5.014,3.676,3.676,0,0,1,3.283-1.613,3.651,3.651,0,0,1,3.261,1.688A9.043,9.043,0,0,1,19.775,12.575Zm-6.636,0a9.362,9.362,0,0,0,.541,3.753,1.889,1.889,0,0,0,3.463-.018,9.243,9.243,0,0,0,.549-3.735,9.316,9.316,0,0,0-.549-3.74,1.882,1.882,0,0,0-3.463-.022A9.431,9.431,0,0,0,13.14,12.575Zm16.91,0a9.14,9.14,0,0,1-1.077,4.975,3.675,3.675,0,0,1-3.292,1.626A3.648,3.648,0,0,1,22.43,17.5a8.977,8.977,0,0,1-1.107-4.922A9.191,9.191,0,0,1,22.4,7.561a3.676,3.676,0,0,1,3.283-1.613,3.651,3.651,0,0,1,3.261,1.688A9.043,9.043,0,0,1,30.05,12.575Zm-6.636,0a9.362,9.362,0,0,0,.541,3.753,1.889,1.889,0,0,0,3.463-.018,9.243,9.243,0,0,0,.549-3.735,9.316,9.316,0,0,0-.549-3.74,1.882,1.882,0,0,0-3.463-.022A9.431,9.431,0,0,0,23.414,12.575Zm8.042,2.479V13.3h4.518v1.758ZM46.573,16.2H44.842V19H42.829V16.2H36.958V14.605l5.871-8.49h2.013v8.367h1.731Zm-3.744-1.714V11.257q0-1.723.088-2.821h-.07a9.97,9.97,0,0,1-.773,1.406l-3.19,4.641Zm13.562-1.907a9.14,9.14,0,0,1-1.077,4.975,4.065,4.065,0,0,1-6.543-.053,8.977,8.977,0,0,1-1.107-4.922A9.191,9.191,0,0,1,48.74,7.561a4.069,4.069,0,0,1,6.543.075A9.043,9.043,0,0,1,56.391,12.575Zm-6.636,0a9.362,9.362,0,0,0,.541,3.753,1.889,1.889,0,0,0,3.463-.018,9.243,9.243,0,0,0,.549-3.735,9.316,9.316,0,0,0-.549-3.74A1.882,1.882,0,0,0,50.3,8.813,9.431,9.431,0,0,0,49.755,12.575Zm16.91,0a9.14,9.14,0,0,1-1.077,4.975,4.065,4.065,0,0,1-6.543-.053,8.977,8.977,0,0,1-1.107-4.922,9.191,9.191,0,0,1,1.077-5.014,4.069,4.069,0,0,1,6.543.075A9.043,9.043,0,0,1,66.665,12.575Zm-6.636,0a9.362,9.362,0,0,0,.541,3.753,1.889,1.889,0,0,0,3.463-.018,9.243,9.243,0,0,0,.549-3.735,9.316,9.316,0,0,0-.549-3.74,1.882,1.882,0,0,0-3.463-.022A9.431,9.431,0,0,0,60.029,12.575Z" transform="translate(1123 1165)" fill="#00223d"/>
    <path id="Trazado_17141" data-name="Trazado 17141" d="M9.5,19H.791V17.436L4.1,14.1a28.184,28.184,0,0,0,1.947-2.131,5.089,5.089,0,0,0,.7-1.182A3.187,3.187,0,0,0,6.97,9.6a1.809,1.809,0,0,0-.523-1.371A2,2,0,0,0,5,7.732,3.855,3.855,0,0,0,3.573,8a6.685,6.685,0,0,0-1.6.984L.861,7.627A7.2,7.2,0,0,1,2.944,6.344,6.1,6.1,0,0,1,5.1,5.966,4.237,4.237,0,0,1,7.972,6.9,3.162,3.162,0,0,1,9.053,9.42a4.418,4.418,0,0,1-.312,1.652,6.715,6.715,0,0,1-.958,1.613,21.893,21.893,0,0,1-2.149,2.246L3.4,17.093v.088H9.5Zm5.924-8.024A4.406,4.406,0,0,1,18.5,12a3.6,3.6,0,0,1,1.134,2.8,4.1,4.1,0,0,1-1.288,3.212,5.3,5.3,0,0,1-3.661,1.156,6.918,6.918,0,0,1-3.384-.694V16.609a6.2,6.2,0,0,0,1.635.624,7.43,7.43,0,0,0,1.714.22,3.188,3.188,0,0,0,2.127-.624A2.273,2.273,0,0,0,17.508,15q0-2.3-2.936-2.3a7.694,7.694,0,0,0-1.02.083q-.606.083-1.063.189l-.923-.545.492-6.275h6.68V7.987h-4.86l-.29,3.182q.308-.053.751-.123A7.086,7.086,0,0,1,15.425,10.976Zm14.625,1.6a9.14,9.14,0,0,1-1.077,4.975,3.675,3.675,0,0,1-3.292,1.626A3.648,3.648,0,0,1,22.43,17.5a8.977,8.977,0,0,1-1.107-4.922A9.191,9.191,0,0,1,22.4,7.561a3.676,3.676,0,0,1,3.283-1.613,3.651,3.651,0,0,1,3.261,1.688A9.043,9.043,0,0,1,30.05,12.575Zm-6.636,0a9.362,9.362,0,0,0,.541,3.753,1.889,1.889,0,0,0,3.463-.018,9.243,9.243,0,0,0,.549-3.735,9.316,9.316,0,0,0-.549-3.74,1.882,1.882,0,0,0-3.463-.022A9.431,9.431,0,0,0,23.414,12.575Zm8.042,2.479V13.3h4.518v1.758ZM45.633,9.1a2.977,2.977,0,0,1-.712,2.035,3.583,3.583,0,0,1-2,1.094v.07a3.879,3.879,0,0,1,2.32.962,2.753,2.753,0,0,1,.773,2.043,3.4,3.4,0,0,1-1.31,2.861,6.008,6.008,0,0,1-3.727,1.006,8.391,8.391,0,0,1-3.6-.694V16.645a8.23,8.23,0,0,0,1.731.624,7.517,7.517,0,0,0,1.758.22,3.707,3.707,0,0,0,2.232-.554,2,2,0,0,0,.738-1.714,1.631,1.631,0,0,0-.817-1.512,5.22,5.22,0,0,0-2.566-.483H39.331V11.547h1.134q3.076,0,3.076-2.127A1.568,1.568,0,0,0,43,8.146,2.414,2.414,0,0,0,41.423,7.7a4.791,4.791,0,0,0-1.406.207,6.658,6.658,0,0,0-1.6.8L37.406,7.267a6.737,6.737,0,0,1,4.1-1.3,4.883,4.883,0,0,1,3.032.835A2.74,2.74,0,0,1,45.633,9.1Zm10.758,3.472a9.14,9.14,0,0,1-1.077,4.975,4.065,4.065,0,0,1-6.543-.053,8.977,8.977,0,0,1-1.107-4.922A9.191,9.191,0,0,1,48.74,7.561a4.069,4.069,0,0,1,6.543.075A9.043,9.043,0,0,1,56.391,12.575Zm-6.636,0a9.362,9.362,0,0,0,.541,3.753,1.889,1.889,0,0,0,3.463-.018,9.243,9.243,0,0,0,.549-3.735,9.316,9.316,0,0,0-.549-3.74A1.882,1.882,0,0,0,50.3,8.813,9.431,9.431,0,0,0,49.755,12.575Zm16.91,0a9.14,9.14,0,0,1-1.077,4.975,4.065,4.065,0,0,1-6.543-.053,8.977,8.977,0,0,1-1.107-4.922,9.191,9.191,0,0,1,1.077-5.014,4.069,4.069,0,0,1,6.543.075A9.043,9.043,0,0,1,66.665,12.575Zm-6.636,0a9.362,9.362,0,0,0,.541,3.753,1.889,1.889,0,0,0,3.463-.018,9.243,9.243,0,0,0,.549-3.735,9.316,9.316,0,0,0-.549-3.74,1.882,1.882,0,0,0-3.463-.022A9.431,9.431,0,0,0,60.029,12.575Z" transform="translate(1123 1224)" fill="#00223d"/>
    <path id="Trazado_17145" data-name="Trazado 17145" d="M6.855,19H4.79V10.7q0-1.485.07-2.355-.2.211-.5.466T2.391,10.431L1.354,9.121,5.133,6.15H6.855Zm12.92-6.425A9.14,9.14,0,0,1,18.7,17.55a3.675,3.675,0,0,1-3.292,1.626A3.648,3.648,0,0,1,12.155,17.5a8.977,8.977,0,0,1-1.107-4.922,9.191,9.191,0,0,1,1.077-5.014,3.676,3.676,0,0,1,3.283-1.613,3.651,3.651,0,0,1,3.261,1.688A9.043,9.043,0,0,1,19.775,12.575Zm-6.636,0a9.362,9.362,0,0,0,.541,3.753,1.889,1.889,0,0,0,3.463-.018,9.243,9.243,0,0,0,.549-3.735,9.316,9.316,0,0,0-.549-3.74,1.882,1.882,0,0,0-3.463-.022A9.431,9.431,0,0,0,13.14,12.575Zm16.91,0a9.14,9.14,0,0,1-1.077,4.975,3.675,3.675,0,0,1-3.292,1.626A3.648,3.648,0,0,1,22.43,17.5a8.977,8.977,0,0,1-1.107-4.922A9.191,9.191,0,0,1,22.4,7.561a3.676,3.676,0,0,1,3.283-1.613,3.651,3.651,0,0,1,3.261,1.688A9.043,9.043,0,0,1,30.05,12.575Zm-6.636,0a9.362,9.362,0,0,0,.541,3.753,1.889,1.889,0,0,0,3.463-.018,9.243,9.243,0,0,0,.549-3.735,9.316,9.316,0,0,0-.549-3.74,1.882,1.882,0,0,0-3.463-.022A9.431,9.431,0,0,0,23.414,12.575Zm8.042,2.479V13.3h4.518v1.758ZM43.471,19H41.405V10.7q0-1.485.07-2.355-.2.211-.5.466t-1.973,1.617l-1.037-1.31L41.748,6.15h1.723Zm12.92,0h-8.71V17.436L50.994,14.1a28.184,28.184,0,0,0,1.947-2.131,5.089,5.089,0,0,0,.7-1.182,3.187,3.187,0,0,0,.22-1.187,1.809,1.809,0,0,0-.523-1.371,2,2,0,0,0-1.446-.5A3.855,3.855,0,0,0,50.462,8a6.685,6.685,0,0,0-1.6.984L47.751,7.627a7.2,7.2,0,0,1,2.083-1.283,6.1,6.1,0,0,1,2.153-.378,4.237,4.237,0,0,1,2.874.936A3.162,3.162,0,0,1,55.942,9.42a4.418,4.418,0,0,1-.312,1.652,6.715,6.715,0,0,1-.958,1.613,21.893,21.893,0,0,1-2.149,2.246l-2.232,2.162v.088h6.1Zm10.274-6.425a9.14,9.14,0,0,1-1.077,4.975,4.065,4.065,0,0,1-6.543-.053,8.977,8.977,0,0,1-1.107-4.922,9.191,9.191,0,0,1,1.077-5.014,4.069,4.069,0,0,1,6.543.075A9.043,9.043,0,0,1,66.665,12.575Zm-6.636,0a9.362,9.362,0,0,0,.541,3.753,1.889,1.889,0,0,0,3.463-.018,9.243,9.243,0,0,0,.549-3.735,9.316,9.316,0,0,0-.549-3.74,1.882,1.882,0,0,0-3.463-.022A9.431,9.431,0,0,0,60.029,12.575Z" transform="translate(1271 1045)" fill="#00223d"/>
    <path id="Trazado_17148" data-name="Trazado 17148" d="M6.855,19H4.79V10.7q0-1.485.07-2.355-.2.211-.5.466T2.391,10.431L1.354,9.121,5.133,6.15H6.855Zm12.92-6.425A9.14,9.14,0,0,1,18.7,17.55a3.675,3.675,0,0,1-3.292,1.626A3.648,3.648,0,0,1,12.155,17.5a8.977,8.977,0,0,1-1.107-4.922,9.191,9.191,0,0,1,1.077-5.014,3.676,3.676,0,0,1,3.283-1.613,3.651,3.651,0,0,1,3.261,1.688A9.043,9.043,0,0,1,19.775,12.575Zm-6.636,0a9.362,9.362,0,0,0,.541,3.753,1.889,1.889,0,0,0,3.463-.018,9.243,9.243,0,0,0,.549-3.735,9.316,9.316,0,0,0-.549-3.74,1.882,1.882,0,0,0-3.463-.022A9.431,9.431,0,0,0,13.14,12.575Zm16.91,0a9.14,9.14,0,0,1-1.077,4.975,3.675,3.675,0,0,1-3.292,1.626A3.648,3.648,0,0,1,22.43,17.5a8.977,8.977,0,0,1-1.107-4.922A9.191,9.191,0,0,1,22.4,7.561a3.676,3.676,0,0,1,3.283-1.613,3.651,3.651,0,0,1,3.261,1.688A9.043,9.043,0,0,1,30.05,12.575Zm-6.636,0a9.362,9.362,0,0,0,.541,3.753,1.889,1.889,0,0,0,3.463-.018,9.243,9.243,0,0,0,.549-3.735,9.316,9.316,0,0,0-.549-3.74,1.882,1.882,0,0,0-3.463-.022A9.431,9.431,0,0,0,23.414,12.575Zm8.042,2.479V13.3h4.518v1.758ZM43.471,19H41.405V10.7q0-1.485.07-2.355-.2.211-.5.466t-1.973,1.617l-1.037-1.31L41.748,6.15h1.723Zm12.92,0h-8.71V17.436L50.994,14.1a28.184,28.184,0,0,0,1.947-2.131,5.089,5.089,0,0,0,.7-1.182,3.187,3.187,0,0,0,.22-1.187,1.809,1.809,0,0,0-.523-1.371,2,2,0,0,0-1.446-.5A3.855,3.855,0,0,0,50.462,8a6.685,6.685,0,0,0-1.6.984L47.751,7.627a7.2,7.2,0,0,1,2.083-1.283,6.1,6.1,0,0,1,2.153-.378,4.237,4.237,0,0,1,2.874.936A3.162,3.162,0,0,1,55.942,9.42a4.418,4.418,0,0,1-.312,1.652,6.715,6.715,0,0,1-.958,1.613,21.893,21.893,0,0,1-2.149,2.246l-2.232,2.162v.088h6.1Zm10.274-6.425a9.14,9.14,0,0,1-1.077,4.975,4.065,4.065,0,0,1-6.543-.053,8.977,8.977,0,0,1-1.107-4.922,9.191,9.191,0,0,1,1.077-5.014,4.069,4.069,0,0,1,6.543.075A9.043,9.043,0,0,1,66.665,12.575Zm-6.636,0a9.362,9.362,0,0,0,.541,3.753,1.889,1.889,0,0,0,3.463-.018,9.243,9.243,0,0,0,.549-3.735,9.316,9.316,0,0,0-.549-3.74,1.882,1.882,0,0,0-3.463-.022A9.431,9.431,0,0,0,60.029,12.575Z" transform="translate(1271 1109)" fill="#00223d"/>
    <path id="Trazado_17149" data-name="Trazado 17149" d="M6.855,19H4.79V10.7q0-1.485.07-2.355-.2.211-.5.466T2.391,10.431L1.354,9.121,5.133,6.15H6.855Zm12.92-6.425A9.14,9.14,0,0,1,18.7,17.55a3.675,3.675,0,0,1-3.292,1.626A3.648,3.648,0,0,1,12.155,17.5a8.977,8.977,0,0,1-1.107-4.922,9.191,9.191,0,0,1,1.077-5.014,3.676,3.676,0,0,1,3.283-1.613,3.651,3.651,0,0,1,3.261,1.688A9.043,9.043,0,0,1,19.775,12.575Zm-6.636,0a9.362,9.362,0,0,0,.541,3.753,1.889,1.889,0,0,0,3.463-.018,9.243,9.243,0,0,0,.549-3.735,9.316,9.316,0,0,0-.549-3.74,1.882,1.882,0,0,0-3.463-.022A9.431,9.431,0,0,0,13.14,12.575Zm16.91,0a9.14,9.14,0,0,1-1.077,4.975,3.675,3.675,0,0,1-3.292,1.626A3.648,3.648,0,0,1,22.43,17.5a8.977,8.977,0,0,1-1.107-4.922A9.191,9.191,0,0,1,22.4,7.561a3.676,3.676,0,0,1,3.283-1.613,3.651,3.651,0,0,1,3.261,1.688A9.043,9.043,0,0,1,30.05,12.575Zm-6.636,0a9.362,9.362,0,0,0,.541,3.753,1.889,1.889,0,0,0,3.463-.018,9.243,9.243,0,0,0,.549-3.735,9.316,9.316,0,0,0-.549-3.74,1.882,1.882,0,0,0-3.463-.022A9.431,9.431,0,0,0,23.414,12.575Zm8.042,2.479V13.3h4.518v1.758ZM43.471,19H41.405V10.7q0-1.485.07-2.355-.2.211-.5.466t-1.973,1.617l-1.037-1.31L41.748,6.15h1.723Zm12.92,0h-8.71V17.436L50.994,14.1a28.184,28.184,0,0,0,1.947-2.131,5.089,5.089,0,0,0,.7-1.182,3.187,3.187,0,0,0,.22-1.187,1.809,1.809,0,0,0-.523-1.371,2,2,0,0,0-1.446-.5A3.855,3.855,0,0,0,50.462,8a6.685,6.685,0,0,0-1.6.984L47.751,7.627a7.2,7.2,0,0,1,2.083-1.283,6.1,6.1,0,0,1,2.153-.378,4.237,4.237,0,0,1,2.874.936A3.162,3.162,0,0,1,55.942,9.42a4.418,4.418,0,0,1-.312,1.652,6.715,6.715,0,0,1-.958,1.613,21.893,21.893,0,0,1-2.149,2.246l-2.232,2.162v.088h6.1Zm10.274-6.425a9.14,9.14,0,0,1-1.077,4.975,4.065,4.065,0,0,1-6.543-.053,8.977,8.977,0,0,1-1.107-4.922,9.191,9.191,0,0,1,1.077-5.014,4.069,4.069,0,0,1,6.543.075A9.043,9.043,0,0,1,66.665,12.575Zm-6.636,0a9.362,9.362,0,0,0,.541,3.753,1.889,1.889,0,0,0,3.463-.018,9.243,9.243,0,0,0,.549-3.735,9.316,9.316,0,0,0-.549-3.74,1.882,1.882,0,0,0-3.463-.022A9.431,9.431,0,0,0,60.029,12.575Z" transform="translate(1271 1165)" fill="#00223d"/>
    <path id="Trazado_17150" data-name="Trazado 17150" d="M6.855,19H4.79V10.7q0-1.485.07-2.355-.2.211-.5.466T2.391,10.431L1.354,9.121,5.133,6.15H6.855Zm12.92-6.425A9.14,9.14,0,0,1,18.7,17.55a3.675,3.675,0,0,1-3.292,1.626A3.648,3.648,0,0,1,12.155,17.5a8.977,8.977,0,0,1-1.107-4.922,9.191,9.191,0,0,1,1.077-5.014,3.676,3.676,0,0,1,3.283-1.613,3.651,3.651,0,0,1,3.261,1.688A9.043,9.043,0,0,1,19.775,12.575Zm-6.636,0a9.362,9.362,0,0,0,.541,3.753,1.889,1.889,0,0,0,3.463-.018,9.243,9.243,0,0,0,.549-3.735,9.316,9.316,0,0,0-.549-3.74,1.882,1.882,0,0,0-3.463-.022A9.431,9.431,0,0,0,13.14,12.575Zm16.91,0a9.14,9.14,0,0,1-1.077,4.975,3.675,3.675,0,0,1-3.292,1.626A3.648,3.648,0,0,1,22.43,17.5a8.977,8.977,0,0,1-1.107-4.922A9.191,9.191,0,0,1,22.4,7.561a3.676,3.676,0,0,1,3.283-1.613,3.651,3.651,0,0,1,3.261,1.688A9.043,9.043,0,0,1,30.05,12.575Zm-6.636,0a9.362,9.362,0,0,0,.541,3.753,1.889,1.889,0,0,0,3.463-.018,9.243,9.243,0,0,0,.549-3.735,9.316,9.316,0,0,0-.549-3.74,1.882,1.882,0,0,0-3.463-.022A9.431,9.431,0,0,0,23.414,12.575Zm8.042,2.479V13.3h4.518v1.758ZM43.471,19H41.405V10.7q0-1.485.07-2.355-.2.211-.5.466t-1.973,1.617l-1.037-1.31L41.748,6.15h1.723Zm12.92,0h-8.71V17.436L50.994,14.1a28.184,28.184,0,0,0,1.947-2.131,5.089,5.089,0,0,0,.7-1.182,3.187,3.187,0,0,0,.22-1.187,1.809,1.809,0,0,0-.523-1.371,2,2,0,0,0-1.446-.5A3.855,3.855,0,0,0,50.462,8a6.685,6.685,0,0,0-1.6.984L47.751,7.627a7.2,7.2,0,0,1,2.083-1.283,6.1,6.1,0,0,1,2.153-.378,4.237,4.237,0,0,1,2.874.936A3.162,3.162,0,0,1,55.942,9.42a4.418,4.418,0,0,1-.312,1.652,6.715,6.715,0,0,1-.958,1.613,21.893,21.893,0,0,1-2.149,2.246l-2.232,2.162v.088h6.1Zm10.274-6.425a9.14,9.14,0,0,1-1.077,4.975,4.065,4.065,0,0,1-6.543-.053,8.977,8.977,0,0,1-1.107-4.922,9.191,9.191,0,0,1,1.077-5.014,4.069,4.069,0,0,1,6.543.075A9.043,9.043,0,0,1,66.665,12.575Zm-6.636,0a9.362,9.362,0,0,0,.541,3.753,1.889,1.889,0,0,0,3.463-.018,9.243,9.243,0,0,0,.549-3.735,9.316,9.316,0,0,0-.549-3.74,1.882,1.882,0,0,0-3.463-.022A9.431,9.431,0,0,0,60.029,12.575Z" transform="translate(1271 1224)" fill="#00223d"/>
    <path id="Trazado_17154" data-name="Trazado 17154" d="M9.958,16.2H8.227V19H6.214V16.2H.343V14.605l5.871-8.49H8.227v8.367H9.958ZM6.214,14.482V11.257q0-1.723.088-2.821h-.07a9.97,9.97,0,0,1-.773,1.406l-3.19,4.641Zm13.562-1.907A9.14,9.14,0,0,1,18.7,17.55a3.675,3.675,0,0,1-3.292,1.626A3.648,3.648,0,0,1,12.155,17.5a8.977,8.977,0,0,1-1.107-4.922,9.191,9.191,0,0,1,1.077-5.014,3.676,3.676,0,0,1,3.283-1.613,3.651,3.651,0,0,1,3.261,1.688A9.043,9.043,0,0,1,19.775,12.575Zm-6.636,0a9.362,9.362,0,0,0,.541,3.753,1.889,1.889,0,0,0,3.463-.018,9.243,9.243,0,0,0,.549-3.735,9.316,9.316,0,0,0-.549-3.74,1.882,1.882,0,0,0-3.463-.022A9.431,9.431,0,0,0,13.14,12.575Zm8.042,2.479V13.3H25.7v1.758Zm10.31-4.078A4.406,4.406,0,0,1,34.567,12a3.6,3.6,0,0,1,1.134,2.8,4.1,4.1,0,0,1-1.288,3.212,5.3,5.3,0,0,1-3.661,1.156,6.918,6.918,0,0,1-3.384-.694V16.609A6.2,6.2,0,0,0,29,17.233a7.43,7.43,0,0,0,1.714.22,3.188,3.188,0,0,0,2.127-.624A2.273,2.273,0,0,0,33.574,15q0-2.3-2.936-2.3a7.694,7.694,0,0,0-1.02.083q-.606.083-1.063.189l-.923-.545.492-6.275H34.8V7.987h-4.86l-.29,3.182q.308-.053.751-.123A7.086,7.086,0,0,1,31.491,10.976Zm14.625,1.6A9.14,9.14,0,0,1,45.04,17.55,4.065,4.065,0,0,1,38.5,17.5a8.977,8.977,0,0,1-1.107-4.922,9.191,9.191,0,0,1,1.077-5.014,4.069,4.069,0,0,1,6.543.075A9.043,9.043,0,0,1,46.116,12.575Zm-6.636,0a9.362,9.362,0,0,0,.541,3.753,1.889,1.889,0,0,0,3.463-.018,9.243,9.243,0,0,0,.549-3.735,9.316,9.316,0,0,0-.549-3.74,1.882,1.882,0,0,0-3.463-.022A9.431,9.431,0,0,0,39.48,12.575Z" transform="translate(1431 1045)" fill="#00223d"/>
    <path id="Trazado_17153" data-name="Trazado 17153" d="M9.958,16.2H8.227V19H6.214V16.2H.343V14.605l5.871-8.49H8.227v8.367H9.958ZM6.214,14.482V11.257q0-1.723.088-2.821h-.07a9.97,9.97,0,0,1-.773,1.406l-3.19,4.641Zm13.562-1.907A9.14,9.14,0,0,1,18.7,17.55a3.675,3.675,0,0,1-3.292,1.626A3.648,3.648,0,0,1,12.155,17.5a8.977,8.977,0,0,1-1.107-4.922,9.191,9.191,0,0,1,1.077-5.014,3.676,3.676,0,0,1,3.283-1.613,3.651,3.651,0,0,1,3.261,1.688A9.043,9.043,0,0,1,19.775,12.575Zm-6.636,0a9.362,9.362,0,0,0,.541,3.753,1.889,1.889,0,0,0,3.463-.018,9.243,9.243,0,0,0,.549-3.735,9.316,9.316,0,0,0-.549-3.74,1.882,1.882,0,0,0-3.463-.022A9.431,9.431,0,0,0,13.14,12.575Zm8.042,2.479V13.3H25.7v1.758Zm10.31-4.078A4.406,4.406,0,0,1,34.567,12a3.6,3.6,0,0,1,1.134,2.8,4.1,4.1,0,0,1-1.288,3.212,5.3,5.3,0,0,1-3.661,1.156,6.918,6.918,0,0,1-3.384-.694V16.609A6.2,6.2,0,0,0,29,17.233a7.43,7.43,0,0,0,1.714.22,3.188,3.188,0,0,0,2.127-.624A2.273,2.273,0,0,0,33.574,15q0-2.3-2.936-2.3a7.694,7.694,0,0,0-1.02.083q-.606.083-1.063.189l-.923-.545.492-6.275H34.8V7.987h-4.86l-.29,3.182q.308-.053.751-.123A7.086,7.086,0,0,1,31.491,10.976Zm14.625,1.6A9.14,9.14,0,0,1,45.04,17.55,4.065,4.065,0,0,1,38.5,17.5a8.977,8.977,0,0,1-1.107-4.922,9.191,9.191,0,0,1,1.077-5.014,4.069,4.069,0,0,1,6.543.075A9.043,9.043,0,0,1,46.116,12.575Zm-6.636,0a9.362,9.362,0,0,0,.541,3.753,1.889,1.889,0,0,0,3.463-.018,9.243,9.243,0,0,0,.549-3.735,9.316,9.316,0,0,0-.549-3.74,1.882,1.882,0,0,0-3.463-.022A9.431,9.431,0,0,0,39.48,12.575Z" transform="translate(1431 1109)" fill="#00223d"/>
    <path id="Trazado_17152" data-name="Trazado 17152" d="M5.15,10.976A4.406,4.406,0,0,1,8.227,12a3.6,3.6,0,0,1,1.134,2.8A4.1,4.1,0,0,1,8.073,18.02a5.3,5.3,0,0,1-3.661,1.156,6.918,6.918,0,0,1-3.384-.694V16.609a6.2,6.2,0,0,0,1.635.624,7.43,7.43,0,0,0,1.714.22A3.188,3.188,0,0,0,6.5,16.829,2.273,2.273,0,0,0,7.233,15q0-2.3-2.936-2.3a7.694,7.694,0,0,0-1.02.083q-.606.083-1.063.189l-.923-.545L1.784,6.15h6.68V7.987H3.6l-.29,3.182q.308-.053.751-.123A7.086,7.086,0,0,1,5.15,10.976Zm14.625,1.6A9.14,9.14,0,0,1,18.7,17.55a3.675,3.675,0,0,1-3.292,1.626A3.648,3.648,0,0,1,12.155,17.5a8.977,8.977,0,0,1-1.107-4.922,9.191,9.191,0,0,1,1.077-5.014,3.676,3.676,0,0,1,3.283-1.613,3.651,3.651,0,0,1,3.261,1.688A9.043,9.043,0,0,1,19.775,12.575Zm-6.636,0a9.362,9.362,0,0,0,.541,3.753,1.889,1.889,0,0,0,3.463-.018,9.243,9.243,0,0,0,.549-3.735,9.316,9.316,0,0,0-.549-3.74,1.882,1.882,0,0,0-3.463-.022A9.431,9.431,0,0,0,13.14,12.575Zm8.042,2.479V13.3H25.7v1.758Zm5.985-1.529q0-7.541,6.144-7.541a7.621,7.621,0,0,1,1.635.149V7.855A5.581,5.581,0,0,0,33.4,7.662,4.052,4.052,0,0,0,30.3,8.77a5.378,5.378,0,0,0-1.125,3.551h.105a2.827,2.827,0,0,1,1.16-1.1,3.74,3.74,0,0,1,1.758-.391A3.5,3.5,0,0,1,34.919,11.9a4.159,4.159,0,0,1,.976,2.909A4.414,4.414,0,0,1,34.765,18a4.075,4.075,0,0,1-3.081,1.173,4.3,4.3,0,0,1-2.4-.664,4.237,4.237,0,0,1-1.569-1.934A7.669,7.669,0,0,1,27.167,13.524Zm4.482,3.946a2.021,2.021,0,0,0,1.639-.686,2.968,2.968,0,0,0,.576-1.96,2.594,2.594,0,0,0-.541-1.74,2.015,2.015,0,0,0-1.622-.633,2.678,2.678,0,0,0-1.23.286,2.26,2.26,0,0,0-.888.782,1.833,1.833,0,0,0-.325,1.015,3.255,3.255,0,0,0,.672,2.087A2.1,2.1,0,0,0,31.649,17.471Zm14.467-4.9A9.14,9.14,0,0,1,45.04,17.55,4.065,4.065,0,0,1,38.5,17.5a8.977,8.977,0,0,1-1.107-4.922,9.191,9.191,0,0,1,1.077-5.014,4.069,4.069,0,0,1,6.543.075A9.043,9.043,0,0,1,46.116,12.575Zm-6.636,0a9.362,9.362,0,0,0,.541,3.753,1.889,1.889,0,0,0,3.463-.018,9.243,9.243,0,0,0,.549-3.735,9.316,9.316,0,0,0-.549-3.74,1.882,1.882,0,0,0-3.463-.022A9.431,9.431,0,0,0,39.48,12.575Z" transform="translate(1431 1166)" fill="#00223d"/>
    <path id="Trazado_17151" data-name="Trazado 17151" d="M9.958,16.2H8.227V19H6.214V16.2H.343V14.605l5.871-8.49H8.227v8.367H9.958ZM6.214,14.482V11.257q0-1.723.088-2.821h-.07a9.97,9.97,0,0,1-.773,1.406l-3.19,4.641Zm13.562-1.907A9.14,9.14,0,0,1,18.7,17.55a3.675,3.675,0,0,1-3.292,1.626A3.648,3.648,0,0,1,12.155,17.5a8.977,8.977,0,0,1-1.107-4.922,9.191,9.191,0,0,1,1.077-5.014,3.676,3.676,0,0,1,3.283-1.613,3.651,3.651,0,0,1,3.261,1.688A9.043,9.043,0,0,1,19.775,12.575Zm-6.636,0a9.362,9.362,0,0,0,.541,3.753,1.889,1.889,0,0,0,3.463-.018,9.243,9.243,0,0,0,.549-3.735,9.316,9.316,0,0,0-.549-3.74,1.882,1.882,0,0,0-3.463-.022A9.431,9.431,0,0,0,13.14,12.575Zm8.042,2.479V13.3H25.7v1.758Zm10.31-4.078A4.406,4.406,0,0,1,34.567,12a3.6,3.6,0,0,1,1.134,2.8,4.1,4.1,0,0,1-1.288,3.212,5.3,5.3,0,0,1-3.661,1.156,6.918,6.918,0,0,1-3.384-.694V16.609A6.2,6.2,0,0,0,29,17.233a7.43,7.43,0,0,0,1.714.22,3.188,3.188,0,0,0,2.127-.624A2.273,2.273,0,0,0,33.574,15q0-2.3-2.936-2.3a7.694,7.694,0,0,0-1.02.083q-.606.083-1.063.189l-.923-.545.492-6.275H34.8V7.987h-4.86l-.29,3.182q.308-.053.751-.123A7.086,7.086,0,0,1,31.491,10.976Zm14.625,1.6A9.14,9.14,0,0,1,45.04,17.55,4.065,4.065,0,0,1,38.5,17.5a8.977,8.977,0,0,1-1.107-4.922,9.191,9.191,0,0,1,1.077-5.014,4.069,4.069,0,0,1,6.543.075A9.043,9.043,0,0,1,46.116,12.575Zm-6.636,0a9.362,9.362,0,0,0,.541,3.753,1.889,1.889,0,0,0,3.463-.018,9.243,9.243,0,0,0,.549-3.735,9.316,9.316,0,0,0-.549-3.74,1.882,1.882,0,0,0-3.463-.022A9.431,9.431,0,0,0,39.48,12.575Z" transform="translate(1431 1225)" fill="#00223d"/>
  </g>
</svg>
