<?xml version="1.0" encoding="utf-8"?>
<!-- Generator: Adobe Illustrator 22.0.1, SVG Export Plug-In . SVG Version: 6.00 Build 0)  -->
<svg version="1.1" id="Capa_1" xmlns="http://www.w3.org/2000/svg" xmlns:xlink="http://www.w3.org/1999/xlink" x="0px" y="0px"
	 viewBox="0 0 1139.7 555.1" style="enable-background:new 0 0 1139.7 555.1;" xml:space="preserve">
<style type="text/css">
	.st0{fill:#E5B000;}
	.st1{fill:#009CDC;}
	.st2{fill:#ADADAD;}
	.st3{fill:#B9B9B9;}
	.st4{fill:#FFA700;}
	.st5{fill:#1897D7;}
	.st6{fill:none;stroke:#A3A3A3;stroke-width:3;}
	.st7{fill:none;stroke:#FFFFFF;stroke-width:2;stroke-dasharray:6;}
	.st8{fill:#555555;}
	.st9{fill:#262626;}
	.st10{fill:#FFFFFF;}
</style>
<g id="Grupo_8798" transform="translate(-390.348 -751.122)">
	<g id="Grupo_8598" transform="translate(506.992 829.807)">
		<g id="Grupo_8596" transform="translate(0 0)">
			<path id="Trazado_16517" class="st0" d="M0,414.7h603.8c-97-48.3-165.9-154.9-207.3-275.7c-10.3-30.1-20-51-28.8-74.9
				S339.2,17.8,319.8,7c-23-12.8-50.6-7-72.4,8.5s-32.9,39.7-48,64.8c-30.2,50.3-45.6,105.9-76.8,155.2
				c-31.1,49-74,92.7-122.6,107.9V414.7z"/>
		</g>
		<g id="Grupo_8597" transform="translate(0.108 225.814)">
			<path id="Trazado_16518" class="st1" d="M0,188.9h1022.9c-84.7-10.7-169.4-26.9-247-58c-54.5-21.8-94.8-78.1-144.8-105.5
				C573.8-5.9,507.6-3.9,441.1,8.1c-37.2,6.7-66,25.9-91.6,36.7c-51.4,21.7-92.6,45.6-145.8,66.9C150.8,132.8,82.8,151.6,0,158.2
				L0,188.9z"/>
		</g>
	</g>
	<g id="Grupo_8599" transform="translate(505.233 751.122)">
		<rect id="Rectángulo_1994" x="0" y="0" class="st2" width="3.5" height="555.1"/>
	</g>
	<g id="Grupo_8600" transform="translate(439.835 1242.764)">
		<rect id="Rectángulo_1995" x="0" y="0" class="st3" width="1090.2" height="3.5"/>
	</g>
	<path id="Trazado_16982" class="st4" d="M535.5,834h3.9v-13.6h5.4v-3.2h-14.6v3.2h5.4V834z M550.7,830.9V827h7.8v-3h-7.8v-3.6h8.8
		v-3.1h-12.7V834h13v-3.1H550.7z M581.9,834l0-16.8h-3.2l-6.2,10.4l-6.3-10.4H563V834h3.6v-9.9l4.9,8.1h1.8l4.9-8.3l0,10.1H581.9z
		 M593.1,817.2h-7.3V834h3.9v-4.6h3.4c4.5,0,7.3-2.3,7.3-6.1C600.4,819.5,597.6,817.2,593.1,817.2z M592.9,826.2h-3.2v-5.8h3.2
		c2.4,0,3.6,1.1,3.6,2.9C596.5,825.1,595.3,826.2,592.9,826.2z M607.1,830.9V827h7.8v-3h-7.8v-3.6h8.8v-3.1h-12.7V834h13v-3.1H607.1
		z M634.2,834l-3.8-5.4c2.2-0.9,3.5-3,3.5-5.3c0-3.8-2.8-6.1-7.3-6.1h-7.3V834h3.9v-4.7h3.6l3.2,4.7H634.2z M629.9,823.3
		c0,1.8-1.2,2.9-3.6,2.9h-3.2v-5.9h3.2C628.7,820.4,629.9,821.4,629.9,823.3z M649.5,834h4.1l-7.5-16.8h-3.8l-7.5,16.8h4l1.5-3.6
		h7.8L649.5,834z M641.5,827.4l2.7-6.4l2.7,6.4H641.5z M658,834h3.9v-13.6h5.4v-3.2h-14.6v3.2h5.4V834z M676.5,834.3
		c4.8,0,7.6-2.7,7.6-7.7v-9.4h-3.8v9.3c0,3.2-1.4,4.5-3.7,4.5c-2.4,0-3.7-1.3-3.7-4.5v-9.3h-3.9v9.4
		C668.9,831.6,671.7,834.3,676.5,834.3z M702.8,834l-3.8-5.4c2.2-0.9,3.5-3,3.5-5.3c0-3.8-2.8-6.1-7.3-6.1h-7.3V834h3.9v-4.7h3.6
		l3.2,4.7H702.8z M698.6,823.3c0,1.8-1.2,2.9-3.6,2.9h-3.2v-5.9h3.2C697.4,820.4,698.6,821.4,698.6,823.3z M718.1,834h4.1l-7.5-16.8
		h-3.8l-7.5,16.8h4l1.5-3.6h7.8L718.1,834z M710.1,827.4l2.7-6.4l2.7,6.4H710.1z"/>
	<path id="Trazado_16984" class="st5" d="M390.3,1178.2v3.1h3.4v13.7h3.9v-16.8H390.3z M407.7,1195.3c4.2,0,7.2-3.1,7.2-8.7
		c0-5.5-3-8.7-7.2-8.7c-4.1,0-7.2,3.1-7.2,8.7C400.5,1192.1,403.6,1195.3,407.7,1195.3z M407.7,1192c-1.9,0-3.3-1.6-3.3-5.4
		c0-3.8,1.3-5.4,3.3-5.4c1.9,0,3.3,1.6,3.3,5.4C411,1190.4,409.7,1192,407.7,1192z M421.1,1184.9c2.6,0,4.5-1.7,4.5-4
		c0-2.3-1.9-4-4.5-4c-2.6,0-4.6,1.7-4.6,4C416.6,1183.3,418.5,1184.9,421.1,1184.9z M421.1,1183c-1,0.1-1.9-0.7-2-1.8
		c0-0.1,0-0.1,0-0.2c-0.1-1,0.7-1.9,1.8-2c0.1,0,0.2,0,0.2,0c1-0.1,1.9,0.7,2,1.7c0,0.1,0,0.2,0,0.2c0.1,1-0.7,1.9-1.8,2
		C421.3,1183,421.2,1183,421.1,1183z M436.3,1195.3c2.7,0.1,5.2-1,6.9-3l-2.5-2.3c-1,1.3-2.6,2-4.2,2c-2.8,0.1-5.2-2.1-5.4-4.9
		c0-0.2,0-0.3,0-0.5c-0.1-2.8,2.1-5.3,4.9-5.4c0.2,0,0.3,0,0.5,0c1.6,0,3.2,0.7,4.2,2l2.5-2.3c-1.7-2-4.3-3.1-6.9-3
		c-5.2,0-9.1,3.6-9.1,8.7S431.1,1195.3,436.3,1195.3z"/>
	<path id="Trazado_16519" class="st6" d="M507,1190.2h-37.9"/>
	<path id="Trazado_16520" class="st6" d="M507,1117.2h-37.9"/>
	<path id="Trazado_16521" class="st6" d="M507,1044.2h-37.9"/>
	<path id="Trazado_16522" class="st6" d="M509,971.2h-37.9"/>
	<path id="Trazado_16523" class="st6" d="M509,898.2h-37.9"/>
	<path id="Trazado_16524" class="st6" d="M509,825.2h-37.9"/>
	<path id="Trazado_16983" class="st4" d="M390.9,817.2v5.9h3.5v-2.7h5.6l-6,13.6h4.2l6.2-14.3v-2.5H390.9z M412.8,834.3
		c4.2,0,7.2-3.1,7.2-8.7c0-5.5-3-8.7-7.2-8.7c-4.1,0-7.2,3.1-7.2,8.7C405.6,831.1,408.7,834.3,412.8,834.3z M412.8,831
		c-1.9,0-3.3-1.6-3.3-5.4c0-3.8,1.3-5.4,3.3-5.4c1.9,0,3.3,1.6,3.3,5.4C416.1,829.4,414.8,831,412.8,831z M426.2,823.9
		c2.6,0,4.5-1.7,4.5-4c0-2.3-1.9-4-4.5-4c-2.6,0-4.6,1.7-4.6,4C421.7,822.3,423.6,823.9,426.2,823.9z M426.2,822
		c-1,0.1-1.9-0.7-2-1.8c0-0.1,0-0.1,0-0.2c-0.1-1,0.7-1.9,1.8-2c0.1,0,0.2,0,0.2,0c1-0.1,1.9,0.7,2,1.7c0,0.1,0,0.2,0,0.2
		c0.1,1-0.7,1.9-1.8,2C426.4,822,426.3,822,426.2,822z M441.4,834.3c2.7,0.1,5.2-1,6.9-3l-2.5-2.3c-1,1.3-2.6,2-4.2,2
		c-2.8,0.1-5.2-2.1-5.4-4.9c0-0.2,0-0.3,0-0.5c-0.1-2.8,2.1-5.3,4.9-5.4c0.2,0,0.3,0,0.5,0c1.6,0,3.2,0.7,4.2,2l2.5-2.3
		c-1.7-2-4.3-3.1-6.9-3c-5.2,0-9.1,3.6-9.1,8.7C432.3,830.7,436.2,834.3,441.4,834.3z"/>
	<path id="Trazado_16525" class="st7" d="M669,1242.8V996.4"/>
	<path id="Trazado_16985" class="st8" d="M976.7,1295h3.9v-13.6h5.4v-3.2h-14.6v3.2h5.4V1295z M988.1,1295h3.9v-16.8h-3.9V1295z
		 M999.8,1291.9v-3.9h7.8v-3h-7.8v-3.6h8.8v-3.1h-12.7v16.8h13v-3.1H999.8z M1031,1295l0-16.8h-3.2l-6.2,10.4l-6.3-10.4h-3.2v16.8
		h3.6v-9.9l4.9,8.1h1.8l4.9-8.3l0,10.1H1031z M1042.2,1278.2h-7.3v16.8h3.9v-4.6h3.4c4.5,0,7.3-2.3,7.3-6.1
		C1049.5,1280.5,1046.7,1278.2,1042.2,1278.2z M1042,1287.2h-3.2v-5.8h3.2c2.4,0,3.6,1.1,3.6,2.9
		C1045.6,1286.1,1044.4,1287.2,1042,1287.2z M1060.6,1295.3c5.3,0,9.2-3.7,9.2-8.7s-3.9-8.7-9.2-8.7c-5.3,0-9.2,3.7-9.2,8.7
		C1051.5,1291.6,1055.3,1295.3,1060.6,1295.3z M1060.6,1292c-2.8,0.1-5.2-2.2-5.3-5c0-0.1,0-0.3,0-0.4c-0.1-2.8,2-5.2,4.9-5.4
		c0.1,0,0.3,0,0.4,0c2.8-0.1,5.2,2.2,5.3,5c0,0.1,0,0.3,0,0.4c0.1,2.8-2,5.2-4.9,5.4C1060.9,1292,1060.8,1292,1060.6,1292z"/>
	<path id="Trazado_16526" class="st7" d="M829,1242.8V840"/>
	<path id="Trazado_16979" class="st9" d="M582.4,1149.6v-2.6h-10.6v14h3.2v-5.1h6.5v-2.6H575v-3.7H582.4z M588.4,1150.1
		c-1.6,0-3.3,0.4-4.6,1.3l1.1,2.2c0.9-0.7,2-1,3.1-1c1.7,0,2.5,0.8,2.5,2.1H588c-3.3,0-4.6,1.3-4.6,3.2c0,1.9,1.5,3.3,4,3.3
		c1.3,0.1,2.5-0.4,3.3-1.5v1.3h2.9v-6.1C593.6,1151.6,591.7,1150.1,588.4,1150.1z M588.2,1159.1c-1.1,0-1.8-0.5-1.8-1.3
		c0-0.7,0.5-1.3,1.9-1.3h2.1v1.1C590.1,1158.5,589.2,1159.1,588.2,1159.1z M600,1161.2c3.2,0,5.1-1.4,5.1-3.4c0-4.2-6.5-2.5-6.5-4.3
		c0-0.6,0.6-1,2-1c1.1,0,2.2,0.3,3.1,0.8l1-2.2c-1.3-0.6-2.7-1-4.1-0.9c-3.1,0-5,1.4-5,3.5c0,4.3,6.5,2.5,6.5,4.3c0,0.6-0.5,1-2,1
		c-1.3,0-2.6-0.4-3.7-1l-1,2.2C596.8,1160.8,598.4,1161.2,600,1161.2z M617.6,1155.7c0.1-2.9-2.1-5.4-5.1-5.6c-0.2,0-0.4,0-0.5,0
		c-3-0.1-5.6,2.2-5.7,5.2c0,0.1,0,0.2,0,0.3c0,3.2,2.4,5.5,6.1,5.5c1.7,0.1,3.3-0.5,4.4-1.7l-1.7-1.8c-0.7,0.7-1.7,1.1-2.7,1
		c-1.4,0.1-2.7-0.8-3.1-2.2h8.1C617.5,1156.2,617.6,1155.9,617.6,1155.7z M612,1152.4c1.3-0.1,2.5,0.9,2.6,2.2h-5.3
		C609.5,1153.3,610.6,1152.4,612,1152.4z M583.5,1179.7c0.1-2.9-2.1-5.4-5.1-5.6c-0.2,0-0.4,0-0.5,0c-3-0.1-5.6,2.2-5.7,5.2
		c0,0.1,0,0.2,0,0.3c0,3.2,2.4,5.5,6.1,5.5c1.7,0.1,3.3-0.5,4.4-1.7l-1.7-1.8c-0.7,0.7-1.7,1.1-2.7,1c-1.4,0.1-2.7-0.8-3.1-2.2h8.1
		C583.5,1180.2,583.5,1179.9,583.5,1179.7z M577.9,1176.4c1.3-0.1,2.5,0.9,2.6,2.2h-5.3C575.4,1177.3,576.6,1176.4,577.9,1176.4z
		 M589.2,1185.2c3.2,0,5.1-1.4,5.1-3.4c0-4.2-6.5-2.5-6.5-4.3c0-0.6,0.6-1,2-1c1.1,0,2.2,0.3,3.1,0.8l1-2.2c-1.3-0.6-2.7-1-4.1-0.9
		c-3.1,0-5,1.4-5,3.5c0,4.3,6.5,2.5,6.5,4.3c0,0.6-0.5,1-2,1c-1.3,0-2.6-0.4-3.7-1l-1,2.2C586,1184.8,587.6,1185.2,589.2,1185.2z
		 M599.5,1172.9h2.4l3.6-2.9h-3.4L599.5,1172.9z M601.3,1185.2c3.4,0,5.9-2.3,5.9-5.5s-2.5-5.5-5.9-5.5s-5.9,2.3-5.9,5.5
		S597.9,1185.2,601.3,1185.2z M601.3,1182.6c-1.5,0-2.7-1.2-2.8-2.7c0-0.1,0-0.2,0-0.3c-0.1-1.5,1-2.8,2.5-3c0.1,0,0.2,0,0.3,0
		c1.5,0,2.7,1.2,2.8,2.7c0,0.1,0,0.2,0,0.3c0.1,1.5-0.9,2.8-2.4,3C601.5,1182.6,601.4,1182.6,601.3,1182.6z M620.2,1172.7
		c1,0.1,1.9-0.7,1.9-1.6c0-0.1,0-0.1,0-0.2c0-1-0.8-1.7-1.8-1.7c0,0-0.1,0-0.1,0c-1-0.1-1.8,0.6-1.9,1.6c-0.1,1,0.6,1.8,1.6,1.9
		C620,1172.8,620.1,1172.8,620.2,1172.7z M614.1,1172.5c0.4,0,0.9,0.1,1.3,0.4l0.8-2.3c-0.7-0.4-1.5-0.6-2.4-0.6
		c-2.7,0-4.2,1.6-4.2,4v0.5H608v2.4h1.7v8.1h3.1v-8.1h2.7v-2.4h-2.8v-0.5C612.7,1173,613.2,1172.5,614.1,1172.5z M618.6,1185h3.1
		v-10.8h-3.1V1185z M624.7,1185h3.1v-14.8h-3.1V1185z M635,1174.1c-1.6,0-3.3,0.4-4.6,1.3l1.1,2.2c0.9-0.7,2-1,3.1-1
		c1.7,0,2.5,0.8,2.5,2.1h-2.5c-3.3,0-4.6,1.3-4.6,3.2c0,1.9,1.5,3.3,4,3.3c1.3,0.1,2.5-0.4,3.3-1.5v1.3h2.9v-6.1
		C640.2,1175.6,638.3,1174.1,635,1174.1z M634.8,1183.1c-1.1,0-1.8-0.5-1.8-1.3c0-0.7,0.5-1.3,1.9-1.3h2.1v1.1
		C636.7,1182.5,635.8,1183.1,634.8,1183.1z M566.5,1174.1c-1.5,0-2.9,0.6-3.9,1.8c-0.8-1.2-2.1-1.8-3.5-1.8
		c-1.3-0.1-2.5,0.5-3.4,1.4v-1.2h-3v10.8h3.1v-5.4c0-1.9,1-2.8,2.4-2.8c1.3,0,2,0.8,2,2.5v5.7h3.1v-5.4c0-1.9,1-2.8,2.4-2.8
		c1.3,0,2,0.8,2,2.5v5.7h3.1v-6.2C570.9,1175.6,569,1174.1,566.5,1174.1z"/>
	<path id="Trazado_16978" class="st9" d="M731.4,1079.6v-2.6h-10.6v14h3.2v-5.1h6.5v-2.6H724v-3.7H731.4z M737.4,1080.1
		c-1.6,0-3.3,0.4-4.6,1.3l1.1,2.2c0.9-0.7,2-1,3.1-1c1.7,0,2.5,0.8,2.5,2.1H737c-3.3,0-4.6,1.3-4.6,3.2c0,1.9,1.5,3.3,4,3.3
		c1.3,0.1,2.5-0.4,3.3-1.5v1.3h2.9v-6.1C742.6,1081.6,740.7,1080.1,737.4,1080.1z M737.2,1089.1c-1.1,0-1.8-0.5-1.8-1.3
		c0-0.7,0.5-1.3,1.9-1.3h2.1v1.1C739.1,1088.5,738.2,1089.1,737.2,1089.1z M749,1091.2c3.2,0,5.1-1.4,5.1-3.4c0-4.2-6.5-2.5-6.5-4.3
		c0-0.6,0.6-1,2-1c1.1,0,2.2,0.3,3.1,0.8l1-2.2c-1.3-0.6-2.7-1-4.1-0.9c-3.1,0-5,1.4-5,3.5c0,4.3,6.5,2.5,6.5,4.3c0,0.6-0.5,1-2,1
		c-1.3,0-2.6-0.4-3.7-1l-1,2.2C745.8,1090.8,747.4,1091.2,749,1091.2z M766.6,1085.7c0.1-2.9-2.1-5.4-5.1-5.6c-0.2,0-0.4,0-0.5,0
		c-3-0.1-5.6,2.2-5.7,5.2c0,0.1,0,0.2,0,0.3c0,3.2,2.4,5.5,6.1,5.5c1.7,0.1,3.3-0.5,4.4-1.7l-1.7-1.8c-0.7,0.7-1.7,1.1-2.7,1
		c-1.4,0.1-2.7-0.8-3.1-2.2h8.1C766.5,1086.2,766.6,1085.9,766.6,1085.7z M761,1082.4c1.3-0.1,2.5,0.9,2.6,2.2h-5.3
		C758.5,1083.3,759.6,1082.4,761,1082.4z M719.1,1109.7c0.1-2.9-2.1-5.4-5.1-5.6c-0.2,0-0.4,0-0.5,0c-3-0.1-5.6,2.2-5.7,5.2
		c0,0.1,0,0.2,0,0.3c0,3.2,2.4,5.5,6.1,5.5c1.7,0.1,3.3-0.5,4.4-1.7l-1.7-1.8c-0.7,0.7-1.7,1.1-2.7,1c-1.4,0.1-2.7-0.8-3.1-2.2h8.1
		C719,1110.2,719.1,1109.9,719.1,1109.7z M713.5,1106.4c1.3-0.1,2.5,0.9,2.6,2.2h-5.3C711,1107.3,712.2,1106.4,713.5,1106.4z
		 M724.1,1105.7v-1.4h-3v10.8h3.1v-5.1c0-2.1,1.1-3,2.9-3c0.2,0,0.4,0,0.7,0v-2.9C726.4,1104,725,1104.6,724.1,1105.7z
		 M743.5,1104.1c-1.5,0-2.9,0.6-3.9,1.8c-0.8-1.2-2.1-1.8-3.5-1.8c-1.3-0.1-2.5,0.5-3.4,1.4v-1.2h-3v10.8h3.1v-5.4
		c0-1.9,1-2.8,2.4-2.8c1.3,0,2,0.8,2,2.5v5.7h3.1v-5.4c0-1.9,1-2.8,2.4-2.8c1.3,0,2,0.8,2,2.5v5.7h3.1v-6.2
		C747.9,1105.6,746,1104.1,743.5,1104.1z M754,1102.9h2.4l3.6-2.9h-3.4L754,1102.9z M755.9,1115.2c3.4,0,5.9-2.3,5.9-5.5
		s-2.5-5.5-5.9-5.5c-3.4,0-5.9,2.3-5.9,5.5S752.5,1115.2,755.9,1115.2z M755.9,1112.6c-1.5,0-2.7-1.2-2.8-2.7c0-0.1,0-0.2,0-0.3
		c-0.1-1.5,1-2.8,2.5-3c1.5-0.1,2.8,1,3,2.5c0,0.1,0,0.3,0,0.4c0.1,1.5-0.9,2.8-2.4,3C756.1,1112.6,756,1112.6,755.9,1112.6z
		 M774.8,1102.7c1,0.1,1.9-0.7,1.9-1.6c0-0.1,0-0.1,0-0.2c0-1-0.8-1.7-1.8-1.7c0,0-0.1,0-0.1,0c-1-0.1-1.8,0.6-1.9,1.6
		c-0.1,1,0.6,1.8,1.6,1.9C774.5,1102.8,774.7,1102.8,774.8,1102.7z M768.7,1102.5c0.4,0,0.9,0.1,1.3,0.4l0.8-2.3
		c-0.7-0.4-1.5-0.6-2.4-0.6c-2.7,0-4.2,1.6-4.2,4v0.5h-1.7v2.4h1.7v8.1h3.1v-8.1h2.7v-2.4h-2.8v-0.5
		C767.3,1103,767.8,1102.5,768.7,1102.5z M773.2,1115h3.1v-10.8h-3.1V1115z M779.2,1115h3.1v-14.8h-3.1V1115z M789.6,1104.1
		c-1.6,0-3.3,0.4-4.6,1.3l1.1,2.2c0.9-0.7,2-1,3.1-1c1.7,0,2.5,0.8,2.5,2.1h-2.5c-3.3,0-4.6,1.3-4.6,3.2c0,1.9,1.5,3.3,4,3.3
		c1.3,0.1,2.5-0.4,3.3-1.5v1.3h2.9v-6.1C794.8,1105.6,792.9,1104.1,789.6,1104.1z M789.4,1113.1c-1.1,0-1.8-0.5-1.8-1.3
		c0-0.7,0.5-1.3,1.9-1.3h2.1v1.1C791.3,1112.5,790.4,1113.1,789.4,1113.1z"/>
	<path id="Trazado_16527" class="st7" d="M1016,1242.8v-183.4"/>
	<path id="Trazado_16980" class="st10" d="M889.4,1149.6v-2.6h-10.6v14h3.2v-5.1h6.5v-2.6H882v-3.7H889.4z M895.4,1150.1
		c-1.6,0-3.3,0.4-4.6,1.3l1.1,2.2c0.9-0.7,2-1,3.1-1c1.7,0,2.5,0.8,2.5,2.1H895c-3.3,0-4.6,1.3-4.6,3.2c0,1.9,1.5,3.3,4,3.3
		c1.3,0.1,2.5-0.4,3.3-1.5v1.3h2.9v-6.1C900.6,1151.6,898.7,1150.1,895.4,1150.1z M895.2,1159.1c-1.1,0-1.8-0.5-1.8-1.3
		c0-0.7,0.5-1.3,1.9-1.3h2.1v1.1C897.1,1158.5,896.2,1159.1,895.2,1159.1z M907,1161.2c3.2,0,5.1-1.4,5.1-3.4c0-4.2-6.5-2.5-6.5-4.3
		c0-0.6,0.6-1,2-1c1.1,0,2.2,0.3,3.1,0.8l1-2.2c-1.3-0.6-2.7-1-4.1-0.9c-3.1,0-5,1.4-5,3.5c0,4.3,6.5,2.5,6.5,4.3c0,0.6-0.5,1-2,1
		c-1.3,0-2.6-0.4-3.7-1l-1,2.2C903.8,1160.8,905.4,1161.2,907,1161.2z M924.6,1155.7c0.1-2.9-2.1-5.4-5.1-5.6c-0.2,0-0.4,0-0.5,0
		c-3-0.1-5.6,2.2-5.7,5.2c0,0.1,0,0.2,0,0.3c0,3.2,2.4,5.5,6.1,5.5c1.7,0.1,3.3-0.5,4.4-1.7l-1.7-1.8c-0.7,0.7-1.7,1.1-2.7,1
		c-1.4,0.1-2.7-0.8-3.1-2.2h8.1C924.5,1156.2,924.6,1155.9,924.6,1155.7z M919,1152.4c1.3-0.1,2.5,0.9,2.6,2.2h-5.3
		C916.5,1153.3,917.6,1152.4,919,1152.4z M856.2,1174.1c-1.3-0.1-2.6,0.5-3.6,1.4v-1.3h-3v10.8h3.1v-5.3c0-2,1.1-2.9,2.6-2.9
		c1.4,0,2.2,0.8,2.2,2.5v5.7h3.1v-6.2C860.7,1175.6,858.8,1174.1,856.2,1174.1z M866.9,1174c0-1.1,0.5-1.6,1.4-1.6
		c0.4,0,0.9,0.1,1.3,0.4l0.8-2.3c-0.7-0.4-1.5-0.6-2.4-0.6c-2.7,0-4.2,1.6-4.2,4v0.5h-1.7v2.4h1.7v8.1h3.1v-8.1h2.7v-2.4h-2.8
		L866.9,1174z M875.8,1175.7v-1.4h-3v10.8h3.1v-5.1c0-2.1,1.1-3,2.9-3c0.2,0,0.4,0,0.7,0v-2.9C878.1,1174,876.7,1174.6,875.8,1175.7
		z M882.9,1172.7c1,0.1,1.9-0.7,1.9-1.6c0-0.1,0-0.1,0-0.2c0-1-0.8-1.7-1.8-1.7c0,0-0.1,0-0.1,0c-1-0.1-1.8,0.6-1.9,1.6
		c0,0,0,0.1,0,0.1c0,1,0.8,1.8,1.8,1.7C882.8,1172.7,882.9,1172.7,882.9,1172.7z M881.4,1185h3.1v-10.8h-3.1V1185z M891.7,1174.1
		c-1.6,0-3.3,0.4-4.6,1.3l1.1,2.2c0.9-0.7,2-1,3.1-1c1.7,0,2.5,0.8,2.5,2.1h-2.5c-3.3,0-4.6,1.3-4.6,3.2c0,1.9,1.5,3.3,4,3.3
		c1.3,0.1,2.5-0.4,3.3-1.5v1.3h2.9v-6.1C896.9,1175.6,895,1174.1,891.7,1174.1z M891.5,1183.1c-1.1,0-1.8-0.5-1.8-1.3
		c0-0.7,0.5-1.3,1.9-1.3h2.1v1.1C893.4,1182.5,892.5,1183.1,891.5,1183.1z M913.5,1174.1c-1.5,0-2.9,0.6-3.9,1.8
		c-0.8-1.2-2.1-1.8-3.5-1.8c-1.3-0.1-2.5,0.5-3.4,1.4v-1.2h-3v10.8h3.1v-5.4c0-1.9,1-2.8,2.4-2.8c1.3,0,2,0.8,2,2.5v5.7h3.1v-5.4
		c0-1.9,1-2.8,2.4-2.8c1.3,0,2,0.8,2,2.5v5.7h3.1v-6.2C917.9,1175.6,916.1,1174.1,913.5,1174.1z M922.3,1172.7
		c1,0.1,1.9-0.7,1.9-1.6c0-0.1,0-0.1,0-0.2c0-1-0.8-1.7-1.8-1.7c0,0-0.1,0-0.1,0c-1-0.1-1.8,0.6-1.9,1.6c-0.1,1,0.6,1.8,1.6,1.9
		C922,1172.8,922.1,1172.8,922.3,1172.7z M920.7,1185h3.1v-10.8h-3.1V1185z M937.3,1179.7c0.1-2.9-2.1-5.4-5.1-5.6
		c-0.2,0-0.4,0-0.5,0c-3-0.1-5.6,2.2-5.7,5.2c0,0.1,0,0.2,0,0.3c0,3.2,2.4,5.5,6.1,5.5c1.7,0.1,3.3-0.5,4.4-1.7l-1.7-1.8
		c-0.7,0.7-1.7,1.1-2.7,1c-1.4,0.1-2.7-0.8-3.1-2.2h8.1C937.2,1180.2,937.3,1179.9,937.3,1179.7z M931.7,1176.4
		c1.3-0.1,2.5,0.9,2.6,2.2H929C929.2,1177.3,930.4,1176.4,931.7,1176.4z M945.9,1174.1c-1.3-0.1-2.6,0.5-3.6,1.4v-1.3h-3v10.8h3.1
		v-5.3c0-2,1.1-2.9,2.6-2.9c1.4,0,2.2,0.8,2.2,2.5v5.7h3.1v-6.2C950.3,1175.6,948.4,1174.1,945.9,1174.1z M959.3,1182.3
		c-0.4,0.3-0.8,0.4-1.3,0.4c-0.7,0.1-1.3-0.5-1.3-1.2c0-0.1,0-0.2,0-0.3v-4.4h2.7v-2.4h-2.7v-2.6h-3.1v2.6h-1.7v2.4h1.7v4.4
		c0,2.6,1.5,3.9,4,3.9c0.9,0,1.8-0.2,2.5-0.7L959.3,1182.3z M966.7,1185.2c3.4,0,5.9-2.3,5.9-5.5s-2.5-5.5-5.9-5.5
		c-3.4,0-5.9,2.3-5.9,5.5S963.2,1185.2,966.7,1185.2z M966.7,1182.6c-1.5,0-2.7-1.2-2.8-2.7c0-0.1,0-0.2,0-0.3c-0.1-1.5,1-2.8,2.5-3
		c1.5-0.1,2.8,1,3,2.5c0,0.1,0,0.3,0,0.4c0.1,1.5-0.9,2.8-2.4,3C966.9,1182.6,966.8,1182.6,966.7,1182.6z M847.3,1179.7
		c0.1-2.9-2.1-5.4-5.1-5.6c-0.2,0-0.4,0-0.5,0c-3-0.1-5.6,2.2-5.7,5.2c0,0.1,0,0.2,0,0.3c0,3.2,2.4,5.5,6.1,5.5
		c1.7,0.1,3.3-0.5,4.4-1.7l-1.7-1.8c-0.7,0.7-1.7,1.1-2.7,1c-1.4,0.1-2.7-0.8-3.1-2.2h8.1C847.2,1180.2,847.3,1179.9,847.3,1179.7z
		 M841.7,1176.4c1.3-0.1,2.5,0.9,2.6,2.2H839C839.2,1177.3,840.4,1176.4,841.7,1176.4z"/>
	<path id="Trazado_16981" class="st10" d="M1108.4,1149.6v-2.6h-10.6v14h3.2v-5.1h6.5v-2.6h-6.5v-3.7H1108.4z M1114.4,1150.1
		c-1.6,0-3.3,0.4-4.6,1.3l1.1,2.2c0.9-0.7,2-1,3.1-1c1.7,0,2.5,0.8,2.5,2.1h-2.5c-3.3,0-4.6,1.3-4.6,3.2c0,1.9,1.5,3.3,4,3.3
		c1.3,0.1,2.5-0.4,3.3-1.5v1.3h2.9v-6.1C1119.6,1151.6,1117.7,1150.1,1114.4,1150.1z M1114.2,1159.1c-1.1,0-1.8-0.5-1.8-1.3
		c0-0.7,0.5-1.3,1.9-1.3h2.1v1.1C1116.1,1158.5,1115.2,1159.1,1114.2,1159.1z M1126,1161.2c3.2,0,5.1-1.4,5.1-3.4
		c0-4.2-6.5-2.5-6.5-4.3c0-0.6,0.6-1,2-1c1.1,0,2.2,0.3,3.1,0.8l1-2.2c-1.3-0.6-2.7-1-4.1-0.9c-3.1,0-5,1.4-5,3.5
		c0,4.3,6.5,2.5,6.5,4.3c0,0.6-0.5,1-2,1c-1.3,0-2.6-0.4-3.7-1l-1,2.2C1122.8,1160.8,1124.4,1161.2,1126,1161.2z M1143.6,1155.7
		c0.1-2.9-2.1-5.4-5.1-5.6c-0.2,0-0.4,0-0.5,0c-3-0.1-5.6,2.2-5.7,5.2c0,0.1,0,0.2,0,0.3c0,3.2,2.4,5.5,6.1,5.5
		c1.7,0.1,3.3-0.5,4.4-1.7l-1.7-1.8c-0.7,0.7-1.7,1.1-2.7,1c-1.4,0.1-2.7-0.8-3.1-2.2h8.1
		C1143.5,1156.2,1143.6,1155.9,1143.6,1155.7z M1138,1152.4c1.3-0.1,2.5,0.9,2.6,2.2h-5.3C1135.5,1153.3,1136.6,1152.4,1138,1152.4z
		 M1071.7,1179.7c0.1-2.9-2.1-5.4-5.1-5.6c-0.2,0-0.4,0-0.5,0c-3-0.1-5.6,2.2-5.7,5.2c0,0.1,0,0.2,0,0.3c0,3.2,2.4,5.5,6.1,5.5
		c1.7,0.1,3.3-0.5,4.4-1.7l-1.7-1.8c-0.7,0.7-1.7,1.1-2.7,1c-1.4,0.1-2.7-0.8-3.1-2.2h8.1
		C1071.6,1180.2,1071.7,1179.9,1071.7,1179.7z M1066.1,1176.4c1.3-0.1,2.5,0.9,2.6,2.2h-5.3
		C1063.6,1177.3,1064.8,1176.4,1066.1,1176.4z M1095.4,1185l0-14h-2.7l-5.2,8.7l-5.2-8.7h-2.7v14h3v-8.2l4.1,6.7h1.5l4.1-6.9l0,8.4
		H1095.4z M1102.9,1174.1c-1.6,0-3.3,0.4-4.6,1.3l1.1,2.2c0.9-0.7,2-1,3.1-1c1.7,0,2.5,0.8,2.5,2.1h-2.5c-3.3,0-4.6,1.3-4.6,3.2
		c0,1.9,1.5,3.3,4,3.3c1.3,0.1,2.5-0.4,3.3-1.5v1.3h2.9v-6.1C1108,1175.6,1106.1,1174.1,1102.9,1174.1z M1102.6,1183.1
		c-1.1,0-1.8-0.5-1.8-1.3c0-0.7,0.5-1.3,1.9-1.3h2.1v1.1C1104.6,1182.5,1103.6,1183.1,1102.6,1183.1z M1118.8,1170.2v5.2
		c-0.8-0.9-2-1.4-3.2-1.3c-2.9-0.1-5.3,2.2-5.4,5.1c0,0.2,0,0.3,0,0.5c-0.2,2.9,2,5.4,4.9,5.5c0.2,0,0.3,0,0.5,0
		c1.3,0.1,2.5-0.4,3.4-1.4v1.2h3v-14.8H1118.8z M1116.1,1182.6c-1.5,0-2.7-1.2-2.8-2.7c0-0.1,0-0.2,0-0.3c-0.1-1.5,1-2.8,2.5-3
		c0.1,0,0.2,0,0.3,0c1.5,0,2.7,1.2,2.8,2.7c0,0.1,0,0.2,0,0.3c0.1,1.5-1,2.8-2.5,3C1116.3,1182.6,1116.2,1182.6,1116.1,1182.6z
		 M1132.5,1174.2v5.3c0,2-1,2.9-2.5,2.9c-1.4,0-2.2-0.8-2.2-2.6v-5.6h-3.1v6.1c0,3.3,1.9,4.8,4.6,4.8c1.3,0,2.5-0.5,3.3-1.4v1.3h3
		v-10.8H1132.5z M1141.5,1175.7v-1.4h-3v10.8h3.1v-5.1c0-2.1,1.1-3,2.9-3c0.2,0,0.4,0,0.7,0v-2.9
		C1143.8,1174,1142.4,1174.6,1141.5,1175.7z M1151.4,1174.1c-1.6,0-3.3,0.4-4.6,1.3l1.1,2.2c0.9-0.7,2-1,3.1-1
		c1.7,0,2.5,0.8,2.5,2.1h-2.5c-3.3,0-4.6,1.3-4.6,3.2c0,1.9,1.5,3.3,4,3.3c1.3,0.1,2.5-0.4,3.3-1.5v1.3h2.9v-6.1
		C1156.6,1175.6,1154.7,1174.1,1151.4,1174.1z M1151.1,1183.1c-1.1,0-1.8-0.5-1.8-1.3c0-0.7,0.5-1.3,1.9-1.3h2.1v1.1
		C1153.1,1182.5,1152.1,1183.1,1151.1,1183.1z M1164.7,1185.2c2,0.1,3.9-0.9,4.8-2.7l-2.4-1.3c-0.5,0.9-1.4,1.5-2.4,1.5
		c-1.5,0-2.8-1.2-2.8-2.7c0-0.1,0-0.2,0-0.3c-0.1-1.5,1-2.8,2.5-3c0.1,0,0.2,0,0.3,0c1,0,2,0.6,2.4,1.5l2.4-1.3
		c-0.9-1.8-2.8-2.9-4.8-2.7c-3.5,0-6,2.3-6,5.5S1161.2,1185.2,1164.7,1185.2z M1172.9,1172.7c1,0.1,1.9-0.7,1.9-1.6
		c0-0.1,0-0.1,0-0.2c0-1-0.8-1.7-1.8-1.7c0,0-0.1,0-0.1,0c-1-0.1-1.8,0.6-1.9,1.6c-0.1,1,0.6,1.8,1.6,1.9
		C1172.6,1172.8,1172.8,1172.8,1172.9,1172.7z M1171.3,1185h3.1v-10.8h-3.1V1185z M1180.6,1172.9h2.4l3.6-2.9h-3.4L1180.6,1172.9z
		 M1182.5,1185.2c3.4,0,5.9-2.3,5.9-5.5s-2.5-5.5-5.9-5.5c-3.4,0-5.9,2.3-5.9,5.5S1179,1185.2,1182.5,1185.2z M1182.5,1182.6
		c-1.5,0-2.7-1.2-2.8-2.7c0-0.1,0-0.2,0-0.3c-0.1-1.5,1-2.8,2.5-3s2.8,1,3,2.5c0,0.1,0,0.3,0,0.4c0.1,1.5-0.9,2.8-2.4,3
		C1182.7,1182.6,1182.6,1182.6,1182.5,1182.6z M1197,1174.1c-1.3-0.1-2.6,0.5-3.6,1.4v-1.3h-3v10.8h3.1v-5.3c0-2,1.1-2.9,2.6-2.9
		c1.4,0,2.2,0.8,2.2,2.5v5.7h3.1v-6.2C1201.4,1175.6,1199.5,1174.1,1197,1174.1z M1054.8,1170.2v5.2c-0.8-0.9-2-1.4-3.2-1.3
		c-2.9-0.1-5.3,2.2-5.4,5.1c0,0.2,0,0.3,0,0.5c-0.2,2.9,2,5.4,4.9,5.5c0.2,0,0.3,0,0.5,0c1.3,0.1,2.5-0.4,3.4-1.4v1.2h3v-14.8
		H1054.8z M1052.1,1182.6c-1.5,0-2.7-1.2-2.8-2.7c0-0.1,0-0.2,0-0.3c-0.1-1.5,1-2.8,2.5-3c0.1,0,0.2,0,0.3,0c1.5,0,2.7,1.2,2.8,2.7
		c0,0.1,0,0.2,0,0.3c0.1,1.5-1,2.8-2.5,3C1052.3,1182.6,1052.2,1182.6,1052.1,1182.6z"/>
	<path id="Trazado_16528" class="st7" d="M1246,1242.8v-123.2"/>
</g>
<path class="st9" d="M315.9,361.2c-0.4,0.3-0.8,0.4-1.3,0.4c-0.7,0.1-1.3-0.5-1.3-1.2c0-0.1,0-0.2,0-0.3v-4.4h2.7v-2.4h-2.7v-2.6
	h-3.1v2.6h-1.7v2.4h1.7v4.4c0,2.6,1.5,3.9,4,3.9c0.9,0,1.8-0.2,2.5-0.7L315.9,361.2z"/>
</svg>
