<?xml version="1.0" encoding="utf-8"?>
<!-- Generator: Adobe Illustrator 22.0.1, SVG Export Plug-In . SVG Version: 6.00 Build 0)  -->
<svg version="1.1" id="Capa_1" xmlns="http://www.w3.org/2000/svg" xmlns:xlink="http://www.w3.org/1999/xlink" x="0px" y="0px"
	 viewBox="0 0 808 1297" style="enable-background:new 0 0 808 1297;" xml:space="preserve">
<style type="text/css">
	.st0{fill:none;}
	.st1{fill:none;stroke:#70AD54;stroke-width:3;}
	.st2{fill:none;stroke:#FDAC29;stroke-width:3;}
	.st3{fill:#70AD54;}
	.st4{fill:#FFFFFF;}
	.st5{fill:#FDAC29;}
</style>
<g id="Grupo_8797" transform="translate(-556 -4979)">
	
		<image style="overflow:visible;enable-background:new    ;" width="1001" height="985" id="compost2" xlink:href="4D73644168F7300B.jpeg"  transform="matrix(0.7992 0 0 0.7992 558.0032 4976.9966)">
	</image>
	<g id="Elipse_569" transform="translate(604 4999)">
		<circle class="st0" cx="361" cy="361" r="363"/>
		<circle class="st1" cx="361" cy="361" r="361.5"/>
	</g>
	<g id="Elipse_570" transform="translate(615 5010)">
		<circle class="st0" cx="350" cy="350" r="352"/>
		<circle class="st2" cx="350" cy="350" r="350.5"/>
	</g>
	<path id="Rectángulo_1971" class="st3" d="M742,5654h432c2.2,0,4,1.8,4,4v72c0,2.2-1.8,4-4,4H742c-2.2,0-4-1.8-4-4v-72
		C738,5655.8,739.8,5654,742,5654z"/>
	<path id="Trazado_16971" class="st4" d="M791.9,5700l-3.8-5.4c2.2-0.9,3.5-3,3.5-5.3c0-3.8-2.8-6.1-7.3-6.1H777v16.8h3.9v-4.7h3.6
		l3.2,4.7H791.9z M787.7,5689.3c0,1.8-1.2,2.9-3.6,2.9H781v-5.9h3.2C786.5,5686.4,787.7,5687.4,787.7,5689.3z M796.3,5685.3
		c1.2,0.1,2.2-0.8,2.3-2c0-0.1,0-0.1,0-0.2c0-1.2-1-2.1-2.2-2c-0.1,0-0.1,0-0.2,0c-1.2-0.1-2.2,0.8-2.3,1.9v0.1c0,1.2,1,2.1,2.2,2.1
		C796.2,5685.3,796.3,5685.3,796.3,5685.3L796.3,5685.3z M794.4,5700h3.7v-12.9h-3.7V5700z M807.9,5700.2c2.7,0,4.8-1.2,5.8-3.3
		l-2.9-1.6c-0.5,1.1-1.7,1.8-2.9,1.8c-1.8,0.1-3.3-1.4-3.4-3.2c0-0.1,0-0.2,0-0.4c-0.2-1.8,1.2-3.4,3-3.6c0.1,0,0.2,0,0.4,0
		c1.2,0,2.4,0.7,2.9,1.8l2.9-1.6c-0.9-2.1-3.1-3.3-5.8-3.3c-4.2,0-7.2,2.8-7.2,6.6S803.7,5700.2,807.9,5700.2z M821.8,5700.2
		c4.1,0,7.1-2.8,7.1-6.6s-3-6.6-7.1-6.6s-7.1,2.8-7.1,6.6S817.7,5700.2,821.8,5700.2L821.8,5700.2z M821.8,5697.1
		c-1.8,0-3.3-1.4-3.3-3.2c0-0.1,0-0.2,0-0.4c-0.2-1.8,1.2-3.4,3-3.6c0.1,0,0.2,0,0.4,0c1.8,0,3.3,1.4,3.3,3.2c0,0.1,0,0.2,0,0.4
		c0.2,1.8-1.1,3.4-2.9,3.6C822.1,5697.1,821.9,5697.1,821.8,5697.1L821.8,5697.1z M835.7,5700.2c3.9,0,6.1-1.7,6.1-4.1
		c0-5.1-7.8-3-7.8-5.2c0-0.7,0.7-1.2,2.4-1.2c1.3,0,2.6,0.3,3.7,1l1.2-2.7c-1.5-0.8-3.2-1.2-5-1.1c-3.8,0-6,1.7-6,4.2
		c0,5.2,7.8,3,7.8,5.1c0,0.7-0.6,1.2-2.4,1.2c-1.6,0-3.1-0.4-4.5-1.3l-1.2,2.7C831.9,5699.7,833.8,5700.2,835.7,5700.2L835.7,5700.2
		z M863.6,5693.6c0.2-3.5-2.5-6.5-6.1-6.7c-0.2,0-0.4,0-0.7,0c-3.6-0.2-6.7,2.6-6.9,6.3c0,0.1,0,0.3,0,0.4c0,3.8,2.9,6.6,7.4,6.6
		c2,0.1,4-0.6,5.3-2.1l-2-2.2c-0.9,0.8-2,1.3-3.2,1.2c-1.7,0.2-3.3-0.9-3.7-2.6h9.8C863.5,5694.3,863.6,5693.9,863.6,5693.6
		L863.6,5693.6z M856.9,5689.7c1.6-0.1,3,1.1,3.2,2.7h-6.4C853.9,5690.8,855.3,5689.6,856.9,5689.7L856.9,5689.7z M873.9,5686.9
		c-1.6-0.1-3.2,0.6-4.3,1.7v-1.5H866v12.9h3.7v-6.4c0-2.4,1.3-3.5,3.1-3.5c1.7,0,2.6,1,2.6,3v6.8h3.7v-7.4
		C879.3,5688.7,877,5686.9,873.9,5686.9L873.9,5686.9z M893.8,5700.2c3.9,0,6.1-1.7,6.1-4.1c0-5.1-7.8-3-7.8-5.2
		c0-0.7,0.7-1.2,2.4-1.2c1.3,0,2.6,0.3,3.7,1l1.2-2.7c-1.5-0.8-3.2-1.2-5-1.1c-3.8,0-6,1.7-6,4.2c0,5.2,7.8,3,7.8,5.1
		c0,0.7-0.6,1.2-2.4,1.2c-1.6,0-3.1-0.4-4.5-1.2l-1.3,2.7C889.9,5699.7,891.8,5700.2,893.8,5700.2z M911.5,5687.1v6.4
		c0,2.4-1.2,3.5-3,3.5c-1.7,0-2.6-1-2.6-3.1v-6.7h-3.7v7.3c0,4,2.3,5.8,5.5,5.8c1.5,0,3-0.6,4-1.7v1.5h3.6v-12.9L911.5,5687.1z
		 M923,5700.2c3.9,0,6.1-1.7,6.1-4.1c0-5.1-7.8-3-7.8-5.2c0-0.7,0.7-1.2,2.4-1.2c1.3,0,2.6,0.3,3.7,1l1.2-2.7
		c-1.5-0.8-3.2-1.2-5-1.1c-3.8,0-6,1.7-6,4.2c0,5.2,7.8,3,7.8,5.1c0,0.7-0.6,1.2-2.4,1.2c-1.6,0-3.1-0.4-4.5-1.2l-1.2,2.7
		C919.1,5699.7,921.1,5700.2,923,5700.2z M938.8,5696.7c-0.4,0.3-1,0.5-1.5,0.5c-0.8,0.1-1.6-0.6-1.6-1.4c0-0.1,0-0.2,0-0.3v-5.3
		h3.2v-2.9h-3.2v-3.1H932v3.1h-2v2.9h2v5.3c0,3.1,1.8,4.6,4.8,4.6c1.1,0,2.1-0.2,3-0.8L938.8,5696.7z M947.1,5686.9
		c-2,0-3.9,0.5-5.6,1.6l1.3,2.6c1.1-0.8,2.4-1.2,3.7-1.2c2,0,3,0.9,3,2.5h-3c-3.9,0-5.5,1.6-5.5,3.9c0,2.2,1.8,3.9,4.8,3.9
		c1.9,0,3.2-0.6,3.9-1.8v1.6h3.5v-7.4C953.3,5688.7,951,5686.9,947.1,5686.9L947.1,5686.9z M946.8,5697.7c-1.3,0-2.1-0.6-2.1-1.6
		c0-0.9,0.6-1.5,2.3-1.5h2.6v1.3C949.1,5697,948,5697.8,946.8,5697.7z M964.5,5686.9c-1.6-0.1-3.2,0.6-4.3,1.7v-1.5h-3.6v12.9h3.7
		v-6.4c0-2.4,1.3-3.5,3.1-3.5c1.7,0,2.6,1,2.6,3v6.8h3.7v-7.4C969.9,5688.7,967.6,5686.9,964.5,5686.9z M979.6,5700.2
		c2.7,0,4.8-1.2,5.8-3.3l-2.9-1.6c-0.5,1.1-1.7,1.8-2.9,1.8c-1.8,0.1-3.3-1.4-3.4-3.2c0-0.1,0-0.3,0-0.4c-0.2-1.8,1.2-3.4,3-3.6
		c0.1,0,0.2,0,0.4,0c1.2,0,2.4,0.7,2.9,1.8l2.9-1.6c-0.9-2.1-3.1-3.3-5.8-3.3c-4.2,0-7.2,2.8-7.2,6.6
		C972.4,5697.4,975.4,5700.2,979.6,5700.2z M989.5,5685.3c1.2,0.1,2.2-0.8,2.3-2c0-0.1,0-0.1,0-0.2c0-1.2-1-2.1-2.2-2
		c-0.1,0-0.1,0-0.2,0c-1.2-0.1-2.2,0.8-2.3,1.9v0.1c0,1.2,1,2.1,2.2,2.1C989.4,5685.3,989.4,5685.3,989.5,5685.3L989.5,5685.3z
		 M987.6,5700h3.7v-12.9h-3.7V5700z M1000,5686.9c-2,0-3.9,0.5-5.6,1.6l1.3,2.6c1.1-0.8,2.4-1.2,3.7-1.2c2,0,3,0.9,3,2.5h-3
		c-3.9,0-5.5,1.6-5.5,3.9c0,2.2,1.8,3.9,4.8,3.9c1.9,0,3.2-0.6,3.9-1.8v1.6h3.5v-7.4C1006.2,5688.7,1004,5686.9,1000,5686.9z
		 M999.7,5697.7c-1.3,0-2.1-0.6-2.1-1.6c0-0.9,0.6-1.5,2.3-1.5h2.6v1.3C1002.1,5697,1000.9,5697.8,999.7,5697.7z M1014,5700.2
		c3.9,0,6.1-1.7,6.1-4.1c0-5.1-7.8-3-7.8-5.2c0-0.7,0.7-1.2,2.4-1.2c1.3,0,2.6,0.3,3.7,1l1.2-2.7c-1.5-0.8-3.2-1.2-5-1.1
		c-3.8,0-6,1.7-6,4.2c0,5.2,7.8,3,7.8,5.1c0,0.7-0.6,1.2-2.4,1.2c-1.6,0-3.1-0.4-4.5-1.2l-1.2,2.7
		C1010.1,5699.7,1012,5700.2,1014,5700.2z M1037,5686.9c-1.5-0.1-3,0.5-4.1,1.5v-6.2h-3.7v17.8h3.7v-6.4c0-2.4,1.3-3.5,3.1-3.5
		c1.7,0,2.6,1,2.6,3v6.8h3.7v-7.4C1042.4,5688.7,1040.1,5686.9,1037,5686.9L1037,5686.9z M1057.3,5682h-4l-3.2,3.5h2.9L1057.3,5682z
		 M1055,5687.1v6.4c0,2.4-1.2,3.5-3,3.5c-1.7,0-2.6-1-2.6-3.1v-6.7h-3.7v7.3c0,4,2.3,5.8,5.5,5.8c1.5,0,3-0.6,4-1.7v1.5h3.6v-12.9
		L1055,5687.1z M1078.8,5686.9c-1.8-0.1-3.5,0.7-4.7,2.1c-0.9-1.4-2.6-2.2-4.2-2.1c-1.5-0.1-3,0.6-4.1,1.7v-1.5h-3.6v12.9h3.7v-6.5
		c0-2.3,1.2-3.4,2.8-3.4c1.6,0,2.4,1,2.4,3v6.8h3.7v-6.5c0-2.3,1.2-3.4,2.9-3.4c1.5,0,2.4,1,2.4,3v6.8h3.7v-7.4
		C1084,5688.7,1081.8,5686.9,1078.8,5686.9L1078.8,5686.9z M1089.3,5685.3c1.2,0.1,2.2-0.8,2.3-2c0-0.1,0-0.1,0-0.2
		c0-1.2-1-2.1-2.2-2c-0.1,0-0.1,0-0.2,0c-1.2-0.1-2.2,0.8-2.3,1.9v0.1c0,1.2,1,2.1,2.2,2.1
		C1089.2,5685.3,1089.2,5685.3,1089.3,5685.3L1089.3,5685.3z M1087.4,5700h3.7v-12.9h-3.7V5700z M1100.9,5700.2
		c2.7,0,4.8-1.2,5.8-3.3l-2.9-1.6c-0.5,1.1-1.7,1.8-2.9,1.8c-1.8,0.1-3.3-1.4-3.4-3.2c0-0.1,0-0.2,0-0.4c-0.2-1.8,1.2-3.4,3-3.6
		c0.1,0,0.2,0,0.4,0c1.2,0,2.4,0.7,2.9,1.8l2.9-1.6c-0.9-2.1-3.1-3.3-5.8-3.3c-4.2,0-7.2,2.8-7.2,6.6S1096.7,5700.2,1100.9,5700.2
		L1100.9,5700.2z M1114,5686.9c-2,0-3.9,0.5-5.6,1.6l1.3,2.6c1.1-0.8,2.4-1.2,3.7-1.2c2,0,3,0.9,3,2.5h-3c-3.9,0-5.5,1.6-5.5,3.9
		c0,2.2,1.8,3.9,4.8,3.9c1.9,0,3.2-0.6,3.9-1.8v1.6h3.5v-7.4C1120.2,5688.7,1118,5686.9,1114,5686.9L1114,5686.9z M1113.7,5697.7
		c-1.3,0-2.1-0.6-2.1-1.6c0-0.9,0.6-1.5,2.3-1.5h2.6v1.3C1116.1,5697,1114.9,5697.8,1113.7,5697.7L1113.7,5697.7z M1128,5700.2
		c3.9,0,6.1-1.7,6.1-4.1c0-5.1-7.8-3-7.8-5.2c0-0.7,0.7-1.2,2.4-1.2c1.3,0,2.6,0.3,3.7,1l1.2-2.7c-1.5-0.8-3.2-1.2-5-1.1
		c-3.8,0-6,1.7-6,4.2c0,5.2,7.8,3,7.8,5.1c0,0.7-0.6,1.2-2.4,1.2c-1.6,0-3.1-0.4-4.5-1.2l-1.3,2.7
		C1124.1,5699.7,1126,5700.2,1128,5700.2z"/>
	<path id="Rectángulo_1972" class="st3" d="M698,5744h521c2.2,0,4,1.8,4,4v72c0,2.2-1.8,4-4,4H698c-2.2,0-4-1.8-4-4v-72
		C694,5745.8,695.8,5744,698,5744z"/>
	<path id="Trazado_16972" class="st4" d="M727.1,5790.3c2.7,0.1,5.2-1,6.9-3l-2.5-2.3c-1,1.3-2.6,2-4.2,2c-2.8,0.1-5.2-2.1-5.4-4.9
		c0-0.2,0-0.3,0-0.5c-0.1-2.8,2.1-5.3,4.9-5.4c0.2,0,0.3,0,0.5,0c1.6,0,3.2,0.7,4.2,2l2.5-2.3c-1.7-2-4.3-3.1-6.9-3
		c-5.2,0-9.1,3.6-9.1,8.7S721.9,5790.3,727.1,5790.3z M742.1,5790.2c4.1,0,7.1-2.8,7.1-6.6s-3-6.6-7.1-6.6s-7.1,2.8-7.1,6.6
		S738,5790.2,742.1,5790.2L742.1,5790.2z M742.1,5787.1c-1.8,0-3.3-1.4-3.3-3.2c0-0.1,0-0.2,0-0.4c-0.2-1.8,1.2-3.4,3-3.6
		c0.1,0,0.2,0,0.4,0c1.8,0,3.3,1.4,3.3,3.2c0,0.1,0,0.2,0,0.4c0.2,1.8-1.1,3.4-2.9,3.6C742.4,5787.1,742.2,5787.1,742.1,5787.1
		L742.1,5787.1z M759.5,5776.9c-1.6-0.1-3.2,0.6-4.3,1.7v-1.5h-3.6v12.9h3.7v-6.4c0-2.4,1.3-3.5,3.1-3.5c1.7,0,2.6,1,2.6,3v6.8h3.7
		v-7.4C764.9,5778.7,762.6,5776.9,759.5,5776.9z M780.3,5776.9c-2,0-3.9,0.5-5.6,1.6l1.3,2.6c1.1-0.8,2.4-1.2,3.7-1.2
		c2,0,3,0.9,3,2.5h-3c-3.9,0-5.5,1.6-5.5,3.9c0,2.2,1.8,3.9,4.8,3.9c1.9,0,3.2-0.6,3.9-1.8v1.6h3.5v-7.4
		C786.5,5778.7,784.2,5776.9,780.3,5776.9z M780,5787.7c-1.3,0-2.1-0.6-2.1-1.6c0-0.9,0.6-1.5,2.3-1.5h2.6v1.3
		C782.3,5787,781.2,5787.8,780,5787.7L780,5787.7z M789.9,5790h3.7v-17.8h-3.7V5790z M805.4,5786.7c-0.4,0.3-1,0.5-1.5,0.5
		c-0.8,0.1-1.6-0.6-1.6-1.4c0-0.1,0-0.2,0-0.3v-5.3h3.2v-2.9h-3.2v-3.1h-3.7v3.1h-2v2.9h2v5.3c0,3.1,1.8,4.6,4.8,4.6
		c1.1,0,2.1-0.2,3-0.8L805.4,5786.7z M813.7,5776.9c-2,0-3.9,0.5-5.6,1.6l1.3,2.6c1.1-0.8,2.4-1.2,3.7-1.2c2,0,3,0.9,3,2.5h-3
		c-3.9,0-5.5,1.6-5.5,3.9c0,2.2,1.8,3.9,4.8,3.9c1.9,0,3.2-0.6,3.9-1.8v1.6h3.5v-7.4C819.9,5778.7,817.6,5776.9,813.7,5776.9
		L813.7,5776.9z M813.4,5787.7c-1.3,0-2.1-0.6-2.1-1.6c0-0.9,0.6-1.5,2.3-1.5h2.6v1.3C815.7,5787,814.6,5787.8,813.4,5787.7z
		 M836.3,5790.2c2.7,0,4.8-1.2,5.8-3.3l-2.9-1.6c-0.5,1.1-1.7,1.8-2.9,1.8c-1.8,0.1-3.3-1.4-3.4-3.2c0-0.1,0-0.2,0-0.4
		c-0.2-1.8,1.2-3.4,3-3.6c0.1,0,0.2,0,0.4,0c1.2,0,2.4,0.7,2.9,1.8l2.9-1.6c-0.9-2.1-3.1-3.3-5.8-3.3c-4.2,0-7.2,2.8-7.2,6.6
		S832.1,5790.2,836.3,5790.2z M850.2,5790.2c4.1,0,7.1-2.8,7.1-6.6s-3-6.6-7.1-6.6s-7.1,2.8-7.1,6.6S846.1,5790.2,850.2,5790.2z
		 M850.2,5787.1c-1.8,0-3.3-1.4-3.3-3.2c0-0.1,0-0.2,0-0.4c-0.2-1.8,1.2-3.4,3-3.6c0.1,0,0.2,0,0.4,0c1.8,0,3.3,1.4,3.3,3.2
		c0,0.1,0,0.2,0,0.4c0.2,1.8-1.1,3.4-2.9,3.6C850.5,5787.1,850.4,5787.1,850.2,5787.1z M867.7,5776.9c-1.6-0.1-3.2,0.6-4.3,1.7v-1.5
		h-3.6v12.9h3.7v-6.4c0-2.4,1.3-3.5,3.1-3.5c1.7,0,2.6,1,2.6,3v6.8h3.7v-7.4C873,5778.7,870.7,5776.9,867.7,5776.9z M882.8,5790.2
		c2.7,0,4.8-1.2,5.8-3.3l-2.9-1.6c-0.5,1.1-1.7,1.8-2.9,1.8c-1.8,0.1-3.3-1.4-3.4-3.2c0-0.1,0-0.2,0-0.4c-0.2-1.8,1.2-3.4,3-3.6
		c0.1,0,0.2,0,0.4,0c1.2,0,2.4,0.7,2.9,1.8l2.9-1.6c-0.9-2.1-3.1-3.3-5.8-3.3c-4.2,0-7.2,2.8-7.2,6.6
		C875.6,5787.4,878.6,5790.2,882.8,5790.2L882.8,5790.2z M903.2,5783.6c0.2-3.5-2.5-6.5-6.1-6.7c-0.2,0-0.4,0-0.7,0
		c-3.6-0.2-6.7,2.6-6.9,6.3c0,0.1,0,0.3,0,0.4c0,3.8,2.9,6.6,7.4,6.6c2,0.1,4-0.6,5.3-2.1l-2-2.2c-0.9,0.8-2,1.3-3.2,1.2
		c-1.7,0.2-3.3-0.9-3.7-2.6h9.8C903.2,5784.3,903.2,5783.9,903.2,5783.6L903.2,5783.6z M896.5,5779.7c1.6-0.1,3,1.1,3.2,2.7h-6.4
		C893.5,5780.8,894.9,5779.6,896.5,5779.7L896.5,5779.7z M913.5,5776.9c-1.6-0.1-3.2,0.6-4.3,1.7v-1.5h-3.6v12.9h3.7v-6.4
		c0-2.4,1.3-3.5,3.1-3.5c1.7,0,2.6,1,2.6,3v6.8h3.7v-7.4C918.9,5778.7,916.6,5776.9,913.5,5776.9L913.5,5776.9z M929.6,5786.7
		c-0.4,0.3-1,0.5-1.5,0.5c-0.8,0.1-1.6-0.6-1.6-1.4c0-0.1,0-0.2,0-0.3v-5.3h3.2v-2.9h-3.2v-3.1h-3.7v3.1h-2v2.9h2v5.3
		c0,3.1,1.8,4.6,4.8,4.6c1.1,0,2.1-0.2,3-0.8L929.6,5786.7z M936.3,5778.8v-1.7h-3.6v12.9h3.7v-6.1c0-2.5,1.4-3.6,3.4-3.6
		c0.3,0,0.5,0,0.8,0v-3.4C939,5776.8,937.4,5777.5,936.3,5778.8L936.3,5778.8z M948.1,5776.9c-2,0-3.9,0.5-5.6,1.6l1.3,2.6
		c1.1-0.8,2.4-1.2,3.7-1.2c2,0,3,0.9,3,2.5h-3c-3.9,0-5.5,1.6-5.5,3.9c0,2.2,1.8,3.9,4.8,3.9c1.9,0,3.2-0.6,3.9-1.8v1.6h3.5v-7.4
		C954.3,5778.7,952,5776.9,948.1,5776.9z M947.8,5787.7c-1.3,0-2.1-0.6-2.1-1.6c0-0.9,0.6-1.5,2.3-1.5h2.6v1.3
		C950.1,5787,949,5787.8,947.8,5787.7L947.8,5787.7z M964.1,5790.2c2.7,0,4.8-1.2,5.8-3.3l-2.9-1.6c-0.5,1.1-1.7,1.8-2.9,1.8
		c-1.8,0.1-3.3-1.4-3.4-3.2c0-0.1,0-0.3,0-0.4c-0.2-1.8,1.2-3.4,3-3.6c0.1,0,0.2,0,0.4,0c1.2,0,2.4,0.7,2.9,1.8l2.9-1.6
		c-0.9-2.1-3.1-3.3-5.8-3.3c-4.2,0-7.2,2.8-7.2,6.6C956.9,5787.4,959.9,5790.2,964.1,5790.2z M973.9,5775.3c1.2,0.1,2.2-0.8,2.3-2
		c0-0.1,0-0.1,0-0.2c0-1.2-1-2.1-2.2-2c-0.1,0-0.1,0-0.2,0c-1.2-0.1-2.2,0.8-2.3,1.9v0.1c0,1.2,1,2.1,2.2,2.1
		C973.8,5775.3,973.9,5775.3,973.9,5775.3L973.9,5775.3z M972,5790h3.7v-12.9H972V5790z M983.2,5775.4h2.9l4.3-3.5h-4L983.2,5775.4z
		 M985.4,5790.2c4.1,0,7.1-2.8,7.1-6.6s-3-6.6-7.1-6.6s-7.1,2.8-7.1,6.6C978.3,5787.4,981.3,5790.2,985.4,5790.2z M985.4,5787.1
		c-1.8,0-3.3-1.4-3.3-3.2c0-0.1,0-0.2,0-0.3c-0.2-1.8,1.2-3.4,3-3.6c0.1,0,0.2,0,0.4,0c1.8,0,3.3,1.4,3.3,3.2c0,0.1,0,0.2,0,0.4
		c0.2,1.8-1.1,3.4-2.9,3.6C985.7,5787.1,985.5,5787.1,985.4,5787.1z M1002.8,5776.9c-1.6-0.1-3.2,0.6-4.3,1.7v-1.5H995v12.9h3.7
		v-6.4c0-2.4,1.3-3.5,3.1-3.5c1.7,0,2.6,1,2.6,3v6.8h3.7v-7.4C1008.2,5778.7,1005.9,5776.9,1002.8,5776.9z M1027.8,5772.2v6.3
		c-1-1.1-2.4-1.6-3.9-1.6c-3.5-0.1-6.4,2.6-6.5,6.1c0,0.2,0,0.4,0,0.6c-0.2,3.5,2.4,6.4,5.9,6.6c0.2,0,0.4,0,0.6,0
		c1.5,0.1,3-0.5,4-1.7v1.5h3.6v-17.8H1027.8z M1024.6,5787.1c-1.8,0-3.3-1.4-3.3-3.2c0-0.1,0-0.2,0-0.4c-0.2-1.8,1.2-3.4,3-3.6
		c0.1,0,0.2,0,0.4,0c1.8,0,3.3,1.4,3.3,3.2c0,0.1,0,0.2,0,0.3c0.2,1.8-1.2,3.4-3,3.6C1024.8,5787.1,1024.7,5787.1,1024.6,5787.1z
		 M1047.6,5783.6c0.2-3.5-2.5-6.5-6.1-6.7c-0.2,0-0.4,0-0.7,0c-3.6-0.2-6.7,2.6-6.9,6.3c0,0.1,0,0.3,0,0.4c0,3.8,2.9,6.6,7.4,6.6
		c2,0.1,3.9-0.6,5.3-2.1l-2-2.2c-0.9,0.8-2,1.3-3.2,1.2c-1.7,0.2-3.3-0.9-3.7-2.6h9.8C1047.6,5784.3,1047.6,5783.9,1047.6,5783.6z
		 M1040.9,5779.7c1.6-0.1,3,1.1,3.2,2.7h-6.4C1037.9,5780.8,1039.3,5779.6,1040.9,5779.7L1040.9,5779.7z M1064.8,5776.9
		c-1.6-0.1-3.2,0.6-4.3,1.7v-1.5h-3.6v12.9h3.7v-6.4c0-2.4,1.3-3.5,3.1-3.5c1.7,0,2.6,1,2.6,3v6.8h3.7v-7.4
		C1070.1,5778.7,1067.8,5776.9,1064.8,5776.9z M1082.8,5777.1v6.4c0,2.4-1.2,3.5-3,3.5c-1.7,0-2.6-1-2.6-3.1v-6.7h-3.7v7.3
		c0,4,2.3,5.8,5.5,5.8c1.5,0,3-0.6,4-1.7v1.5h3.6v-12.9L1082.8,5777.1z M1097.3,5786.7c-0.4,0.3-1,0.5-1.5,0.5
		c-0.8,0.1-1.6-0.6-1.6-1.4c0-0.1,0-0.2,0-0.3v-5.3h3.2v-2.9h-3.2v-3.1h-3.7v3.1h-2v2.9h2v5.3c0,3.1,1.8,4.6,4.8,4.6
		c1.1,0,2.1-0.2,3-0.8L1097.3,5786.7z M1104,5778.8v-1.7h-3.6v12.9h3.7v-6.1c0-2.5,1.4-3.6,3.4-3.6c0.3,0,0.5,0,0.8,0v-3.4
		C1106.7,5776.8,1105.1,5777.5,1104,5778.8L1104,5778.8z M1112.5,5775.3c1.2,0.1,2.2-0.8,2.3-2c0-0.1,0-0.1,0-0.2c0-1.2-1-2.1-2.2-2
		c-0.1,0-0.1,0-0.2,0c-1.2-0.1-2.2,0.8-2.3,1.9v0.1c0,1.2,1,2.1,2.2,2.1C1112.4,5775.3,1112.5,5775.3,1112.5,5775.3L1112.5,5775.3z
		 M1110.7,5790h3.7v-12.9h-3.7V5790z M1130.5,5783.6c0.2-3.5-2.5-6.5-6.1-6.7c-0.2,0-0.4,0-0.7,0c-3.6-0.2-6.7,2.6-6.9,6.2
		c0,0.1,0,0.3,0,0.4c0,3.8,2.9,6.6,7.4,6.6c2,0.1,3.9-0.6,5.3-2.1l-2-2.2c-0.9,0.8-2,1.3-3.2,1.2c-1.7,0.2-3.3-0.9-3.7-2.6h9.8
		C1130.5,5784.3,1130.5,5783.9,1130.5,5783.6z M1123.8,5779.7c1.6-0.1,3,1.1,3.2,2.7h-6.4
		C1120.8,5780.8,1122.2,5779.6,1123.8,5779.7L1123.8,5779.7z M1140.9,5776.9c-1.6-0.1-3.2,0.6-4.3,1.7v-1.5h-3.6v12.9h3.7v-6.4
		c0-2.4,1.3-3.5,3.1-3.5c1.7,0,2.6,1,2.6,3v6.8h3.7v-7.4C1146.2,5778.7,1143.9,5776.9,1140.9,5776.9z M1156.9,5786.7
		c-0.4,0.3-1,0.5-1.5,0.5c-0.8,0.1-1.6-0.6-1.6-1.4c0-0.1,0-0.2,0-0.3v-5.3h3.2v-2.9h-3.2v-3.1h-3.7v3.1h-2v2.9h2v5.3
		c0,3.1,1.8,4.6,4.8,4.6c1.1,0,2.1-0.2,3-0.8L1156.9,5786.7z M1172.3,5783.6c0.2-3.5-2.5-6.5-6.1-6.7c-0.2,0-0.4,0-0.7,0
		c-3.6-0.2-6.7,2.6-6.9,6.2c0,0.1,0,0.3,0,0.4c0,3.8,2.9,6.6,7.4,6.6c2,0.1,3.9-0.6,5.3-2.1l-2-2.2c-0.9,0.8-2,1.3-3.2,1.2
		c-1.7,0.2-3.3-0.9-3.7-2.6h9.8C1172.2,5784.3,1172.3,5783.9,1172.3,5783.6z M1165.6,5779.7c1.6-0.1,3,1.1,3.2,2.7h-6.4
		C1162.6,5780.8,1164,5779.6,1165.6,5779.7z M1179.1,5790.2c3.9,0,6.1-1.7,6.1-4.1c0-5.1-7.8-3-7.8-5.2c0-0.7,0.7-1.2,2.4-1.2
		c1.3,0,2.6,0.3,3.7,1l1.2-2.7c-1.5-0.8-3.2-1.2-5-1.1c-3.8,0-6,1.7-6,4.2c0,5.2,7.8,3,7.8,5.1c0,0.7-0.6,1.2-2.4,1.2
		c-1.6,0-3.1-0.4-4.5-1.2l-1.3,2.7C1175.3,5789.7,1177.2,5790.2,1179.1,5790.2z"/>
	<path id="Rectángulo_1973" class="st3" d="M629,5834h658c2.2,0,4,1.8,4,4v72c0,2.2-1.8,4-4,4H629c-2.2,0-4-1.8-4-4v-72
		C625,5835.8,626.8,5834,629,5834z"/>
	<path id="Trazado_16973" class="st4" d="M657.7,5880.3c2.7,0.1,5.2-1,6.9-3l-2.5-2.3c-1,1.3-2.6,2-4.2,2c-2.8,0.1-5.2-2.1-5.4-4.9
		c0-0.2,0-0.3,0-0.5c-0.1-2.8,2.1-5.3,4.9-5.4c0.2,0,0.3,0,0.5,0c1.6,0,3.2,0.7,4.2,2l2.5-2.3c-1.7-2-4.3-3.1-6.9-3
		c-5.2,0-9.1,3.6-9.1,8.7S652.5,5880.3,657.7,5880.3z M672.7,5880.2c4.1,0,7.1-2.8,7.1-6.6s-3-6.6-7.1-6.6s-7.1,2.8-7.1,6.6
		S668.6,5880.2,672.7,5880.2L672.7,5880.2z M672.7,5877.1c-1.8,0-3.3-1.4-3.3-3.2c0-0.1,0-0.2,0-0.3c-0.2-1.8,1.2-3.4,3-3.6
		c0.1,0,0.2,0,0.4,0c1.8,0,3.3,1.4,3.3,3.2c0,0.1,0,0.2,0,0.4c0.2,1.8-1.1,3.4-2.9,3.6C673,5877.1,672.8,5877.1,672.7,5877.1
		L672.7,5877.1z M690.1,5866.9c-1.6-0.1-3.2,0.6-4.3,1.7v-1.5h-3.6v12.9h3.7v-6.4c0-2.4,1.3-3.5,3.1-3.5c1.7,0,2.6,1,2.6,3v6.8h3.7
		v-7.4C695.5,5868.7,693.2,5866.9,690.1,5866.9z M710.9,5866.9c-2,0-3.9,0.5-5.6,1.6l1.3,2.6c1.1-0.8,2.4-1.2,3.7-1.2
		c2,0,3,0.9,3,2.5h-3c-3.9,0-5.5,1.6-5.5,3.9c0,2.2,1.8,3.9,4.8,3.9c1.9,0,3.2-0.6,3.9-1.8v1.6h3.5v-7.4
		C717.1,5868.7,714.8,5866.9,710.9,5866.9L710.9,5866.9z M710.6,5877.7c-1.3,0-2.1-0.6-2.1-1.6c0-0.9,0.6-1.5,2.3-1.5h2.6v1.3
		C712.9,5877,711.8,5877.8,710.6,5877.7L710.6,5877.7z M720.5,5880h3.7v-17.8h-3.7V5880z M736,5876.7c-0.4,0.3-1,0.5-1.5,0.5
		c-0.8,0.1-1.6-0.6-1.6-1.4c0-0.1,0-0.2,0-0.3v-5.3h3.2v-2.9h-3.2v-3.1h-3.7v3.1h-2v2.9h2v5.3c0,3.1,1.8,4.6,4.8,4.6
		c1.1,0,2.1-0.2,3-0.8L736,5876.7z M744.3,5866.9c-2,0-3.9,0.5-5.6,1.6l1.3,2.6c1.1-0.8,2.4-1.2,3.7-1.2c2,0,3,0.9,3,2.5h-3
		c-3.9,0-5.5,1.6-5.5,3.9c0,2.2,1.8,3.9,4.8,3.9c1.9,0,3.2-0.6,3.9-1.8v1.6h3.5v-7.4C750.5,5868.7,748.2,5866.9,744.3,5866.9
		L744.3,5866.9z M744,5877.7c-1.3,0-2.1-0.6-2.1-1.6c0-0.9,0.6-1.5,2.3-1.5h2.6v1.3C746.3,5877,745.2,5877.8,744,5877.7z
		 M766.9,5880.2c2.7,0,4.8-1.2,5.8-3.3l-2.9-1.6c-0.5,1.1-1.7,1.8-2.9,1.8c-1.8,0.1-3.3-1.4-3.4-3.2c0-0.1,0-0.3,0-0.4
		c-0.2-1.8,1.2-3.4,3-3.6c0.1,0,0.2,0,0.4,0c1.2,0,2.4,0.7,2.9,1.8l2.9-1.6c-0.9-2.1-3.1-3.3-5.8-3.3c-4.2,0-7.2,2.8-7.2,6.6
		S762.7,5880.2,766.9,5880.2z M780.1,5866.9c-2,0-3.9,0.5-5.6,1.6l1.3,2.6c1.1-0.8,2.4-1.2,3.7-1.2c2,0,3,0.9,3,2.5h-3
		c-3.9,0-5.5,1.6-5.5,3.9c0,2.2,1.8,3.9,4.8,3.9c1.9,0,3.2-0.6,3.9-1.8v1.6h3.5v-7.4C786.3,5868.7,784,5866.9,780.1,5866.9
		L780.1,5866.9z M779.8,5877.7c-1.3,0-2.1-0.6-2.1-1.6c0-0.9,0.6-1.5,2.3-1.5h2.6v1.3C782.1,5877,781,5877.8,779.8,5877.7
		L779.8,5877.7z M797.3,5866.9c-1.5-0.1-3,0.5-4.1,1.7v-1.5h-3.6v17.6h3.7v-6c1,1.1,2.4,1.6,3.9,1.6c3.5,0.1,6.3-2.6,6.4-6.1
		c0-0.2,0-0.4,0-0.6c0.2-3.5-2.4-6.4-5.9-6.6C797.7,5866.9,797.5,5866.9,797.3,5866.9z M796.7,5877.1c-1.8,0-3.3-1.4-3.3-3.2
		c0-0.1,0-0.2,0-0.4c-0.2-1.8,1.1-3.4,2.9-3.6c0.1,0,0.2,0,0.4,0c1.8,0,3.3,1.4,3.3,3.2c0,0.1,0,0.2,0,0.4c0.2,1.8-1.1,3.4-2.9,3.6
		C796.9,5877.1,796.8,5877.1,796.7,5877.1L796.7,5877.1z M811.2,5866.9c-2,0-3.9,0.5-5.6,1.6l1.3,2.6c1.1-0.8,2.4-1.2,3.7-1.2
		c2,0,3,0.9,3,2.5h-3c-3.9,0-5.5,1.6-5.5,3.9c0,2.2,1.8,3.9,4.8,3.9c1.9,0,3.2-0.6,3.9-1.8v1.6h3.5v-7.4
		C817.4,5868.7,815.2,5866.9,811.2,5866.9z M810.9,5877.7c-1.3,0-2.1-0.6-2.1-1.6c0-0.9,0.6-1.5,2.3-1.5h2.6v1.3
		C813.2,5877,812.1,5877.8,810.9,5877.7L810.9,5877.7z M827.2,5880.2c2.7,0,4.8-1.2,5.8-3.3l-2.9-1.6c-0.5,1.1-1.7,1.8-2.9,1.8
		c-1.8,0.1-3.3-1.4-3.4-3.2c0-0.1,0-0.2,0-0.4c-0.2-1.8,1.2-3.4,3-3.6c0.1,0,0.2,0,0.4,0c1.2,0,2.4,0.7,2.9,1.8l2.9-1.6
		c-0.9-2.1-3.1-3.3-5.8-3.3c-4.2,0-7.2,2.8-7.2,6.6S823,5880.2,827.2,5880.2z M837,5865.3c1.2,0.1,2.2-0.8,2.3-2c0-0.1,0-0.1,0-0.2
		c0-1.2-1-2.1-2.2-2c-0.1,0-0.1,0-0.2,0c-1.2-0.1-2.2,0.8-2.3,1.9v0.1c0,1.2,1,2.1,2.2,2.1C836.9,5865.3,837,5865.3,837,5865.3
		L837,5865.3z M835.1,5880h3.7v-12.9h-3.7V5880z M851.8,5862.2v6.3c-1-1.1-2.4-1.6-3.9-1.6c-3.5-0.1-6.4,2.6-6.5,6.1
		c0,0.2,0,0.4,0,0.6c-0.2,3.5,2.4,6.4,5.9,6.6c0.2,0,0.4,0,0.6,0c1.5,0.1,3-0.5,4-1.7v1.5h3.6v-17.8H851.8z M848.6,5877.1
		c-1.8,0-3.3-1.4-3.3-3.2c0-0.1,0-0.2,0-0.4c-0.2-1.8,1.2-3.4,3-3.6c0.1,0,0.2,0,0.4,0c1.8,0,3.3,1.4,3.3,3.2c0,0.1,0,0.2,0,0.3
		c0.2,1.8-1.2,3.4-3,3.6C848.8,5877.1,848.7,5877.1,848.6,5877.1z M864.2,5866.9c-2,0-3.9,0.5-5.6,1.6l1.3,2.6
		c1.1-0.8,2.4-1.2,3.7-1.2c2,0,3,0.9,3,2.5h-3c-3.9,0-5.5,1.6-5.5,3.9c0,2.2,1.8,3.9,4.8,3.9c1.9,0,3.2-0.6,3.9-1.8v1.6h3.5v-7.4
		C870.4,5868.7,868.1,5866.9,864.2,5866.9z M863.9,5877.7c-1.3,0-2.1-0.6-2.1-1.6c0-0.9,0.6-1.5,2.3-1.5h2.6v1.3
		C866.2,5877,865.1,5877.8,863.9,5877.7z M883.3,5862.2v6.3c-1-1.1-2.4-1.6-3.9-1.6c-3.5-0.1-6.4,2.6-6.5,6.1c0,0.2,0,0.4,0,0.6
		c-0.2,3.5,2.4,6.4,5.9,6.6c0.2,0,0.4,0,0.6,0c1.5,0.1,3-0.5,4-1.7v1.5h3.6v-17.8H883.3z M880.1,5877.1c-1.8,0-3.3-1.4-3.3-3.2
		c0-0.1,0-0.2,0-0.4c-0.2-1.8,1.2-3.4,3-3.6c0.1,0,0.2,0,0.4,0c1.8,0,3.3,1.4,3.3,3.2c0,0.1,0,0.2,0,0.3c0.2,1.8-1.2,3.4-3,3.6
		C880.3,5877.1,880.2,5877.1,880.1,5877.1z M906.7,5862.2v6.3c-1-1.1-2.4-1.6-3.9-1.6c-3.5-0.1-6.4,2.6-6.5,6.1c0,0.2,0,0.4,0,0.6
		c-0.2,3.5,2.4,6.4,5.9,6.6c0.2,0,0.4,0,0.6,0c1.5,0.1,3-0.5,4-1.7v1.5h3.6v-17.8H906.7z M903.5,5877.1c-1.8,0-3.3-1.4-3.3-3.2
		c0-0.1,0-0.2,0-0.4c-0.2-1.8,1.2-3.4,3-3.6c0.1,0,0.2,0,0.4,0c1.8,0,3.3,1.4,3.3,3.2c0,0.1,0,0.2,0,0.3c0.2,1.8-1.2,3.4-3,3.6
		C903.7,5877.1,903.6,5877.1,903.5,5877.1z M926.6,5873.6c0.2-3.5-2.5-6.5-6.1-6.7c-0.2,0-0.4,0-0.7,0c-3.6-0.2-6.7,2.6-6.9,6.2
		c0,0.1,0,0.3,0,0.4c0,3.8,2.9,6.6,7.4,6.6c2,0.1,3.9-0.6,5.3-2.1l-2-2.2c-0.9,0.8-2,1.3-3.2,1.2c-1.7,0.2-3.3-0.9-3.7-2.6h9.8
		C926.5,5874.3,926.6,5873.9,926.6,5873.6z M919.9,5869.7c1.6-0.1,3,1.1,3.2,2.7h-6.4C916.9,5870.8,918.3,5869.6,919.9,5869.7
		L919.9,5869.7z M939.4,5868.8v-1.7h-3.6v12.9h3.7v-6.1c0-2.5,1.4-3.6,3.4-3.6c0.3,0,0.5,0,0.8,0v-3.4
		C942.2,5866.8,940.5,5867.5,939.4,5868.8L939.4,5868.8z M958.6,5873.6c0.2-3.5-2.5-6.5-6.1-6.7c-0.2,0-0.4,0-0.7,0
		c-3.6-0.2-6.7,2.6-6.9,6.3c0,0.1,0,0.3,0,0.4c0,3.8,2.9,6.6,7.4,6.6c2,0.1,3.9-0.6,5.3-2.1l-2-2.2c-0.9,0.8-2,1.3-3.2,1.3
		c-1.7,0.2-3.3-0.9-3.7-2.6h9.8C958.6,5874.3,958.6,5873.9,958.6,5873.6L958.6,5873.6z M951.9,5869.7c1.6-0.1,3,1.1,3.2,2.7h-6.4
		C949,5870.8,950.3,5869.6,951.9,5869.7L951.9,5869.7z M968.5,5876.7c-0.4,0.3-1,0.5-1.5,0.5c-0.8,0.1-1.6-0.6-1.6-1.4
		c0-0.1,0-0.2,0-0.3v-5.3h3.2v-2.9h-3.2v-3.1h-3.7v3.1h-2v2.9h2v5.3c0,3.1,1.8,4.6,4.8,4.6c1.1,0,2.1-0.2,3-0.8L968.5,5876.7z
		 M983.8,5873.6c0.2-3.5-2.5-6.5-6.1-6.7c-0.2,0-0.4,0-0.7,0c-3.6-0.2-6.7,2.6-6.9,6.3c0,0.1,0,0.3,0,0.4c0,3.8,2.9,6.6,7.4,6.6
		c2,0.1,3.9-0.6,5.3-2.1l-2-2.2c-0.9,0.8-2,1.3-3.2,1.2c-1.7,0.2-3.3-0.9-3.7-2.6h9.8C983.8,5874.3,983.8,5873.9,983.8,5873.6z
		 M977.1,5869.7c1.6-0.1,3,1.1,3.2,2.7h-6.4C974.1,5870.8,975.5,5869.6,977.1,5869.7L977.1,5869.7z M994.2,5866.9
		c-1.6-0.1-3.2,0.6-4.3,1.7v-1.5h-3.6v12.9h3.7v-6.4c0-2.4,1.3-3.5,3.1-3.5c1.7,0,2.6,1,2.6,3v6.8h3.7v-7.4
		C999.5,5868.7,997.2,5866.9,994.2,5866.9z M1015.7,5873.6c0.2-3.5-2.5-6.5-6.1-6.7c-0.2,0-0.4,0-0.7,0c-3.6-0.2-6.7,2.6-6.9,6.2
		c0,0.1,0,0.3,0,0.4c0,3.8,2.9,6.6,7.4,6.6c2,0.1,3.9-0.6,5.3-2.1l-2-2.2c-0.9,0.8-2,1.3-3.2,1.2c-1.7,0.2-3.3-0.9-3.7-2.6h9.8
		C1015.6,5874.3,1015.7,5873.9,1015.7,5873.6z M1009,5869.7c1.6-0.1,3,1.1,3.2,2.7h-6.4C1006,5870.8,1007.4,5869.6,1009,5869.7z
		 M1021.8,5868.8v-1.7h-3.6v12.9h3.7v-6.1c0-2.5,1.4-3.6,3.4-3.6c0.3,0,0.5,0,0.8,0v-3.4C1024.5,5866.8,1022.8,5867.5,1021.8,5868.8
		z M1040.5,5866.9c-2,0-3.9,0.5-5.6,1.6l1.3,2.6c1.1-0.8,2.4-1.2,3.7-1.2c2,0,3,0.9,3,2.5h-3c-3.9,0-5.5,1.6-5.5,3.9
		c0,2.2,1.8,3.9,4.8,3.9c1.9,0,3.2-0.6,3.9-1.8v1.6h3.5v-7.4C1046.8,5868.7,1044.5,5866.9,1040.5,5866.9L1040.5,5866.9z
		 M1040.2,5877.7c-1.3,0-2.1-0.6-2.1-1.6c0-0.9,0.6-1.5,2.3-1.5h2.6v1.3C1042.6,5877,1041.5,5877.8,1040.2,5877.7z M1060,5867.1v1.7
		c-1.1-1.3-2.6-1.9-4.3-1.8c-3.4-0.2-6.3,2.4-6.4,5.8c0,0.1,0,0.3,0,0.4c-0.1,3.4,2.7,6.2,6,6.2c0.1,0,0.3,0,0.4,0
		c1.5,0.1,3-0.5,4.1-1.6v0.6c0,2.3-1.2,3.5-3.8,3.5c-1.6,0-3.2-0.5-4.6-1.5l-1.5,2.7c1.9,1.2,4.1,1.9,6.3,1.8c4.7,0,7.2-2.2,7.2-7
		v-10.8L1060,5867.1L1060,5867.1z M1056.5,5876.3c-1.7,0.1-3.3-1.2-3.4-2.9c0-0.1,0-0.2,0-0.3c0-1.7,1.4-3.2,3.1-3.2
		c0.1,0,0.2,0,0.3,0c1.7-0.1,3.2,1.2,3.4,2.9c0,0.1,0,0.2,0,0.3c0,1.7-1.4,3.2-3.1,3.2C1056.7,5876.3,1056.6,5876.3,1056.5,5876.3z
		 M1076.3,5867.1v6.4c0,2.4-1.2,3.5-3,3.5c-1.7,0-2.6-1-2.6-3.1v-6.7h-3.7v7.3c0,4,2.3,5.8,5.5,5.8c1.5,0,3-0.6,4-1.7v1.5h3.6v-12.9
		L1076.3,5867.1z M1088.8,5866.9c-2,0-3.9,0.5-5.6,1.6l1.3,2.6c1.1-0.8,2.4-1.2,3.7-1.2c2,0,3,0.9,3,2.5h-3c-3.9,0-5.5,1.6-5.5,3.9
		c0,2.2,1.8,3.9,4.8,3.9c1.9,0,3.2-0.6,3.9-1.8v1.6h3.5v-7.4C1095,5868.7,1092.7,5866.9,1088.8,5866.9L1088.8,5866.9z
		 M1088.5,5877.7c-1.3,0-2.1-0.6-2.1-1.6c0-0.9,0.6-1.5,2.3-1.5h2.6v1.3C1090.8,5877,1089.7,5877.8,1088.5,5877.7L1088.5,5877.7z
		 M1114.4,5867.1l-3.6,8.8l-3.6-8.8h-3.9l5.6,13v0.1c-0.5,1.2-1.1,1.6-2.1,1.6c-0.8,0-1.5-0.3-2.1-0.8l-1.4,2.7
		c1,0.8,2.3,1.2,3.6,1.2c2.3,0,4.1-0.9,5.4-4.1l5.8-13.7L1114.4,5867.1z M1134.2,5866.9c-1.6-0.1-3.2,0.6-4.3,1.7v-1.5h-3.6v12.9
		h3.7v-6.4c0-2.4,1.3-3.5,3.1-3.5c1.7,0,2.6,1,2.6,3v6.8h3.7v-7.4C1139.5,5868.7,1137.2,5866.9,1134.2,5866.9z M1152.2,5867.1v6.4
		c0,2.4-1.2,3.5-3,3.5c-1.7,0-2.6-1-2.6-3.1v-6.7h-3.7v7.3c0,4,2.3,5.8,5.5,5.8c1.5,0,3-0.6,4-1.7v1.5h3.5v-12.9L1152.2,5867.1z
		 M1166.7,5876.7c-0.4,0.3-1,0.5-1.5,0.5c-0.8,0.1-1.6-0.6-1.6-1.4c0-0.1,0-0.2,0-0.3v-5.3h3.2v-2.9h-3.2v-3.1h-3.7v3.1h-2v2.9h2
		v5.3c0,3.1,1.8,4.6,4.8,4.6c1.1,0,2.1-0.2,3-0.8L1166.7,5876.7z M1173.4,5868.8v-1.7h-3.6v12.9h3.7v-6.1c0-2.5,1.4-3.6,3.4-3.6
		c0.3,0,0.5,0,0.8,0v-3.4C1176.1,5866.8,1174.5,5867.5,1173.4,5868.8z M1181.9,5865.3c1.2,0.1,2.2-0.8,2.3-2c0-0.1,0-0.1,0-0.2
		c0-1.2-1-2.1-2.2-2c-0.1,0-0.1,0-0.2,0c-1.2-0.1-2.2,0.8-2.3,1.9v0.1c0,1.2,1,2.1,2.2,2.1
		C1181.9,5865.3,1181.9,5865.3,1181.9,5865.3L1181.9,5865.3z M1180.1,5880h3.7v-12.9h-3.7V5880z M1199.9,5873.6
		c0.2-3.5-2.5-6.5-6.1-6.7c-0.2,0-0.4,0-0.7,0c-3.6-0.2-6.7,2.6-6.9,6.2c0,0.1,0,0.3,0,0.4c0,3.8,2.9,6.6,7.4,6.6
		c2,0.1,3.9-0.6,5.3-2.1l-2-2.2c-0.9,0.8-2,1.3-3.2,1.2c-1.7,0.2-3.3-0.9-3.7-2.6h9.8C1199.9,5874.3,1199.9,5873.9,1199.9,5873.6z
		 M1193.2,5869.7c1.6-0.1,3,1.1,3.2,2.7h-6.4C1190.2,5870.8,1191.6,5869.6,1193.2,5869.7L1193.2,5869.7z M1210.3,5866.9
		c-1.6-0.1-3.2,0.6-4.3,1.7v-1.5h-3.6v12.9h3.7v-6.4c0-2.4,1.3-3.5,3.1-3.5c1.7,0,2.6,1,2.6,3v6.8h3.7v-7.4
		C1215.6,5868.7,1213.3,5866.9,1210.3,5866.9L1210.3,5866.9z M1226.3,5876.7c-0.4,0.3-1,0.5-1.5,0.5c-0.8,0.1-1.6-0.6-1.6-1.4
		c0-0.1,0-0.2,0-0.3v-5.3h3.2v-2.9h-3.2v-3.1h-3.7v3.1h-2v2.9h2v5.3c0,3.1,1.8,4.6,4.8,4.6c1.1,0,2.1-0.2,3-0.8L1226.3,5876.7z
		 M1241.7,5873.6c0.2-3.5-2.5-6.5-6.1-6.7c-0.2,0-0.4,0-0.7,0c-3.6-0.2-6.7,2.6-6.9,6.3c0,0.1,0,0.3,0,0.4c0,3.8,2.9,6.6,7.4,6.6
		c2,0.1,3.9-0.6,5.3-2.1l-2-2.2c-0.9,0.8-2,1.3-3.2,1.2c-1.7,0.2-3.3-0.9-3.7-2.6h9.8C1241.7,5874.3,1241.7,5873.9,1241.7,5873.6z
		 M1235,5869.7c1.6-0.1,3,1.1,3.2,2.7h-6.4C1232,5870.8,1233.4,5869.6,1235,5869.7L1235,5869.7z M1248.5,5880.2
		c3.9,0,6.1-1.7,6.1-4.1c0-5.1-7.8-3-7.8-5.2c0-0.7,0.7-1.2,2.4-1.2c1.3,0,2.6,0.3,3.7,1l1.2-2.7c-1.5-0.8-3.2-1.2-5-1.1
		c-3.8,0-6,1.7-6,4.2c0,5.2,7.8,3,7.8,5.1c0,0.7-0.6,1.2-2.4,1.2c-1.6,0-3.1-0.4-4.5-1.3l-1.2,2.7
		C1244.7,5879.7,1246.6,5880.2,1248.5,5880.2z"/>
	<path id="Rectángulo_1974" class="st3" d="M575,5924h767c2.2,0,4,1.8,4,4v72c0,2.2-1.8,4-4,4H575c-2.2,0-4-1.8-4-4v-72
		C571,5925.8,572.8,5924,575,5924z"/>
	<path id="Trazado_16974" class="st4" d="M611,5970h4.1l-7.5-16.8h-3.8l-7.5,16.8h4l1.5-3.6h7.8L611,5970z M603,5963.4l2.7-6.4
		l2.7,6.4H603z M624.2,5956.9c-1.5-0.1-2.9,0.5-3.9,1.6v-6.3h-3.7v17.8h3.6v-1.5c1,1.2,2.5,1.8,4.1,1.7c3.5,0.1,6.3-2.6,6.4-6.1
		c0-0.2,0-0.4,0-0.6c0.2-3.5-2.4-6.4-5.9-6.6C624.6,5956.9,624.4,5956.9,624.2,5956.9L624.2,5956.9z M623.6,5967.1
		c-1.8,0-3.3-1.4-3.3-3.2c0-0.1,0-0.2,0-0.4c-0.2-1.8,1.1-3.4,2.9-3.6c0.1,0,0.2,0,0.4,0c1.8,0,3.3,1.4,3.3,3.2c0,0.1,0,0.2,0,0.4
		c0.2,1.8-1.1,3.4-2.9,3.6C623.8,5967.1,623.7,5967.1,623.6,5967.1z M642.4,5957.1v6.4c0,2.4-1.2,3.5-3,3.5c-1.7,0-2.6-1-2.6-3.1
		v-6.7h-3.7v7.3c0,4,2.3,5.8,5.5,5.8c1.5,0,3-0.6,4-1.7v1.5h3.6v-12.9L642.4,5957.1L642.4,5957.1z M657.5,5956.9
		c-1.6-0.1-3.2,0.6-4.3,1.7v-1.5h-3.6v12.9h3.7v-6.4c0-2.4,1.3-3.5,3.1-3.5c1.7,0,2.6,1,2.6,3v6.8h3.7v-7.4
		C662.9,5958.7,660.6,5956.9,657.5,5956.9L657.5,5956.9z M675.8,5952.2v6.3c-1-1.1-2.4-1.6-3.9-1.6c-3.5-0.1-6.4,2.6-6.5,6.1
		c0,0.2,0,0.4,0,0.6c-0.2,3.5,2.4,6.4,5.9,6.6c0.2,0,0.4,0,0.6,0c1.5,0.1,3-0.5,4-1.7v1.5h3.6v-17.8H675.8z M672.6,5967.1
		c-1.8,0-3.3-1.4-3.3-3.2c0-0.1,0-0.2,0-0.4c-0.2-1.8,1.2-3.4,3-3.6c0.1,0,0.2,0,0.4,0c1.8,0,3.3,1.4,3.3,3.2c0,0.1,0,0.2,0,0.3
		c0.2,1.8-1.2,3.4-3,3.6C672.8,5967.1,672.7,5967.1,672.6,5967.1z M688.2,5956.9c-2,0-3.9,0.5-5.6,1.6l1.3,2.6
		c1.1-0.8,2.4-1.2,3.7-1.2c2,0,3,0.9,3,2.5h-3c-3.9,0-5.5,1.6-5.5,3.9c0,2.2,1.8,3.9,4.8,3.9c1.9,0,3.2-0.6,3.9-1.8v1.6h3.5v-7.4
		C694.4,5958.7,692.1,5956.9,688.2,5956.9z M687.9,5967.7c-1.3,0-2.1-0.6-2.1-1.6c0-0.9,0.6-1.5,2.3-1.5h2.6v1.3
		C690.2,5967,689.1,5967.8,687.9,5967.7L687.9,5967.7z M705.7,5956.9c-1.6-0.1-3.2,0.6-4.3,1.7v-1.5h-3.6v12.9h3.7v-6.4
		c0-2.4,1.3-3.5,3.1-3.5c1.7,0,2.6,1,2.6,3v6.8h3.7v-7.4C711,5958.7,708.7,5956.9,705.7,5956.9z M721.7,5966.7
		c-0.4,0.3-1,0.5-1.5,0.5c-0.8,0.1-1.6-0.6-1.6-1.4c0-0.1,0-0.2,0-0.3v-5.3h3.2v-2.9h-3.2v-3.1h-3.7v3.1h-2v2.9h2v5.3
		c0,3.1,1.8,4.6,4.8,4.6c1.1,0,2.1-0.2,3-0.8L721.7,5966.7z M737.1,5963.6c0.2-3.5-2.5-6.5-6.1-6.7c-0.2,0-0.4,0-0.7,0
		c-3.6-0.2-6.7,2.6-6.9,6.2c0,0.1,0,0.3,0,0.4c0,3.8,2.9,6.6,7.4,6.6c2,0.1,3.9-0.6,5.3-2.1l-2-2.2c-0.9,0.8-2,1.3-3.2,1.2
		c-1.7,0.2-3.3-0.9-3.7-2.6h9.8C737,5964.3,737.1,5963.9,737.1,5963.6L737.1,5963.6z M730.4,5959.7c1.6-0.1,3,1.1,3.2,2.7h-6.4
		C727.4,5960.8,728.8,5959.6,730.4,5959.7L730.4,5959.7z M755.6,5957.1l-3.6,8.8l-3.6-8.8h-3.9l5.6,13v0.1c-0.5,1.2-1.1,1.6-2.1,1.6
		c-0.8,0-1.5-0.3-2.1-0.8l-1.4,2.7c1,0.8,2.3,1.2,3.6,1.2c2.3,0,4.1-0.9,5.4-4.1l5.8-13.7L755.6,5957.1z M776.9,5952.2v6.3
		c-1-1.1-2.4-1.6-3.9-1.6c-3.5-0.1-6.4,2.6-6.5,6.1c0,0.2,0,0.4,0,0.6c-0.2,3.5,2.4,6.4,5.9,6.6c0.2,0,0.4,0,0.6,0
		c1.5,0.1,3-0.5,4-1.7v1.5h3.6v-17.8H776.9z M773.7,5967.1c-1.8,0-3.3-1.4-3.3-3.2c0-0.1,0-0.2,0-0.4c-0.2-1.8,1.2-3.4,3-3.6
		c0.1,0,0.2,0,0.4,0c1.8,0,3.3,1.4,3.3,3.2c0,0.1,0,0.2,0,0.3c0.2,1.8-1.2,3.4-3,3.6C773.9,5967.1,773.8,5967.1,773.7,5967.1z
		 M786,5955.3c1.2,0.1,2.2-0.8,2.3-2c0-0.1,0-0.1,0-0.2c0-1.2-1-2.1-2.2-2c-0.1,0-0.1,0-0.2,0c-1.2-0.1-2.2,0.8-2.3,1.9v0.1
		c0,1.2,1,2.1,2.2,2.1C785.9,5955.3,785.9,5955.3,786,5955.3z M784.1,5970h3.7v-12.9h-3.7V5970z M800.5,5957.1l-3.7,8.8l-3.6-8.8
		h-3.9l5.4,12.9h3.9l5.4-12.9H800.5z M818,5963.6c0.2-3.5-2.5-6.5-6.1-6.7c-0.2,0-0.4,0-0.7,0c-3.6-0.2-6.7,2.6-6.9,6.2
		c0,0.1,0,0.3,0,0.4c0,3.8,2.9,6.6,7.4,6.6c2,0.1,3.9-0.6,5.3-2.1l-2-2.2c-0.9,0.8-2,1.3-3.2,1.2c-1.7,0.2-3.3-0.9-3.7-2.6h9.8
		C817.9,5964.3,818,5963.9,818,5963.6L818,5963.6z M811.3,5959.7c1.6-0.1,3,1.1,3.2,2.7h-6.4
		C808.3,5960.8,809.7,5959.6,811.3,5959.7L811.3,5959.7z M824,5958.8v-1.7h-3.6v12.9h3.7v-6.1c0-2.5,1.4-3.6,3.4-3.6
		c0.3,0,0.5,0,0.8,0v-3.4C826.8,5956.8,825.1,5957.5,824,5958.8L824,5958.8z M835.1,5970.2c3.9,0,6.1-1.7,6.1-4.1
		c0-5.1-7.8-3-7.8-5.2c0-0.7,0.7-1.2,2.4-1.2c1.3,0,2.6,0.3,3.7,1l1.2-2.7c-1.5-0.8-3.2-1.2-5-1.1c-3.8,0-6,1.7-6,4.2
		c0,5.2,7.8,3,7.8,5.1c0,0.7-0.6,1.2-2.4,1.2c-1.6,0-3.1-0.4-4.5-1.2l-1.2,2.7C831.2,5969.7,833.2,5970.2,835.1,5970.2L835.1,5970.2
		z M848.7,5956.9c-2,0-3.9,0.5-5.6,1.6l1.3,2.6c1.1-0.8,2.4-1.2,3.7-1.2c2,0,3,0.9,3,2.5h-3c-3.9,0-5.5,1.6-5.5,3.9
		c0,2.2,1.8,3.9,4.8,3.9c1.9,0,3.2-0.6,3.9-1.8v1.6h3.5v-7.4C854.9,5958.7,852.7,5956.9,848.7,5956.9L848.7,5956.9z M848.4,5967.7
		c-1.3,0-2.1-0.6-2.1-1.6c0-0.9,0.6-1.5,2.3-1.5h2.6v1.3C850.7,5967,849.6,5967.8,848.4,5967.7L848.4,5967.7z M874.3,5957.1
		l-3.7,8.8l-3.6-8.8h-3.9l5.4,12.9h3.9l5.4-12.9H874.3z M881.3,5955.3c1.2,0.1,2.2-0.8,2.3-2c0-0.1,0-0.1,0-0.2c0-1.2-1-2.1-2.2-2
		c-0.1,0-0.1,0-0.2,0c-1.2-0.1-2.2,0.8-2.3,1.9c0,0.1,0,0.1,0,0.2c0,1.2,1,2.1,2.2,2.1C881.2,5955.3,881.3,5955.3,881.3,5955.3
		L881.3,5955.3z M879.5,5970h3.7v-12.9h-3.7V5970z M896.1,5952.2v6.3c-1-1.1-2.4-1.6-3.9-1.6c-3.5-0.1-6.4,2.6-6.5,6.1
		c0,0.2,0,0.4,0,0.6c-0.2,3.5,2.4,6.4,5.9,6.6c0.2,0,0.4,0,0.6,0c1.5,0.1,3-0.5,4-1.7v1.5h3.6v-17.8H896.1z M892.9,5967.1
		c-1.8,0-3.3-1.4-3.3-3.2c0-0.1,0-0.2,0-0.4c-0.2-1.8,1.2-3.4,3-3.6c0.1,0,0.2,0,0.4,0c1.8,0,3.3,1.4,3.3,3.2c0,0.1,0,0.2,0,0.3
		c0.2,1.8-1.2,3.4-3,3.6C893.1,5967.1,893,5967.1,892.9,5967.1z M908.5,5956.9c-2,0-3.9,0.5-5.6,1.6l1.3,2.6
		c1.1-0.8,2.4-1.2,3.7-1.2c2,0,3,0.9,3,2.5h-3c-3.9,0-5.5,1.6-5.5,3.9c0,2.2,1.8,3.9,4.8,3.9c1.9,0,3.2-0.6,3.9-1.8v1.6h3.5v-7.4
		C914.7,5958.7,912.4,5956.9,908.5,5956.9z M908.2,5967.7c-1.3,0-2.1-0.6-2.1-1.6c0-0.9,0.6-1.5,2.3-1.5h2.6v1.3
		C910.5,5967,909.4,5967.8,908.2,5967.7L908.2,5967.7z M934.3,5952.2v6.3c-1-1.1-2.4-1.6-3.9-1.6c-3.5-0.1-6.4,2.6-6.5,6.1
		c0,0.2,0,0.4,0,0.6c-0.2,3.5,2.4,6.4,5.9,6.6c0.2,0,0.4,0,0.6,0c1.5,0.1,3-0.5,4-1.7v1.5h3.6v-17.8H934.3z M931.1,5967.1
		c-1.8,0-3.3-1.4-3.3-3.2c0-0.1,0-0.2,0-0.4c-0.2-1.8,1.2-3.4,3-3.6c0.1,0,0.2,0,0.4,0c1.8,0,3.3,1.4,3.3,3.2c0,0.1,0,0.2,0,0.3
		c0.2,1.8-1.2,3.4-3,3.6C931.3,5967.1,931.2,5967.1,931.1,5967.1z M954.1,5963.6c0.2-3.5-2.5-6.5-6.1-6.7c-0.2,0-0.4,0-0.7,0
		c-3.6-0.2-6.7,2.6-6.9,6.3c0,0.1,0,0.3,0,0.4c0,3.8,2.9,6.6,7.4,6.6c2,0.1,3.9-0.6,5.3-2.1l-2-2.2c-0.9,0.8-2,1.3-3.2,1.3
		c-1.7,0.2-3.3-0.9-3.7-2.6h9.8C954.1,5964.3,954.1,5963.9,954.1,5963.6z M947.4,5959.7c1.6-0.1,3,1.1,3.2,2.7h-6.4
		C944.5,5960.8,945.8,5959.6,947.4,5959.7L947.4,5959.7z M980,5956.9c-1.8-0.1-3.5,0.7-4.7,2.1c-0.9-1.4-2.6-2.2-4.2-2.1
		c-1.5-0.1-3,0.6-4.1,1.7v-1.5h-3.6v12.9h3.7v-6.5c0-2.3,1.2-3.4,2.8-3.4s2.4,1,2.4,3v6.8h3.7v-6.5c0-2.3,1.2-3.4,2.9-3.4
		c1.5,0,2.4,1,2.4,3v6.8h3.7v-7.4C985.3,5958.7,983,5956.9,980,5956.9z M990.5,5955.3c1.2,0.1,2.2-0.8,2.3-2c0-0.1,0-0.1,0-0.2
		c0-1.2-1-2.1-2.2-2c-0.1,0-0.1,0-0.2,0c-1.2-0.1-2.2,0.8-2.3,1.9v0.1c0,1.2,1,2.1,2.2,2.1C990.4,5955.3,990.4,5955.3,990.5,5955.3
		L990.5,5955.3z M988.6,5970h3.7v-12.9h-3.7V5970z M1002.1,5970.2c2.7,0,4.8-1.2,5.8-3.3l-2.9-1.6c-0.5,1.1-1.7,1.8-2.9,1.8
		c-1.8,0.1-3.3-1.4-3.4-3.2c0-0.1,0-0.2,0-0.4c-0.2-1.8,1.2-3.4,3-3.6c0.1,0,0.2,0,0.4,0c1.2,0,2.4,0.7,2.9,1.8l2.9-1.6
		c-0.9-2.1-3.1-3.3-5.8-3.3c-4.2,0-7.2,2.8-7.2,6.6S997.9,5970.2,1002.1,5970.2z M1013.6,5958.8v-1.7h-3.6v12.9h3.7v-6.1
		c0-2.5,1.4-3.6,3.4-3.6c0.3,0,0.5,0,0.8,0v-3.4C1016.3,5956.8,1014.7,5957.5,1013.6,5958.8L1013.6,5958.8z M1026.3,5970.2
		c4.1,0,7.1-2.8,7.1-6.6s-3-6.6-7.1-6.6s-7.1,2.8-7.1,6.6C1019.2,5967.4,1022.2,5970.2,1026.3,5970.2L1026.3,5970.2z M1026.3,5967.1
		c-1.8,0-3.3-1.4-3.3-3.2c0-0.1,0-0.2,0-0.4c-0.2-1.8,1.2-3.4,3-3.6c0.1,0,0.2,0,0.4,0c1.8,0,3.3,1.4,3.3,3.2c0,0.1,0,0.2,0,0.4
		c0.2,1.8-1.1,3.4-2.9,3.6C1026.5,5967.1,1026.4,5967.1,1026.3,5967.1L1026.3,5967.1z M1042,5970.2c4.1,0,7.1-2.8,7.1-6.6
		s-3-6.6-7.1-6.6s-7.1,2.8-7.1,6.6C1034.9,5967.4,1037.9,5970.2,1042,5970.2z M1042,5967.1c-1.8,0-3.3-1.4-3.3-3.2
		c0-0.1,0-0.2,0-0.4c-0.2-1.8,1.2-3.4,3-3.6c0.1,0,0.2,0,0.4,0c1.8,0,3.3,1.4,3.3,3.2c0,0.1,0,0.2,0,0.4c0.2,1.8-1.1,3.4-2.9,3.6
		C1042.3,5967.1,1042.1,5967.1,1042,5967.1z M1055.2,5958.8v-1.7h-3.6v12.9h3.7v-6.1c0-2.5,1.4-3.6,3.4-3.6c0.3,0,0.5,0,0.8,0v-3.4
		C1057.9,5956.8,1056.2,5957.5,1055.2,5958.8z M1071.5,5957.1v1.7c-1.1-1.3-2.6-1.9-4.3-1.8c-3.4-0.2-6.3,2.4-6.4,5.8
		c0,0.1,0,0.3,0,0.4c-0.1,3.4,2.7,6.2,6,6.2c0.1,0,0.3,0,0.4,0c1.5,0.1,3-0.5,4.1-1.6v0.6c0,2.3-1.2,3.5-3.8,3.5
		c-1.6,0-3.2-0.5-4.6-1.5l-1.5,2.7c1.9,1.2,4.1,1.9,6.3,1.8c4.7,0,7.2-2.2,7.2-7v-10.8L1071.5,5957.1z M1068,5966.3
		c-1.7,0.1-3.3-1.2-3.4-2.9c0-0.1,0-0.2,0-0.3c0-1.7,1.4-3.2,3.1-3.2c0.1,0,0.2,0,0.3,0c1.7-0.1,3.2,1.1,3.4,2.9c0,0.1,0,0.2,0,0.3
		c0,1.7-1.4,3.2-3.1,3.2C1068.2,5966.3,1068.1,5966.3,1068,5966.3z M1083.7,5956.9c-2,0-3.9,0.5-5.6,1.6l1.3,2.6
		c1.1-0.8,2.4-1.2,3.7-1.2c2,0,3,0.9,3,2.5h-3c-3.9,0-5.5,1.6-5.5,3.9c0,2.2,1.8,3.9,4.8,3.9c1.9,0,3.2-0.6,3.9-1.8v1.6h3.5v-7.4
		C1089.9,5958.7,1087.7,5956.9,1083.7,5956.9z M1083.4,5967.7c-1.3,0-2.1-0.6-2.1-1.6c0-0.9,0.6-1.5,2.3-1.5h2.6v1.3
		C1085.8,5967,1084.6,5967.8,1083.4,5967.7L1083.4,5967.7z M1101.2,5956.9c-1.6-0.1-3.2,0.6-4.3,1.7v-1.5h-3.6v12.9h3.7v-6.4
		c0-2.4,1.3-3.5,3.1-3.5c1.7,0,2.6,1,2.6,3v6.8h3.7v-7.4C1106.5,5958.7,1104.2,5956.9,1101.2,5956.9z M1111.8,5955.3
		c1.2,0.1,2.2-0.8,2.3-2c0-0.1,0-0.1,0-0.2c0-1.2-1-2.1-2.2-2c-0.1,0-0.1,0-0.2,0c-1.2-0.1-2.2,0.8-2.3,1.9v0.1c0,1.2,1,2.1,2.2,2.1
		C1111.7,5955.3,1111.7,5955.3,1111.8,5955.3L1111.8,5955.3z M1109.9,5970h3.7v-12.9h-3.7V5970z M1121.5,5970.2
		c3.9,0,6.1-1.7,6.1-4.1c0-5.1-7.8-3-7.8-5.2c0-0.7,0.7-1.2,2.4-1.2c1.3,0,2.6,0.3,3.7,1l1.2-2.7c-1.5-0.8-3.2-1.2-5-1.1
		c-3.8,0-6,1.7-6,4.2c0,5.2,7.8,3,7.8,5.1c0,0.7-0.6,1.2-2.4,1.2c-1.6,0-3.1-0.4-4.5-1.2l-1.3,2.7
		C1117.6,5969.7,1119.5,5970.2,1121.5,5970.2z M1146.4,5956.9c-1.8-0.1-3.5,0.7-4.7,2.1c-0.9-1.4-2.6-2.2-4.2-2.1
		c-1.5-0.1-3,0.6-4.1,1.7v-1.5h-3.6v12.9h3.7v-6.5c0-2.3,1.2-3.4,2.8-3.4c1.6,0,2.4,1,2.4,3v6.8h3.7v-6.5c0-2.3,1.2-3.4,2.9-3.4
		c1.5,0,2.4,1,2.4,3v6.8h3.7v-7.4C1151.7,5958.7,1149.5,5956.9,1146.4,5956.9L1146.4,5956.9z M1161.3,5970.2c4.1,0,7.1-2.8,7.1-6.6
		s-3-6.6-7.1-6.6s-7.1,2.8-7.1,6.6S1157.2,5970.2,1161.3,5970.2z M1161.3,5967.1c-1.8,0-3.3-1.4-3.3-3.2c0-0.1,0-0.2,0-0.4
		c-0.2-1.8,1.2-3.4,3-3.6c0.1,0,0.2,0,0.4,0c1.8,0,3.3,1.4,3.3,3.2c0,0.1,0,0.2,0,0.4c0.2,1.8-1.1,3.4-2.9,3.6
		C1161.6,5967.1,1161.5,5967.1,1161.3,5967.1z M1175.3,5970.2c3.9,0,6.1-1.7,6.1-4.1c0-5.1-7.8-3-7.8-5.2c0-0.7,0.7-1.2,2.4-1.2
		c1.3,0,2.6,0.3,3.7,1l1.2-2.7c-1.5-0.8-3.2-1.2-5-1.1c-3.8,0-6,1.7-6,4.2c0,5.2,7.8,3,7.8,5.1c0,0.7-0.6,1.2-2.4,1.2
		c-1.6,0-3.1-0.4-4.5-1.2l-1.3,2.7C1171.4,5969.7,1173.3,5970.2,1175.3,5970.2z M1198.1,5956.9c-1.5-0.1-2.9,0.5-3.9,1.6v-6.3h-3.7
		v17.8h3.6v-1.5c1,1.2,2.5,1.8,4.1,1.7c3.5,0.1,6.3-2.6,6.4-6.1c0-0.2,0-0.4,0-0.6c0.2-3.5-2.4-6.4-5.9-6.6
		C1198.4,5956.9,1198.3,5956.9,1198.1,5956.9L1198.1,5956.9z M1197.4,5967.1c-1.8,0-3.3-1.4-3.3-3.2c0-0.1,0-0.2,0-0.4
		c-0.2-1.8,1.1-3.4,2.9-3.6c0.1,0,0.2,0,0.4,0c1.8,0,3.3,1.4,3.3,3.2c0,0.1,0,0.2,0,0.4c0.2,1.8-1.1,3.4-2.9,3.6
		C1197.7,5967.1,1197.6,5967.1,1197.4,5967.1z M1219.7,5963.6c0.2-3.5-2.5-6.5-6.1-6.7c-0.2,0-0.4,0-0.7,0c-3.6-0.2-6.7,2.6-6.9,6.2
		c0,0.1,0,0.3,0,0.4c0,3.8,2.9,6.6,7.4,6.6c2,0.1,3.9-0.6,5.3-2.1l-2-2.2c-0.9,0.8-2,1.3-3.2,1.2c-1.7,0.2-3.3-0.9-3.7-2.6h9.8
		C1219.6,5964.3,1219.7,5963.9,1219.7,5963.6z M1213,5959.7c1.6-0.1,3,1.1,3.2,2.7h-6.4C1210,5960.8,1211.4,5959.6,1213,5959.7
		L1213,5959.7z M1230,5956.9c-1.6-0.1-3.2,0.6-4.3,1.7v-1.5h-3.6v12.9h3.7v-6.4c0-2.4,1.3-3.5,3.1-3.5c1.7,0,2.6,1,2.6,3v6.8h3.7
		v-7.4C1235.4,5958.7,1233.1,5956.9,1230,5956.9z M1249.8,5952h-4l-3.2,3.5h2.9L1249.8,5952z M1251.5,5963.6
		c0.2-3.5-2.5-6.5-6.1-6.7c-0.2,0-0.4,0-0.7,0c-3.6-0.2-6.7,2.6-6.9,6.2c0,0.1,0,0.3,0,0.4c0,3.8,2.9,6.6,7.4,6.6
		c2,0.1,4-0.6,5.3-2.1l-2-2.2c-0.9,0.8-2,1.3-3.2,1.2c-1.7,0.2-3.3-0.9-3.7-2.6h9.8C1251.5,5964.3,1251.5,5963.9,1251.5,5963.6
		L1251.5,5963.6z M1244.8,5959.7c1.6-0.1,3,1.1,3.2,2.7h-6.4C1241.8,5960.8,1243.2,5959.6,1244.8,5959.7L1244.8,5959.7z
		 M1267.1,5955.3c1.2,0.1,2.2-0.8,2.3-2c0-0.1,0-0.1,0-0.2c0-1.2-1-2.1-2.2-2c-0.1,0-0.1,0-0.2,0c-1.2-0.1-2.2,0.8-2.3,2v0.1
		c0,1.2,1,2.1,2.2,2.1C1267,5955.3,1267.1,5955.3,1267.1,5955.3L1267.1,5955.3z M1259.8,5955c0.5,0,1.1,0.2,1.5,0.5l1-2.7
		c-0.9-0.5-1.9-0.7-2.9-0.7c-3.2,0-5,1.9-5,4.8v0.6h-2v2.9h2v9.7h3.7v-9.7h3.2v-2.9h-3.3v-0.6
		C1258.1,5955.6,1258.7,5955,1259.8,5955L1259.8,5955z M1265.2,5970h3.7v-12.9h-3.7V5970z M1278.7,5970.2c2.7,0,4.8-1.2,5.8-3.3
		l-2.9-1.6c-0.5,1.1-1.7,1.8-2.9,1.8c-1.8,0.1-3.3-1.4-3.4-3.2c0-0.1,0-0.2,0-0.4c-0.2-1.8,1.2-3.4,3-3.6c0.1,0,0.2,0,0.4,0
		c1.2,0,2.4,0.7,2.9,1.8l2.9-1.6c-0.9-2.1-3.1-3.3-5.8-3.3c-4.2,0-7.2,2.8-7.2,6.6S1274.5,5970.2,1278.7,5970.2z M1292.6,5970.2
		c4.1,0,7.1-2.8,7.1-6.6s-3-6.6-7.1-6.6s-7.1,2.8-7.1,6.6S1288.5,5970.2,1292.6,5970.2L1292.6,5970.2z M1292.6,5967.1
		c-1.8,0-3.3-1.4-3.3-3.2c0-0.1,0-0.2,0-0.4c-0.2-1.8,1.2-3.4,3-3.6c0.1,0,0.2,0,0.4,0c1.8,0,3.3,1.4,3.3,3.2c0,0.1,0,0.2,0,0.4
		c0.2,1.8-1.1,3.4-2.9,3.6C1292.9,5967.1,1292.7,5967.1,1292.6,5967.1L1292.6,5967.1z M1306.5,5970.2c3.9,0,6.1-1.7,6.1-4.1
		c0-5.1-7.8-3-7.8-5.2c0-0.7,0.7-1.2,2.4-1.2c1.3,0,2.6,0.3,3.7,1l1.2-2.7c-1.5-0.8-3.2-1.2-5-1.1c-3.8,0-6,1.7-6,4.2
		c0,5.2,7.8,3,7.8,5.1c0,0.7-0.6,1.2-2.4,1.2c-1.6,0-3.1-0.4-4.5-1.3l-1.3,2.7C1302.7,5969.7,1304.6,5970.2,1306.5,5970.2z"/>
	<path id="Rectángulo_1975" class="st3" d="M708,6014h500c2.2,0,4,1.8,4,4v72c0,2.2-1.8,4-4,4H708c-2.2,0-4-1.8-4-4v-72
		C704,6015.8,705.8,6014,708,6014z"/>
	<path id="Trazado_16975" class="st4" d="M784.2,6060v-16.8H781l-6.2,10.4l-6.3-10.4h-3.2v16.8h3.6v-9.9l4.9,8.1h1.8l4.9-8.3v10.1
		L784.2,6060L784.2,6060z M800.5,6053.6c0.2-3.5-2.5-6.5-6.1-6.7c-0.2,0-0.4,0-0.7,0c-3.6-0.2-6.7,2.6-6.9,6.2c0,0.1,0,0.3,0,0.4
		c0,3.8,2.9,6.6,7.4,6.6c2,0.1,3.9-0.6,5.3-2.1l-2-2.2c-0.9,0.8-2,1.3-3.2,1.2c-1.7,0.2-3.3-0.9-3.7-2.6h9.8
		C800.5,6054.3,800.5,6053.9,800.5,6053.6z M793.8,6049.7c1.6-0.1,3,1.1,3.2,2.7h-6.4C790.8,6050.8,792.2,6049.6,793.8,6049.7
		L793.8,6049.7z M805.1,6045.3c1.2,0.1,2.2-0.8,2.3-2c0-0.1,0-0.1,0-0.2c0-1.2-1-2.1-2.2-2c-0.1,0-0.1,0-0.2,0
		c-1.2-0.1-2.2,0.8-2.3,1.9v0.1c0,1.2,1,2.1,2.2,2.1C805,6045.3,805,6045.3,805.1,6045.3L805.1,6045.3z M802.1,6064.8
		c2.5,0.2,4.6-1.6,4.9-4c0-0.3,0-0.5,0-0.8v-12.9h-3.7v12.9c0,1.3-0.6,1.9-1.5,1.9c-0.6,0-1.1-0.1-1.6-0.5l-1,2.7
		C800,6064.7,801,6064.9,802.1,6064.8L802.1,6064.8z M816.5,6060.2c4.1,0,7.1-2.8,7.1-6.6s-3-6.6-7.1-6.6s-7.1,2.8-7.1,6.6
		S812.4,6060.2,816.5,6060.2z M816.5,6057.1c-1.8,0-3.3-1.4-3.3-3.2c0-0.1,0-0.2,0-0.4c-0.2-1.8,1.2-3.4,3-3.6c0.1,0,0.2,0,0.4,0
		c1.8,0,3.3,1.4,3.3,3.2c0,0.1,0,0.2,0,0.4c0.2,1.8-1.1,3.4-2.9,3.6C816.8,6057.1,816.7,6057.1,816.5,6057.1z M829.7,6048.8v-1.7
		h-3.6v12.9h3.7v-6.1c0-2.5,1.4-3.6,3.4-3.6c0.3,0,0.5,0,0.8,0v-3.4C832.4,6046.8,830.8,6047.5,829.7,6048.8L829.7,6048.8z
		 M841.5,6046.9c-2,0-3.9,0.5-5.6,1.6l1.3,2.6c1.1-0.8,2.4-1.2,3.7-1.2c2,0,3,0.9,3,2.5h-3c-3.9,0-5.5,1.6-5.5,3.9
		c0,2.2,1.8,3.9,4.8,3.9c1.9,0,3.2-0.6,3.9-1.8v1.6h3.5v-7.4C847.7,6048.7,845.4,6046.9,841.5,6046.9L841.5,6046.9z M841.2,6057.7
		c-1.3,0-2.1-0.6-2.1-1.6c0-0.9,0.6-1.5,2.3-1.5h2.6v1.3C843.5,6057,842.4,6057.8,841.2,6057.7z M854.7,6048.8v-1.7h-3.6v12.9h3.7
		v-6.1c0-2.5,1.4-3.6,3.4-3.6c0.3,0,0.5,0,0.8,0v-3.4C857.4,6046.8,855.7,6047.5,854.7,6048.8L854.7,6048.8z M868.2,6060h3.7v-17.8
		h-3.7V6060z M880.7,6046.9c-2,0-3.9,0.5-5.6,1.6l1.3,2.6c1.1-0.8,2.4-1.2,3.7-1.2c2,0,3,0.9,3,2.5h-3c-3.9,0-5.5,1.6-5.5,3.9
		c0,2.2,1.8,3.9,4.8,3.9c1.9,0,3.2-0.6,3.9-1.8v1.6h3.5v-7.4C886.9,6048.7,884.6,6046.9,880.7,6046.9z M880.4,6057.7
		c-1.3,0-2.1-0.6-2.1-1.6c0-0.9,0.6-1.5,2.3-1.5h2.6v1.3C882.7,6057,881.6,6057.8,880.4,6057.7L880.4,6057.7z M909.7,6053.6
		c0.2-3.5-2.5-6.5-6.1-6.7c-0.2,0-0.4,0-0.7,0c-3.6-0.2-6.7,2.6-6.9,6.2c0,0.1,0,0.3,0,0.4c0,3.8,2.9,6.6,7.4,6.6
		c2,0.1,3.9-0.6,5.3-2.1l-2-2.2c-0.9,0.8-2,1.3-3.2,1.2c-1.7,0.2-3.3-0.9-3.7-2.6h9.8C909.7,6054.3,909.7,6053.9,909.7,6053.6z
		 M903,6049.7c1.6-0.1,3,1.1,3.2,2.7h-6.4C900,6050.8,901.4,6049.6,903,6049.7z M916.5,6060.2c3.9,0,6.1-1.7,6.1-4.1
		c0-5.1-7.8-3-7.8-5.2c0-0.7,0.7-1.2,2.4-1.2c1.3,0,2.6,0.3,3.7,1l1.2-2.7c-1.5-0.8-3.2-1.2-5-1.1c-3.8,0-6,1.7-6,4.2
		c0,5.2,7.8,3,7.8,5.1c0,0.7-0.6,1.2-2.4,1.2c-1.6,0-3.1-0.4-4.5-1.3l-1.3,2.7C912.7,6059.7,914.6,6060.2,916.5,6060.2z
		 M932.3,6056.7c-0.4,0.3-1,0.5-1.5,0.5c-0.8,0.1-1.6-0.6-1.6-1.4c0-0.1,0-0.2,0-0.3v-5.3h3.2v-2.9h-3.2v-3.1h-3.7v3.1h-2v2.9h2v5.3
		c0,3.1,1.8,4.6,4.8,4.6c1.1,0,2.1-0.2,3-0.8L932.3,6056.7z M939,6048.8v-1.7h-3.6v12.9h3.7v-6.1c0-2.5,1.4-3.6,3.4-3.6
		c0.3,0,0.5,0,0.8,0v-3.4C941.7,6046.8,940,6047.5,939,6048.8L939,6048.8z M955,6047.1v6.4c0,2.4-1.2,3.5-3,3.5
		c-1.7,0-2.6-1-2.6-3.1v-6.7h-3.7v7.3c0,4,2.3,5.8,5.5,5.8c1.5,0,3-0.6,4-1.7v1.5h3.6v-12.9L955,6047.1z M968.5,6060.2
		c2.7,0,4.8-1.2,5.8-3.3l-2.9-1.6c-0.5,1.1-1.7,1.8-2.9,1.8c-1.8,0.1-3.3-1.4-3.4-3.2c0-0.1,0-0.3,0-0.4c-0.2-1.8,1.2-3.4,3-3.6
		c0.1,0,0.2,0,0.4,0c1.2,0,2.4,0.7,2.9,1.8l2.9-1.6c-0.9-2.1-3.1-3.3-5.8-3.3c-4.2,0-7.2,2.8-7.2,6.6
		C961.3,6057.4,964.3,6060.2,968.5,6060.2z M983.9,6056.7c-0.4,0.3-1,0.5-1.5,0.5c-0.8,0.1-1.6-0.6-1.6-1.4c0-0.1,0-0.2,0-0.3v-5.3
		h3.2v-2.9h-3.2v-3.1H977v3.1h-2v2.9h2v5.3c0,3.1,1.8,4.6,4.8,4.6c1.1,0,2.1-0.2,3-0.8L983.9,6056.7z M996.3,6047.1v6.4
		c0,2.4-1.2,3.5-3,3.5c-1.7,0-2.6-1-2.6-3.1v-6.7H987v7.3c0,4,2.3,5.8,5.5,5.8c1.5,0,3-0.6,4-1.7v1.5h3.6v-12.9L996.3,6047.1
		L996.3,6047.1z M1007.1,6048.8v-1.7h-3.6v12.9h3.7v-6.1c0-2.5,1.4-3.6,3.4-3.6c0.3,0,0.5,0,0.8,0v-3.4
		C1009.8,6046.8,1008.2,6047.5,1007.1,6048.8L1007.1,6048.8z M1018.9,6046.9c-2,0-3.9,0.5-5.6,1.6l1.3,2.6c1.1-0.8,2.4-1.2,3.7-1.2
		c2,0,3,0.9,3,2.5h-3c-3.9,0-5.5,1.6-5.5,3.9c0,2.2,1.8,3.9,4.8,3.9c1.9,0,3.2-0.6,3.9-1.8v1.6h3.5v-7.4
		C1025.1,6048.7,1022.8,6046.9,1018.9,6046.9z M1018.6,6057.7c-1.3,0-2.1-0.6-2.1-1.6c0-0.9,0.6-1.5,2.3-1.5h2.6v1.3
		C1020.9,6057,1019.8,6057.8,1018.6,6057.7z M1044.7,6042.2v6.3c-1-1.1-2.4-1.6-3.9-1.6c-3.5-0.1-6.4,2.6-6.5,6.1c0,0.2,0,0.4,0,0.6
		c-0.2,3.5,2.4,6.4,5.9,6.6c0.2,0,0.4,0,0.6,0c1.5,0.1,3-0.5,4-1.7v1.5h3.6v-17.8H1044.7z M1041.5,6057.1c-1.8,0-3.3-1.4-3.3-3.2
		c0-0.1,0-0.2,0-0.4c-0.2-1.8,1.2-3.4,3-3.6c0.1,0,0.2,0,0.4,0c1.8,0,3.3,1.4,3.3,3.2c0,0.1,0,0.2,0,0.3c0.2,1.8-1.2,3.4-3,3.6
		C1041.7,6057.1,1041.6,6057.1,1041.5,6057.1z M1064.5,6053.6c0.2-3.5-2.5-6.5-6.1-6.7c-0.2,0-0.4,0-0.7,0c-3.6-0.2-6.7,2.6-6.9,6.3
		c0,0.1,0,0.3,0,0.4c0,3.8,2.9,6.6,7.4,6.6c2,0.1,3.9-0.6,5.3-2.1l-2-2.2c-0.9,0.8-2,1.3-3.2,1.2c-1.7,0.2-3.3-0.9-3.7-2.6h9.8
		C1064.5,6054.3,1064.5,6053.9,1064.5,6053.6z M1057.8,6049.7c1.6-0.1,3,1.1,3.2,2.7h-6.4
		C1054.9,6050.8,1056.2,6049.6,1057.8,6049.7L1057.8,6049.7z M1067,6060h3.7v-17.8h-3.7V6060z M1085.4,6060.2c3.9,0,6.1-1.7,6.1-4.1
		c0-5.1-7.8-3-7.8-5.2c0-0.7,0.7-1.2,2.4-1.2c1.3,0,2.6,0.3,3.7,1l1.2-2.7c-1.5-0.8-3.2-1.2-5-1.1c-3.8,0-6,1.7-6,4.2
		c0,5.2,7.8,3,7.8,5.1c0,0.7-0.6,1.2-2.4,1.2c-1.6,0-3.1-0.4-4.5-1.2l-1.2,2.7C1081.5,6059.7,1083.4,6060.2,1085.4,6060.2z
		 M1103.1,6047.1v6.4c0,2.4-1.2,3.5-3,3.5c-1.7,0-2.6-1-2.6-3.1v-6.7h-3.7v7.3c0,4,2.3,5.8,5.5,5.8c1.5,0,3-0.6,4-1.7v1.5h3.6v-12.9
		L1103.1,6047.1z M1122.9,6053.6c0.2-3.5-2.5-6.5-6.1-6.7c-0.2,0-0.4,0-0.7,0c-3.6-0.2-6.7,2.6-6.9,6.2c0,0.1,0,0.3,0,0.4
		c0,3.8,2.9,6.6,7.4,6.6c2,0.1,4-0.6,5.3-2.1l-2-2.2c-0.9,0.8-2,1.3-3.2,1.2c-1.7,0.2-3.3-0.9-3.7-2.6h9.8
		C1122.9,6054.3,1122.9,6053.9,1122.9,6053.6L1122.9,6053.6z M1116.2,6049.7c1.6-0.1,3,1.1,3.2,2.7h-6.4
		C1113.2,6050.8,1114.6,6049.6,1116.2,6049.7L1116.2,6049.7z M1125.4,6060h3.7v-17.8h-3.7V6060z M1138.8,6060.2
		c4.1,0,7.1-2.8,7.1-6.6s-3-6.6-7.1-6.6s-7.1,2.8-7.1,6.6C1131.7,6057.4,1134.7,6060.2,1138.8,6060.2z M1138.8,6057.1
		c-1.8,0-3.3-1.4-3.3-3.2c0-0.1,0-0.2,0-0.4c-0.2-1.8,1.2-3.4,3-3.6c0.1,0,0.2,0,0.4,0c1.8,0,3.3,1.4,3.3,3.2c0,0.1,0,0.2,0,0.4
		c0.2,1.8-1.1,3.4-2.9,3.6C1139,6057.1,1138.9,6057.1,1138.8,6057.1z"/>
	<path id="Rectángulo_1976" class="st3" d="M649,6104h618c2.2,0,4,1.8,4,4v72c0,2.2-1.8,4-4,4H649c-2.2,0-4-1.8-4-4v-72
		C645,6105.8,646.8,6104,649,6104z"/>
	<path id="Trazado_16976" class="st4" d="M700.4,6133.2v10.2l-8.4-10.2h-3.2v16.8h3.8v-10.2l8.4,10.2h3.2v-16.8H700.4z
		 M714.1,6150.2c4.1,0,7.1-2.8,7.1-6.6s-3-6.6-7.1-6.6s-7.1,2.8-7.1,6.6S710,6150.2,714.1,6150.2L714.1,6150.2z M714.1,6147.1
		c-1.8,0-3.3-1.4-3.3-3.2c0-0.1,0-0.2,0-0.4c-0.2-1.8,1.2-3.4,3-3.6c0.1,0,0.2,0,0.4,0c1.8,0,3.3,1.4,3.3,3.2c0,0.1,0,0.2,0,0.4
		c0.2,1.8-1.1,3.4-2.9,3.6C714.4,6147.1,714.3,6147.1,714.1,6147.1L714.1,6147.1z M734.9,6150.2c3.9,0,6.1-1.7,6.1-4.1
		c0-5.1-7.8-3-7.8-5.2c0-0.7,0.7-1.2,2.4-1.2c1.3,0,2.6,0.3,3.7,1l1.2-2.7c-1.5-0.8-3.2-1.2-5-1.1c-3.8,0-6,1.7-6,4.2
		c0,5.2,7.8,3,7.8,5.1c0,0.7-0.6,1.2-2.4,1.2c-1.6,0-3.1-0.4-4.5-1.2l-1.3,2.7C731,6149.7,732.9,6150.2,734.9,6150.2z M755.9,6143.6
		c0.2-3.5-2.5-6.5-6.1-6.7c-0.2,0-0.4,0-0.7,0c-3.6-0.2-6.7,2.6-6.9,6.2c0,0.1,0,0.3,0,0.4c0,3.8,2.9,6.6,7.4,6.6
		c2,0.1,4-0.6,5.3-2.1l-2-2.2c-0.9,0.8-2,1.3-3.2,1.2c-1.7,0.2-3.3-0.9-3.7-2.6h9.8C755.9,6144.3,755.9,6143.9,755.9,6143.6z
		 M749.2,6139.7c1.6-0.1,3,1.1,3.2,2.7H746C746.2,6140.8,747.6,6139.6,749.2,6139.7L749.2,6139.7z M772.8,6136.9
		c-1.5-0.1-3,0.5-4.1,1.7v-1.5h-3.6v17.6h3.7v-6c1,1.1,2.4,1.6,3.9,1.6c3.5,0.1,6.3-2.6,6.4-6.1c0-0.2,0-0.4,0-0.6
		c0.2-3.5-2.4-6.4-5.9-6.6C773.2,6136.9,773,6136.9,772.8,6136.9L772.8,6136.9z M772.2,6147.1c-1.8,0-3.3-1.4-3.3-3.2
		c0-0.1,0-0.2,0-0.4c-0.2-1.8,1.1-3.4,2.9-3.6c0.1,0,0.2,0,0.4,0c1.8,0,3.3,1.4,3.3,3.2c0,0.1,0,0.2,0,0.4c0.2,1.8-1.1,3.4-2.9,3.6
		C772.4,6147.1,772.3,6147.1,772.2,6147.1z M783.6,6135.3c1.2,0.1,2.2-0.8,2.3-2c0-0.1,0-0.1,0-0.2c0-1.2-1-2.1-2.2-2
		c-0.1,0-0.1,0-0.2,0c-1.2-0.1-2.2,0.8-2.3,1.9v0.1c0,1.2,1,2.1,2.2,2.1C783.5,6135.3,783.6,6135.3,783.6,6135.3L783.6,6135.3z
		 M781.8,6150h3.7v-12.9h-3.7V6150z M801.6,6143.6c0.2-3.5-2.5-6.5-6.1-6.7c-0.2,0-0.4,0-0.7,0c-3.6-0.2-6.7,2.6-6.9,6.2
		c0,0.1,0,0.3,0,0.4c0,3.8,2.9,6.6,7.4,6.6c2,0.1,3.9-0.6,5.3-2.1l-2-2.2c-0.9,0.8-2,1.3-3.2,1.2c-1.7,0.2-3.3-0.9-3.7-2.6h9.8
		C801.6,6144.3,801.6,6143.9,801.6,6143.6L801.6,6143.6z M794.9,6139.7c1.6-0.1,3,1.1,3.2,2.7h-6.4
		C791.9,6140.8,793.3,6139.6,794.9,6139.7L794.9,6139.7z M807.7,6138.8v-1.7h-3.6v12.9h3.7v-6.1c0-2.5,1.4-3.6,3.4-3.6
		c0.3,0,0.5,0,0.8,0v-3.4C810.4,6136.8,808.8,6137.5,807.7,6138.8L807.7,6138.8z M823.7,6132.2v6.3c-1-1.1-2.4-1.6-3.9-1.6
		c-3.5-0.1-6.4,2.6-6.5,6.1c0,0.2,0,0.4,0,0.6c-0.2,3.5,2.4,6.4,5.9,6.6c0.2,0,0.4,0,0.6,0c1.5,0.1,3-0.5,4-1.7v1.5h3.6v-17.8H823.7
		z M820.4,6147.1c-1.8,0-3.3-1.4-3.3-3.2c0-0.1,0-0.2,0-0.4c-0.2-1.8,1.2-3.4,3-3.6c0.1,0,0.2,0,0.4,0c1.8,0,3.3,1.4,3.3,3.2
		c0,0.1,0,0.2,0,0.3c0.2,1.8-1.2,3.4-3,3.6C820.7,6147.1,820.6,6147.1,820.4,6147.1z M836.1,6136.9c-2,0-3.9,0.5-5.6,1.6l1.3,2.6
		c1.1-0.8,2.4-1.2,3.7-1.2c2,0,3,0.9,3,2.5h-3c-3.9,0-5.5,1.6-5.5,3.9c0,2.2,1.8,3.9,4.8,3.9c1.9,0,3.2-0.6,3.9-1.8v1.6h3.5v-7.4
		C842.3,6138.7,840,6136.9,836.1,6136.9z M835.8,6147.7c-1.3,0-2.1-0.6-2.1-1.6c0-0.9,0.6-1.5,2.3-1.5h2.6v1.3
		C838.1,6147,837,6147.8,835.8,6147.7L835.8,6147.7z M853.5,6136.9c-1.6-0.1-3.2,0.6-4.3,1.7v-1.5h-3.6v12.9h3.7v-6.4
		c0-2.4,1.3-3.5,3.1-3.5c1.7,0,2.6,1,2.6,3v6.8h3.7v-7.4C858.9,6138.7,856.6,6136.9,853.5,6136.9z M869,6150h3.7v-17.8H869V6150z
		 M882.4,6150.2c4.1,0,7.1-2.8,7.1-6.6s-3-6.6-7.1-6.6s-7.1,2.8-7.1,6.6S878.3,6150.2,882.4,6150.2z M882.4,6147.1
		c-1.8,0-3.3-1.4-3.3-3.2c0-0.1,0-0.2,0-0.4c-0.2-1.8,1.2-3.4,3-3.6c0.1,0,0.2,0,0.4,0c1.8,0,3.3,1.4,3.3,3.2c0,0.1,0,0.2,0,0.4
		c0.2,1.8-1.1,3.4-2.9,3.6C882.7,6147.1,882.5,6147.1,882.4,6147.1z M896.3,6150.2c3.9,0,6.1-1.7,6.1-4.1c0-5.1-7.8-3-7.8-5.2
		c0-0.7,0.7-1.2,2.4-1.2c1.3,0,2.6,0.3,3.7,1l1.2-2.7c-1.5-0.8-3.2-1.2-5-1.1c-3.8,0-6,1.7-6,4.2c0,5.2,7.8,3,7.8,5.1
		c0,0.7-0.6,1.2-2.4,1.2c-1.6,0-3.1-0.4-4.5-1.2l-1.2,2.7C892.4,6149.7,894.4,6150.2,896.3,6150.2z M919.4,6136.9
		c-1.6-0.1-3.2,0.6-4.3,1.7v-1.5h-3.6v12.9h3.7v-6.4c0-2.4,1.3-3.5,3.1-3.5c1.7,0,2.6,1,2.6,3v6.8h3.7v-7.4
		C924.7,6138.7,922.4,6136.9,919.4,6136.9L919.4,6136.9z M937.4,6137.1v6.4c0,2.4-1.2,3.5-3,3.5c-1.7,0-2.6-1-2.6-3.1v-6.7H928v7.3
		c0,4,2.3,5.8,5.5,5.8c1.5,0,3-0.6,4-1.7v1.5h3.6v-12.9L937.4,6137.1z M951.9,6146.7c-0.4,0.3-1,0.5-1.5,0.5
		c-0.8,0.1-1.6-0.6-1.6-1.4c0-0.1,0-0.2,0-0.3v-5.3h3.2v-2.9h-3.2v-3.1h-3.7v3.1h-2v2.9h2v5.3c0,3.1,1.8,4.6,4.8,4.6
		c1.1,0,2.1-0.2,3-0.8L951.9,6146.7z M958.6,6138.8v-1.7H955v12.9h3.7v-6.1c0-2.5,1.4-3.6,3.4-3.6c0.3,0,0.5,0,0.8,0v-3.4
		C961.4,6136.8,959.7,6137.5,958.6,6138.8L958.6,6138.8z M967.2,6135.3c1.2,0.1,2.2-0.8,2.3-2c0-0.1,0-0.1,0-0.2c0-1.2-1-2.1-2.2-2
		c-0.1,0-0.1,0-0.2,0c-1.2-0.1-2.2,0.8-2.3,1.9v0.1c0,1.2,1,2.1,2.2,2.1C967.1,6135.3,967.1,6135.3,967.2,6135.3L967.2,6135.3z
		 M965.3,6150h3.7v-12.9h-3.7V6150z M985.2,6143.6c0.2-3.5-2.5-6.5-6.1-6.7c-0.2,0-0.4,0-0.7,0c-3.6-0.2-6.7,2.6-6.9,6.2
		c0,0.1,0,0.3,0,0.4c0,3.8,2.9,6.6,7.4,6.6c2,0.1,3.9-0.6,5.3-2.1l-2-2.2c-0.9,0.8-2,1.3-3.2,1.2c-1.7,0.2-3.3-0.9-3.7-2.6h9.8
		C985.1,6144.3,985.2,6143.9,985.2,6143.6z M978.5,6139.7c1.6-0.1,3,1.1,3.2,2.7h-6.4C975.5,6140.8,976.9,6139.6,978.5,6139.7
		L978.5,6139.7z M995.5,6136.9c-1.6-0.1-3.2,0.6-4.3,1.7v-1.5h-3.6v12.9h3.7v-6.4c0-2.4,1.3-3.5,3.1-3.5c1.7,0,2.6,1,2.6,3v6.8h3.7
		v-7.4C1000.9,6138.7,998.5,6136.9,995.5,6136.9z M1011.6,6146.7c-0.4,0.3-1,0.5-1.5,0.5c-0.8,0.1-1.6-0.6-1.6-1.4
		c0-0.1,0-0.2,0-0.3v-5.3h3.2v-2.9h-3.2v-3.1h-3.7v3.1h-2v2.9h2v5.3c0,3.1,1.8,4.6,4.8,4.6c1.1,0,2.1-0.2,3-0.8L1011.6,6146.7z
		 M1026.9,6143.6c0.2-3.5-2.5-6.5-6.1-6.7c-0.2,0-0.4,0-0.7,0c-3.6-0.2-6.7,2.6-6.9,6.2c0,0.1,0,0.3,0,0.4c0,3.8,2.9,6.6,7.4,6.6
		c2,0.1,3.9-0.6,5.3-2.1l-2-2.2c-0.9,0.8-2,1.3-3.2,1.2c-1.7,0.2-3.3-0.9-3.7-2.6h9.8C1026.9,6144.3,1026.9,6143.9,1026.9,6143.6
		L1026.9,6143.6z M1020.2,6139.7c1.6-0.1,3,1.1,3.2,2.7h-6.4C1017.2,6140.8,1018.6,6139.6,1020.2,6139.7L1020.2,6139.7z
		 M1033.8,6150.2c3.9,0,6.1-1.7,6.1-4.1c0-5.1-7.8-3-7.8-5.2c0-0.7,0.7-1.2,2.4-1.2c1.3,0,2.6,0.3,3.7,1l1.2-2.7
		c-1.5-0.8-3.2-1.2-5-1.1c-3.8,0-6,1.7-6,4.2c0,5.2,7.8,3,7.8,5.1c0,0.7-0.6,1.2-2.4,1.2c-1.6,0-3.1-0.4-4.5-1.2l-1.2,2.7
		C1029.9,6149.7,1031.8,6150.2,1033.8,6150.2z M1056.6,6136.9c-1.5-0.1-3,0.5-4.1,1.7v-1.5h-3.6v17.6h3.7v-6c1,1.1,2.4,1.6,3.9,1.6
		c3.5,0.1,6.3-2.6,6.4-6.1c0-0.2,0-0.4,0-0.6c0.2-3.5-2.4-6.4-5.9-6.6C1056.9,6136.9,1056.8,6136.9,1056.6,6136.9z M1055.9,6147.1
		c-1.8,0-3.3-1.4-3.3-3.2c0-0.1,0-0.2,0-0.4c-0.2-1.8,1.1-3.4,2.9-3.6c0.1,0,0.2,0,0.4,0c1.8,0,3.3,1.4,3.3,3.2c0,0.1,0,0.2,0,0.4
		c0.2,1.8-1.1,3.4-2.9,3.6C1056.2,6147.1,1056.1,6147.1,1055.9,6147.1z M1071.7,6150.2c4.1,0,7.1-2.8,7.1-6.6s-3-6.6-7.1-6.6
		s-7.1,2.8-7.1,6.6S1067.5,6150.2,1071.7,6150.2z M1071.7,6147.1c-1.8,0-3.3-1.4-3.3-3.2c0-0.1,0-0.2,0-0.4c-0.2-1.8,1.2-3.4,3-3.6
		c0.1,0,0.2,0,0.4,0c1.8,0,3.3,1.4,3.3,3.2c0,0.1,0,0.2,0,0.4c0.2,1.8-1.1,3.4-2.9,3.6C1071.9,6147.1,1071.8,6147.1,1071.7,6147.1z
		 M1084.8,6138.8v-1.7h-3.6v12.9h3.7v-6.1c0-2.5,1.4-3.6,3.4-3.6c0.3,0,0.5,0,0.8,0v-3.4C1087.5,6136.8,1085.9,6137.5,1084.8,6138.8
		z M1098.4,6150h3.7v-17.8h-3.7V6150z M1107.5,6135.3c1.2,0.1,2.2-0.8,2.3-2c0-0.1,0-0.1,0-0.2c0-1.2-1-2.1-2.2-2
		c-0.1,0-0.1,0-0.2,0c-1.2-0.1-2.2,0.8-2.3,1.9v0.1c0,1.2,1,2.1,2.2,2.1C1107.4,6135.3,1107.4,6135.3,1107.5,6135.3L1107.5,6135.3z
		 M1105.6,6150h3.7v-12.9h-3.7V6150z M1125.3,6150l-5-6.6l4.8-6.3h-4l-2.8,3.8l-2.7-3.8h-4.2l4.8,6.4l-5,6.5h4.1l2.9-4l2.8,4H1125.3
		z M1129,6135.3c1.2,0.1,2.2-0.8,2.3-2c0-0.1,0-0.1,0-0.2c0-1.2-1-2.1-2.2-2c-0.1,0-0.1,0-0.2,0c-1.2-0.1-2.2,0.8-2.3,1.9v0.1
		c0,1.2,1,2.1,2.2,2.1C1128.9,6135.3,1128.9,6135.3,1129,6135.3L1129,6135.3z M1127.1,6150h3.7v-12.9h-3.7V6150z M1143.5,6137.1
		l-3.7,8.8l-3.6-8.8h-3.9l5.4,12.9h3.9l5.4-12.9H1143.5z M1150.5,6135.3c1.2,0.1,2.2-0.8,2.3-2c0-0.1,0-0.1,0-0.2c0-1.2-1-2.1-2.2-2
		c-0.1,0-0.1,0-0.2,0c-1.2-0.1-2.2,0.8-2.3,1.9v0.1c0,1.2,1,2.1,2.2,2.1C1150.4,6135.3,1150.5,6135.3,1150.5,6135.3z M1148.7,6150
		h3.7v-12.9h-3.7V6150z M1161.1,6136.9c-2,0-3.9,0.5-5.6,1.6l1.3,2.6c1.1-0.8,2.4-1.2,3.7-1.2c2,0,3,0.9,3,2.5h-3
		c-3.9,0-5.5,1.6-5.5,3.9c0,2.2,1.8,3.9,4.8,3.9c1.9,0,3.2-0.6,3.9-1.8v1.6h3.5v-7.4C1167.3,6138.7,1165,6136.9,1161.1,6136.9z
		 M1160.8,6147.7c-1.3,0-2.1-0.6-2.1-1.6c0-0.9,0.6-1.5,2.3-1.5h2.6v1.3C1163.1,6147,1162,6147.8,1160.8,6147.7L1160.8,6147.7z
		 M1177.1,6150.2c2.7,0,4.8-1.2,5.8-3.3l-2.9-1.6c-0.5,1.1-1.7,1.8-2.9,1.8c-1.8,0.1-3.3-1.4-3.4-3.2c0-0.1,0-0.2,0-0.4
		c-0.2-1.8,1.2-3.4,3-3.6c0.1,0,0.2,0,0.4,0c1.2,0,2.4,0.7,2.9,1.8l2.9-1.6c-0.9-2.1-3.1-3.3-5.8-3.3c-4.2,0-7.2,2.8-7.2,6.6
		S1172.9,6150.2,1177.1,6150.2z M1186.9,6135.3c1.2,0.1,2.2-0.8,2.3-2c0-0.1,0-0.1,0-0.2c0-1.2-1-2.1-2.2-2c-0.1,0-0.1,0-0.2,0
		c-1.2-0.1-2.2,0.8-2.3,1.9v0.1c0,1.2,1,2.1,2.2,2.1C1186.8,6135.3,1186.9,6135.3,1186.9,6135.3L1186.9,6135.3z M1185,6150h3.7
		v-12.9h-3.7V6150z M1196.2,6135.4h2.9l4.3-3.5h-4L1196.2,6135.4z M1198.4,6150.2c4.1,0,7.1-2.8,7.1-6.6s-3-6.6-7.1-6.6
		s-7.1,2.8-7.1,6.6C1191.3,6147.4,1194.3,6150.2,1198.4,6150.2z M1198.4,6147.1c-1.8,0-3.3-1.4-3.3-3.2c0-0.1,0-0.2,0-0.4
		c-0.2-1.8,1.2-3.4,3-3.6c0.1,0,0.2,0,0.4,0c1.8,0,3.3,1.4,3.3,3.2c0,0.1,0,0.2,0,0.4c0.2,1.8-1.1,3.4-2.9,3.6
		C1198.6,6147.1,1198.5,6147.1,1198.4,6147.1z M1215.8,6136.9c-1.6-0.1-3.2,0.6-4.3,1.7v-1.5h-3.6v12.9h3.7v-6.4
		c0-2.4,1.3-3.5,3.1-3.5c1.7,0,2.6,1,2.6,3v6.8h3.7v-7.4C1221.2,6138.7,1218.9,6136.9,1215.8,6136.9z"/>
	<path id="Rectángulo_1977" class="st3" d="M558,6194h800c2.2,0,4,1.8,4,4v72c0,2.2-1.8,4-4,4H558c-2.2,0-4-1.8-4-4v-72
		C554,6195.8,555.8,6194,558,6194z"/>
	<path id="Trazado_16977" class="st4" d="M593.1,6240.3c4.8,0,7.1-2.4,7.1-5.2c0-6.2-9.8-4-9.8-7.1c0-1.1,0.9-1.9,3.2-1.9
		c1.6,0,3.2,0.5,4.7,1.3l1.2-3c-1.8-1-3.8-1.5-5.8-1.5c-4.8,0-7.1,2.4-7.1,5.2c0,6.2,9.8,4.1,9.8,7.2c0,1-0.9,1.8-3.2,1.8
		c-2,0-3.9-0.6-5.5-1.8l-1.3,2.9C588.3,6239.7,590.7,6240.3,593.1,6240.3z M615.3,6233.6c0.2-3.5-2.5-6.5-6.1-6.7
		c-0.2,0-0.4,0-0.7,0c-3.6-0.2-6.7,2.6-6.9,6.2c0,0.1,0,0.3,0,0.4c0,3.8,2.9,6.6,7.4,6.6c2,0.1,4-0.6,5.3-2.1l-2-2.2
		c-0.9,0.8-2,1.3-3.2,1.2c-1.7,0.2-3.3-0.9-3.7-2.6h9.8C615.2,6234.3,615.3,6233.9,615.3,6233.6L615.3,6233.6z M608.6,6229.7
		c1.6-0.1,3,1.1,3.2,2.7h-6.4C605.6,6230.8,607,6229.6,608.6,6229.7L608.6,6229.7z M634,6222.2v6.3c-1-1.1-2.4-1.6-3.9-1.6
		c-3.5-0.1-6.4,2.6-6.5,6.1c0,0.2,0,0.4,0,0.6c-0.2,3.5,2.4,6.4,5.9,6.6c0.2,0,0.4,0,0.6,0c1.5,0.1,3-0.5,4-1.7v1.5h3.6v-17.8H634z
		 M630.8,6237.1c-1.8,0-3.3-1.4-3.3-3.2c0-0.1,0-0.2,0-0.4c-0.2-1.8,1.2-3.4,3-3.6c0.1,0,0.2,0,0.4,0c1.8,0,3.3,1.4,3.3,3.2
		c0,0.1,0,0.2,0,0.3c0.2,1.8-1.2,3.4-3,3.6C631,6237.1,630.9,6237.1,630.8,6237.1z M653.8,6233.6c0.2-3.5-2.5-6.5-6.1-6.7
		c-0.2,0-0.4,0-0.7,0c-3.6-0.2-6.7,2.6-6.9,6.2c0,0.1,0,0.3,0,0.4c0,3.8,2.9,6.6,7.4,6.6c2,0.1,3.9-0.6,5.3-2.1l-2-2.2
		c-0.9,0.8-2,1.3-3.2,1.2c-1.7,0.2-3.3-0.9-3.7-2.6h9.8C653.8,6234.3,653.8,6233.9,653.8,6233.6z M647.1,6229.7
		c1.6-0.1,3,1.1,3.2,2.7h-6.4C644.1,6230.8,645.5,6229.6,647.1,6229.7L647.1,6229.7z M660.7,6240.2c3.9,0,6.1-1.7,6.1-4.1
		c0-5.1-7.8-3-7.8-5.2c0-0.7,0.7-1.2,2.4-1.2c1.3,0,2.6,0.3,3.7,1l1.2-2.7c-1.5-0.8-3.2-1.2-5-1.1c-3.8,0-6,1.7-6,4.2
		c0,5.2,7.8,3,7.8,5.1c0,0.7-0.6,1.2-2.4,1.2c-1.6,0-3.1-0.4-4.5-1.2l-1.2,2.7C656.8,6239.7,658.7,6240.2,660.7,6240.2z
		 M676.4,6236.7c-0.4,0.3-1,0.5-1.5,0.5c-0.8,0.1-1.6-0.6-1.6-1.4c0-0.1,0-0.2,0-0.3v-5.3h3.2v-2.9h-3.2v-3.1h-3.7v3.1h-2v2.9h2v5.3
		c0,3.1,1.8,4.6,4.8,4.6c1.1,0,2.1-0.2,3-0.8L676.4,6236.7z M683.1,6228.8v-1.7h-3.6v12.9h3.7v-6.1c0-2.5,1.4-3.6,3.4-3.6
		c0.3,0,0.5,0,0.8,0v-3.4C685.8,6226.8,684.2,6227.5,683.1,6228.8L683.1,6228.8z M699.1,6227.1v6.4c0,2.4-1.2,3.5-3,3.5
		c-1.7,0-2.6-1-2.6-3.1v-6.7h-3.7v7.3c0,4,2.3,5.8,5.5,5.8c1.5,0,3-0.6,4-1.7v1.5h3.6v-12.9L699.1,6227.1z M715.6,6227.1l-3.6,8.8
		l-3.6-8.8h-3.9l5.6,13v0.1c-0.5,1.2-1.1,1.6-2.1,1.6c-0.8,0-1.5-0.3-2.1-0.8l-1.4,2.7c1,0.8,2.3,1.2,3.6,1.2c2.3,0,4.1-0.9,5.4-4.1
		l5.8-13.7L715.6,6227.1z M733,6233.6c0.2-3.5-2.5-6.5-6.1-6.7c-0.2,0-0.4,0-0.7,0c-3.6-0.2-6.7,2.6-6.9,6.2c0,0.1,0,0.3,0,0.4
		c0,3.8,2.9,6.6,7.4,6.6c2,0.1,3.9-0.6,5.3-2.1l-2-2.2c-0.9,0.8-2,1.3-3.2,1.2c-1.7,0.2-3.3-0.9-3.7-2.6h9.8
		C732.9,6234.3,733,6233.9,733,6233.6L733,6233.6z M726.3,6229.7c1.6-0.1,3,1.1,3.2,2.7h-6.4
		C723.3,6230.8,724.7,6229.6,726.3,6229.7L726.3,6229.7z M743.3,6226.9c-1.6-0.1-3.2,0.6-4.3,1.7v-1.5h-3.6v12.9h3.7v-6.4
		c0-2.4,1.3-3.5,3.1-3.5c1.7,0,2.6,1,2.6,3v6.8h3.7v-7.4C748.7,6228.7,746.4,6226.9,743.3,6226.9L743.3,6226.9z M763.2,6240.2
		c3.9,0,6.1-1.7,6.1-4.1c0-5.1-7.8-3-7.8-5.2c0-0.7,0.7-1.2,2.4-1.2c1.3,0,2.6,0.3,3.7,1l1.2-2.7c-1.5-0.8-3.2-1.2-5-1.1
		c-3.8,0-6,1.7-6,4.2c0,5.2,7.8,3,7.8,5.1c0,0.7-0.6,1.2-2.4,1.2c-1.6,0-3.1-0.4-4.5-1.2l-1.3,2.7
		C759.3,6239.7,761.2,6240.2,763.2,6240.2L763.2,6240.2z M784.2,6233.6c0.2-3.5-2.5-6.5-6.1-6.7c-0.2,0-0.4,0-0.7,0
		c-3.6-0.2-6.7,2.6-6.9,6.2c0,0.1,0,0.3,0,0.4c0,3.8,2.9,6.6,7.4,6.6c2,0.1,3.9-0.6,5.3-2.1l-2-2.2c-0.9,0.8-2,1.3-3.2,1.2
		c-1.7,0.2-3.3-0.9-3.7-2.6h9.8C784.2,6234.3,784.2,6233.9,784.2,6233.6L784.2,6233.6z M777.5,6229.7c1.6-0.1,3,1.1,3.2,2.7h-6.4
		C774.5,6230.8,775.9,6229.6,777.5,6229.7L777.5,6229.7z M803.3,6226.9c-1.8-0.1-3.5,0.7-4.7,2.1c-0.9-1.4-2.6-2.2-4.2-2.1
		c-1.5-0.1-3,0.6-4.1,1.7v-1.5h-3.6v12.9h3.7v-6.5c0-2.3,1.2-3.4,2.8-3.4s2.4,1,2.4,3v6.8h3.7v-6.5c0-2.3,1.2-3.4,2.9-3.4
		c1.5,0,2.4,1,2.4,3v6.8h3.7v-7.4C808.6,6228.7,806.3,6226.9,803.3,6226.9L803.3,6226.9z M813.8,6225.3c1.2,0.1,2.2-0.8,2.3-2
		c0-0.1,0-0.1,0-0.2c0-1.2-1-2.1-2.2-2c-0.1,0-0.1,0-0.2,0c-1.2-0.1-2.2,0.8-2.3,1.9v0.1c0,1.2,1,2.1,2.2,2.1
		C813.7,6225.3,813.7,6225.3,813.8,6225.3L813.8,6225.3z M811.9,6240h3.7v-12.9h-3.7V6240z M819.1,6240h3.7v-17.8h-3.7V6240z
		 M826.4,6240h3.7v-17.8h-3.7V6240z M838.8,6226.9c-2,0-3.9,0.5-5.6,1.6l1.3,2.6c1.1-0.8,2.4-1.2,3.7-1.2c2,0,3,0.9,3,2.5h-3
		c-3.9,0-5.5,1.6-5.5,3.9c0,2.2,1.8,3.9,4.8,3.9c1.9,0,3.2-0.6,3.9-1.8v1.6h3.5v-7.4C845,6228.7,842.7,6226.9,838.8,6226.9z
		 M838.5,6237.7c-1.3,0-2.1-0.6-2.1-1.6c0-0.9,0.6-1.5,2.3-1.5h2.6v1.3C840.8,6237,839.7,6237.8,838.5,6237.7z M852.7,6240.2
		c3.9,0,6.1-1.7,6.1-4.1c0-5.1-7.8-3-7.8-5.2c0-0.7,0.7-1.2,2.4-1.2c1.3,0,2.6,0.3,3.7,1l1.2-2.7c-1.5-0.8-3.2-1.2-5-1.1
		c-3.8,0-6,1.7-6,4.2c0,5.2,7.8,3,7.8,5.1c0,0.7-0.6,1.2-2.4,1.2c-1.6,0-3.1-0.4-4.5-1.2l-1.2,2.7
		C848.9,6239.7,850.8,6240.2,852.7,6240.2L852.7,6240.2z M877.3,6222.2v6.3c-1-1.1-2.4-1.6-3.9-1.6c-3.5-0.1-6.4,2.6-6.5,6.1
		c0,0.2,0,0.4,0,0.6c-0.2,3.5,2.4,6.4,5.9,6.6c0.2,0,0.4,0,0.6,0c1.5,0.1,3-0.5,4-1.7v1.5h3.6v-17.8H877.3z M874.1,6237.1
		c-1.8,0-3.3-1.4-3.3-3.2c0-0.1,0-0.2,0-0.4c-0.2-1.8,1.2-3.4,3-3.6c0.1,0,0.2,0,0.4,0c1.8,0,3.3,1.4,3.3,3.2c0,0.1,0,0.2,0,0.3
		c0.2,1.8-1.2,3.4-3,3.6C874.3,6237.1,874.2,6237.1,874.1,6237.1z M897.2,6233.6c0.2-3.5-2.5-6.5-6.1-6.7c-0.2,0-0.4,0-0.7,0
		c-3.6-0.2-6.7,2.6-6.9,6.3c0,0.1,0,0.3,0,0.4c0,3.8,2.9,6.6,7.4,6.6c2,0.1,3.9-0.6,5.3-2.1l-2-2.2c-0.9,0.8-2,1.3-3.2,1.2
		c-1.7,0.2-3.3-0.9-3.7-2.6h9.8C897.1,6234.3,897.2,6233.9,897.2,6233.6z M890.5,6229.7c1.6-0.1,3,1.1,3.2,2.7h-6.4
		C887.5,6230.8,888.9,6229.6,890.5,6229.7L890.5,6229.7z M923,6226.9c-1.8-0.1-3.5,0.7-4.7,2.1c-0.9-1.4-2.6-2.2-4.2-2.1
		c-1.5-0.1-3,0.6-4.1,1.7v-1.5h-3.6v12.9h3.7v-6.5c0-2.3,1.2-3.4,2.8-3.4s2.4,1,2.4,3v6.8h3.7v-6.5c0-2.3,1.2-3.4,2.9-3.4
		c1.5,0,2.4,1,2.4,3v6.8h3.7v-7.4C928.3,6228.7,926.1,6226.9,923,6226.9L923,6226.9z M936.9,6226.9c-2,0-3.9,0.5-5.6,1.6l1.3,2.6
		c1.1-0.8,2.4-1.2,3.7-1.2c2,0,3,0.9,3,2.5h-3c-3.9,0-5.5,1.6-5.5,3.9c0,2.2,1.8,3.9,4.8,3.9c1.9,0,3.2-0.6,3.9-1.8v1.6h3.5v-7.4
		C943.1,6228.7,940.8,6226.9,936.9,6226.9L936.9,6226.9z M936.6,6237.7c-1.3,0-2.1-0.6-2.1-1.6c0-0.9,0.6-1.5,2.3-1.5h2.6v1.3
		C938.9,6237,937.8,6237.8,936.6,6237.7L936.6,6237.7z M946.5,6240h3.7v-17.8h-3.7V6240z M966.3,6233.6c0.2-3.5-2.5-6.5-6.1-6.7
		c-0.2,0-0.4,0-0.7,0c-3.6-0.2-6.7,2.6-6.9,6.2c0,0.1,0,0.3,0,0.4c0,3.8,2.9,6.6,7.4,6.6c2,0.1,3.9-0.6,5.3-2.1l-2-2.2
		c-0.9,0.8-2,1.3-3.2,1.2c-1.7,0.2-3.3-0.9-3.7-2.6h9.8C966.3,6234.3,966.3,6233.9,966.3,6233.6z M959.6,6229.7
		c1.6-0.1,3,1.1,3.2,2.7h-6.4C956.6,6230.8,958,6229.6,959.6,6229.7L959.6,6229.7z M972.5,6237.1l6.6-7.8v-2.3H968v2.9h6.4l-6.6,7.8
		v2.3h11.5v-2.9H972.5z M986.9,6226.9c-2,0-3.9,0.5-5.6,1.6l1.3,2.6c1.1-0.8,2.4-1.2,3.7-1.2c2,0,3,0.9,3,2.5h-3
		c-3.9,0-5.5,1.6-5.5,3.9c0,2.2,1.8,3.9,4.8,3.9c1.9,0,3.2-0.6,3.9-1.8v1.6h3.5v-7.4C993.2,6228.7,990.9,6226.9,986.9,6226.9z
		 M986.7,6237.7c-1.3,0-2.1-0.6-2.1-1.6c0-0.9,0.6-1.5,2.3-1.5h2.6v1.3C989,6237,987.9,6237.8,986.7,6237.7z M1000.9,6240.2
		c3.9,0,6.1-1.7,6.1-4.1c0-5.1-7.8-3-7.8-5.2c0-0.7,0.7-1.2,2.4-1.2c1.3,0,2.6,0.3,3.7,1l1.2-2.7c-1.5-0.8-3.2-1.2-5-1.1
		c-3.8,0-6,1.7-6,4.2c0,5.2,7.8,3,7.8,5.1c0,0.7-0.6,1.2-2.4,1.2c-1.6,0-3.1-0.4-4.5-1.2l-1.2,2.7
		C997,6239.7,998.9,6240.2,1000.9,6240.2z M1025.3,6227.1l-3.6,8.8l-3.6-8.8h-3.9l5.6,13l-0.1,0.1c-0.5,1.2-1.1,1.6-2.1,1.6
		c-0.8,0-1.5-0.3-2.1-0.8l-1.4,2.7c1,0.8,2.3,1.2,3.6,1.2c2.3,0,4.1-0.9,5.4-4.1l5.8-13.7L1025.3,6227.1z M1043.4,6240.2
		c4.1,0,7.1-2.8,7.1-6.6s-3-6.6-7.1-6.6s-7.1,2.8-7.1,6.6C1036.3,6237.4,1039.3,6240.2,1043.4,6240.2z M1043.4,6237.1
		c-1.8,0-3.3-1.4-3.3-3.2c0-0.1,0-0.2,0-0.4c-0.2-1.8,1.2-3.4,3-3.6c0.1,0,0.2,0,0.4,0c1.8,0,3.3,1.4,3.3,3.2c0,0.1,0,0.2,0,0.4
		c0.2,1.8-1.1,3.4-2.9,3.6C1043.6,6237.1,1043.5,6237.1,1043.4,6237.1z M1056.5,6228.8v-1.7h-3.6v12.9h3.7v-6.1
		c0-2.5,1.4-3.6,3.4-3.6c0.3,0,0.5,0,0.8,0v-3.4C1059.3,6226.8,1057.6,6227.5,1056.5,6228.8z M1072.8,6227.1v1.7
		c-1.1-1.3-2.6-1.9-4.3-1.8c-3.4-0.2-6.3,2.4-6.4,5.8c0,0.1,0,0.3,0,0.4c-0.1,3.4,2.7,6.2,6,6.2c0.1,0,0.3,0,0.4,0
		c1.5,0.1,3-0.5,4.1-1.6v0.6c0,2.3-1.2,3.5-3.8,3.5c-1.6,0-3.2-0.5-4.6-1.5l-1.5,2.7c1.9,1.2,4.1,1.9,6.3,1.8c4.7,0,7.2-2.2,7.2-7
		v-10.8L1072.8,6227.1z M1069.3,6236.3c-1.7,0.1-3.3-1.2-3.4-2.9c0-0.1,0-0.2,0-0.3c0-1.7,1.4-3.2,3.1-3.2c0.1,0,0.2,0,0.3,0
		c1.7-0.1,3.2,1.1,3.4,2.9c0,0.1,0,0.2,0,0.3c0,1.7-1.4,3.2-3.1,3.2C1069.5,6236.3,1069.4,6236.3,1069.3,6236.3z M1085.1,6226.9
		c-2,0-3.9,0.5-5.6,1.6l1.3,2.6c1.1-0.8,2.4-1.2,3.7-1.2c2,0,3,0.9,3,2.5h-3c-3.9,0-5.5,1.6-5.5,3.9c0,2.2,1.8,3.9,4.8,3.9
		c1.9,0,3.2-0.6,3.9-1.8v1.6h3.5v-7.4C1091.3,6228.7,1089,6226.9,1085.1,6226.9z M1084.8,6237.7c-1.3,0-2.1-0.6-2.1-1.6
		c0-0.9,0.6-1.5,2.3-1.5h2.6v1.3C1087.1,6237,1086,6237.8,1084.8,6237.7L1084.8,6237.7z M1102.5,6226.9c-1.6-0.1-3.2,0.6-4.3,1.7
		v-1.5h-3.6v12.9h3.7v-6.4c0-2.4,1.3-3.5,3.1-3.5c1.7,0,2.6,1,2.6,3v6.8h3.7v-7.4C1107.9,6228.7,1105.6,6226.9,1102.5,6226.9z
		 M1113.1,6225.3c1.2,0.1,2.2-0.8,2.3-2c0-0.1,0-0.1,0-0.2c0-1.2-1-2.1-2.2-2c-0.1,0-0.1,0-0.2,0c-1.2-0.1-2.2,0.8-2.3,1.9v0.1
		c0,1.2,1,2.1,2.2,2.1C1113,6225.3,1113.1,6225.3,1113.1,6225.3L1113.1,6225.3z M1111.3,6240h3.7v-12.9h-3.7V6240z M1122.8,6240.2
		c3.9,0,6.1-1.7,6.1-4.1c0-5.1-7.8-3-7.8-5.2c0-0.7,0.7-1.2,2.4-1.2c1.3,0,2.6,0.3,3.7,1l1.2-2.7c-1.5-0.8-3.2-1.2-5-1.1
		c-3.8,0-6,1.7-6,4.2c0,5.2,7.8,3,7.8,5.1c0,0.7-0.6,1.2-2.4,1.2c-1.6,0-3.1-0.4-4.5-1.2l-1.3,2.7
		C1118.9,6239.7,1120.9,6240.2,1122.8,6240.2z M1147.8,6226.9c-1.8-0.1-3.5,0.7-4.7,2.1c-0.9-1.4-2.6-2.2-4.2-2.1
		c-1.5-0.1-3,0.6-4.1,1.7v-1.5h-3.6v12.9h3.7v-6.5c0-2.3,1.2-3.4,2.8-3.4c1.6,0,2.4,1,2.4,3v6.8h3.7v-6.5c0-2.3,1.2-3.4,2.9-3.4
		c1.5,0,2.4,1,2.4,3v6.8h3.7v-7.4C1153,6228.7,1150.8,6226.9,1147.8,6226.9L1147.8,6226.9z M1162.7,6240.2c4.1,0,7.1-2.8,7.1-6.6
		s-3-6.6-7.1-6.6s-7.1,2.8-7.1,6.6C1155.6,6237.4,1158.6,6240.2,1162.7,6240.2z M1162.7,6237.1c-1.8,0-3.3-1.4-3.3-3.2
		c0-0.1,0-0.2,0-0.4c-0.2-1.8,1.2-3.4,3-3.6c0.1,0,0.2,0,0.4,0c1.8,0,3.3,1.4,3.3,3.2c0,0.1,0,0.2,0,0.4c0.2,1.8-1.1,3.4-2.9,3.6
		C1162.9,6237.1,1162.8,6237.1,1162.7,6237.1z M1176.6,6240.2c3.9,0,6.1-1.7,6.1-4.1c0-5.1-7.8-3-7.8-5.2c0-0.7,0.7-1.2,2.4-1.2
		c1.3,0,2.6,0.3,3.7,1l1.2-2.7c-1.5-0.8-3.2-1.2-5-1.1c-3.8,0-6,1.7-6,4.2c0,5.2,7.8,3,7.8,5.1c0,0.7-0.6,1.2-2.4,1.2
		c-1.6,0-3.1-0.4-4.5-1.2l-1.3,2.7C1172.7,6239.7,1174.7,6240.2,1176.6,6240.2z M1199.4,6226.9c-1.5-0.1-3,0.5-4.1,1.7v-1.5h-3.6
		v17.6h3.7v-6c1,1.1,2.4,1.6,3.9,1.6c3.5,0.1,6.3-2.6,6.4-6.1c0-0.2,0-0.4,0-0.6c0.2-3.5-2.4-6.4-5.9-6.6
		C1199.8,6226.9,1199.6,6226.9,1199.4,6226.9z M1198.8,6237.1c-1.8,0-3.3-1.4-3.3-3.2c0-0.1,0-0.2,0-0.4c-0.2-1.8,1.1-3.4,2.9-3.6
		c0.1,0,0.2,0,0.4,0c1.8,0,3.3,1.4,3.3,3.2c0,0.1,0,0.2,0,0.4c0.2,1.8-1.1,3.4-2.9,3.6C1199,6237.1,1198.9,6237.1,1198.8,6237.1z
		 M1213.4,6226.9c-2,0-3.9,0.5-5.6,1.6l1.3,2.6c1.1-0.8,2.4-1.2,3.7-1.2c2,0,3,0.9,3,2.5h-3c-3.9,0-5.5,1.6-5.5,3.9
		c0,2.2,1.8,3.9,4.8,3.9c1.9,0,3.2-0.6,3.9-1.8v1.6h3.5v-7.4C1219.6,6228.7,1217.3,6226.9,1213.4,6226.9z M1213.1,6237.7
		c-1.3,0-2.1-0.6-2.1-1.6c0-0.9,0.6-1.5,2.3-1.5h2.6v1.3C1215.4,6237,1214.3,6237.8,1213.1,6237.7L1213.1,6237.7z M1230.3,6236.7
		c-0.4,0.3-1,0.5-1.5,0.5c-0.8,0.1-1.6-0.6-1.6-1.4c0-0.1,0-0.2,0-0.3v-5.3h3.2v-2.9h-3.2v-3.1h-3.7v3.1h-2v2.9h2v5.3
		c0,3.1,1.8,4.6,4.8,4.6c1.1,0,2.1-0.2,3-0.8L1230.3,6236.7z M1236.9,6225.4h2.9l4.3-3.5h-4L1236.9,6225.4z M1239.1,6240.2
		c4.1,0,7.1-2.8,7.1-6.6s-3-6.6-7.1-6.6s-7.1,2.8-7.1,6.6S1235,6240.2,1239.1,6240.2z M1239.1,6237.1c-1.8,0-3.3-1.4-3.3-3.2
		c0-0.1,0-0.2,0-0.4c-0.2-1.8,1.2-3.4,3-3.6c0.1,0,0.2,0,0.4,0c1.8,0,3.3,1.4,3.3,3.2c0,0.1,0,0.2,0,0.4c0.2,1.8-1.1,3.4-2.9,3.6
		C1239.4,6237.1,1239.3,6237.1,1239.1,6237.1z M1258.5,6227.1v1.7c-1.1-1.3-2.6-1.9-4.3-1.8c-3.4-0.2-6.3,2.4-6.4,5.8
		c0,0.1,0,0.3,0,0.4c-0.1,3.4,2.7,6.2,6,6.2c0.1,0,0.3,0,0.4,0c1.5,0.1,3-0.5,4.1-1.6v0.6c0,2.3-1.2,3.5-3.8,3.5
		c-1.6,0-3.2-0.5-4.6-1.5l-1.5,2.7c1.9,1.2,4.1,1.9,6.3,1.8c4.7,0,7.2-2.2,7.2-7v-10.8L1258.5,6227.1L1258.5,6227.1z M1255,6236.3
		c-1.7,0.1-3.3-1.2-3.4-2.9c0-0.1,0-0.2,0-0.3c0-1.7,1.4-3.2,3.1-3.2c0.1,0,0.2,0,0.3,0c1.7-0.1,3.2,1.1,3.4,2.9c0,0.1,0,0.2,0,0.3
		c0,1.7-1.4,3.2-3.1,3.2C1255.1,6236.3,1255,6236.3,1255,6236.3z M1278.2,6233.6c0.2-3.5-2.5-6.5-6.1-6.7c-0.2,0-0.4,0-0.7,0
		c-3.6-0.2-6.7,2.6-6.9,6.2c0,0.1,0,0.3,0,0.4c0,3.8,2.9,6.6,7.4,6.6c2,0.1,3.9-0.6,5.3-2.1l-2-2.2c-0.9,0.8-2,1.3-3.2,1.2
		c-1.7,0.2-3.3-0.9-3.7-2.6h9.8C1278.1,6234.3,1278.2,6233.9,1278.2,6233.6z M1271.5,6229.7c1.6-0.1,3,1.1,3.2,2.7h-6.4
		C1268.5,6230.8,1269.9,6229.6,1271.5,6229.7L1271.5,6229.7z M1288.5,6226.9c-1.6-0.1-3.2,0.6-4.3,1.7v-1.5h-3.6v12.9h3.7v-6.4
		c0-2.4,1.3-3.5,3.1-3.5c1.7,0,2.6,1,2.6,3v6.8h3.7v-7.4C1293.9,6228.7,1291.6,6226.9,1288.5,6226.9z M1303.5,6240.2
		c4.1,0,7.1-2.8,7.1-6.6s-3-6.6-7.1-6.6s-7.1,2.8-7.1,6.6S1299.4,6240.2,1303.5,6240.2z M1303.5,6237.1c-1.8,0-3.3-1.4-3.3-3.2
		c0-0.1,0-0.2,0-0.4c-0.2-1.8,1.2-3.4,3-3.6c0.1,0,0.2,0,0.4,0c1.8,0,3.3,1.4,3.3,3.2c0,0.1,0,0.2,0,0.4c0.2,1.8-1.1,3.4-2.9,3.6
		C1303.8,6237.1,1303.6,6237.1,1303.5,6237.1z M1317.4,6240.2c3.9,0,6.1-1.7,6.1-4.1c0-5.1-7.8-3-7.8-5.2c0-0.7,0.7-1.2,2.4-1.2
		c1.3,0,2.6,0.3,3.7,1l1.2-2.7c-1.5-0.8-3.2-1.2-5-1.1c-3.8,0-6,1.7-6,4.2c0,5.2,7.8,3,7.8,5.1c0,0.7-0.6,1.2-2.4,1.2
		c-1.6,0-3.1-0.4-4.5-1.3l-1.2,2.7C1313.6,6239.7,1315.5,6240.2,1317.4,6240.2z"/>
	<rect id="Rectángulo_1980" x="640.2" y="5113" class="st5" width="5.5" height="19"/>
	<rect id="Rectángulo_1981" x="633.5" y="5119.8" class="st5" width="19" height="5.5"/>
	<rect id="Rectángulo_1982" x="1298.2" y="5563" class="st3" width="5.5" height="19"/>
	<rect id="Rectángulo_1983" x="1291.5" y="5569.8" class="st3" width="19" height="5.5"/>
	<rect id="Rectángulo_1984" x="866.2" y="5475" class="st3" width="5.5" height="19"/>
	<rect id="Rectángulo_1985" x="859.5" y="5481.8" class="st3" width="19" height="5.5"/>
	<path id="Unión_5" class="st5" d="M1153.2,5032v-6.8h-6.8v-5.5h6.8v-6.8h5.5v6.8h6.8v5.5h-6.8v6.8H1153.2z"/>
	<rect id="Rectángulo_1988" x="681.2" y="5623" class="st5" width="5.5" height="19"/>
	<rect id="Rectángulo_1989" x="674.5" y="5629.8" class="st5" width="19" height="5.5"/>
	<rect id="Rectángulo_1990" x="1023.2" y="5258" class="st5" width="5.5" height="19"/>
	<rect id="Rectángulo_1991" x="1016.5" y="5264.8" class="st5" width="19" height="5.5"/>
</g>
</svg>
