<svg xmlns="http://www.w3.org/2000/svg" width="1140" height="615.831" viewBox="0 0 1140 615.831">
  <g id="Grupo_8799" data-name="Grupo 8799" transform="translate(-390 -835.169)">
    <g id="Elipse_572" data-name="Elipse 572" transform="translate(952 1077)" fill="#708ad0" stroke="#3b5fbf" stroke-width="1" opacity="0.798">
      <circle cx="59.5" cy="59.5" r="59.5" stroke="none"/>
      <circle cx="59.5" cy="59.5" r="59" fill="none"/>
    </g>
    <g id="Elipse_571" data-name="Elipse 571" transform="translate(849 1077)" fill="#cfedb9" stroke="#376f1d" stroke-width="1" opacity="0.66">
      <circle cx="59.5" cy="59.5" r="59.5" stroke="none"/>
      <circle cx="59.5" cy="59.5" r="59" fill="none"/>
    </g>
    <rect id="Rectángulo_1886" data-name="Rectángulo 1886" width="328" height="44" rx="5" transform="translate(390 977)" fill="#70ad54"/>
    <path id="Trazado_16986" data-name="Trazado 16986" d="M-101.434-8.948a9.762,9.762,0,0,1-2.179,6.775A7.881,7.881,0,0,1-109.784.244a7.935,7.935,0,0,1-6.207-2.4q-2.167-2.4-2.167-6.818t2.179-6.787a8.029,8.029,0,0,1,6.219-2.368,7.866,7.866,0,0,1,6.152,2.4A9.752,9.752,0,0,1-101.434-8.948Zm-13.623,0a8,8,0,0,0,1.331,5,4.7,4.7,0,0,0,3.943,1.7,4.689,4.689,0,0,0,3.925-1.685,8.017,8.017,0,0,0,1.324-5.017,8.034,8.034,0,0,0-1.312-4.98,4.639,4.639,0,0,0-3.912-1.7,4.736,4.736,0,0,0-3.961,1.7A7.925,7.925,0,0,0-115.057-8.948ZM-94.9-6.9l-4.529-6.6h3.271l3.076,4.724,3.1-4.724h3.247l-4.541,6.6L-86.505,0h-3.247l-3.333-5.054L-96.405,0h-3.247ZM-81.268,0h-2.869V-13.5h2.869Zm-3.015-15.149v-.305q.7-.854,1.434-1.9t1.166-1.794h3.333v.256a25.067,25.067,0,0,1-1.9,1.923,26.764,26.764,0,0,1-2.13,1.825ZM-65.765-13.5v1.575l-2.307.427a3.724,3.724,0,0,1,.525,1.05,4.142,4.142,0,0,1,.208,1.318,4.039,4.039,0,0,1-1.44,3.284,6.028,6.028,0,0,1-3.967,1.2,6.433,6.433,0,0,1-1.172-.1,1.616,1.616,0,0,0-.928,1.343.746.746,0,0,0,.433.7,3.748,3.748,0,0,0,1.593.232h2.356a5.238,5.238,0,0,1,3.394.952,3.35,3.35,0,0,1,1.16,2.747A3.994,3.994,0,0,1-67.8,4.761a9.962,9.962,0,0,1-5.469,1.245,7.547,7.547,0,0,1-4.211-.977,3.156,3.156,0,0,1-1.453-2.783A2.962,2.962,0,0,1-78.149.153a4.219,4.219,0,0,1,2.2-1.178,2.156,2.156,0,0,1-.946-.787,1.988,1.988,0,0,1-.372-1.141,1.965,1.965,0,0,1,.427-1.282,4.929,4.929,0,0,1,1.27-1.038,3.76,3.76,0,0,1-1.7-1.471,4.327,4.327,0,0,1-.653-2.386,4.278,4.278,0,0,1,1.385-3.406,5.825,5.825,0,0,1,3.949-1.208,9.612,9.612,0,0,1,1.2.079,7.57,7.57,0,0,1,.946.165ZM-76.373,2.1a1.578,1.578,0,0,0,.836,1.428,4.6,4.6,0,0,0,2.35.5A7.1,7.1,0,0,0-69.7,3.357a2.013,2.013,0,0,0,1.147-1.782A1.337,1.337,0,0,0-69.177.323a5.048,5.048,0,0,0-2.338-.372h-2.173a3.053,3.053,0,0,0-1.959.58A1.9,1.9,0,0,0-76.373,2.1Zm1.233-11.23a2.717,2.717,0,0,0,.653,1.953,2.47,2.47,0,0,0,1.874.684q2.49,0,2.49-2.661a3.018,3.018,0,0,0-.616-2.032,2.342,2.342,0,0,0-1.874-.714,2.415,2.415,0,0,0-1.886.708A2.976,2.976,0,0,0-75.14-9.131ZM-57.367.244a6.531,6.531,0,0,1-4.926-1.837,6.974,6.974,0,0,1-1.776-5.06,7.652,7.652,0,0,1,1.648-5.2,5.692,5.692,0,0,1,4.529-1.892,5.563,5.563,0,0,1,4.224,1.624,6.2,6.2,0,0,1,1.55,4.468V-6.1h-9a4.434,4.434,0,0,0,1.062,3.021,3.7,3.7,0,0,0,2.82,1.056A10.41,10.41,0,0,0-55-2.252,11.677,11.677,0,0,0-52.789-3V-.671a8.808,8.808,0,0,1-2.124.708A13.024,13.024,0,0,1-57.367.244Zm-.525-11.816a2.882,2.882,0,0,0-2.191.867,4.13,4.13,0,0,0-.983,2.527h6.128a3.737,3.737,0,0,0-.806-2.533A2.756,2.756,0,0,0-57.892-11.572ZM-36.981,0h-2.881V-8.3a3.633,3.633,0,0,0-.629-2.332,2.43,2.43,0,0,0-2-.769,3.174,3.174,0,0,0-2.661,1.074,5.931,5.931,0,0,0-.842,3.6V0h-2.869V-13.5h2.246l.4,1.77h.146A3.994,3.994,0,0,1-44.33-13.22a5.809,5.809,0,0,1,2.49-.525q4.858,0,4.858,4.944Zm15.967-6.775a7.369,7.369,0,0,1-1.7,5.164A6.08,6.08,0,0,1-27.435.244,6.473,6.473,0,0,1-30.78-.61a5.641,5.641,0,0,1-2.234-2.454A8.357,8.357,0,0,1-33.8-6.775,7.319,7.319,0,0,1-32.111-11.9a6.108,6.108,0,0,1,4.749-1.843,5.948,5.948,0,0,1,4.639,1.886A7.285,7.285,0,0,1-21.014-6.775Zm-9.827,0q0,4.675,3.455,4.675,3.418,0,3.418-4.675,0-4.626-3.442-4.626a2.935,2.935,0,0,0-2.618,1.2A6.088,6.088,0,0,0-30.841-6.775Zm31.592,0a7.369,7.369,0,0,1-1.7,5.164A6.08,6.08,0,0,1-5.67.244,6.473,6.473,0,0,1-9.015-.61a5.641,5.641,0,0,1-2.234-2.454,8.357,8.357,0,0,1-.781-3.711A7.319,7.319,0,0,1-10.345-11.9,6.108,6.108,0,0,1-5.6-13.745,5.948,5.948,0,0,1-.958-11.859,7.285,7.285,0,0,1,.751-6.775Zm-9.827,0q0,4.675,3.455,4.675Q-2.2-2.1-2.2-6.775q0-4.626-3.442-4.626a2.935,2.935,0,0,0-2.618,1.2A6.088,6.088,0,0,0-9.076-6.775ZM18.988,0l-.574-1.88h-.1A5.531,5.531,0,0,1,16.351-.2a6.215,6.215,0,0,1-2.539.446A4.3,4.3,0,0,1,10.706-.83,4.02,4.02,0,0,1,9.589-3.87a3.569,3.569,0,0,1,1.55-3.149,8.939,8.939,0,0,1,4.724-1.16l2.332-.073v-.72a2.73,2.73,0,0,0-.6-1.935,2.464,2.464,0,0,0-1.874-.641,6.479,6.479,0,0,0-1.99.305,15.015,15.015,0,0,0-1.831.72l-.928-2.051a9.984,9.984,0,0,1,2.4-.873,11.067,11.067,0,0,1,2.466-.3,5.84,5.84,0,0,1,3.888,1.123,4.4,4.4,0,0,1,1.312,3.528V0ZM14.716-1.953a3.553,3.553,0,0,0,2.509-.873,3.164,3.164,0,0,0,.946-2.448V-6.445l-1.733.073a5.931,5.931,0,0,0-2.948.677,2.058,2.058,0,0,0-.922,1.849,1.8,1.8,0,0,0,.537,1.4A2.308,2.308,0,0,0,14.716-1.953ZM27.911,0H25.043V-13.5h2.869Zm-3.04-17.078a1.588,1.588,0,0,1,.421-1.184,1.641,1.641,0,0,1,1.2-.415,1.606,1.606,0,0,1,1.178.415,1.588,1.588,0,0,1,.421,1.184,1.559,1.559,0,0,1-.421,1.154A1.592,1.592,0,0,1,26.5-15.5a1.627,1.627,0,0,1-1.2-.421A1.559,1.559,0,0,1,24.872-17.078Zm13.989,3.333a6.906,6.906,0,0,1,1.428.122l-.281,2.673a5.422,5.422,0,0,0-1.27-.146A3.674,3.674,0,0,0,35.95-9.973a4.059,4.059,0,0,0-1.068,2.917V0H32.013V-13.5h2.246l.378,2.38h.146a5.349,5.349,0,0,1,1.752-1.917A4.164,4.164,0,0,1,38.861-13.745ZM48.187.244a6.531,6.531,0,0,1-4.926-1.837,6.974,6.974,0,0,1-1.776-5.06,7.652,7.652,0,0,1,1.648-5.2,5.692,5.692,0,0,1,4.529-1.892,5.563,5.563,0,0,1,4.224,1.624,6.2,6.2,0,0,1,1.55,4.468V-6.1h-9A4.434,4.434,0,0,0,45.5-3.082a3.7,3.7,0,0,0,2.82,1.056,10.41,10.41,0,0,0,2.228-.226A11.677,11.677,0,0,0,52.765-3V-.671a8.808,8.808,0,0,1-2.124.708A13.024,13.024,0,0,1,48.187.244Zm-.525-11.816a2.882,2.882,0,0,0-2.191.867,4.13,4.13,0,0,0-.983,2.527h6.128a3.737,3.737,0,0,0-.806-2.533A2.756,2.756,0,0,0,47.662-11.572ZM65.143,0l-.574-1.88h-.1A5.531,5.531,0,0,1,62.506-.2a6.215,6.215,0,0,1-2.539.446A4.3,4.3,0,0,1,56.86-.83a4.02,4.02,0,0,1-1.117-3.04,3.569,3.569,0,0,1,1.55-3.149,8.939,8.939,0,0,1,4.724-1.16l2.332-.073v-.72a2.73,2.73,0,0,0-.6-1.935,2.464,2.464,0,0,0-1.874-.641,6.479,6.479,0,0,0-1.99.305,15.015,15.015,0,0,0-1.831.72l-.928-2.051a9.984,9.984,0,0,1,2.4-.873,11.067,11.067,0,0,1,2.466-.3,5.84,5.84,0,0,1,3.888,1.123,4.4,4.4,0,0,1,1.312,3.528V0ZM60.87-1.953a3.553,3.553,0,0,0,2.509-.873,3.164,3.164,0,0,0,.946-2.448V-6.445l-1.733.073a5.931,5.931,0,0,0-2.948.677,2.058,2.058,0,0,0-.922,1.849,1.8,1.8,0,0,0,.537,1.4A2.308,2.308,0,0,0,60.87-1.953ZM76.642.244a5.911,5.911,0,0,1-4.657-1.788,7.472,7.472,0,0,1-1.593-5.133,7.514,7.514,0,0,1,1.666-5.237,6.181,6.181,0,0,1,4.816-1.831,9.025,9.025,0,0,1,3.845.793l-.867,2.307a8.688,8.688,0,0,0-3-.708q-3.5,0-3.5,4.651a5.57,5.57,0,0,0,.873,3.412,3.021,3.021,0,0,0,2.557,1.141A7.337,7.337,0,0,0,80.4-3.1V-.6A5.665,5.665,0,0,1,78.76.049,9.852,9.852,0,0,1,76.642.244ZM86.444,0H83.575V-13.5h2.869ZM83.4-17.078a1.588,1.588,0,0,1,.421-1.184,1.641,1.641,0,0,1,1.2-.415,1.606,1.606,0,0,1,1.178.415,1.588,1.588,0,0,1,.421,1.184,1.559,1.559,0,0,1-.421,1.154,1.592,1.592,0,0,1-1.178.421,1.627,1.627,0,0,1-1.2-.421A1.559,1.559,0,0,1,83.4-17.078Zm19.116,10.3a7.369,7.369,0,0,1-1.7,5.164A6.08,6.08,0,0,1,96.1.244,6.473,6.473,0,0,1,92.755-.61a5.641,5.641,0,0,1-2.234-2.454,8.357,8.357,0,0,1-.781-3.711A7.319,7.319,0,0,1,91.425-11.9a6.108,6.108,0,0,1,4.749-1.843,5.948,5.948,0,0,1,4.639,1.886A7.285,7.285,0,0,1,102.521-6.775Zm-9.827,0q0,4.675,3.455,4.675,3.418,0,3.418-4.675,0-4.626-3.442-4.626a2.935,2.935,0,0,0-2.618,1.2A6.088,6.088,0,0,0,92.694-6.775Zm1.575-8.374v-.305q.7-.854,1.434-1.9t1.166-1.794H100.2v.256a25.067,25.067,0,0,1-1.9,1.923,26.764,26.764,0,0,1-2.13,1.825ZM117.694,0h-2.881V-8.3a3.633,3.633,0,0,0-.629-2.332,2.43,2.43,0,0,0-2-.769,3.174,3.174,0,0,0-2.661,1.074,5.931,5.931,0,0,0-.842,3.6V0h-2.869V-13.5h2.246l.4,1.77h.146a3.994,3.994,0,0,1,1.733-1.489,5.809,5.809,0,0,1,2.49-.525q4.858,0,4.858,4.944Z" transform="translate(554 1007)" fill="#fff"/>
    <rect id="Rectángulo_1996" data-name="Rectángulo 1996" width="328" height="44" rx="5" transform="translate(796 977)" fill="#2b4e6a"/>
    <path id="Trazado_16987" data-name="Trazado 16987" d="M-122.1,0h-2.93V-8.044h-8.228V0h-2.917V-17.847h2.917v7.3h8.228v-7.3h2.93Zm13.916,0-.4-1.77h-.146a4.07,4.07,0,0,1-1.7,1.477,5.694,5.694,0,0,1-2.521.537A4.948,4.948,0,0,1-116.62-.977a5.06,5.06,0,0,1-1.208-3.7V-13.5h2.893v8.325A3.612,3.612,0,0,0-114.3-2.85a2.423,2.423,0,0,0,1.99.775,3.168,3.168,0,0,0,2.655-1.08,5.953,5.953,0,0,0,.848-3.619V-13.5h2.881V0ZM-90.46,0h-2.881V-8.325a3.775,3.775,0,0,0-.586-2.313,2.162,2.162,0,0,0-1.831-.763,2.793,2.793,0,0,0-2.435,1.08,6.338,6.338,0,0,0-.775,3.595V0h-2.869V-13.5h2.246l.4,1.77h.146a3.74,3.74,0,0,1,1.63-1.489,5.255,5.255,0,0,1,2.35-.525q3.113,0,4.126,2.124h.2a4.116,4.116,0,0,1,1.685-1.562,5.346,5.346,0,0,1,2.49-.562,4.535,4.535,0,0,1,3.522,1.221A5.406,5.406,0,0,1-81.94-8.8V0h-2.869V-8.325a3.746,3.746,0,0,0-.592-2.313,2.18,2.18,0,0,0-1.837-.763,2.847,2.847,0,0,0-2.448,1.044,5.38,5.38,0,0,0-.775,3.2Zm18.42.244a6.531,6.531,0,0,1-4.926-1.837,6.974,6.974,0,0,1-1.776-5.06,7.652,7.652,0,0,1,1.648-5.2,5.692,5.692,0,0,1,4.529-1.892,5.563,5.563,0,0,1,4.224,1.624,6.2,6.2,0,0,1,1.55,4.468V-6.1h-9a4.434,4.434,0,0,0,1.062,3.021,3.7,3.7,0,0,0,2.82,1.056,10.41,10.41,0,0,0,2.228-.226A11.678,11.678,0,0,0-67.462-3V-.671a8.808,8.808,0,0,1-2.124.708A13.024,13.024,0,0,1-72.04.244Zm-.525-11.816a2.882,2.882,0,0,0-2.191.867,4.13,4.13,0,0,0-.983,2.527h6.128a3.737,3.737,0,0,0-.806-2.533A2.756,2.756,0,0,0-72.565-11.572ZM-58.978.244a4.7,4.7,0,0,1-3.943-1.831,8.23,8.23,0,0,1-1.416-5.139A8.257,8.257,0,0,1-62.9-11.9a4.747,4.747,0,0,1,3.973-1.849,4.654,4.654,0,0,1,4.053,1.965h.146a17.2,17.2,0,0,1-.208-2.295v-4.919h2.881V0H-54.3l-.5-1.77h-.134A4.586,4.586,0,0,1-58.978.244Zm.769-2.319a3.122,3.122,0,0,0,2.576-.995A5.238,5.238,0,0,0-54.8-6.3v-.4a6.051,6.051,0,0,0-.83-3.625,3.079,3.079,0,0,0-2.6-1.074,2.638,2.638,0,0,0-2.332,1.227,6.287,6.287,0,0,0-.818,3.5,6.13,6.13,0,0,0,.793,3.424A2.679,2.679,0,0,0-58.209-2.075ZM-39.508,0l-.574-1.88h-.1A5.531,5.531,0,0,1-42.145-.2a6.215,6.215,0,0,1-2.539.446A4.3,4.3,0,0,1-47.791-.83a4.02,4.02,0,0,1-1.117-3.04,3.569,3.569,0,0,1,1.55-3.149,8.939,8.939,0,0,1,4.724-1.16l2.332-.073v-.72a2.73,2.73,0,0,0-.6-1.935,2.464,2.464,0,0,0-1.874-.641,6.479,6.479,0,0,0-1.99.305,15.015,15.015,0,0,0-1.831.72l-.928-2.051a9.984,9.984,0,0,1,2.4-.873,11.067,11.067,0,0,1,2.466-.3,5.84,5.84,0,0,1,3.888,1.123,4.4,4.4,0,0,1,1.312,3.528V0Zm-4.272-1.953a3.553,3.553,0,0,0,2.509-.873,3.164,3.164,0,0,0,.946-2.448V-6.445l-1.733.073a5.931,5.931,0,0,0-2.948.677,2.058,2.058,0,0,0-.922,1.849,1.8,1.8,0,0,0,.537,1.4A2.308,2.308,0,0,0-43.781-1.953ZM-28.9.244a4.7,4.7,0,0,1-3.943-1.831,8.23,8.23,0,0,1-1.416-5.139,8.257,8.257,0,0,1,1.434-5.17,4.747,4.747,0,0,1,3.973-1.849A4.654,4.654,0,0,1-24.8-11.78h.146a17.2,17.2,0,0,1-.208-2.295v-4.919h2.881V0h-2.246l-.5-1.77h-.134A4.586,4.586,0,0,1-28.9.244Zm.769-2.319a3.122,3.122,0,0,0,2.576-.995,5.238,5.238,0,0,0,.83-3.229v-.4a6.051,6.051,0,0,0-.83-3.625,3.079,3.079,0,0,0-2.6-1.074,2.638,2.638,0,0,0-2.332,1.227,6.287,6.287,0,0,0-.818,3.5,6.13,6.13,0,0,0,.793,3.424A2.679,2.679,0,0,0-28.131-2.075ZM-6.83.244a4.7,4.7,0,0,1-3.943-1.831,8.23,8.23,0,0,1-1.416-5.139,8.257,8.257,0,0,1,1.434-5.17,4.747,4.747,0,0,1,3.973-1.849A4.654,4.654,0,0,1-2.728-11.78h.146a17.2,17.2,0,0,1-.208-2.295v-4.919H.092V0H-2.155l-.5-1.77h-.134A4.586,4.586,0,0,1-6.83.244Zm.769-2.319A3.122,3.122,0,0,0-3.485-3.07,5.238,5.238,0,0,0-2.655-6.3v-.4a6.051,6.051,0,0,0-.83-3.625,3.079,3.079,0,0,0-2.6-1.074,2.638,2.638,0,0,0-2.332,1.227,6.287,6.287,0,0,0-.818,3.5,6.13,6.13,0,0,0,.793,3.424A2.679,2.679,0,0,0-6.061-2.075ZM10.089.244A6.531,6.531,0,0,1,5.164-1.593a6.974,6.974,0,0,1-1.776-5.06,7.652,7.652,0,0,1,1.648-5.2,5.692,5.692,0,0,1,4.529-1.892,5.563,5.563,0,0,1,4.224,1.624,6.2,6.2,0,0,1,1.55,4.468V-6.1h-9A4.434,4.434,0,0,0,7.4-3.082a3.7,3.7,0,0,0,2.82,1.056,10.41,10.41,0,0,0,2.228-.226A11.677,11.677,0,0,0,14.667-3V-.671a8.808,8.808,0,0,1-2.124.708A13.024,13.024,0,0,1,10.089.244ZM9.564-11.572a2.882,2.882,0,0,0-2.191.867A4.13,4.13,0,0,0,6.39-8.179h6.128a3.737,3.737,0,0,0-.806-2.533A2.756,2.756,0,0,0,9.564-11.572Zm24.6,7.727a3.533,3.533,0,0,1-1.44,3.033A6.9,6.9,0,0,1,28.595.244a9.746,9.746,0,0,1-4.333-.818V-3.052a10.639,10.639,0,0,0,4.431,1.1q2.649,0,2.649-1.6a1.267,1.267,0,0,0-.293-.854,3.467,3.467,0,0,0-.964-.708,16.6,16.6,0,0,0-1.868-.83,8.639,8.639,0,0,1-3.156-1.807,3.343,3.343,0,0,1-.824-2.344,3.078,3.078,0,0,1,1.4-2.692,6.633,6.633,0,0,1,3.8-.958,10.77,10.77,0,0,1,4.5.964l-.928,2.161a10.018,10.018,0,0,0-3.674-.9q-2.271,0-2.271,1.294a1.3,1.3,0,0,0,.592,1.074,13.02,13.02,0,0,0,2.582,1.208,11.8,11.8,0,0,1,2.429,1.184A3.539,3.539,0,0,1,33.8-5.524,3.586,3.586,0,0,1,34.161-3.845ZM46.783,0l-.4-1.77h-.146a4.07,4.07,0,0,1-1.7,1.477A5.694,5.694,0,0,1,42.01.244,4.948,4.948,0,0,1,38.348-.977a5.06,5.06,0,0,1-1.208-3.7V-13.5h2.893v8.325a3.612,3.612,0,0,0,.635,2.325,2.423,2.423,0,0,0,1.99.775,3.168,3.168,0,0,0,2.655-1.08,5.953,5.953,0,0,0,.848-3.619V-13.5h2.881V0ZM60.028-13.745a4.686,4.686,0,0,1,3.937,1.831,8.256,8.256,0,0,1,1.41,5.139,8.282,8.282,0,0,1-1.428,5.17A4.731,4.731,0,0,1,59.979.244,4.729,4.729,0,0,1,56-1.6h-.2L55.28,0H53.131V-18.994H56v4.517q0,.5-.049,1.489t-.073,1.257H56A4.556,4.556,0,0,1,60.028-13.745ZM59.283-11.4a2.916,2.916,0,0,0-2.5,1.019A5.93,5.93,0,0,0,56-6.97v.2A6.315,6.315,0,0,0,56.781-3.2a2.906,2.906,0,0,0,2.551,1.1,2.586,2.586,0,0,0,2.313-1.208A6.41,6.41,0,0,0,62.433-6.8Q62.433-11.4,59.283-11.4ZM77.777-3.845a3.533,3.533,0,0,1-1.44,3.033A6.9,6.9,0,0,1,72.211.244a9.746,9.746,0,0,1-4.333-.818V-3.052a10.639,10.639,0,0,0,4.431,1.1q2.649,0,2.649-1.6a1.267,1.267,0,0,0-.293-.854,3.467,3.467,0,0,0-.964-.708,16.6,16.6,0,0,0-1.868-.83,8.64,8.64,0,0,1-3.156-1.807,3.343,3.343,0,0,1-.824-2.344,3.078,3.078,0,0,1,1.4-2.692,6.633,6.633,0,0,1,3.8-.958,10.77,10.77,0,0,1,4.5.964L76.63-10.62a10.018,10.018,0,0,0-3.674-.9q-2.271,0-2.271,1.294a1.3,1.3,0,0,0,.592,1.074,13.02,13.02,0,0,0,2.582,1.208,11.8,11.8,0,0,1,2.429,1.184,3.539,3.539,0,0,1,1.123,1.239A3.586,3.586,0,0,1,77.777-3.845Zm8.13,1.77a6.976,6.976,0,0,0,2.1-.33V-.244A5.791,5.791,0,0,1,86.78.1a8.452,8.452,0,0,1-1.556.14q-4.077,0-4.077-4.3v-7.275H79.3V-12.6l1.978-1.05.977-2.856h1.77v3h3.845v2.173H84.027V-4.1a2.027,2.027,0,0,0,.519,1.532A1.891,1.891,0,0,0,85.907-2.075Zm11.646-11.67a6.906,6.906,0,0,1,1.428.122L98.7-10.95a5.422,5.422,0,0,0-1.27-.146,3.674,3.674,0,0,0-2.789,1.123,4.059,4.059,0,0,0-1.068,2.917V0H90.7V-13.5H92.95l.378,2.38h.146a5.349,5.349,0,0,1,1.752-1.917A4.164,4.164,0,0,1,97.552-13.745ZM109.43,0l-.574-1.88h-.1A5.531,5.531,0,0,1,106.793-.2a6.215,6.215,0,0,1-2.539.446A4.3,4.3,0,0,1,101.147-.83a4.02,4.02,0,0,1-1.117-3.04,3.569,3.569,0,0,1,1.55-3.149,8.939,8.939,0,0,1,4.724-1.16l2.332-.073v-.72a2.73,2.73,0,0,0-.6-1.935,2.464,2.464,0,0,0-1.874-.641,6.479,6.479,0,0,0-1.99.305,15.015,15.015,0,0,0-1.831.72l-.928-2.051a9.984,9.984,0,0,1,2.4-.873,11.067,11.067,0,0,1,2.466-.3,5.84,5.84,0,0,1,3.888,1.123,4.4,4.4,0,0,1,1.312,3.528V0Zm-4.272-1.953a3.553,3.553,0,0,0,2.509-.873,3.164,3.164,0,0,0,.946-2.448V-6.445l-1.733.073a5.931,5.931,0,0,0-2.948.677,2.058,2.058,0,0,0-.922,1.849,1.8,1.8,0,0,0,.537,1.4A2.308,2.308,0,0,0,105.157-1.953Zm15.356-.122a6.976,6.976,0,0,0,2.1-.33V-.244A5.791,5.791,0,0,1,121.387.1a8.452,8.452,0,0,1-1.556.14q-4.077,0-4.077-4.3v-7.275H113.91V-12.6l1.978-1.05.977-2.856h1.77v3h3.845v2.173h-3.845V-4.1a2.027,2.027,0,0,0,.519,1.532A1.891,1.891,0,0,0,120.514-2.075Zm16.772-4.7a7.369,7.369,0,0,1-1.7,5.164A6.08,6.08,0,0,1,130.865.244a6.473,6.473,0,0,1-3.345-.854,5.641,5.641,0,0,1-2.234-2.454,8.357,8.357,0,0,1-.781-3.711A7.319,7.319,0,0,1,126.19-11.9a6.108,6.108,0,0,1,4.749-1.843,5.948,5.948,0,0,1,4.639,1.886A7.285,7.285,0,0,1,137.286-6.775Zm-9.827,0q0,4.675,3.455,4.675,3.418,0,3.418-4.675,0-4.626-3.442-4.626a2.935,2.935,0,0,0-2.618,1.2A6.088,6.088,0,0,0,127.46-6.775Z" transform="translate(960 1007)" fill="#fff"/>
    <rect id="Rectángulo_1997" data-name="Rectángulo 1997" width="328" height="44" rx="5" transform="translate(1202 977)" fill="#e88b2e"/>
    <path id="Trazado_16988" data-name="Trazado 16988" d="M-69.452,0h-2.917V-15.344h-5.249v-2.5H-64.2v2.5h-5.249Zm11.829.244a6.531,6.531,0,0,1-4.926-1.837,6.974,6.974,0,0,1-1.776-5.06,7.652,7.652,0,0,1,1.648-5.2,5.692,5.692,0,0,1,4.529-1.892,5.563,5.563,0,0,1,4.224,1.624,6.2,6.2,0,0,1,1.55,4.468V-6.1h-9a4.434,4.434,0,0,0,1.062,3.021,3.7,3.7,0,0,0,2.82,1.056,10.41,10.41,0,0,0,2.228-.226A11.677,11.677,0,0,0-53.046-3V-.671A8.808,8.808,0,0,1-55.17.037,13.024,13.024,0,0,1-57.623.244Zm-.525-11.816a2.882,2.882,0,0,0-2.191.867,4.13,4.13,0,0,0-.983,2.527h6.128A3.737,3.737,0,0,0-56-10.712,2.756,2.756,0,0,0-58.148-11.572ZM-37.738,0h-2.881V-8.325a3.775,3.775,0,0,0-.586-2.313,2.162,2.162,0,0,0-1.831-.763,2.793,2.793,0,0,0-2.435,1.08,6.338,6.338,0,0,0-.775,3.595V0h-2.869V-13.5h2.246l.4,1.77h.146a3.74,3.74,0,0,1,1.63-1.489,5.255,5.255,0,0,1,2.35-.525q3.113,0,4.126,2.124h.2a4.116,4.116,0,0,1,1.685-1.562,5.346,5.346,0,0,1,2.49-.562,4.535,4.535,0,0,1,3.522,1.221,5.406,5.406,0,0,1,1.1,3.723V0h-2.869V-8.325a3.746,3.746,0,0,0-.592-2.313,2.18,2.18,0,0,0-1.837-.763,2.847,2.847,0,0,0-2.448,1.044,5.38,5.38,0,0,0-.775,3.2Zm19.373.244A4.729,4.729,0,0,1-22.345-1.6h-.171q.171,1.709.171,2.075v5.53h-2.869V-13.5h2.319q.1.378.4,1.807h.146a4.494,4.494,0,0,1,4.028-2.051,4.686,4.686,0,0,1,3.937,1.831,8.256,8.256,0,0,1,1.41,5.139A8.262,8.262,0,0,1-14.4-1.611,4.729,4.729,0,0,1-18.365.244Zm-.7-11.646a2.982,2.982,0,0,0-2.5,1,5.188,5.188,0,0,0-.787,3.2v.427A6.315,6.315,0,0,0-21.564-3.2a2.906,2.906,0,0,0,2.551,1.1A2.59,2.59,0,0,0-16.718-3.32,6.3,6.3,0,0,0-15.912-6.8a6.083,6.083,0,0,0-.8-3.436A2.667,2.667,0,0,0-19.061-11.4ZM-3.741.244A6.531,6.531,0,0,1-8.667-1.593a6.974,6.974,0,0,1-1.776-5.06,7.652,7.652,0,0,1,1.648-5.2,5.692,5.692,0,0,1,4.529-1.892A5.563,5.563,0,0,1-.043-12.122a6.2,6.2,0,0,1,1.55,4.468V-6.1h-9A4.434,4.434,0,0,0-6.427-3.082a3.7,3.7,0,0,0,2.82,1.056,10.41,10.41,0,0,0,2.228-.226A11.677,11.677,0,0,0,.836-3V-.671A8.808,8.808,0,0,1-1.288.037,13.024,13.024,0,0,1-3.741.244Zm-.525-11.816a2.882,2.882,0,0,0-2.191.867A4.13,4.13,0,0,0-7.44-8.179h6.128a3.737,3.737,0,0,0-.806-2.533A2.756,2.756,0,0,0-4.266-11.572Zm15.881-2.173a6.906,6.906,0,0,1,1.428.122l-.281,2.673a5.422,5.422,0,0,0-1.27-.146A3.674,3.674,0,0,0,8.7-9.973,4.059,4.059,0,0,0,7.635-7.056V0H4.767V-13.5H7.013l.378,2.38h.146A5.349,5.349,0,0,1,9.29-13.037,4.164,4.164,0,0,1,11.615-13.745ZM23.492,0l-.574-1.88h-.1A5.531,5.531,0,0,1,20.856-.2a6.215,6.215,0,0,1-2.539.446A4.3,4.3,0,0,1,15.21-.83a4.02,4.02,0,0,1-1.117-3.04,3.569,3.569,0,0,1,1.55-3.149,8.939,8.939,0,0,1,4.724-1.16L22.7-8.252v-.72a2.73,2.73,0,0,0-.6-1.935,2.464,2.464,0,0,0-1.874-.641,6.479,6.479,0,0,0-1.99.305,15.015,15.015,0,0,0-1.831.72l-.928-2.051a9.984,9.984,0,0,1,2.4-.873,11.067,11.067,0,0,1,2.466-.3,5.84,5.84,0,0,1,3.888,1.123,4.4,4.4,0,0,1,1.312,3.528V0ZM19.22-1.953a3.553,3.553,0,0,0,2.509-.873,3.164,3.164,0,0,0,.946-2.448V-6.445l-1.733.073a5.931,5.931,0,0,0-2.948.677,2.058,2.058,0,0,0-.922,1.849,1.8,1.8,0,0,0,.537,1.4A2.308,2.308,0,0,0,19.22-1.953Zm15.356-.122a6.976,6.976,0,0,0,2.1-.33V-.244A5.791,5.791,0,0,1,35.449.1a8.452,8.452,0,0,1-1.556.14q-4.077,0-4.077-4.3v-7.275H27.972V-12.6l1.978-1.05.977-2.856H32.7v3h3.845v2.173H32.7V-4.1a2.027,2.027,0,0,0,.519,1.532A1.891,1.891,0,0,0,34.576-2.075ZM48.9,0l-.4-1.77h-.146a4.07,4.07,0,0,1-1.7,1.477,5.694,5.694,0,0,1-2.521.537A4.948,4.948,0,0,1,40.46-.977a5.06,5.06,0,0,1-1.208-3.7V-13.5h2.893v8.325A3.612,3.612,0,0,0,42.78-2.85a2.423,2.423,0,0,0,1.99.775,3.168,3.168,0,0,0,2.655-1.08,5.953,5.953,0,0,0,.848-3.619V-13.5h2.881V0Zm13.2-13.745a6.906,6.906,0,0,1,1.428.122l-.281,2.673a5.422,5.422,0,0,0-1.27-.146A3.674,3.674,0,0,0,59.18-9.973a4.059,4.059,0,0,0-1.068,2.917V0H55.243V-13.5h2.246l.378,2.38h.146a5.349,5.349,0,0,1,1.752-1.917A4.164,4.164,0,0,1,62.091-13.745ZM73.969,0l-.574-1.88h-.1A5.531,5.531,0,0,1,71.332-.2a6.215,6.215,0,0,1-2.539.446A4.3,4.3,0,0,1,65.686-.83a4.02,4.02,0,0,1-1.117-3.04,3.569,3.569,0,0,1,1.55-3.149,8.939,8.939,0,0,1,4.724-1.16l2.332-.073v-.72a2.73,2.73,0,0,0-.6-1.935,2.464,2.464,0,0,0-1.874-.641,6.479,6.479,0,0,0-1.99.305,15.015,15.015,0,0,0-1.831.72l-.928-2.051a9.984,9.984,0,0,1,2.4-.873,11.067,11.067,0,0,1,2.466-.3,5.84,5.84,0,0,1,3.888,1.123,4.4,4.4,0,0,1,1.312,3.528V0ZM69.7-1.953A3.553,3.553,0,0,0,72.2-2.826a3.164,3.164,0,0,0,.946-2.448V-6.445l-1.733.073a5.931,5.931,0,0,0-2.948.677,2.058,2.058,0,0,0-.922,1.849,1.8,1.8,0,0,0,.537,1.4A2.308,2.308,0,0,0,69.7-1.953Z" transform="translate(1366 1007)" fill="#fff"/>
    <g id="Grupo_8604" data-name="Grupo 8604" transform="translate(462 835.169)">
      <path id="Trazado_16529" data-name="Trazado 16529" d="M549.178,758.994a8.248,8.248,0,0,0-2.118.283c-3.089.834-6.291-.239-5.269,29.254.1,2.768.154,5.286.2,7.7.429.276.856.541,1.286.811,4.819,3.021,9.6,5.608,12.231,6.982a50.023,50.023,0,0,1,13.6-1.986c4.137-.1,7.174.152,7.174.152a2.59,2.59,0,1,1-.375,5.167,78.89,78.89,0,0,0-14.724.669c1.835,1.594,4.289,3.795,6.85,6.282,5.192,5.043,10.849,10.98,12.839,16.588a2.585,2.585,0,1,1-4.864,1.722c-1.239-3.488-6.576-9.739-11.582-14.6-1.644-1.6-3.218-3.036-4.6-4.276,2.976,17.426,7.995,27.106,7.995,27.106a2.588,2.588,0,0,1-4.59,2.391s-6.541-12.579-9.393-34.26c-2.027-1.042-6.643-3.48-11.744-6.6.215,19.087-.264,27.863,5.928,48.6l.01.04c3.836,10.8,14.176,17.186,24.431,20.58,7.88,2.231,18.481,4.619,26.082,2.219,19.248-8.271,13.431-34.384,10.913-47.787-6.99-36.37-39.959-55.267-49.549-62.622-3.713-1.928-7.009-4.424-10.731-4.418Zm8.906,11.572a1.717,1.717,0,1,1-1.712,1.722A1.724,1.724,0,0,1,558.085,770.566Zm-2.928,16.283a1.818,1.818,0,0,1,.182,0,1.633,1.633,0,1,1-.182,0Zm16.922.223a1.722,1.722,0,1,1-1.723,1.723A1.716,1.716,0,0,1,572.078,787.072Zm19.029,13.761a1.717,1.717,0,1,1-1.722,1.723A1.716,1.716,0,0,1,591.108,800.833Zm-12.838,9.626a1.723,1.723,0,1,1-1.723,1.723A1.715,1.715,0,0,1,578.27,810.459ZM550.292,821.7a1.718,1.718,0,1,1-1.723,1.723A1.725,1.725,0,0,1,550.292,821.7Zm50.209,5.27a1.723,1.723,0,1,1-1.712,1.723A1.725,1.725,0,0,1,600.5,826.966ZM572.99,839.581a1.717,1.717,0,1,1-1.723,1.723A1.725,1.725,0,0,1,572.99,839.581Zm13.983,5.735a1.718,1.718,0,1,1-1.712,1.712A1.716,1.716,0,0,1,586.973,845.316Zm-6.191,7.336a1.718,1.718,0,1,1-1.712,1.712A1.715,1.715,0,0,1,580.783,852.653Zm19.718.911a1.723,1.723,0,1,1-1.712,1.723A1.726,1.726,0,0,1,600.5,853.564Zm-34.614,4.813a1.723,1.723,0,1,1-1.722,1.723A1.716,1.716,0,0,1,565.887,858.378Zm22.921,5.968a1.718,1.718,0,1,1-1.712,1.713A1.716,1.716,0,0,1,588.808,864.346Z" transform="translate(-441.174 -733.377)" fill="#70ad54"/>
      <path id="Trazado_16530" data-name="Trazado 16530" d="M439.55,758.994c-3.723-.007-7.018,2.489-10.731,4.418-9.591,7.354-42.56,26.253-49.551,62.622-2.518,13.4-8.335,39.515,10.914,47.787,7.6,2.4,18.2.013,26.082-2.219,10.255-3.394,20.6-9.785,24.43-20.58l.01-.04c6.19-20.731,5.713-29.508,5.928-48.587-4.664,2.847-8.988,5.154-11.258,6.333-2.82,21.963-9.464,34.736-9.464,34.736a2.586,2.586,0,1,1-4.683-2.195c.032-.067.066-.133.1-.2,0,0,5.136-9.936,8.1-27.8-1.5,1.334-3.27,2.948-5.127,4.752-5.006,4.862-10.344,11.113-11.582,14.6a2.585,2.585,0,1,1-4.974-1.41,2.529,2.529,0,0,1,.11-.312c1.991-5.609,7.648-11.545,12.839-16.588,2.5-2.43,4.9-4.576,6.718-6.161a79.823,79.823,0,0,0-14.166-.567,2.591,2.591,0,0,1-.375-5.168,70.792,70.792,0,0,1,7.164-.162,51.366,51.366,0,0,1,13.072,1.824c2.6-1.358,7.457-3.968,12.342-7.032.429-.269.86-.547,1.287-.821.048-2.412.106-4.926.2-7.691,1.023-29.493-2.18-28.42-5.269-29.253a8.272,8.272,0,0,0-2.118-.284Zm-9.474,12.717a1.722,1.722,0,1,1-1.712,1.722A1.725,1.725,0,0,1,430.076,771.711Zm2.756,16.283a1.717,1.717,0,1,1-1.723,1.723A1.725,1.725,0,0,1,432.832,787.994Zm-16.739.233a1.635,1.635,0,0,1,.172,0,1.811,1.811,0,1,1-.172,0Zm-19.03,13.751a1.723,1.723,0,1,1-1.722,1.723A1.724,1.724,0,0,1,397.063,801.978Zm12.839,9.636a1.618,1.618,0,0,1,.172,0,1.811,1.811,0,1,1-.172,0Zm27.977,11.228a1.722,1.722,0,1,1-1.723,1.722A1.716,1.716,0,0,1,437.878,822.842Zm-50.219,5.279a1.718,1.718,0,1,1-1.712,1.712A1.716,1.716,0,0,1,387.659,828.121Zm27.522,12.6a1.723,1.723,0,1,1-1.723,1.723A1.717,1.717,0,0,1,415.18,840.726Zm-13.994,5.735a1.717,1.717,0,1,1,0,3.435,1.717,1.717,0,0,1,0-3.435Zm6.191,7.336a1.717,1.717,0,1,1-1.723,1.723A1.724,1.724,0,0,1,407.378,853.8Zm-19.719.922a1.819,1.819,0,0,1,.182,0,1.806,1.806,0,1,1-.182,0Zm34.624,4.813a1.718,1.718,0,1,1-1.722,1.712A1.717,1.717,0,0,1,422.283,859.533Zm-22.931,5.958a1.718,1.718,0,1,1,0,3.436,1.718,1.718,0,0,1,0-3.436Z" transform="translate(-376.445 -733.378)" fill="#70ad54"/>
      <path id="Trazado_16531" data-name="Trazado 16531" d="M509.694,720.582a2.686,2.686,0,0,0-2.543,2.624v47.128a13.394,13.394,0,0,1-3.678,4.712c-1.04.923-2.257,1.875-3.567,2.837v6.333a67.71,67.71,0,0,0,7-5.319,28.172,28.172,0,0,0,3.476-3.5,28.147,28.147,0,0,0,3.485,3.5,68.266,68.266,0,0,0,7.245,5.482v-6.313c-1.406-1.024-2.715-2.038-3.82-3.02a13.288,13.288,0,0,1-3.668-4.712V723.207a2.58,2.58,0,0,0-3.222-2.544,2.579,2.579,0,0,0-.709-.081Z" transform="translate(-424.834 -718.323)" fill="#70ad54"/>
      <rect id="Rectángulo_1998" data-name="Rectángulo 1998" width="16.447" height="10.66" rx="4.266" transform="translate(77.331 30.108)" fill="#70ad54"/>
      <rect id="Rectángulo_1999" data-name="Rectángulo 1999" width="16.447" height="10.66" rx="4.266" transform="translate(77.331 20.072)" fill="#70ad54"/>
      <rect id="Rectángulo_2000" data-name="Rectángulo 2000" width="16.447" height="10.66" rx="4.266" transform="translate(77.331 10.036)" fill="#70ad54"/>
      <rect id="Rectángulo_2001" data-name="Rectángulo 2001" width="16.447" height="10.66" rx="4.266" transform="translate(77.331 40.144)" fill="#70ad54"/>
      <path id="Trazado_16532" data-name="Trazado 16532" d="M506.216,799.388a2.589,2.589,0,0,0-2.594,2.594v5.472a2.589,2.589,0,0,0,2.594,2.594h.406a7.788,7.788,0,0,1-.213-1.824c0-3.537,2.322-6.4,5.188-6.4s5.188,2.866,5.188,6.4a7.824,7.824,0,0,1-.213,1.824h.9a2.589,2.589,0,0,0,2.594-2.594v-5.472a2.589,2.589,0,0,0-2.594-2.594Z" transform="translate(-426.29 -749.21)" fill="#70ad54"/>
      <rect id="Rectángulo_2002" data-name="Rectángulo 2002" width="16.447" height="10.66" rx="4.266" transform="translate(77.331)" fill="#70ad54"/>
    </g>
    <g id="Grupo_8605" data-name="Grupo 8605" transform="translate(-520.791 270.129)">
      <path id="Trazado_16533" data-name="Trazado 16533" d="M1435.971,613.751a5.245,5.245,0,0,0,5.245,5.245h65.973a5.245,5.245,0,0,0,0-10.49h-65.973A5.245,5.245,0,0,0,1435.971,613.751Z" transform="translate(-7.566 -7.466)" fill="#bc8e75"/>
      <path id="Trazado_16534" data-name="Trazado 16534" d="M1553.3,619h22.15a5.245,5.245,0,1,0,0-10.49H1553.3a5.245,5.245,0,0,0,0,10.49Z" transform="translate(-35.663 -7.466)" fill="#bc8e75"/>
      <path id="Trazado_16535" data-name="Trazado 16535" d="M1414.417,648.777h53.725a5.245,5.245,0,1,0,0-10.49h-53.725a5.245,5.245,0,0,0,0,10.49Z" transform="translate(-0.848 -14.931)" fill="#bc8e75"/>
      <path id="Trazado_16536" data-name="Trazado 16536" d="M1537.548,643.532a5.245,5.245,0,0,0-5.245-5.245h-22.15a5.245,5.245,0,0,0,0,10.49h22.15A5.245,5.245,0,0,0,1537.548,643.532Z" transform="translate(-24.847 -14.931)" fill="#5fc8d7"/>
      <path id="Trazado_16537" data-name="Trazado 16537" d="M1563.749,648.777h22.15a5.245,5.245,0,0,0,0-10.49h-22.15a5.245,5.245,0,0,0,0,10.49Z" transform="translate(-38.283 -14.931)" fill="#bc8e75"/>
      <path id="Trazado_16538" data-name="Trazado 16538" d="M1575.336,578.725h-53.725a5.245,5.245,0,0,0,0,10.49h53.725a5.245,5.245,0,0,0,0-10.49Z" transform="translate(-27.72)" fill="#bc8e75"/>
      <path id="Trazado_16539" data-name="Trazado 16539" d="M1490.165,589.215a5.245,5.245,0,0,0,0-10.49h-22.151a5.245,5.245,0,0,0,0,10.49Z" transform="translate(-14.284)" fill="#bc8e75"/>
      <path id="Trazado_16540" data-name="Trazado 16540" d="M1436.568,578.725h-22.151a5.245,5.245,0,0,0,0,10.49h22.151a5.245,5.245,0,1,0,0-10.49Z" transform="translate(-0.848)" fill="#bc8e75"/>
      <path id="Trazado_16541" data-name="Trazado 16541" d="M1426.743,729.727a20.975,20.975,0,0,0,20.952-20.952c0-2.964-.894-8.356-8.618-20.909-3.991-6.485-7.924-11.8-8.09-12.027l-4.244-5.725-4.244,5.725c-.166.223-4.1,5.542-8.09,12.027-7.725,12.553-8.618,17.945-8.618,20.909A20.975,20.975,0,0,0,1426.743,729.727Z" transform="translate(0 -22.91)" fill="#2b4e6a"/>
      <path id="Trazado_16542" data-name="Trazado 16542" d="M1510.943,687.867c-3.99-6.485-7.924-11.8-8.089-12.027l-4.244-5.725-4.244,5.725c-.166.223-4.1,5.542-8.09,12.027-7.725,12.553-8.618,17.945-8.618,20.909a20.951,20.951,0,1,0,41.9,0C1519.56,705.812,1518.667,700.42,1510.943,687.867Z" transform="translate(-18.016 -22.91)" fill="#2b4e6a"/>
      <path id="Trazado_16543" data-name="Trazado 16543" d="M1582.809,687.867c-3.99-6.485-7.924-11.8-8.089-12.027l-4.243-5.725-4.244,5.725c-.166.223-4.1,5.542-8.089,12.027-7.725,12.553-8.618,17.945-8.618,20.909a20.951,20.951,0,1,0,41.9,0C1591.427,705.812,1590.534,700.42,1582.809,687.867Z" transform="translate(-36.032 -22.91)" fill="#2b4e6a"/>
    </g>
    <g id="Grupo_8606" data-name="Grupo 8606" transform="translate(88.935 -51)">
      <rect id="Rectángulo_2003" data-name="Rectángulo 2003" height="20.953" transform="translate(1290.203 940.52)" fill="#00859e"/>
      <rect id="Rectángulo_2004" data-name="Rectángulo 2004" height="20.953" transform="translate(1245.662 940.52)" fill="#00859e"/>
      <path id="Trazado_16546" data-name="Trazado 16546" d="M2317.068,202.624V154.591a22.27,22.27,0,1,0-44.541,0v56.572a33.347,33.347,0,1,0,45.831,1.216q-.627-.622-1.29-1.216h0Zm-22.27,56.583a23.221,23.221,0,0,1-14.124-41.655l1.979-1.519V154.591a12.145,12.145,0,1,1,24.29,0v61.442l1.979,1.519a23.221,23.221,0,0,1-14.124,41.655Z" transform="translate(-1026.865 758.848)" fill="#e88b2e"/>
      <path id="Trazado_16547" data-name="Trazado 16547" d="M2314.761,235.934V168.283a5.073,5.073,0,1,0-10.146,0v67.651a14.648,14.648,0,1,0,10.146,0Z" transform="translate(-1041.755 745.157)" fill="#e88b2e"/>
      <path id="Trazado_16548" data-name="Trazado 16548" d="M1435.971,613.175a4.669,4.669,0,0,0,4.669,4.669h58.723a4.669,4.669,0,0,0,0-9.338H1440.64A4.669,4.669,0,0,0,1435.971,613.175Z" transform="translate(-275.357 346.752)" fill="#bc8e75"/>
      <path id="Trazado_16549" data-name="Trazado 16549" d="M1552.72,617.844h19.716a4.669,4.669,0,1,0,0-9.338H1552.72a4.669,4.669,0,1,0,0,9.338Z" transform="translate(-252.155 346.752)" fill="#bc8e75"/>
      <path id="Trazado_16550" data-name="Trazado 16550" d="M1413.841,647.625h47.821a4.669,4.669,0,1,0,0-9.338h-47.821a4.669,4.669,0,1,0,0,9.338Z" transform="translate(-237.948 336.834)" fill="#bc8e75"/>
      <path id="Trazado_16551" data-name="Trazado 16551" d="M1563.173,647.625h19.716a4.669,4.669,0,1,0,0-9.338h-19.716a4.669,4.669,0,0,0,0,9.338Z" transform="translate(-233.383 336.834)" fill="#bc8e75"/>
      <path id="Trazado_16552" data-name="Trazado 16552" d="M1568.856,578.725h-47.822a4.669,4.669,0,0,0,0,9.338h47.822a4.669,4.669,0,0,0,0-9.338Z" transform="translate(-218.46 356.669)" fill="#bc8e75"/>
      <path id="Trazado_16553" data-name="Trazado 16553" d="M1433.558,578.725h-19.717a4.669,4.669,0,1,0,0,9.338h19.717a4.669,4.669,0,0,0,0-9.338Z" transform="translate(-205.904 356.669)" fill="#bc8e75"/>
    </g>
    <rect id="Rectángulo_2005" data-name="Rectángulo 2005" width="328" height="44" rx="5" transform="translate(390 1196)" fill="#7140e2"/>
    <path id="Trazado_16991" data-name="Trazado 16991" d="M-2.905-12.451A5.2,5.2,0,0,1-4.736-8.167,8.067,8.067,0,0,1-9.949-6.677H-11.8V0h-2.917V-17.847h5.139a7.775,7.775,0,0,1,5.011,1.367A4.908,4.908,0,0,1-2.905-12.451Zm-8.9,3.32h1.55a5.555,5.555,0,0,0,3.3-.781,2.843,2.843,0,0,0,1.05-2.441,2.77,2.77,0,0,0-.94-2.295,4.642,4.642,0,0,0-2.93-.757H-11.8ZM14.734,0H11.8V-8.044H3.577V0H.659V-17.847H3.577v7.3H11.8v-7.3h2.93Z" transform="translate(554 1226)" fill="#fff"/>
    <rect id="Rectángulo_2006" data-name="Rectángulo 2006" width="328" height="44" rx="5" transform="translate(796 1196)" fill="#576eac"/>
    <path id="Trazado_16990" data-name="Trazado 16990" d="M-70.294-9.546h2.026a4.627,4.627,0,0,0,2.954-.757,2.746,2.746,0,0,0,.916-2.246,2.417,2.417,0,0,0-.989-2.173,5.421,5.421,0,0,0-2.979-.659h-1.929Zm0,2.417V0h-2.917V-17.847h5.042a8.283,8.283,0,0,1,5.115,1.294,4.646,4.646,0,0,1,1.66,3.906q0,3.333-3.467,4.749L-59.821,0h-3.32l-4.272-7.129ZM-51.642.244a6.531,6.531,0,0,1-4.926-1.837,6.974,6.974,0,0,1-1.776-5.06,7.652,7.652,0,0,1,1.648-5.2,5.692,5.692,0,0,1,4.529-1.892,5.563,5.563,0,0,1,4.224,1.624,6.2,6.2,0,0,1,1.55,4.468V-6.1h-9a4.434,4.434,0,0,0,1.062,3.021,3.7,3.7,0,0,0,2.82,1.056,10.41,10.41,0,0,0,2.228-.226A11.677,11.677,0,0,0-47.064-3V-.671a8.808,8.808,0,0,1-2.124.708A13.024,13.024,0,0,1-51.642.244Zm-.525-11.816a2.882,2.882,0,0,0-2.191.867,4.13,4.13,0,0,0-.983,2.527h6.128a3.737,3.737,0,0,0-.806-2.533A2.756,2.756,0,0,0-52.167-11.572ZM-40.265,0h-2.869V-18.994h2.869Zm12.549,0-.574-1.88h-.1A5.531,5.531,0,0,1-30.353-.2a6.215,6.215,0,0,1-2.539.446A4.3,4.3,0,0,1-36-.83a4.02,4.02,0,0,1-1.117-3.04,3.569,3.569,0,0,1,1.55-3.149,8.939,8.939,0,0,1,4.724-1.16l2.332-.073v-.72a2.73,2.73,0,0,0-.6-1.935,2.464,2.464,0,0,0-1.874-.641,6.479,6.479,0,0,0-1.99.305,15.015,15.015,0,0,0-1.831.72l-.928-2.051a9.984,9.984,0,0,1,2.4-.873,11.067,11.067,0,0,1,2.466-.3,5.84,5.84,0,0,1,3.888,1.123,4.4,4.4,0,0,1,1.312,3.528V0Zm-4.272-1.953a3.553,3.553,0,0,0,2.509-.873,3.164,3.164,0,0,0,.946-2.448V-6.445l-1.733.073a5.931,5.931,0,0,0-2.948.677,2.058,2.058,0,0,0-.922,1.849,1.8,1.8,0,0,0,.537,1.4A2.308,2.308,0,0,0-31.989-1.953Zm15.771,2.2a5.911,5.911,0,0,1-4.657-1.788,7.472,7.472,0,0,1-1.593-5.133A7.514,7.514,0,0,1-20.8-11.914a6.181,6.181,0,0,1,4.816-1.831,9.025,9.025,0,0,1,3.845.793l-.867,2.307a8.688,8.688,0,0,0-3-.708q-3.5,0-3.5,4.651A5.57,5.57,0,0,0-18.64-3.29a3.021,3.021,0,0,0,2.557,1.141A7.337,7.337,0,0,0-12.457-3.1V-.6A5.665,5.665,0,0,1-14.1.049,9.852,9.852,0,0,1-16.217.244ZM-6.415,0H-9.283V-13.5h2.869Zm-3.04-17.078a1.588,1.588,0,0,1,.421-1.184,1.641,1.641,0,0,1,1.2-.415,1.606,1.606,0,0,1,1.178.415,1.588,1.588,0,0,1,.421,1.184,1.559,1.559,0,0,1-.421,1.154,1.592,1.592,0,0,1-1.178.421,1.627,1.627,0,0,1-1.2-.421A1.559,1.559,0,0,1-9.454-17.078ZM9.662-6.775a7.369,7.369,0,0,1-1.7,5.164A6.08,6.08,0,0,1,3.241.244,6.473,6.473,0,0,1-.1-.61,5.641,5.641,0,0,1-2.338-3.064a8.357,8.357,0,0,1-.781-3.711A7.319,7.319,0,0,1-1.434-11.9a6.108,6.108,0,0,1,4.749-1.843,5.948,5.948,0,0,1,4.639,1.886A7.285,7.285,0,0,1,9.662-6.775Zm-9.827,0Q-.165-2.1,3.29-2.1q3.418,0,3.418-4.675,0-4.626-3.442-4.626a2.935,2.935,0,0,0-2.618,1.2A6.088,6.088,0,0,0-.165-6.775ZM1.41-15.149v-.305q.7-.854,1.434-1.9T4.01-19.153H7.343v.256a25.067,25.067,0,0,1-1.9,1.923,26.764,26.764,0,0,1-2.13,1.825ZM24.835,0H21.954V-8.3a3.633,3.633,0,0,0-.629-2.332,2.43,2.43,0,0,0-2-.769,3.174,3.174,0,0,0-2.661,1.074,5.931,5.931,0,0,0-.842,3.6V0H12.958V-13.5H15.2l.4,1.77h.146a3.994,3.994,0,0,1,1.733-1.489,5.809,5.809,0,0,1,2.49-.525q4.858,0,4.858,4.944ZM43.219-15.6a4.809,4.809,0,0,0-3.955,1.782A7.618,7.618,0,0,0,37.823-8.9a7.669,7.669,0,0,0,1.385,4.968,4.894,4.894,0,0,0,4.01,1.685,10.537,10.537,0,0,0,2.2-.226q1.062-.226,2.209-.58v2.5a13.4,13.4,0,0,1-4.761.793A7.609,7.609,0,0,1,36.847-2.13q-2.1-2.374-2.1-6.793a10.977,10.977,0,0,1,1.019-4.871,7.275,7.275,0,0,1,2.948-3.2A8.917,8.917,0,0,1,43.243-18.1,11.239,11.239,0,0,1,48.3-16.956l-1.05,2.429a15.674,15.674,0,0,0-1.91-.751A6.883,6.883,0,0,0,43.219-15.6Zm7.52,14.075A1.88,1.88,0,0,1,51.2-2.893a1.791,1.791,0,0,1,1.343-.476,1.769,1.769,0,0,1,1.355.494,1.892,1.892,0,0,1,.464,1.349,1.94,1.94,0,0,1-.47,1.373,1.749,1.749,0,0,1-1.349.507,1.741,1.741,0,0,1-1.343-.5A1.951,1.951,0,0,1,50.739-1.526Zm0-10.425a1.613,1.613,0,0,1,1.807-1.843,1.774,1.774,0,0,1,1.367.488,1.919,1.919,0,0,1,.452,1.355,1.94,1.94,0,0,1-.47,1.373,1.749,1.749,0,0,1-1.349.507,1.741,1.741,0,0,1-1.343-.5A1.951,1.951,0,0,1,50.739-11.951ZM73.212,0H69.635L60.858-14.221h-.1l.061.793q.171,2.271.171,4.15V0H58.344V-17.847h3.54L70.636-3.7h.073q-.024-.281-.1-2.045T70.538-8.5v-9.351h2.673Z" transform="translate(960 1226)" fill="#fff"/>
    <rect id="Rectángulo_2008" data-name="Rectángulo 2008" width="411" height="44" rx="5" transform="translate(755 1407)" fill="#4d6018"/>
    <path id="Trazado_16992" data-name="Trazado 16992" d="M-151.08,0l-5.176-14.9h-.1q.208,3.32.208,6.226V0H-158.8V-17.847h4.114l4.956,14.2h.073l5.1-14.2h4.126V0h-2.808V-8.826q0-1.331.067-3.467t.116-2.588h-.1L-148.5,0Zm23.5,0-.574-1.88h-.1A5.531,5.531,0,0,1-130.219-.2a6.215,6.215,0,0,1-2.539.446A4.3,4.3,0,0,1-135.864-.83a4.02,4.02,0,0,1-1.117-3.04,3.569,3.569,0,0,1,1.55-3.149,8.939,8.939,0,0,1,4.724-1.16l2.332-.073v-.72a2.73,2.73,0,0,0-.6-1.935,2.464,2.464,0,0,0-1.874-.641,6.479,6.479,0,0,0-1.99.305,15.015,15.015,0,0,0-1.831.72l-.928-2.051a9.984,9.984,0,0,1,2.4-.873,11.067,11.067,0,0,1,2.466-.3,5.84,5.84,0,0,1,3.888,1.123,4.4,4.4,0,0,1,1.312,3.528V0Zm-4.272-1.953a3.553,3.553,0,0,0,2.509-.873,3.164,3.164,0,0,0,.946-2.448V-6.445l-1.733.073a5.931,5.931,0,0,0-2.948.677A2.058,2.058,0,0,0-134-3.845a1.8,1.8,0,0,0,.537,1.4A2.308,2.308,0,0,0-131.854-1.953Zm15.356-.122a6.976,6.976,0,0,0,2.1-.33V-.244A5.791,5.791,0,0,1-115.625.1a8.452,8.452,0,0,1-1.556.14q-4.077,0-4.077-4.3v-7.275H-123.1V-12.6l1.978-1.05.977-2.856h1.77v3h3.845v2.173h-3.845V-4.1a2.027,2.027,0,0,0,.519,1.532A1.891,1.891,0,0,0-116.5-2.075ZM-105.8.244a6.531,6.531,0,0,1-4.926-1.837,6.974,6.974,0,0,1-1.776-5.06,7.652,7.652,0,0,1,1.648-5.2,5.692,5.692,0,0,1,4.529-1.892,5.563,5.563,0,0,1,4.224,1.624,6.2,6.2,0,0,1,1.55,4.468V-6.1h-9a4.434,4.434,0,0,0,1.062,3.021,3.7,3.7,0,0,0,2.82,1.056,10.41,10.41,0,0,0,2.228-.226A11.678,11.678,0,0,0-101.227-3V-.671a8.808,8.808,0,0,1-2.124.708A13.024,13.024,0,0,1-105.8.244Zm-.525-11.816a2.882,2.882,0,0,0-2.191.867,4.13,4.13,0,0,0-.983,2.527h6.128a3.737,3.737,0,0,0-.806-2.533A2.756,2.756,0,0,0-106.329-11.572Zm15.881-2.173a6.906,6.906,0,0,1,1.428.122L-89.3-10.95a5.422,5.422,0,0,0-1.27-.146,3.674,3.674,0,0,0-2.789,1.123,4.059,4.059,0,0,0-1.068,2.917V0H-97.3V-13.5h2.246l.378,2.38h.146a5.349,5.349,0,0,1,1.752-1.917A4.164,4.164,0,0,1-90.448-13.745ZM-83.649,0h-2.869V-13.5h2.869Zm-3.04-17.078a1.588,1.588,0,0,1,.421-1.184,1.641,1.641,0,0,1,1.2-.415,1.606,1.606,0,0,1,1.178.415,1.588,1.588,0,0,1,.421,1.184,1.559,1.559,0,0,1-.421,1.154,1.592,1.592,0,0,1-1.178.421,1.627,1.627,0,0,1-1.2-.421A1.559,1.559,0,0,1-86.688-17.078ZM-71.1,0l-.574-1.88h-.1A5.531,5.531,0,0,1-73.737-.2a6.215,6.215,0,0,1-2.539.446A4.3,4.3,0,0,1-79.382-.83,4.02,4.02,0,0,1-80.5-3.87a3.569,3.569,0,0,1,1.55-3.149,8.939,8.939,0,0,1,4.724-1.16l2.332-.073v-.72a2.73,2.73,0,0,0-.6-1.935,2.464,2.464,0,0,0-1.874-.641,6.479,6.479,0,0,0-1.99.305,15.015,15.015,0,0,0-1.831.72l-.928-2.051a9.984,9.984,0,0,1,2.4-.873,11.067,11.067,0,0,1,2.466-.3,5.84,5.84,0,0,1,3.888,1.123,4.4,4.4,0,0,1,1.312,3.528V0Zm-4.272-1.953a3.553,3.553,0,0,0,2.509-.873,3.164,3.164,0,0,0,.946-2.448V-6.445l-1.733.073a5.931,5.931,0,0,0-2.948.677,2.058,2.058,0,0,0-.922,1.849,1.8,1.8,0,0,0,.537,1.4A2.308,2.308,0,0,0-75.372-1.953Zm28.943-10.5A5.2,5.2,0,0,1-48.26-8.167a8.067,8.067,0,0,1-5.212,1.489h-1.855V0h-2.917V-17.847h5.139A7.775,7.775,0,0,1-48.1-16.479,4.908,4.908,0,0,1-46.429-12.451Zm-8.9,3.32h1.55a5.555,5.555,0,0,0,3.3-.781,2.843,2.843,0,0,0,1.05-2.441,2.77,2.77,0,0,0-.94-2.295,4.642,4.642,0,0,0-2.93-.757h-2.026Zm19.006-4.614a6.906,6.906,0,0,1,1.428.122l-.281,2.673a5.422,5.422,0,0,0-1.27-.146,3.674,3.674,0,0,0-2.789,1.123A4.059,4.059,0,0,0-40.3-7.056V0H-43.17V-13.5h2.246l.378,2.38h.146a5.349,5.349,0,0,1,1.752-1.917A4.164,4.164,0,0,1-36.322-13.745ZM-29.523,0h-2.869V-13.5h2.869Zm-3.04-17.078a1.588,1.588,0,0,1,.421-1.184,1.641,1.641,0,0,1,1.2-.415,1.606,1.606,0,0,1,1.178.415,1.588,1.588,0,0,1,.421,1.184,1.559,1.559,0,0,1-.421,1.154,1.592,1.592,0,0,1-1.178.421,1.627,1.627,0,0,1-1.2-.421A1.559,1.559,0,0,1-32.562-17.078ZM-14.044,0h-2.881V-8.325a3.775,3.775,0,0,0-.586-2.313,2.162,2.162,0,0,0-1.831-.763,2.793,2.793,0,0,0-2.435,1.08,6.338,6.338,0,0,0-.775,3.595V0h-2.869V-13.5h2.246l.4,1.77h.146A3.74,3.74,0,0,1-21-13.22a5.255,5.255,0,0,1,2.35-.525q3.113,0,4.126,2.124h.2a4.116,4.116,0,0,1,1.685-1.562,5.346,5.346,0,0,1,2.49-.562,4.535,4.535,0,0,1,3.522,1.221A5.406,5.406,0,0,1-5.524-8.8V0H-8.392V-8.325a3.746,3.746,0,0,0-.592-2.313,2.18,2.18,0,0,0-1.837-.763,2.847,2.847,0,0,0-2.448,1.044,5.38,5.38,0,0,0-.775,3.2ZM6.927,0,6.354-1.88h-.1A5.531,5.531,0,0,1,4.291-.2,6.215,6.215,0,0,1,1.752.244,4.3,4.3,0,0,1-1.355-.83,4.02,4.02,0,0,1-2.472-3.87,3.569,3.569,0,0,1-.922-7.019,8.939,8.939,0,0,1,3.8-8.179l2.332-.073v-.72a2.73,2.73,0,0,0-.6-1.935,2.464,2.464,0,0,0-1.874-.641,6.479,6.479,0,0,0-1.99.305,15.015,15.015,0,0,0-1.831.72l-.928-2.051a9.984,9.984,0,0,1,2.4-.873,11.067,11.067,0,0,1,2.466-.3,5.84,5.84,0,0,1,3.888,1.123A4.4,4.4,0,0,1,8.978-9.094V0ZM2.655-1.953a3.553,3.553,0,0,0,2.509-.873A3.164,3.164,0,0,0,6.11-5.273V-6.445l-1.733.073a5.931,5.931,0,0,0-2.948.677A2.058,2.058,0,0,0,.507-3.845a1.8,1.8,0,0,0,.537,1.4A2.308,2.308,0,0,0,2.655-1.953Zm19.4-1.892a3.533,3.533,0,0,1-1.44,3.033A6.9,6.9,0,0,1,16.486.244a9.746,9.746,0,0,1-4.333-.818V-3.052a10.639,10.639,0,0,0,4.431,1.1q2.649,0,2.649-1.6a1.267,1.267,0,0,0-.293-.854,3.467,3.467,0,0,0-.964-.708,16.6,16.6,0,0,0-1.868-.83,8.639,8.639,0,0,1-3.156-1.807,3.343,3.343,0,0,1-.824-2.344,3.078,3.078,0,0,1,1.4-2.692,6.633,6.633,0,0,1,3.8-.958,10.77,10.77,0,0,1,4.5.964L20.9-10.62a10.018,10.018,0,0,0-3.674-.9q-2.271,0-2.271,1.294a1.3,1.3,0,0,0,.592,1.074,13.02,13.02,0,0,0,2.582,1.208,11.8,11.8,0,0,1,2.429,1.184,3.539,3.539,0,0,1,1.123,1.239A3.586,3.586,0,0,1,22.052-3.845ZM42.047,0h-10.1V-17.847h10.1v2.466H34.869v4.858H41.6v2.441H34.869v5.6h7.178ZM56.976,0H54.1V-8.325a3.775,3.775,0,0,0-.586-2.313,2.162,2.162,0,0,0-1.831-.763,2.793,2.793,0,0,0-2.435,1.08,6.338,6.338,0,0,0-.775,3.595V0H45.6V-13.5h2.246l.4,1.77h.146a3.74,3.74,0,0,1,1.63-1.489,5.255,5.255,0,0,1,2.35-.525q3.113,0,4.126,2.124h.2a4.116,4.116,0,0,1,1.685-1.562,5.346,5.346,0,0,1,2.49-.562,4.535,4.535,0,0,1,3.522,1.221A5.406,5.406,0,0,1,65.5-8.8V0H62.628V-8.325a3.746,3.746,0,0,0-.592-2.313A2.18,2.18,0,0,0,60.2-11.4a2.847,2.847,0,0,0-2.448,1.044,5.38,5.38,0,0,0-.775,3.2ZM76.349.244A4.729,4.729,0,0,1,72.369-1.6H72.2Q72.369.11,72.369.476v5.53H69.5V-13.5H71.82q.1.378.4,1.807h.146A4.494,4.494,0,0,1,76.4-13.745a4.686,4.686,0,0,1,3.937,1.831,8.256,8.256,0,0,1,1.41,5.139A8.262,8.262,0,0,1,80.31-1.611,4.729,4.729,0,0,1,76.349.244Zm-.7-11.646a2.982,2.982,0,0,0-2.5,1,5.188,5.188,0,0,0-.787,3.2v.427A6.315,6.315,0,0,0,73.151-3.2,2.906,2.906,0,0,0,75.7-2.1,2.59,2.59,0,0,0,78-3.32,6.3,6.3,0,0,0,78.8-6.8a6.083,6.083,0,0,0-.8-3.436A2.667,2.667,0,0,0,75.653-11.4ZM87.946,0H85.077V-18.994h2.869Zm10,.244a6.531,6.531,0,0,1-4.926-1.837,6.974,6.974,0,0,1-1.776-5.06,7.652,7.652,0,0,1,1.648-5.2,5.692,5.692,0,0,1,4.529-1.892,5.563,5.563,0,0,1,4.224,1.624,6.2,6.2,0,0,1,1.55,4.468V-6.1h-9a4.434,4.434,0,0,0,1.062,3.021,3.7,3.7,0,0,0,2.82,1.056,10.41,10.41,0,0,0,2.228-.226A11.678,11.678,0,0,0,102.521-3V-.671A8.808,8.808,0,0,1,100.4.037,13.024,13.024,0,0,1,97.943.244Zm-.525-11.816a2.882,2.882,0,0,0-2.191.867,4.13,4.13,0,0,0-.983,2.527h6.128a3.737,3.737,0,0,0-.806-2.533A2.756,2.756,0,0,0,97.418-11.572ZM114.9,0l-.574-1.88h-.1A5.531,5.531,0,0,1,112.262-.2a6.215,6.215,0,0,1-2.539.446A4.3,4.3,0,0,1,106.616-.83,4.02,4.02,0,0,1,105.5-3.87a3.569,3.569,0,0,1,1.55-3.149,8.939,8.939,0,0,1,4.724-1.16l2.332-.073v-.72a2.73,2.73,0,0,0-.6-1.935,2.464,2.464,0,0,0-1.874-.641,6.479,6.479,0,0,0-1.99.305,15.015,15.015,0,0,0-1.831.72l-.928-2.051a9.984,9.984,0,0,1,2.4-.873,11.067,11.067,0,0,1,2.466-.3,5.84,5.84,0,0,1,3.888,1.123,4.4,4.4,0,0,1,1.312,3.528V0Zm-4.272-1.953a3.553,3.553,0,0,0,2.509-.873,3.164,3.164,0,0,0,.946-2.448V-6.445l-1.733.073a5.931,5.931,0,0,0-2.948.677,2.058,2.058,0,0,0-.922,1.849,1.8,1.8,0,0,0,.537,1.4A2.308,2.308,0,0,0,110.626-1.953Zm14.88,2.2a4.7,4.7,0,0,1-3.943-1.831,8.23,8.23,0,0,1-1.416-5.139,8.257,8.257,0,0,1,1.434-5.17,4.747,4.747,0,0,1,3.973-1.849,4.654,4.654,0,0,1,4.053,1.965h.146a17.2,17.2,0,0,1-.208-2.295v-4.919h2.881V0h-2.246l-.5-1.77h-.134A4.586,4.586,0,0,1,125.507.244Zm.769-2.319a3.122,3.122,0,0,0,2.576-.995,5.238,5.238,0,0,0,.83-3.229v-.4a6.051,6.051,0,0,0-.83-3.625,3.079,3.079,0,0,0-2.6-1.074,2.638,2.638,0,0,0-2.332,1.227,6.287,6.287,0,0,0-.818,3.5,6.13,6.13,0,0,0,.793,3.424A2.679,2.679,0,0,0,126.276-2.075ZM144.977,0,144.4-1.88h-.1A5.531,5.531,0,0,1,142.34-.2,6.215,6.215,0,0,1,139.8.244,4.3,4.3,0,0,1,136.694-.83a4.02,4.02,0,0,1-1.117-3.04,3.569,3.569,0,0,1,1.55-3.149,8.939,8.939,0,0,1,4.724-1.16l2.332-.073v-.72a2.73,2.73,0,0,0-.6-1.935,2.464,2.464,0,0,0-1.874-.641,6.479,6.479,0,0,0-1.99.305,15.015,15.015,0,0,0-1.831.72l-.928-2.051a9.984,9.984,0,0,1,2.4-.873,11.067,11.067,0,0,1,2.466-.3,5.84,5.84,0,0,1,3.888,1.123,4.4,4.4,0,0,1,1.312,3.528V0ZM140.7-1.953a3.553,3.553,0,0,0,2.509-.873,3.164,3.164,0,0,0,.946-2.448V-6.445l-1.733.073a5.931,5.931,0,0,0-2.948.677,2.058,2.058,0,0,0-.922,1.849,1.8,1.8,0,0,0,.537,1.4A2.308,2.308,0,0,0,140.7-1.953Zm19.4-1.892a3.533,3.533,0,0,1-1.44,3.033A6.9,6.9,0,0,1,154.535.244,9.746,9.746,0,0,1,150.2-.574V-3.052a10.639,10.639,0,0,0,4.431,1.1q2.649,0,2.649-1.6a1.267,1.267,0,0,0-.293-.854,3.467,3.467,0,0,0-.964-.708,16.6,16.6,0,0,0-1.868-.83A8.639,8.639,0,0,1,151-7.751a3.343,3.343,0,0,1-.824-2.344,3.078,3.078,0,0,1,1.4-2.692,6.633,6.633,0,0,1,3.8-.958,10.77,10.77,0,0,1,4.5.964l-.928,2.161a10.018,10.018,0,0,0-3.674-.9q-2.271,0-2.271,1.294a1.3,1.3,0,0,0,.592,1.074,13.02,13.02,0,0,0,2.582,1.208,11.8,11.8,0,0,1,2.429,1.184,3.539,3.539,0,0,1,1.123,1.239A3.586,3.586,0,0,1,160.1-3.845Z" transform="translate(960 1437)" fill="#fff"/>
    <path id="Trazado_16554" data-name="Trazado 16554" d="M30.244,199.888a64.367,64.367,0,1,1,0-128.734,64.367,64.367,0,1,1,0,128.734Zm0-120.711a56.344,56.344,0,1,0,56.344,56.344A56.408,56.408,0,0,0,30.244,79.177Zm-6.332,56.344a6.332,6.332,0,1,0,6.332-6.332A6.332,6.332,0,0,0,23.912,135.521Zm6.332-51.262a51.263,51.263,0,1,0,51.263,51.262A51.262,51.262,0,0,0,30.244,84.259Zm0,7.174a44.2,44.2,0,0,1,11.414,1.493l-3.109,11.626a32.347,32.347,0,0,0-16.045-.146L19.61,92.725A44.254,44.254,0,0,1,30.244,91.432Zm6.167,32.617c-.77-.631-1.137-1.436-.807-1.769L53.48,104.23c.31-.313,1.124-.093,1.847.5s1.1,1.347.853,1.713L41.994,127.518c-.262.389-1.123.187-1.893-.444Zm3.6,11.472a9.762,9.762,0,1,1-9.762-9.762A9.762,9.762,0,0,1,40.006,135.521Zm-41.816,0H-13.844a44.132,44.132,0,0,1,5.512-21.36L2.191,120A32.071,32.071,0,0,0-1.809,135.521Zm6.8-19.741-9.476-7.419A44.291,44.291,0,0,1,13,94.933l4.709,11.075A32.225,32.225,0,0,0,4.989,115.78Zm49.075-1.7,4.2-6.233c1.01-1.5.457-3.577-1.344-5.053s-3.945-1.608-5.218-.325l-5.31,5.362a31.811,31.811,0,0,0-3.074-1.585l4.913-10.987A44.306,44.306,0,0,1,65.469,109l-9.61,7.244Q55.01,115.12,54.064,114.076ZM62.3,135.521a32.108,32.108,0,0,0-3.721-15.007l10.629-5.644a44.185,44.185,0,0,1,5.127,20.651Z" transform="translate(531.096 999.137)" fill="#7140e2"/>
    <text id="N" transform="translate(1005 1153)" fill="#fff" font-size="53" font-family="Montserrat-Bold, Montserrat" font-weight="700"><tspan x="-21.412" y="0">N</tspan></text>
    <text id="_2" data-name="2" transform="translate(1036 1153)" fill="#fff" font-size="23" font-family="Montserrat-Bold, Montserrat" font-weight="700"><tspan x="-6.785" y="0">2</tspan></text>
    <text id="C" transform="translate(906 1153)" fill="#2b4320" font-size="53" font-family="Montserrat-Bold, Montserrat" font-weight="700"><tspan x="-19.424" y="0">C</tspan></text>
    <g id="Grupo_8611" data-name="Grupo 8611" transform="translate(350.193 543.242)">
      <path id="Trazado_16559" data-name="Trazado 16559" d="M639.879,775.618l-13.93-13.93L551.79,835.848l26.774,26.774,61.315-61.315Z" transform="translate(1.791 1.791)" fill="#4d6018"/>
      <rect id="Rectángulo_2009" data-name="Rectángulo 2009" width="104.877" height="37.864" transform="translate(526.807 810.865) rotate(-45)" fill="#59721e"/>
      <path id="Trazado_16560" data-name="Trazado 16560" d="M609.944,773.421a5.541,5.541,0,0,0-9.472-4.826L598,771.21l-1.544-3.252a5.541,5.541,0,0,0-10.5,1.663l-.464,3.57-3.161-1.722a5.541,5.541,0,0,0-7.517,7.516l1.722,3.162-3.57.465a5.54,5.54,0,0,0-1.662,10.5l3.252,1.545-2.615,2.474a5.54,5.54,0,0,0,4.826,9.471l3.539-.661,28.98-28.98Z" transform="translate(2.963 2.014)" fill="#ffd833"/>
      <path id="Trazado_16561" data-name="Trazado 16561" d="M614.01,803.152l-1.722-3.162,3.57-.464a5.541,5.541,0,0,0,1.663-10.5l-3.252-1.544,2.615-2.475a5.541,5.541,0,0,0-4.826-9.472l-3.539.661-28.98,28.98-.661,3.539a5.541,5.541,0,0,0,9.472,4.826l2.473-2.615,1.545,3.252a5.541,5.541,0,0,0,10.5-1.662l.464-3.57,3.162,1.722A5.541,5.541,0,0,0,614.01,803.152Z" transform="translate(3.726 2.777)" fill="#ffc32c"/>
      <path id="Trazado_16562" data-name="Trazado 16562" d="M598.318,785.024l-9.952,9.952a7.037,7.037,0,0,0,9.952-9.952Z" transform="translate(4.414 3.465)" fill="#e6e7e8"/>
      <path id="Trazado_16563" data-name="Trazado 16563" d="M588.5,785.162a7.038,7.038,0,0,0,0,9.952l9.952-9.952A7.038,7.038,0,0,0,588.5,785.162Z" transform="translate(4.276 3.327)" fill="#fff"/>
      <path id="Trazado_16569" data-name="Trazado 16569" d="M640.753,854.1l-4.047-4.046-4.047,4.046a5.723,5.723,0,0,0,0,8.092h0a5.722,5.722,0,0,0,8.094,0h0A5.723,5.723,0,0,0,640.753,854.1Z" transform="translate(18.47 -42.872)" fill="#ffd833"/>
      <path id="Trazado_16570" data-name="Trazado 16570" d="M640.753,825.751l-4.047-4.047-4.047,4.047a5.723,5.723,0,0,0,0,8.092h0a5.724,5.724,0,0,0,8.094,0h0A5.723,5.723,0,0,0,640.753,825.751Z" transform="translate(18.47 -32.905)" fill="#ffd833"/>
      <path id="Trazado_16571" data-name="Trazado 16571" d="M640.753,854.1l-4.047-4.046-4.047,4.046a5.723,5.723,0,0,0,0,8.092h0a5.722,5.722,0,0,0,8.094,0h0A5.723,5.723,0,0,0,640.753,854.1Z" transform="translate(18.47 -24.872)" fill="#ffd833"/>
    </g>
    <g id="Grupo_8614" data-name="Grupo 8614" transform="translate(317.038 223.895)">
      <g id="Grupo_8612" data-name="Grupo 8612" transform="translate(-19.19 5.998)">
        <path id="Trazado_16572" data-name="Trazado 16572" d="M1098.544,895.337a10.182,10.182,0,0,0-1.475-5.8,6.58,6.58,0,0,0,.65-2.846,6.185,6.185,0,0,0-6.139-6.193,6.12,6.12,0,0,0-1.772.236,8.914,8.914,0,0,0-14.929-6.052,12.616,12.616,0,0,0-23.095-.317,8.919,8.919,0,0,0-14.586,6.343,6.135,6.135,0,0,0-7.911,5.876,7.3,7.3,0,0,0,.433,2.466,10.816,10.816,0,0,0-1.753,6.287Z" transform="translate(-0.333)" fill="#6b2f1f"/>
        <path id="Trazado_16573" data-name="Trazado 16573" d="M1032.163,923.569l7.729,42.9a7.206,7.206,0,0,0,7.091,5.927h16.554V923.569Z" transform="translate(-0.565 -3.134)" fill="#bc7e46"/>
        <path id="Trazado_16574" data-name="Trazado 16574" d="M1065.377,923.569V972.4h16.554a7.206,7.206,0,0,0,7.091-5.927l7.729-42.9Z" transform="translate(-2.405 -3.134)" fill="#a06430"/>
        <path id="Trazado_16575" data-name="Trazado 16575" d="M1063.331,903h-34.892l3.518,19.837H1094.7L1098.223,903Z" transform="translate(-0.359 -1.995)" fill="#915426"/>
        <path id="Trazado_16576" data-name="Trazado 16576" d="M1025.185,887.574a3.222,3.222,0,0,0-3.177,3.762l2.788,16.422a3.222,3.222,0,0,0,3.178,2.684h35V887.574Z" transform="translate(0 -1.14)" fill="#bc7e46"/>
        <path id="Trazado_16577" data-name="Trazado 16577" d="M1103.164,887.574h-37.787v22.868h35a3.222,3.222,0,0,0,3.177-2.684l2.788-16.422A3.222,3.222,0,0,0,1103.164,887.574Z" transform="translate(-2.405 -1.14)" fill="#a06430"/>
      </g>
      <g id="Grupo_8613" data-name="Grupo 8613" transform="translate(-15 71.053)">
        <path id="Trazado_16578" data-name="Trazado 16578" d="M1048.538,786.086a10.122,10.122,0,0,0,20.237,0,9.653,9.653,0,0,0-2.437-6.409c-1.856-2.1-7.428-7.586-7.428-11.572,0,3.987-6.12,9.489-7.976,11.619A9.649,9.649,0,0,0,1048.538,786.086Z" fill="#b6f5ff"/>
        <path id="Trazado_16579" data-name="Trazado 16579" d="M1073.192,779.677a9.707,9.707,0,0,1,2.5,6.409,9.945,9.945,0,0,1-10.055,9.845V768.1C1065.638,772.091,1071.336,777.574,1073.192,779.677Z" transform="translate(-6.729)" fill="#7de7ff"/>
      </g>
    </g>
    <rect id="Rectángulo_2007" data-name="Rectángulo 2007" width="328" height="44" rx="5" transform="translate(1202 1196)" fill="#bc7e46"/>
    <path id="Trazado_16989" data-name="Trazado 16989" d="M-93.182,0l-5.176-14.9h-.1q.208,3.32.208,6.226V0H-100.9V-17.847h4.114l4.956,14.2h.073l5.1-14.2h4.126V0h-2.808V-8.826q0-1.331.067-3.467t.116-2.588h-.1L-90.607,0Zm20.947.244a6.531,6.531,0,0,1-4.926-1.837,6.974,6.974,0,0,1-1.776-5.06,7.652,7.652,0,0,1,1.648-5.2,5.692,5.692,0,0,1,4.529-1.892,5.563,5.563,0,0,1,4.224,1.624,6.2,6.2,0,0,1,1.55,4.468V-6.1h-9a4.434,4.434,0,0,0,1.062,3.021A3.7,3.7,0,0,0-72.1-2.026a10.41,10.41,0,0,0,2.228-.226A11.678,11.678,0,0,0-67.657-3V-.671a8.808,8.808,0,0,1-2.124.708A13.024,13.024,0,0,1-72.235.244Zm-.525-11.816a2.882,2.882,0,0,0-2.191.867,4.13,4.13,0,0,0-.983,2.527h6.128a3.737,3.737,0,0,0-.806-2.533A2.756,2.756,0,0,0-72.76-11.572Zm14.063,9.5a6.976,6.976,0,0,0,2.1-.33V-.244A5.791,5.791,0,0,1-57.825.1a8.452,8.452,0,0,1-1.556.14q-4.077,0-4.077-4.3v-7.275H-65.3V-12.6l1.978-1.05.977-2.856h1.77v3h3.845v2.173h-3.845V-4.1a2.027,2.027,0,0,0,.519,1.532A1.891,1.891,0,0,0-58.7-2.075Zm16.772-4.7a7.369,7.369,0,0,1-1.7,5.164A6.08,6.08,0,0,1-48.346.244,6.473,6.473,0,0,1-51.691-.61a5.641,5.641,0,0,1-2.234-2.454,8.357,8.357,0,0,1-.781-3.711A7.319,7.319,0,0,1-53.021-11.9a6.108,6.108,0,0,1,4.749-1.843,5.948,5.948,0,0,1,4.639,1.886A7.285,7.285,0,0,1-41.925-6.775Zm-9.827,0q0,4.675,3.455,4.675,3.418,0,3.418-4.675,0-4.626-3.442-4.626a2.935,2.935,0,0,0-2.618,1.2A6.088,6.088,0,0,0-51.752-6.775ZM-34.076.244a4.7,4.7,0,0,1-3.943-1.831,8.23,8.23,0,0,1-1.416-5.139A8.257,8.257,0,0,1-38-11.9a4.747,4.747,0,0,1,3.973-1.849,4.654,4.654,0,0,1,4.053,1.965h.146a17.2,17.2,0,0,1-.208-2.295v-4.919h2.881V0H-29.4l-.5-1.77h-.134A4.586,4.586,0,0,1-34.076.244Zm.769-2.319a3.122,3.122,0,0,0,2.576-.995A5.238,5.238,0,0,0-29.9-6.3v-.4a6.051,6.051,0,0,0-.83-3.625,3.079,3.079,0,0,0-2.6-1.074,2.638,2.638,0,0,0-2.332,1.227,6.287,6.287,0,0,0-.818,3.5,6.13,6.13,0,0,0,.793,3.424A2.679,2.679,0,0,0-33.307-2.075Zm22.229-4.7a7.369,7.369,0,0,1-1.7,5.164A6.08,6.08,0,0,1-17.5.244,6.473,6.473,0,0,1-20.844-.61a5.641,5.641,0,0,1-2.234-2.454,8.357,8.357,0,0,1-.781-3.711A7.319,7.319,0,0,1-22.174-11.9a6.108,6.108,0,0,1,4.749-1.843,5.948,5.948,0,0,1,4.639,1.886A7.285,7.285,0,0,1-11.078-6.775Zm-9.827,0Q-20.9-2.1-17.45-2.1q3.418,0,3.418-4.675,0-4.626-3.442-4.626a2.935,2.935,0,0,0-2.618,1.2A6.088,6.088,0,0,0-20.9-6.775ZM13.007-17.847V-6.3a6.849,6.849,0,0,1-.848,3.461A5.653,5.653,0,0,1,9.7-.555a8.527,8.527,0,0,1-3.839.8A7.181,7.181,0,0,1,.7-1.514,6.362,6.362,0,0,1-1.141-6.348v-11.5h2.93V-6.555A4.512,4.512,0,0,0,2.814-3.3a4.227,4.227,0,0,0,3.149,1.05q4.126,0,4.126-4.333V-17.847ZM22.3-2.075a6.976,6.976,0,0,0,2.1-.33V-.244A5.791,5.791,0,0,1,23.169.1a8.452,8.452,0,0,1-1.556.14q-4.077,0-4.077-4.3v-7.275H15.692V-12.6l1.978-1.05.977-2.856h1.77v3h3.845v2.173H20.416V-4.1a2.027,2.027,0,0,0,.519,1.532A1.891,1.891,0,0,0,22.3-2.075ZM29.962,0H27.094V-13.5h2.869Zm-3.04-17.078a1.588,1.588,0,0,1,.421-1.184,1.641,1.641,0,0,1,1.2-.415,1.606,1.606,0,0,1,1.178.415,1.588,1.588,0,0,1,.421,1.184,1.559,1.559,0,0,1-.421,1.154,1.592,1.592,0,0,1-1.178.421,1.627,1.627,0,0,1-1.2-.421A1.559,1.559,0,0,1,26.923-17.078ZM36.932,0H34.064V-18.994h2.869ZM43.9,0H41.034V-13.5H43.9Zm-3.04-17.078a1.588,1.588,0,0,1,.421-1.184,1.641,1.641,0,0,1,1.2-.415,1.606,1.606,0,0,1,1.178.415,1.588,1.588,0,0,1,.421,1.184,1.559,1.559,0,0,1-.421,1.154,1.592,1.592,0,0,1-1.178.421,1.627,1.627,0,0,1-1.2-.421A1.559,1.559,0,0,1,40.863-17.078ZM57.025,0H46.783V-1.77L53.607-11.3H47.2v-2.2H56.83v2L50.153-2.2h6.873ZM68.4,0l-.574-1.88h-.1A5.531,5.531,0,0,1,65.765-.2a6.215,6.215,0,0,1-2.539.446A4.3,4.3,0,0,1,60.12-.83,4.02,4.02,0,0,1,59-3.87a3.569,3.569,0,0,1,1.55-3.149,8.939,8.939,0,0,1,4.724-1.16l2.332-.073v-.72a2.73,2.73,0,0,0-.6-1.935,2.464,2.464,0,0,0-1.874-.641,6.479,6.479,0,0,0-1.99.305,15.015,15.015,0,0,0-1.831.72l-.928-2.051a9.984,9.984,0,0,1,2.4-.873,11.067,11.067,0,0,1,2.466-.3,5.84,5.84,0,0,1,3.888,1.123,4.4,4.4,0,0,1,1.312,3.528V0ZM64.13-1.953a3.553,3.553,0,0,0,2.509-.873,3.164,3.164,0,0,0,.946-2.448V-6.445l-1.733.073a5.931,5.931,0,0,0-2.948.677,2.058,2.058,0,0,0-.922,1.849,1.8,1.8,0,0,0,.537,1.4A2.308,2.308,0,0,0,64.13-1.953ZM79.01.244a4.7,4.7,0,0,1-3.943-1.831,8.23,8.23,0,0,1-1.416-5.139,8.257,8.257,0,0,1,1.434-5.17,4.747,4.747,0,0,1,3.973-1.849,4.654,4.654,0,0,1,4.053,1.965h.146a17.2,17.2,0,0,1-.208-2.295v-4.919h2.881V0H83.685l-.5-1.77h-.134A4.586,4.586,0,0,1,79.01.244Zm.769-2.319a3.122,3.122,0,0,0,2.576-.995,5.238,5.238,0,0,0,.83-3.229v-.4a6.051,6.051,0,0,0-.83-3.625,3.079,3.079,0,0,0-2.6-1.074,2.638,2.638,0,0,0-2.332,1.227,6.287,6.287,0,0,0-.818,3.5A6.13,6.13,0,0,0,77.4-3.253,2.679,2.679,0,0,0,79.779-2.075Zm22.229-4.7a7.369,7.369,0,0,1-1.7,5.164A6.08,6.08,0,0,1,95.587.244,6.473,6.473,0,0,1,92.242-.61a5.641,5.641,0,0,1-2.234-2.454,8.357,8.357,0,0,1-.781-3.711A7.319,7.319,0,0,1,90.912-11.9a6.108,6.108,0,0,1,4.749-1.843,5.948,5.948,0,0,1,4.639,1.886A7.285,7.285,0,0,1,102.008-6.775Zm-9.827,0q0,4.675,3.455,4.675,3.418,0,3.418-4.675,0-4.626-3.442-4.626a2.935,2.935,0,0,0-2.618,1.2A6.088,6.088,0,0,0,92.181-6.775Z" transform="translate(1366 1226)" fill="#fff"/>
  </g>
</svg>
