<svg xmlns="http://www.w3.org/2000/svg" width="1050" height="408.289" viewBox="0 0 1050 408.289">
  <g id="Grupo_8807" data-name="Grupo 8807" transform="translate(-430 -1017.999)">
    <path id="Sustracción_4" data-name="Sustracción 4" d="M83.5,167A83.522,83.522,0,0,1,51,6.561a83.522,83.522,0,0,1,65,153.877A82.976,82.976,0,0,1,83.5,167ZM99.13,126.182a6.33,6.33,0,0,0-4.241,1.617,6.577,6.577,0,0,0-2.281,4.556,6.3,6.3,0,0,0,1.6,4.68,19.288,19.288,0,0,0,14.8,6.789,19.579,19.579,0,0,0,19.557-19.558,19.154,19.154,0,0,0-5.772-13.784,19.739,19.739,0,0,0-13.92-5.636h-78.5a6.526,6.526,0,0,0-6.518,6.519,6.605,6.605,0,0,0,6.518,6.518h78.638a6.383,6.383,0,0,1,0,12.766,6.59,6.59,0,0,1-4.891-2.171A6.537,6.537,0,0,0,99.13,126.182ZM30.376,78.632a6.526,6.526,0,0,0-6.518,6.519,6.608,6.608,0,0,0,6.518,6.524h99.553a22.886,22.886,0,1,0-20.915-32.192,6.464,6.464,0,0,0-.153,5.009,6.554,6.554,0,0,0,3.413,3.684,6.36,6.36,0,0,0,2.668.581,6.637,6.637,0,0,0,6.024-3.838,9.957,9.957,0,0,1,8.963-5.844,9.779,9.779,0,0,1,0,19.558Zm0-26.072a6.523,6.523,0,0,0-6.518,6.515,6.761,6.761,0,0,0,6.518,6.656H82.8A19.58,19.58,0,0,0,102.36,46.173,19.211,19.211,0,0,0,96.6,32.387,19.538,19.538,0,0,0,82.8,26.75a19.339,19.339,0,0,0-14.125,6.11,6.635,6.635,0,0,0-1.8,4.8A6.248,6.248,0,0,0,68.948,42.1a6.566,6.566,0,0,0,4.537,1.8,6.24,6.24,0,0,0,4.7-2.068,6.561,6.561,0,0,1,4.62-2.04,6.386,6.386,0,1,1-.139,12.77Z" transform="translate(484 1018)" fill="#3bbfbf"/>
    <path id="Sustracción_5" data-name="Sustracción 5" d="M83.5,167A83.522,83.522,0,0,1,51,6.561a83.522,83.522,0,0,1,65,153.877A82.976,82.976,0,0,1,83.5,167ZM82.649,23.055c-2.6,4.106-5.787,8.815-9.163,13.8C66.274,47.507,58.106,59.57,51.705,71.5c-7.426,13.838-10.958,24.732-10.8,33.3A42.8,42.8,0,0,0,53.3,134.319a41.141,41.141,0,0,0,58.541,0,44.228,44.228,0,0,0,12.555-29.513c.156-8.573-3.377-19.467-10.8-33.306-6.4-11.932-14.568-23.994-21.773-34.636C88.438,31.873,85.254,27.17,82.649,23.055Zm-2.617,111.48A28.887,28.887,0,0,1,53.08,95.674a54.652,54.652,0,0,0,30,38.7A29.606,29.606,0,0,1,80.032,134.535Z" transform="translate(876.999 1018)" fill="#3b5fbf"/>
    <rect id="Rectángulo_2049" data-name="Rectángulo 2049" width="275" height="44" rx="5" transform="translate(430 1185)" fill="#3bbfbf"/>
    <path id="Trazado_17101" data-name="Trazado 17101" d="M-31.9-9.094q0,4.407-2.509,6.75T-41.65,0H-46.7V-17.847h5.6a9.435,9.435,0,0,1,6.787,2.307A8.486,8.486,0,0,1-31.9-9.094Zm-3.931.1q0-5.75-5.078-5.75H-42.92V-3.125H-41.3Q-35.828-3.125-35.828-9Zm12.988-2.258a2.362,2.362,0,0,0-1.855.751,3.475,3.475,0,0,0-.769,2.13h5.225a3.1,3.1,0,0,0-.72-2.13A2.439,2.439,0,0,0-22.839-11.255Zm.525,11.5a7.044,7.044,0,0,1-5.151-1.819,6.887,6.887,0,0,1-1.855-5.151,7.575,7.575,0,0,1,1.715-5.3A6.107,6.107,0,0,1-22.864-13.9a6.011,6.011,0,0,1,4.5,1.648A6.235,6.235,0,0,1-16.748-7.7V-5.9h-8.8a3.584,3.584,0,0,0,.94,2.478,3.307,3.307,0,0,0,2.466.891,10.236,10.236,0,0,0,2.332-.256A11.666,11.666,0,0,0-17.517-3.6V-.72A8.742,8.742,0,0,1-19.6.006,13.161,13.161,0,0,1-22.314.244ZM-10,0h-3.723V-18.994H-10ZM11.621,0,10.327-4.248H3.821L2.527,0H-1.55l6.3-17.92H9.375L15.7,0Zm-2.2-7.422Q7.629-13.2,7.4-13.953t-.323-1.2q-.4,1.563-2.307,7.727Zm8.069-9.753q0-1.819,2.026-1.819t2.026,1.819a1.773,1.773,0,0,1-.507,1.349,2.129,2.129,0,0,1-1.52.482Q17.493-15.344,17.493-17.175ZM21.375,0H17.651V-13.647h3.723ZM32.9-13.9a6,6,0,0,1,1.257.11L33.875-10.3a4.265,4.265,0,0,0-1.1-.122A3.948,3.948,0,0,0,30-9.509,3.31,3.31,0,0,0,29-6.946V0H25.281V-13.647H28.1l.549,2.295h.183A5.13,5.13,0,0,1,30.548-13.2,4.229,4.229,0,0,1,32.9-13.9Zm8.887,2.649a2.362,2.362,0,0,0-1.855.751,3.475,3.475,0,0,0-.769,2.13h5.225a3.1,3.1,0,0,0-.72-2.13A2.439,2.439,0,0,0,41.785-11.255ZM42.31.244a7.044,7.044,0,0,1-5.151-1.819A6.887,6.887,0,0,1,35.3-6.726a7.575,7.575,0,0,1,1.715-5.3A6.107,6.107,0,0,1,41.76-13.9a6.011,6.011,0,0,1,4.5,1.648A6.235,6.235,0,0,1,47.876-7.7V-5.9h-8.8a3.584,3.584,0,0,0,.94,2.478,3.307,3.307,0,0,0,2.466.891,10.236,10.236,0,0,0,2.332-.256A11.666,11.666,0,0,0,47.107-3.6V-.72A8.742,8.742,0,0,1,45.02.006,13.161,13.161,0,0,1,42.31.244Z" transform="translate(562 1215)" fill="#fff"/>
    <rect id="Rectángulo_2050" data-name="Rectángulo 2050" width="275" height="44" rx="5" transform="translate(823 1185)" fill="#3b5fbf"/>
    <path id="Trazado_17100" data-name="Trazado 17100" d="M-38.1-9.094q0,4.407-2.509,6.75T-47.852,0h-5.054V-17.847h5.6a9.435,9.435,0,0,1,6.787,2.307A8.486,8.486,0,0,1-38.1-9.094Zm-3.931.1q0-5.75-5.078-5.75h-2.014V-3.125H-47.5Q-42.029-3.125-42.029-9Zm12.988-2.258A2.362,2.362,0,0,0-30.9-10.5a3.475,3.475,0,0,0-.769,2.13h5.225a3.1,3.1,0,0,0-.72-2.13A2.439,2.439,0,0,0-29.041-11.255Zm.525,11.5a7.044,7.044,0,0,1-5.151-1.819,6.887,6.887,0,0,1-1.855-5.151,7.575,7.575,0,0,1,1.715-5.3A6.107,6.107,0,0,1-29.065-13.9a6.011,6.011,0,0,1,4.5,1.648A6.235,6.235,0,0,1-22.949-7.7V-5.9h-8.8a3.584,3.584,0,0,0,.94,2.478,3.307,3.307,0,0,0,2.466.891,10.236,10.236,0,0,0,2.332-.256A11.666,11.666,0,0,0-23.718-3.6V-.72a8.742,8.742,0,0,1-2.087.726A13.161,13.161,0,0,1-28.516.244ZM-16.2,0h-3.723V-18.994H-16.2ZM5.42,0,4.126-4.248H-2.38L-3.674,0H-7.751l6.3-17.92H3.174L9.5,0Zm-2.2-7.422Q1.428-13.2,1.2-13.953t-.323-1.2q-.4,1.563-2.307,7.727Zm20.1-6.226v1.892l-2.136.549a3.724,3.724,0,0,1,.586,2.051,4.14,4.14,0,0,1-1.532,3.424A6.635,6.635,0,0,1,15.991-4.5l-.671-.037L14.771-4.6a1.238,1.238,0,0,0-.574.977q0,.806,2.051.806h2.319a5.291,5.291,0,0,1,3.424.964A3.447,3.447,0,0,1,23.169.977a4.2,4.2,0,0,1-2,3.711,10.394,10.394,0,0,1-5.731,1.318,7.934,7.934,0,0,1-4.364-.995A3.159,3.159,0,0,1,9.57,2.222,2.92,2.92,0,0,1,10.339.159,4.367,4.367,0,0,1,12.6-1.025a2.492,2.492,0,0,1-1-.8A1.9,1.9,0,0,1,11.169-3a1.909,1.909,0,0,1,.452-1.3,5.222,5.222,0,0,1,1.306-1.019,3.663,3.663,0,0,1-1.7-1.489A4.532,4.532,0,0,1,10.6-9.229a4.262,4.262,0,0,1,1.453-3.455A6.281,6.281,0,0,1,16.2-13.9a10.623,10.623,0,0,1,1.361.1q.787.1,1.007.153ZM12.793,1.929a1.349,1.349,0,0,0,.739,1.208,4.064,4.064,0,0,0,2.069.439,7.329,7.329,0,0,0,3.137-.549,1.674,1.674,0,0,0,1.135-1.5A1.063,1.063,0,0,0,19.2.464,5.5,5.5,0,0,0,17.126.171H15.2a2.921,2.921,0,0,0-1.715.482A1.487,1.487,0,0,0,12.793,1.929ZM14.148-9.18a2.779,2.779,0,0,0,.507,1.758,1.84,1.84,0,0,0,1.544.647,1.8,1.8,0,0,0,1.538-.647,2.853,2.853,0,0,0,.488-1.758q0-2.466-2.026-2.466Q14.148-11.646,14.148-9.18ZM35.242,0l-.5-1.746h-.2a3.928,3.928,0,0,1-1.7,1.471,5.793,5.793,0,0,1-2.5.519,4.765,4.765,0,0,1-3.625-1.288,5.182,5.182,0,0,1-1.221-3.7v-8.9h3.723v7.971a3.829,3.829,0,0,0,.525,2.216,1.91,1.91,0,0,0,1.672.739,2.514,2.514,0,0,0,2.258-1.044,6.473,6.473,0,0,0,.7-3.461v-6.421H38.1V0Zm15.43,0-.72-1.855h-.1A5.5,5.5,0,0,1,47.919-.214a6.253,6.253,0,0,1-2.594.458A4.2,4.2,0,0,1,42.23-.879a4.313,4.313,0,0,1-1.129-3.2,3.6,3.6,0,0,1,1.52-3.2A8.806,8.806,0,0,1,47.2-8.423L49.573-8.5v-.6a1.856,1.856,0,0,0-2.124-2.075,9.679,9.679,0,0,0-3.845.989L42.371-12.7A11.1,11.1,0,0,1,47.6-13.928a6.508,6.508,0,0,1,4.211,1.2,4.421,4.421,0,0,1,1.465,3.638V0Zm-1.1-6.323-1.44.049a4.613,4.613,0,0,0-2.417.586,1.84,1.84,0,0,0-.793,1.636q0,1.575,1.807,1.575A2.861,2.861,0,0,0,48.8-3.223,2.615,2.615,0,0,0,49.573-5.2Z" transform="translate(960 1215)" fill="#fff"/>
    <path id="Sustracción_6" data-name="Sustracción 6" d="M83.5,0A83.5,83.5,0,1,1,0,83.5,83.5,83.5,0,0,1,83.5,0Z" transform="translate(1258.999 1018)" fill="#70ad54"/>
    <rect id="Rectángulo_2051" data-name="Rectángulo 2051" width="275" height="44" rx="5" transform="translate(1205 1185)" fill="#70ad54"/>
    <path id="Trazado_17099" data-name="Trazado 17099" d="M-103.333-9.094q0,4.407-2.509,6.75T-113.086,0h-5.054V-17.847h5.6a9.435,9.435,0,0,1,6.787,2.307A8.486,8.486,0,0,1-103.333-9.094Zm-3.931.1q0-5.75-5.078-5.75h-2.014V-3.125h1.624Q-107.263-3.125-107.263-9Zm12.988-2.258a2.362,2.362,0,0,0-1.855.751,3.475,3.475,0,0,0-.769,2.13h5.225a3.1,3.1,0,0,0-.72-2.13A2.439,2.439,0,0,0-94.275-11.255Zm.525,11.5A7.044,7.044,0,0,1-98.9-1.575a6.887,6.887,0,0,1-1.855-5.151,7.575,7.575,0,0,1,1.715-5.3A6.107,6.107,0,0,1-94.3-13.9a6.011,6.011,0,0,1,4.5,1.648A6.235,6.235,0,0,1-88.184-7.7V-5.9h-8.8a3.584,3.584,0,0,0,.94,2.478,3.307,3.307,0,0,0,2.466.891,10.236,10.236,0,0,0,2.332-.256A11.666,11.666,0,0,0-88.953-3.6V-.72A8.742,8.742,0,0,1-91.04.006,13.161,13.161,0,0,1-93.75.244ZM-81.433,0h-3.723V-18.994h3.723Zm21.228-4.956a4.613,4.613,0,0,1-1.74,3.809A7.556,7.556,0,0,1-66.785.244,11.367,11.367,0,0,1-71.838-.83V-4.346A20.826,20.826,0,0,0-68.781-3.21a9.048,9.048,0,0,0,2.289.33,3.254,3.254,0,0,0,1.91-.476,1.628,1.628,0,0,0,.665-1.416,1.563,1.563,0,0,0-.293-.934,3.278,3.278,0,0,0-.861-.787A22.134,22.134,0,0,0-67.383-7.7,10.964,10.964,0,0,1-69.836-9.18a5.545,5.545,0,0,1-1.306-1.648,4.7,4.7,0,0,1-.488-2.2,4.612,4.612,0,0,1,1.605-3.723A6.67,6.67,0,0,1-65.588-18.1a10.478,10.478,0,0,1,2.655.33,18.25,18.25,0,0,1,2.643.928L-61.511-13.9a17.86,17.86,0,0,0-2.362-.818,7.6,7.6,0,0,0-1.837-.232,2.433,2.433,0,0,0-1.648.5,1.651,1.651,0,0,0-.574,1.306,1.616,1.616,0,0,0,.232.873,2.55,2.55,0,0,0,.739.72,22.835,22.835,0,0,0,2.4,1.251,9.544,9.544,0,0,1,3.43,2.4A4.681,4.681,0,0,1-60.205-4.956ZM-48.6,0l-.72-1.855h-.1A5.5,5.5,0,0,1-51.349-.214a6.253,6.253,0,0,1-2.594.458A4.2,4.2,0,0,1-57.037-.879a4.313,4.313,0,0,1-1.129-3.2,3.6,3.6,0,0,1,1.52-3.2,8.806,8.806,0,0,1,4.584-1.141l2.368-.073v-.6a1.856,1.856,0,0,0-2.124-2.075,9.679,9.679,0,0,0-3.845.989L-56.9-12.7a11.1,11.1,0,0,1,5.225-1.233,6.508,6.508,0,0,1,4.211,1.2A4.421,4.421,0,0,1-46-9.094V0Zm-1.1-6.323-1.44.049a4.613,4.613,0,0,0-2.417.586,1.84,1.84,0,0,0-.793,1.636q0,1.575,1.807,1.575a2.861,2.861,0,0,0,2.069-.745A2.615,2.615,0,0,0-49.695-5.2ZM-38.44,0h-3.723V-18.994h3.723Zm9.558-11.255a2.362,2.362,0,0,0-1.855.751,3.475,3.475,0,0,0-.769,2.13h5.225A3.1,3.1,0,0,0-27-10.5,2.439,2.439,0,0,0-28.882-11.255Zm.525,11.5a7.044,7.044,0,0,1-5.151-1.819,6.887,6.887,0,0,1-1.855-5.151,7.575,7.575,0,0,1,1.715-5.3A6.107,6.107,0,0,1-28.906-13.9a6.011,6.011,0,0,1,4.5,1.648A6.235,6.235,0,0,1-22.791-7.7V-5.9h-8.8a3.584,3.584,0,0,0,.94,2.478,3.307,3.307,0,0,0,2.466.891,10.236,10.236,0,0,0,2.332-.256A11.666,11.666,0,0,0-23.56-3.6V-.72a8.742,8.742,0,0,1-2.087.726A13.161,13.161,0,0,1-28.357.244Zm18.115-4.3A3.757,3.757,0,0,1-11.7-.854a7.208,7.208,0,0,1-4.364,1.1A13.707,13.707,0,0,1-18.6.043a9.6,9.6,0,0,1-1.965-.592V-3.625a12.979,12.979,0,0,0,2.338.818,9.466,9.466,0,0,0,2.289.33q2.026,0,2.026-1.172a.978.978,0,0,0-.269-.714,3.894,3.894,0,0,0-.928-.623q-.659-.348-1.758-.812a11.042,11.042,0,0,1-2.313-1.221,3.436,3.436,0,0,1-1.074-1.288,4.251,4.251,0,0,1-.336-1.788,3.242,3.242,0,0,1,1.41-2.814,6.868,6.868,0,0,1,4-.995,11.348,11.348,0,0,1,4.8,1.074l-1.123,2.686q-1.025-.439-1.917-.72a6.018,6.018,0,0,0-1.819-.281q-1.648,0-1.648.891a1.048,1.048,0,0,0,.531.867A14.441,14.441,0,0,0-14.038-8.3a10.8,10.8,0,0,1,2.344,1.208A3.574,3.574,0,0,1-10.6-5.8,3.976,3.976,0,0,1-10.242-4.053ZM7.007,0,2.71-14H2.6q.232,4.272.232,5.7V0H-.549V-17.847H4.6L8.826-4.2H8.9l4.48-13.647H18.53V0H15V-8.447q0-.6.018-1.379t.165-4.15h-.11L10.474,0ZM22.571-17.175q0-1.819,2.026-1.819t2.026,1.819a1.773,1.773,0,0,1-.507,1.349,2.129,2.129,0,0,1-1.52.482Q22.571-15.344,22.571-17.175ZM26.453,0H22.729V-13.647h3.723Zm16.5,0H39.233V-7.971a3.829,3.829,0,0,0-.525-2.216,1.91,1.91,0,0,0-1.672-.739,2.514,2.514,0,0,0-2.258,1.044,6.473,6.473,0,0,0-.7,3.461V0H30.359V-13.647H33.2l.5,1.746h.208a3.935,3.935,0,0,1,1.715-1.5A5.84,5.84,0,0,1,38.11-13.9a4.773,4.773,0,0,1,3.613,1.288A5.168,5.168,0,0,1,42.957-8.9Zm9.485-11.255a2.362,2.362,0,0,0-1.855.751,3.475,3.475,0,0,0-.769,2.13h5.225a3.1,3.1,0,0,0-.72-2.13A2.439,2.439,0,0,0,52.441-11.255Zm.525,11.5a7.044,7.044,0,0,1-5.151-1.819,6.887,6.887,0,0,1-1.855-5.151,7.575,7.575,0,0,1,1.715-5.3A6.107,6.107,0,0,1,52.417-13.9a6.011,6.011,0,0,1,4.5,1.648A6.235,6.235,0,0,1,58.533-7.7V-5.9h-8.8a3.584,3.584,0,0,0,.94,2.478,3.307,3.307,0,0,0,2.466.891,10.236,10.236,0,0,0,2.332-.256A11.666,11.666,0,0,0,57.764-3.6V-.72a8.742,8.742,0,0,1-2.087.726A13.161,13.161,0,0,1,52.966.244ZM69.177-13.9a6,6,0,0,1,1.257.11L70.154-10.3a4.265,4.265,0,0,0-1.1-.122,3.948,3.948,0,0,0-2.777.916,3.31,3.31,0,0,0-.995,2.563V0H61.56V-13.647h2.82l.549,2.295h.183A5.13,5.13,0,0,1,66.827-13.2,4.229,4.229,0,0,1,69.177-13.9ZM81.079,0l-.72-1.855h-.1A5.5,5.5,0,0,1,78.326-.214a6.253,6.253,0,0,1-2.594.458A4.2,4.2,0,0,1,72.638-.879a4.313,4.313,0,0,1-1.129-3.2,3.6,3.6,0,0,1,1.52-3.2,8.806,8.806,0,0,1,4.584-1.141L79.98-8.5v-.6a1.856,1.856,0,0,0-2.124-2.075,9.679,9.679,0,0,0-3.845.989L72.778-12.7A11.1,11.1,0,0,1,78-13.928a6.508,6.508,0,0,1,4.211,1.2,4.421,4.421,0,0,1,1.465,3.638V0Zm-1.1-6.323-1.44.049a4.613,4.613,0,0,0-2.417.586,1.84,1.84,0,0,0-.793,1.636q0,1.575,1.807,1.575a2.861,2.861,0,0,0,2.069-.745A2.615,2.615,0,0,0,79.98-5.2ZM91.235,0H87.512V-18.994h3.723Zm9.558-11.255a2.362,2.362,0,0,0-1.855.751,3.475,3.475,0,0,0-.769,2.13h5.225a3.1,3.1,0,0,0-.72-2.13A2.439,2.439,0,0,0,100.793-11.255Zm.525,11.5a7.044,7.044,0,0,1-5.151-1.819,6.887,6.887,0,0,1-1.855-5.151,7.575,7.575,0,0,1,1.715-5.3,6.107,6.107,0,0,1,4.742-1.874,6.011,6.011,0,0,1,4.5,1.648A6.235,6.235,0,0,1,106.885-7.7V-5.9h-8.8a3.584,3.584,0,0,0,.94,2.478,3.307,3.307,0,0,0,2.466.891,10.236,10.236,0,0,0,2.332-.256,11.666,11.666,0,0,0,2.295-.818V-.72a8.742,8.742,0,0,1-2.087.726A13.161,13.161,0,0,1,101.318.244Zm18.115-4.3a3.757,3.757,0,0,1-1.459,3.2,7.208,7.208,0,0,1-4.364,1.1,13.707,13.707,0,0,1-2.539-.2,9.6,9.6,0,0,1-1.965-.592V-3.625a12.979,12.979,0,0,0,2.338.818,9.466,9.466,0,0,0,2.289.33q2.026,0,2.026-1.172a.978.978,0,0,0-.269-.714,3.894,3.894,0,0,0-.928-.623q-.659-.348-1.758-.812a11.042,11.042,0,0,1-2.313-1.221,3.436,3.436,0,0,1-1.074-1.288,4.251,4.251,0,0,1-.336-1.788,3.242,3.242,0,0,1,1.41-2.814,6.868,6.868,0,0,1,4-.995,11.348,11.348,0,0,1,4.8,1.074l-1.123,2.686q-1.025-.439-1.917-.72a6.018,6.018,0,0,0-1.819-.281q-1.648,0-1.648.891a1.048,1.048,0,0,0,.531.867A14.441,14.441,0,0,0,115.637-8.3a10.8,10.8,0,0,1,2.344,1.208,3.574,3.574,0,0,1,1.1,1.294A3.976,3.976,0,0,1,119.434-4.053Z" transform="translate(1342 1215)" fill="#fff"/>
    <path id="Trazado_17093" data-name="Trazado 17093" d="M-90.1.288a8.632,8.632,0,0,0,6.936-3l-2.5-2.3A5.354,5.354,0,0,1-89.88-3.024,5.154,5.154,0,0,1-95.256-8.4a5.154,5.154,0,0,1,5.376-5.376,5.405,5.405,0,0,1,4.224,1.968l2.5-2.3a8.673,8.673,0,0,0-6.912-2.976c-5.232,0-9.12,3.624-9.12,8.688S-95.3.288-90.1.288ZM-68.328,0h4.08L-71.76-16.8H-75.6L-83.088,0H-79.1l1.488-3.6h7.8Zm-8.04-6.552,2.664-6.432,2.664,6.432ZM-47.616,0l-3.768-5.4a5.462,5.462,0,0,0,3.456-5.3c0-3.768-2.808-6.1-7.3-6.1H-62.5V0h3.888V-4.68h3.576L-51.792,0Zm-4.248-10.7c0,1.824-1.2,2.928-3.576,2.928h-3.168v-5.856h3.168C-53.064-13.632-51.864-12.552-51.864-10.7ZM-32.52-8.736a4.038,4.038,0,0,0,2.232-3.7c0-2.616-2.16-4.368-6.36-4.368h-8.208V0h8.688c4.416,0,6.72-1.68,6.72-4.584A4.149,4.149,0,0,0-32.52-8.736Zm-4.608-5.136c1.9,0,2.928.648,2.928,1.968s-1.032,1.992-2.928,1.992h-3.864v-3.96Zm.672,10.944h-4.536V-7.08h4.536c2.016,0,3.1.672,3.1,2.088C-33.36-3.552-34.44-2.928-36.456-2.928ZM-18.36.288c5.28,0,9.192-3.672,9.192-8.688s-3.912-8.688-9.192-8.688c-5.3,0-9.192,3.7-9.192,8.688S-23.664.288-18.36.288Zm0-3.312A5.125,5.125,0,0,1-23.616-8.4a5.125,5.125,0,0,1,5.256-5.376A5.125,5.125,0,0,1-13.1-8.4,5.125,5.125,0,0,1-18.36-3.024ZM5.328-16.8V-6.6L-3.024-16.8H-6.24V0H-2.4V-10.2L5.976,0H9.168V-16.8ZM21.288.288c5.28,0,9.192-3.672,9.192-8.688s-3.912-8.688-9.192-8.688c-5.3,0-9.192,3.7-9.192,8.688S15.984.288,21.288.288Zm0-3.312A5.125,5.125,0,0,1,16.032-8.4a5.125,5.125,0,0,1,5.256-5.376A5.125,5.125,0,0,1,26.544-8.4,5.125,5.125,0,0,1,21.288-3.024ZM42.96,4.656h3.576a21.926,21.926,0,0,1-2.9-11.232,21.926,21.926,0,0,1,2.9-11.232H42.96a20.3,20.3,0,0,0-3,11.232A20.413,20.413,0,0,0,42.96,4.656ZM63.6.288a8.632,8.632,0,0,0,6.936-3l-2.5-2.3a5.354,5.354,0,0,1-4.224,1.992A5.154,5.154,0,0,1,58.44-8.4a5.154,5.154,0,0,1,5.376-5.376,5.405,5.405,0,0,1,4.224,1.968l2.5-2.3a8.673,8.673,0,0,0-6.912-2.976c-5.232,0-9.12,3.624-9.12,8.688S58.392.288,63.6.288ZM81.768,4.656A20.025,20.025,0,0,0,84.792-6.576a19.914,19.914,0,0,0-3.024-11.232H78.192A21.717,21.717,0,0,1,81.12-6.576,21.717,21.717,0,0,1,78.192,4.656Z" transform="translate(562 1291)" fill="#3bbfbf"/>
    <path id="Trazado_17092" data-name="Trazado 17092" d="M-84.756.288c5.28,0,9.192-3.672,9.192-8.688s-3.912-8.688-9.192-8.688c-5.3,0-9.192,3.7-9.192,8.688S-90.06.288-84.756.288Zm0-3.312A5.125,5.125,0,0,1-90.012-8.4a5.125,5.125,0,0,1,5.256-5.376A5.125,5.125,0,0,1-79.5-8.4,5.125,5.125,0,0,1-84.756-3.024ZM-58.164,0l-6.264-8.688,5.856-8.112h-4.2l-3.792,5.448L-70.428-16.8h-4.416l5.9,8.256L-75.156,0h4.464l3.984-5.832L-62.652,0Zm1.536,0h3.888V-16.8h-3.888ZM-37.4-3.744a6.172,6.172,0,0,1-3.024.72A5.185,5.185,0,0,1-45.876-8.4a5.172,5.172,0,0,1,5.5-5.376,5.685,5.685,0,0,1,4.344,1.9l2.5-2.3a8.956,8.956,0,0,0-7.032-2.9c-5.352,0-9.24,3.624-9.24,8.688S-45.924.288-40.644.288a11.593,11.593,0,0,0,6.792-2.136V-8.664H-37.4Zm11.016.624V-7.008h7.8v-3.024h-7.8V-13.68h8.832V-16.8h-12.7V0h13.008V-3.12ZM-2.58-16.8V-6.6l-8.352-10.2h-3.216V0h3.84V-10.2L-1.932,0H1.26V-16.8ZM13.38.288c5.28,0,9.192-3.672,9.192-8.688s-3.912-8.688-9.192-8.688c-5.3,0-9.192,3.7-9.192,8.688S8.076.288,13.38.288Zm0-3.312A5.125,5.125,0,0,1,8.124-8.4a5.125,5.125,0,0,1,5.256-5.376A5.125,5.125,0,0,1,18.636-8.4,5.125,5.125,0,0,1,13.38-3.024Zm21.672,7.68h3.576a21.926,21.926,0,0,1-2.9-11.232,21.926,21.926,0,0,1,2.9-11.232H35.052a20.3,20.3,0,0,0-3,11.232A20.413,20.413,0,0,0,35.052,4.656ZM55.788.288c5.28,0,9.192-3.672,9.192-8.688s-3.912-8.688-9.192-8.688c-5.3,0-9.192,3.7-9.192,8.688S50.484.288,55.788.288Zm0-3.312A5.125,5.125,0,0,1,50.532-8.4a5.125,5.125,0,0,1,5.256-5.376A5.125,5.125,0,0,1,61.044-8.4,5.125,5.125,0,0,1,55.788-3.024Zm20.736,7.68A20.025,20.025,0,0,0,79.548-6.576a19.914,19.914,0,0,0-3.024-11.232H72.948A21.717,21.717,0,0,1,75.876-6.576,21.717,21.717,0,0,1,72.948,4.656Z" transform="translate(557 1336)" fill="#3bbfbf"/>
    <path id="Trazado_17094" data-name="Trazado 17094" d="M-101.364-16.8v6.624H-109V-16.8h-3.888V0H-109V-6.888h7.632V0h3.888V-16.8ZM-93.492,0H-89.6V-16.8h-3.888Zm7.872,0h7.632c5.5,0,9.264-3.312,9.264-8.4s-3.768-8.4-9.264-8.4H-85.62Zm3.888-3.192V-13.608h3.552c3.336,0,5.52,1.992,5.52,5.208s-2.184,5.208-5.52,5.208ZM-50.916,0l-3.768-5.4a5.462,5.462,0,0,0,3.456-5.3c0-3.768-2.808-6.1-7.3-6.1H-65.8V0h3.888V-4.68h3.576L-55.092,0Zm-4.248-10.7c0,1.824-1.2,2.928-3.576,2.928h-3.168v-5.856h3.168C-56.364-13.632-55.164-12.552-55.164-10.7ZM-40.02.288c5.28,0,9.192-3.672,9.192-8.688s-3.912-8.688-9.192-8.688c-5.3,0-9.192,3.7-9.192,8.688S-45.324.288-40.02.288Zm0-3.312A5.125,5.125,0,0,1-45.276-8.4a5.125,5.125,0,0,1,5.256-5.376A5.125,5.125,0,0,1-34.764-8.4,5.125,5.125,0,0,1-40.02-3.024Zm23.472-.72a6.172,6.172,0,0,1-3.024.72A5.185,5.185,0,0,1-25.02-8.4a5.172,5.172,0,0,1,5.5-5.376,5.685,5.685,0,0,1,4.344,1.9l2.5-2.3a8.956,8.956,0,0,0-7.032-2.9c-5.352,0-9.24,3.624-9.24,8.688S-25.068.288-19.788.288A11.593,11.593,0,0,0-13-1.848V-8.664h-3.552Zm11.016.624V-7.008h7.8v-3.024h-7.8V-13.68H3.3V-16.8H-9.4V0H3.612V-3.12ZM18.276-16.8V-6.6L9.924-16.8H6.708V0h3.84V-10.2L18.924,0h3.192V-16.8ZM34.236.288c5.28,0,9.192-3.672,9.192-8.688s-3.912-8.688-9.192-8.688c-5.3,0-9.192,3.7-9.192,8.688S28.932.288,34.236.288Zm0-3.312A5.125,5.125,0,0,1,28.98-8.4a5.125,5.125,0,0,1,5.256-5.376A5.125,5.125,0,0,1,39.492-8.4,5.125,5.125,0,0,1,34.236-3.024Zm21.672,7.68h3.576a21.926,21.926,0,0,1-2.9-11.232,21.926,21.926,0,0,1,2.9-11.232H55.908a20.3,20.3,0,0,0-3,11.232A20.413,20.413,0,0,0,55.908,4.656ZM80.028-16.8v6.624H72.4V-16.8H68.508V0H72.4V-6.888h7.632V0h3.888V-16.8ZM96.516,4.656A20.025,20.025,0,0,0,99.54-6.576a19.914,19.914,0,0,0-3.024-11.232H92.94A21.717,21.717,0,0,1,95.868-6.576,21.717,21.717,0,0,1,92.94,4.656Z" transform="translate(960 1291)" fill="#3b5fbf"/>
    <path id="Trazado_17098" data-name="Trazado 17098" d="M-92.028-16.8V-6.6l-8.352-10.2H-103.6V0h3.84V-10.2L-91.38,0h3.192V-16.8ZM-84.2,0h3.888V-16.8H-84.2Zm11.352,0h3.888V-13.632h5.376V-16.8h-14.64v3.168h5.376ZM-46.62,0l-3.768-5.4a5.462,5.462,0,0,0,3.456-5.3c0-3.768-2.808-6.1-7.3-6.1H-61.5V0h3.888V-4.68h3.576L-50.8,0Zm-4.248-10.7c0,1.824-1.2,2.928-3.576,2.928h-3.168v-5.856h3.168C-52.068-13.632-50.868-12.552-50.868-10.7ZM-35.724.288c5.28,0,9.192-3.672,9.192-8.688s-3.912-8.688-9.192-8.688c-5.3,0-9.192,3.7-9.192,8.688S-41.028.288-35.724.288Zm0-3.312A5.125,5.125,0,0,1-40.98-8.4a5.125,5.125,0,0,1,5.256-5.376A5.125,5.125,0,0,1-30.468-8.4,5.125,5.125,0,0,1-35.724-3.024Zm23.472-.72a6.172,6.172,0,0,1-3.024.72A5.185,5.185,0,0,1-20.724-8.4a5.172,5.172,0,0,1,5.5-5.376,5.685,5.685,0,0,1,4.344,1.9l2.5-2.3a8.956,8.956,0,0,0-7.032-2.9c-5.352,0-9.24,3.624-9.24,8.688S-20.772.288-15.492.288A11.593,11.593,0,0,0-8.7-1.848V-8.664h-3.552Zm11.016.624V-7.008h7.8v-3.024h-7.8V-13.68H7.6V-16.8H-5.1V0H7.908V-3.12ZM22.572-16.8V-6.6L14.22-16.8H11V0h3.84V-10.2L23.22,0h3.192V-16.8ZM38.532.288c5.28,0,9.192-3.672,9.192-8.688s-3.912-8.688-9.192-8.688c-5.3,0-9.192,3.7-9.192,8.688S33.228.288,38.532.288Zm0-3.312A5.125,5.125,0,0,1,33.276-8.4a5.125,5.125,0,0,1,5.256-5.376A5.125,5.125,0,0,1,43.788-8.4,5.125,5.125,0,0,1,38.532-3.024ZM60.2,4.656H63.78a21.926,21.926,0,0,1-2.9-11.232,21.926,21.926,0,0,1,2.9-11.232H60.2a20.3,20.3,0,0,0-3,11.232A20.413,20.413,0,0,0,60.2,4.656ZM84.372-16.8V-6.6L76.02-16.8H72.8V0h3.84V-10.2L85.02,0h3.192V-16.8Zm16.44,21.456a20.025,20.025,0,0,0,3.024-11.232,19.914,19.914,0,0,0-3.024-11.232H97.236a21.717,21.717,0,0,1,2.928,11.232A21.717,21.717,0,0,1,97.236,4.656Z" transform="translate(1327 1291)" fill="#70ad54"/>
    <path id="Trazado_17097" data-name="Trazado 17097" d="M-73.776-13.68V-16.8h-12.7V0h3.888V-6.12h7.776V-9.24h-7.776v-4.44ZM-63.168.288c5.28,0,9.192-3.672,9.192-8.688s-3.912-8.688-9.192-8.688c-5.3,0-9.192,3.7-9.192,8.688S-68.472.288-63.168.288Zm0-3.312A5.125,5.125,0,0,1-68.424-8.4a5.125,5.125,0,0,1,5.256-5.376A5.125,5.125,0,0,1-57.912-8.4,5.125,5.125,0,0,1-63.168-3.024ZM-45.528.288c4.8,0,7.128-2.4,7.128-5.208,0-6.168-9.768-4.032-9.768-7.128,0-1.056.888-1.92,3.192-1.92a9.488,9.488,0,0,1,4.656,1.32l1.2-2.952a11.269,11.269,0,0,0-5.832-1.488c-4.776,0-7.08,2.376-7.08,5.232,0,6.24,9.768,4.08,9.768,7.224,0,1.032-.936,1.8-3.24,1.8a9.882,9.882,0,0,1-5.544-1.752l-1.32,2.928A11.974,11.974,0,0,0-45.528.288ZM-23.04-13.68V-16.8h-12.7V0h3.888V-6.12h7.776V-9.24h-7.776v-4.44ZM-12.432.288C-7.152.288-3.24-3.384-3.24-8.4s-3.912-8.688-9.192-8.688c-5.3,0-9.192,3.7-9.192,8.688S-17.736.288-12.432.288Zm0-3.312A5.125,5.125,0,0,1-17.688-8.4a5.125,5.125,0,0,1,5.256-5.376A5.125,5.125,0,0,1-7.176-8.4,5.125,5.125,0,0,1-12.432-3.024ZM14.568,0,10.8-5.4a5.462,5.462,0,0,0,3.456-5.3c0-3.768-2.808-6.1-7.3-6.1H-.312V0H3.576V-4.68H7.152L10.392,0ZM10.32-10.7c0,1.824-1.2,2.928-3.576,2.928H3.576v-5.856H6.744C9.12-13.632,10.32-12.552,10.32-10.7ZM25.464.288c5.28,0,9.192-3.672,9.192-8.688s-3.912-8.688-9.192-8.688c-5.3,0-9.192,3.7-9.192,8.688S20.16.288,25.464.288Zm0-3.312A5.125,5.125,0,0,1,20.208-8.4a5.125,5.125,0,0,1,5.256-5.376A5.125,5.125,0,0,1,30.72-8.4,5.125,5.125,0,0,1,25.464-3.024Zm21.672,7.68h3.576a21.926,21.926,0,0,1-2.9-11.232,21.926,21.926,0,0,1,2.9-11.232H47.136a20.3,20.3,0,0,0-3,11.232A20.413,20.413,0,0,0,47.136,4.656Zm25.3-18.336V-16.8h-12.7V0h3.888V-6.12H71.4V-9.24H63.624v-4.44ZM83.688,4.656A20.025,20.025,0,0,0,86.712-6.576a19.914,19.914,0,0,0-3.024-11.232H80.112A21.717,21.717,0,0,1,83.04-6.576,21.717,21.717,0,0,1,80.112,4.656Z" transform="translate(1309 1336)" fill="#70ad54"/>
    <path id="Trazado_17096" data-name="Trazado 17096" d="M-75.084-16.8h-7.272V0h3.888V-4.632h3.384c4.488,0,7.3-2.328,7.3-6.072C-67.788-14.472-70.6-16.8-75.084-16.8Zm-.216,9h-3.168v-5.832H-75.3c2.376,0,3.576,1.08,3.576,2.928C-71.724-8.88-72.924-7.8-75.3-7.8ZM-56.652.288c5.28,0,9.192-3.672,9.192-8.688s-3.912-8.688-9.192-8.688c-5.3,0-9.192,3.7-9.192,8.688S-61.956.288-56.652.288Zm0-3.312A5.125,5.125,0,0,1-61.908-8.4a5.125,5.125,0,0,1,5.256-5.376A5.125,5.125,0,0,1-51.4-8.4,5.125,5.125,0,0,1-56.652-3.024ZM-41.292,0H-37.4V-13.632h5.376V-16.8h-14.64v3.168h5.376Zm23.064,0h4.08L-21.66-16.8H-25.5L-32.988,0H-29l1.488-3.6h7.8Zm-8.04-6.552,2.664-6.432,2.664,6.432ZM-6.876.288c4.8,0,7.128-2.4,7.128-5.208,0-6.168-9.768-4.032-9.768-7.128,0-1.056.888-1.92,3.192-1.92a9.488,9.488,0,0,1,4.656,1.32l1.2-2.952A11.269,11.269,0,0,0-6.3-17.088c-4.776,0-7.08,2.376-7.08,5.232,0,6.24,9.768,4.08,9.768,7.224,0,1.032-.936,1.8-3.24,1.8A9.882,9.882,0,0,1-12.4-4.584l-1.32,2.928A11.974,11.974,0,0,0-6.876.288ZM2.916,0H6.8V-16.8H2.916ZM18.924.288c5.28,0,9.192-3.672,9.192-8.688s-3.912-8.688-9.192-8.688c-5.3,0-9.192,3.7-9.192,8.688S13.62.288,18.924.288Zm0-3.312A5.125,5.125,0,0,1,13.668-8.4a5.125,5.125,0,0,1,5.256-5.376A5.125,5.125,0,0,1,24.18-8.4,5.125,5.125,0,0,1,18.924-3.024ZM40.6,4.656h3.576a21.926,21.926,0,0,1-2.9-11.232,21.926,21.926,0,0,1,2.9-11.232H40.6a20.3,20.3,0,0,0-3,11.232A20.413,20.413,0,0,0,40.6,4.656ZM64.692,0h4.536L61.86-9.312,68.82-16.8H64.5L57.06-8.952V-16.8H53.2V0H57.06V-4.248L59.316-6.6Zm14.88,4.656A20.025,20.025,0,0,0,82.6-6.576a19.914,19.914,0,0,0-3.024-11.232H76A21.717,21.717,0,0,1,78.924-6.576,21.717,21.717,0,0,1,76,4.656Z" transform="translate(1305 1381)" fill="#70ad54"/>
    <path id="Trazado_17095" data-name="Trazado 17095" d="M-102.264,0l-.048-16.8H-105.5L-111.7-6.36l-6.288-10.44H-121.2V0h3.648V-9.864l4.92,8.088h1.752l4.944-8.3L-105.912,0Zm3.984,0h3.888V-16.8H-98.28Zm15.912.288a8.632,8.632,0,0,0,6.936-3l-2.5-2.3a5.354,5.354,0,0,1-4.224,1.992A5.154,5.154,0,0,1-87.528-8.4a5.154,5.154,0,0,1,5.376-5.376,5.405,5.405,0,0,1,4.224,1.968l2.5-2.3a8.673,8.673,0,0,0-6.912-2.976c-5.232,0-9.12,3.624-9.12,8.688S-87.576.288-82.368.288ZM-57.936,0-61.7-5.4a5.462,5.462,0,0,0,3.456-5.3c0-3.768-2.808-6.1-7.3-6.1h-7.272V0h3.888V-4.68h3.576L-62.112,0Zm-4.248-10.7c0,1.824-1.2,2.928-3.576,2.928h-3.168v-5.856h3.168C-63.384-13.632-62.184-12.552-62.184-10.7ZM-47.04.288c5.28,0,9.192-3.672,9.192-8.688s-3.912-8.688-9.192-8.688c-5.3,0-9.192,3.7-9.192,8.688S-52.344.288-47.04.288Zm0-3.312A5.125,5.125,0,0,1-52.3-8.4a5.125,5.125,0,0,1,5.256-5.376A5.125,5.125,0,0,1-41.784-8.4,5.125,5.125,0,0,1-47.04-3.024ZM-23.352-16.8V-6.6L-31.7-16.8H-34.92V0h3.84V-10.2L-22.7,0h3.192V-16.8ZM-8.064.288c4.776,0,7.608-2.736,7.608-7.68V-16.8H-4.3v9.264c0,3.192-1.368,4.512-3.744,4.512-2.352,0-3.744-1.32-3.744-4.512V-16.8h-3.888v9.408C-15.672-2.448-12.84.288-8.064.288ZM6.576,0h3.888V-13.632H15.84V-16.8H1.2v3.168H6.576ZM32.808,0,29.04-5.4A5.462,5.462,0,0,0,32.5-10.7c0-3.768-2.808-6.1-7.3-6.1H17.928V0h3.888V-4.68h3.576L28.632,0ZM28.56-10.7c0,1.824-1.2,2.928-3.576,2.928H21.816v-5.856h3.168C27.36-13.632,28.56-12.552,28.56-10.7ZM35.568,0h3.888V-16.8H35.568ZM47.3-3.12V-7.008h7.8v-3.024H47.3V-13.68h8.832V-16.8H43.44V0H56.448V-3.12ZM71.112-16.8V-6.6L62.76-16.8H59.544V0h3.84V-10.2L71.76,0h3.192V-16.8ZM82.416,0H86.3V-13.632H91.68V-16.8H77.04v3.168h5.376ZM97.632-3.12V-7.008h7.8v-3.024h-7.8V-13.68h8.832V-16.8h-12.7V0h13.008V-3.12ZM115.392.288c4.8,0,7.128-2.4,7.128-5.208,0-6.168-9.768-4.032-9.768-7.128,0-1.056.888-1.92,3.192-1.92a9.488,9.488,0,0,1,4.656,1.32l1.2-2.952a11.269,11.269,0,0,0-5.832-1.488c-4.776,0-7.08,2.376-7.08,5.232,0,6.24,9.768,4.08,9.768,7.224,0,1.032-.936,1.8-3.24,1.8a9.882,9.882,0,0,1-5.544-1.752l-1.32,2.928A11.974,11.974,0,0,0,115.392.288Z" transform="translate(1344 1426)" fill="#70ad54"/>
    <path id="Trazado_13942" data-name="Trazado 13942" d="M18.8,75.033a17.844,17.844,0,1,0,14.332,7.334L43.754,71.7a19.065,19.065,0,0,0,22.04-2.291l7.6,7.63a15.222,15.222,0,0,0,2.03,18.883,15.041,15.041,0,0,0,21.273.065l.065-.065a15.214,15.214,0,0,0,0-21.429,15.007,15.007,0,0,0-19.61-1.473l-7.766-7.8A19.293,19.293,0,0,0,69.9,45.448l12.676-12.73a17.658,17.658,0,0,0,23.006-1.785,17.772,17.772,0,1,0-26.886-2.11L66.515,41.054A19.09,19.09,0,0,0,42.9,38.625L36.5,32.2a15.21,15.21,0,0,0-1.464-19.692,15.041,15.041,0,0,0-21.273-.065l-.065.065a15.217,15.217,0,0,0,0,21.429,15.025,15.025,0,0,0,18.8,2.04l6.224,6.251a19.284,19.284,0,0,0,.653,26.077L29.257,78.471A17.571,17.571,0,0,0,18.8,75.033ZM84.351,9.613a12.231,12.231,0,0,1,17.3-.052l.052.052a12.358,12.358,0,0,1,0,17.424,12.231,12.231,0,0,1-17.3.052l-.052-.052A12.356,12.356,0,0,1,84.351,9.613ZM27.48,101.576a12.231,12.231,0,0,1-17.3.052l-.052-.052a12.356,12.356,0,0,1,0-17.424,12.231,12.231,0,0,1,17.3-.052l.052.052A12.358,12.358,0,0,1,27.48,101.576Z" transform="translate(1286.131 1045.484)" fill="#fff"/>
  </g>
</svg>
