<svg xmlns="http://www.w3.org/2000/svg" width="1050" height="414.001" viewBox="0 0 1050 414.001">
  <g id="Grupo_8792" data-name="Grupo 8792" transform="translate(-430 -1017.999)">
    <path id="Sustracción_4" data-name="Sustracción 4" d="M83.5,167A83.522,83.522,0,0,1,51,6.561a83.522,83.522,0,0,1,65,153.877A82.976,82.976,0,0,1,83.5,167ZM99.13,126.182a6.33,6.33,0,0,0-4.241,1.617,6.577,6.577,0,0,0-2.281,4.556,6.3,6.3,0,0,0,1.6,4.68,19.288,19.288,0,0,0,14.8,6.789,19.579,19.579,0,0,0,19.557-19.558,19.154,19.154,0,0,0-5.772-13.784,19.739,19.739,0,0,0-13.92-5.636h-78.5a6.526,6.526,0,0,0-6.518,6.519,6.605,6.605,0,0,0,6.518,6.518h78.638a6.383,6.383,0,0,1,0,12.766,6.59,6.59,0,0,1-4.891-2.171A6.537,6.537,0,0,0,99.13,126.182ZM30.376,78.632a6.526,6.526,0,0,0-6.518,6.519,6.608,6.608,0,0,0,6.518,6.524h99.553a22.886,22.886,0,1,0-20.915-32.192,6.464,6.464,0,0,0-.153,5.009,6.554,6.554,0,0,0,3.413,3.684,6.36,6.36,0,0,0,2.668.581,6.637,6.637,0,0,0,6.024-3.838,9.957,9.957,0,0,1,8.963-5.844,9.779,9.779,0,0,1,0,19.558Zm0-26.072a6.523,6.523,0,0,0-6.518,6.515,6.761,6.761,0,0,0,6.518,6.656H82.8A19.58,19.58,0,0,0,102.36,46.173,19.211,19.211,0,0,0,96.6,32.387,19.538,19.538,0,0,0,82.8,26.75a19.339,19.339,0,0,0-14.125,6.11,6.635,6.635,0,0,0-1.8,4.8A6.248,6.248,0,0,0,68.948,42.1a6.566,6.566,0,0,0,4.537,1.8,6.24,6.24,0,0,0,4.7-2.068,6.561,6.561,0,0,1,4.62-2.04,6.386,6.386,0,1,1-.139,12.77Z" transform="translate(484 1018)" fill="#3bbfbf"/>
    <path id="Sustracción_5" data-name="Sustracción 5" d="M83.5,167A83.522,83.522,0,0,1,51,6.561a83.522,83.522,0,0,1,65,153.877A82.976,82.976,0,0,1,83.5,167ZM82.649,23.055c-2.6,4.106-5.787,8.815-9.163,13.8C66.274,47.507,58.106,59.57,51.705,71.5c-7.426,13.838-10.958,24.732-10.8,33.3A42.8,42.8,0,0,0,53.3,134.319a41.141,41.141,0,0,0,58.541,0,44.228,44.228,0,0,0,12.555-29.513c.156-8.573-3.377-19.467-10.8-33.306-6.4-11.932-14.568-23.994-21.773-34.636C88.438,31.873,85.254,27.17,82.649,23.055Zm-2.617,111.48A28.887,28.887,0,0,1,53.08,95.674a54.652,54.652,0,0,0,30,38.7A29.606,29.606,0,0,1,80.032,134.535Z" transform="translate(876.999 1018)" fill="#3b5fbf"/>
    <rect id="Rectángulo_2049" data-name="Rectángulo 2049" width="275" height="44" rx="5" transform="translate(430 1185)" fill="#3bbfbf"/>
    <text id="Del_aire" data-name="Del aire" transform="translate(562 1215)" fill="#fff" font-size="25" font-family="OpenSans-Bold, Open Sans" font-weight="700"><tspan x="-47.876" y="0">Del aire</tspan></text>
    <rect id="Rectángulo_2050" data-name="Rectángulo 2050" width="275" height="44" rx="5" transform="translate(823 1185)" fill="#3b5fbf"/>
    <text id="Del_agua" data-name="Del agua" transform="translate(960 1215)" fill="#fff" font-size="25" font-family="OpenSans-Bold, Open Sans" font-weight="700"><tspan x="-54.077" y="0">Del agua</tspan></text>
    <path id="Sustracción_6" data-name="Sustracción 6" d="M83.5,0A83.5,83.5,0,1,1,0,83.5,83.5,83.5,0,0,1,83.5,0Z" transform="translate(1258.999 1018)" fill="#70ad54"/>
    <rect id="Rectángulo_2051" data-name="Rectángulo 2051" width="275" height="44" rx="5" transform="translate(1205 1185)" fill="#70ad54"/>
    <text id="De_sales_minerales" data-name="De sales minerales" transform="translate(1342 1215)" fill="#fff" font-size="25" font-family="OpenSans-Bold, Open Sans" font-weight="700"><tspan x="-116.388" y="0">De sales minerales</tspan></text>
    <text id="Carbono_C_" data-name="Carbono ( C )  " transform="translate(556 1291)" fill="#3bbfbf" font-size="24" font-family="Montserrat-Bold, Montserrat" font-weight="700"><tspan x="-87.996" y="0" xml:space="preserve">Carbono ( C )  </tspan></text>
    <text id="Oxígeno_O_" data-name="Oxígeno ( O )  " transform="translate(557 1336)" fill="#3bbfbf" font-size="24" font-family="Montserrat-Bold, Montserrat" font-weight="700"><tspan x="-88.572" y="0" xml:space="preserve">Oxígeno ( O )  </tspan></text>
    <text id="Hidrógeno_H_" data-name="Hidrógeno ( H )  " transform="translate(960 1291)" fill="#3b5fbf" font-size="24" font-family="Montserrat-Bold, Montserrat" font-weight="700"><tspan x="-101.988" y="0" xml:space="preserve">Hidrógeno ( H )  </tspan></text>
    <text id="Nitrógeno_N_" data-name="Nitrógeno ( N )" transform="translate(1322 1291)" fill="#70ad54" font-size="24" font-family="Montserrat-Bold, Montserrat" font-weight="700"><tspan x="-92.112" y="0">Nitrógeno ( N )</tspan></text>
    <text id="Fósforo_F_" data-name="Fósforo ( F )" transform="translate(1304 1336)" fill="#70ad54" font-size="24" font-family="Montserrat-Bold, Montserrat" font-weight="700"><tspan x="-73.512" y="0">Fósforo ( F )</tspan></text>
    <text id="Potasio_K_" data-name="Potasio ( K )" transform="translate(1305 1381)" fill="#70ad54" font-size="24" font-family="Montserrat-Bold, Montserrat" font-weight="700"><tspan x="-74.628" y="0">Potasio ( K )</tspan></text>
    <text id="Micronutrientes" transform="translate(1330 1426)" fill="#70ad54" font-size="24" font-family="Montserrat-Bold, Montserrat" font-weight="700"><tspan x="-100.404" y="0">Micronutrientes</tspan></text>
    <path id="Trazado_13942" data-name="Trazado 13942" d="M18.8,75.033a17.844,17.844,0,1,0,14.332,7.334L43.754,71.7a19.065,19.065,0,0,0,22.04-2.291l7.6,7.63a15.222,15.222,0,0,0,2.03,18.883,15.041,15.041,0,0,0,21.273.065l.065-.065a15.214,15.214,0,0,0,0-21.429,15.007,15.007,0,0,0-19.61-1.473l-7.766-7.8A19.293,19.293,0,0,0,69.9,45.448l12.676-12.73a17.658,17.658,0,0,0,23.006-1.785,17.772,17.772,0,1,0-26.886-2.11L66.515,41.054A19.09,19.09,0,0,0,42.9,38.625L36.5,32.2a15.21,15.21,0,0,0-1.464-19.692,15.041,15.041,0,0,0-21.273-.065l-.065.065a15.217,15.217,0,0,0,0,21.429,15.025,15.025,0,0,0,18.8,2.04l6.224,6.251a19.284,19.284,0,0,0,.653,26.077L29.257,78.471A17.571,17.571,0,0,0,18.8,75.033ZM84.351,9.613a12.231,12.231,0,0,1,17.3-.052l.052.052a12.358,12.358,0,0,1,0,17.424,12.231,12.231,0,0,1-17.3.052l-.052-.052A12.356,12.356,0,0,1,84.351,9.613ZM27.48,101.576a12.231,12.231,0,0,1-17.3.052l-.052-.052a12.356,12.356,0,0,1,0-17.424,12.231,12.231,0,0,1,17.3-.052l.052.052A12.358,12.358,0,0,1,27.48,101.576Z" transform="translate(1286.131 1045.484)" fill="#fff"/>
  </g>
</svg>
