<?xml version="1.0" encoding="utf-8"?>
<!-- Generator: Adobe Illustrator 22.0.1, SVG Export Plug-In . SVG Version: 6.00 Build 0)  -->
<svg version="1.1" id="Capa_1" xmlns="http://www.w3.org/2000/svg" xmlns:xlink="http://www.w3.org/1999/xlink" x="0px" y="0px"
	 viewBox="0 0 1050 414" style="enable-background:new 0 0 1050 414;" xml:space="preserve">
<style type="text/css">
	.st0{fill:#3BBFBF;}
	.st1{fill:#3B5FBF;}
	.st2{fill:#FFFFFF;}
	.st3{font-family:'OpenSans-Bold';}
	.st4{font-size:25px;}
	.st5{fill:#70AD54;}
	.st6{font-family:'Montserrat-Bold';}
	.st7{font-size:24px;}
</style>
<g id="Grupo_8792" transform="translate(-430 -1017.999)">
	<path id="Sustracción_4" class="st0" d="M567.5,1185c-46.1,0-83.5-37.4-83.5-83.6c0-33.5,20.1-63.8,51-76.9
		c42.6-17.8,91.5,2.4,109.2,44.9c17.6,42.3-2.1,90.9-44.2,108.9C589.7,1182.8,578.7,1185,567.5,1185z M583.1,1144.2
		c-1.6,0-3.1,0.6-4.2,1.6c-1.3,1.2-2.2,2.8-2.3,4.6c-0.1,1.7,0.5,3.4,1.6,4.7c3.7,4.3,9.1,6.8,14.8,6.8c10.8,0,19.5-8.8,19.6-19.6
		c0-5.2-2.1-10.2-5.8-13.8c-3.7-3.6-8.7-5.7-13.9-5.6h-78.5c-3.6,0-6.5,2.9-6.5,6.5c0,3.6,2.9,6.5,6.5,6.5H593
		c3.5,0,6.4,2.9,6.4,6.4c0,3.5-2.9,6.4-6.4,6.4c-1.9,0-3.6-0.8-4.9-2.2C586.9,1145,585,1144.2,583.1,1144.2z M514.4,1096.6
		c-3.6,0-6.5,2.9-6.5,6.5c0,3.6,2.9,6.5,6.5,6.5h99.6c12.6,0,22.9-10.3,22.9-22.9c0-12.6-10.3-22.9-22.9-22.9
		c-9,0-17.2,5.3-20.9,13.6c-0.7,1.6-0.8,3.4-0.2,5c0.6,1.6,1.8,3,3.4,3.7c0.8,0.4,1.7,0.6,2.7,0.6c2.6,0,4.9-1.5,6-3.8
		c1.6-3.5,5.1-5.8,9-5.8c5.4,0,9.8,4.4,9.8,9.8c0,5.4-4.4,9.8-9.8,9.8L514.4,1096.6z M514.4,1070.6c-3.6,0-6.5,2.9-6.5,6.5
		c0.1,3.6,2.9,6.5,6.5,6.7h52.4c10.8,0,19.5-8.8,19.6-19.6c0-5.2-2.1-10.2-5.8-13.8c-3.7-3.6-8.6-5.7-13.8-5.6
		c-5.4,0-10.5,2.2-14.1,6.1c-1.2,1.3-1.9,3-1.8,4.8c0.1,1.7,0.8,3.3,2.1,4.4c1.2,1.2,2.8,1.8,4.5,1.8c1.8,0,3.5-0.7,4.7-2.1
		c1.2-1.3,2.9-2,4.6-2c3.5,0,6.4,2.8,6.4,6.4s-2.8,6.4-6.4,6.4c-0.1,0-0.1,0-0.2,0L514.4,1070.6z"/>
	<path id="Sustracción_5" class="st1" d="M960.5,1185c-46.1,0-83.5-37.4-83.5-83.6c0-33.5,20.1-63.8,51-76.9
		c42.6-17.8,91.5,2.4,109.2,44.9c17.6,42.3-2.1,90.9-44.2,108.9C982.7,1182.8,971.7,1185,960.5,1185z M959.6,1041.1
		c-2.6,4.1-5.8,8.8-9.2,13.8c-7.2,10.7-15.4,22.7-21.8,34.6c-7.4,13.8-11,24.7-10.8,33.3c0.2,11.1,4.6,21.7,12.4,29.5
		c16,16.2,42,16.3,58.2,0.4c0.1-0.1,0.2-0.2,0.4-0.4c7.7-7.9,12.2-18.5,12.6-29.5c0.2-8.6-3.4-19.5-10.8-33.3
		c-6.4-11.9-14.6-24-21.8-34.6C965.4,1049.9,962.3,1045.2,959.6,1041.1z M957,1152.5c-16-0.1-28.8-13.1-28.7-29
		c0-3.4,0.6-6.7,1.8-9.8c3.3,16.9,14.5,31.3,30,38.7C959.1,1152.5,958,1152.5,957,1152.5z"/>
	<path id="Rectángulo_2049" class="st0" d="M435,1185h265c2.8,0,5,2.2,5,5v34c0,2.8-2.2,5-5,5H435c-2.8,0-5-2.2-5-5v-34
		C430,1187.2,432.2,1185,435,1185z"/>
	<text transform="matrix(1 0 0 1 514.124 1215)" class="st2 st3 st4">Del aire</text>
	<path id="Rectángulo_2050" class="st1" d="M828,1185h265c2.8,0,5,2.2,5,5v34c0,2.8-2.2,5-5,5H828c-2.8,0-5-2.2-5-5v-34
		C823,1187.2,825.2,1185,828,1185z"/>
	<text transform="matrix(1 0 0 1 905.923 1215)" class="st2 st3 st4">Del agua</text>
	<path id="Sustracción_6" class="st5" d="M1342.5,1018c46.1,0,83.5,37.4,83.5,83.5s-37.4,83.5-83.5,83.5s-83.5-37.4-83.5-83.5
		S1296.4,1018,1342.5,1018z"/>
	<path id="Rectángulo_2051" class="st5" d="M1210,1185h265c2.8,0,5,2.2,5,5v34c0,2.8-2.2,5-5,5h-265c-2.8,0-5-2.2-5-5v-34
		C1205,1187.2,1207.2,1185,1210,1185z"/>
	<text transform="matrix(1 0 0 1 1225.6121 1215)" class="st2 st3 st4">De sales minerales</text>
	<text transform="matrix(1 0 0 1 468.004 1291)" class="st0 st6 st7">Carbono ( C )  </text>
	<text transform="matrix(1 0 0 1 468.428 1336)" class="st0 st6 st7">Oxígeno ( O )  </text>
	<text transform="matrix(1 0 0 1 858.012 1291)" class="st1 st6 st7">Hidrógeno ( H )  </text>
	<text transform="matrix(1 0 0 1 1229.8879 1291)" class="st5 st6 st7">Nitrógeno ( N )</text>
	<text transform="matrix(1 0 0 1 1230.488 1336)" class="st5 st6 st7">Fósforo ( P )</text>
	<text transform="matrix(1 0 0 1 1230.3721 1381)" class="st5 st6 st7">Potasio ( K )</text>
	<text transform="matrix(1 0 0 1 1229.5959 1426)" class="st5 st6 st7">Micronutrientes</text>
	<path id="Trazado_13942" class="st2" d="M1304.9,1120.5c-9.9,0-17.9,7.9-17.9,17.8s7.9,17.9,17.8,17.9c9.9,0,17.9-7.9,17.9-17.8
		c0-3.8-1.2-7.5-3.4-10.6l10.6-10.7c7.1,4,15.9,3.1,22-2.3l7.6,7.6c-3.8,6-3,13.8,2,18.9c5.9,5.9,15.4,5.9,21.3,0.1c0,0,0,0,0,0
		l0.1-0.1c5.9-5.9,5.9-15.5,0-21.4c-5.3-5.3-13.6-5.9-19.6-1.5l-7.8-7.8c3.8-6,4-13.6,0.5-19.8l12.7-12.7c7.1,5.2,16.8,4.4,23-1.8
		c7-6.9,7-18.2,0.1-25.1c-6.9-7-18.2-7-25.1-0.1c-6.2,6.2-7,16-1.8,23.1l-12.2,12.2c-6.3-6.2-16.1-7.2-23.6-2.4l-6.4-6.4
		c4.4-6,3.8-14.4-1.5-19.7c-5.9-5.9-15.4-5.9-21.3-0.1c0,0,0,0,0,0l-0.1,0.1c-5.9,5.9-5.9,15.5,0,21.4c5,5,12.8,5.9,18.8,2l6.2,6.3
		c-6.6,7.5-6.3,18.9,0.7,26.1l-10.1,10.2C1312.4,1121.7,1308.7,1120.5,1304.9,1120.5z M1370.5,1055.1c4.8-4.8,12.5-4.8,17.3-0.1
		c0,0,0,0,0,0l0.1,0.1c4.8,4.8,4.8,12.6,0,17.4c-4.8,4.8-12.5,4.8-17.3,0.1c0,0,0,0,0,0l-0.1-0.1
		C1365.7,1067.7,1365.7,1059.9,1370.5,1055.1z M1313.6,1147.1c-4.8,4.8-12.5,4.8-17.3,0.1c0,0,0,0,0,0l-0.1-0.1
		c-4.8-4.8-4.8-12.6,0-17.4c4.8-4.8,12.5-4.8,17.3-0.1c0,0,0,0,0,0l0.1,0.1C1318.4,1134.5,1318.4,1142.2,1313.6,1147.1z"/>
</g>
</svg>
