<svg xmlns="http://www.w3.org/2000/svg" width="781.09" height="145" viewBox="0 0 781.09 145">
  <g id="Grupo_8809" data-name="Grupo 8809" transform="translate(-568 -2393)">
    <rect id="Rectángulo_2032" data-name="Rectángulo 2032" width="128" height="141" transform="translate(568 2393)" fill="#d6f6b3"/>
    <path id="Trazado_17121" data-name="Trazado 17121" d="M38.42-47.6v28.9L14.756-47.6H5.644V0h10.88V-28.9L40.256,0H49.3V-47.6Z" transform="translate(603 2479)" fill="#010101"/>
    <path id="Trazado_17122" data-name="Trazado 17122" d="M.572-15.4v5.412H3.74V-12.5h5.1L3.322,0H7.194l5.72-13.09V-15.4Z" transform="translate(578 2418)" fill="#010101"/>
    <path id="Trazado_17120" data-name="Trazado 17120" d="M8.475-10.5v6.375L3.255-10.5H1.245V0h2.4V-6.375L8.88,0h1.995V-10.5ZM14.37-9.195a1.346,1.346,0,0,0,1.455-1.35,1.314,1.314,0,0,0-1.455-1.26A1.338,1.338,0,0,0,12.915-10.5,1.338,1.338,0,0,0,14.37-9.195ZM13.2,0h2.34V-8.07H13.2Zm9.09-2.04a1.577,1.577,0,0,1-.945.3A.941.941,0,0,1,20.34-2.805V-6.09h2.01v-1.8H20.34V-9.855H18V-7.89H16.755v1.8H18v3.315c0,1.92,1.11,2.9,3.015,2.9A3.344,3.344,0,0,0,22.92-.39Zm4.185-4.965V-8.07H24.24V0h2.34V-3.81a1.983,1.983,0,0,1,2.145-2.25c.18,0,.33.015.525.03V-8.19A3.257,3.257,0,0,0,26.475-7.005Zm6.54-2.1h1.83l2.715-2.16H35.04ZM34.41.12a4.142,4.142,0,0,0,4.425-4.155A4.142,4.142,0,0,0,34.41-8.19a4.154,4.154,0,0,0-4.44,4.155A4.154,4.154,0,0,0,34.41.12Zm0-1.92a2.048,2.048,0,0,1-2.07-2.235A2.048,2.048,0,0,1,34.41-6.27a2.037,2.037,0,0,1,2.055,2.235A2.037,2.037,0,0,1,34.41-1.8ZM46.5-8.07v1.035A3.239,3.239,0,0,0,43.83-8.19a3.842,3.842,0,0,0-4.035,3.9A3.842,3.842,0,0,0,43.83-.39a3.322,3.322,0,0,0,2.55-1v.345c0,1.455-.72,2.2-2.37,2.2A4.823,4.823,0,0,1,41.16.24l-.93,1.68a6.648,6.648,0,0,0,3.96,1.11c2.91,0,4.53-1.38,4.53-4.38V-8.07ZM44.295-2.31a1.972,1.972,0,0,1-2.13-1.98,1.972,1.972,0,0,1,2.13-1.98A1.96,1.96,0,0,1,46.41-4.29,1.96,1.96,0,0,1,44.295-2.31ZM58.8-4A4,4,0,0,0,54.6-8.19a4.108,4.108,0,0,0-4.305,4.155c0,2.4,1.815,4.155,4.6,4.155a4.227,4.227,0,0,0,3.33-1.305l-1.245-1.35a2.736,2.736,0,0,1-2.025.78,2.152,2.152,0,0,1-2.31-1.62h6.1C58.77-3.57,58.8-3.825,58.8-4ZM54.615-6.42a1.918,1.918,0,0,1,1.98,1.68H52.62A1.91,1.91,0,0,1,54.615-6.42Zm10.65-1.77a3.533,3.533,0,0,0-2.67,1.065V-8.07H60.36V0H62.7V-3.99c0-1.485.81-2.175,1.935-2.175,1.035,0,1.635.6,1.635,1.9V0h2.34V-4.62C68.61-7.08,67.17-8.19,65.265-8.19ZM74.655.12A4.142,4.142,0,0,0,79.08-4.035,4.142,4.142,0,0,0,74.655-8.19a4.154,4.154,0,0,0-4.44,4.155A4.154,4.154,0,0,0,74.655.12Zm0-1.92a2.048,2.048,0,0,1-2.07-2.235,2.048,2.048,0,0,1,2.07-2.235A2.037,2.037,0,0,1,76.71-4.035,2.037,2.037,0,0,1,74.655-1.8Z" transform="translate(585 2516)" fill="#010101"/>
    <rect id="Rectángulo_2033" data-name="Rectángulo 2033" width="128" height="4" transform="translate(568 2534)" fill="#3e3e3e"/>
    <rect id="Rectángulo_2034" data-name="Rectángulo 2034" width="128" height="141" transform="translate(731 2393)" fill="#d6f6b3"/>
    <path id="Trazado_17118" data-name="Trazado 17118" d="M25.862-46.9H5.561V0H16.415V-12.931h9.447c12.529,0,20.368-6.5,20.368-16.951C46.23-40.4,38.391-46.9,25.862-46.9Zm-.6,25.125H16.415V-38.056h8.844c6.633,0,9.983,3.015,9.983,8.174C35.242-24.79,31.892-21.775,25.259-21.775Z" transform="translate(768 2478)" fill="#010101"/>
    <path id="Trazado_17119" data-name="Trazado 17119" d="M.154-15.4v2.86h3.08V0H6.8V-15.4ZM14.762-9.614H13.508l.242-2.926h6.424V-15.4H10.78L9.988-6.732h3.938c2.794,0,3.586.792,3.586,2,0,1.254-1.1,2-2.882,2a7.411,7.411,0,0,1-4.378-1.386L8.844-1.386A10.641,10.641,0,0,0,14.718.264c4.4,0,6.4-2.376,6.4-5.1S19.316-9.614,14.762-9.614Z" transform="translate(742 2418)" fill="#010101"/>
    <path id="Trazado_17117" data-name="Trazado 17117" d="M9.18-8.55V-10.5H1.245V0h2.43V-3.825h4.86v-1.95H3.675V-8.55ZM12.9-9.1h1.83l2.715-2.16h-2.52ZM14.3.12A4.142,4.142,0,0,0,18.72-4.035,4.142,4.142,0,0,0,14.3-8.19a4.154,4.154,0,0,0-4.44,4.155A4.154,4.154,0,0,0,14.3.12Zm0-1.92a2.048,2.048,0,0,1-2.07-2.235A2.048,2.048,0,0,1,14.3-6.27,2.037,2.037,0,0,1,16.35-4.035,2.037,2.037,0,0,1,14.3-1.8ZM23,.12c2.415,0,3.81-1.065,3.81-2.565,0-3.18-4.875-1.845-4.875-3.225,0-.42.45-.75,1.5-.75a4.634,4.634,0,0,1,2.325.6l.78-1.665a6.636,6.636,0,0,0-3.1-.705c-2.355,0-3.735,1.08-3.735,2.61,0,3.225,4.875,1.875,4.875,3.195,0,.45-.405.735-1.485.735a5.521,5.521,0,0,1-2.805-.78L19.5-.75A6.928,6.928,0,0,0,23,.12ZM30.81-8.235c0-.795.375-1.17,1.065-1.17a1.638,1.638,0,0,1,.945.285l.615-1.7a3.317,3.317,0,0,0-1.785-.435,2.817,2.817,0,0,0-3.12,3v.36H27.285v1.8H28.53V0h2.34V-6.09h2.01v-1.8H30.81ZM37.785.12A4.142,4.142,0,0,0,42.21-4.035,4.142,4.142,0,0,0,37.785-8.19a4.154,4.154,0,0,0-4.44,4.155A4.154,4.154,0,0,0,37.785.12Zm0-1.92a2.048,2.048,0,0,1-2.07-2.235,2.048,2.048,0,0,1,2.07-2.235A2.037,2.037,0,0,1,39.84-4.035,2.037,2.037,0,0,1,37.785-1.8ZM46-7.005V-8.07H43.77V0h2.34V-3.81a1.983,1.983,0,0,1,2.145-2.25c.18,0,.33.015.525.03V-8.19A3.257,3.257,0,0,0,46-7.005ZM53.94.12a4.142,4.142,0,0,0,4.425-4.155A4.142,4.142,0,0,0,53.94-8.19,4.154,4.154,0,0,0,49.5-4.035,4.154,4.154,0,0,0,53.94.12Zm0-1.92a2.048,2.048,0,0,1-2.07-2.235A2.048,2.048,0,0,1,53.94-6.27a2.037,2.037,0,0,1,2.055,2.235A2.037,2.037,0,0,1,53.94-1.8Z" transform="translate(761 2516)" fill="#010101"/>
    <rect id="Rectángulo_2035" data-name="Rectángulo 2035" width="128" height="4" transform="translate(731 2534)" fill="#3e3e3e"/>
    <rect id="Rectángulo_2036" data-name="Rectángulo 2036" width="127" height="141" transform="translate(894 2393)" fill="#e8c7ce"/>
    <path id="Trazado_17115" data-name="Trazado 17115" d="M38.216,0H51.068L30.192-26.384,49.912-47.6H37.672L16.592-25.364V-47.6H5.644V0H16.592V-12.036L22.984-18.7Z" transform="translate(930 2479)" fill="#010101"/>
    <path id="Trazado_17116" data-name="Trazado 17116" d="M.147-14.7v2.73h2.94V0h3.4V-14.7Zm14.07-.252c-3.108,0-5.565,1.89-5.565,4.893,0,2.772,2.226,4.578,5.061,4.578A5.024,5.024,0,0,0,17.367-6.8c-.1,2.835-1.7,4.284-4.137,4.284a4.754,4.754,0,0,1-2.751-.735l-1.26,2.5A7.858,7.858,0,0,0,13.293.252c4.452,0,7.5-2.835,7.5-7.917C20.79-12.411,18.291-14.952,14.217-14.952Zm.252,6.93a2.216,2.216,0,0,1-2.5-2.2,2.2,2.2,0,0,1,2.457-2.184c1.617,0,2.562.924,2.562,2.184A2.28,2.28,0,0,1,14.469-8.022Z" transform="translate(903 2417)" fill="#010101"/>
    <path id="Trazado_17114" data-name="Trazado 17114" d="M5.79-10.5H1.245V0h2.43V-2.895H5.79c2.805,0,4.56-1.455,4.56-3.8S8.6-10.5,5.79-10.5ZM5.655-4.875H3.675V-8.52h1.98c1.485,0,2.235.675,2.235,1.83C7.89-5.55,7.14-4.875,5.655-4.875Zm10.08,5A4.142,4.142,0,0,0,20.16-4.035,4.142,4.142,0,0,0,15.735-8.19,4.154,4.154,0,0,0,11.3-4.035,4.154,4.154,0,0,0,15.735.12Zm0-1.92a2.048,2.048,0,0,1-2.07-2.235,2.048,2.048,0,0,1,2.07-2.235A2.037,2.037,0,0,1,17.79-4.035,2.037,2.037,0,0,1,15.735-1.8ZM26.3-2.04a1.577,1.577,0,0,1-.945.3.941.941,0,0,1-1-1.065V-6.09h2.01v-1.8h-2.01V-9.855H22V-7.89H20.76v1.8H22v3.315c0,1.92,1.11,2.9,3.015,2.9a3.344,3.344,0,0,0,1.9-.51Zm5.2-6.15a6.2,6.2,0,0,0-3.48.975l.84,1.635a3.88,3.88,0,0,1,2.325-.75c1.26,0,1.86.585,1.86,1.59h-1.86c-2.46,0-3.465.99-3.465,2.415C27.72-.93,28.845.12,30.735.12A2.648,2.648,0,0,0,33.195-1V0h2.19V-4.605C35.385-7.05,33.96-8.19,31.5-8.19Zm-.18,6.735c-.825,0-1.32-.39-1.32-.975,0-.54.345-.945,1.44-.945h1.605v.825A1.724,1.724,0,0,1,31.32-1.455ZM40.215.12c2.415,0,3.81-1.065,3.81-2.565,0-3.18-4.875-1.845-4.875-3.225,0-.42.45-.75,1.5-.75a4.634,4.634,0,0,1,2.325.6l.78-1.665a6.636,6.636,0,0,0-3.1-.705c-2.355,0-3.735,1.08-3.735,2.61,0,3.225,4.875,1.875,4.875,3.195,0,.45-.4.735-1.485.735a5.521,5.521,0,0,1-2.8-.78L36.72-.75A6.928,6.928,0,0,0,40.215.12Zm6.42-9.315a1.346,1.346,0,0,0,1.455-1.35,1.314,1.314,0,0,0-1.455-1.26A1.338,1.338,0,0,0,45.18-10.5,1.338,1.338,0,0,0,46.635-9.195ZM45.465,0h2.34V-8.07h-2.34ZM53.82.12a4.142,4.142,0,0,0,4.425-4.155A4.142,4.142,0,0,0,53.82-8.19a4.154,4.154,0,0,0-4.44,4.155A4.154,4.154,0,0,0,53.82.12Zm0-1.92a2.048,2.048,0,0,1-2.07-2.235A2.048,2.048,0,0,1,53.82-6.27a2.037,2.037,0,0,1,2.055,2.235A2.037,2.037,0,0,1,53.82-1.8Z" transform="translate(923 2516)" fill="#010101"/>
    <rect id="Rectángulo_2037" data-name="Rectángulo 2037" width="127" height="4" transform="translate(894 2534)" fill="#3e3e3e"/>
    <rect id="Rectángulo_2042" data-name="Rectángulo 2042" width="128" height="141" transform="translate(1055 2393)" fill="#e8c7cc"/>
    <path id="Trazado_17112" data-name="Trazado 17112" d="M59.3,0,59.16-47.6H50.116L32.572-18.02,14.756-47.6H5.644V0H15.98V-27.948L29.92-5.032h4.964L48.892-28.56,48.96,0ZM97.512-36.584v4.692c-2.788-3.536-7-5.236-12.1-5.236-10.132,0-18.292,7-18.292,17.68s8.16,17.68,18.292,17.68c4.76,0,8.772-1.5,11.56-4.556V-4.76c0,6.6-3.264,10-10.744,10A21.865,21.865,0,0,1,73.3,1.088L69.088,8.7c4.284,3.332,11.016,5.032,17.952,5.032,13.192,0,20.536-6.256,20.536-19.856V-36.584Zm-10,26.112c-5.576,0-9.656-3.6-9.656-8.976s4.08-8.976,9.656-8.976,9.588,3.6,9.588,8.976S93.092-10.472,87.516-10.472Z" transform="translate(1065 2479)" fill="#010101"/>
    <path id="Trazado_17113" data-name="Trazado 17113" d="M.147-14.7v2.73h2.94V0h3.4V-14.7ZM13.713-2.772l3.381-3.192c2.058-1.911,2.457-3.213,2.457-4.641,0-2.667-2.184-4.347-5.46-4.347a6.827,6.827,0,0,0-5.838,2.73l2.478,1.6a3.594,3.594,0,0,1,3.045-1.47c1.554,0,2.352.672,2.352,1.827,0,.714-.231,1.47-1.533,2.709L8.925-2.2V0H20.034V-2.772Z" transform="translate(1065 2417)" fill="#010101"/>
    <path id="Trazado_17111" data-name="Trazado 17111" d="M13.08,0l-.03-10.5H11.055L7.185-3.975,3.255-10.5H1.245V0h2.28V-6.165L6.6-1.11H7.7l3.09-5.19L10.8,0Zm5.58-8.19a6.2,6.2,0,0,0-3.48.975l.84,1.635a3.88,3.88,0,0,1,2.325-.75c1.26,0,1.86.585,1.86,1.59h-1.86c-2.46,0-3.465.99-3.465,2.415C14.88-.93,16,.12,17.9.12A2.648,2.648,0,0,0,20.355-1V0h2.19V-4.605C22.545-7.05,21.12-8.19,18.66-8.19Zm-.18,6.735c-.825,0-1.32-.39-1.32-.975,0-.54.345-.945,1.44-.945h1.6v.825A1.724,1.724,0,0,1,18.48-1.455ZM30.855-8.07v1.035a3.239,3.239,0,0,0-2.67-1.155,3.842,3.842,0,0,0-4.035,3.9,3.842,3.842,0,0,0,4.035,3.9,3.322,3.322,0,0,0,2.55-1v.345c0,1.455-.72,2.2-2.37,2.2A4.823,4.823,0,0,1,25.515.24l-.93,1.68a6.648,6.648,0,0,0,3.96,1.11c2.91,0,4.53-1.38,4.53-4.38V-8.07Zm-2.2,5.76a1.972,1.972,0,0,1-2.13-1.98,1.972,1.972,0,0,1,2.13-1.98,1.96,1.96,0,0,1,2.115,1.98A1.96,1.96,0,0,1,28.65-2.31Zm11.5-5.88a3.533,3.533,0,0,0-2.67,1.065V-8.07H35.25V0h2.34V-3.99c0-1.485.81-2.175,1.935-2.175,1.035,0,1.635.6,1.635,1.9V0H43.5V-4.62C43.5-7.08,42.06-8.19,40.155-8.19ZM53.61-4a4,4,0,0,0-4.2-4.185A4.108,4.108,0,0,0,45.1-4.035c0,2.4,1.815,4.155,4.6,4.155a4.227,4.227,0,0,0,3.33-1.305l-1.245-1.35a2.736,2.736,0,0,1-2.025.78,2.152,2.152,0,0,1-2.31-1.62h6.105C53.58-3.57,53.61-3.825,53.61-4ZM49.425-6.42A1.918,1.918,0,0,1,51.4-4.74H47.43A1.91,1.91,0,0,1,49.425-6.42ZM57.885.12c2.415,0,3.81-1.065,3.81-2.565,0-3.18-4.875-1.845-4.875-3.225,0-.42.45-.75,1.5-.75a4.634,4.634,0,0,1,2.325.6l.78-1.665a6.636,6.636,0,0,0-3.1-.705c-2.355,0-3.735,1.08-3.735,2.61,0,3.225,4.875,1.875,4.875,3.195,0,.45-.4.735-1.485.735a5.521,5.521,0,0,1-2.805-.78L54.39-.75A6.928,6.928,0,0,0,57.885.12Zm6.42-9.315a1.346,1.346,0,0,0,1.455-1.35,1.314,1.314,0,0,0-1.455-1.26A1.338,1.338,0,0,0,62.85-10.5,1.338,1.338,0,0,0,64.305-9.195ZM63.135,0h2.34V-8.07h-2.34ZM71.49.12a4.142,4.142,0,0,0,4.425-4.155A4.142,4.142,0,0,0,71.49-8.19a4.154,4.154,0,0,0-4.44,4.155A4.154,4.154,0,0,0,71.49.12Zm0-1.92a2.048,2.048,0,0,1-2.07-2.235A2.048,2.048,0,0,1,71.49-6.27a2.037,2.037,0,0,1,2.055,2.235A2.037,2.037,0,0,1,71.49-1.8Z" transform="translate(1078 2516)" fill="#010101"/>
    <rect id="Rectángulo_2043" data-name="Rectángulo 2043" width="128" height="4" transform="translate(1055 2534)" fill="#3e3e3e"/>
    <path id="Trazado_17123" data-name="Trazado 17123" d="M1.86-12.39H16.14v-3.66H1.86Zm0,7.44H16.14V-8.61H1.86Zm32.43.99,4.83-4.56c2.94-2.73,3.51-4.59,3.51-6.63,0-3.81-3.12-6.21-7.8-6.21-3.78,0-6.72,1.53-8.34,3.9l3.54,2.28a5.135,5.135,0,0,1,4.35-2.1c2.22,0,3.36.96,3.36,2.61,0,1.02-.33,2.1-2.19,3.87l-8.1,7.65V0H43.32V-3.96Zm13.8-6.57A2.864,2.864,0,0,0,51-13.47a2.8,2.8,0,0,0-2.91-2.88,2.8,2.8,0,0,0-2.91,2.88A2.864,2.864,0,0,0,48.09-10.53Zm0,10.77A2.864,2.864,0,0,0,51-2.7a2.8,2.8,0,0,0-2.91-2.88A2.8,2.8,0,0,0,45.18-2.7,2.864,2.864,0,0,0,48.09.24ZM52.23-21v3.9h4.2V0h4.86V-21ZM67.71-10.53a2.864,2.864,0,0,0,2.91-2.94,2.8,2.8,0,0,0-2.91-2.88,2.8,2.8,0,0,0-2.91,2.88A2.864,2.864,0,0,0,67.71-10.53Zm0,10.77A2.864,2.864,0,0,0,70.62-2.7a2.8,2.8,0,0,0-2.91-2.88A2.8,2.8,0,0,0,64.8-2.7,2.864,2.864,0,0,0,67.71.24ZM82.62-12.45l4.74-5.4V-21H72.66v3.9H81.6l-4.32,4.89V-9H79.5c2.76,0,3.93.99,3.93,2.58,0,1.71-1.5,2.7-3.93,2.7a10.2,10.2,0,0,1-6-1.89L71.61-1.89A14.439,14.439,0,0,0,79.62.36c5.97,0,8.7-3.24,8.7-6.78C88.32-9.51,86.4-11.85,82.62-12.45Zm10.71,1.92a2.864,2.864,0,0,0,2.91-2.94,2.8,2.8,0,0,0-2.91-2.88,2.8,2.8,0,0,0-2.91,2.88A2.864,2.864,0,0,0,93.33-10.53Zm0,10.77A2.864,2.864,0,0,0,96.24-2.7a2.8,2.8,0,0,0-2.91-2.88A2.8,2.8,0,0,0,90.42-2.7,2.864,2.864,0,0,0,93.33.24Zm11.76-4.2,4.83-4.56c2.94-2.73,3.51-4.59,3.51-6.63,0-3.81-3.12-6.21-7.8-6.21-3.78,0-6.72,1.53-8.34,3.9l3.54,2.28a5.135,5.135,0,0,1,4.35-2.1c2.22,0,3.36.96,3.36,2.61,0,1.02-.33,2.1-2.19,3.87l-8.1,7.65V0h15.87V-3.96Zm13.8-6.57a2.864,2.864,0,0,0,2.91-2.94,2.8,2.8,0,0,0-2.91-2.88,2.8,2.8,0,0,0-2.91,2.88A2.864,2.864,0,0,0,118.89-10.53Zm0,10.77A2.864,2.864,0,0,0,121.8-2.7a2.8,2.8,0,0,0-2.91-2.88,2.8,2.8,0,0,0-2.91,2.88A2.864,2.864,0,0,0,118.89.24ZM123.03-21v3.9h4.2V0h4.86V-21Z" transform="translate(1217 2483)" fill="#00223d"/>
  </g>
</svg>
