<svg xmlns="http://www.w3.org/2000/svg" width="1059.072" height="75.692" viewBox="0 0 1059.072 75.692">
  <g id="Grupo_8811" data-name="Grupo 8811" transform="translate(-390.196 -716.964)">
    <path id="Trazado_17125" data-name="Trazado 17125" d="M.2-19.6v3.64h3.92V0H8.652V-19.6ZM29.82-15.288a5.853,5.853,0,0,0-4.732,1.96v-1.736H20.916v20.5h4.368V-1.6A5.848,5.848,0,0,0,29.82.224c4.228,0,7.5-3.024,7.5-7.756S34.048-15.288,29.82-15.288ZM29.064-3.36c-2.184,0-3.836-1.568-3.836-4.172S26.88-11.7,29.064-11.7,32.9-10.136,32.9-7.532,31.248-3.36,29.064-3.36ZM49.14-15.288a5.853,5.853,0,0,0-4.732,1.96v-1.736H40.236v20.5H44.6V-1.6A5.848,5.848,0,0,0,49.14.224c4.228,0,7.5-3.024,7.5-7.756S53.368-15.288,49.14-15.288ZM48.384-3.36c-2.184,0-3.836-1.568-3.836-4.172S46.2-11.7,48.384-11.7s3.836,1.568,3.836,4.172S50.568-3.36,48.384-3.36ZM78.848-15.288a6.774,6.774,0,0,0-5.432,2.464,5.623,5.623,0,0,0-4.956-2.464,6.1,6.1,0,0,0-4.732,1.96v-1.736H59.556V0h4.368V-7.56c0-2.688,1.372-3.948,3.3-3.948,1.82,0,2.856,1.12,2.856,3.556V0h4.368V-7.56c0-2.688,1.372-3.948,3.332-3.948,1.764,0,2.856,1.12,2.856,3.556V0h4.368V-8.624C85.008-13.216,82.432-15.288,78.848-15.288Zm17.724,3.724H109.9V-14.98H96.572Zm0,6.944H109.9V-8.036H96.572ZM119.728-19.6v3.64h3.92V0h4.536V-19.6Zm32.116,4.536v1.932a6.047,6.047,0,0,0-4.984-2.156c-4.172,0-7.532,2.884-7.532,7.28s3.36,7.28,7.532,7.28A6.2,6.2,0,0,0,151.62-2.6v.644c0,2.716-1.344,4.116-4.424,4.116a9,9,0,0,1-5.32-1.708L140.14,3.584a12.41,12.41,0,0,0,7.392,2.072c5.432,0,8.456-2.576,8.456-8.176V-15.064ZM147.728-4.312a3.681,3.681,0,0,1-3.976-3.7,3.681,3.681,0,0,1,3.976-3.7,3.658,3.658,0,0,1,3.948,3.7A3.658,3.658,0,0,1,147.728-4.312Zm16.492-8.764v-1.988h-4.172V0h4.368V-7.112c0-2.884,1.6-4.2,4-4.2.336,0,.616.028.98.056v-4.032A6.079,6.079,0,0,0,164.22-13.076ZM178-15.288a11.58,11.58,0,0,0-6.5,1.82l1.568,3.052a7.243,7.243,0,0,1,4.34-1.4c2.352,0,3.472,1.092,3.472,2.968h-3.472c-4.592,0-6.468,1.848-6.468,4.508,0,2.6,2.1,4.564,5.628,4.564,2.212,0,3.78-.728,4.592-2.1V0h4.088V-8.6C185.248-13.16,182.588-15.288,178-15.288ZM177.66-2.716c-1.54,0-2.464-.728-2.464-1.82,0-1.008.644-1.764,2.688-1.764h3v1.54A3.218,3.218,0,0,1,177.66-2.716Zm30.828-12.572a6.774,6.774,0,0,0-5.432,2.464,5.623,5.623,0,0,0-4.956-2.464,6.1,6.1,0,0,0-4.732,1.96v-1.736H189.2V0h4.368V-7.56c0-2.688,1.372-3.948,3.3-3.948,1.82,0,2.856,1.12,2.856,3.556V0h4.368V-7.56c0-2.688,1.372-3.948,3.332-3.948,1.764,0,2.856,1.12,2.856,3.556V0h4.368V-8.624C214.648-13.216,212.072-15.288,208.488-15.288ZM225.9.224c4.788,0,8.26-3.22,8.26-7.756s-3.472-7.756-8.26-7.756-8.288,3.22-8.288,7.756S221.116.224,225.9.224Zm0-3.584a3.822,3.822,0,0,1-3.864-4.172A3.822,3.822,0,0,1,225.9-11.7c2.184,0,3.836,1.568,3.836,4.172S228.088-3.36,225.9-3.36Zm30.072-17.416v7.308a5.787,5.787,0,0,0-4.508-1.82c-4.256,0-7.532,3.024-7.532,7.756S247.212.224,251.468.224a5.8,5.8,0,0,0,4.7-1.96V0h4.172V-20.776ZM252.224-3.36a3.822,3.822,0,0,1-3.864-4.172,3.822,3.822,0,0,1,3.864-4.172c2.156,0,3.836,1.568,3.836,4.172S254.38-3.36,252.224-3.36Zm26.908-4.116a7.457,7.457,0,0,0-7.84-7.812,7.669,7.669,0,0,0-8.036,7.756c0,4.48,3.388,7.756,8.6,7.756a7.89,7.89,0,0,0,6.216-2.436l-2.324-2.52a5.107,5.107,0,0,1-3.78,1.456c-2.3,0-3.892-1.148-4.312-3.024h11.4C279.076-6.664,279.132-7.14,279.132-7.476Zm-7.812-4.508a3.58,3.58,0,0,1,3.7,3.136H267.6A3.566,3.566,0,0,1,271.32-11.984ZM282.044,0h4.368V-20.776h-4.368Zm31.108-7.476a7.457,7.457,0,0,0-7.84-7.812,7.669,7.669,0,0,0-8.036,7.756c0,4.48,3.388,7.756,8.6,7.756a7.89,7.89,0,0,0,6.216-2.436l-2.324-2.52a5.107,5.107,0,0,1-3.78,1.456c-2.3,0-3.892-1.148-4.312-3.024h11.4C313.1-6.664,313.152-7.14,313.152-7.476Zm-7.812-4.508a3.58,3.58,0,0,1,3.7,3.136h-7.42A3.566,3.566,0,0,1,305.34-11.984ZM316.064,0h4.368V-20.776h-4.368Zm23.184-7.476a7.457,7.457,0,0,0-7.84-7.812,7.669,7.669,0,0,0-8.036,7.756c0,4.48,3.388,7.756,8.6,7.756a7.89,7.89,0,0,0,6.216-2.436l-2.324-2.52a5.107,5.107,0,0,1-3.78,1.456c-2.3,0-3.892-1.148-4.312-3.024h11.4C339.192-6.664,339.248-7.14,339.248-7.476Zm-7.812-4.508a3.58,3.58,0,0,1,3.7,3.136h-7.42A3.566,3.566,0,0,1,331.436-11.984Zm30.016-3.3a6.774,6.774,0,0,0-5.432,2.464,5.623,5.623,0,0,0-4.956-2.464,6.1,6.1,0,0,0-4.732,1.96v-1.736H342.16V0h4.368V-7.56c0-2.688,1.372-3.948,3.3-3.948,1.82,0,2.856,1.12,2.856,3.556V0h4.368V-7.56c0-2.688,1.372-3.948,3.332-3.948,1.764,0,2.856,1.12,2.856,3.556V0h4.368V-8.624C367.612-13.216,365.036-15.288,361.452-15.288Zm25,7.812a7.457,7.457,0,0,0-7.84-7.812,7.669,7.669,0,0,0-8.036,7.756c0,4.48,3.388,7.756,8.6,7.756a7.89,7.89,0,0,0,6.216-2.436l-2.324-2.52a5.107,5.107,0,0,1-3.78,1.456c-2.3,0-3.892-1.148-4.312-3.024h11.4C386.4-6.664,386.456-7.14,386.456-7.476Zm-7.812-4.508a3.58,3.58,0,0,1,3.7,3.136h-7.42A3.566,3.566,0,0,1,378.644-11.984Zm19.88-3.3A6.6,6.6,0,0,0,393.54-13.3v-1.764h-4.172V0h4.368V-7.448c0-2.772,1.512-4.06,3.612-4.06,1.932,0,3.052,1.12,3.052,3.556V0h4.368V-8.624C404.768-13.216,402.08-15.288,398.524-15.288Zm18.732,11.48a2.944,2.944,0,0,1-1.764.56,1.757,1.757,0,0,1-1.876-1.988v-6.132h3.752v-3.36h-3.752V-18.4h-4.368v3.668h-2.324v3.36h2.324V-5.18c0,3.584,2.072,5.4,5.628,5.4a6.242,6.242,0,0,0,3.556-.952ZM427.588.224c4.788,0,8.26-3.22,8.26-7.756s-3.472-7.756-8.26-7.756-8.288,3.22-8.288,7.756S422.8.224,427.588.224Zm0-3.584a3.822,3.822,0,0,1-3.864-4.172,3.822,3.822,0,0,1,3.864-4.172c2.184,0,3.836,1.568,3.836,4.172S429.772-3.36,427.588-3.36Zm28-11.928a5.853,5.853,0,0,0-4.732,1.96v-1.736h-4.172v20.5h4.368V-1.6a5.848,5.848,0,0,0,4.536,1.82c4.228,0,7.5-3.024,7.5-7.756S459.816-15.288,455.588-15.288ZM454.832-3.36C452.648-3.36,451-4.928,451-7.532s1.652-4.172,3.836-4.172,3.836,1.568,3.836,4.172S457.016-3.36,454.832-3.36Zm21.98-11.7v7.448c0,2.772-1.456,4.06-3.472,4.06-1.932,0-3.052-1.12-3.052-3.64v-7.868H465.92v8.512c0,4.648,2.66,6.776,6.44,6.776a6.1,6.1,0,0,0,4.676-2.016V0h4.144V-15.064Zm12.6,1.988v-1.988H485.24V0h4.368V-7.112c0-2.884,1.6-4.2,4-4.2.336,0,.616.028.98.056v-4.032A6.079,6.079,0,0,0,489.412-13.076ZM504.224.224c4.788,0,8.26-3.22,8.26-7.756s-3.472-7.756-8.26-7.756-8.288,3.22-8.288,7.756S499.436.224,504.224.224Zm0-3.584a3.822,3.822,0,0,1-3.864-4.172,3.822,3.822,0,0,1,3.864-4.172c2.184,0,3.836,1.568,3.836,4.172S506.408-3.36,504.224-3.36Zm33.852-4.116a7.457,7.457,0,0,0-7.84-7.812A7.669,7.669,0,0,0,522.2-7.532c0,4.48,3.388,7.756,8.6,7.756a7.89,7.89,0,0,0,6.216-2.436l-2.324-2.52a5.106,5.106,0,0,1-3.78,1.456c-2.3,0-3.892-1.148-4.312-3.024h11.4C538.02-6.664,538.076-7.14,538.076-7.476Zm-7.812-4.508a3.58,3.58,0,0,1,3.7,3.136h-7.42A3.566,3.566,0,0,1,530.264-11.984Zm19.88-3.3A6.6,6.6,0,0,0,545.16-13.3v-1.764h-4.172V0h4.368V-7.448c0-2.772,1.512-4.06,3.612-4.06,1.932,0,3.052,1.12,3.052,3.556V0h4.368V-8.624C556.388-13.216,553.7-15.288,550.144-15.288Zm16.3-4.312v3.64h3.92V0H574.9V-19.6ZM580.888.224A2.673,2.673,0,0,0,583.6-2.52a2.61,2.61,0,0,0-2.716-2.688,2.61,2.61,0,0,0-2.716,2.688A2.673,2.673,0,0,0,580.888.224Zm12.8.112c4.844,0,8.4-3.668,8.4-10.136s-3.556-10.136-8.4-10.136c-4.816,0-8.4,3.668-8.4,10.136S588.868.336,593.684.336Zm0-3.836c-2.24,0-3.808-1.848-3.808-6.3s1.568-6.3,3.808-6.3c2.268,0,3.836,1.848,3.836,6.3S595.952-3.5,593.684-3.5ZM612.7.336c4.844,0,8.4-3.668,8.4-10.136s-3.556-10.136-8.4-10.136c-4.816,0-8.4,3.668-8.4,10.136S607.88.336,612.7.336Zm0-3.836c-2.24,0-3.808-1.848-3.808-6.3s1.568-6.3,3.808-6.3c2.268,0,3.836,1.848,3.836,6.3S614.964-3.5,612.7-3.5ZM631.708.336c4.844,0,8.4-3.668,8.4-10.136s-3.556-10.136-8.4-10.136c-4.816,0-8.4,3.668-8.4,10.136S626.892.336,631.708.336Zm0-3.836c-2.24,0-3.808-1.848-3.808-6.3s1.568-6.3,3.808-6.3c2.268,0,3.836,1.848,3.836,6.3S633.976-3.5,631.708-3.5ZM651.168,0h4.368V-20.776h-4.368ZM661.78-17.164a2.512,2.512,0,0,0,2.716-2.52,2.452,2.452,0,0,0-2.716-2.352,2.5,2.5,0,0,0-2.716,2.436A2.5,2.5,0,0,0,661.78-17.164ZM659.6,0h4.368V-15.064H659.6Zm16.968-3.808a2.944,2.944,0,0,1-1.764.56,1.757,1.757,0,0,1-1.876-1.988v-6.132h3.752v-3.36h-3.752V-18.4h-4.368v3.668h-2.324v3.36h2.324V-5.18c0,3.584,2.072,5.4,5.628,5.4a6.242,6.242,0,0,0,3.556-.952Zm7.812-9.268v-1.988H680.2V0h4.368V-7.112c0-2.884,1.6-4.2,4-4.2.336,0,.616.028.98.056v-4.032A6.079,6.079,0,0,0,684.376-13.076ZM699.188.224c4.788,0,8.26-3.22,8.26-7.756s-3.472-7.756-8.26-7.756-8.288,3.22-8.288,7.756S694.4.224,699.188.224Zm0-3.584a3.822,3.822,0,0,1-3.864-4.172,3.822,3.822,0,0,1,3.864-4.172c2.184,0,3.836,1.568,3.836,4.172S701.372-3.36,699.188-3.36ZM715.428.224c4.508,0,7.112-1.988,7.112-4.788,0-5.936-9.1-3.444-9.1-6.02,0-.784.84-1.4,2.8-1.4a8.651,8.651,0,0,1,4.34,1.12l1.456-3.108a12.387,12.387,0,0,0-5.8-1.316c-4.4,0-6.972,2.016-6.972,4.872,0,6.02,9.1,3.5,9.1,5.964,0,.84-.756,1.372-2.772,1.372a10.306,10.306,0,0,1-5.236-1.456L708.9-1.4A12.932,12.932,0,0,0,715.428.224Zm28.7-21v7.308a5.787,5.787,0,0,0-4.508-1.82c-4.256,0-7.532,3.024-7.532,7.756S735.364.224,739.62.224a5.8,5.8,0,0,0,4.7-1.96V0H748.5V-20.776ZM740.376-3.36a3.822,3.822,0,0,1-3.864-4.172,3.822,3.822,0,0,1,3.864-4.172c2.156,0,3.836,1.568,3.836,4.172S742.532-3.36,740.376-3.36Zm26.908-4.116a7.457,7.457,0,0,0-7.84-7.812,7.669,7.669,0,0,0-8.036,7.756c0,4.48,3.388,7.756,8.6,7.756a7.89,7.89,0,0,0,6.216-2.436L763.9-4.732a5.106,5.106,0,0,1-3.78,1.456c-2.3,0-3.892-1.148-4.312-3.024h11.4C767.228-6.664,767.284-7.14,767.284-7.476Zm-7.812-4.508a3.58,3.58,0,0,1,3.7,3.136h-7.42A3.566,3.566,0,0,1,759.472-11.984Zm24.724-3.3a11.58,11.58,0,0,0-6.5,1.82l1.568,3.052a7.243,7.243,0,0,1,4.34-1.4c2.352,0,3.472,1.092,3.472,2.968h-3.472c-4.592,0-6.468,1.848-6.468,4.508,0,2.6,2.1,4.564,5.628,4.564,2.212,0,3.78-.728,4.592-2.1V0h4.088V-8.6C791.448-13.16,788.788-15.288,784.2-15.288ZM783.86-2.716c-1.54,0-2.464-.728-2.464-1.82,0-1.008.644-1.764,2.688-1.764h3v1.54A3.219,3.219,0,0,1,783.86-2.716Zm23.1-12.348v1.932a6.047,6.047,0,0,0-4.984-2.156c-4.172,0-7.532,2.884-7.532,7.28s3.36,7.28,7.532,7.28a6.2,6.2,0,0,0,4.76-1.876v.644c0,2.716-1.344,4.116-4.424,4.116a9,9,0,0,1-5.32-1.708l-1.736,3.136a12.41,12.41,0,0,0,7.392,2.072c5.432,0,8.456-2.576,8.456-8.176V-15.064ZM802.844-4.312a3.681,3.681,0,0,1-3.976-3.7,3.681,3.681,0,0,1,3.976-3.7,3.658,3.658,0,0,1,3.948,3.7A3.658,3.658,0,0,1,802.844-4.312Zm23.128-10.752v7.448c0,2.772-1.456,4.06-3.472,4.06-1.932,0-3.052-1.12-3.052-3.64v-7.868H815.08v8.512c0,4.648,2.66,6.776,6.44,6.776A6.1,6.1,0,0,0,826.2-1.792V0h4.144V-15.064Zm14.5-.224a11.58,11.58,0,0,0-6.5,1.82l1.568,3.052a7.243,7.243,0,0,1,4.34-1.4c2.352,0,3.472,1.092,3.472,2.968h-3.472C835.3-8.848,833.42-7,833.42-4.34c0,2.6,2.1,4.564,5.628,4.564,2.212,0,3.78-.728,4.592-2.1V0h4.088V-8.6C847.728-13.16,845.068-15.288,840.476-15.288ZM840.14-2.716c-1.54,0-2.464-.728-2.464-1.82,0-1.008.644-1.764,2.688-1.764h3v1.54A3.219,3.219,0,0,1,840.14-2.716Zm22.988,8.148H867.3a25.58,25.58,0,0,1-3.388-13.1,25.58,25.58,0,0,1,3.388-13.1h-4.172a23.682,23.682,0,0,0-3.5,13.1A23.815,23.815,0,0,0,863.128,5.432ZM868.056-19.6v3.64h3.92V0h4.536V-19.6ZM882.5.224A2.673,2.673,0,0,0,885.22-2.52,2.61,2.61,0,0,0,882.5-5.208a2.61,2.61,0,0,0-2.716,2.688A2.673,2.673,0,0,0,882.5.224Zm12.8.112c4.844,0,8.4-3.668,8.4-10.136s-3.556-10.136-8.4-10.136c-4.816,0-8.4,3.668-8.4,10.136S890.484.336,895.3.336Zm0-3.836c-2.24,0-3.808-1.848-3.808-6.3s1.568-6.3,3.808-6.3c2.268,0,3.836,1.848,3.836,6.3S897.568-3.5,895.3-3.5ZM914.312.336c4.844,0,8.4-3.668,8.4-10.136s-3.556-10.136-8.4-10.136c-4.816,0-8.4,3.668-8.4,10.136S909.5.336,914.312.336Zm0-3.836c-2.24,0-3.808-1.848-3.808-6.3s1.568-6.3,3.808-6.3c2.268,0,3.836,1.848,3.836,6.3S916.58-3.5,914.312-3.5ZM933.324.336c4.844,0,8.4-3.668,8.4-10.136s-3.556-10.136-8.4-10.136c-4.816,0-8.4,3.668-8.4,10.136S928.508.336,933.324.336Zm0-3.836c-2.24,0-3.808-1.848-3.808-6.3s1.568-6.3,3.808-6.3c2.268,0,3.836,1.848,3.836,6.3S935.592-3.5,933.324-3.5Zm17.64-16.1v3.64h3.92V0h4.536V-19.6Zm20.44,8.036h13.328V-14.98H971.4Zm0,6.944h13.328V-8.036H971.4ZM994.56-19.6v3.64h3.92V0h4.536V-19.6Zm32.088,4.312a6.774,6.774,0,0,0-5.432,2.464,5.623,5.623,0,0,0-4.956-2.464,6.1,6.1,0,0,0-4.732,1.96v-1.736h-4.172V0h4.368V-7.56c0-2.688,1.372-3.948,3.3-3.948,1.82,0,2.856,1.12,2.856,3.556V0h4.368V-7.56c0-2.688,1.372-3.948,3.332-3.948,1.764,0,2.856,1.12,2.856,3.556V0h4.368V-8.624C1032.808-13.216,1030.232-15.288,1026.648-15.288Zm18.312,3.668,4.424-5.04V-19.6h-13.72v3.64h8.344l-4.032,4.564v3h2.072c2.576,0,3.668.924,3.668,2.408,0,1.6-1.4,2.52-3.668,2.52a9.519,9.519,0,0,1-5.6-1.764l-1.764,3.472a13.476,13.476,0,0,0,7.476,2.1c5.572,0,8.12-3.024,8.12-6.328C1050.28-8.876,1048.488-11.06,1044.96-11.62Zm10.78,17.052a23.362,23.362,0,0,0,3.528-13.1c0-5.152-1.232-9.772-3.528-13.1h-4.172a25.337,25.337,0,0,1,3.416,13.1,25.337,25.337,0,0,1-3.416,13.1Z" transform="translate(390 739)" fill="#00223d"/>
    <path id="Trazado_17124" data-name="Trazado 17124" d="M10.808-19.6H2.324V0H6.86V-5.4h3.948c5.236,0,8.512-2.716,8.512-7.084C19.32-16.884,16.044-19.6,10.808-19.6ZM10.556-9.1H6.86v-6.8h3.7c2.772,0,4.172,1.26,4.172,3.416C14.728-10.36,13.328-9.1,10.556-9.1ZM29.372.224c4.788,0,8.26-3.22,8.26-7.756s-3.472-7.756-8.26-7.756-8.288,3.22-8.288,7.756S24.584.224,29.372.224Zm0-3.584a3.822,3.822,0,0,1-3.864-4.172A3.822,3.822,0,0,1,29.372-11.7c2.184,0,3.836,1.568,3.836,4.172S31.556-3.36,29.372-3.36Zm15.344-9.716v-1.988H40.544V0h4.368V-7.112c0-2.884,1.6-4.2,4-4.2.336,0,.616.028.98.056v-4.032A6.079,6.079,0,0,0,44.716-13.076ZM60.536,0H64.9V-20.776H60.536Zm15.6.224c4.788,0,8.26-3.22,8.26-7.756s-3.472-7.756-8.26-7.756-8.288,3.22-8.288,7.756S71.344.224,76.132.224Zm0-3.584a3.822,3.822,0,0,1-3.864-4.172A3.822,3.822,0,0,1,76.132-11.7c2.184,0,3.836,1.568,3.836,4.172S78.316-3.36,76.132-3.36Zm27.636-.448a2.944,2.944,0,0,1-1.764.56,1.757,1.757,0,0,1-1.876-1.988v-6.132h3.752v-3.36h-3.752V-18.4H95.76v3.668H93.436v3.36H95.76V-5.18c0,3.584,2.072,5.4,5.628,5.4a6.242,6.242,0,0,0,3.556-.952Zm9.716-11.48a11.58,11.58,0,0,0-6.5,1.82l1.568,3.052a7.243,7.243,0,0,1,4.34-1.4c2.352,0,3.472,1.092,3.472,2.968H112.9c-4.592,0-6.468,1.848-6.468,4.508,0,2.6,2.1,4.564,5.628,4.564,2.212,0,3.78-.728,4.592-2.1V0h4.088V-8.6C120.736-13.16,118.076-15.288,113.484-15.288Zm-.336,12.572c-1.54,0-2.464-.728-2.464-1.82,0-1.008.644-1.764,2.688-1.764h3v1.54A3.218,3.218,0,0,1,113.148-2.716ZM133.84-15.288a6.6,6.6,0,0,0-4.984,1.988v-1.764h-4.172V0h4.368V-7.448c0-2.772,1.512-4.06,3.612-4.06,1.932,0,3.052,1.12,3.052,3.556V0h4.368V-8.624C140.084-13.216,137.4-15.288,133.84-15.288Zm18.732,11.48a2.944,2.944,0,0,1-1.764.56,1.757,1.757,0,0,1-1.876-1.988v-6.132h3.752v-3.36h-3.752V-18.4h-4.368v3.668H142.24v3.36h2.324V-5.18c0,3.584,2.072,5.4,5.628,5.4a6.242,6.242,0,0,0,3.556-.952ZM162.9.224c4.788,0,8.26-3.22,8.26-7.756s-3.472-7.756-8.26-7.756-8.288,3.22-8.288,7.756S158.116.224,162.9.224Zm0-3.584a3.822,3.822,0,0,1-3.864-4.172A3.822,3.822,0,0,1,162.9-11.7c2.184,0,3.836,1.568,3.836,4.172S165.088-3.36,162.9-3.36Zm29.9-11.7v7.448c0,2.772-1.456,4.06-3.472,4.06-1.932,0-3.052-1.12-3.052-3.64v-7.868h-4.368v8.512c0,4.648,2.66,6.776,6.44,6.776a6.1,6.1,0,0,0,4.676-2.016V0h4.144V-15.064Zm17.584-.224a6.6,6.6,0,0,0-4.984,1.988v-1.764h-4.172V0H205.6V-7.448c0-2.772,1.512-4.06,3.612-4.06,1.932,0,3.052,1.12,3.052,3.556V0h4.368V-8.624C216.636-13.216,213.948-15.288,210.392-15.288Zm16.268,0a11.58,11.58,0,0,0-6.5,1.82l1.568,3.052a7.243,7.243,0,0,1,4.34-1.4c2.352,0,3.472,1.092,3.472,2.968h-3.472C221.48-8.848,219.6-7,219.6-4.34c0,2.6,2.1,4.564,5.628,4.564,2.212,0,3.78-.728,4.592-2.1V0h4.088V-8.6C233.912-13.16,231.252-15.288,226.66-15.288Zm-.336,12.572c-1.54,0-2.464-.728-2.464-1.82,0-1.008.644-1.764,2.688-1.764h3v1.54A3.218,3.218,0,0,1,226.324-2.716Zm26.74,2.94c3.164,0,5.656-1.4,6.748-3.808l-3.388-1.848a3.706,3.706,0,0,1-3.388,2.072,3.854,3.854,0,0,1-3.948-4.172,3.854,3.854,0,0,1,3.948-4.172,3.756,3.756,0,0,1,3.388,2.072l3.388-1.82c-1.092-2.464-3.584-3.836-6.748-3.836-4.9,0-8.4,3.22-8.4,7.756S248.164.224,253.064.224Zm16.24,0c4.788,0,8.26-3.22,8.26-7.756s-3.472-7.756-8.26-7.756-8.288,3.22-8.288,7.756S264.516.224,269.3.224Zm0-3.584a3.822,3.822,0,0,1-3.864-4.172A3.822,3.822,0,0,1,269.3-11.7c2.184,0,3.836,1.568,3.836,4.172S271.488-3.36,269.3-3.36Zm20.328-11.928a6.6,6.6,0,0,0-4.984,1.988v-1.764h-4.172V0h4.368V-7.448c0-2.772,1.512-4.06,3.612-4.06,1.932,0,3.052,1.12,3.052,3.556V0h4.368V-8.624C295.876-13.216,293.188-15.288,289.632-15.288ZM307.272.224c3.164,0,5.656-1.4,6.748-3.808l-3.388-1.848a3.706,3.706,0,0,1-3.388,2.072A3.854,3.854,0,0,1,303.3-7.532a3.854,3.854,0,0,1,3.948-4.172,3.756,3.756,0,0,1,3.388,2.072l3.388-1.82c-1.092-2.464-3.584-3.836-6.748-3.836-4.9,0-8.4,3.22-8.4,7.756S302.372.224,307.272.224Zm23.828-7.7a7.457,7.457,0,0,0-7.84-7.812,7.669,7.669,0,0,0-8.036,7.756c0,4.48,3.388,7.756,8.6,7.756a7.89,7.89,0,0,0,6.216-2.436l-2.324-2.52a5.107,5.107,0,0,1-3.78,1.456c-2.3,0-3.892-1.148-4.312-3.024h11.4C331.044-6.664,331.1-7.14,331.1-7.476Zm-7.812-4.508a3.58,3.58,0,0,1,3.7,3.136h-7.42A3.566,3.566,0,0,1,323.288-11.984Zm19.88-3.3a6.6,6.6,0,0,0-4.984,1.988v-1.764h-4.172V0h4.368V-7.448c0-2.772,1.512-4.06,3.612-4.06,1.932,0,3.052,1.12,3.052,3.556V0h4.368V-8.624C349.412-13.216,346.724-15.288,343.168-15.288ZM361.9-3.808a2.944,2.944,0,0,1-1.764.56,1.757,1.757,0,0,1-1.876-1.988v-6.132h3.752v-3.36H358.26V-18.4h-4.368v3.668h-2.324v3.36h2.324V-5.18c0,3.584,2.072,5.4,5.628,5.4a6.242,6.242,0,0,0,3.556-.952Zm7.812-9.268v-1.988H365.54V0h4.368V-7.112c0-2.884,1.6-4.2,4-4.2.336,0,.616.028.98.056v-4.032A6.079,6.079,0,0,0,369.712-13.076Zm13.776-2.212a11.58,11.58,0,0,0-6.5,1.82l1.568,3.052a7.243,7.243,0,0,1,4.34-1.4c2.352,0,3.472,1.092,3.472,2.968H382.9c-4.592,0-6.468,1.848-6.468,4.508,0,2.6,2.1,4.564,5.628,4.564,2.212,0,3.78-.728,4.592-2.1V0h4.088V-8.6C390.74-13.16,388.08-15.288,383.488-15.288Zm-.336,12.572c-1.54,0-2.464-.728-2.464-1.82,0-1.008.644-1.764,2.688-1.764h3v1.54A3.218,3.218,0,0,1,383.152-2.716ZM402.136.224c3.164,0,5.656-1.4,6.748-3.808L405.5-5.432a3.706,3.706,0,0,1-3.388,2.072,3.854,3.854,0,0,1-3.948-4.172,3.854,3.854,0,0,1,3.948-4.172A3.756,3.756,0,0,1,405.5-9.632l3.388-1.82c-1.092-2.464-3.584-3.836-6.748-3.836-4.9,0-8.4,3.22-8.4,7.756S397.236.224,402.136.224Zm11.452-17.388a2.512,2.512,0,0,0,2.716-2.52,2.452,2.452,0,0,0-2.716-2.352,2.5,2.5,0,0,0-2.716,2.436A2.5,2.5,0,0,0,413.588-17.164ZM411.4,0h4.368V-15.064H411.4ZM424.4-17h3.416l5.068-4.032h-4.7ZM427,.224c4.788,0,8.26-3.22,8.26-7.756s-3.472-7.756-8.26-7.756-8.288,3.22-8.288,7.756S422.212.224,427,.224Zm0-3.584a3.822,3.822,0,0,1-3.864-4.172A3.822,3.822,0,0,1,427-11.7c2.184,0,3.836,1.568,3.836,4.172S429.184-3.36,427-3.36Zm20.328-11.928a6.6,6.6,0,0,0-4.984,1.988v-1.764h-4.172V0h4.368V-7.448c0-2.772,1.512-4.06,3.612-4.06,1.932,0,3.052,1.12,3.052,3.556V0h4.368V-8.624C453.572-13.216,450.884-15.288,447.328-15.288Zm29.092-5.488v7.308a5.787,5.787,0,0,0-4.508-1.82c-4.256,0-7.532,3.024-7.532,7.756S467.656.224,471.912.224a5.8,5.8,0,0,0,4.7-1.96V0h4.172V-20.776ZM472.668-3.36A3.822,3.822,0,0,1,468.8-7.532a3.822,3.822,0,0,1,3.864-4.172c2.156,0,3.836,1.568,3.836,4.172S474.824-3.36,472.668-3.36Zm26.908-4.116a7.457,7.457,0,0,0-7.84-7.812A7.669,7.669,0,0,0,483.7-7.532c0,4.48,3.388,7.756,8.6,7.756a7.89,7.89,0,0,0,6.216-2.436l-2.324-2.52a5.107,5.107,0,0,1-3.78,1.456c-2.3,0-3.892-1.148-4.312-3.024h11.4C499.52-6.664,499.576-7.14,499.576-7.476Zm-7.812-4.508a3.58,3.58,0,0,1,3.7,3.136h-7.42A3.566,3.566,0,0,1,491.764-11.984ZM508.592-19.6v3.64h3.92V0h4.536V-19.6ZM528.864.336c4.844,0,8.4-3.668,8.4-10.136s-3.556-10.136-8.4-10.136c-4.816,0-8.4,3.668-8.4,10.136S524.048.336,528.864.336Zm0-3.836c-2.24,0-3.808-1.848-3.808-6.3s1.568-6.3,3.808-6.3c2.268,0,3.836,1.848,3.836,6.3S531.132-3.5,528.864-3.5ZM547.876.336c4.844,0,8.4-3.668,8.4-10.136s-3.556-10.136-8.4-10.136c-4.816,0-8.4,3.668-8.4,10.136S543.06.336,547.876.336Zm0-3.836c-2.24,0-3.808-1.848-3.808-6.3s1.568-6.3,3.808-6.3c2.268,0,3.836,1.848,3.836,6.3S550.144-3.5,547.876-3.5ZM576.24-15.288a5.853,5.853,0,0,0-4.732,1.96v-1.736h-4.172v20.5H571.7V-1.6A5.848,5.848,0,0,0,576.24.224c4.228,0,7.5-3.024,7.5-7.756S580.468-15.288,576.24-15.288ZM575.484-3.36c-2.184,0-3.836-1.568-3.836-4.172S573.3-11.7,575.484-11.7s3.836,1.568,3.836,4.172S577.668-3.36,575.484-3.36ZM595.56-15.288a5.853,5.853,0,0,0-4.732,1.96v-1.736h-4.172v20.5h4.368V-1.6A5.848,5.848,0,0,0,595.56.224c4.228,0,7.5-3.024,7.5-7.756S599.788-15.288,595.56-15.288ZM594.8-3.36c-2.184,0-3.836-1.568-3.836-4.172S592.62-11.7,594.8-11.7s3.836,1.568,3.836,4.172S596.988-3.36,594.8-3.36Zm30.464-11.928a6.774,6.774,0,0,0-5.432,2.464,5.623,5.623,0,0,0-4.956-2.464,6.1,6.1,0,0,0-4.732,1.96v-1.736h-4.172V0h4.368V-7.56c0-2.688,1.372-3.948,3.3-3.948,1.82,0,2.856,1.12,2.856,3.556V0h4.368V-7.56c0-2.688,1.372-3.948,3.332-3.948,1.764,0,2.856,1.12,2.856,3.556V0h4.368V-8.624C631.428-13.216,628.852-15.288,625.268-15.288Zm17.724,3.724H656.32V-14.98H642.992Zm0,6.944H656.32V-8.036H642.992ZM666.148-19.6v3.64h3.92V0H674.6V-19.6ZM686.42.336c4.844,0,8.4-3.668,8.4-10.136s-3.556-10.136-8.4-10.136c-4.816,0-8.4,3.668-8.4,10.136S681.6.336,686.42.336Zm0-3.836c-2.24,0-3.808-1.848-3.808-6.3s1.568-6.3,3.808-6.3c2.268,0,3.836,1.848,3.836,6.3S688.688-3.5,686.42-3.5ZM705.432.336c4.844,0,8.4-3.668,8.4-10.136s-3.556-10.136-8.4-10.136c-4.816,0-8.4,3.668-8.4,10.136S700.616.336,705.432.336Zm0-3.836c-2.24,0-3.808-1.848-3.808-6.3s1.568-6.3,3.808-6.3c2.268,0,3.836,1.848,3.836,6.3S707.7-3.5,705.432-3.5Zm22.932-11.564v1.932a6.047,6.047,0,0,0-4.984-2.156c-4.172,0-7.532,2.884-7.532,7.28s3.36,7.28,7.532,7.28A6.2,6.2,0,0,0,728.14-2.6v.644c0,2.716-1.344,4.116-4.424,4.116A9,9,0,0,1,718.4.448L716.66,3.584a12.41,12.41,0,0,0,7.392,2.072c5.432,0,8.456-2.576,8.456-8.176V-15.064ZM724.248-4.312a3.681,3.681,0,0,1-3.976-3.7,3.681,3.681,0,0,1,3.976-3.7,3.658,3.658,0,0,1,3.948,3.7A3.658,3.658,0,0,1,724.248-4.312Zm35-3.164a7.457,7.457,0,0,0-7.84-7.812,7.669,7.669,0,0,0-8.036,7.756c0,4.48,3.388,7.756,8.6,7.756a7.89,7.89,0,0,0,6.216-2.436l-2.324-2.52a5.106,5.106,0,0,1-3.78,1.456c-2.3,0-3.892-1.148-4.312-3.024h11.4C759.192-6.664,759.248-7.14,759.248-7.476Zm-7.812-4.508a3.58,3.58,0,0,1,3.7,3.136h-7.42A3.566,3.566,0,0,1,751.436-11.984Zm19.88-3.3a6.6,6.6,0,0,0-4.984,1.988v-1.764H762.16V0h4.368V-7.448c0-2.772,1.512-4.06,3.612-4.06,1.932,0,3.052,1.12,3.052,3.556V0h4.368V-8.624C777.56-13.216,774.872-15.288,771.316-15.288Zm16.3-4.312v3.64h3.92V0h4.536V-19.6Zm40.012,4.312a6.774,6.774,0,0,0-5.432,2.464,5.623,5.623,0,0,0-4.956-2.464,6.1,6.1,0,0,0-4.732,1.96v-1.736h-4.172V0H812.7V-7.56c0-2.688,1.372-3.948,3.3-3.948,1.82,0,2.856,1.12,2.856,3.556V0h4.368V-7.56c0-2.688,1.372-3.948,3.332-3.948,1.764,0,2.856,1.12,2.856,3.556V0h4.368V-8.624C833.784-13.216,831.208-15.288,827.624-15.288Zm18.312,3.668,4.424-5.04V-19.6H836.64v3.64h8.344L840.952-11.4v3h2.072c2.576,0,3.668.924,3.668,2.408,0,1.6-1.4,2.52-3.668,2.52a9.519,9.519,0,0,1-5.6-1.764L835.66-1.764a13.476,13.476,0,0,0,7.476,2.1c5.572,0,8.12-3.024,8.12-6.328C851.256-8.876,849.464-11.06,845.936-11.62Zm27.244-9.156v7.308a5.787,5.787,0,0,0-4.508-1.82c-4.256,0-7.532,3.024-7.532,7.756S864.416.224,868.672.224a5.8,5.8,0,0,0,4.7-1.96V0h4.172V-20.776ZM869.428-3.36a3.822,3.822,0,0,1-3.864-4.172,3.822,3.822,0,0,1,3.864-4.172c2.156,0,3.836,1.568,3.836,4.172S871.584-3.36,869.428-3.36Zm26.908-4.116a7.457,7.457,0,0,0-7.84-7.812,7.669,7.669,0,0,0-8.036,7.756c0,4.48,3.388,7.756,8.6,7.756a7.89,7.89,0,0,0,6.216-2.436l-2.324-2.52a5.106,5.106,0,0,1-3.78,1.456c-2.3,0-3.892-1.148-4.312-3.024h11.4C896.28-6.664,896.336-7.14,896.336-7.476Zm-7.812-4.508a3.58,3.58,0,0,1,3.7,3.136H884.8A3.566,3.566,0,0,1,888.524-11.984Zm24.724-3.3a11.58,11.58,0,0,0-6.5,1.82l1.568,3.052a7.243,7.243,0,0,1,4.34-1.4c2.352,0,3.472,1.092,3.472,2.968H912.66c-4.592,0-6.468,1.848-6.468,4.508,0,2.6,2.1,4.564,5.628,4.564,2.212,0,3.78-.728,4.592-2.1V0H920.5V-8.6C920.5-13.16,917.84-15.288,913.248-15.288Zm-.336,12.572c-1.54,0-2.464-.728-2.464-1.82,0-1.008.644-1.764,2.688-1.764h3v1.54A3.219,3.219,0,0,1,912.912-2.716Zm23.1-12.348v1.932a6.047,6.047,0,0,0-4.984-2.156c-4.172,0-7.532,2.884-7.532,7.28s3.36,7.28,7.532,7.28a6.2,6.2,0,0,0,4.76-1.876v.644c0,2.716-1.344,4.116-4.424,4.116a9,9,0,0,1-5.32-1.708l-1.736,3.136A12.41,12.41,0,0,0,931.7,5.656c5.432,0,8.456-2.576,8.456-8.176V-15.064ZM931.9-4.312a3.681,3.681,0,0,1-3.976-3.7,3.681,3.681,0,0,1,3.976-3.7,3.658,3.658,0,0,1,3.948,3.7A3.658,3.658,0,0,1,931.9-4.312Zm23.128-10.752v7.448c0,2.772-1.456,4.06-3.472,4.06-1.932,0-3.052-1.12-3.052-3.64v-7.868h-4.368v8.512c0,4.648,2.66,6.776,6.44,6.776a6.1,6.1,0,0,0,4.676-2.016V0h4.144V-15.064Zm14.5-.224a11.58,11.58,0,0,0-6.5,1.82l1.568,3.052a7.243,7.243,0,0,1,4.34-1.4c2.352,0,3.472,1.092,3.472,2.968H968.94c-4.592,0-6.468,1.848-6.468,4.508,0,2.6,2.1,4.564,5.628,4.564,2.212,0,3.78-.728,4.592-2.1V0h4.088V-8.6C976.78-13.16,974.12-15.288,969.528-15.288Zm-.336,12.572c-1.54,0-2.464-.728-2.464-1.82,0-1.008.644-1.764,2.688-1.764h3v1.54A3.219,3.219,0,0,1,969.192-2.716ZM982.38.224A2.673,2.673,0,0,0,985.1-2.52a2.61,2.61,0,0,0-2.716-2.688,2.61,2.61,0,0,0-2.716,2.688A2.673,2.673,0,0,0,982.38.224Z" transform="translate(391 787)" fill="#fdac29"/>
  </g>
</svg>
