<svg xmlns="http://www.w3.org/2000/svg" width="487.939" height="346.365" viewBox="0 0 487.939 346.365">
  <g id="Grupo_8443" data-name="Grupo 8443" transform="translate(-1085.547 -43.33)">
    <path id="Trazado_13383" data-name="Trazado 13383" d="M219.605,12.129c121.285,0,219.605-48.707,219.605,49.093S340.89,238.3,219.605,238.3,0,159.022,0,61.222,98.321,12.129,219.605,12.129Z" transform="matrix(0.996, 0.087, -0.087, 0.996, 1106.316, 82.991)" fill="#fff" opacity="0.273"/>
    <path id="Trazado_13400" data-name="Trazado 13400" d="M203.146,11.22c112.194,0,203.146-45.056,203.146,45.413s-90.951,163.81-203.146,163.81S0,147.1,0,56.633,90.951,11.22,203.146,11.22Z" transform="matrix(0.94, 0.342, -0.342, 0.94, 1191.698, 43.33)" fill="#fff" opacity="0.149"/>
    <g id="Grupo_8442" data-name="Grupo 8442" transform="translate(1122.999 61.03)">
      <g id="Grupo_8425" data-name="Grupo 8425" transform="translate(149.839 112.02)">
        <path id="Trazado_13846" data-name="Trazado 13846" d="M392.995,327.775s9.232-6.4,9.1-9.607-2.7-21.135,10.754-30.1,39.265-13.449,39.265-13.449,0,40.988-16.209,48.97c-11.2,5.515-27.539-.984-30.1,0s-12.809,8.669-12.809,8.669Z" transform="translate(-392.995 -274.619)" fill="#02592b"/>
        <path id="Trazado_13847" data-name="Trazado 13847" d="M423.875,322.567s12.809-5.764,21.775-15.691,19.213-21.454,19.213-21.454S450.773,318.084,423.875,322.567Z" transform="translate(-408.326 -279.982)" fill="#024a24"/>
        <path id="Trazado_13848" data-name="Trazado 13848" d="M428.439,314.445s11.47-23.154,18.119-15.347S426.011,324.669,428.439,314.445Z" transform="translate(-410.515 -285.974)" fill="#037539"/>
      </g>
      <g id="Grupo_8426" data-name="Grupo 8426" transform="translate(90.72 81.048)">
        <path id="Trazado_13849" data-name="Trazado 13849" d="M334.707,266.268s-9.233-6.4-9.1-9.607,2.695-21.135-10.754-30.1-39.266-13.449-39.266-13.449,0,40.988,16.21,48.97c11.2,5.514,27.539-.984,30.1,0s12.809,8.669,12.809,8.669Z" transform="translate(-275.588 -213.112)" fill="#02592b"/>
        <path id="Trazado_13850" data-name="Trazado 13850" d="M321.7,261.06s-12.809-5.764-21.775-15.691-19.213-21.455-19.213-21.455S294.8,256.577,321.7,261.06Z" transform="translate(-278.133 -218.475)" fill="#024a24"/>
        <path id="Trazado_13851" data-name="Trazado 13851" d="M338.5,252.938s-11.47-23.154-18.119-15.347S340.927,263.161,338.5,252.938Z" transform="translate(-297.304 -224.467)" fill="#037539"/>
      </g>
      <g id="Grupo_8427" data-name="Grupo 8427" transform="translate(150.338 37.832)">
        <path id="Trazado_13852" data-name="Trazado 13852" d="M393.987,175.718s8.412-5.835,8.291-8.753-2.455-19.256,9.8-27.425,35.775-12.254,35.775-12.254,0,37.345-14.769,44.617c-10.2,5.024-25.091-.9-27.425,0s-11.671,7.9-11.671,7.9Z" transform="translate(-393.987 -127.287)" fill="#02592b"/>
        <path id="Trazado_13853" data-name="Trazado 13853" d="M422.123,170.972s11.67-5.251,19.839-14.3,17.506-19.548,17.506-19.548S446.63,166.888,422.123,170.972Z" transform="translate(-407.955 -132.173)" fill="#024a24"/>
        <path id="Trazado_13854" data-name="Trazado 13854" d="M426.282,163.573s10.45-21.1,16.509-13.983S424.069,172.887,426.282,163.573Z" transform="translate(-409.95 -137.632)" fill="#037539"/>
      </g>
      <g id="Grupo_8428" data-name="Grupo 8428" transform="translate(116.283 1.697)">
        <path id="Trazado_13855" data-name="Trazado 13855" d="M361.056,124.244s-4.431-9.229-2.884-11.706,11.648-15.529,5.03-28.685S338.15,55.525,338.15,55.525s-18.449,32.469-9.2,46.088c6.39,9.41,22.258,11.616,23.845,13.549s6.244,12.633,6.244,12.633Z" transform="translate(-326.355 -55.525)" fill="#02592b"/>
        <path id="Trazado_13856" data-name="Trazado 13856" d="M364.477,114.265s-7.552-10.332-10.187-22.231-5.563-25.644-5.563-25.644S345.187,98.606,364.477,114.265Z" transform="translate(-337.335 -60.919)" fill="#024a24"/>
        <path id="Trazado_13857" data-name="Trazado 13857" d="M378.914,116.819s1.336-23.5-7.446-20.313S376.236,126.011,378.914,116.819Z" transform="translate(-347.301 -75.723)" fill="#037539"/>
      </g>
      <path id="Trazado_13858" data-name="Trazado 13858" d="M358.294,332.319s8.158-15.371,12.1-57.639,1.007-104.391,5.594-106.953.464,99.267,2.29,114.638,15.408,49.954,15.408,49.954Z" transform="translate(-225.929 -109.508)" fill="#037036"/>
      <circle id="Elipse_514" data-name="Elipse 514" cx="16.212" cy="16.212" r="16.212" transform="translate(46.432 291.18)" fill="#663b27"/>
      <circle id="Elipse_515" data-name="Elipse 515" cx="9.289" cy="9.289" r="9.289" transform="translate(94.115 298.103)" fill="#663b27"/>
      <circle id="Elipse_516" data-name="Elipse 516" cx="14.097" cy="14.097" r="14.097" transform="translate(149.839 291.18)" fill="#663b27"/>
      <circle id="Elipse_517" data-name="Elipse 517" cx="14.413" cy="14.413" r="14.413" transform="translate(199.075 300.466) rotate(-45)" fill="#663b27"/>
      <circle id="Elipse_518" data-name="Elipse 518" cx="10.057" cy="10.057" r="10.057" transform="translate(234.757 301.111) rotate(-27.966)" fill="#663b27"/>
      <circle id="Elipse_519" data-name="Elipse 519" cx="10.057" cy="10.057" r="10.057" transform="matrix(0.878, -0.478, 0.478, 0.878, 265.727, 306.067)" fill="#663b27"/>
      <circle id="Elipse_520" data-name="Elipse 520" cx="9.289" cy="9.289" r="9.289" transform="translate(123.935 310.086)" fill="#663b27"/>
      <circle id="Elipse_521" data-name="Elipse 521" cx="9.289" cy="9.289" r="9.289" transform="translate(19.855 295.988)" fill="#663b27"/>
      <path id="Trazado_13859" data-name="Trazado 13859" d="M402.986,509.4c-5.636-20.437-23.261-19.031-23.261-19.031s2.823-9.156-9.156-28.188-45.115-14.1-45.115-14.1-3.521-15.5-28.9-22.552-46.521,5.075-46.521,5.075-21.146-12.127-46.521-5.075c-24.8,6.893-28.737,21.854-28.9,22.531a.033.033,0,0,0-.011.021s-33.125-4.927-45.1,14.1-9.167,28.188-9.167,28.188-17.625-1.406-23.261,19.031,4.938,27.49,4.938,27.49h5.721a14.209,14.209,0,0,1,27.277-7.46,9.245,9.245,0,0,1,10.06-.632,16.178,16.178,0,0,1,26.913-1.72,10.334,10.334,0,0,1,11.384,3.284,9.277,9.277,0,0,1,17.748-.77,11.279,11.279,0,0,1,17.625.491,16.179,16.179,0,0,1,26.871-3.87,15.17,15.17,0,0,1,26.726-1.423,9.26,9.26,0,0,1,12.242,4.523,9.268,9.268,0,0,1,15.312-2.269,14.926,14.926,0,0,1,27.317-2.939,16.192,16.192,0,0,1,29.3,4.01,9.24,9.24,0,0,1,10.069,2.73,12.107,12.107,0,0,1,23.409,6.045h8.066S408.632,529.849,402.986,509.4Z" transform="translate(-95.424 -236.424)" fill="#4a2b1c"/>
      <path id="Trazado_13860" data-name="Trazado 13860" d="M476.141,536.89s4.229-20.438-12.688-31.011-24.677-9.864-24.677-9.864-1.66-21.855-29.023-29.6-35.821,0-35.821,0-6.344-16.916-27.49-20.448-28.9,3.531-28.9,3.531-7.126-7.634-33.833-8.458c-25.914-.8-30.746,6.587-31.011,7.02.159-.677,4.092-15.637,28.9-22.531,25.375-7.052,46.521,5.075,46.521,5.075s21.146-12.127,46.521-5.075,28.9,22.552,28.9,22.552,33.125-4.927,45.115,14.1,9.156,28.188,9.156,28.188,17.625-1.406,23.261,19.031S476.141,536.89,476.141,536.89Z" transform="translate(-173.507 -236.424)" fill="#3b2216"/>
      <g id="Grupo_8429" data-name="Grupo 8429" transform="translate(212.804)">
        <path id="Trazado_13861" data-name="Trazado 13861" d="M588.9,211.23c12.223,3.045,22.649,2.758,26.76.366s80.471,25.689,80.471,25.689,39.2-41.044,18.49-71.757c0,0-70.011-21.056-69.855-25.384s-8.818-19.995-9.893-30.806,1.411-19.88-5.333-26.114c-4.733-4.386-9.559-7.6-11.153-13.3a18.544,18.544,0,0,1-.044-8.841,17.549,17.549,0,0,0,.427-4.946c-.537-6.305-6.649-4.2-10.7-.084-4.878,4.957-12.417,15.363-11.682,23.858s8.107,19.451,7.542,22.6l-.566,3.151s-11.449-7.487-18.535-8.017c-3-.224-10.63.089-10.63.089s-15.808-8.148-24.074-7.366c-11.158,1.051-16.29,4.263-16.455,7.611s8.913,7.793,12.659,9.139a20.866,20.866,0,0,1,5.842,3.088,44.121,44.121,0,0,1,11.85,5.8c5.83,4.093,7.611,5.461,5.256,6.263s-23.723-13.57-32.391-15.86-18.9-1.419-18.841,5.465,17.893,12.19,21.707,14.546,21.98,11.259,21.015,13.23-26.281-14.334-29.39-9-1.7,7.489,2.07,11.788,24.906,14.149,24.323,15.338-20.565-11.23-23.075-6.893c-2.38,4.111.865,9.243,9.392,17.824s22.418,22.24,25.784,25.362S576.672,208.184,588.9,211.23Z" transform="translate(-518.04 -52.155)" fill="#f4e0aa"/>
        <path id="Trazado_13862" data-name="Trazado 13862" d="M702.009,88.54l.062.946s5.779.2,7.949-1.086l-.3-.949S701.947,87.593,702.009,88.54Z" transform="translate(-609.373 -69.679)" fill="#c9b17d"/>
        <path id="Trazado_13863" data-name="Trazado 13863" d="M702.009,73.642s5.12.5,7.707-1.088a18.544,18.544,0,0,1-.044-8.841,17.55,17.55,0,0,0,.427-4.946c-.124-.761-.206-1.225-.206-1.225s-2.289-1.113-4.862,4.142A37.18,37.18,0,0,0,702.009,73.642Z" transform="translate(-609.373 -54.78)" fill="#e5ce9b"/>
        <path id="Trazado_13864" data-name="Trazado 13864" d="M679.931,158.429s-9.675,15.052-7.27,28.852a33.2,33.2,0,0,0,11.946,20.508s-10.749-14.221-9.54-26.253A122.809,122.809,0,0,1,679.931,158.429Z" transform="translate(-594.612 -104.916)" fill="#e5ce9b"/>
        <path id="Trazado_13865" data-name="Trazado 13865" d="M640.537,217.321s-2.444,12.037-6.7,21.559A70.222,70.222,0,0,1,622.7,255.818S636.426,233.224,640.537,217.321Z" transform="translate(-569.997 -134.153)" fill="#e5ce9b"/>
        <path id="Trazado_13866" data-name="Trazado 13866" d="M655.231,280.7a38.606,38.606,0,0,0-11.422,13.749c-4.28,8.491-4.718,12.145-4.718,12.145S646.643,290.342,655.231,280.7Z" transform="translate(-578.137 -165.62)" fill="#d5c48b"/>
        <path id="Trazado_13867" data-name="Trazado 13867" d="M621.591,148.309s-10.019,7.595-13.235,14.164-2.272,7.968-2.272,7.968a39.046,39.046,0,0,0-5.817,8.553,53.825,53.825,0,0,0-3.521,9.27,24.038,24.038,0,0,0-4.346,8.459,19.032,19.032,0,0,0-.091,8.8s-3.948,5.848-4.39,10.517a81.806,81.806,0,0,0-.264,9.417,51,51,0,0,1,1.852-11.624c1.6-6.22,4.1-8.375,4.1-8.375a45.162,45.162,0,0,1,1.338-10.506,19.614,19.614,0,0,1,3.837-7.523,32.062,32.062,0,0,1,4.248-10.339c3.23-4.934,4.694-5.845,4.694-5.845s-.567-4.533,4.884-12.471S621.591,148.309,621.591,148.309Z" transform="translate(-552.583 -99.892)" fill="#e5ce9b"/>
        <path id="Trazado_13868" data-name="Trazado 13868" d="M755.813,285.981s25.541,13.117,38.99,17.667,33.208,10.763,33.3,12.234-34.422-9.118-47.559-15.551S749.513,285.543,755.813,285.981Z" transform="translate(-635.438 -168.232)" fill="#e5ce9b"/>
        <path id="Trazado_13869" data-name="Trazado 13869" d="M605.432,161.653a42.233,42.233,0,0,1,4.247-7.425c1.97-2.362,3.2-2.372,3.2-2.372S606.373,159.645,605.432,161.653Z" transform="translate(-561.426 -101.653)" fill="#e5ce9b"/>
        <path id="Trazado_13870" data-name="Trazado 13870" d="M578.162,195.2a42.219,42.219,0,0,1,4.246-7.425c1.971-2.362,3.2-2.372,3.2-2.372S579.1,193.193,578.162,195.2Z" transform="translate(-547.888 -118.308)" fill="#e5ce9b"/>
        <path id="Trazado_13871" data-name="Trazado 13871" d="M564.135,230.162a38.4,38.4,0,0,1,4.032-6.649c1.846-2.1,2.961-2.081,2.961-2.081S565.036,228.36,564.135,230.162Z" transform="translate(-540.924 -136.194)" fill="#e5ce9b"/>
        <path id="Trazado_13872" data-name="Trazado 13872" d="M560.379,185.331a42.246,42.246,0,0,1,2.463-8.192c1.388-2.745,2.58-3.032,2.58-3.032S560.842,183.164,560.379,185.331Z" transform="translate(-539.059 -112.7)" fill="#e5ce9b"/>
        <path id="Trazado_13873" data-name="Trazado 13873" d="M567.6,269.329a42.212,42.212,0,0,1,2.463-8.192c1.387-2.745,2.58-3.031,2.58-3.031S568.066,267.161,567.6,269.329Z" transform="translate(-542.646 -154.401)" fill="#e5ce9b"/>
        <path id="Trazado_13874" data-name="Trazado 13874" d="M588.046,151.357a42.215,42.215,0,0,1,1.539-8.414c1.075-2.882,2.228-3.3,2.228-3.3S588.266,149.152,588.046,151.357Z" transform="translate(-552.795 -95.59)" fill="#e5ce9b"/>
      </g>
      <g id="Grupo_8430" data-name="Grupo 8430" transform="translate(270.989 91.946)">
        <path id="Trazado_13876" data-name="Trazado 13876" d="M637.835,237.574s-4.508-.109-4.23,3.993,5.837,6.633,7.782,3.7,1.329-12.554-1.112-10.124Z" transform="translate(-633.592 -234.755)" fill="#4a5959"/>
        <ellipse id="Elipse_522" data-name="Elipse 522" cx="2.223" cy="2.311" rx="2.223" ry="2.311" transform="translate(1.68 5.891)" fill="#566"/>
      </g>
      <g id="Grupo_8431" data-name="Grupo 8431" transform="translate(245.216 159.07)">
        <path id="Trazado_13877" data-name="Trazado 13877" d="M586.65,370.877s-4.508-.11-4.23,3.993,5.836,6.633,7.782,3.7,1.329-12.554-1.112-10.123Z" transform="translate(-582.408 -368.057)" fill="#4a5959"/>
        <path id="Trazado_13878" data-name="Trazado 13878" d="M590.191,382.068a2.225,2.225,0,1,1-2.224-2.311A2.268,2.268,0,0,1,590.191,382.068Z" transform="translate(-584.064 -373.866)" fill="#566"/>
      </g>
      <g id="Grupo_8432" data-name="Grupo 8432" transform="translate(230.465 120.87)">
        <path id="Trazado_13879" data-name="Trazado 13879" d="M555.183,295.279s-3.2,1.422-1.64,4.209,6.3,2.713,6.692.008-3.243-9.252-4.148-6.734Z" transform="translate(-553.114 -292.196)" fill="#4a5959"/>
        <path id="Trazado_13880" data-name="Trazado 13880" d="M560.151,303.545a1.728,1.728,0,1,1-2.329-.882A1.762,1.762,0,0,1,560.151,303.545Z" transform="translate(-554.969 -297.313)" fill="#566"/>
      </g>
      <g id="Grupo_8433" data-name="Grupo 8433" transform="translate(258.032 103.426)">
        <path id="Trazado_13881" data-name="Trazado 13881" d="M613.619,259.955s-.431-2.949-3.073-2.311-3.671,4.54-1.544,5.482,8.326-.532,6.471-1.852Z" transform="translate(-607.859 -257.554)" fill="#4a5959"/>
        <path id="Trazado_13882" data-name="Trazado 13882" d="M611,263.072a1.47,1.47,0,1,1,1.258-1.705A1.5,1.5,0,0,1,611,263.072Z" transform="translate(-608.539 -258.844)" fill="#566"/>
      </g>
      <g id="Grupo_8434" data-name="Grupo 8434" transform="translate(241.705 115.977)">
        <path id="Trazado_13883" data-name="Trazado 13883" d="M581.116,284.736s-.608-2.917-3.206-2.12-3.39,4.753-1.21,5.564,8.279-1.034,6.347-2.239Z" transform="translate(-575.436 -282.477)" fill="#4a5959"/>
        <path id="Trazado_13884" data-name="Trazado 13884" d="M578.568,288.117a1.47,1.47,0,1,1,1.153-1.779A1.5,1.5,0,0,1,578.568,288.117Z" transform="translate(-576.068 -283.836)" fill="#566"/>
      </g>
      <g id="Grupo_8435" data-name="Grupo 8435" transform="translate(213.762 177.387)">
        <path id="Trazado_13885" data-name="Trazado 13885" d="M525.622,406.694s-.608-2.917-3.206-2.12-3.39,4.754-1.21,5.565,8.278-1.034,6.347-2.239Z" transform="translate(-519.942 -404.435)" fill="#4a5959"/>
        <path id="Trazado_13886" data-name="Trazado 13886" d="M523.074,410.075a1.471,1.471,0,1,1,1.152-1.779A1.5,1.5,0,0,1,523.074,410.075Z" transform="translate(-520.573 -405.794)" fill="#566"/>
      </g>
      <path id="Trazado_13887" data-name="Trazado 13887" d="M629.643,262.067s-6.763,4.758-4.258,7.279,6.011.015,6.262-1.989S634.152,260.785,629.643,262.067Z" transform="translate(-358.252 -156.257)" fill="#566"/>
      <path id="Trazado_13888" data-name="Trazado 13888" d="M548.994,316.763s-4.528,3.186-2.851,4.874,4.025.01,4.193-1.332S552.013,315.9,548.994,316.763Z" transform="translate(-319.003 -183.448)" fill="#566"/>
      <path id="Trazado_13889" data-name="Trazado 13889" d="M524.68,289.176s-4.528,3.186-2.851,4.874,4.025.01,4.193-1.332S527.7,288.318,524.68,289.176Z" transform="translate(-306.932 -169.752)" fill="#566"/>
      <path id="Trazado_13890" data-name="Trazado 13890" d="M514.57,345.161s-4.529,3.186-2.852,4.874,4.025.01,4.193-1.332S517.589,344.3,514.57,345.161Z" transform="translate(-301.913 -197.546)" fill="#566"/>
      <path id="Trazado_13891" data-name="Trazado 13891" d="M578.376,310.817S573,314.6,574.993,316.6s4.777.012,4.975-1.58S581.958,309.8,578.376,310.817Z" transform="translate(-333.291 -180.482)" fill="#566"/>
      <path id="Trazado_13892" data-name="Trazado 13892" d="M566.7,326.834s-.434-6.556-3.179-5.9-2.494,4.074-1.238,5.072S565.708,330.424,566.7,326.834Z" transform="translate(-326.752 -185.571)" fill="#566"/>
      <path id="Trazado_13893" data-name="Trazado 13893" d="M565.424,408.546s-.434-6.556-3.179-5.9-2.5,4.074-1.239,5.072S564.431,412.135,565.424,408.546Z" transform="translate(-326.118 -226.138)" fill="#566"/>
      <path id="Trazado_13894" data-name="Trazado 13894" d="M529.573,366.758s-.434-6.556-3.179-5.9-2.495,4.073-1.239,5.072S528.58,370.347,529.573,366.758Z" transform="translate(-308.319 -205.392)" fill="#566"/>
      <path id="Trazado_13895" data-name="Trazado 13895" d="M620.056,244.235s4.283,1.982,1.512,4.753-6.047-1.234-5.795-3.388S618.577,243.225,620.056,244.235Z" transform="translate(-353.75 -147.227)" fill="#4a5959"/>
      <path id="Trazado_13896" data-name="Trazado 13896" d="M640.079,213.692s4.283,1.982,1.512,4.753-6.047-1.234-5.795-3.388S638.6,212.682,640.079,213.692Z" transform="translate(-363.69 -132.064)" fill="#4a5959"/>
      <path id="Trazado_13897" data-name="Trazado 13897" d="M596.316,300.932s2.26,1.046.8,2.509-3.191-.651-3.058-1.788S595.536,300.4,596.316,300.932Z" transform="translate(-342.971 -175.511)" fill="#4a5959"/>
      <path id="Trazado_13898" data-name="Trazado 13898" d="M549.559,376.773s2.26,1.046.8,2.509-3.191-.651-3.058-1.788S548.779,376.241,549.559,376.773Z" transform="translate(-319.758 -213.163)" fill="#4a5959"/>
      <path id="Trazado_13899" data-name="Trazado 13899" d="M571.345,365.074s2.26,1.046.8,2.508-3.191-.651-3.058-1.788S570.564,364.541,571.345,365.074Z" transform="translate(-330.574 -207.355)" fill="#4a5959"/>
      <path id="Trazado_13900" data-name="Trazado 13900" d="M605.553,240.672s2.26,1.046.8,2.508-3.191-.651-3.058-1.788S604.772,240.139,605.553,240.672Z" transform="translate(-347.557 -145.594)" fill="#4a5959"/>
      <path id="Trazado_13901" data-name="Trazado 13901" d="M609.861,276.371s4.283,1.982,1.512,4.753-6.047-1.234-5.795-3.388S608.382,275.362,609.861,276.371Z" transform="translate(-348.688 -163.182)" fill="#4a5959"/>
      <path id="Trazado_13902" data-name="Trazado 13902" d="M669.457,229.1s4.283,1.982,1.512,4.753-6.047-1.234-5.795-3.388S667.978,228.092,669.457,229.1Z" transform="translate(-378.276 -139.714)" fill="#4a5959"/>
      <g id="Grupo_8436" data-name="Grupo 8436" transform="translate(257.507 122.141)">
        <path id="Trazado_13903" data-name="Trazado 13903" d="M609.411,294.983a4.812,4.812,0,0,1,5.309,1.492c2.088,2.685-1.371,5.071-5.309,3.878S606.47,295.083,609.411,294.983Z" transform="translate(-606.818 -294.719)" fill="#4a5959"/>
        <ellipse id="Elipse_523" data-name="Elipse 523" cx="2.356" cy="1.211" rx="2.356" ry="1.211" transform="translate(2.593 2.352)" fill="#566"/>
      </g>
      <g id="Grupo_8437" data-name="Grupo 8437" transform="translate(248.591 143.966)">
        <path id="Trazado_13904" data-name="Trazado 13904" d="M591.7,338.326a4.813,4.813,0,0,1,5.309,1.492c2.088,2.684-1.371,5.071-5.309,3.878S588.763,338.426,591.7,338.326Z" transform="translate(-589.111 -338.062)" fill="#4a5959"/>
        <path id="Trazado_13905" data-name="Trazado 13905" d="M598.973,343.945c0,.669-1.055,1.211-2.356,1.211s-2.357-.542-2.357-1.211,1.055-1.211,2.357-1.211S598.973,343.276,598.973,343.945Z" transform="translate(-591.667 -340.382)" fill="#566"/>
      </g>
      <g id="Grupo_8438" data-name="Grupo 8438" transform="translate(212.804 137.517)">
        <path id="Trazado_13906" data-name="Trazado 13906" d="M520.633,325.519a4.813,4.813,0,0,1,5.309,1.491c2.088,2.685-1.371,5.071-5.309,3.878S517.692,325.618,520.633,325.519Z" transform="translate(-518.04 -325.254)" fill="#4a5959"/>
        <path id="Trazado_13907" data-name="Trazado 13907" d="M527.9,331.136c0,.669-1.055,1.211-2.356,1.211s-2.356-.542-2.356-1.211,1.055-1.21,2.356-1.21S527.9,330.468,527.9,331.136Z" transform="translate(-520.597 -327.574)" fill="#566"/>
      </g>
      <g id="Grupo_8439" data-name="Grupo 8439" transform="translate(226.484 146.94)">
        <path id="Trazado_13908" data-name="Trazado 13908" d="M546.189,346.258a4.814,4.814,0,0,1,5.077-2.154c3.308.791,2.1,4.815-1.721,6.346S543.956,348.174,546.189,346.258Z" transform="translate(-545.207 -343.969)" fill="#4a5959"/>
        <path id="Trazado_13909" data-name="Trazado 13909" d="M554.782,347.506c.418.522-.067,1.6-1.083,2.418s-2.178,1.049-2.6.528.067-1.6,1.083-2.418S554.365,346.984,554.782,347.506Z" transform="translate(-548.06 -345.587)" fill="#566"/>
      </g>
      <g id="Grupo_8440" data-name="Grupo 8440" transform="translate(197.859 163.2)">
        <path id="Trazado_13910" data-name="Trazado 13910" d="M489.343,378.548a4.813,4.813,0,0,1,5.077-2.154c3.308.791,2.1,4.816-1.721,6.346S487.11,380.465,489.343,378.548Z" transform="translate(-488.361 -376.259)" fill="#4a5959"/>
        <path id="Trazado_13911" data-name="Trazado 13911" d="M497.936,379.8c.418.522-.067,1.6-1.083,2.418s-2.178,1.049-2.6.528.067-1.6,1.083-2.418S497.518,379.274,497.936,379.8Z" transform="translate(-491.214 -377.877)" fill="#566"/>
      </g>
      <g id="Grupo_8441" data-name="Grupo 8441" transform="translate(247.087 106.498)">
        <path id="Trazado_13912" data-name="Trazado 13912" d="M587.1,265.943a4.813,4.813,0,0,1,5.077-2.154c3.308.791,2.1,4.815-1.721,6.346S584.872,267.859,587.1,265.943Z" transform="translate(-586.123 -263.654)" fill="#4a5959"/>
        <path id="Trazado_13913" data-name="Trazado 13913" d="M595.7,267.191c.418.522-.067,1.6-1.083,2.418s-2.178,1.05-2.6.528.067-1.6,1.083-2.418S595.28,266.669,595.7,267.191Z" transform="translate(-588.976 -265.272)" fill="#566"/>
      </g>
    </g>
  </g>
</svg>
